<svg id="svg" version="1.1" xmlns="http://www.w3.org/2000/svg" xmlns:xlink="http://www.w3.org/1999/xlink" width="400" height="547.4747474747475" viewBox="0, 0, 400,547.4747474747475"><g id="svgg"><path id="path0" d="M180.808 22.222 C 180.121 23.333,177.209 24.242,174.335 24.242 C 165.767 24.242,151.833 34.338,149.241 42.424 C 143.949 58.934,130.019 70.687,115.728 70.700 C 83.349 70.728,108.169 128.940,142.929 134.497 C 153.782 136.232,153.943 135.684,138.384 149.942 C 131.162 156.559,125.253 162.702,125.253 163.591 C 125.253 164.481,121.588 171.446,117.109 179.069 C 106.839 196.549,98.197 224.233,93.033 256.187 C 88.799 282.395,86.843 291.332,75.708 335.354 C 62.983 385.664,48.159 424.402,35.034 441.642 C 6.213 479.500,44.795 518.672,116.425 524.275 C 127.391 525.133,141.818 526.257,148.485 526.772 C 155.152 527.287,175.238 527.925,193.122 528.189 C 211.006 528.453,226.625 529.279,227.831 530.024 C 229.037 530.769,230.511 530.590,231.107 529.626 C 231.703 528.662,242.813 527.239,255.795 526.462 C 295.817 524.070,305.732 523.016,315.152 520.157 C 320.152 518.640,329.444 515.966,335.803 514.215 C 355.267 508.854,373.737 487.304,373.737 469.956 C 373.737 462.935,361.431 436.805,350.947 421.564 C 348.022 417.314,345.064 411.859,344.371 409.443 C 343.679 407.027,341.891 402.323,340.396 398.990 C 331.191 378.454,320.484 334.933,314.057 291.919 C 310.443 267.734,308.398 259.075,296.753 218.621 C 287.033 184.854,274.889 161.803,259.327 147.580 C 250.035 139.088,248.780 137.180,251.857 136.226 C 300.609 121.116,324.014 64.646,281.524 64.646 C 270.119 64.646,261.360 57.308,258.311 45.199 C 253.828 27.398,235.318 16.099,221.462 22.706 C 209.279 28.516,192.679 29.438,190.011 24.452 C 187.611 19.966,182.907 18.827,180.808 22.222 M237.187 29.085 C 251.841 35.208,254.804 58.218,244.609 86.741 C 234.655 114.592,227.005 122.883,235.246 96.888 C 237.873 88.603,239.474 80.937,238.803 79.852 C 238.133 78.767,236.097 82.857,234.280 88.940 C 229.971 103.367,225.885 110.970,219.107 117.172 L 213.588 122.222 219.026 112.356 C 239.486 75.236,235.748 36.527,213.059 50.550 C 204.644 55.751,194.366 53.530,189.008 45.352 C 180.470 32.322,159.498 47.655,161.976 65.116 C 162.334 67.636,163.915 69.697,165.489 69.697 C 167.210 69.697,170.129 74.938,172.805 82.828 C 178.098 98.441,183.356 108.564,190.716 117.310 C 196.287 123.932,196.524 126.915,191.240 123.923 C 187.747 121.945,175.871 104.774,171.898 95.960 C 170.396 92.626,168.779 90.967,168.304 92.273 C 167.338 94.930,174.547 110.208,179.336 115.657 C 181.067 117.625,181.475 119.192,180.258 119.192 C 172.755 119.192,155.349 84.189,152.612 63.594 C 151.132 52.463,154.438 39.367,157.483 44.294 C 158.853 46.512,160.342 46.208,165.254 42.711 C 168.596 40.331,172.781 38.384,174.554 38.384 C 176.327 38.384,177.778 37.475,177.778 36.364 C 177.778 34.273,175.610 33.730,168.687 34.086 C 165.027 34.275,165.079 34.075,169.248 31.965 C 172.728 30.203,176.337 30.209,184.049 31.989 C 200.081 35.690,214.047 34.027,229.863 26.533 C 230.176 26.384,233.472 27.533,237.187 29.085 M230.303 31.527 C 230.303 32.201,232.510 34.488,235.207 36.610 C 240.941 41.120,245.296 52.721,243.444 58.554 C 242.684 60.950,243.066 62.626,244.372 62.626 C 250.932 62.626,248.835 45.551,241.154 36.423 C 236.596 31.007,230.303 28.167,230.303 31.527 M230.367 41.919 C 230.403 42.753,231.766 45.199,233.398 47.356 C 235.029 49.513,236.364 53.376,236.364 55.942 C 236.364 58.507,237.273 60.606,238.384 60.606 C 241.237 60.606,240.892 55.582,237.477 47.410 C 234.923 41.297,230.186 37.639,230.367 41.919 M174.114 52.020 C 170.139 56.089,168.493 56.801,167.962 54.679 C 167.189 51.590,172.845 46.465,177.025 46.465 C 178.408 46.465,177.098 48.965,174.114 52.020 M197.425 57.962 C 205.058 60.636,206.639 60.613,212.382 57.749 C 221.883 53.009,223.545 53.680,225.948 63.225 C 229.295 76.516,219.244 108.029,208.105 119.167 L 203.677 123.595 198.633 118.868 C 176.634 98.254,166.435 46.307,185.859 53.803 C 187.525 54.447,192.730 56.318,197.425 57.962 M282.045 70.233 C 286.885 70.779,291.995 72.621,293.402 74.327 C 295.635 77.036,295.416 77.140,291.672 75.145 C 288.979 73.711,285.215 73.483,281.553 74.534 C 275.194 76.358,267.778 74.359,262.210 69.321 C 256.894 64.510,259.798 62.533,266.944 66.098 C 270.410 67.827,277.206 69.688,282.045 70.233 M281.236 77.913 C 289.358 76.648,294.204 81.197,291.696 87.732 C 291.025 89.480,291.483 90.909,292.713 90.909 C 297.314 90.909,294.677 97.357,286.364 106.436 C 277.516 116.098,256.011 131.313,251.202 131.313 C 245.720 131.313,248.722 127.606,257.576 123.444 C 269.473 117.852,269.342 116.168,257.408 121.284 C 252.316 123.467,247.089 125.217,245.792 125.173 C 244.495 125.130,246.604 123.720,250.477 122.040 C 270.145 113.510,280.575 90.273,266.710 85.872 C 264.509 85.174,262.917 83.976,263.172 83.210 C 263.428 82.445,261.591 79.773,259.091 77.273 C 251.694 69.876,253.871 68.439,264.141 73.941 C 271.464 77.864,275.514 78.805,281.236 77.913 M142.035 76.631 C 141.195 79.844,141.812 80.326,145.525 79.355 C 154.307 77.058,148.447 83.672,139.372 86.299 C 127.055 89.865,124.580 98.255,132.445 109.781 C 134.755 113.168,130.470 121.212,126.355 121.212 C 115.037 121.212,102.779 78.889,113.300 76.138 C 117.907 74.933,120.461 77.868,116.222 79.495 C 112.391 80.965,112.540 98.004,116.412 101.218 C 118.716 103.130,118.967 101.955,117.907 94.222 C 116.813 86.239,117.170 84.767,120.438 83.785 C 123.327 82.916,140.812 74.436,142.740 72.968 C 142.914 72.836,142.597 74.484,142.035 76.631 M255.556 88.889 C 256.242 90.000,258.970 90.909,261.616 90.909 C 276.254 90.909,258.688 116.047,240.938 120.502 C 233.694 122.320,233.586 120.526,240.301 109.939 C 243.691 104.593,246.465 99.547,246.465 98.726 C 246.465 91.236,252.782 84.400,255.556 88.889 M158.322 101.143 C 167.085 121.348,165.371 122.653,144.881 111.379 C 132.598 104.619,128.416 90.644,139.548 93.555 C 141.604 94.092,144.340 93.263,145.628 91.711 C 149.926 86.532,152.964 88.790,158.322 101.143 M144.313 117.122 C 150.268 119.386,151.241 123.232,145.859 123.232 C 142.112 123.232,137.374 119.623,137.374 116.768 C 137.374 114.700,138.033 114.734,144.313 117.122 M140.404 125.253 C 141.091 126.364,140.289 127.273,138.622 127.273 C 136.956 127.273,135.030 126.364,134.343 125.253 C 133.657 124.141,134.459 123.232,136.125 123.232 C 137.792 123.232,139.717 124.141,140.404 125.253 M174.747 125.253 C 175.523 126.507,171.738 127.273,164.766 127.273 C 158.589 127.273,153.535 126.364,153.535 125.253 C 153.535 124.141,158.027 123.232,163.517 123.232 C 169.007 123.232,174.061 124.141,174.747 125.253 M220.978 133.587 C 256.248 143.233,275.705 167.802,293.568 225.253 C 298.062 239.708,300.232 257.572,297.270 255.741 C 295.994 254.952,294.949 253.029,294.949 251.467 C 294.949 247.171,289.372 245.001,269.560 241.588 C 245.967 237.525,225.681 237.546,231.264 241.628 C 235.048 244.395,235.047 244.496,231.194 247.410 C 227.582 250.143,228.099 250.382,237.760 250.441 C 243.527 250.476,248.810 251.417,249.500 252.533 C 250.189 253.648,252.954 254.008,255.644 253.333 C 260.900 252.013,280.256 255.858,284.242 259.013 C 285.575 260.069,289.561 260.631,293.101 260.264 C 299.353 259.615,299.620 259.915,302.397 270.707 C 304.745 279.828,315.152 333.158,315.152 336.066 C 315.152 338.995,306.688 338.328,303.254 335.128 C 297.574 329.837,295.592 330.348,295.398 337.154 C 295.297 340.723,296.946 344.585,299.636 347.080 C 305.074 352.124,312.121 353.600,312.121 349.696 C 312.121 348.140,309.904 346.529,307.193 346.115 C 300.969 345.165,299.415 343.649,302.631 341.661 C 310.586 336.744,326.006 352.108,319.573 358.542 C 317.812 360.303,309.406 359.719,308.189 357.752 C 307.562 356.737,303.431 355.296,299.008 354.548 C 291.871 353.343,291.306 352.850,293.986 350.169 C 298.672 345.484,295.320 342.727,289.541 346.513 C 284.952 349.520,284.195 349.530,280.983 346.623 C 275.938 342.058,274.389 342.662,275.118 348.911 C 275.658 353.532,277.019 354.626,283.838 355.918 C 312.643 361.377,321.212 364.143,321.212 367.980 C 321.212 369.304,319.419 368.987,316.653 367.174 C 312.456 364.424,297.429 361.361,258.959 355.411 C 242.790 352.911,241.466 350.505,256.260 350.505 L 265.657 350.505 265.059 341.423 C 264.084 326.603,259.515 326.134,260.063 340.909 C 260.194 344.429,255.463 344.063,251.659 340.260 C 245.288 333.888,250.078 323.232,259.314 323.232 C 265.377 323.232,265.618 322.713,262.136 317.137 C 259.090 312.259,261.513 307.493,269.283 303.081 C 278.498 297.848,289.892 312.491,281.818 319.192 C 277.359 322.893,278.006 327.099,282.839 325.835 C 285.067 325.252,288.022 325.677,289.405 326.779 C 292.796 329.482,311.111 332.018,311.111 329.786 C 311.111 328.809,305.927 326.376,299.590 324.379 C 288.980 321.034,288.372 320.526,291.895 317.949 C 295.644 315.208,295.643 315.092,291.800 312.213 C 288.193 309.511,288.486 309.370,295.455 310.458 C 300.122 311.186,303.030 310.831,303.030 309.533 C 303.030 308.374,299.397 306.812,294.955 306.062 C 290.514 305.311,284.832 302.882,282.329 300.664 C 278.202 297.008,278.155 296.762,281.818 298.030 C 292.046 301.569,299.182 303.150,300.700 302.212 C 302.687 300.984,301.231 289.264,298.913 287.831 C 291.980 283.547,238.384 278.909,238.384 282.594 C 238.384 283.953,242.397 284.848,248.485 284.848 C 263.757 284.848,260.585 288.320,244.482 289.230 C 221.472 290.530,222.879 294.271,246.311 294.093 C 259.007 293.996,267.323 294.799,268.788 296.264 C 272.356 299.831,264.084 301.658,251.491 300.084 C 244.715 299.238,240.307 299.533,239.469 300.889 C 238.741 302.067,239.214 303.030,240.520 303.030 C 241.873 303.030,242.456 304.710,241.875 306.931 C 241.033 310.152,242.225 311.064,248.710 312.159 C 257.270 313.605,258.889 316.162,252.525 318.182 C 250.303 318.887,248.485 320.767,248.485 322.358 C 248.485 324.080,246.487 325.253,243.554 325.253 C 240.841 325.253,238.060 326.162,237.374 327.273 C 236.687 328.384,237.542 329.293,239.275 329.293 C 243.779 329.293,243.168 332.825,238.402 334.338 C 233.531 335.884,229.673 333.849,230.986 330.426 C 232.605 326.209,226.000 315.163,221.130 313.940 C 218.599 313.305,213.992 308.772,210.892 303.867 C 201.908 289.655,183.838 293.953,183.838 310.302 C 183.838 312.891,182.082 315.949,179.935 317.098 C 172.838 320.897,171.217 333.114,176.955 339.553 C 181.563 344.722,180.429 345.455,167.818 345.455 L 155.838 345.455 157.659 339.103 C 159.882 331.353,155.004 321.658,147.998 319.899 C 143.794 318.844,134.835 304.124,134.438 297.617 C 134.164 293.138,131.942 292.900,116.987 295.748 C 108.755 297.316,101.749 297.874,101.418 296.988 C 101.087 296.103,99.042 295.842,96.873 296.410 C 93.771 297.221,92.943 296.420,92.994 292.660 C 93.082 286.049,98.332 279.342,101.184 282.194 C 102.742 283.752,105.185 283.453,109.762 281.141 C 113.282 279.364,119.750 277.655,124.136 277.344 C 128.522 277.033,133.067 275.757,134.237 274.508 C 136.427 272.170,116.647 273.127,104.545 275.945 C 99.984 277.007,98.990 276.554,98.990 273.410 C 98.990 270.215,100.327 269.657,107.071 270.034 C 111.515 270.282,115.152 269.657,115.152 268.646 C 115.152 267.634,119.697 266.203,125.253 265.466 C 130.808 264.729,135.354 263.322,135.354 262.340 C 135.354 260.367,120.153 261.482,107.122 264.410 C 99.234 266.182,98.794 266.041,99.379 261.932 C 99.865 258.524,101.167 257.712,105.363 258.200 C 108.312 258.543,111.320 257.862,112.047 256.685 C 112.775 255.508,118.089 254.532,123.857 254.515 C 134.393 254.483,141.555 252.079,137.878 249.807 C 135.994 248.642,132.802 248.868,112.844 251.573 C 107.686 252.272,102.948 252.006,102.314 250.980 C 100.639 248.271,103.228 234.343,105.406 234.343 C 106.424 234.343,106.658 237.521,105.927 241.414 C 104.449 249.293,104.697 249.480,112.137 246.090 L 117.393 243.695 112.815 241.245 C 107.293 238.290,120.654 231.233,127.598 233.437 C 132.463 234.981,140.352 232.474,138.008 230.129 C 136.973 229.094,130.264 229.071,122.148 230.074 C 106.069 232.060,106.935 232.312,106.180 225.431 C 105.489 219.138,108.160 218.444,109.745 224.505 C 110.602 227.783,111.741 228.419,114.526 227.177 C 116.537 226.280,122.545 225.162,127.879 224.692 C 134.024 224.151,137.279 222.988,136.765 221.515 C 135.877 218.969,132.275 218.795,120.574 220.734 C 115.097 221.642,113.095 221.322,113.658 219.631 C 114.365 217.510,117.348 216.574,134.848 212.978 C 137.348 212.465,139.394 211.067,139.394 209.873 C 139.394 207.339,120.432 209.381,114.382 212.567 C 110.880 214.410,110.694 213.965,112.019 206.904 C 113.429 199.389,114.530 196.919,125.754 176.103 C 144.537 141.266,184.239 123.540,220.978 133.587 M200.000 141.414 C 200.000 142.525,203.409 143.370,207.576 143.292 C 213.653 143.178,214.352 142.807,211.111 141.414 C 205.497 139.002,200.000 139.002,200.000 141.414 M167.677 147.475 C 167.677 148.586,169.896 149.495,172.608 149.495 C 175.320 149.495,178.101 148.586,178.788 147.475 C 179.516 146.296,177.462 145.455,173.857 145.455 C 170.458 145.455,167.677 146.364,167.677 147.475 M200.000 150.505 C 200.000 152.357,200.977 153.546,202.172 153.148 C 203.366 152.750,204.343 151.561,204.343 150.505 C 204.343 149.449,203.366 148.260,202.172 147.862 C 200.977 147.464,200.000 148.653,200.000 150.505 M219.192 149.474 C 223.636 150.398,228.318 151.463,229.596 151.840 C 230.874 152.217,232.237 151.616,232.626 150.505 C 233.033 149.343,228.615 148.338,222.222 148.139 C 211.521 147.806,211.409 147.855,219.192 149.474 M151.727 155.727 C 149.066 156.792,147.247 158.015,147.686 158.446 C 149.218 159.948,167.677 157.036,167.677 155.293 C 167.677 152.995,157.890 153.262,151.727 155.727 M221.212 157.576 C 220.439 158.827,224.087 159.596,230.790 159.596 C 236.744 159.596,242.707 160.687,244.040 162.020 C 245.830 163.809,247.057 163.852,248.727 162.182 C 250.397 160.512,248.941 159.351,243.171 157.749 C 233.338 155.018,222.844 154.936,221.212 157.576 M208.081 161.497 C 208.081 164.997,211.637 165.644,214.160 162.604 C 216.237 160.101,215.937 159.596,212.369 159.596 C 210.010 159.596,208.081 160.451,208.081 161.497 M143.434 166.975 C 139.545 168.724,137.432 170.560,138.739 171.054 C 142.462 172.464,157.836 167.712,156.507 165.562 C 154.869 162.911,151.709 163.253,143.434 166.975 M227.361 167.534 C 225.849 169.981,226.225 170.099,237.374 170.681 C 241.818 170.914,248.864 171.815,253.030 172.685 C 257.953 173.712,260.606 173.528,260.606 172.159 C 260.606 171.000,256.970 169.518,252.525 168.864 C 248.081 168.211,240.901 167.158,236.571 166.524 C 231.909 165.842,228.152 166.254,227.361 167.534 M226.742 176.086 C 222.488 180.341,223.863 181.050,235.287 180.491 C 241.361 180.194,250.258 181.133,255.058 182.577 C 259.857 184.022,265.520 184.595,267.642 183.851 C 273.250 181.883,255.709 177.778,241.698 177.778 C 235.616 177.778,230.325 176.835,229.941 175.682 C 229.495 174.343,228.340 174.489,226.742 176.086 M138.551 177.512 C 135.309 178.214,132.230 180.069,131.709 181.635 C 131.005 183.752,131.739 184.062,134.573 182.842 C 136.669 181.940,141.338 180.787,144.949 180.279 C 148.561 179.771,151.515 178.546,151.515 177.557 C 151.515 175.577,147.550 175.563,138.551 177.512 M123.929 190.996 C 122.233 195.417,124.235 196.647,128.987 194.103 C 131.231 192.902,134.892 191.919,137.122 191.919 C 139.351 191.919,141.738 191.010,142.424 189.899 C 143.187 188.664,140.067 187.879,134.399 187.879 C 127.905 187.879,124.767 188.813,123.929 190.996 M234.343 189.899 C 234.343 191.010,238.207 191.930,242.929 191.943 C 247.652 191.956,256.473 193.287,262.532 194.899 C 272.864 197.648,277.046 197.585,274.183 194.722 C 270.002 190.541,234.343 186.224,234.343 189.899 M229.427 197.881 C 223.143 200.169,228.576 201.940,245.784 203.215 C 254.492 203.860,265.139 205.711,269.444 207.329 C 277.313 210.285,282.216 209.428,276.751 206.051 C 271.957 203.088,244.443 197.548,241.029 198.858 C 239.292 199.525,236.851 199.257,235.603 198.264 C 234.354 197.271,231.575 197.099,229.427 197.881 M119.109 200.909 C 114.350 205.624,117.156 207.610,124.747 204.901 C 128.914 203.414,133.860 202.158,135.739 202.109 C 137.618 202.060,139.738 201.077,140.450 199.925 C 142.102 197.252,121.858 198.186,119.109 200.909 M228.283 209.091 C 228.283 210.758,229.192 212.121,230.303 212.121 C 231.414 212.121,232.323 210.758,232.323 209.091 C 232.323 207.424,231.414 206.061,230.303 206.061 C 229.192 206.061,228.283 207.424,228.283 209.091 M238.384 209.977 C 238.384 211.156,241.613 212.121,245.561 212.121 C 249.508 212.121,259.059 213.559,266.784 215.316 C 274.510 217.073,281.959 218.135,283.337 217.676 C 286.187 216.726,262.437 210.949,247.980 209.076 C 241.779 208.273,238.384 208.592,238.384 209.977 M241.539 217.980 C 240.633 219.446,242.782 220.210,247.861 220.224 C 252.093 220.236,259.192 220.750,263.636 221.366 C 269.247 222.144,270.791 221.889,268.687 220.531 C 263.779 217.365,243.119 215.423,241.539 217.980 M280.808 225.253 C 282.191 226.919,284.803 228.254,286.611 228.219 C 289.373 228.165,289.272 227.680,285.978 225.188 C 280.873 221.328,277.585 221.369,280.808 225.253 M242.424 228.436 C 242.424 229.156,248.273 230.344,255.422 231.077 C 262.571 231.809,272.231 233.753,276.888 235.396 C 281.546 237.039,286.833 238.355,288.638 238.320 C 294.589 238.203,284.693 232.323,278.546 232.323 C 275.504 232.323,271.692 231.000,270.075 229.382 C 267.122 226.429,242.424 225.584,242.424 228.436 M127.778 239.212 C 116.096 241.890,116.872 245.029,128.788 243.299 C 139.501 241.744,140.987 241.036,138.249 238.790 C 137.212 237.939,132.500 238.129,127.778 239.212 M260.244 243.468 C 273.224 244.291,291.133 250.166,292.419 254.023 C 293.343 256.797,282.840 255.535,276.053 252.057 C 273.993 251.002,264.520 249.539,255.003 248.806 C 244.639 248.009,237.384 246.524,236.915 245.105 C 236.156 242.811,243.844 240.426,247.024 241.968 C 247.887 242.387,253.836 243.062,260.244 243.468 M230.480 258.160 C 225.106 259.034,219.691 263.462,221.627 265.399 C 222.306 266.077,224.104 265.600,225.624 264.338 C 228.980 261.553,266.174 263.160,272.129 266.346 C 277.679 269.317,296.970 271.651,296.970 269.352 C 296.970 266.923,272.624 260.597,259.596 259.642 C 254.040 259.234,246.313 258.556,242.424 258.134 C 238.535 257.712,233.161 257.724,230.480 258.160 M228.283 272.727 C 228.283 273.838,230.047 274.747,232.204 274.747 C 234.361 274.747,236.687 273.838,237.374 272.727 C 238.082 271.581,236.385 270.707,233.453 270.707 C 230.609 270.707,228.283 271.616,228.283 272.727 M262.299 274.825 C 274.896 276.855,287.831 279.432,291.042 280.552 C 296.415 282.425,301.312 280.461,297.360 278.019 C 292.919 275.274,264.232 270.733,252.525 270.922 C 239.553 271.130,239.672 271.178,262.299 274.825 M112.215 285.074 C 105.599 286.038,98.781 288.266,97.063 290.025 C 93.688 293.481,100.391 293.045,117.172 288.715 C 121.061 287.712,126.796 286.886,129.917 286.880 C 133.184 286.873,135.062 286.011,134.343 284.848 C 132.926 282.554,129.247 282.592,112.215 285.074 M286.850 289.887 C 288.008 290.603,288.404 292.079,287.732 293.167 C 286.958 294.420,285.496 294.305,283.747 292.853 C 282.228 291.593,280.052 291.138,278.911 291.843 C 275.934 293.683,262.626 290.854,262.626 288.381 C 262.626 286.201,282.928 287.463,286.850 289.887 M115.911 303.307 C 113.346 306.142,110.834 306.887,106.819 306.005 C 103.240 305.219,99.409 306.007,96.027 308.223 C 90.212 312.033,88.137 311.381,90.068 306.350 C 90.785 304.479,93.671 302.981,96.681 302.916 C 99.617 302.854,105.202 301.655,109.091 300.254 C 117.936 297.065,120.515 298.220,115.911 303.307 M206.564 303.977 C 209.367 307.832,209.669 309.964,208.023 314.294 C 205.361 321.294,206.533 322.320,212.627 318.326 C 217.145 315.366,217.773 315.393,220.726 318.670 C 229.458 328.358,224.854 342.129,213.603 339.979 C 208.385 338.981,204.275 342.549,207.348 345.409 C 208.306 346.302,216.252 347.550,225.004 348.184 C 233.756 348.817,241.266 349.683,241.692 350.109 C 242.117 350.535,223.138 351.458,199.516 352.160 C 175.893 352.863,142.072 355.253,124.357 357.473 C 106.642 359.692,91.751 361.112,91.267 360.628 C 89.885 359.245,99.052 356.098,109.905 354.230 C 115.569 353.255,120.729 351.053,121.955 349.087 C 124.952 344.282,122.677 342.854,116.505 345.665 C 108.698 349.223,100.440 343.498,102.269 335.797 C 104.201 327.657,108.958 323.232,115.778 323.232 C 121.521 323.232,121.663 323.039,118.495 319.538 C 114.048 314.624,114.278 310.507,119.253 306.005 C 127.012 298.983,141.226 308.520,135.844 317.137 C 132.376 322.690,132.684 323.711,137.375 322.222 C 143.091 320.408,153.535 328.237,153.535 334.337 C 153.535 343.394,141.862 349.135,135.791 343.064 C 132.458 339.731,129.972 342.883,132.634 347.067 C 136.560 353.237,194.365 349.261,195.616 342.734 C 196.190 339.739,195.479 339.274,192.006 340.376 C 185.424 342.466,177.778 336.538,177.778 329.347 C 177.778 322.851,182.227 319.149,188.166 320.702 C 192.621 321.867,192.879 319.619,188.894 314.356 C 186.332 310.971,186.472 309.863,190.106 304.760 C 195.142 297.688,201.762 297.373,206.564 303.977 M228.154 299.495 C 226.692 305.221,227.191 313.159,228.976 312.564 C 231.795 311.624,233.008 298.990,230.279 298.990 C 229.181 298.990,228.225 299.217,228.154 299.495 M258.586 303.969 C 258.586 307.215,250.700 308.660,247.249 306.047 C 243.722 303.376,244.005 303.154,251.010 303.095 C 255.177 303.059,258.586 303.453,258.586 303.969 M198.283 306.970 C 198.727 308.303,199.750 309.326,200.556 309.242 C 202.971 308.993,202.503 306.222,199.899 305.354 C 198.566 304.909,197.838 305.636,198.283 306.970 M126.377 311.616 C 128.267 317.763,128.975 318.297,131.665 315.608 C 133.392 313.881,133.321 312.521,131.384 310.187 C 127.575 305.597,124.773 306.397,126.377 311.616 M271.411 312.356 C 271.138 317.083,271.429 317.316,274.176 314.569 C 275.864 312.880,276.630 310.503,275.877 309.285 C 273.569 305.549,271.732 306.812,271.411 312.356 M112.069 315.068 C 113.180 316.864,104.303 318.368,98.403 317.384 C 97.525 317.237,94.902 318.136,92.575 319.382 C 87.555 322.068,91.038 325.369,97.193 323.759 C 99.764 323.087,101.010 323.819,101.010 326.002 C 101.010 329.048,98.487 329.305,86.364 327.499 C 84.366 327.201,84.450 324.538,86.636 318.818 C 88.591 313.702,109.335 310.643,112.069 315.068 M297.001 316.667 C 297.076 320.360,300.274 322.916,302.837 321.331 C 304.339 320.403,304.943 318.633,304.180 317.398 C 302.628 314.886,296.952 314.308,297.001 316.667 M236.869 318.564 C 238.813 319.072,241.995 319.072,243.939 318.564 C 245.884 318.056,244.293 317.640,240.404 317.640 C 236.515 317.640,234.924 318.056,236.869 318.564 M216.162 324.242 C 216.162 325.909,217.071 327.273,218.182 327.273 C 219.293 327.273,220.202 325.909,220.202 324.242 C 220.202 322.576,219.293 321.212,218.182 321.212 C 217.071 321.212,216.162 322.576,216.162 324.242 M144.222 333.489 C 144.024 339.000,144.338 339.356,147.023 336.671 C 148.687 335.008,149.497 332.213,148.825 330.460 C 146.831 325.266,144.461 326.825,144.222 333.489 M188.574 332.425 C 186.668 336.464,186.772 337.374,189.142 337.374 C 192.683 337.374,195.156 331.721,192.692 329.258 C 191.662 328.228,189.924 329.564,188.574 332.425 M215.238 331.174 C 213.214 334.449,217.612 335.444,220.220 332.301 C 222.250 329.855,222.127 329.293,219.559 329.293 C 217.821 329.293,215.877 330.139,215.238 331.174 M285.379 333.822 C 286.025 335.504,285.548 337.886,284.320 339.114 C 281.426 342.009,283.738 344.293,287.933 342.683 C 291.847 341.181,291.196 333.067,287.052 331.701 C 285.167 331.079,284.602 331.797,285.379 333.822 M94.949 335.299 C 94.949 336.290,93.079 337.695,90.793 338.421 C 88.507 339.146,85.755 342.061,84.676 344.897 C 82.029 351.860,80.245 349.496,81.821 341.116 C 83.025 334.716,94.949 329.432,94.949 335.299 M114.310 336.653 C 113.609 338.478,113.452 340.388,113.959 340.895 C 115.565 342.501,119.192 339.277,119.192 336.244 C 119.192 332.282,115.881 332.559,114.310 336.653 M246.465 341.414 C 252.156 345.866,252.038 345.909,235.359 345.457 C 221.402 345.078,219.704 344.211,225.137 340.239 C 230.646 336.211,240.507 336.754,246.465 341.414 M92.929 351.515 C 92.929 352.626,91.566 353.535,89.899 353.535 C 88.232 353.535,86.869 352.626,86.869 351.515 C 86.869 350.404,88.232 349.495,89.899 349.495 C 91.566 349.495,92.929 350.404,92.929 351.515 M256.566 358.893 C 295.732 365.938,299.726 366.855,300.431 368.971 C 300.952 370.534,296.257 370.431,284.423 368.620 C 261.078 365.048,240.404 363.765,240.404 365.889 C 240.404 366.872,243.558 367.677,247.414 367.677 C 258.549 367.677,296.968 373.615,308.560 377.128 C 316.927 379.664,319.760 379.821,322.100 377.879 C 324.561 375.837,325.594 376.706,328.245 383.048 C 334.028 396.891,334.496 400.908,330.100 398.990 C 298.082 385.022,216.148 376.671,159.596 381.613 C 127.177 384.446,87.162 389.479,84.631 391.043 C 83.640 391.656,82.828 391.212,82.828 390.057 C 82.828 388.901,85.328 387.413,88.384 386.750 C 91.439 386.087,95.758 384.702,97.980 383.672 C 100.202 382.643,107.929 380.455,115.152 378.810 L 128.283 375.820 114.499 376.737 C 104.238 377.419,100.922 377.024,101.523 375.190 C 102.367 372.619,124.936 367.243,127.704 368.954 C 128.578 369.494,129.293 368.900,129.293 367.635 C 129.293 366.220,127.157 365.737,123.737 366.380 C 120.682 366.955,112.727 367.912,106.061 368.506 L 93.939 369.588 101.010 366.390 C 119.314 358.111,224.134 353.060,256.566 358.893 M88.889 362.429 C 88.889 362.875,86.060 364.227,82.603 365.432 C 77.127 367.341,76.638 367.236,78.810 364.620 C 81.000 361.981,88.889 360.266,88.889 362.429 M238.384 375.758 C 238.384 376.869,242.599 377.778,247.751 377.778 C 262.087 377.778,293.209 381.990,300.000 384.850 C 317.213 392.098,333.554 394.233,320.202 387.489 C 304.981 379.802,238.384 370.253,238.384 375.758 M79.798 383.838 C 79.111 384.949,76.785 385.859,74.628 385.859 C 72.472 385.859,70.707 384.949,70.707 383.838 C 70.707 382.727,73.033 381.818,75.877 381.818 C 78.809 381.818,80.506 382.693,79.798 383.838 M265.657 388.116 C 309.712 394.546,335.223 404.026,341.482 416.294 C 348.462 429.977,347.493 430.393,325.657 423.079 C 261.970 401.747,91.528 404.698,64.487 427.602 C 62.733 429.087,60.356 430.303,59.204 430.303 C 58.053 430.303,54.540 432.325,51.397 434.797 C 46.474 438.670,45.879 438.784,47.093 435.619 C 47.868 433.600,49.070 429.684,49.765 426.918 C 50.694 423.216,52.041 422.153,54.866 422.891 C 56.978 423.444,64.360 421.672,71.272 418.954 C 78.183 416.237,85.657 414.223,87.879 414.480 C 90.101 414.737,93.754 413.937,95.997 412.703 C 98.239 411.469,103.694 409.808,108.118 409.011 C 112.542 408.215,117.525 406.798,119.192 405.863 C 123.693 403.338,106.525 403.580,99.803 406.136 C 95.997 407.583,93.643 407.583,92.196 406.136 C 90.749 404.689,91.164 403.962,93.535 403.788 C 95.424 403.649,97.652 403.365,98.485 403.157 C 99.318 402.949,105.227 401.635,111.616 400.236 C 126.708 396.932,126.492 395.043,111.205 396.641 C 104.099 397.384,98.677 397.088,97.955 395.919 C 97.282 394.830,97.467 393.870,98.366 393.785 C 99.265 393.700,101.818 393.241,104.040 392.765 C 108.507 391.809,154.489 386.330,165.657 385.423 C 182.052 384.091,250.757 385.942,265.657 388.116 M72.370 392.592 C 72.757 394.585,71.726 395.960,69.845 395.960 C 67.971 395.960,66.667 394.232,66.667 391.751 C 66.667 386.828,71.387 387.523,72.370 392.592 M236.549 392.709 C 237.206 393.404,245.388 394.909,254.730 396.053 C 274.802 398.512,279.230 399.671,277.742 402.077 C 277.135 403.060,275.531 403.507,274.178 403.070 C 268.269 401.165,237.540 400.252,240.412 402.068 C 242.074 403.119,246.404 403.992,250.033 404.009 C 260.954 404.061,305.554 411.759,315.219 415.261 C 320.182 417.060,325.352 418.729,326.709 418.971 C 328.066 419.214,329.808 420.044,330.581 420.817 C 332.783 423.019,337.760 422.461,336.345 420.171 C 333.786 416.032,294.509 404.327,282.323 404.072 C 281.490 404.055,280.808 403.025,280.808 401.785 C 280.808 400.371,282.883 399.990,286.364 400.764 C 291.840 401.981,307.923 405.275,316.536 406.943 C 318.963 407.414,322.767 408.771,324.989 409.960 C 329.946 412.613,333.333 412.736,333.333 410.263 C 333.333 406.920,303.302 398.747,279.798 395.694 C 258.148 392.882,235.215 391.299,236.549 392.709 M94.949 396.899 C 94.949 397.415,93.113 398.821,90.867 400.022 C 86.090 402.579,80.818 400.496,85.138 397.758 C 88.041 395.918,94.949 395.313,94.949 396.899 M78.240 404.226 C 76.273 405.372,75.190 407.162,75.834 408.205 C 77.299 410.574,74.643 410.613,70.953 408.276 C 66.875 405.692,70.101 402.011,76.382 402.082 C 81.091 402.135,81.340 402.422,78.240 404.226 M233.713 417.606 C 235.336 419.589,236.152 420.179,235.526 418.917 C 230.860 409.498,314.345 422.051,339.624 434.570 C 354.725 442.048,369.173 458.586,360.606 458.586 C 358.939 458.586,357.576 457.414,357.576 455.982 C 357.576 439.320,281.621 422.921,207.071 423.487 C 157.413 423.864,141.496 424.606,119.340 427.574 C 104.137 429.611,97.672 429.784,96.107 428.194 C 91.853 423.871,100.856 420.823,124.715 418.509 C 192.980 411.889,228.795 411.592,233.713 417.606 M94.022 428.417 C 95.757 431.223,94.965 431.875,88.372 433.071 C 85.359 433.617,81.821 434.727,80.509 435.538 C 79.197 436.349,75.590 437.212,72.493 437.456 C 69.397 437.699,65.390 439.371,63.590 441.172 C 61.790 442.972,59.130 444.444,57.679 444.444 C 56.228 444.444,53.908 445.808,52.525 447.475 C 50.428 450.002,50.703 450.505,54.179 450.505 C 56.472 450.505,59.005 451.569,59.808 452.869 C 60.778 454.439,60.184 454.816,58.038 453.992 C 56.261 453.310,54.407 453.838,53.918 455.164 C 53.240 457.006,52.398 456.979,50.354 455.051 C 46.766 451.666,44.444 451.864,44.444 455.556 C 44.444 457.222,43.610 458.586,42.589 458.586 C 41.569 458.586,39.191 459.178,37.304 459.902 C 34.407 461.014,34.209 460.592,36.030 457.189 C 38.623 452.344,60.441 435.525,62.048 437.132 C 62.671 437.755,65.688 436.479,68.752 434.297 C 79.252 426.820,91.303 424.017,94.022 428.417 M159.209 430.455 C 158.811 431.649,157.621 432.626,156.566 432.626 C 155.510 432.626,154.321 431.649,153.923 430.455 C 153.524 429.260,154.714 428.283,156.566 428.283 C 158.418 428.283,159.607 429.260,159.209 430.455 M197.980 440.561 C 199.268 454.535,203.133 453.176,202.735 438.889 C 202.508 430.752,203.134 428.283,205.421 428.283 C 207.682 428.283,208.080 429.746,207.071 434.343 C 205.741 440.397,207.542 442.155,211.263 438.434 C 212.542 437.155,214.106 437.863,215.724 440.454 C 217.998 444.096,217.685 444.444,212.138 444.444 C 206.539 444.444,206.061 445.001,206.061 451.515 C 206.061 459.088,208.075 460.431,212.121 455.556 C 213.733 453.613,218.206 452.525,224.582 452.525 C 243.331 452.525,250.996 468.506,238.325 481.178 C 231.959 487.543,229.838 487.753,213.186 483.661 L 207.180 482.185 212.681 488.722 C 218.648 495.814,219.997 506.098,215.657 511.408 C 210.289 517.976,198.018 523.395,194.627 520.696 C 178.599 507.937,176.181 501.072,184.848 492.929 C 192.270 485.957,191.457 479.022,183.997 485.671 C 170.851 497.388,151.854 481.689,156.810 463.203 C 159.866 451.805,174.309 449.479,182.046 459.140 C 187.409 465.835,189.899 461.565,189.899 445.672 C 189.899 437.589,190.524 430.351,191.288 429.588 C 194.571 426.304,197.038 430.350,197.980 440.561 M149.528 439.159 C 146.828 441.859,140.336 435.702,142.386 432.385 C 143.425 430.704,144.937 431.036,147.723 433.558 C 150.392 435.974,150.958 437.729,149.528 439.159 M288.449 434.031 C 289.028 435.770,288.057 436.498,285.754 436.052 C 283.773 435.668,281.746 434.130,281.248 432.635 C 280.669 430.897,281.640 430.169,283.943 430.615 C 285.924 430.999,287.951 432.536,288.449 434.031 M128.789 437.879 C 129.277 439.344,127.913 440.404,125.540 440.404 C 121.122 440.404,118.463 437.766,120.663 435.565 C 122.696 433.533,127.828 434.994,128.789 437.879 M225.759 436.869 C 225.296 438.258,223.405 439.687,221.557 440.046 C 219.213 440.500,218.565 439.736,219.415 437.521 C 220.848 433.786,226.995 433.154,225.759 436.869 M254.848 437.374 C 254.848 438.429,253.871 439.619,252.677 440.017 C 251.482 440.415,250.505 439.226,250.505 437.374 C 250.505 435.522,251.482 434.332,252.677 434.731 C 253.871 435.129,254.848 436.318,254.848 437.374 M268.687 438.384 C 268.687 439.495,267.323 440.404,265.657 440.404 C 263.990 440.404,262.626 439.495,262.626 438.384 C 262.626 437.273,263.990 436.364,265.657 436.364 C 267.323 436.364,268.687 437.273,268.687 438.384 M280.808 440.523 C 280.808 441.569,279.444 442.424,277.778 442.424 C 274.654 442.424,273.764 440.040,276.039 437.765 C 277.653 436.151,280.808 437.976,280.808 440.523 M290.585 443.238 C 288.959 444.457,287.031 447.045,286.302 448.990 C 285.060 452.300,278.788 454.127,278.788 451.178 C 278.788 448.504,289.913 438.778,291.705 439.886 C 292.715 440.510,292.211 442.018,290.585 443.238 M145.067 444.596 C 144.669 445.790,143.684 446.699,142.879 446.616 C 142.073 446.533,138.914 446.374,135.859 446.263 L 130.303 446.062 135.354 444.444 C 142.723 442.084,145.888 442.134,145.067 444.596 M165.657 444.444 C 165.657 445.556,164.293 446.465,162.626 446.465 C 160.960 446.465,159.596 445.556,159.596 444.444 C 159.596 443.333,160.960 442.424,162.626 442.424 C 164.293 442.424,165.657 443.333,165.657 444.444 M240.404 444.325 C 240.404 446.709,236.464 449.259,235.017 447.811 C 233.570 446.364,236.120 442.424,238.503 442.424 C 239.549 442.424,240.404 443.280,240.404 444.325 M250.505 445.335 C 250.505 448.553,246.840 451.553,245.071 449.784 C 243.409 448.122,246.003 442.424,248.421 442.424 C 249.567 442.424,250.505 443.734,250.505 445.335 M260.713 445.455 C 260.554 448.453,256.035 447.902,254.986 444.757 C 254.420 443.057,255.343 442.300,257.450 442.736 C 259.303 443.120,260.771 444.343,260.713 445.455 M124.242 446.465 C 123.556 447.576,121.684 448.485,120.083 448.485 C 118.482 448.485,117.172 447.576,117.172 446.465 C 117.172 445.354,119.044 444.444,121.331 444.444 C 123.619 444.444,124.929 445.354,124.242 446.465 M274.747 446.528 C 274.747 448.947,269.049 451.541,267.387 449.879 C 265.618 448.110,268.619 444.444,271.836 444.444 C 273.437 444.444,274.747 445.382,274.747 446.528 M297.700 451.515 C 296.493 454.662,288.889 455.824,288.889 452.862 C 288.889 450.158,291.309 448.485,295.223 448.485 C 297.629 448.485,298.469 449.512,297.700 451.515 M116.825 455.375 C 115.211 456.586,113.294 459.167,112.564 461.111 C 111.467 464.037,107.071 466.306,107.071 463.947 C 107.071 459.569,113.892 450.924,116.543 451.941 C 119.326 453.009,119.364 453.471,116.825 455.375 M128.830 452.904 C 127.581 456.650,123.232 457.271,123.232 453.704 C 123.232 451.944,124.672 450.505,126.431 450.505 C 128.190 450.505,129.270 451.585,128.830 452.904 M139.394 451.205 C 139.394 454.503,132.422 464.646,130.155 464.646 C 126.286 464.646,126.501 463.507,131.693 456.484 C 135.439 451.417,139.394 448.706,139.394 451.205 M151.515 451.268 C 151.515 451.687,150.152 453.162,148.485 454.545 C 146.003 456.605,145.455 456.467,145.455 453.783 C 145.455 451.980,146.818 450.505,148.485 450.505 C 150.152 450.505,151.515 450.848,151.515 451.268 M309.091 453.683 C 309.091 455.565,307.716 456.595,305.723 456.209 C 300.655 455.226,299.959 450.505,304.882 450.505 C 307.364 450.505,309.091 451.809,309.091 453.683 M256.102 456.186 C 256.542 457.505,255.423 459.151,253.616 459.844 C 249.402 461.462,248.049 460.052,249.696 455.759 C 251.111 452.072,254.813 452.318,256.102 456.186 M321.212 454.209 C 321.212 457.052,318.938 458.362,315.976 457.225 C 314.424 456.629,313.657 455.328,314.272 454.334 C 315.682 452.052,321.212 451.953,321.212 454.209 M266.766 457.456 C 265.438 459.056,263.054 459.868,261.468 459.260 C 256.723 457.439,258.206 454.545,263.884 454.545 C 268.267 454.545,268.765 455.048,266.766 457.456 M280.345 456.944 C 279.096 460.690,274.747 461.312,274.747 457.744 C 274.747 455.985,276.187 454.545,277.946 454.545 C 279.705 454.545,280.785 455.625,280.345 456.944 M226.768 460.839 C 232.673 465.245,234.191 470.707,229.509 470.707 C 226.862 470.707,224.242 474.809,224.242 478.953 C 224.242 481.910,229.721 481.102,233.189 477.633 C 237.901 472.921,237.206 463.445,231.874 459.711 C 224.935 454.850,220.157 455.906,226.768 460.839 M290.909 458.586 C 290.909 459.697,289.599 460.606,287.998 460.606 C 286.397 460.606,284.525 459.697,283.838 458.586 C 283.152 457.475,284.462 456.566,286.749 456.566 C 289.037 456.566,290.909 457.475,290.909 458.586 M340.404 458.586 C 341.091 459.697,339.781 460.606,337.493 460.606 C 335.205 460.606,333.333 459.697,333.333 458.586 C 333.333 457.475,334.643 456.566,336.244 456.566 C 337.846 456.566,339.717 457.475,340.404 458.586 M125.253 462.222 C 125.253 464.222,126.264 466.870,127.501 468.107 C 128.737 469.343,129.138 471.343,128.392 472.551 C 126.207 476.086,123.232 475.080,123.232 470.807 C 123.232 468.640,121.741 466.033,119.918 465.013 C 116.209 462.937,117.850 458.586,122.341 458.586 C 123.943 458.586,125.253 460.222,125.253 462.222 M145.455 460.487 C 145.455 463.215,141.772 465.106,139.361 463.616 C 138.232 462.918,137.831 461.501,138.470 460.466 C 139.987 458.013,145.455 458.029,145.455 460.487 M351.515 468.790 C 351.515 470.606,350.830 470.633,348.741 468.899 C 347.215 467.633,344.488 467.164,342.680 467.858 C 340.865 468.555,339.394 468.118,339.394 466.883 C 339.394 465.653,340.758 464.646,342.424 464.646 C 344.091 464.646,345.455 463.672,345.455 462.482 C 345.455 461.291,346.818 461.681,348.485 463.348 C 350.152 465.014,351.515 467.463,351.515 468.790 M103.030 464.646 C 103.030 465.758,101.667 466.667,100.000 466.667 C 98.333 466.667,96.970 465.758,96.970 464.646 C 96.970 463.535,98.333 462.626,100.000 462.626 C 101.667 462.626,103.030 463.535,103.030 464.646 M163.089 463.847 C 162.279 464.657,161.616 466.714,161.616 468.418 C 161.616 470.691,162.214 470.918,163.864 469.268 C 165.100 468.032,165.763 465.975,165.337 464.697 C 164.911 463.419,163.899 463.037,163.089 463.847 M263.853 465.822 C 263.178 467.579,262.626 469.852,262.626 470.872 C 262.626 473.545,255.051 473.160,253.346 470.401 C 251.761 467.835,257.706 462.626,262.218 462.626 C 263.997 462.626,264.615 463.835,263.853 465.822 M274.747 465.720 C 274.747 468.946,269.379 472.072,267.340 470.034 C 266.695 469.389,266.706 467.458,267.364 465.744 C 268.913 461.706,274.747 461.688,274.747 465.720 M298.990 467.893 C 298.990 469.441,297.172 470.707,294.949 470.707 C 290.521 470.707,290.362 470.443,292.086 465.949 C 293.485 462.303,298.990 463.853,298.990 467.893 M89.109 470.070 C 87.673 475.441,82.828 479.158,82.828 474.888 C 82.828 472.036,87.426 464.646,89.200 464.646 C 89.948 464.646,89.907 467.087,89.109 470.070 M149.987 465.989 C 148.592 466.551,148.001 467.904,148.675 468.994 C 149.348 470.084,148.344 472.113,146.443 473.503 C 143.204 475.872,143.200 476.245,146.385 479.430 C 149.570 482.614,149.457 482.828,144.589 482.828 C 139.383 482.828,137.339 478.276,141.414 475.758 C 142.525 475.071,143.434 473.058,143.434 471.285 C 143.434 468.480,142.907 468.538,139.382 471.728 C 135.006 475.688,132.132 474.732,133.975 469.930 C 134.992 467.279,140.631 465.528,149.495 465.109 C 151.489 465.014,151.657 465.315,149.987 465.989 M285.967 466.843 C 286.714 468.051,286.533 469.831,285.565 470.799 C 283.175 473.188,277.917 469.710,279.658 466.893 C 281.423 464.037,284.220 464.015,285.967 466.843 M310.607 469.192 C 309.334 473.015,303.030 473.558,303.030 469.845 C 303.030 467.971,304.758 466.667,307.239 466.667 C 309.708 466.667,311.100 467.711,310.607 469.192 M109.091 469.336 C 109.091 474.176,101.086 485.261,99.860 482.119 C 98.988 479.885,99.402 477.762,100.888 476.843 C 102.256 475.998,103.298 474.726,103.203 474.017 C 102.661 469.966,103.346 468.687,106.061 468.687 C 107.727 468.687,109.091 468.979,109.091 469.336 M119.192 470.636 C 119.192 471.708,117.374 473.558,115.152 474.747 C 111.726 476.581,111.111 476.284,111.111 472.798 C 111.111 470.034,112.435 468.687,115.152 468.687 C 117.374 468.687,119.192 469.564,119.192 470.636 M328.906 470.859 C 328.508 472.053,327.318 473.030,326.263 473.030 C 325.207 473.030,324.018 472.053,323.620 470.859 C 323.221 469.664,324.411 468.687,326.263 468.687 C 328.114 468.687,329.304 469.664,328.906 470.859 M97.700 473.737 C 96.412 477.094,93.749 477.708,92.093 475.029 C 90.742 472.843,92.788 470.707,96.233 470.707 C 97.741 470.707,98.367 472.000,97.700 473.737 M77.562 475.923 C 79.287 480.420,79.153 480.808,75.877 480.808 C 72.308 480.808,70.026 477.484,71.717 474.747 C 73.560 471.766,76.168 472.290,77.562 475.923 M161.616 474.633 C 161.616 480.306,177.954 485.427,180.891 480.674 C 182.885 477.447,180.088 475.670,177.340 478.418 C 173.939 481.819,172.342 481.394,171.132 476.768 C 170.076 472.731,161.616 470.833,161.616 474.633 M268.670 474.694 C 270.948 476.134,271.114 477.169,269.351 478.932 C 266.586 481.697,262.626 479.758,262.626 475.638 C 262.626 472.277,264.407 471.999,268.670 474.694 M349.495 474.747 C 349.495 475.859,348.131 476.768,346.465 476.768 C 344.798 476.768,343.434 475.859,343.434 474.747 C 343.434 473.636,344.798 472.727,346.465 472.727 C 348.131 472.727,349.495 473.636,349.495 474.747 M258.081 477.273 C 257.618 478.662,255.572 479.798,253.535 479.798 C 251.498 479.798,249.453 478.662,248.990 477.273 C 248.457 475.673,250.123 474.747,253.535 474.747 C 256.947 474.747,258.614 475.673,258.081 477.273 M282.828 476.831 C 282.828 477.977,281.522 479.416,279.926 480.029 C 278.329 480.641,277.482 482.339,278.043 483.801 C 279.780 488.327,274.997 489.387,259.430 487.928 C 239.938 486.102,240.121 482.828,259.715 482.828 C 269.381 482.828,274.528 482.087,273.737 480.808 C 273.051 479.697,273.051 477.879,273.737 476.768 C 275.383 474.105,282.828 474.157,282.828 476.831 M292.929 477.778 C 292.929 479.461,291.134 480.808,288.889 480.808 C 284.864 480.808,283.634 478.655,286.195 476.094 C 288.656 473.634,292.929 474.702,292.929 477.778 M305.051 476.552 C 305.051 477.544,303.687 478.879,302.020 479.518 C 300.174 480.227,298.990 479.522,298.990 477.714 C 298.990 476.083,300.354 474.747,302.020 474.747 C 303.687 474.747,305.051 475.559,305.051 476.552 M125.787 477.975 C 127.753 479.941,125.053 484.848,122.006 484.848 C 120.458 484.848,119.192 483.636,119.192 482.155 C 119.192 477.680,123.048 475.237,125.787 477.975 M136.222 478.559 C 136.831 479.544,136.057 481.407,134.501 482.697 C 131.352 485.311,128.128 482.308,130.303 478.788 C 131.849 476.287,134.748 476.174,136.222 478.559 M328.942 480.819 C 331.527 482.973,333.064 485.670,332.358 486.812 C 330.230 490.256,327.273 489.151,327.273 484.912 C 327.273 479.404,321.534 481.851,319.986 488.019 C 318.606 493.517,313.703 498.215,311.571 496.082 C 310.766 495.278,311.683 493.467,313.608 492.059 C 315.534 490.651,316.577 488.968,315.928 488.318 C 315.278 487.669,315.506 485.941,316.433 484.478 C 317.361 483.015,318.248 481.136,318.403 480.303 C 318.559 479.470,318.801 478.333,318.939 477.778 C 319.488 475.584,324.482 477.102,328.942 480.819 M114.617 482.634 C 113.345 487.499,119.482 488.608,137.546 486.779 C 150.781 485.438,165.657 489.856,165.657 495.127 C 165.657 496.292,167.395 496.690,169.527 496.014 C 174.539 494.423,176.383 497.602,174.754 505.020 L 173.451 510.951 156.928 509.910 C 132.536 508.372,121.152 507.392,112.121 506.053 C 96.825 503.784,94.664 502.970,95.320 499.730 C 95.868 497.028,100.750 496.560,129.293 496.470 L 162.626 496.365 130.941 495.117 C 113.514 494.430,98.650 493.263,97.910 492.523 C 95.365 489.978,99.140 486.498,101.932 488.816 C 104.634 491.058,110.302 486.733,107.861 484.292 C 105.975 482.406,109.009 478.788,112.476 478.788 C 114.575 478.788,115.288 480.068,114.617 482.634 M68.687 483.591 C 68.687 484.011,67.323 485.485,65.657 486.869 C 63.175 488.928,62.626 488.790,62.626 486.106 C 62.626 484.303,63.990 482.828,65.657 482.828 C 67.323 482.828,68.687 483.172,68.687 483.591 M290.405 485.354 C 289.132 489.176,282.828 489.720,282.828 486.007 C 282.828 484.133,284.556 482.828,287.037 482.828 C 289.506 482.828,290.898 483.872,290.405 485.354 M300.547 485.227 C 299.299 488.973,294.949 489.594,294.949 486.027 C 294.949 484.268,296.389 482.828,298.148 482.828 C 299.907 482.828,300.987 483.908,300.547 485.227 M311.111 484.729 C 311.111 487.457,307.428 489.348,305.018 487.858 C 303.888 487.161,303.487 485.743,304.127 484.709 C 305.643 482.255,311.111 482.271,311.111 484.729 M76.768 489.828 C 76.768 490.344,74.970 491.729,72.773 492.905 C 69.513 494.649,68.995 494.476,69.959 491.966 C 71.005 489.239,76.768 487.430,76.768 489.828 M266.299 491.070 C 297.524 491.454,309.420 495.101,288.384 497.840 C 283.662 498.455,277.071 499.304,273.737 499.727 C 270.404 500.149,276.124 500.498,286.448 500.501 C 296.773 500.504,305.788 501.074,306.482 501.768 C 309.863 505.149,301.843 506.061,268.721 506.061 C 240.527 506.061,220.865 508.322,241.414 509.202 L 245.455 509.375 241.414 511.111 C 234.354 514.145,224.232 513.436,222.841 509.809 C 220.676 504.167,227.796 500.996,241.762 501.381 C 248.766 501.574,255.114 501.115,255.868 500.361 C 256.622 499.607,249.912 498.990,240.957 498.990 C 225.445 498.990,222.222 497.768,222.222 491.888 C 222.222 491.018,232.883 489.571,234.481 490.224 C 235.112 490.482,249.430 490.863,266.299 491.070 M204.384 494.444 C 205.481 507.535,200.914 512.358,193.629 505.801 C 189.525 502.106,189.446 502.107,190.169 505.819 C 190.576 507.909,192.765 510.848,195.034 512.352 C 201.046 516.337,215.011 507.011,212.977 500.369 C 210.345 491.775,203.781 487.249,204.384 494.444 M307.071 492.810 C 307.071 495.194,303.131 497.743,301.684 496.296 C 300.236 494.849,302.786 490.909,305.170 490.909 C 306.215 490.909,307.071 491.765,307.071 492.810 M66.667 500.372 C 66.667 502.478,65.388 502.910,62.121 501.905 C 56.347 500.131,55.894 499.690,57.375 497.294 C 59.143 494.433,66.667 496.925,66.667 500.372 M90.909 497.980 C 90.909 499.646,90.054 501.010,89.008 501.010 C 86.461 501.010,84.636 497.855,86.250 496.241 C 88.525 493.966,90.909 494.856,90.909 497.980 M344.749 501.823 C 338.197 507.183,312.790 513.896,286.869 517.116 C 259.090 520.567,217.417 522.842,214.141 521.087 C 209.869 518.798,213.743 517.690,230.303 516.465 C 246.534 515.264,249.270 514.651,253.289 511.315 C 255.759 509.266,257.931 509.172,262.886 510.899 C 275.763 515.388,325.506 508.508,341.005 500.095 C 349.256 495.616,351.226 496.525,344.749 501.823 M105.051 501.416 C 105.051 502.304,108.232 503.030,112.121 503.030 C 116.010 503.030,119.192 502.675,119.192 502.241 C 119.192 501.807,116.010 501.081,112.121 500.627 C 108.232 500.173,105.051 500.528,105.051 501.416 M79.798 505.051 C 79.111 506.162,77.293 507.071,75.758 507.071 C 74.222 507.071,72.404 506.162,71.717 505.051 C 71.006 503.900,72.746 503.030,75.758 503.030 C 78.769 503.030,80.509 503.900,79.798 505.051 M147.980 504.502 C 152.146 504.938,158.965 504.938,163.131 504.502 C 167.298 504.066,163.889 503.710,155.556 503.710 C 147.222 503.710,143.813 504.066,147.980 504.502 M94.614 508.841 C 96.810 510.233,96.753 510.762,94.305 511.701 C 92.653 512.335,89.623 511.582,87.570 510.027 C 83.131 506.663,89.490 505.593,94.614 508.841 M129.293 512.075 C 173.922 514.767,181.818 515.839,181.818 519.212 C 181.818 521.487,141.605 521.136,140.191 518.848 C 139.617 517.918,137.157 517.624,134.725 518.194 C 127.773 519.825,100.447 514.472,99.380 511.270 C 98.616 508.980,100.609 508.760,110.334 510.060 C 116.873 510.934,125.404 511.841,129.293 512.075 " stroke="none" fill="#000000" fill-rule="evenodd"></path></g></svg>