<svg id="Слой_1" data-name="Слой 1" xmlns="http://www.w3.org/2000/svg" viewBox="0 0 455.39 213.58"><defs><style>.cls-1{fill:#fff;}</style></defs><path d="M477.83,558a65.67,65.67,0,0,1-2.65,6.91c-.72,1.44-2.35,2.43-3.1,3.86-1.28,2.44-2,5.19-3.32,7.58-.66,1.18-2.28,1.77-3.32,2.78-1.58,1.54-3.41,3-4.46,4.89a12.77,12.77,0,0,1-7.9,6.11c-2.32.75-4.92,1.27-6.39,3.76-1.12,1.92-7.55,3.16-9.73,2.87a11.07,11.07,0,0,0-6.11,1,11.72,11.72,0,0,1-8.88.81c-3.05-.92-6-1.62-9.06-.41-1.68.66-5.45-1.21-6.94-2.14a14,14,0,0,0-6.52-2.18,11,11,0,0,1-7.45-3.9,9.45,9.45,0,0,0-4.74-3.3c-2-.6-6.37-3.79-6.58-5.75-.27-2.6-2.15-4.06-4.13-5.1-2.54-1.33-4.06-4.14-4.63-7a19.19,19.19,0,0,0-3.6-7.28,10.39,10.39,0,0,1-2.2-7.65,13.28,13.28,0,0,0-.89-6.89c-.86-2.21-.4-5-.27-7.52a53.69,53.69,0,0,1,.9-5.73l-.67-.29c-1.69,2-3.27,4.08-5.11,5.92-5.92,5.94-11.73,12-18,17.58-3.87,3.43-8.86,4.84-14.14,4.84a7.65,7.65,0,0,0-2.67.49,92.62,92.62,0,0,1-30.52,6c-13.81.36-27.64.14-41.47.17-.66,0-1.33-.07-2-.12-4-.28-4.18-.48-2.34-4.06-21.71-.76-43.48.16-64.88-5.26a13.69,13.69,0,0,1-.47,2.44c-1,2.94-2.11,5.88-3.31,8.77a38.18,38.18,0,0,1-3.19,6.74c-5.74,8.57-13.29,14.91-23.42,17.6a59.28,59.28,0,0,1-11.28,1.93c-2.72.18-5.51-.56-8.26-1-3.22-.47-6.46-.86-9.62-1.61-1.14-.27-2-1.5-3.1-2.22-1.22-.84-2.4-2-3.76-2.32-3.37-.87-6-2.36-7.62-5.64-.7-1.39-2.77-2-3.83-3.31a71.4,71.4,0,0,1-4.94-7c-.66-1-.75-2.48-1.54-3.33-2.45-2.65-3.85-5.48-3-9.22a3.78,3.78,0,0,0-.93-2.7A8.94,8.94,0,0,1,95.26,548c.26-.41.15-1,.21-1.52-3,.35-5.72.87-8.5,1-3.14.11-4.29-1.07-4.78-4.19-.44-2.82-1.06-5.65,1.67-7.82a2.93,2.93,0,0,0,.71-1.56c1.28-5.42,2.52-10.85,3.86-16.63-1.33-.11-2.43-.23-3.54-.29-3.33-.18-6.66-.29-10-.51-6.33-.42-9.67-3.86-10-10.17q-.25-5.88-.49-11.74c-.09-2.21.24-4.47-1.7-6.27a4,4,0,0,1-.59-2.61c.06-3.5.21-7,.36-10.49.11-2.5,1.43-3.68,4-3.87,4.57-.35,4.47-.43,4.47-5s.13-9.16.37-13.74c.26-4.93,1.88-6.94,6.9-7.59,6.1-.78,12.26-1.17,18.4-1.5,4.68-.25,4,.21,4.17-4.29.08-2.33.23-4.66.48-7a3,3,0,0,1,3.31-3c11.06-.37,22.13-.83,33.2-1.23,4.1-.15,6.95,1.54,8.48,5.56,2.33,6.14,5,12.17,7.32,18.31.83,2.18,2,3,4.41,3,15.49,0,31,.2,46.49.34A4.27,4.27,0,0,0,206,455c8.19-3.27,15.36,0,22.39,3.61,5,2.55,10.11,4.35,15.75,4.19a3.66,3.66,0,0,0,2.77-1.42,9,9,0,0,1,6.07-5.18c16.2-4.67,30.84-12.84,45.91-20.08,5.18-2.48,11-3.65,16.66-5.09,2-.52,3-1.32,3.38-3.29.27-1.44.75-2.85,1.16-4.38A31.85,31.85,0,0,0,305.71,421c-.68,0-1.34.83-2,.83a7.62,7.62,0,0,1-2.33-.78,7.51,7.51,0,0,1,1-2.24c.37-.39,1.24-.37,1.89-.43,5.22-.47,10.43-1.38,15.62.29.57.18,1.37-.35,2.06-.55l-.05-.93c-5-1.37-10-3.47-15.06-3.92-7.71-.68-13.81-4.14-19.61-8.68-.17-.14-.22-.43-.42-.85.45-.3.86-.8,1.33-.86,4.1-.54,8.21-1.07,12.34-1.45.83-.08,1.72.52,2.61.72s2,.37,3,.53a22,22,0,0,1,2.44.33c7.86,2.09,15.64,4.58,23.6,6.12,2.7.52,5.86-1.32,9.57-2.28a14.12,14.12,0,0,1-6.47-10.78,40.7,40.7,0,0,1,.15-8.18c.18-1.88,1.55-2.64,3.44-2.31.58.1,1.16.16,1.74.23,3.27.38,3.23.6,3.47,3.86a24.54,24.54,0,0,0,1.66,7.17c.72,1.83,2.54,3.34,4.56,2.75a7.4,7.4,0,0,0,4.28-3.25c.88-1.92.83-4.35.86-6.56s.93-3.06,3-2.88l.5,0c5.45.45,5.23.45,5.05,5.94-.13,4.35-.59,8.45-3.57,12,2.19,1.9,4.21,2.81,7.36,2.21a368,368,0,0,1,85.07-5.93,442.36,442.36,0,0,1,60.55,6.66l.73.14c3.92.87,4,1,2.72,4.77-1.08,3.24-2.15,6.49-3.46,9.63a3.9,3.9,0,0,1-2.38,2.15,2.57,2.57,0,0,0-2.4,2.37c-2.25,11.43-4.59,22.85-6.71,34.31a6,6,0,0,0,1.17,4c2.21,3.12,4.74,6,7.05,9.06,2,2.59,1.8,3-1.39,4-2.07.65-4.23,1.06-6.22,1.88a3.91,3.91,0,0,0-2.12,2.31c-4.65,21.13-9.18,42.28-13.77,63.43a5.15,5.15,0,0,0,1,4.64,52,52,0,0,1,4.3,6.41c1,1.82.4,2.78-1.67,2.59C486,559.13,481.88,558.51,477.83,558Zm-5.17-7.87.45-.47c-.59-.4-1.22-.75-1.77-1.2-3.26-2.72-6.48-5.49-9.74-8.2q-12.69-10.53-25.39-21c-10.56-8.74-19.48-19.08-28.49-29.34a5.28,5.28,0,0,0-3-1.86c-19.25-1.85-38.55-3-57.87-1.84-13,.8-25.84,2.53-38.76,3.82-1.63.16-2.17,1.1-2.55,2.54-1.88,7.25-3.87,14.47-5.79,21.71-.7,2.62-1.32,5.27-2.05,8.18,1.05-.11,1.77-.15,2.48-.27,5.09-.86,10.17-1.77,15.26-2.61a120,120,0,0,1,27.88-1.49,395.46,395.46,0,0,1,54.59,7.73c18.59,3.94,36.93,8.76,54.59,15.85C459.27,544.39,466,547.31,472.66,550.14ZM395,456.59c.06.69,0,.89.1,1,6.27,8.71,12.52,17.43,18.87,26.08a4.7,4.7,0,0,0,2.66,1.54c2.6.52,5.26.79,7.9,1.15a211.69,211.69,0,0,1,53.13,14.22c4.74,2,9.38,4.2,14.19,6.36a13.5,13.5,0,0,0,.57-1.61c1.71-7.54,3.32-15.11,5.15-22.62.47-1.94.09-3-1.72-3.64C486,475.34,476.29,471,466.2,468c-19.68-5.85-40-8.7-60.4-10.48Zm-11.73-24.2c.47,1.13.75,1.9,1.1,2.64,2.42,5.11,4.94,10.19,7.24,15.36.75,1.68,1.67,2.08,3.42,1.94a282.28,282.28,0,0,1,44.67,0c18.71,1.48,37.22,4.14,55.28,9.46,1.16.34,2.35.55,3.63.85,1.13-6.29,2.16-12.26,3.28-18.22.31-1.61-.77-1.83-1.8-2.11-6.26-1.69-12.49-3.52-18.81-5-28.7-6.69-57.8-8.09-87.12-6.19C390.61,431.34,387.09,431.93,383.27,432.39Zm19.46,52.12a12.84,12.84,0,0,0-.64-1.28c-6-8.31-12-16.6-17.9-25a3.88,3.88,0,0,0-3.48-1.84c-21.92-.53-43.55,2.28-65.15,5.52-1.62.24-2.2,1.11-2.58,2.55-1.68,6.53-3.45,13-5.17,19.56-.25,1-.36,2-.56,3.18A332.93,332.93,0,0,1,402.73,484.51ZM269.44,508.27c1.81-8.86,3.59-17.4,5.21-26,.1-.53-1-1.71-1.66-1.88-3.23-.8-6.51-1.39-9.79-2-2.38-.41-4.79-.69-7.19-1l0-1,19.49-3.25c-.36-.52-.67-.63-1-.6-8.36.87-16.73,1.72-25.08,2.73a3,3,0,0,0-1.92,1.93c-.73,3.33-1.07,6.75-1.78,10.08-3.15,14.73-6.4,29.44-9.58,44.17-1,4.8-2.1,9.6-2.89,14.44-.21,1.27.18,3.58,1,3.92,3.72,1.64,7.66,2.78,11.92,4.23-2.76-7-2.76-7-2-8.9,1.89,5.05,4,9.7,8,13.53l4.54-4.18-15.22-12.08.57-.92a56,56,0,0,1,5.39,2.14c3,1.55,6,3.28,8.93,5,1.67,1,2.67.92,3.2-1.25,2.62-10.84,5.34-21.66,8-32.5.14-.59-.06-1.7-.46-1.93-4.36-2.46-8.78-4.79-13.35-7.24-1.42,6.58-2.62,12.45-4,18.28s-2.81,11.59-4.23,17.38l-1.27-.31q4-17.64,8-35.32l-1.86-1.52.31-.62C256.93,504.15,262.78,506.61,269.44,508.27Zm107.89-88.89c1.48,3.29,2.78,6,3.88,8.74.67,1.67,1.56,2.21,3.41,1.94a242.32,242.32,0,0,1,58-1.22,305,305,0,0,1,44.54,7.39c5.14,1.25,10.22,2.76,15.52,4.21,1.25-5.16,2.52-10.22,3.62-15.33.11-.5-.75-1.61-1.37-1.8a55.31,55.31,0,0,0-7.95-2.07c-14.63-2.32-29.2-5.19-43.91-6.59-18.94-1.8-37.93-.78-56.8,1.85C390.14,417.36,384,418.36,377.33,419.38ZM483.8,545.59c.26-1,.5-1.74.67-2.52l5.22-25.43c1.39-6.83,1.39-6.83-4.93-10.05-.74-.38-1.49-.74-2.25-1.07-19.69-8.69-40.33-14.12-61.44-17.91-1.09-.2-2.2-.28-3.3-.41l-.33.65c2.54,2.69,5,5.46,7.62,8a348,348,0,0,0,35.46,29.92C468.36,532.7,475.81,539.11,483.8,545.59ZM372.56,561.44l2.44,5.09c2.37-.39,4.44-3.35,6.63-.37.82,1.11,1.93,2.71,1.64,3.74-.44,1.59-2,2.88-3.17,4.49l3.06,3.48a17.18,17.18,0,0,1,2.87-2.34,3.66,3.66,0,0,1,2.73-.36c3.28,1.46,4,4.07,2,7-.88,1.29-.73,2.06.5,2.84.75.48,1.45,1,2.1,1.51,2.1-1.44,2.21-5.16,6.06-3.81,4.62,1.62,3.41,4.67,2.13,7.81l4.51,1.84c2-1.65.61-5.67,4.79-5.3,4.86.44,4.25,3.86,4.07,7.21h6.17c0-1,0-1.94,0-2.83,0-1.57.15-3.07,2.31-3.12s4.22-.79,5.14,2.08c1.19,3.72,1.26,3.7,5.06,3l1.76-.31c.56-2.45-2.65-5.39,1.61-7.32,5.07-2.29,5.48,2.43,7.77,4.56l5.76-3.23c-.74-1.23-1.23-2.19-1.84-3-1.09-1.52-.8-2.74.53-3.93,2.3-2.06,3.74-2.13,6.13-.16a7,7,0,0,0,1.76,1.36,2.09,2.09,0,0,0,1.84-.22c1.27-1.27,2.37-2.72,3.57-4.13-1.59-2.17-4.25-3.5-2.21-6.94,2.33-3.93,4.92-2.05,7.48-1,2.52-3.74,2.52-3.74-.66-5.92-.14-.09-.27-.2-.41-.28-2.31-1.25-1.74-3.09-1.07-5s1.88-2.9,4-2.51c1.3.24,2.61.44,3.92.66l.19-.72L458.3,547.9c-1.61,11-6.07,19.92-14.9,26s-18.72,7.64-29.15,5.53c-9.39-1.9-17.38-6.43-23.23-14.07-8.81-11.52-11.09-24.28-5.84-38.21L374,525.56c3.27,2.27,3.69,3.12,2.76,5.93-.84,2.54-1.34,2.73-5.64,2.13-.33,0-.74-.2-1-.07-.55.31-1.34.7-1.45,1.18a31.75,31.75,0,0,0-.39,4.1c2.66,1,6.35-1,7,3.73.76,5.23-3.29,4.51-6.25,5.35.21,1.57.39,2.91.55,4.13,2.69.5,5.82-2.27,7.2,1.7.45,1.3,1,3.22.42,4.06C376.2,559.29,374.29,560.18,372.56,561.44ZM159.38,459l-.36-.64-2.87.37a6.25,6.25,0,0,1-1.36.11c-.57-2.12-2.37-1.3-3.51-1.25-11.56.44-23.11.95-34.66,1.62-4.57.27-6.47,2.19-6.83,6.73-.48,5.89-.7,11.8-.92,17.7-.11,3,.55,3.64,3.64,3.72,3.91.1,7.83.14,11.74,0,.76,0,1.5-.74,2.25-1.13a9.27,9.27,0,0,0-2.45-.81c-3.57-.13-7.15-.08-10.72-.19-1.46-.05-2.53-.65-2.42-2.46.35-5.65.63-11.31,1-16.95a3.34,3.34,0,0,1,.52-1.12,4.49,4.49,0,0,1,.54,2.48q-.33,6.85-.74,13.71c-.08,1.45,0,2.84,1.85,2.88,4.06.07,8.11,0,12.07,0,1.11-6.31,1.11-6.16,6.67-6.16,4.45,0,2,3.44,3.1,5.66,3.42-.24,7-.52,10.66-.73,2-.12,2.71-1.08,2.81-3,.24-4.49.64-9,1-13.44a27.15,27.15,0,0,1,.61-3.06l.66.15c-.34,5.8-.67,11.59-1,17.39a3,3,0,0,1-3,3.06c-3.63.36-7.26.71-10.88,1.18-.58.07-1.08.71-1.61,1.09.49.39,1,1.15,1.47,1.12,4.73-.33,9.46-.66,14.15-1.28,2.28-.3,3.56-1.92,3.68-4.37.23-4.73.58-9.47.84-14.2C155.46,463.89,155.7,460.65,159.38,459ZM202,457.66H162.82c.3,4,.66,8,.84,11.94.09,1.77.6,2.78,2.53,2.91,2.25.15,3.58,1.57,4.34,3.6.38,1,.84,2,1.14,3,.61,2.11,1.79,3,4.14,2.94,19.74-.24,39.48-.33,59.22-.49,3.26,0,3.55-.43,3.2-3.86-3,0-6,0-8.94,0-7.92-.11-15.6-1.13-22.46-5.59C201.06,468.39,199.51,464.31,202,457.66Zm175.78-5.36c-.92-.76-1.31-1.12-1.75-1.44-7.87-5.65-15.33-11.76-20.49-20.14a3,3,0,0,0-3.65-1.65q-14.54,3-29.08,5.93a3.65,3.65,0,0,0-3.08,3.09c-1.54,6.13-3.18,12.23-4.76,18.35a24.78,24.78,0,0,0-.39,2.6A313.14,313.14,0,0,1,377.81,452.3Zm-4.61-43.16a32.67,32.67,0,0,1,1.3,3.37c.5,2,1.53,2.35,3.62,2.06,8.82-1.24,17.66-2.36,26.52-3.19a282.37,282.37,0,0,1,62.79,1.35c14.2,1.84,28.43,3.41,42.23,7.44a2.27,2.27,0,0,0,1.95-1.06c.84-1.89,1.4-3.91,2-5.88.94-2.83,1-3-2-3.3-15.2-1.74-30.39-3.76-45.63-5A341.4,341.4,0,0,0,386.57,407C382.24,407.67,377.92,408.39,373.2,409.14ZM171.86,552.08c-4.26,0-4.29.07-5,4-1.49,8.49-5.2,15.89-11.95,21.31-12.44,10-32.42,6.91-42-6.27-9.33-12.8-9.9-29.12-1.58-43a33.49,33.49,0,0,1,10.84-11.28H113c-.2,1.64.09,3.56-.62,4.06-1.22.86-3.06.84-4.65,1.19l-.39-.85-2.68,4.28.84-.08c.5,1.13,1.53,2.34,1.38,3.38-.41,2.93-3,2.45-5.18,2.42l-1.45,5.59.77-.26c.75,1.07,2,2.08,2.15,3.22.21,2-1.06,3.14-3.21,3.33a2.36,2.36,0,0,0-1.52,1.53,18.85,18.85,0,0,0-.35,3.63l.62-.42c1,.85,2.76,1.54,3,2.58.33,1.38,0,3.85-.9,4.42-2.69,1.64-2,3.34-.94,5.63,1.68-1,3.17-.89,3.91,1,.67,1.76,1.11,3.48-.89,4.9a2.81,2.81,0,0,0-.55,2.42,10.84,10.84,0,0,0,1.56,2.72l.24-.72c1.27,0,2.77-.44,3.76.09,2.08,1.13,2.52,3.82,1.58,6.12a2.43,2.43,0,0,0,.07,1.91,28,28,0,0,0,2.38,3,5.4,5.4,0,0,0,.91-.14c1.35-1,2.44-2.67,4.52-1.24,1.81,1.24,2.31,2.67,1.44,4.71a1.82,1.82,0,0,0,.64,1.58,24,24,0,0,0,3,1.7c1.92-3.15,2.76-3.65,5.07-2.25,1,.58,1.35,2.15,2,3.3.38.72.52,2,1,2.13a28.4,28.4,0,0,0,4.71.68c.3-2-.64-4.42,2.5-4.73,2.43-.25,3.88.5,4.33,2.93.36,1.9,1.35,2.54,3.19,1.77.73-.31,1.49-.53,2.24-.8-1.47-3.86-.94-5.11,2-5.85,1.83-.46,2.53.73,3.44,1.82,2.87,3.39,4.45,3.38,7.45,0-.78-.72-1.63-1.39-2.34-2.19-1.62-1.82-1.38-2.72.52-4.29,2.19-1.82,3.7-.13,5.35.82,3.23,1.86,3.93,1.64,5.44-1.85-1.15-.68-2.31-1.31-3.43-2-1.57-1-2.37-2.22-1.22-4.15s2.34-2.43,4.31-1.38a15.22,15.22,0,0,0,3.49,1.33c.6.14,1.66,0,1.93-.4a34.89,34.89,0,0,0,2.17-4.13c-1.66-.35-3-.6-4.26-.91-1.76-.41-3.2-1.1-2.7-3.36.46-2.07,1.66-2.91,3.8-2.58a25.12,25.12,0,0,0,5,.32,2.3,2.3,0,0,0,1.73-1.28,26.55,26.55,0,0,0,.44-4.29c-1.82.25-3.29.58-4.76.63C171.11,557.94,170.05,556.36,171.86,552.08Zm27.54-2.93c2.92-.42,5.4-.68,7.82-1.18.64-.13,1.12-1,1.68-1.55a6.46,6.46,0,0,0-2-1c-2.73-.32-4.41-1.35-4.28-3.84s-1.24-3.88-2.94-5.21a7.55,7.55,0,0,1-1.45-1.37c-1.63-2.19-3.42-3.28-5.91-1.17-.25.22-.76.14-1.15.2l-.65-.5c.71-1.14,1.19-2.6,2.19-3.34,3.95-2.9,8-5.66,12.15-8.3,8.76-5.61,17.59-11.11,26.38-16.69,1-.62,2.37-1.28,2.63-2.18,1.1-3.95,1.86-8,2.88-12.66-18.07,12.49-34.52,26-53.15,36.25l8-6-.41-.59c-3.89,1.11-7.67,2.48-10.17,6-.39.54-.48,2-.12,2.26,4.05,3.45,8.07,7,12.38,10.07C196.92,541,200,543.65,199.4,549.15ZM316.21,537c-.35.78-.57,1.22-.75,1.68a35,35,0,0,1-18.53,19.67c-5.7,2.6-10.21,1.83-14.54-2.57a2.7,2.7,0,0,0-1.72-.66c-5.16-.15-10.33-.15-15.48-.36a4.27,4.27,0,0,0-4.3,2.11,37.94,37.94,0,0,1-4.67,5.17c-1.18,1.21-2.46,2.31-3.67,3.44.28.3.34.4.39.41,2.16.11,4.32.26,6.48.3,16.35.3,32.65-.13,48.81-2.93,7.77-1.34,7.83-1.35,8-9.24C316.29,548.46,316.21,542.9,316.21,537Zm85.17-6.41c-.87,1.7-1.55,2.8-2,4-1.89,4.86-1.66,9.76-.23,14.7,2.93,10.1,13.25,16.5,24.6,15.18,10.3-1.2,17.85-9.55,18.35-20.14.09-1.93-.56-2.85-2.4-3.38-4.39-1.28-8.73-2.74-13.1-4.1a18.22,18.22,0,0,0-2-.38c1.22,1.28,2.16,2.2,3,3.2,4.57,5.42,2.57,14.81-3.9,17.63-4.72,2.05-9.55,2.13-13.63-1.4s-4.73-8.19-3.21-13.25c.23-.77.64-1.8.33-2.36C405.46,537.17,403.56,534.19,401.38,530.59ZM164.77,553.66c-2.75.46-4.51,1.25-5.15,4.1a24,24,0,0,1-3,6.81c-8.5,14.22-28.67,16-38.57,3.33-6.26-8-7.11-17.18-5.34-26.8,2.39-13,14-22.81,26.49-21.67,1.92.18,2.47-.74,2.63-2.77-2.5,0-4.88.05-7.25,0-8.19-.22-14.44,3.42-19.21,9.78-6.84,9.11-8.86,19.31-6.78,30.47,2.13,11.46,11.92,21.59,23.25,23.77,11,2.12,21.87-2.88,28.34-13.06A31.88,31.88,0,0,0,164.77,553.66Zm9.87-68.78-.58.86c1.86,2.15,3.71,4.3,5.58,6.45a6.63,6.63,0,0,0,5.52,2.22c13.31-.16,26.62-.18,39.93-.26a3.45,3.45,0,0,0,1.93-.31q4.75-3.61,9.36-7.42c.5-.4.71-1.16,1.51-2.57ZM114.46,491c0,4.72-.07,9.27.09,13.82,0,.58,1.23,1.6,1.88,1.59,10.23-.09,20.46-.33,30.69-.51,1.38,0,1.91-.65,1.92-2,0-2.58.1-5.16.18-7.73.08-2.12.19-4.23.28-6.28ZM392,528.81c-4.29-1.73-4.39-1.69-5.6,2.27-7,22.9,10.26,46.36,34.26,46.48,17.23.08,30.58-10.59,33.82-27,.79-4,.52-4.33-4-5-1.08,8.93-4.49,16.74-12.08,22s-15.89,6.34-24.81,4.5c-8.27-1.7-14.35-6.42-18.88-13.3C388.55,549.27,387.59,539.23,392,528.81Zm-68.42,24.38a165.75,165.75,0,0,0,30.6-29.92c-9.81-.52-19.42-.55-29-.44-.53,0-1.49,1.08-1.5,1.66C323.58,533.88,323.61,543.28,323.61,553.19ZM140,522.35a20.4,20.4,0,0,0-17.49,5.58c-8,7.58-9.7,17.15-7.88,27.57,1.72,9.87,9.49,17.62,18.57,18.78,9.94,1.27,19-3.95,23.35-13.48.65-1.44,1.19-2.94,1.78-4.41l-1-.58a16.75,16.75,0,0,0-2.47,3.24c-2.94,6.68-7.63,11.29-14.94,12.68a15.63,15.63,0,0,1-10.14-1c4.45-.68,9.19-.89,13.6-2.22,4.7-1.42,7.5-5.35,9.6-10-2.75-.16-3.78,1.7-5,3.18a15.36,15.36,0,0,1-10.94,5.8c-8.78.6-16.24-5-19-13.93-2.06-6.81,2.14-16.62,9-20.21,2.54-1.32,5.49-1.84,8.19-2.88a4.38,4.38,0,0,0,2.29-1.77C138.44,526.84,139.06,524.75,140,522.35ZM100.43,469V448.24c-7.05.6-13.91,1.06-20.72,1.91-1,.12-2.37,2-2.58,3.23a90.55,90.55,0,0,0-.86,10.42c-.12,2.11,0,4.24,0,6.51Zm387.43,87.74.42-.71a13.63,13.63,0,0,0-1.55-2.16c-5.44-5.13-10.71-10.46-16.42-15.27-12.86-10.81-26.15-21.13-38.91-32.06a167.58,167.58,0,0,1-38.57-47.69c-1.42-2.63-2.9-3.12-6.14-2,3.4,4.66,6.88,9.22,10.14,13.92,9.85,14.21,20.75,27.51,33.79,38.93q25.54,22.37,51.31,44.45C483.49,555.52,485.86,555.92,487.86,556.75Zm-295-15c-5.74,1.59-8.35,4.54-7.15,7.92.85,2.38,3.46,3.2,6.4,2-3.32-1.53-4.26-2.7-3.61-4.75s2.16-2.61,4.13-2.39c3,.33,2.62,2.54,2.27,4.59,2.95,0,3.39-.41,2.94-2.89A7.89,7.89,0,0,0,194,541c-3-2-6-4.18-8.85-6.43-1.81-1.42-3.43-3.09-5.17-4.67-2.68,4.7-2.69,4.69-8.07,5.87q-10.72,2.34-21.44,4.76c-1.26.28-2.48.74-3.87,1.17l2.25,5.93c1.16-.35,2.1-.66,3-.91,7.4-2,14.76-4.08,22.2-5.82,6.09-1.43,6.6-.84,6.38,5.37-.16,4.73,1.76,7.89,5.91,9.76,5,2.23,11.23.18,12.86-4.3A19.75,19.75,0,0,0,196,552c-1.11.3-2.13.92-3.22,1.33-4.59,1.72-9.4-.87-9.36-5C183.46,543.56,189,539.78,192.86,541.72ZM346.32,409c-6,1.77-12.16,3.54-18.29,5.52a4,4,0,0,0-1.89,2.42c-1.51,4.4-2.88,8.84-4.25,13.29a14.48,14.48,0,0,0-.4,2.18l30.91-6.37C350.51,420.79,348.54,415.28,346.32,409Zm159.77,66.82.48-.93c-2.3-2.89-4.58-5.79-6.92-8.64a2.81,2.81,0,0,0-1.34-.61c-3.19-.93-6.36-1.94-9.58-2.74A302.53,302.53,0,0,0,431,454.75c-6.53-.34-13.09-.05-19.63-.05C443.78,457.85,475.55,464,506.09,475.86Zm-402.73-7.08c2.93.31,2.93.31,3.22-2,.87-7,2.13-8.45,8.81-9.6,1.84-.31,1.78-1.22,1.6-2.6-1-7.64-2.28-15.26-1.37-23.23-2.9.16-5.63.26-8.36.47-3.37.25-3.68.58-3.71,3.9-.09,9.83-.13,19.66-.19,29.49C103.35,466.35,103.36,467.5,103.36,468.78Zm43.07-14.1c-.72-2.19-1.32-4.06-1.94-5.92q-1.71-5.2-3.43-10.39a3.13,3.13,0,0,0-3.37-2.34c-4,0-8-.06-12-.17-1.86-.05-2.32.7-1.88,2.45.88,3.55,1.6,7.13,2.44,10.68.49,2.07.48,5,1.81,5.93,1.53,1,4.3.32,6.53.26C138.49,455.06,142.36,454.86,146.43,454.68Zm138.33,48.43-.93-.64,5.67-8.64c-1.38-.61-2.53-1.06-3.63-1.62-2-1-3.29-.82-3.9,1.71a60.62,60.62,0,0,1-2.34,6.58l-1-.32,2.77-9.39c-1.83,0-4.14-1.53-4.88.79-1.42,4.48-2.14,9.18-3.18,13.94,4.73.7,9.07,1.82,12.16,5.24a6.28,6.28,0,0,0,5.94,2.15,19,19,0,0,1,2-.06c3.21-.05,3.42-.27,3.48-4l-5.28,2.24-.42-.85c1.6-.89,3.2-1.8,4.81-2.68,3.24-1.77,3.5-4.71.68-7l-8,6.39-.66-.82,8.14-7.28-5.28-4.26Zm81.36,22c-4.76-2.23-7.69-1-9.63,2.91a4.22,4.22,0,0,1-.63.78c-8.19,9.41-16.42,18.77-26.88,25.87-.85.57-.6,2.75-.87,4.18.95.12,2.1.65,2.8.29,3.82-2,7.95-3.64,11.17-6.36a142.61,142.61,0,0,0,14.86-14.74C360.4,534.14,363.07,529.5,366.12,525.14ZM77.53,487c.33-1.7.15-3.7,1.06-4.59s2.88-.79,4.41-.95c5-.51,2.51,3.73,3.74,6.16,2.18-.76,4.33-1.54,6.5-2.27s3.05-2.1,3.06-4.49a72.09,72.09,0,0,1,.94-8.26c-.18,0-1,0-1.78,0-6.9.32-13.82.44-20.7,1-6.62.56-5.32-.8-5.56,5.86-.2,5.54.56,6.37,6.1,7.32C75.94,486.89,76.61,486.9,77.53,487ZM234,553l-.81.39c-.61-1.15-1.59-2.25-1.74-3.46a18.76,18.76,0,0,1,.22-5.69c.91-5.08,2-10.12,3.05-15.18q5.17-25.44,10.35-50.88a19.16,19.16,0,0,0,.17-2.15c-3.06.47-3.3,2.74-3.72,4.7-4.24,19.69-8.38,39.41-12.63,59.1-2,9.09,0,13.31,8.84,15.86.4.12.79.27,1.19.38l10.41,2.74.45-.87c-1.06-.94-2-2.32-3.2-2.73-4.18-1.37-8.46-2.4-12.84-3.59Zm164.24-22.86c-2.18-1.22-3.33-.84-4.23,1.5-3.57,9.3-2.26,17.93,3,26.19,6.47,10.13,18.2,14.63,31,11.82,10.92-2.39,18.46-11,20.14-22.75.37-2.63-.71-3.43-3-3.65-.9,20.37-18,27-31,23.4C400,562.67,390.14,547,398.27,530.09ZM245.89,466.25l-.67-.52A44.17,44.17,0,0,1,220.43,467a19.73,19.73,0,0,1-10.81-5.82c-1.79-2-1.2-3.48,1.41-3.91l2.53-.4a3.38,3.38,0,0,0-1.75-.46c-3.62-.15-7.29,2.1-8.15,5.34s1.56,4.83,3.51,6.64a5.94,5.94,0,0,0,.81.58c9.19,5.86,19.33,6.61,29.8,5.45.53-.06,1-.68,1.49-1.1,1.5-1.37,3-2.73,4.44-4.19A30.36,30.36,0,0,0,245.89,466.25ZM103,517.78c-3.17,0-6.45.1-9.72,0-1.73-.07-2.27.67-2.57,2.23-.8,4.16-1.69,8.31-2.71,12.43a10.76,10.76,0,0,1-1.89,4.53c-1.91,2.15-1.2,4.34-.74,6.56a1.9,1.9,0,0,0,1.39,1c5.34.72,8.91-1.93,10-7.15C98.08,530.5,98.84,523.39,103,517.78Zm190.18,31c-.55-2.61-2.68-1.78-4.25-1.79-3.4,0-4.7,1.27-4.75,4.37s1.58,5,4.67,4.93a23.55,23.55,0,0,0,7.48-1.41c7.31-2.72,11.76-8.48,15-15.24A19.05,19.05,0,0,0,313,526.33c-.54-2.14-1.54-2.71-3.46-1.58C312.39,535,303.54,545.67,293.13,548.8Zm-50.79-74.55c2.56-.35,4.68-.7,6.82-.93l56.12-6c3.72-.41,4.12-1,3.66-4.88-1,.1-1.95.19-2.92.31q-17,2.2-33.93,4.41c-7.26.95-14.53,1.88-21.77,3A11.86,11.86,0,0,0,242.34,474.25Zm51.2,71.23c-.33-3.64-.5-6.59-.89-9.51-.25-1.93-1.64-2.08-3.19-1.53a66.85,66.85,0,0,1-22.2,4.32,2.55,2.55,0,0,0-1.85,1.45c-.72,2.43-1.18,4.95-1.74,7.44l.64.45q2.83-3.15,5.68-6.28l.52.32c-.34,1.49-.67,3-1.16,5.16,4.74-.67,9.31-.78,13.52-2.06C286.31,544.19,289.42,543.6,293.54,545.48ZM135,535.14c-7.75-.27-14.47,7.32-14.15,15.56a13.4,13.4,0,0,0,15.5,12.81c5-.58,11.77-6,10.53-13.13-1.67.2-3.07.33-3.6,2.55a8.64,8.64,0,0,1-8.67,6.9,9.36,9.36,0,0,1-9.11-6.81c-1.15-3.89.32-8.45,4-10.37C132.79,541,133.18,537.79,135,535.14Zm-10.7-79.08c-1.12-6.41-2.23-12.3-3.15-18.21-.5-3.25.47-4.35,3.71-4.43,4.16-.1,8.32,0,12.48-.05,3,0,4.93,1.4,6,4.24,2.09,5.26,4.35,10.45,6.59,15.64a8.69,8.69,0,0,0,1.28,1.73l.61-.46c-3-7-5.92-14.06-9-21.06a4.44,4.44,0,0,0-4.42-2.7c-5.91,0-11.82,0-17.73.17-2.86.06-3.69,1-3.66,3.87s.24,5.82.52,8.72c.42,4.28,1,8.54,1.49,13Zm97.21,41.21h-58V501h3.66c15.82-.16,31.63-.39,47.45-.39A8.36,8.36,0,0,0,221.5,497.27Zm-66,13.1c3.42-.63,4.71-1.74,4.76-4.31q.39-20.34.68-40.68c0-.95-.14-1.9-.22-2.85l-.67-.16a10.55,10.55,0,0,0-2.63,6.05q-1,17.55-1.91,35.09C155.44,505.74,155.54,508,155.54,510.37ZM87,511.77c2.93,0,5.74.09,8.53-.09.47,0,1.23-1.19,1.26-1.86.15-3.24.1-6.48.11-9.72V492c-3.26.63-6.2,1.12-9.09,1.8-.57.14-1.41,1-1.4,1.5C86.54,500.72,86.8,506.09,87,511.77ZM300.15,461v-22.4c-2.86,1.4-5.4,2.59-7.88,3.88a2,2,0,0,0-1,1.28c-.65,5.52-1.45,11.07.19,16.56.18.61,1.07,1.46,1.6,1.44C295.57,461.64,298.09,461.25,300.15,461Zm-3.81,83.36c5.24-2.9,8.22-7.24,10.1-12.33.57-1.56.38-3.43.36-5.16,0-.58-.6-1.67-.86-1.65-4.09.27-8.37,0-12.16,1.3-2.56.84-4.41,3.79-6.81,6,.86-.1,1.48-.15,2.08-.25,5-.84,6.94.67,7.27,5.79C296.45,540.06,296.34,542.05,296.34,544.37ZM292.64,523l-.38-1.16c-7.34.3-14.67.59-22,1a1.92,1.92,0,0,0-1.25,1.25c-.74,3.15-1.35,6.33-2,9.5,0,.13.13.29.28.59h1.88c-.29-1.65-.55-3.17-.82-4.69l.6-.15c.61,1.51.83,3.55,1.94,4.36s3,.15,4.89.15l-2-5.48.6-.22c1.12,1.58,2,4,3.43,4.49s3.48-1.21,5.32-2L279,524.6l.9-.62,4.9,5.65ZM310,434.74c-2.09.77-4.12,1.43-6.08,2.28a2.22,2.22,0,0,0-1,1.52c-1,6.26-1.67,12.53,0,18.8.84,3.16,2.32,3.89,5.8,2.84,1.44-.44,2.16-2.79,1.72-4.91a37.85,37.85,0,0,1-1.1-7.35C309.34,443.71,309.75,439.5,310,434.74Zm45.2-11.24c2.44,3.62,4.7,7.14,7.13,10.55,2.22,3.09,7.51,3.54,10.3.92.51-.48,1.07-1.54.87-2.06-1.57-4.16-3.31-8.26-4.75-11.77ZM220.79,532.29a16.21,16.21,0,0,0-10.78-7.6,2.1,2.1,0,0,0-1.44.16c-3.6,2.12-7.17,4.3-11.09,6.68l5.39,5.08c2.46-.75,4.35-1.89,6.11-1.72s3.54,1.63,5,2.39ZM357.88,389.1c-.13,2.22-.15,4-.36,5.86-.49,4-3.25,6.89-6.78,7.16a7.78,7.78,0,0,1-8.37-6,27.89,27.89,0,0,1-.62-5.18c-.21-3-.47-3.26-3.81-2.63-.42,4.15-.31,8.23,1.88,12,2.69,4.64,8.35,7.25,12.86,5.94,6-1.73,8.55-5.44,8.33-11.88-.05-1.64,0-3.28,0-5.08ZM150.44,516.64c-6.23-.2-5.57-.86-7.51,4.5-1.62,4.45-3.61,8.76-5.5,13.11-1,2.33-2.16,4.6-3.36,7.13,1.37.26,2.54.2,3.41.69,2.25,1.28,3.23,0,4-1.73,1.9-4.34,3.84-8.67,5.54-13.09C148.3,523.87,149.25,520.35,150.44,516.64Zm-.37,38.8c9.07-3.68,17.87-7.4,27.79-7.28v-5.45c-9.5.78-18.19,3.51-26.81,6.49a1.72,1.72,0,0,0-.93,1.24C150,552,150.07,553.56,150.07,555.44Zm93.5,5.94.15-1.37c-3.62-.79-7.21-2-10.87-2.31-9.77-.91-19.57-1.35-29.34-2.25-2.84-.26-4.38,1-5.83,3.6ZM389.4,452.5c-.28-.68-.49-1.2-.71-1.71q-8.52-19.14-17-38.29c-1.21-2.73-1.37-2.88-4.55-1.68a11.57,11.57,0,0,0,.43,1.38q8.94,19.5,17.89,39C386.28,453,387.66,452.82,389.4,452.5Zm-225,51.82-.39.92a37.74,37.74,0,0,1,19,15.26l5.62-2.52c-.1-.46-.08-.77-.22-.92q-6-6.16-12-12.29a2.19,2.19,0,0,0-1.39-.43C171.54,504.31,168,504.32,164.42,504.32Zm-.15-28.7v18.64h13.38c-5.59-4.78-7.83-10.77-9.84-16.86C167.26,475.75,166.24,475.18,164.27,475.62ZM77.8,511c0-5.38,0-10.61,0-15.84a1.8,1.8,0,0,0-1-1.37c-2.09-.44-4.22-.69-6.75-1.07.33,4.5.64,8.78,1,13.06C71.42,511.74,71.5,511.8,77.8,511Zm25.88.75c3.4-1.09,3.88-1.69,3.73-4.89q-.72-15.3-1.5-30.59c0-.14-.15-.28-.3-.53-2.27.32-2.8,1.83-2.76,3.88q.36,15.6.67,31.2A6.25,6.25,0,0,0,103.68,511.71Zm66,16.79c-3.44.68-5.17-1-4.79-4.49.2-1.76-.76-2.47-2.5-1.88a3.1,3.1,0,0,1-4.09-2.94c-.07-1.81-2.32-3.94-4-3.58a3,3,0,0,0-1.95,1.51c-.28.77-.22,2.22.3,2.64,5.06,4.12,9.83,8.45,12.44,14.67l7.19-1.63Zm55.12,20.25c.62-4.72,1.2-9.19,1.88-14.42-2.88.76-5.51,1.29-8,2.15s-3.25,2.81-2.87,5.38C216.51,546.55,219.91,549.12,224.83,548.75Zm63.55-86.38V444.58c-1.55.78-3,1.48-4.45,2.27-.69.38-1.79.91-1.83,1.43-.29,4.34-.45,8.7-.45,13.06,0,.55,1.14,1.55,1.76,1.56A35.92,35.92,0,0,0,288.38,462.37Zm129.61,93a8.49,8.49,0,0,0,8.59-8.53,8.08,8.08,0,0,0-8.2-8c-4.86-.12-9.09,3.8-9.07,8.39S413.12,555.3,418,555.35ZM270.55,519.21c.87,0,1.76.11,2.66.13,6,.11,12,.16,18,.31,3.67.09,4-.19,3.95-4.72-6.88,0-13.79,0-20.69,0C270.68,514.91,270.51,515,270.55,519.21Zm8.62-69.94c-5.21.85-6.68,2.29-7.34,7.32-.1.83-.22,1.65-.26,2.48-.2,4.94.47,5.56,5.27,4.89.79-.11,1.59-.25,2.33-.37ZM236.81,465.6c-3.18-1.3-6.18-2.13-8.77-3.66-4.78-2.84-9.9-3.12-15.17-2.92a10,10,0,0,0-1.86.42C214.48,465.2,230.44,467.28,236.81,465.6Zm-163.19,47-.05.47c1.53.15,3.06.37,4.6.46,6.31.36,12.62.77,18.94,1,3.88.13,4.34-.43,4.35-4.23,0-4.33,0-8.66,0-13,0-2.7,0-5.39,0-8.2-2.57.84-3.19,2.34-3.07,4.65.26,5,.3,10,.27,15,0,4.25-.6,4.77-4.84,4.64C87.07,513.21,80.34,512.91,73.62,512.65Zm129.11,38.61.08.89a164.27,164.27,0,0,0,25.94,3c-1.18-2.74-3-3.41-5.31-3.74a42.54,42.54,0,0,1-8.65-2.26c-2.1-.77-3.81-1.44-5.82.31-.91.78-2.49.78-3.77,1.13ZM207.08,508c-1.93-2.5-3.69-4.42-7.07-4.07-3,.31-6,.07-9.71.07l8.84,9.89Zm-29,18a21.76,21.76,0,0,0,2.59-3.1,2.65,2.65,0,0,0,0-2.33A35.89,35.89,0,0,0,163,507.3c.41,1.54.37,3.1,1,3.47A33.08,33.08,0,0,1,178,526Zm-55.35-17.37c-.32,4.25-.32,4.25,3.6,4.24h16.1l-.2-4.37H124.51C124,508.46,123.39,508.54,122.69,508.59ZM318.56,561c1.79-.58,3.39-1,4.91-1.64.54-.23.88-1,1.31-1.47-.54-.33-1.09-1-1.62-1-2.37.07-3-1.11-2.86-3.25.24-5.81.4-11.63.51-17.44.08-4.27,0-8.54,0-12.81l-.91-.26a10.19,10.19,0,0,0-.8,2.65q-.35,11.34-.53,22.68C318.51,552.52,318.56,556.57,318.56,561Zm-177-11a6.74,6.74,0,0,0-6.82-6.5,7.07,7.07,0,0,0-7.45,6.75,7.41,7.41,0,0,0,7.23,7.37C138.21,557.6,141.55,554,141.59,549.92Zm136-72.17a22.69,22.69,0,0,0,2.58.11c8.26-.86,16.53-1.75,24.79-2.6,2-.21,2-1.5,1.93-3-.26-.12-.42-.26-.55-.24-8.83,1.06-17.66,2.09-26.46,3.27C279.21,475.42,278.67,476.59,277.61,477.75ZM174.4,532.27l1.06.06c.24-1.12,1-2.42.65-3.34a27.72,27.72,0,0,0-13.19-15.59c-1.65-.9-2.95-.78-4.36.93C166,518.43,171.06,524.6,174.4,532.27Zm-21-44.14c-1.67.21-2.45,1.26-2.42,3.31.06,4.31,0,8.64-.23,12.95-.07,1.16-.69,3-1.52,3.3-2.22.87-1.29,2.48-1.16,3.72,0,.39,1.68.83,2.59.85,1.35,0,2.74-.26,2.74-2.12C153.46,502.85,153.45,495.56,153.45,488.13Zm76.1,35.13H216.33c2.14,2.58,4.24,5.39,6.66,7.89.72.74,2.34.8,3.54.79.52,0,1.32-.91,1.49-1.54C228.63,528.1,229,525.74,229.55,523.26ZM381,450.65l.62-.62c-2.2-4.7-4.39-9.4-6.45-13.82l-8.73,3ZM79.62,493.82c0,5.23-.09,10.18,0,15.12.06,2.18,2.06,1.58,3.29,1.5.51,0,1.36-1.25,1.36-1.93,0-4.31-.21-8.62-.24-12.94,0-1.29-.43-1.83-1.71-1.76C81.48,493.85,80.59,493.82,79.62,493.82Zm70.3,32.37a12.3,12.3,0,0,1-.83,1.73c-2.42,3.46-2.12,6.45,1.49,8.86a3,3,0,0,0,1.87.74c1.85-.32,3.66-.89,5.49-1.37C157.1,532.8,153.42,528.22,149.92,526.19Zm119.73-73.5c-1.88,1.06-4.29,1.63-5.19,3.12-1.12,1.84-1.15,4.43-1.3,6.72-.06,1,.73,2.75,1.27,2.81a16.34,16.34,0,0,0,4.85-.66c.19,0,.35-.72.35-1.11C269.66,460.19,269.65,456.8,269.65,452.69Zm-153,56c-3.76-1.07-3.82-1.17-3.88-5.22,0-3.65-.07-7.31-.29-11,0-.71-.9-1.38-1.39-2.07-.35.69-1,1.39-1,2.07.19,5.23.51,10.45.8,15.67.23,4.09,1.88,5.24,6,4.14Zm65.2-4.42c3.43,4,6.61,7.6,9.67,11.32,2.34,2.85,2.71,2.91,5.11-.17-2.69-3-5.67-5.83-8-9.11C186.77,503.76,184.67,503.91,181.88,504.29Zm108.56-100c3.2,2.12,6,5,10,5.1,1.34,0,2.71-1,4.07-1.52-.8-1.32-1.56-2.67-2.45-3.93a2.12,2.12,0,0,0-1.33-.61A18.09,18.09,0,0,0,290.44,404.26Zm-190.1,42.52.1-.95c-.4-.18-.81-.54-1.2-.51-7.12.52-14.24,1-21.35,1.67a4.46,4.46,0,0,0-4.28,4.46c-.35,5.22-.52,10.44-.67,15.67a11.8,11.8,0,0,0,.65,2.92l.6-.1c0-.53,0-1.05,0-1.57.06-4.65-.07-9.31.24-13.95.28-4.21,2-5.89,6.14-6.57a80.72,80.72,0,0,1,9.16-1C93.27,446.65,96.81,446.78,100.34,446.78Zm211.33,4.52.7.07c1.58-6,3.15-12.06,4.76-18.22-4.43.42-4.68.66-5.2,4.45a12.54,12.54,0,0,0-.25,1.47C311.66,443.15,311.67,447.22,311.67,451.3Zm-226,38.51.12.81a8.21,8.21,0,0,0,2,.09c2.37-.44,4.75-.85,7.06-1.52,4.29-1.23,4.33-1.63,4.44-6.11.09-3.67-1.51-7.91,3.42-10.54-3.36.21-4.6,1.31-4.83,3.87-.1,1.15-.08,2.32-.11,3.49-.11,4.92-1.07,6.35-5.72,8.11-1.39.53-2.89.72-4.33,1.11C87,489.3,86.37,489.58,85.7,489.81ZM261.3,456.1c-4.35.92-5.41,2.17-5.79,6.9-.29,3.68,0,4,3.6,3.26.79-.15,2.05-.85,2.09-1.38C261.41,462,261.3,459.12,261.3,456.1Zm20.42,92.36c-4,.31-7.8.84-11.57.8-2.34,0-3.78.94-5.62,2.84h16.89C281.53,550.84,281.63,549.57,281.72,548.46Zm-214.25-74c-2.26-.4-2.43,1-2.38,2.51.09,2.75.14,5.52.41,8.26.09.91.61,2.3,1.27,2.54,3.19,1.13,6.48,2,9.75,2.83.39.1.93-.41,1.4-.63-.42-.4-.77-1-1.26-1.15-1.59-.44-3.32-.5-4.84-1.09-3.9-1.52-4.4-2.42-4.36-6.52C67.49,479,67.47,476.73,67.47,474.44Zm287.26-56.73c3.33-.08,5.95-2.25,5.47-4.21a3.9,3.9,0,0,0-2.52-2.39c-1.93-.38-4.83,2.56-4.47,4.41C353.39,416.46,354.39,417.25,354.73,417.71Zm-106,50.21a22.73,22.73,0,0,0,3-.54c.61-.19,1.55-.65,1.61-1.09.35-2.5.48-5,.68-7.58C250.08,459.81,248.14,463,248.78,467.92Zm162.09,71.13,4.34-2.47c-1.77-3.72-3.72-4.77-8.69-4.62ZM277.18,487.52c2.4-.31,4.52,0,5.78-.93a2.79,2.79,0,0,0,0-4.36,3.92,3.92,0,0,0-3-.82C277.19,482.26,278.28,484.93,277.18,487.52Zm-69.72,55.76c-.88-1.85-1.67-3.74.42-4.75,2.54-1.22,2.39,1.65,3.37,2.82l1.91-1.42c-1.42-3.29-3.1-4.46-5.4-3.89a4.9,4.9,0,0,0-3.34,4.74C204.51,542.4,205.2,543.44,207.46,543.28Zm95.93-56.41-.12-.81c-.12-.11-.24-.31-.35-.3-5.64.35-11.28.7-16.91,1.13-.45,0-.85.58-1.28.9l.3.72C291.16,488.11,297.33,488,303.39,486.87Zm-20,26.47.27-.93a17,17,0,0,0-9-4c-1.87-.2-2.61.46-2.42,2.65Zm-132,8.79-.74.42c.22.53.3,1.23.69,1.54a29.5,29.5,0,0,1,8.6,10.47c.19.39,1,.48,1.54.71.09-.49.42-1.1.24-1.47C159.51,528.86,155.73,525.27,151.46,522.13Zm153-39.14-.33-.64-18,1.8V485c.28.11.56.33.83.31,5.3-.31,10.61-.61,15.9-1C303.36,484.2,303.87,483.42,304.41,483ZM443.3,592.67a37,37,0,0,0-2.94-4.82c-.42-.51-1.68-.56-2.48-.42-.49.08-1.29,1.07-1.18,1.44.53,1.86,1.31,3.66,2.06,5.62ZM128.4,487.16c5,.45,5,.45,5-4a4.13,4.13,0,0,1,0-.5c.37-2.22-.39-3.11-2.8-2.88-1.67.15-2.41.54-2.28,2.31S128.4,485.38,128.4,487.16ZM453.7,587.28l3.69-2.85a31.45,31.45,0,0,0-4.17-3.66c-.58-.35-1.9.15-2.66.62-.34.21-.43,1.49-.13,2A46.26,46.26,0,0,0,453.7,587.28Zm20.64-28a27.92,27.92,0,0,0-4.15-1.29,3,3,0,0,0-2.39.57c-.71,1-.86,2.36.68,3.11l4.11,2C473.23,562.06,473.73,560.8,474.34,559.28ZM428,595.89a36.17,36.17,0,0,0-1.66-5c-.26-.54-1.44-.81-2.22-.86a1.75,1.75,0,0,0-1.37,1C421.72,595,423.67,596.93,428,595.89Zm-61-50.24a53.15,53.15,0,0,0,5.36-.77,2,2,0,0,0,1-1.57c0-.69-.44-1.95-.81-2-1.61-.2-3.43-.45-4.82.15C367.14,541.74,367.3,543.9,367,545.65ZM468.4,572.23a48,48,0,0,0-5.65-2.06c-.3-.07-1.57,1.77-1.39,2a48.26,48.26,0,0,0,3.87,4.44Zm-98.55-13.14c1.61-.54,3-1,4.37-1.45s1.45-1.34,1.17-2.52c-.34-1.39-1.16-1.64-2.42-1.24s-2.65.74-4.2,1.16Zm17.64,17.34L383.22,581l3.4,2.75C390.6,579.27,390.63,579,387.49,576.43Zm20.4,19c1.52.15,3.61.58,3.7.32a18.58,18.58,0,0,0,1.08-5.75c0-.42-1.81-.87-3-1.41C409,591,408.51,593,407.89,595.38Zm-9.52-3.8a48.29,48.29,0,0,0,2-4.73,2,2,0,0,0-.69-1.75c-.59-.42-2-.78-2.14-.54a11.92,11.92,0,0,0-2.41,4.47C395,589.61,397.05,590.58,398.37,591.58ZM84.13,484.07l-.7-.83c-1.21.59-3.14.92-3.46,1.83-.64,1.75-.36,3.83-.46,5.71,4.53.88,4.59.83,4.62-3.27Zm57.41,59.66c.9,2.07,1.63,3.78,2.46,5.69l3.27-1.23L144.73,542Zm227-12.43a24.65,24.65,0,0,0,4.3.62,2.46,2.46,0,0,0,1.87-1.28,2.35,2.35,0,0,0-1-2,21.91,21.91,0,0,0-4-1.34ZM376.81,573c5.05-3.12,5.26-3.65,2.53-6.12l-4.57,2.78C375.55,570.88,376.14,571.84,376.81,573Zm-91.47-91.78c.55.34.75.57.92.56,5.95-.54,11.91-1.08,17.86-1.71.48,0,.9-.76,1.77-1.56Zm20-69.82c1.28-.58,2.89-.79,3.32-1.62a6.51,6.51,0,0,0,.33-4.19c-.15-.63-1.67-1-2.61-1.43C306,406.62,305.72,408.54,305.32,411.35ZM228.13,520.54c-4.43-3.28-9.4-3-12.24,0ZM358.71,408.47c1.12,1.79,2.73,3.44,3.2,5.37.6,2.43-1.24,4.2-3.53,5.55,3,.23,5.16-2.18,5.18-5.39S361.09,408.26,358.71,408.47ZM68.6,510.53l1-.13q-.85-9.12-1.72-18.25l-.72.07C67.86,498.3,66.93,504.53,68.6,510.53Zm163,3.72-8.42.92.06.7,7.77,2C231.24,516.7,231.4,515.7,231.64,514.25Zm-58.3,62.08c-2.17-.89-3.82-1.63-5.52-2.22a1.64,1.64,0,0,0-1.42.4c-.29.36-.44,1.41-.29,1.5a18.87,18.87,0,0,0,4.66,2.1C171.4,578.25,172.32,577.07,173.34,576.33Zm117.73-85.92c3.39,2.16,7,1.06,10.49.88.29,0,.53-.91,1-1.69ZM179.14,565.56l-.39-.68-5.79-.74c-.08,0-.2-.08-.24,0-.45.35-1.18.66-1.26,1.09a1.62,1.62,0,0,0,.89,1.33,12.24,12.24,0,0,0,4.13.54C177.41,567,178.25,566.09,179.14,565.56Zm0-10c-1.17-2.27-4.63-3.16-6-2a1.71,1.71,0,0,0-.38,1.53,1.8,1.8,0,0,0,1.28,1C175.68,556.08,177.27,555.78,179.17,555.53Zm141.38-134.1.15-.91a18,18,0,0,0-11.5-.95Zm-155,163.86-4.18-2.69c-.14-.09-.26-.28-.4-.28a3.3,3.3,0,0,0-1.56.17c-.31.18-.61,1.09-.49,1.19a12.77,12.77,0,0,0,3.32,2.46C163,586.41,164.08,585.72,165.6,585.29Zm-59-13c-2.79,2-2.78,2.68.06,4.79C108.93,575,108.92,574.2,106.58,572.27Zm46.76,18.89a27.74,27.74,0,0,0-2.55-3.24,2.39,2.39,0,0,0-1.92-.19c-.28.07-.61.95-.51,1.36C148.79,590.72,151.28,591.8,153.34,591.16Zm-12.76,2.33c-.55-1.54.22-3.74-2.32-3.91-.38,0-1.17,1.15-1.18,1.78C137.05,593.66,138.47,594,140.58,593.49ZM96.89,554.82c1.85-.75,3.92-.92,3.3-3.39-.1-.4-1.35-.82-2-.72C95.51,551.13,96.71,553,96.89,554.82Zm30.64,37.44c-.71-1.67,1.07-3.64-1.39-4.58-.31-.12-1.25.61-1.43,1.11C124,590.72,124.69,592,127.53,592.26Zm64.95-47.51c-1,1.11-2,1.73-2.25,2.56-.11.44,1.11,1.22,1.73,1.85a9.13,9.13,0,0,0,1.81-2.16C193.93,546.61,193.13,545.84,192.48,544.75Zm-76.71,41.59c.64-1.69,2.63-2.83.69-4.15-.5-.34-2.1.93-3.65,1.69Zm-14-24.64c-3,1.38-3.13,1.73-1.68,4C103.09,564.41,103.24,564.1,101.77,561.7ZM316.62,409.31l-3.2,3,4.29.9ZM145.36,513l.78-.26a19.88,19.88,0,0,0-.08-3.37c-.05-.3-1-.44-1.58-.65a10.74,10.74,0,0,0-.21,2.63C144.36,511.92,145,512.43,145.36,513Zm-25.24.19.88-.5-.42-3.94-1-.11a10.06,10.06,0,0,0-.47,2.66C119.15,511.93,119.76,512.54,120.12,513.17Zm91.35-9h-4.33C208.88,506.7,209.35,506.7,211.47,504.14ZM327,410.91l-.21-.74-3.1.24c.07.81.15,1.63.28,3Zm-8.52-2.65-.66.66c.34.93.69,1.86,1.21,3.29l2-2.2Zm3.66,2.94-3.23,2.9,4.07.34ZM211.78,545.11l3.23,1.16-1.94-4.49C212.56,543.08,212.22,544,211.78,545.11ZM301,494.49l0-.95-5.23.36,0,.59Z" transform="translate(-62.16 -385.5)"/><path class="cls-1" d="M472.66,550.14c-6.71-2.83-13.39-5.75-20.16-8.47-17.66-7.09-36-11.91-54.59-15.85a395.46,395.46,0,0,0-54.59-7.73,120,120,0,0,0-27.88,1.49c-5.09.84-10.17,1.75-15.26,2.61-.71.12-1.43.16-2.48.27.73-2.91,1.35-5.56,2.05-8.18,1.92-7.24,3.91-14.46,5.79-21.71.38-1.44.92-2.38,2.55-2.54,12.92-1.29,25.81-3,38.76-3.82,19.32-1.2,38.62,0,57.87,1.84a5.28,5.28,0,0,1,3,1.86c9,10.26,17.93,20.6,28.49,29.34q12.69,10.51,25.39,21c3.26,2.71,6.48,5.48,9.74,8.2.55.45,1.18.8,1.77,1.2Zm-70.44-54.69v1.21c1,.62,2.08,1.83,3,1.71s1.85-1.47,2.76-2.28c-.84-.86-1.63-2.36-2.52-2.42S403.3,494.8,402.22,495.45Zm-97.78,18.1-1.13,0c-.66,1-1.81,1.92-1.81,2.88,0,.77,1.59,2.28,2.15,2.14a3.88,3.88,0,0,0,2.45-2.36C306.28,515.5,305.05,514.44,304.44,513.55ZM419.35,509l0-1c-.94-.55-2-1.63-2.8-1.5s-1.52,1.46-2.27,2.26c.82.74,1.61,2,2.48,2.06S418.47,509.63,419.35,509Zm21.72,19.38c-1.54-1.11-2.3-2.07-3.19-2.21-1.47-.24-2.73.66-2.4,2.25a3,3,0,0,0,2.11,2C438.5,530.41,439.43,529.39,441.07,528.36Zm-11.31-9.16c0-.34-.05-.69-.08-1-.89-.49-1.92-1.51-2.65-1.33-.93.23-1.62,1.43-2.42,2.21.82.67,1.63,1.86,2.45,1.86S428.86,519.82,429.76,519.2Z" transform="translate(-62.16 -385.5)"/><path class="cls-1" d="M395,456.59l10.8.9c20.43,1.78,40.72,4.63,60.4,10.48,10.09,3,19.77,7.37,29.65,11.1,1.81.68,2.19,1.7,1.72,3.64-1.83,7.51-3.44,15.08-5.15,22.62a13.5,13.5,0,0,1-.57,1.61c-4.81-2.16-9.45-4.39-14.19-6.36a211.69,211.69,0,0,0-53.13-14.22c-2.64-.36-5.3-.63-7.9-1.15a4.7,4.7,0,0,1-2.66-1.54c-6.35-8.65-12.6-17.37-18.87-26.08C395,457.48,395.06,457.28,395,456.59Z" transform="translate(-62.16 -385.5)"/><path class="cls-1" d="M383.27,432.39c3.82-.46,7.34-1.05,10.89-1.27,29.32-1.9,58.42-.5,87.12,6.19,6.32,1.47,12.55,3.3,18.81,5,1,.28,2.11.5,1.8,2.11-1.12,6-2.15,11.93-3.28,18.22-1.28-.3-2.47-.51-3.63-.85-18.06-5.32-36.57-8-55.28-9.46a282.28,282.28,0,0,0-44.67,0c-1.75.14-2.67-.26-3.42-1.94-2.3-5.17-4.82-10.25-7.24-15.36C384,434.29,383.74,433.52,383.27,432.39Z" transform="translate(-62.16 -385.5)"/><path class="cls-1" d="M402.73,484.51a332.93,332.93,0,0,0-95.48,2.74c.2-1.17.31-2.19.56-3.18,1.72-6.52,3.49-13,5.17-19.56.38-1.44,1-2.31,2.58-2.55,21.6-3.24,43.23-6,65.15-5.52a3.88,3.88,0,0,1,3.48,1.84c5.92,8.35,11.93,16.64,17.9,25A12.84,12.84,0,0,1,402.73,484.51Zm-22.18-23v-1.08c-.86-.68-1.84-2-2.56-1.88a3.81,3.81,0,0,0-2.47,2.31c-.17.55,1.25,2.19,2,2.25C378.52,463.16,379.55,462.08,380.55,461.49Zm15.13,16.25c-1.56-1-2.48-2-3.24-1.9s-1.59,1.27-2.37,2c.81.77,1.53,2,2.46,2.16C393.21,480.1,394.15,478.88,395.68,477.74ZM384.46,473c1.06-1.33,2.24-2.18,2.12-2.78a3.27,3.27,0,0,0-2-2.11c-.51-.14-1.93,1.11-2,1.78S383.54,471.61,384.46,473Z" transform="translate(-62.16 -385.5)"/><path class="cls-1" d="M269.44,508.27c-6.66-1.66-12.51-4.12-18.77-4.65l-.31.62,1.86,1.52q-4,17.7-8,35.32l1.27.31c1.42-5.79,2.9-11.57,4.23-17.38s2.54-11.7,4-18.28c4.57,2.45,9,4.78,13.35,7.24.4.23.6,1.34.46,1.93-2.62,10.84-5.34,21.66-8,32.5-.53,2.17-1.53,2.22-3.2,1.25-2.95-1.72-5.9-3.45-8.93-5a56,56,0,0,0-5.39-2.14l-.57.92,15.22,12.08-4.54,4.18c-4.07-3.83-6.15-8.48-8-13.53-.72,1.87-.72,1.87,2,8.9-4.26-1.45-8.2-2.59-11.92-4.23-.78-.34-1.17-2.65-1-3.92.79-4.84,1.85-9.64,2.89-14.44,3.18-14.73,6.43-29.44,9.58-44.17.71-3.33,1-6.75,1.78-10.08a3,3,0,0,1,1.92-1.93c8.35-1,16.72-1.86,25.08-2.73.29,0,.6.08,1,.6L256,476.41l0,1c2.4.35,4.81.63,7.19,1,3.28.58,6.56,1.17,9.79,2,.69.17,1.76,1.35,1.66,1.88C273,490.87,271.25,499.41,269.44,508.27Zm-16-6.51.81.17c1.93-7.54,4.1-15,4.93-22.8l-1.1-.22Q255.77,490.32,253.44,501.76Z" transform="translate(-62.16 -385.5)"/><path class="cls-1" d="M377.33,419.38c6.67-1,12.81-2,19-2.88,18.87-2.63,37.86-3.65,56.8-1.85,14.71,1.4,29.28,4.27,43.91,6.59a55.31,55.31,0,0,1,7.95,2.07c.62.19,1.48,1.3,1.37,1.8-1.1,5.11-2.37,10.17-3.62,15.33-5.3-1.45-10.38-3-15.52-4.21a305,305,0,0,0-44.54-7.39,242.32,242.32,0,0,0-58,1.22c-1.85.27-2.74-.27-3.41-1.94C380.11,425.36,378.81,422.67,377.33,419.38Z" transform="translate(-62.16 -385.5)"/><path class="cls-1" d="M483.8,545.59c-8-6.48-15.44-12.89-23.28-18.77a348,348,0,0,1-35.46-29.92c-2.63-2.59-5.08-5.36-7.62-8l.33-.65c1.1.13,2.21.21,3.3.41,21.11,3.79,41.75,9.22,61.44,17.91.76.33,1.51.69,2.25,1.07,6.32,3.22,6.32,3.22,4.93,10.05l-5.22,25.43C484.3,543.85,484.06,544.61,483.8,545.59Z" transform="translate(-62.16 -385.5)"/><path class="cls-1" d="M372.56,561.44c1.73-1.26,3.64-2.15,4.7-3.64.6-.84,0-2.76-.42-4.06-1.38-4-4.51-1.2-7.2-1.7-.16-1.22-.34-2.56-.55-4.13,3-.84,7-.12,6.25-5.35-.68-4.68-4.37-2.72-7-3.73a31.75,31.75,0,0,1,.39-4.1c.11-.48.9-.87,1.45-1.18.24-.13.65,0,1,.07,4.3.6,4.8.41,5.64-2.13.93-2.81.51-3.66-2.76-5.93l11.17,1.6c-5.25,13.93-3,26.69,5.84,38.21,5.85,7.64,13.84,12.17,23.23,14.07,10.43,2.11,20.36.53,29.15-5.53s13.29-15.06,14.9-26l15.45,7.46-.19.72c-1.31-.22-2.62-.42-3.92-.66-2.11-.39-3.31.61-4,2.51s-1.24,3.73,1.07,5c.14.08.27.19.41.28,3.18,2.18,3.18,2.18.66,5.92-2.56-1.09-5.15-3-7.48,1-2,3.44.62,4.77,2.21,6.94-1.2,1.41-2.3,2.86-3.57,4.13a2.09,2.09,0,0,1-1.84.22,7,7,0,0,1-1.76-1.36c-2.39-2-3.83-1.9-6.13.16-1.33,1.19-1.62,2.41-.53,3.93.61.86,1.1,1.82,1.84,3l-5.76,3.23c-2.29-2.13-2.7-6.85-7.77-4.56-4.26,1.93-1.05,4.87-1.61,7.32l-1.76.31c-3.8.69-3.87.71-5.06-3-.92-2.87-3.12-2.12-5.14-2.08s-2.27,1.55-2.31,3.12c0,.89,0,1.79,0,2.83h-6.17c.18-3.35.79-6.77-4.07-7.21-4.18-.37-2.82,3.65-4.79,5.3l-4.51-1.84c1.28-3.14,2.49-6.19-2.13-7.81-3.85-1.35-4,2.37-6.06,3.81-.65-.47-1.35-1-2.1-1.51-1.23-.78-1.38-1.55-.5-2.84,2-3,1.26-5.57-2-7a3.66,3.66,0,0,0-2.73.36,17.18,17.18,0,0,0-2.87,2.34l-3.06-3.48c1.2-1.61,2.73-2.9,3.17-4.49.29-1-.82-2.63-1.64-3.74-2.19-3-4.26,0-6.63.37Z" transform="translate(-62.16 -385.5)"/><path class="cls-1" d="M159.38,459c-3.68,1.68-3.92,4.92-4.1,8.22-.26,4.73-.61,9.47-.84,14.2-.12,2.45-1.4,4.07-3.68,4.37-4.69.62-9.42.95-14.15,1.28-.46,0-1-.73-1.47-1.12.53-.38,1-1,1.61-1.09,3.62-.47,7.25-.82,10.88-1.18a3,3,0,0,0,3-3.06c.36-5.8.69-11.59,1-17.39l-.66-.15a27.15,27.15,0,0,0-.61,3.06c-.38,4.47-.78,8.95-1,13.44-.1,1.94-.85,2.9-2.81,3-3.62.21-7.24.49-10.66.73-1.1-2.22,1.35-5.66-3.1-5.66-5.56,0-5.56-.15-6.67,6.16-4,0-8,.05-12.07,0-1.86,0-1.93-1.43-1.85-2.88q.4-6.86.74-13.71a4.49,4.49,0,0,0-.54-2.48,3.34,3.34,0,0,0-.52,1.12c-.34,5.64-.62,11.3-1,16.95-.11,1.81,1,2.41,2.42,2.46,3.57.11,7.15.06,10.72.19a9.27,9.27,0,0,1,2.45.81c-.75.39-1.49,1.12-2.25,1.13-3.91.1-7.83.06-11.74,0-3.09-.08-3.75-.7-3.64-3.72.22-5.9.44-11.81.92-17.7.36-4.54,2.26-6.46,6.83-6.73,11.55-.67,23.1-1.18,34.66-1.62,1.14-.05,2.94-.87,3.51,1.25a6.25,6.25,0,0,0,1.36-.11l2.87-.37Z" transform="translate(-62.16 -385.5)"/><path class="cls-1" d="M202,457.66c-2.52,6.65-1,10.73,4.8,14.48,6.86,4.46,14.54,5.48,22.46,5.59,3,0,6,0,8.94,0,.35,3.43.06,3.84-3.2,3.86-19.74.16-39.48.25-59.22.49-2.35,0-3.53-.83-4.14-2.94-.3-1-.76-2-1.14-3-.76-2-2.09-3.45-4.34-3.6-1.93-.13-2.44-1.14-2.53-2.91-.18-4-.54-7.93-.84-11.94Z" transform="translate(-62.16 -385.5)"/><path class="cls-1" d="M377.81,452.3a313.14,313.14,0,0,0-63.2,6.74,24.78,24.78,0,0,1,.39-2.6c1.58-6.12,3.22-12.22,4.76-18.35a3.65,3.65,0,0,1,3.08-3.09q14.55-2.91,29.08-5.93a3,3,0,0,1,3.65,1.65c5.16,8.38,12.62,14.49,20.49,20.14C376.5,451.18,376.89,451.54,377.81,452.3Zm-18.11-6.19c1-1.43,2.15-2.3,2.1-3.1s-1.45-2.13-2-2a3.42,3.42,0,0,0-2.22,2.16C357.45,443.8,358.66,444.74,359.7,446.11Zm-4.62-12.62c-1.4-1-2.42-2.22-2.88-2-.95.38-1.6,1.5-2.38,2.31.73.64,1.46,1.8,2.18,1.79S353.65,434.5,355.08,433.49ZM369.31,447c-.91,1.41-1.9,2.28-1.79,3s1.28,1.32,2,2c.66-.73,1.75-1.41,1.83-2.19S370.32,448.28,369.31,447Z" transform="translate(-62.16 -385.5)"/><path class="cls-1" d="M373.2,409.14c4.72-.75,9-1.47,13.37-2.12A341.4,341.4,0,0,1,466,404.89c15.24,1.28,30.43,3.3,45.63,5,2.94.34,2.93.47,2,3.3-.65,2-1.21,4-2,5.88a2.27,2.27,0,0,1-1.95,1.06c-13.8-4-28-5.6-42.23-7.44a282.37,282.37,0,0,0-62.79-1.35c-8.86.83-17.7,1.95-26.52,3.19-2.09.29-3.12,0-3.62-2.06A32.67,32.67,0,0,0,373.2,409.14Z" transform="translate(-62.16 -385.5)"/><path class="cls-1" d="M171.86,552.08c-1.81,4.28-.75,5.86,3.92,5.69,1.47,0,2.94-.38,4.76-.63a26.55,26.55,0,0,1-.44,4.29,2.3,2.3,0,0,1-1.73,1.28,25.12,25.12,0,0,1-5-.32c-2.14-.33-3.34.51-3.8,2.58-.5,2.26.94,2.95,2.7,3.36,1.3.31,2.6.56,4.26.91a34.89,34.89,0,0,1-2.17,4.13c-.27.41-1.33.54-1.93.4a15.22,15.22,0,0,1-3.49-1.33c-2-1.05-3.22-.46-4.31,1.38s-.35,3.14,1.22,4.15c1.12.72,2.28,1.35,3.43,2-1.51,3.49-2.21,3.71-5.44,1.85-1.65-1-3.16-2.64-5.35-.82-1.9,1.57-2.14,2.47-.52,4.29.71.8,1.56,1.47,2.34,2.19-3,3.41-4.58,3.42-7.45,0-.91-1.09-1.61-2.28-3.44-1.82-3,.74-3.52,2-2,5.85-.75.27-1.51.49-2.24.8-1.84.77-2.83.13-3.19-1.77-.45-2.43-1.9-3.18-4.33-2.93-3.14.31-2.2,2.71-2.5,4.73a28.4,28.4,0,0,1-4.71-.68c-.52-.17-.66-1.41-1-2.13-.61-1.15-1-2.72-2-3.3-2.31-1.4-3.15-.9-5.07,2.25a24,24,0,0,1-3-1.7,1.82,1.82,0,0,1-.64-1.58c.87-2,.37-3.47-1.44-4.71-2.08-1.43-3.17.27-4.52,1.24a5.4,5.4,0,0,1-.91.14,28,28,0,0,1-2.38-3,2.43,2.43,0,0,1-.07-1.91c.94-2.3.5-5-1.58-6.12-1-.53-2.49-.09-3.76-.09l-.24.72a10.84,10.84,0,0,1-1.56-2.72,2.81,2.81,0,0,1,.55-2.42c2-1.42,1.56-3.14.89-4.9-.74-1.93-2.23-2-3.91-1-1-2.29-1.75-4,.94-5.63.92-.57,1.23-3,.9-4.42-.24-1-2-1.73-3-2.58l-.62.42a18.85,18.85,0,0,1,.35-3.63,2.36,2.36,0,0,1,1.52-1.53c2.15-.19,3.42-1.36,3.21-3.33-.12-1.14-1.4-2.15-2.15-3.22l-.77.26,1.45-5.59c2.2,0,4.77.51,5.18-2.42.15-1-.88-2.25-1.38-3.38l-.84.08,2.68-4.28.39.85c1.59-.35,3.43-.33,4.65-1.19.71-.5.42-2.42.62-4.06h9.19a33.49,33.49,0,0,0-10.84,11.28c-8.32,13.87-7.75,30.19,1.58,43,9.61,13.18,29.59,16.29,42,6.27,6.75-5.42,10.46-12.82,11.95-21.31C167.57,552.15,167.6,552.11,171.86,552.08Z" transform="translate(-62.16 -385.5)"/><path class="cls-1" d="M199.4,549.15c.61-5.5-2.48-8.17-6.08-10.79-4.31-3.11-8.33-6.62-12.38-10.07-.36-.31-.27-1.72.12-2.26,2.5-3.52,6.28-4.89,10.17-6l.41.59-8,6c18.63-10.28,35.08-23.76,53.15-36.25-1,4.67-1.78,8.71-2.88,12.66-.26.9-1.66,1.56-2.63,2.18-8.79,5.58-17.62,11.08-26.38,16.69-4.13,2.64-8.2,5.4-12.15,8.3-1,.74-1.48,2.2-2.19,3.34l.65.5c.39-.06.9,0,1.15-.2,2.49-2.11,4.28-1,5.91,1.17a7.55,7.55,0,0,0,1.45,1.37c1.7,1.33,3.08,2.57,2.94,5.21s1.55,3.52,4.28,3.84a6.46,6.46,0,0,1,2,1c-.56.54-1,1.42-1.68,1.55C204.8,548.47,202.32,548.73,199.4,549.15Z" transform="translate(-62.16 -385.5)"/><path class="cls-1" d="M316.21,537c0,5.9.08,11.46,0,17-.13,7.89-.19,7.9-8,9.24-16.16,2.8-32.46,3.23-48.81,2.93-2.16,0-4.32-.19-6.48-.3-.05,0-.11-.11-.39-.41,1.21-1.13,2.49-2.23,3.67-3.44a37.94,37.94,0,0,0,4.67-5.17,4.27,4.27,0,0,1,4.3-2.11c5.15.21,10.32.21,15.48.36a2.7,2.7,0,0,1,1.72.66c4.33,4.4,8.84,5.17,14.54,2.57a35,35,0,0,0,18.53-19.67C315.64,538.22,315.86,537.78,316.21,537Z" transform="translate(-62.16 -385.5)"/><path class="cls-1" d="M401.38,530.59c2.18,3.6,4.08,6.58,5.79,9.68.31.56-.1,1.59-.33,2.36-1.52,5.06-.87,9.72,3.21,13.25s8.91,3.45,13.63,1.4c6.47-2.82,8.47-12.21,3.9-17.63-.85-1-1.79-1.92-3-3.2a18.22,18.22,0,0,1,2,.38c4.37,1.36,8.71,2.82,13.1,4.1,1.84.53,2.49,1.45,2.4,3.38-.5,10.59-8,18.94-18.35,20.14-11.35,1.32-21.67-5.08-24.6-15.18-1.43-4.94-1.66-9.84.23-14.7C399.83,533.39,400.51,532.29,401.38,530.59Z" transform="translate(-62.16 -385.5)"/><path class="cls-1" d="M164.77,553.66a31.88,31.88,0,0,1-4.59,14c-6.47,10.18-17.35,15.18-28.34,13.06-11.33-2.18-21.12-12.31-23.25-23.77-2.08-11.16-.06-21.36,6.78-30.47,4.77-6.36,11-10,19.21-9.78,2.37.06,4.75,0,7.25,0-.16,2-.71,3-2.63,2.77-12.48-1.14-24.1,8.68-26.49,21.67-1.77,9.62-.92,18.81,5.34,26.8,9.9,12.64,30.07,10.89,38.57-3.33a24,24,0,0,0,3-6.81C160.26,554.91,162,554.12,164.77,553.66Z" transform="translate(-62.16 -385.5)"/><path class="cls-1" d="M174.64,484.88l63.25-1c-.8,1.41-1,2.17-1.51,2.57q-4.6,3.79-9.36,7.42a3.45,3.45,0,0,1-1.93.31c-13.31.08-26.62.1-39.93.26a6.63,6.63,0,0,1-5.52-2.22c-1.87-2.15-3.72-4.3-5.58-6.45Z" transform="translate(-62.16 -385.5)"/><path class="cls-1" d="M114.46,491l35-1.1c-.09,2-.2,4.16-.28,6.28-.08,2.57-.16,5.15-.18,7.73,0,1.34-.54,2-1.92,2-10.23.18-20.46.42-30.69.51-.65,0-1.86-1-1.88-1.59C114.39,500.22,114.46,495.67,114.46,491Z" transform="translate(-62.16 -385.5)"/><path class="cls-1" d="M392,528.81c-4.44,10.42-3.48,20.46,2.73,29.9,4.53,6.88,10.61,11.6,18.88,13.3,8.92,1.84,17.29.75,24.81-4.5s11-13.11,12.08-22c4.5.72,4.77,1.07,4,5-3.24,16.45-16.59,27.12-33.82,27-24-.12-41.29-23.58-34.26-46.48C387.64,527.12,387.74,527.08,392,528.81Z" transform="translate(-62.16 -385.5)"/><path class="cls-1" d="M323.61,553.19c0-9.91,0-19.31.06-28.7,0-.58,1-1.66,1.5-1.66,9.62-.11,19.23-.08,29,.44A165.75,165.75,0,0,1,323.61,553.19Z" transform="translate(-62.16 -385.5)"/><path class="cls-1" d="M140,522.35c-.91,2.4-1.53,4.49-2.49,6.4a4.38,4.38,0,0,1-2.29,1.77c-2.7,1-5.65,1.56-8.19,2.88-6.83,3.59-11,13.4-9,20.21,2.72,9,10.18,14.53,19,13.93a15.36,15.36,0,0,0,10.94-5.8c1.25-1.48,2.28-3.34,5-3.18-2.1,4.6-4.9,8.53-9.6,10-4.41,1.33-9.15,1.54-13.6,2.22a15.63,15.63,0,0,0,10.14,1c7.31-1.39,12-6,14.94-12.68a16.75,16.75,0,0,1,2.47-3.24l1,.58c-.59,1.47-1.13,3-1.78,4.41-4.35,9.53-13.41,14.75-23.35,13.48-9.08-1.16-16.85-8.91-18.57-18.78-1.82-10.42-.09-20,7.88-27.57A20.4,20.4,0,0,1,140,522.35Z" transform="translate(-62.16 -385.5)"/><path class="cls-1" d="M100.43,469l-24.19,1.3c0-2.27-.09-4.4,0-6.51a90.55,90.55,0,0,1,.86-10.42c.21-1.23,1.57-3.11,2.58-3.23,6.81-.85,13.67-1.31,20.72-1.91Z" transform="translate(-62.16 -385.5)"/><path class="cls-1" d="M487.86,556.75c-2-.83-4.37-1.23-5.93-2.57q-25.77-22.09-51.31-44.45c-13-11.42-23.94-24.72-33.79-38.93-3.26-4.7-6.74-9.26-10.14-13.92,3.24-1.14,4.72-.65,6.14,2a167.58,167.58,0,0,0,38.57,47.69c12.76,10.93,26.05,21.25,38.91,32.06,5.71,4.81,11,10.14,16.42,15.27a13.63,13.63,0,0,1,1.55,2.16Z" transform="translate(-62.16 -385.5)"/><path class="cls-1" d="M192.86,541.72c-3.9-1.94-9.4,1.84-9.44,6.59,0,4.16,4.77,6.75,9.36,5,1.09-.41,2.11-1,3.22-1.33a19.75,19.75,0,0,1,3.23-.32c-1.63,4.48-7.87,6.53-12.86,4.3-4.15-1.87-6.07-5-5.91-9.76.22-6.21-.29-6.8-6.38-5.37-7.44,1.74-14.8,3.86-22.2,5.82-.95.25-1.89.56-3,.91l-2.25-5.93c1.39-.43,2.61-.89,3.87-1.17q10.71-2.41,21.44-4.76c5.38-1.18,5.39-1.17,8.07-5.87,1.74,1.58,3.36,3.25,5.17,4.67C188,536.78,190.94,539,194,541a7.89,7.89,0,0,1,3.86,5.25c.45,2.48,0,2.92-2.94,2.89.35-2.05.77-4.26-2.27-4.59-2-.22-3.5.41-4.13,2.39s.29,3.22,3.61,4.75c-2.94,1.19-5.55.37-6.4-2C184.51,546.26,187.12,543.31,192.86,541.72Z" transform="translate(-62.16 -385.5)"/><path class="cls-1" d="M346.32,409c2.22,6.24,4.19,11.75,6.08,17l-30.91,6.37a14.48,14.48,0,0,1,.4-2.18c1.37-4.45,2.74-8.89,4.25-13.29a4,4,0,0,1,1.89-2.42C334.16,412.58,340.36,410.81,346.32,409ZM348,420.42c-1,1.42-2,2.23-1.95,2.95s1.15,1.4,1.79,2.1c.69-.65,1.84-1.24,1.95-2S348.91,421.9,348,420.42Zm-4.22-4.3c1-1.38,2-2.11,2-2.9,0-.62-1.13-1.88-1.63-1.82a2.9,2.9,0,0,0-2.11,1.69C341.9,413.75,342.88,414.66,343.77,416.12Z" transform="translate(-62.16 -385.5)"/><path class="cls-1" d="M506.09,475.86c-30.54-11.83-62.31-18-94.72-21.16,6.54,0,13.1-.29,19.63.05a302.53,302.53,0,0,1,57.73,8.19c3.22.8,6.39,1.81,9.58,2.74a2.81,2.81,0,0,1,1.34.61c2.34,2.85,4.62,5.75,6.92,8.64Z" transform="translate(-62.16 -385.5)"/><path class="cls-1" d="M103.36,468.78c0-1.28,0-2.43,0-3.58.06-9.83.1-19.66.19-29.49,0-3.32.34-3.65,3.71-3.9,2.73-.21,5.46-.31,8.36-.47-.91,8,.36,15.59,1.37,23.23.18,1.38.24,2.29-1.6,2.6-6.68,1.15-7.94,2.61-8.81,9.6C106.29,469.09,106.29,469.09,103.36,468.78Z" transform="translate(-62.16 -385.5)"/><path class="cls-1" d="M146.43,454.68c-4.07.18-7.94.38-11.8.5-2.23.06-5,.78-6.53-.26-1.33-.91-1.32-3.86-1.81-5.93-.84-3.55-1.56-7.13-2.44-10.68-.44-1.75,0-2.5,1.88-2.45,4,.11,8,.19,12,.17a3.13,3.13,0,0,1,3.37,2.34q1.73,5.19,3.43,10.39C145.11,450.62,145.71,452.49,146.43,454.68Z" transform="translate(-62.16 -385.5)"/><path class="cls-1" d="M284.76,503.11l6.15-8.46,5.28,4.26-8.14,7.28.66.82,8-6.39c2.82,2.25,2.56,5.19-.68,7-1.61.88-3.21,1.79-4.81,2.68l.42.85,5.28-2.24c-.06,3.71-.27,3.93-3.48,4a19,19,0,0,0-2,.06,6.28,6.28,0,0,1-5.94-2.15c-3.09-3.42-7.43-4.54-12.16-5.24,1-4.76,1.76-9.46,3.18-13.94.74-2.32,3-.81,4.88-.79l-2.77,9.39,1,.32a60.62,60.62,0,0,0,2.34-6.58c.61-2.53,1.86-2.76,3.9-1.71,1.1.56,2.25,1,3.63,1.62l-5.67,8.64Z" transform="translate(-62.16 -385.5)"/><path class="cls-1" d="M366.12,525.14c-3.05,4.36-5.72,9-9.18,12.93a142.61,142.61,0,0,1-14.86,14.74c-3.22,2.72-7.35,4.4-11.17,6.36-.7.36-1.85-.17-2.8-.29.27-1.43,0-3.61.87-4.18,10.46-7.1,18.69-16.46,26.88-25.87a4.22,4.22,0,0,0,.63-.78C358.43,524.18,361.36,522.91,366.12,525.14Z" transform="translate(-62.16 -385.5)"/><path class="cls-1" d="M77.53,487c-.92-.08-1.59-.09-2.23-.2-5.54-.95-6.3-1.78-6.1-7.32.24-6.66-1.06-5.3,5.56-5.86,6.88-.58,13.8-.7,20.7-1,.8,0,1.6,0,1.78,0a72.09,72.09,0,0,0-.94,8.26c0,2.39-.89,3.75-3.06,4.49s-4.32,1.51-6.5,2.27c-1.23-2.43,1.22-6.67-3.74-6.16-1.53.16-3.51.05-4.41.95S77.86,485.28,77.53,487Z" transform="translate(-62.16 -385.5)"/><path class="cls-1" d="M234,553l-.26-1.38c4.38,1.19,8.66,2.22,12.84,3.59,1.23.41,2.14,1.79,3.2,2.73l-.45.87L239,556c-.4-.11-.79-.26-1.19-.38-8.8-2.55-10.8-6.77-8.84-15.86,4.25-19.69,8.39-39.41,12.63-59.1.42-2,.66-4.23,3.72-4.7a19.16,19.16,0,0,1-.17,2.15q-5.16,25.44-10.35,50.88c-1,5.06-2.14,10.1-3.05,15.18a18.76,18.76,0,0,0-.22,5.69c.15,1.21,1.13,2.31,1.74,3.46Z" transform="translate(-62.16 -385.5)"/><path class="cls-1" d="M398.27,530.09c-8.13,16.92,1.75,32.58,16,36.51,13,3.58,30.07-3,31-23.4,2.25.22,3.33,1,3,3.65-1.68,11.72-9.22,20.36-20.14,22.75-12.82,2.81-24.55-1.69-31-11.82-5.27-8.26-6.58-16.89-3-26.19C394.94,529.25,396.09,528.87,398.27,530.09Z" transform="translate(-62.16 -385.5)"/><path class="cls-1" d="M245.89,466.25a30.36,30.36,0,0,1-2.18,2.83c-1.42,1.46-2.94,2.82-4.44,4.19-.46.42-1,1-1.49,1.1-10.47,1.16-20.61.41-29.8-5.45a5.94,5.94,0,0,1-.81-.58c-1.95-1.81-4.33-3.52-3.51-6.64s4.53-5.49,8.15-5.34a3.38,3.38,0,0,1,1.75.46l-2.53.4c-2.61.43-3.2,1.9-1.41,3.91A19.73,19.73,0,0,0,220.43,467a44.17,44.17,0,0,0,24.79-1.22Z" transform="translate(-62.16 -385.5)"/><path class="cls-1" d="M103,517.78c-4.11,5.61-4.87,12.72-6.27,19.61-1.06,5.22-4.63,7.87-10,7.15a1.9,1.9,0,0,1-1.39-1c-.46-2.22-1.17-4.41.74-6.56A10.76,10.76,0,0,0,88,532.4c1-4.12,1.91-8.27,2.71-12.43.3-1.56.84-2.3,2.57-2.23C96.5,517.88,99.78,517.78,103,517.78Z" transform="translate(-62.16 -385.5)"/><path class="cls-1" d="M293.13,548.8c10.41-3.13,19.26-13.8,16.43-24,1.92-1.13,2.92-.56,3.46,1.58a19.05,19.05,0,0,1-1.71,13.33c-3.27,6.76-7.72,12.52-15,15.24a23.55,23.55,0,0,1-7.48,1.41c-3.09.1-4.73-1.91-4.67-4.93s1.35-4.4,4.75-4.37C290.45,547,292.58,546.19,293.13,548.8Z" transform="translate(-62.16 -385.5)"/><path class="cls-1" d="M242.34,474.25a11.86,11.86,0,0,1,8-4.15c7.24-1.09,14.51-2,21.77-3Q289,464.9,306,462.72c1-.12,2-.21,2.92-.31.46,3.9.06,4.47-3.66,4.88l-56.12,6C247,473.55,244.9,473.9,242.34,474.25Z" transform="translate(-62.16 -385.5)"/><path class="cls-1" d="M293.54,545.48c-4.12-1.88-7.23-1.29-10.67-.24-4.21,1.28-8.78,1.39-13.52,2.06.49-2.17.82-3.67,1.16-5.16l-.52-.32q-2.85,3.13-5.68,6.28l-.64-.45c.56-2.49,1-5,1.74-7.44a2.55,2.55,0,0,1,1.85-1.45,66.85,66.85,0,0,0,22.2-4.32c1.55-.55,2.94-.4,3.19,1.53C293,538.89,293.21,541.84,293.54,545.48Z" transform="translate(-62.16 -385.5)"/><path class="cls-1" d="M135,535.14c-1.81,2.65-2.2,5.82-5.47,7.51-3.71,1.92-5.18,6.48-4,10.37a9.36,9.36,0,0,0,9.11,6.81,8.64,8.64,0,0,0,8.67-6.9c.53-2.22,1.93-2.35,3.6-2.55,1.24,7.11-5.52,12.55-10.53,13.13a13.4,13.4,0,0,1-15.5-12.81C120.52,542.46,127.24,534.87,135,535.14Z" transform="translate(-62.16 -385.5)"/><path class="cls-1" d="M124.29,456.06l-5.18.46c-.52-4.46-1.07-8.72-1.49-13-.28-2.9-.48-5.81-.52-8.72s.8-3.81,3.66-3.87c5.91-.14,11.82-.14,17.73-.17a4.44,4.44,0,0,1,4.42,2.7c3,7,6,14,9,21.06l-.61.46a8.69,8.69,0,0,1-1.28-1.73c-2.24-5.19-4.5-10.38-6.59-15.64-1.12-2.84-3-4.26-6-4.24-4.16,0-8.32-.05-12.48.05-3.24.08-4.21,1.18-3.71,4.43C122.06,443.76,123.17,449.65,124.29,456.06Z" transform="translate(-62.16 -385.5)"/><path class="cls-1" d="M221.5,497.27a8.36,8.36,0,0,1-6.89,3.36c-15.82,0-31.63.23-47.45.39H163.5v-3.75Z" transform="translate(-62.16 -385.5)"/><path class="cls-1" d="M155.54,510.37c0-2.39-.1-4.63,0-6.86q.91-17.55,1.91-35.09a10.55,10.55,0,0,1,2.63-6.05l.67.16c.08,1,.23,1.9.22,2.85q-.31,20.34-.68,40.68C160.25,508.63,159,509.74,155.54,510.37Z" transform="translate(-62.16 -385.5)"/><path class="cls-1" d="M87,511.77c-.22-5.68-.48-11-.59-16.43,0-.51.83-1.36,1.4-1.5,2.89-.68,5.83-1.17,9.09-1.8v8.06c0,3.24,0,6.48-.11,9.72,0,.67-.79,1.83-1.26,1.86C92.76,511.86,90,511.77,87,511.77Z" transform="translate(-62.16 -385.5)"/><path class="cls-1" d="M300.15,461c-2.06.24-4.58.63-7.12.76-.53,0-1.42-.83-1.6-1.44-1.64-5.49-.84-11-.19-16.56a2,2,0,0,1,1-1.28c2.48-1.29,5-2.48,7.88-3.88Z" transform="translate(-62.16 -385.5)"/><path class="cls-1" d="M296.34,544.37c0-2.32.11-4.31,0-6.28-.33-5.12-2.27-6.63-7.27-5.79-.6.1-1.22.15-2.08.25,2.4-2.23,4.25-5.18,6.81-6,3.79-1.25,8.07-1,12.16-1.3.26,0,.85,1.07.86,1.65,0,1.73.21,3.6-.36,5.16C304.56,537.13,301.58,541.47,296.34,544.37Z" transform="translate(-62.16 -385.5)"/><path class="cls-1" d="M292.64,523l-7.81,6.61-4.9-5.65-.9.62,4.08,6.06c-1.84.75-3.89,2.39-5.32,2s-2.31-2.91-3.43-4.49l-.6.22,2,5.48c-1.88,0-3.87.59-4.89-.15s-1.33-2.85-1.94-4.36l-.6.15c.27,1.52.53,3,.82,4.69H267.3c-.15-.3-.3-.46-.28-.59.64-3.17,1.25-6.35,2-9.5a1.92,1.92,0,0,1,1.25-1.25c7.33-.37,14.66-.66,22-1Z" transform="translate(-62.16 -385.5)"/><path class="cls-1" d="M310,434.74c-.26,4.76-.67,9-.66,13.18a37.85,37.85,0,0,0,1.1,7.35c.44,2.12-.28,4.47-1.72,4.91-3.48,1.05-5,.32-5.8-2.84-1.66-6.27-1-12.54,0-18.8a2.22,2.22,0,0,1,1-1.52C305.89,436.17,307.92,435.51,310,434.74Z" transform="translate(-62.16 -385.5)"/><path class="cls-1" d="M355.21,423.5l13.55-2.36c1.44,3.51,3.18,7.61,4.75,11.77.2.52-.36,1.58-.87,2.06-2.79,2.62-8.08,2.17-10.3-.92C359.91,430.64,357.65,427.12,355.21,423.5Z" transform="translate(-62.16 -385.5)"/><path class="cls-1" d="M220.79,532.29l-6.77,5c-1.5-.76-3.21-2.21-5-2.39s-3.65,1-6.11,1.72l-5.39-5.08c3.92-2.38,7.49-4.56,11.09-6.68a2.1,2.1,0,0,1,1.44-.16A16.21,16.21,0,0,1,220.79,532.29Z" transform="translate(-62.16 -385.5)"/><path class="cls-1" d="M357.88,389.1l3.12.2c0,1.8,0,3.44,0,5.08.22,6.44-2.37,10.15-8.33,11.88-4.51,1.31-10.17-1.3-12.86-5.94-2.19-3.78-2.3-7.86-1.88-12,3.34-.63,3.6-.41,3.81,2.63a27.89,27.89,0,0,0,.62,5.18,7.78,7.78,0,0,0,8.37,6c3.53-.27,6.29-3.12,6.78-7.16C357.73,393.15,357.75,391.32,357.88,389.1Z" transform="translate(-62.16 -385.5)"/><path class="cls-1" d="M150.44,516.64c-1.19,3.71-2.14,7.23-3.44,10.61-1.7,4.42-3.64,8.75-5.54,13.09-.75,1.72-1.73,3-4,1.73-.87-.49-2-.43-3.41-.69,1.2-2.53,2.35-4.8,3.36-7.13,1.89-4.35,3.88-8.66,5.5-13.11C144.87,515.78,144.21,516.44,150.44,516.64Z" transform="translate(-62.16 -385.5)"/><path class="cls-1" d="M150.07,555.44c0-1.88-.07-3.44.05-5a1.72,1.72,0,0,1,.93-1.24c8.62-3,17.31-5.71,26.81-6.49v5.45C167.94,548,159.14,551.76,150.07,555.44Z" transform="translate(-62.16 -385.5)"/><path class="cls-1" d="M243.57,561.38l-45.89-2.33c1.45-2.61,3-3.86,5.83-3.6,9.77.9,19.57,1.34,29.34,2.25,3.66.35,7.25,1.52,10.87,2.31Z" transform="translate(-62.16 -385.5)"/><path class="cls-1" d="M389.4,452.5c-1.74.32-3.12.51-3.95-1.3q-8.93-19.5-17.89-39a11.57,11.57,0,0,1-.43-1.38c3.18-1.2,3.34-1.05,4.55,1.68q8.46,19.17,17,38.29C388.91,451.3,389.12,451.82,389.4,452.5Z" transform="translate(-62.16 -385.5)"/><path class="cls-1" d="M164.42,504.32c3.56,0,7.12,0,10.67,0a2.19,2.19,0,0,1,1.39.43q6,6.11,12,12.29c.14.15.12.46.22.92l-5.62,2.52a37.74,37.74,0,0,0-19-15.26Z" transform="translate(-62.16 -385.5)"/><path class="cls-1" d="M164.27,475.62c2-.44,3,.13,3.54,1.78,2,6.09,4.25,12.08,9.84,16.86H164.27Z" transform="translate(-62.16 -385.5)"/><path class="cls-1" d="M77.8,511c-6.3.84-6.38.78-6.84-5.22-.32-4.28-.63-8.56-1-13.06,2.53.38,4.66.63,6.75,1.07a1.8,1.8,0,0,1,1,1.37C77.83,500.35,77.8,505.58,77.8,511Z" transform="translate(-62.16 -385.5)"/><path class="cls-1" d="M103.68,511.71a6.25,6.25,0,0,1-.16-.93q-.33-15.6-.67-31.2c0-2.05.49-3.56,2.76-3.88.15.25.29.39.3.53q.77,15.3,1.5,30.59C107.56,510,107.08,510.62,103.68,511.71Z" transform="translate(-62.16 -385.5)"/><path class="cls-1" d="M169.71,528.5l2.58,4.3-7.19,1.63c-2.61-6.22-7.38-10.55-12.44-14.67-.52-.42-.58-1.87-.3-2.64a3,3,0,0,1,1.95-1.51c1.7-.36,3.95,1.77,4,3.58a3.1,3.1,0,0,0,4.09,2.94c1.74-.59,2.7.12,2.5,1.88C164.54,527.49,166.27,529.18,169.71,528.5Z" transform="translate(-62.16 -385.5)"/><path class="cls-1" d="M224.83,548.75c-4.92.37-8.32-2.2-9-6.89-.38-2.57.4-4.53,2.87-5.38s5.14-1.39,8-2.15C226,539.56,225.45,544,224.83,548.75Z" transform="translate(-62.16 -385.5)"/><path class="cls-1" d="M288.38,462.37a35.92,35.92,0,0,1-5,.53c-.62,0-1.76-1-1.76-1.56,0-4.36.16-8.72.45-13.06,0-.52,1.14-1,1.83-1.43,1.43-.79,2.9-1.49,4.45-2.27Z" transform="translate(-62.16 -385.5)"/><path class="cls-1" d="M418,555.35c-4.87-.05-8.66-3.6-8.68-8.15s4.21-8.51,9.07-8.39a8.08,8.08,0,0,1,8.2,8A8.49,8.49,0,0,1,418,555.35Zm-.89-14.13a5.94,5.94,0,0,0-6.15,5.89A6.15,6.15,0,0,0,417.2,553a6,6,0,0,0,5.95-6.12A5.78,5.78,0,0,0,417.1,541.22Z" transform="translate(-62.16 -385.5)"/><path class="cls-1" d="M270.55,519.21c0-4.17.13-4.3,3.91-4.28,6.9,0,13.81,0,20.69,0,.06,4.53-.28,4.81-3.95,4.72-6-.15-12-.2-18-.31C272.31,519.32,271.42,519.25,270.55,519.21Z" transform="translate(-62.16 -385.5)"/><path class="cls-1" d="M279.17,449.27v14.32c-.74.12-1.54.26-2.33.37-4.8.67-5.47.05-5.27-4.89,0-.83.16-1.65.26-2.48C272.49,451.56,274,450.12,279.17,449.27Z" transform="translate(-62.16 -385.5)"/><path class="cls-1" d="M236.81,465.6c-6.37,1.68-22.33-.4-25.8-6.16a10,10,0,0,1,1.86-.42c5.27-.2,10.39.08,15.17,2.92C230.63,463.47,233.63,464.3,236.81,465.6Z" transform="translate(-62.16 -385.5)"/><path class="cls-1" d="M73.62,512.65c6.72.26,13.45.56,20.17.76,4.24.13,4.81-.39,4.84-4.64,0-5,0-10-.27-15-.12-2.31.5-3.81,3.07-4.65,0,2.81,0,5.5,0,8.2,0,4.32.06,8.65,0,13,0,3.8-.47,4.36-4.35,4.23-6.32-.21-12.63-.62-18.94-1-1.54-.09-3.07-.31-4.6-.46Z" transform="translate(-62.16 -385.5)"/><path class="cls-1" d="M202.73,551.26l2.47-.66c1.28-.35,2.86-.35,3.77-1.13,2-1.75,3.72-1.08,5.82-.31a42.54,42.54,0,0,0,8.65,2.26c2.34.33,4.13,1,5.31,3.74a164.27,164.27,0,0,1-25.94-3Z" transform="translate(-62.16 -385.5)"/><path class="cls-1" d="M207.08,508l-7.94,5.89L190.3,504c3.72,0,6.74.24,9.71-.07C203.39,503.58,205.15,505.5,207.08,508Z" transform="translate(-62.16 -385.5)"/><path class="cls-1" d="M178,526a33.08,33.08,0,0,0-14-15.19c-.64-.37-.6-1.93-1-3.47a35.89,35.89,0,0,1,17.69,13.23,2.65,2.65,0,0,1,0,2.33A21.76,21.76,0,0,1,178,526Z" transform="translate(-62.16 -385.5)"/><path class="cls-1" d="M122.69,508.59c.7,0,1.26-.13,1.82-.13h17.68l.2,4.37h-16.1C122.37,512.84,122.37,512.84,122.69,508.59Z" transform="translate(-62.16 -385.5)"/><path class="cls-1" d="M318.56,561c0-4.39-.05-8.44,0-12.49q.18-11.34.53-22.68a10.19,10.19,0,0,1,.8-2.65l.91.26c0,4.27.07,8.54,0,12.81-.11,5.81-.27,11.63-.51,17.44-.1,2.14.49,3.32,2.86,3.25.53,0,1.08.62,1.62,1-.43.51-.77,1.24-1.31,1.47C322,560,320.35,560.38,318.56,561Z" transform="translate(-62.16 -385.5)"/><path class="cls-1" d="M141.59,549.92c0,4.07-3.38,7.68-7,7.62a7.41,7.41,0,0,1-7.23-7.37,7.07,7.07,0,0,1,7.45-6.75A6.74,6.74,0,0,1,141.59,549.92Zm-3.07,1.15a4.6,4.6,0,0,0-4.59-4.84,4.79,4.79,0,0,0-4.81,4.7,5,5,0,0,0,4.69,5.12C136.51,556.12,138.49,554,138.52,551.07Z" transform="translate(-62.16 -385.5)"/><path class="cls-1" d="M277.61,477.75c1.06-1.16,1.6-2.33,2.29-2.42,8.8-1.18,17.63-2.21,26.46-3.27.13,0,.29.12.55.24.12,1.46.07,2.75-1.93,3-8.26.85-16.53,1.74-24.79,2.6A22.69,22.69,0,0,1,277.61,477.75Z" transform="translate(-62.16 -385.5)"/><path class="cls-1" d="M174.4,532.27c-3.34-7.67-8.41-13.84-15.84-17.94,1.41-1.71,2.71-1.83,4.36-.93A27.72,27.72,0,0,1,176.11,529c.32.92-.41,2.22-.65,3.34Z" transform="translate(-62.16 -385.5)"/><path class="cls-1" d="M153.45,488.13c0,7.43,0,14.72,0,22,0,1.86-1.39,2.16-2.74,2.12-.91,0-2.54-.46-2.59-.85-.13-1.24-1.06-2.85,1.16-3.72.83-.33,1.45-2.14,1.52-3.3.24-4.31.29-8.64.23-12.95C151,489.39,151.78,488.34,153.45,488.13Z" transform="translate(-62.16 -385.5)"/><path class="cls-1" d="M229.55,523.26c-.52,2.48-.92,4.84-1.53,7.14-.17.63-1,1.53-1.49,1.54-1.2,0-2.82-.05-3.54-.79-2.42-2.5-4.52-5.31-6.66-7.89Z" transform="translate(-62.16 -385.5)"/><path class="cls-1" d="M381,450.65l-14.56-11.41,8.73-3c2.06,4.42,4.25,9.12,6.45,13.82Z" transform="translate(-62.16 -385.5)"/><path class="cls-1" d="M79.62,493.82c1,0,1.86,0,2.75,0,1.28-.07,1.7.47,1.71,1.76,0,4.32.26,8.63.24,12.94,0,.68-.85,1.89-1.36,1.93-1.23.08-3.23.68-3.29-1.5C79.53,504,79.62,499.05,79.62,493.82Z" transform="translate(-62.16 -385.5)"/><path class="cls-1" d="M149.92,526.19c3.5,2,7.18,6.61,8,10-1.83.48-3.64,1.05-5.49,1.37a3,3,0,0,1-1.87-.74c-3.61-2.41-3.91-5.4-1.49-8.86A12.3,12.3,0,0,0,149.92,526.19Z" transform="translate(-62.16 -385.5)"/><path class="cls-1" d="M269.65,452.69c0,4.11,0,7.5,0,10.88,0,.39-.16,1.07-.35,1.11a16.34,16.34,0,0,1-4.85.66c-.54-.06-1.33-1.86-1.27-2.81.15-2.29.18-4.88,1.3-6.72C265.36,454.32,267.77,453.75,269.65,452.69Z" transform="translate(-62.16 -385.5)"/><path class="cls-1" d="M116.68,508.71l.27,3.63c-4.15,1.1-5.8-.05-6-4.14-.29-5.22-.61-10.44-.8-15.67,0-.68.65-1.38,1-2.07.49.69,1.35,1.36,1.39,2.07.22,3.65.24,7.31.29,11C112.86,507.54,112.92,507.64,116.68,508.71Z" transform="translate(-62.16 -385.5)"/><path class="cls-1" d="M181.88,504.29c2.79-.38,4.89-.53,6.75,2,2.36,3.28,5.34,6.11,8,9.11-2.4,3.08-2.77,3-5.11.17C188.49,511.89,185.31,508.28,181.88,504.29Z" transform="translate(-62.16 -385.5)"/><path class="cls-1" d="M290.44,404.26a18.09,18.09,0,0,1,10.28-1,2.12,2.12,0,0,1,1.33.61c.89,1.26,1.65,2.61,2.45,3.93-1.36.54-2.73,1.56-4.07,1.52C296.43,409.23,293.64,406.38,290.44,404.26Z" transform="translate(-62.16 -385.5)"/><path class="cls-1" d="M100.34,446.78c-3.53,0-7.07-.13-10.6,0a80.72,80.72,0,0,0-9.16,1c-4.16.68-5.86,2.36-6.14,6.57-.31,4.64-.18,9.3-.24,13.95,0,.52,0,1,0,1.57l-.6.1a11.8,11.8,0,0,1-.65-2.92c.15-5.23.32-10.45.67-15.67A4.46,4.46,0,0,1,77.89,447c7.11-.63,14.23-1.15,21.35-1.67.39,0,.8.33,1.2.51Z" transform="translate(-62.16 -385.5)"/><path class="cls-1" d="M311.67,451.3c0-4.08,0-8.15,0-12.23a12.54,12.54,0,0,1,.25-1.47c.52-3.79.77-4,5.2-4.45-1.61,6.16-3.18,12.19-4.76,18.22Z" transform="translate(-62.16 -385.5)"/><path class="cls-1" d="M85.7,489.81c.67-.23,1.33-.51,2-.69,1.44-.39,2.94-.58,4.33-1.11,4.65-1.76,5.61-3.19,5.72-8.11,0-1.17,0-2.34.11-3.49.23-2.56,1.47-3.66,4.83-3.87-4.93,2.63-3.33,6.87-3.42,10.54-.11,4.48-.15,4.88-4.44,6.11-2.31.67-4.69,1.08-7.06,1.52a8.21,8.21,0,0,1-2-.09Z" transform="translate(-62.16 -385.5)"/><path class="cls-1" d="M261.3,456.1c0,3,.11,5.91-.1,8.78,0,.53-1.3,1.23-2.09,1.38-3.61.72-3.89.42-3.6-3.26C255.89,458.27,257,457,261.3,456.1Z" transform="translate(-62.16 -385.5)"/><path class="cls-1" d="M281.72,548.46c-.09,1.11-.19,2.38-.3,3.64H264.53c1.84-1.9,3.28-2.86,5.62-2.84C273.92,549.3,277.7,548.77,281.72,548.46Z" transform="translate(-62.16 -385.5)"/><path class="cls-1" d="M67.47,474.44c0,2.29,0,4.52,0,6.75,0,4.1.46,5,4.36,6.52,1.52.59,3.25.65,4.84,1.09.49.14.84.75,1.26,1.15-.47.22-1,.73-1.4.63-3.27-.85-6.56-1.7-9.75-2.83-.66-.24-1.18-1.63-1.27-2.54-.27-2.74-.32-5.51-.41-8.26C65,475.43,65.21,474,67.47,474.44Z" transform="translate(-62.16 -385.5)"/><path class="cls-1" d="M354.73,417.71c-.34-.46-1.34-1.25-1.52-2.19-.36-1.85,2.54-4.79,4.47-4.41a3.9,3.9,0,0,1,2.52,2.39C360.68,415.46,358.06,417.63,354.73,417.71Z" transform="translate(-62.16 -385.5)"/><path class="cls-1" d="M248.78,467.92c-.64-4.92,1.3-8.11,5.33-9.21-.2,2.54-.33,5.08-.68,7.58-.06.44-1,.9-1.61,1.09A22.73,22.73,0,0,1,248.78,467.92Z" transform="translate(-62.16 -385.5)"/><path class="cls-1" d="M410.87,539.05,406.52,532c5-.15,6.92.9,8.69,4.62Z" transform="translate(-62.16 -385.5)"/><path class="cls-1" d="M277.18,487.52c1.1-2.59,0-5.26,2.78-6.11a3.92,3.92,0,0,1,3,.82,2.79,2.79,0,0,1,0,4.36C281.7,487.49,279.58,487.21,277.18,487.52Z" transform="translate(-62.16 -385.5)"/><path class="cls-1" d="M207.46,543.28c-2.26.16-3-.88-3-2.5a4.9,4.9,0,0,1,3.34-4.74c2.3-.57,4,.6,5.4,3.89l-1.91,1.42c-1-1.17-.83-4-3.37-2.82C205.79,539.54,206.58,541.43,207.46,543.28Z" transform="translate(-62.16 -385.5)"/><path class="cls-1" d="M303.39,486.87c-6.06,1.16-12.23,1.24-18.36,1.64l-.3-.72c.43-.32.83-.87,1.28-.9,5.63-.43,11.27-.78,16.91-1.13.11,0,.23.19.35.3Z" transform="translate(-62.16 -385.5)"/><path class="cls-1" d="M283.41,513.34l-11.13-2.29c-.19-2.19.55-2.85,2.42-2.65a17,17,0,0,1,9,4Z" transform="translate(-62.16 -385.5)"/><path class="cls-1" d="M151.46,522.13c4.27,3.14,8,6.73,10.33,11.67.18.37-.15,1-.24,1.47-.53-.23-1.35-.32-1.54-.71a29.5,29.5,0,0,0-8.6-10.47c-.39-.31-.47-1-.69-1.54Z" transform="translate(-62.16 -385.5)"/><path class="cls-1" d="M304.41,483c-.54.43-1.05,1.21-1.61,1.25-5.29.42-10.6.72-15.9,1-.27,0-.55-.2-.83-.31v-.81l18-1.8Z" transform="translate(-62.16 -385.5)"/><path class="cls-1" d="M443.3,592.67l-4.54,1.82c-.75-2-1.53-3.76-2.06-5.62-.11-.37.69-1.36,1.18-1.44.8-.14,2.06-.09,2.48.42A37,37,0,0,1,443.3,592.67Z" transform="translate(-62.16 -385.5)"/><path class="cls-1" d="M128.4,487.16c0-1.78.1-3.42,0-5.05s.61-2.16,2.28-2.31c2.41-.23,3.17.66,2.8,2.88a4.13,4.13,0,0,0,0,.5C133.36,487.61,133.36,487.61,128.4,487.16Zm.34-3.33,1.9,1.61c.47-.55,1.38-1.19,1.3-1.63-.14-.71-.94-1.29-1.46-1.92Z" transform="translate(-62.16 -385.5)"/><path class="cls-1" d="M453.7,587.28a46.26,46.26,0,0,1-3.27-3.94c-.3-.46-.21-1.74.13-2,.76-.47,2.08-1,2.66-.62a31.45,31.45,0,0,1,4.17,3.66Z" transform="translate(-62.16 -385.5)"/><path class="cls-1" d="M474.34,559.28c-.61,1.52-1.11,2.78-1.75,4.41l-4.11-2c-1.54-.75-1.39-2.08-.68-3.11a3,3,0,0,1,2.39-.57A27.92,27.92,0,0,1,474.34,559.28Z" transform="translate(-62.16 -385.5)"/><path class="cls-1" d="M428,595.89c-4.35,1-6.3-.94-5.25-4.93a1.75,1.75,0,0,1,1.37-1c.78,0,2,.32,2.22.86A36.17,36.17,0,0,1,428,595.89Z" transform="translate(-62.16 -385.5)"/><path class="cls-1" d="M367,545.65c.27-1.75.11-3.91.75-4.19,1.39-.6,3.21-.35,4.82-.15.37.05.82,1.31.81,2a2,2,0,0,1-1,1.57A53.15,53.15,0,0,1,367,545.65Z" transform="translate(-62.16 -385.5)"/><path class="cls-1" d="M468.4,572.23l-3.17,4.4a48.26,48.26,0,0,1-3.87-4.44c-.18-.25,1.09-2.09,1.39-2A48,48,0,0,1,468.4,572.23Z" transform="translate(-62.16 -385.5)"/><path class="cls-1" d="M369.85,559.09,368.77,555c1.55-.42,2.89-.74,4.2-1.16s2.08-.15,2.42,1.24c.28,1.18.23,2.11-1.17,2.52S371.46,558.55,369.85,559.09Z" transform="translate(-62.16 -385.5)"/><path class="cls-1" d="M387.49,576.43c3.14,2.6,3.11,2.84-.87,7.3l-3.4-2.75Z" transform="translate(-62.16 -385.5)"/><path class="cls-1" d="M407.89,595.38c.62-2.41,1.13-4.38,1.77-6.84,1.2.54,3,1,3,1.41a18.58,18.58,0,0,1-1.08,5.75C411.5,596,409.41,595.53,407.89,595.38Z" transform="translate(-62.16 -385.5)"/><path class="cls-1" d="M398.37,591.58c-1.32-1-3.35-2-3.24-2.55a11.92,11.92,0,0,1,2.41-4.47c.18-.24,1.55.12,2.14.54a2,2,0,0,1,.69,1.75A48.29,48.29,0,0,1,398.37,591.58Z" transform="translate(-62.16 -385.5)"/><path class="cls-1" d="M84.13,484.07v3.44c0,4.1-.09,4.15-4.62,3.27.1-1.88-.18-4,.46-5.71.32-.91,2.25-1.24,3.46-1.83Zm-.89,3.18-1.7-1.5c-.42.61-1.13,1.2-1.16,1.83s.75,1.05,1.18,1.58Z" transform="translate(-62.16 -385.5)"/><path class="cls-1" d="M141.54,543.73l3.19-1.69,2.54,6.15L144,549.42C143.17,547.51,142.44,545.8,141.54,543.73Z" transform="translate(-62.16 -385.5)"/><path class="cls-1" d="M368.5,531.3l1.24-4a21.91,21.91,0,0,1,4,1.34,2.35,2.35,0,0,1,1,2,2.46,2.46,0,0,1-1.87,1.28A24.65,24.65,0,0,1,368.5,531.3Z" transform="translate(-62.16 -385.5)"/><path class="cls-1" d="M376.81,573c-.67-1.11-1.26-2.07-2-3.34l4.57-2.78C382.07,569.3,381.86,569.83,376.81,573Z" transform="translate(-62.16 -385.5)"/><path class="cls-1" d="M285.34,481.17l20.55-2.71c-.87.8-1.29,1.51-1.77,1.56-5.95.63-11.91,1.17-17.86,1.71C286.09,481.74,285.89,481.51,285.34,481.17Z" transform="translate(-62.16 -385.5)"/><path class="cls-1" d="M305.32,411.35c.4-2.81.68-4.73,1-7.24.94.48,2.46.8,2.61,1.43a6.51,6.51,0,0,1-.33,4.19C308.21,410.56,306.6,410.77,305.32,411.35Z" transform="translate(-62.16 -385.5)"/><path class="cls-1" d="M228.13,520.54H215.89C218.73,517.51,223.7,517.26,228.13,520.54Z" transform="translate(-62.16 -385.5)"/><path class="cls-1" d="M358.71,408.47c2.38-.21,4.87,2.44,4.85,5.53s-2.18,5.62-5.18,5.39c2.29-1.35,4.13-3.12,3.53-5.55C361.44,411.91,359.83,410.26,358.71,408.47Z" transform="translate(-62.16 -385.5)"/><path class="cls-1" d="M68.6,510.53c-1.67-6-.74-12.23-1.49-18.31l.72-.07q.86,9.12,1.72,18.25Z" transform="translate(-62.16 -385.5)"/><path class="cls-1" d="M231.64,514.25c-.24,1.45-.4,2.45-.59,3.62l-7.77-2-.06-.7Z" transform="translate(-62.16 -385.5)"/><path class="cls-1" d="M173.34,576.33c-1,.74-1.94,1.92-2.57,1.78a18.87,18.87,0,0,1-4.66-2.1c-.15-.09,0-1.14.29-1.5a1.64,1.64,0,0,1,1.42-.4C169.52,574.7,171.17,575.44,173.34,576.33Z" transform="translate(-62.16 -385.5)"/><path class="cls-1" d="M291.07,490.41l11.45-.81c-.43.78-.67,1.67-1,1.69C298.05,491.47,294.46,492.57,291.07,490.41Z" transform="translate(-62.16 -385.5)"/><path class="cls-1" d="M179.14,565.56c-.89.53-1.73,1.41-2.66,1.5a12.24,12.24,0,0,1-4.13-.54,1.62,1.62,0,0,1-.89-1.33c.08-.43.81-.74,1.26-1.09,0,0,.16,0,.24,0l5.79.74Z" transform="translate(-62.16 -385.5)"/><path class="cls-1" d="M179.17,555.53c-1.9.25-3.49.55-5.09.61a1.8,1.8,0,0,1-1.28-1,1.71,1.71,0,0,1,.38-1.53C174.54,552.37,178,553.26,179.17,555.53Z" transform="translate(-62.16 -385.5)"/><path class="cls-1" d="M320.55,421.43l-11.35-1.86a18,18,0,0,1,11.5.95Z" transform="translate(-62.16 -385.5)"/><path class="cls-1" d="M165.6,585.29c-1.52.43-2.61,1.12-3.31.85a12.77,12.77,0,0,1-3.32-2.46c-.12-.1.18-1,.49-1.19a3.3,3.3,0,0,1,1.56-.17c.14,0,.26.19.4.28Z" transform="translate(-62.16 -385.5)"/><path class="cls-1" d="M106.58,572.27c2.34,1.93,2.35,2.69.06,4.79C103.8,575,103.79,574.27,106.58,572.27Z" transform="translate(-62.16 -385.5)"/><path class="cls-1" d="M153.34,591.16c-2.06.64-4.55-.44-5-2.07-.1-.41.23-1.29.51-1.36a2.39,2.39,0,0,1,1.92.19A27.74,27.74,0,0,1,153.34,591.16Z" transform="translate(-62.16 -385.5)"/><path class="cls-1" d="M140.58,593.49c-2.11.53-3.53.17-3.5-2.13,0-.63.8-1.8,1.18-1.78C140.8,589.75,140,592,140.58,593.49Z" transform="translate(-62.16 -385.5)"/><path class="cls-1" d="M96.89,554.82c-.18-1.84-1.38-3.69,1.31-4.11.64-.1,1.89.32,2,.72C100.81,553.9,98.74,554.07,96.89,554.82Z" transform="translate(-62.16 -385.5)"/><path class="cls-1" d="M127.53,592.26c-2.84-.29-3.5-1.54-2.82-3.47.18-.5,1.12-1.23,1.43-1.11C128.6,588.62,126.82,590.59,127.53,592.26Z" transform="translate(-62.16 -385.5)"/><path class="cls-1" d="M192.48,544.75c.65,1.09,1.45,1.86,1.29,2.25a9.13,9.13,0,0,1-1.81,2.16c-.62-.63-1.84-1.41-1.73-1.85C190.45,546.48,191.43,545.86,192.48,544.75Z" transform="translate(-62.16 -385.5)"/><path class="cls-1" d="M115.77,586.34l-3-2.46c1.55-.76,3.15-2,3.65-1.69C118.4,583.51,116.41,584.65,115.77,586.34Z" transform="translate(-62.16 -385.5)"/><path class="cls-1" d="M101.77,561.7c1.47,2.4,1.32,2.71-1.68,4C98.64,563.43,98.77,563.08,101.77,561.7Z" transform="translate(-62.16 -385.5)"/><path class="cls-1" d="M316.62,409.31l1.09,3.94-4.29-.9Z" transform="translate(-62.16 -385.5)"/><path class="cls-1" d="M145.36,513c-.38-.55-1-1.06-1.09-1.65a10.74,10.74,0,0,1,.21-2.63c.55.21,1.53.35,1.58.65a19.88,19.88,0,0,1,.08,3.37Z" transform="translate(-62.16 -385.5)"/><path class="cls-1" d="M120.12,513.17c-.36-.63-1-1.24-1-1.89a10.06,10.06,0,0,1,.47-2.66l1,.11.42,3.94Z" transform="translate(-62.16 -385.5)"/><path class="cls-1" d="M211.47,504.14c-2.12,2.56-2.59,2.56-4.33,0Z" transform="translate(-62.16 -385.5)"/><path class="cls-1" d="M327,410.91l-3,2.48c-.13-1.35-.21-2.17-.28-3l3.1-.24Z" transform="translate(-62.16 -385.5)"/><path class="cls-1" d="M318.46,408.26,321,410l-2,2.2c-.52-1.43-.87-2.36-1.21-3.29Z" transform="translate(-62.16 -385.5)"/><path class="cls-1" d="M322.12,411.2l.84,3.24-4.07-.34Z" transform="translate(-62.16 -385.5)"/><path class="cls-1" d="M211.78,545.11c.44-1.14.78-2,1.29-3.33l1.94,4.49Z" transform="translate(-62.16 -385.5)"/><path class="cls-1" d="M301,494.49h-5.25l0-.59,5.23-.36Z" transform="translate(-62.16 -385.5)"/><path d="M402.22,495.45c1.08-.65,2.19-1.85,3.22-1.78s1.68,1.56,2.52,2.42c-.91.81-1.76,2.15-2.76,2.28s-2-1.09-3-1.71Z" transform="translate(-62.16 -385.5)"/><path d="M304.44,513.55c.61.89,1.84,2,1.66,2.63a3.88,3.88,0,0,1-2.45,2.36c-.56.14-2.15-1.37-2.15-2.14,0-1,1.15-1.92,1.81-2.88Z" transform="translate(-62.16 -385.5)"/><path d="M419.35,509c-.88.65-1.8,1.85-2.63,1.8s-1.66-1.32-2.48-2.06c.75-.8,1.41-2.12,2.27-2.26s1.86,1,2.8,1.5Z" transform="translate(-62.16 -385.5)"/><path d="M441.07,528.36c-1.64,1-2.57,2-3.48,2a3,3,0,0,1-2.11-2c-.33-1.59.93-2.49,2.4-2.25C438.77,526.29,439.53,527.25,441.07,528.36Z" transform="translate(-62.16 -385.5)"/><path d="M429.76,519.2c-.9.62-1.8,1.71-2.7,1.71s-1.63-1.19-2.45-1.86c.8-.78,1.49-2,2.42-2.21.73-.18,1.76.84,2.65,1.33C429.71,518.51,429.74,518.86,429.76,519.2Z" transform="translate(-62.16 -385.5)"/><path d="M380.55,461.49c-1,.59-2,1.67-3,1.6-.79-.06-2.21-1.7-2-2.25a3.81,3.81,0,0,1,2.47-2.31c.72-.13,1.7,1.2,2.56,1.88Z" transform="translate(-62.16 -385.5)"/><path d="M395.68,477.74c-1.53,1.14-2.47,2.36-3.15,2.23-.93-.18-1.65-1.39-2.46-2.16.78-.7,1.5-1.84,2.37-2S394.12,476.76,395.68,477.74Z" transform="translate(-62.16 -385.5)"/><path d="M384.46,473c-.92-1.43-1.91-2.29-1.88-3.11s1.45-1.92,2-1.78a3.27,3.27,0,0,1,2,2.11C386.7,470.86,385.52,471.71,384.46,473Z" transform="translate(-62.16 -385.5)"/><path d="M253.44,501.76q2.33-11.43,4.64-22.85l1.1.22c-.83,7.77-3,15.26-4.93,22.8Z" transform="translate(-62.16 -385.5)"/><path d="M359.7,446.11c-1-1.37-2.25-2.31-2.11-2.95a3.42,3.42,0,0,1,2.22-2.16c.54-.12,1.94,1.25,2,2S360.74,444.68,359.7,446.11Z" transform="translate(-62.16 -385.5)"/><path d="M355.08,433.49c-1.43,1-2.25,2.05-3.08,2.06s-1.45-1.15-2.18-1.79c.78-.81,1.43-1.93,2.38-2.31C352.66,431.27,353.68,432.45,355.08,433.49Z" transform="translate(-62.16 -385.5)"/><path d="M369.31,447c1,1.3,2.1,2.09,2,2.77s-1.17,1.46-1.83,2.19c-.71-.65-1.88-1.23-2-2S368.4,448.39,369.31,447Z" transform="translate(-62.16 -385.5)"/><path d="M348,420.42c.92,1.48,1.89,2.35,1.79,3.07s-1.26,1.33-1.95,2c-.64-.7-1.74-1.36-1.79-2.1S347,421.84,348,420.42Z" transform="translate(-62.16 -385.5)"/><path d="M343.77,416.12c-.89-1.46-1.87-2.37-1.72-3a2.9,2.9,0,0,1,2.11-1.69c.5-.06,1.67,1.2,1.63,1.82C345.75,414,344.79,414.74,343.77,416.12Z" transform="translate(-62.16 -385.5)"/><path d="M417.1,541.22a5.78,5.78,0,0,1,6,5.64A6,6,0,0,1,417.2,553a6.15,6.15,0,0,1-6.25-5.87A5.94,5.94,0,0,1,417.1,541.22Zm.06,9.77a4.11,4.11,0,0,0,4.37-4.34c-.06-2.55-1.89-4.17-4.61-4.08a4.31,4.31,0,0,0-4.34,4.19A4.38,4.38,0,0,0,417.16,551Z" transform="translate(-62.16 -385.5)"/><path d="M138.52,551.07c0,3-2,5-4.71,5a5,5,0,0,1-4.69-5.12,4.79,4.79,0,0,1,4.81-4.7A4.6,4.6,0,0,1,138.52,551.07Zm-1.64-.29a3.06,3.06,0,0,0-3.15-3.14,3,3,0,0,0-3.09,3.21,2.83,2.83,0,0,0,2.84,3.13A3.24,3.24,0,0,0,136.88,550.78Z" transform="translate(-62.16 -385.5)"/><path d="M128.74,483.83l1.74-1.94c.52.63,1.32,1.21,1.46,1.92.08.44-.83,1.08-1.3,1.63Z" transform="translate(-62.16 -385.5)"/><path d="M83.24,487.25l-1.68,1.91c-.43-.53-1.21-1.08-1.18-1.58s.74-1.22,1.16-1.83Z" transform="translate(-62.16 -385.5)"/><path class="cls-1" d="M417.16,551a4.38,4.38,0,0,1-4.58-4.23,4.31,4.31,0,0,1,4.34-4.19c2.72-.09,4.55,1.53,4.61,4.08A4.11,4.11,0,0,1,417.16,551Z" transform="translate(-62.16 -385.5)"/><path class="cls-1" d="M136.88,550.78a3.24,3.24,0,0,1-3.4,3.2,2.83,2.83,0,0,1-2.84-3.13,3,3,0,0,1,3.09-3.21A3.06,3.06,0,0,1,136.88,550.78Z" transform="translate(-62.16 -385.5)"/></svg>