<?xml version="1.0" encoding="UTF-8" standalone="no"?>
<svg xmlns="http://www.w3.org/2000/svg" xmlns:svg="http://www.w3.org/2000/svg" width="440" height="348.25879" version="1.0">
  <defs/>
  <g transform="translate(-162.85715 -249.66135)">
    <path d="M518.90233 595.91741c-3.39451-.6072-6.89369-1.4631-7.77597-1.9019-.88228-.4389-2.43856.0354-3.45847 1.054-2.17808 2.1751-23.44781 3.8934-26.05778 2.1051-.89762-.6151-3.10352-.6014-4.90176.0305-2.44583.8594-5.84295.0304-13.48555-3.2908-5.61884-2.4418-11.59004-4.3128-13.26918-4.1579-1.67914.1549-3.65653-.1813-4.39419-.7472-1.75973-1.3499-19.78417-2.6509-26.08908-1.883-2.71503.3307-5.69478 1.1251-6.62181 1.7653-2.5437 1.7568-73.76544 4.9475-75.14993 3.3666-1.66617-1.9025-21.65134-8.2934-28.86174-9.2295-4.27358-.5548-8.13469-1.7476-8.58032-2.6507-.50809-1.0296-1.92339-1.2509-3.79451-.5934-1.8747.6587-5.65906.0619-10.17813-1.6053-5.12774-1.8917-8.84816-2.3874-12.95444-1.726-3.9522.6366-9.15693.0235-16.5781-1.9531a289524.30008 289524.30008 0 0 0-14.51578-3.86569c-2.03409-.5415-3.74709-1.5127-3.80662-2.1581-.05956-.6454-.77933-1.1116-1.59959-1.0359-5.52668.5099-34.48861-20.4314-34.93405-25.2595-.31356-3.3988 3.92067-7.2987 8.36992-7.7092 6.62893-.6116.24096-2.3805-10.50675-2.9095-6.07526-.299-12.03531-.9147-13.24455-1.3682-13.92661-5.2234-18.96952-8.8318-20.66545-14.7867-1.7402-6.1105 1.67778-13.7419 7.79057-17.3942 8.47318-5.0628 29.96317-9.366 40.48724-8.1074 1.82389.2182 7.70351.7399 13.06577 1.1595 9.09487.7117 9.85442.588 11.30862-1.8416.85749-1.4324 1.45208-3.7635 1.32139-5.1802-.13069-1.4166.63242-3.7354 1.69568-5.153 1.06336-1.4176 1.32544-2.5213.5827-2.4527-.74285.0685-1.71759-.8874-2.16596-2.1243-.52576-1.4502-3.16018-2.6247-7.41784-3.307-8.72143-1.3975-14.55207-4.3714-18.63973-9.5073-1.84026-2.3122-5.7153-4.9984-8.61102-5.9693-5.51066-1.8477-14.0029-8.8415-17.60826-14.5013-1.16293-1.8256-4.2325-5.19-6.82114-7.4765-10.65474-9.4105-19.90408-29.0115-17.6333-37.3681.55792-2.0532 1.50202-6.7259 2.09792-10.3837 2.56303-15.7308 19.05264-34.4984 28.09968-31.9817 1.7464.4858 4.63217.7489 6.41304.5846 1.80259-.1663 5.23931 1.2568 7.75387 3.2108 4.48181 3.4829 4.52491 3.606 5.68689 16.2008l1.17088 12.6912 5.92827.2713c3.26054.1492 6.48116-.1343 7.15695-.6299.67578-.4956 4.69702-1.6992 8.93606-2.6747 4.23905-.9754 10.10279-2.3222 13.03045-2.9929 2.92766-.6707 6.50338-.7211 7.9463-.1121 1.57535.6649 4.42641.5221 7.13684-.3576 4.45933-1.4473 15.93839-1.4457 17.68083.0024.49457.411.24111 1.7078-.56322 2.8817-1.74915 2.5527-.71212 2.5686 4.60842.0705 5.13282-2.41 11.20111-1.5737 10.97421 1.5124-.13962 1.9006.90864 2.1746 6.386 1.6693 3.74399-.3454 8.00715.1476 9.94486 1.1502 6.27078 3.2442 26.44074 7.0508 30.67675 5.7895 2.17612-.6479 8.55413-3.7675 14.17339-6.9323 8.87887-5.0008 11.6614-5.9222 21.24896-7.0365 12.9484-1.5049 24.91354-4.9597 29.31222-8.4635 1.72085-1.3707 4.24074-3.2363 5.59986-4.1457 1.52876-1.0229 2.33154-2.953 2.10506-5.061-.20138-1.8742.32606-3.4714 1.17196-3.5494 1.8459-.1704 2.84394-3.2489 2.44728-7.5482-.15961-1.73.18248-3.1891.7603-3.2424.96308-.0889 4.63267-9.398 4.45667-11.3058-.22246-2.4111 10.64981-20.5155 16.11227-26.8302 5.72966-6.6236 22.19404-19.5944 25.22716-19.8743 1.1487-.1059 6.07404-2.6804 18.47616-9.657 8.34054-4.6919 18.04983-15.2748 20.87399-22.7522 2.88465-7.6376 6.12009-9.1156 8.98578-4.105 1.39554 2.4401 1.5912 4.5809.82678 9.051-.55061 3.2203-.58289 6.7026-.07159 7.7385.51115 1.0358.41563 4.1097-.21226 6.8308-1.05691 4.5802-.90163 5.0961 2.09185 6.9489l3.23349 2.0015-3.10156 5.7786c-2.84433 5.2993-2.91451 5.9507-.84603 7.8517 2.84553 2.6151 2.94577 3.8992.76689 9.8138-.96895 2.6301-1.39762 5.0845-.95266 5.4543.68837.572 17.84235-9.9208 21.46873-13.1321.66702-.5906 3.93842-2.0882 7.26982-3.328 3.33142-1.2398 6.32254-2.788 6.64711-3.4405.32456-.6525 1.58235-1.2779 2.79521-1.3898 3.05925-.2822 21.84448-11.7806 23.72128-14.5196.84432-1.2324 2.8805-2.3648 4.52454-2.5165 2.32458-.2144 3.09856-1.2339 3.48063-4.5845.27029-2.3699 1.16125-5.6222 1.97984-7.2275 1.33158-2.6113 1.98404-2.8123 6.19439-1.909 6.97453 1.4963 8.52768 4.6837 7.56091 15.5161-.44024 4.9326-1.02448 12.7594-1.29832 17.3929-.27393 4.6335-1.95178 13.9383-3.72861 20.6774-1.77694 6.7391-3.7045 15.2482-4.28346 18.9091-.57896 3.661-1.41275 7.2799-1.85285 8.042-.44012.7621-.86046 4.4232-.93406 8.1358-.07372 3.7126-1.34579 10.6186-2.82683 15.3468-4.21032 13.4414-8.69104 25.8957-10.67308 29.6664-.99646 1.8957-1.68898 5.9395-1.53895 8.9862.15003 3.0466-.56402 6.9496-1.58681 8.6733-7.41504 12.4954-7.76053 13.5964-5.04846 16.0889 2.06994 1.9024 2.29098 2.7852 1.17344 4.6895-2.62677 4.4765-2.65435 5.8542-.16272 8.144 2.38755 2.1943 2.40758 2.5691.42971 8.0233-2.04608 5.642-2.03512 5.7766.79257 9.6955 2.16206 2.9963 2.90921 5.7741 3.03705 11.2902.09324 4.0239-.12435 7.6699-.48379 8.1023-.3593.4324.45515 4.0447 1.80987 8.0273 1.35473 3.9827 3.29156 9.6821 4.30403 12.6654 2.48332 7.3171 2.65108 10.5349.78662 15.0868-1.39605 3.4082-1.31336 4.1736.72907 6.7408 2.09545 2.634 2.14212 3.3375.51573 7.7782-.98342 2.6853-1.38244 5.2195-.88674 5.6315.49584.412.10707 2.2454-.86381 4.0742-.97096 1.8289-1.44103 3.9855-1.04479 4.7926.39624.807.77039 6.9552.8314 13.6627.0901 9.8947-.44032 13.2228-2.81193 17.64119-1.61017 3-3.97795 5.5432-5.27194 5.6625-1.29192.1192-4.46918 2.3815-7.06061 5.0273-2.59144 2.6458-7.39561 5.7455-10.67617 6.8882-7.70966 2.6856-27.16327 4.2692-35.06988 2.8549zm38.52262-10.8289c1.42468-1.1188 1.01767-1.37-1.82084-1.1237-2.10974.183-3.26491.8359-2.7318 1.5438 1.1472 1.5229 2.20251 1.4256 4.55264-.4201zm-44.92273.9274c-2.51463-2.0898-5.04505-2.2082-4.86232-.2275.12169 1.3189 5.76003 3.4784 6.62141 2.536.24191-.2646-.54972-1.3034-1.75909-2.3085zm-31.83132.2506c-2.15997-2.7149-8.77516-3.9977-8.55948-1.6599.15378 1.6669 6.20049 5.1572 8.55773 4.9397 2.29571-.2118 2.29575-.3963.00175-3.2798zm33.06819-5.4639c-.16999-1.8425-1.46871-2.4041-18.10413-7.82939l-10.48209-3.4186.2857 3.0965c.20026 2.17059 1.82631 3.86889 5.438 5.67969 8.85534 4.4401 23.18706 5.9895 22.86252 2.4718zm20.10834-1.5437c-1.45471-1.9311-9.45931-4.2407-13.42844-3.8746-4.21681.3891-2.91458 2.3537 2.8246 4.261 5.31506 1.7665 12.04078 1.5214 10.60384-.3864zm24.73704-2.0109c.7091-1.4256-2.46192-2.534-6.24999-2.1845-1.5457.1426-3.00366-.82559-3.56182-2.36539-.74154-2.0454-1.81099-2.4411-4.96612-1.8375-5.93919 1.1362-4.72764 4.30059 2.3861 6.23249 6.92688 1.8811 11.50467 1.9384 12.39183.1549zm-74.59608 3.2327c.43982-.5293-2.80411-2.2502-7.20887-3.8245-4.40461-1.5742-8.45651-3.45699-9.0041-4.18409-.54775-.727-2.39006-1.1932-4.09418-1.036-1.704.1572-3.51402-.2661-4.02229-.9408-.50813-.6746-2.49702-1.0602-4.41991-.8569l-3.49603.3698 4.19645 2.8286c5.21188 3.51309 17.10165 8.43109 18.26481 7.55489.47481-.3576 1.76282-.1908 2.86251.3706 2.36773 1.2089 5.79893 1.0692 6.92161-.2816zm-24.9282 1.0922c1.29482-1.558-.99923-4.371-3.38509-4.1509-1.29503.1195-5.19371-.7014-8.66375-1.8243-6.90541-2.23459-12.85833-2.39909-10.31459-.2851.82616.6866 4.8155 2.6564 8.86515 4.3774 7.06414 3.002 11.99648 3.69 13.49828 1.8829zm112.66701-12.98989c1.2534-1.8293 1.17397-2.3802-.46417-3.2167-2.68302-1.3702-7.47318-.8442-10.49924 1.1531-1.96361 1.296-3.14108 1.1982-5.53149-.4596-1.67019-1.1583-2.5544-1.6209-1.96472-1.0278.58954.593.49674 1.9176-.2062 2.9435-.98574 1.4386-.5487 2.0821 1.91072 2.8129 5.27088 1.5664 15.0529.2788 16.7551-2.2054zm-159.67149 14.63279c1.02834-1.2373-3.49792-3.9762-6.23978-3.7757-1.19919.0876-4.03179-1.1278-6.29475-2.7009-2.26285-1.5732-8.00328-4.48389-12.75651-6.46819-8.36216-3.4909-11.85943-6.3865-8.12925-6.7307.99601-.0919 5.39411 1.5639 9.7735 3.6795 7.91179 3.8219 10.87467 3.9638 9.1345.4373-1.2114-2.4548.72999-2.4945 7.69109-.1569 10.32861 3.4683 21.99883 3.8952 27.43447 1.0036 1.07688-.5728 3.70836-.329 5.8479.5419 5.11418 2.0819 9.25617-.2001 6.88479-3.7931-.85976-1.3025-2.5223-2.7944-3.69472-3.3155-2.57088-1.1425-3.09317-10.6443-.64354-11.7073.86717-.3762 1.66266.2478 1.76772 1.3867.21537 2.3345 6.81949 8.9103 10.51938 10.4745 2.14153.9053 2.28826.6015 1.22502-2.5364-.66442-1.9607-1.71058-4.1089-2.32472-4.7737-.61427-.6648-1.46811-2.6522-1.89757-4.4164-.50023-2.0549-1.45476-2.9712-2.65661-2.5498-4.78494 1.6775-5.74625 1.3448-5.5948-1.9362.08368-1.8115.69262-4.0925 1.35318-5.0688.85079-1.2576.59766-2.3819-.86823-3.8554-4.15503-4.1769-6.68404-9.2551-4.98316-10.0064 4.82695-2.132-3.85566-13.9622-11.4697-15.6276-1.94522-.4255-2.77128-1.3925-2.45586-2.8749.53874-2.5313-5.99356-6.5144-12.25159-7.4705-2.10617-.3218-7.09056-3.1678-11.07631-6.3245-6.11325-4.8415-6.89932-5.911-5.02453-6.8361 1.59448-.7869 4.1751.4188 9.13352 4.2672 3.80098 2.9502 8.60478 5.5749 10.67502 5.8327 10.88948 1.3559 16.25696 4.3547 21.56648 12.0487 1.75914 2.5492 3.90125 4.57 4.76042 4.4907.85901-.0792 2.59873 1.1591 3.86586 2.7518 3.93058 4.9405 17.23117 14.9212 19.62936 14.7298 4.52945-.3617 2.73686 3.5431-2.01933 4.3988l-4.6438.8356 6.49846 3.7231c4.67548 2.6786 6.91588 3.3063 7.986 2.2376 1.06603-1.0647 3.40592-.5033 8.25949 1.9816 3.72456 1.9069 6.75247 3.2555 6.72863 2.9969-.02386-.2585 1.93168.1424 4.34566.891 4.32271 1.3405 6.07315 3.5111 3.05578 3.7894-3.00424.2772 6.94287 7.606 13.63465 10.0458 3.73311 1.361 5.76365 2.5749 4.5123 2.6973-1.25134.1225-2.20163 1.0195-2.11179 1.9934.21296 2.3083 13.93108 6.145 17.4328 4.8756 2.42324-.8785 1.80601-1.6861-5.92892-7.7575-5.86503-4.6035-8.15461-7.138-7.13924-7.9028 1.61445-1.216 1.36766-1.3372-18.87273-9.2686-13.99366-5.4836-22.698-10.7725-22.4173-13.621.18598-1.8858-2.21508-3.1729-17.03546-9.1315-2.71506-1.0916-5.40113-3.2666-5.96913-4.8334-1.34262-3.7037-.47413-4.606 2.83197-2.9421 1.46868.739 3.88514 1.2317 5.37023 1.0947 4.20795-.3883 15.48354 2.2637 28.12611 6.615 10.03458 3.4538 14.03764 4.0439 26.89937 3.9656.54083-.0033 1.06952.9285 1.17491 2.0707.157 1.7016-.93517 2.0622-6.04704 1.9962-3.43124-.0443-8.79112-.4153-11.91075-.8245-3.54033-.4644-5.91427-.2573-6.31629.551-.35434.7122-3.08861 1.3303-6.07627 1.3735-8.86155.128-7.2056 2.5883 3.97747 5.9093 5.75877 1.7102 11.57218 3.9357 12.91867 4.9456 1.34665 1.0099 5.18707 2.728 8.5344 3.818 3.34735 1.09 9.26409 3.4871 13.14817 5.327 6.45724 3.0588 10.63465 3.7585 16.79104 2.8124 3.32583-.511 2.53037-2.8711-1.32986-3.9449-1.84106-.5122-5.91637-1.8926-9.05627-3.0675-3.1398-1.175-6.47687-2.0654-7.41562-1.9789-.93875.0866-1.76086-.4278-1.82685-1.1432-.06601-.7155-.92636-1.2264-1.91181-1.1355-.98558.0909-2.59526-.6391-3.57698-1.6222-3.83104-3.8361 1.96471-3.4867 12.89136.7773 10.19475 3.9784 11.81252 4.2332 19.88306 3.1314 4.83188-.6596 8.73128-1.7847 8.66529-2.5001-.06601-.7154-2.65694-2.2474-5.75781-3.4043-6.1744-2.3037-11.49433-5.8548-11.67304-7.7918-.06276-.6802-1.7379-2.8407-3.72255-4.8013-4.01967-3.9709-4.91898-7.1779-2.08592-7.4393 1.84523-.1702 12.09719 9.3093 12.28643 11.3607.21133 2.2904 4.99913 5.4102 7.89295 5.1433 3.81421-.352 3.76018-1.2461-.23704-3.9199l-3.14575-2.1044 2.63877-3.391c2.78865-3.5836 3.16544-7.1664.87343-8.3064-.75621-.3762-1.4586-1.5909-1.56086-2.6993-.13841-1.5002.66462-1.8835 3.14126-1.4993 6.76434 1.0494 1.73178-7.1804-7.23503-11.8318-5.42263-2.8129-6.44429-3.851-5.35461-5.4412.82341-1.2018 2.44231-1.7342 4.16771-1.3707 2.83167.5966 10.69749 6.9734 15.2747 12.3832 2.29896 2.7171 2.49595 2.7392 3.19165.3579.41218-1.4104-.02636-3.5475-.98692-4.8105-.9507-1.2499-1.94269-4.5928-2.20432-7.4285-.41689-4.5188-1.25483-5.694-6.78051-9.5088-3.46766-2.3941-6.35447-4.8908-6.41513-5.5483-.06066-.6576 2.00631-1.0495 4.5933-.8711 4.27071.2946 4.64196.0659 4.03412-2.4858-.45669-1.9173-3.37462-4.0231-9.18236-6.6267-10.70879-4.8009-10.65424-8.1824.09485-5.8794 2.26639.4856 2.81543.2157 2.17644-1.0696-1.54587-3.1099-8.99613-5.4826-17.48385-5.5684-9.27543-.0936-12.12667-.9749-10.931-3.3787.899-1.8073 13.86914-1.9232 18.1771-.1625 3.03758 1.2415 4.55475-.1428 2.2531-2.0557-2.43006-2.0195-16.34055-4.7446-21.77443-4.2656-2.57714.2271-6.51264 1.2451-8.74559 2.2623-3.07178 1.3992-4.46659 1.5064-5.73037.4404-1.28185-1.0812-1.14793-1.8748.57537-3.4109 2.06442-1.8402 1.83505-2.03-2.84035-2.3489-10.20852-.6965-11.04627-.9625-11.28815-3.5842-.27772-3.0103 3.50443-3.8107 8.12659-1.7199 2.6065 1.179 9.32606.9851 34.4674-.9948 2.2635-.1782 6.56262-.0066 9.55371.3814 6.60542.857 8.35587-1.2183 3.66761-4.3482-1.76896-1.181-2.87337-2.5601-2.45407-3.0645.41929-.5045 2.2319.2285 4.02819 1.6289 3.83043 2.9863 10.71234 3.0064 9.24211.027-.51082-1.0351-2.03684-1.7798-3.3912-1.6549-1.35422.125-2.5187-.3838-2.5876-1.1306-.06889-.7467-1.05544-1.0985-2.1923-.7816-1.18761.331-2.6533-.6255-3.44476-2.2483-1.29751-2.6602-1.04828-2.8549 4.28213-3.3467 4.56592-.4212 5.74498-1.0371 6.10015-3.1865.28768-1.7405-.20008-2.6052-1.40679-2.4938-1.01577.0937-2.92102-.3608-4.23372-1.01-1.7678-.8742-3.60267-.5303-7.07501 1.3263-4.79938 2.5661-5.77756 4.4549-2.78368 5.3751.92821.2853-.36516.6631-2.87418.8395-7.18421.5051-32.32643 7.0269-34.16411 8.862-2.29408 2.2911-3.93675.5537-2.20856-2.3359.77751-1.2997 1.66508-3.4326 1.97267-4.7398.4385-1.8632 1.47343-2.2909 4.79089-1.98 6.54676.6136 32.76734-8.2311 32.51487-10.9679-.0192-.2081-2.27228.1345-5.00695.7613-5.07943 1.1644-8.82107-.7343-5.08254-2.5791 1.07878-.5324 1.85926-2.076 1.73431-3.4303-.16109-1.746.70012-2.5479 2.96009-2.7564 1.75303-.1617 3.62516-1.2792 4.16016-2.4832.53512-1.204 3.68361-2.9588 6.9967-3.8997 7.58171-2.153 13.74533-5.7193 20.53561-11.8821 6.04767-5.4888 5.10136-5.9888-2.80584-1.4827-5.92854 3.3786-11.20961 4.4675-11.40481 2.3517-.06809-.7379.87242-1.7411 2.09002-2.2294 3.8309-1.5362 13.31861-7.4355 15.50826-9.6428 2.16592-2.1832 2.7733-5.1393.74157-3.6089-.628.473-1.55489.3115-2.05988-.3589-.50499-.6703 1.27762-3.0582 3.96136-5.3062 5.16352-4.3252 6.05559-6.1636 2.84714-5.8676-2.97706.2747-2.54102-2.0787.89108-4.8093 2.41137-1.9184 2.72044-2.8045 1.42914-4.0976-1.24387-1.2454-1.2769-2.1908-.1352-3.8571 1.13072-1.6502 1.10842-2.4082-.08874-3.0036-1.12043-.5573-.88935-1.5293.76952-3.2378 2.56612-2.6427 2.95332-5.1444.76506-4.9425-.74977.0691-4.36615 2.4616-8.03643 5.3165-3.67025 2.855-6.6973 4.9296-6.72676 4.6103-.02946-.3194-2.78609 1.123-6.12599 3.2051-3.33987 2.0821-7.07998 3.8786-8.31153 3.9922-1.65757.153-2.01087.9974-1.36055 3.2516.7535 2.6116.03383 3.5104-5.05698 6.316-7.30652 4.0267-8.69204 6.2566-3.59501 5.7863 3.72353-.3435 17.82742-5.9618 22.22347-8.8528 1.84083-1.2106 2.23078-1.0537 2.04361.8223-.15229 1.5272-2.50174 3.1814-6.88499 4.8475-3.95084 1.5018-6.58598 3.2643-6.48684 4.3386.12033 1.3044 1.09982 1.4816 3.50921.6349 2.37853-.8357 3.22959-.6926 2.95151.4964-.42335 1.81-5.38619 4.2793-18.14822 9.0299-4.58684 1.7074-7.89471 3.643-7.54774 4.4165.33971.7574 2.00876 1.053 3.70895.6569 2.90133-.676 2.97021-.5705 1.12147 1.7162-2.47962 3.0671-13.59513 5.9511-22.19897 5.7598-6.0926-.1355-6.82455.1735-10.02179 4.2313-3.26284 4.1412-9.32613 6.4505-9.58446 3.6503-.06507-.7052 2.04872-3.0225 4.6972-5.1494 5.58045-4.4814 6.08077-7.5627 2.87314-17.6961-2.99616-9.4648-1.17108-18.0991 4.62742-21.8922 1.6291-1.0658 5.37942-4.6696 8.33389-8.0086 2.95448-3.339 5.99157-6.1281 6.749-6.1979.75744-.0699 1.32771-.8604 1.26745-1.7568-.06041-.8963 2.4555-3.9324 5.59087-6.747 6.28006-5.6373 10.10513-9.4347 18.25249-18.1201 2.98533-3.1825 8.39582-8.8077 12.02343-12.5004 11.74866-11.9595 13.16871-13.6729 12.98476-15.6668-.13716-1.4865-4.05133.1111-16.11889 6.579-8.76576 4.6982-18.17843 9.8498-20.91704 11.4478-2.73858 1.5981-7.3269 4.1727-10.19637 5.7214-2.86949 1.5486-5.39959 3.9191-5.62242 5.2677-.23278 1.4086-1.57871 2.5602-3.16318 2.7064-2.4393.225-9.10107 6.231-12.67656 11.4285-.69981 1.0172-2.25793 2.932-3.46266 4.255-3.29362 3.6172-8.78378 13.727-8.59072 15.8194.09337 1.0122-.92819 3.035-2.27006 4.4952-4.52402 4.9225-7.4694 17.9094-6.48409 28.5893.76258 8.2656-2.88941 17.4783-7.08202 17.8651-2.47507.2284-2.45963-2.9242.04329-8.8442 3.04535-7.2027 2.5637-10.2691-1.3946-8.8783-1.70432.5989-3.49785.559-3.98567-.0887-1.54156-2.0465-4.31361.3719-6.13889 5.3558-1.44564 3.9471-1.42737 5.3182.10188 7.635 1.89466 2.8705 1.43681 5.7372-.95123 5.9575-2.27062.2095-5.36513-3.1308-5.63773-6.0857-.18842-2.0423-.81223-2.5617-2.23432-1.86-2.81007 1.3867-7.1941-.8021-7.46391-3.7265-.12579-1.3634-.84743-2.7867-1.60363-3.1628-1.99793-.9939-2.09401-5.2674-.2222-9.8834 1.54637-3.8135 1.49471-4.0083-1.00446-3.7777-3.23238.2982-3.69814-2.0656-.68008-3.4513 13.76367-6.3198 28.4488-22.2343 27.7278-30.0491-.42325-4.5877-2.53848-3.5842-9.22536 4.3764-4.58711 5.4611-6.72553 7.0776-8.91311 6.7383-1.73853-.2697-3.47648.4267-4.38914 1.7587-3.00312 4.3828-11.91585 10.8156-15.49974 11.187-4.21449.4368-6.94845 2.617-8.79362 7.0126-.96354 2.295-2.07241 2.9621-4.33943 2.6104-1.67479-.2598-7.59604.8887-13.15835 2.5522-5.56217 1.6636-16.83147 3.7879-25.04275 4.7207-15.62804 1.7753-18.22831 2.8138-32.87584 13.1295-2.36062 1.6626-5.43349 3.1281-6.82857 3.2568-3.45104.3184-21.35291-2.6103-38.44778-6.29-3.52229-.7581-9.54056-1.0891-13.37377-.7355-5.25574.4849-7.21889.1377-7.98353-1.4118-.83337-1.6888-2.28441-1.8041-8.14573-.6474-8.43036 1.6637-10.5657-.2709-6.31598-5.722l2.65397-3.4041-4.98509 1.2216c-2.74179.6719-5.50479 1.9869-6.14 2.9223-2.21351 3.2597-6.9438 5.6876-8.09728 4.1562-.58421-.7756-3.0757-1.4003-5.53664-1.3882-2.46079.012-5.59644-.346-6.96785-.7955-1.38115-.4527-6.42883.3079-11.31545 1.7051-7.17061 2.0502-9.88515 2.3079-14.50109 1.3766-5.52866-1.1156-5.73926-1.0436-7.95363 2.7202-1.25104 2.1264-4.19625 6.1545-6.54495 8.9514-5.25716 6.2607-9.0603 13.8194-8.73919 17.3697.13258 1.4668-.32664 3.3501-1.02044 4.1849-1.81446 2.1834 2.61794 9.971 9.58312 16.8375 3.13307 3.0886 5.74074 6.0959 5.79503 6.683.28513 3.0905 18.80014 11.9398 27.08804 12.9468 2.36314.2872 4.68029 1.0316 5.1494 1.6543 1.51182 2.0071 3.11588 1.004 3.26554-2.042.13235-2.6945.76303-2.9893 6.91222-3.2314 3.72167-.1465 7.08135-.8992 7.46612-1.6727.38476-.7735 1.89173-1.5163 3.34885-1.6507 1.45697-.1344 4.23948-1.3932 6.1833-2.7972 3.50549-2.5322 5.96835-2.3529 4.63039.3371-.57169 1.1492-7.81647 4.4687-20.85672 9.5564-3.95085 1.5415 2.60021 2.7717 13.5668 2.5478l10.91659-.223 2.58393-6.5989c1.42116-3.6295 3.90413-8.3481 5.5175-10.4858 4.03705-5.3489 1.63455-7.4932-5.46589-4.8785-4.79872 1.7671-9.43508 1.1975-7.65791-.9408.4703-.566 5.60978-1.6168 11.42106-2.3351 8.3161-1.0279 11.2911-1.9532 13.97177-4.3456 1.87331-1.6719 4.01508-3.0959 4.75936-3.1646 1.79948-.166 2.13038 4.1429.47156 6.139-1.85345 2.2301.12859 4.3003 3.7931 3.9622 1.70412-.1572 3.51415.2661 4.02227.9407.50828.6746 2.0601 1.1218 3.4488.9937 1.38855-.1281 2.60563.6451 2.70464 1.7182.09902 1.0731-.04111 1.9716-.3114 1.9965-.27044.0249-2.67394-.6388-5.34132-1.475-7.74348-2.4274-11.16817-1.536-13.66285 3.5562-2.70123 5.5139-2.58686 7.7685.38301 7.5513 1.25417-.0917 4.77984 1.3314 7.8348 3.1625 13.57934 8.1394 16.27804 7.8789 20.20085-1.9499 2.11488-5.2989 2.09459-5.6482-.71636-12.3461-2.12586-5.0654-4.10688-7.5652-7.47164-9.4285-8.64382-4.7865-5.26173-12.0801 5.23416-11.2875 6.42842.4854 11.77531 4.0756 18.05225 12.1215 4.09807 5.253 4.93738 7.4171 5.77069 14.8783.53632 4.8021.62614 10.0556.19972 11.6744-.89611 3.4014 2.02513 5.1862 8.67358 5.2995 5.85342.0997 6.71525 1.5597 1.21992 2.0666-2.58097.2381-5.10837-.119-5.61662-.7936-.50815-.6746-2.29008-1.1006-3.95987-.9465-3.15929.2915-4.76053 3.1308-3.36276 5.9631 1.0983 2.2258 14.16936 8.297 19.09853 8.8709 17.07866 1.9884 35.55475 8.3711 30.82668 10.6493-2.98225 1.437-1.33972 3.0408 4.27437 4.1736 6.84356 1.3808 17.05791 9.2014 18.83517 14.4211.71453 2.0984 3.04275 6.0157 5.17388 8.7051 6.25503 7.8939 8.50435 13.7938 7.04843 18.4887-.68565 2.2112-.69638 6.0509-.02394 8.6529 1.10018 4.258.74101 5.2405-4.0048 10.951-3.02687 3.6421-6.16652 6.1781-7.48566 6.0464-3.39335-.3388-3.90071-2.9176-.79532-4.0433 3.18069-1.153 1.88349-3.7087-1.714-3.3767-1.35305.1248-2.99979-.5063-3.65953-1.4025-.65962-.8961-4.19705-2.1282-7.86084-2.7378-3.6638-.6098-8.78907-1.7754-11.38954-2.5903-2.60046-.815-5.94135-1.835-7.42419-2.2666-5.46562-1.5913-13.56652-2.62-21.23815-2.6971-4.33306-.0435-9.09485-.4684-10.58175-.9441-1.4869-.4757-6.53903-.8481-11.22692-.8275-13.86806.0608-23.69213-.8692-26.01824-2.4631-1.80983-1.24-2.42031-1.0902-3.60218.8844-1.09845 1.8351-3.41297 2.5611-10.14533 3.1822-4.79734.4426-9.84438.3311-11.21566-.2477-1.37141-.5789-7.70726-.89-14.0798-.6915-26.89529.8378-32.55903.708-35.21053-.8067-1.53743-.8782-3.99039-1.4866-5.45101-1.3518-1.46063.1348-5.98092-.6955-10.04505-1.8449-4.0641-1.1495-9.12882-2.2401-11.2549-2.4235l-3.86539-.3335 2.98038 4.1707c1.63917 2.2939 6.68742 6.6328 11.21838 9.6419 8.91146 5.9185 14.59644 7.3291 7.06272 1.7525-2.52845-1.8716-4.21843-3.8587-3.75545-4.4158 1.24664-1.5001 10.49533 5.274 10.85214 7.9486.16879 1.2649 1.67941 2.7799 3.35692 3.3665 1.67751.5867 5.81307 2.2219 9.1901 3.6337 7.13327 2.9822 12.09051 3.0783 11.82766.2293-.23254-2.5205 1.6027-2.6627 3.95561-.3066 1.25254 1.2542 2.99669 1.491 5.38417.7309 2.74517-.8739 3.90677-.5559 5.21628 1.4282 1.84585 2.7966 5.06125 3.1503 5.65261.6218.24119-1.0313 2.17443-.4711 5.44548 1.5779 5.05321 3.1652 7.78638 2.9361 7.45781-.6253-.22601-2.4497.98155-2.4794 4.15078-.1022 1.41755 1.0633 2.70396 3.3059 2.85874 4.9836.35041 3.79819 4.24 3.80099 4.86761.0035.47994-2.9041 2.03083-3.5976 3.54637-1.5857.52878.7021 2.05275.816 3.38651.2532 1.49109-.6293 3.83826-.1085 6.0945 1.3521 2.01823 1.30649 4.78935 2.27219 6.15803 2.14589 1.36865-.1263 4.02243 1.2523 5.89726 3.0634 3.78006 3.6516 5.4433 2.8251 5.02068-2.4951-.38514-4.84989 1.79624-5.67519 4.23246-1.6013 1.11298 1.8612 2.53158 3.3371 3.15243 3.2799.62098-.0573 1.94431 1.7677 2.94076 4.0555 1.64508 3.7772 2.27763 4.1109 6.87731 3.629 5.55685-.5822 5.49867-.7722-2.19926-7.1903-4.52337-3.7714-5.99083-9.41829-2.01108-7.73839 1.32227.5581 3.62554 2.1373 5.11852 3.50939 1.49299 1.3721 3.52865 2.4196 4.52362 2.3278.99507-.0918 4.69313 1.0429 8.21787 2.5214 6.1035 2.5604 9.75659 3.2033 9.61722 1.6927-.0352-.3816-2.31677-2.5661-5.07036-4.8544-5.18282-4.30719-5.65103-7.30069-.98247-6.27949 2.58973.5664 2.59493.4806.15626-2.5848-2.44414-3.0721-2.43601-3.1785.26087-3.4274 1.79076-.1652 3.34541.8913 4.3597 2.9628 2.04767 4.182 2.03817 4.318-.31608 4.5352-3.27598.3022.22337 4.22849 5.8835 6.60129 4.10887 1.7226 5.41506 1.7696 7.39182.2661 2.04036-1.5518 3.27746-1.3397 8.23557 1.4123 8.04374 4.4647 12.89058 5.5337 14.78023 3.2599zm-49.24192-16.96699c-1.13888-1.7256-2.43332-2.211-4.06242-1.5235-1.31494.5549-3.94062.1862-5.83465-.8193-2.0059-1.0649-4.50545-1.3803-5.98632-.7553-1.56217.6592-4.02777.2425-6.39508-1.0809-2.119-1.1846-5.55248-2.9807-7.62989-3.9914-3.75879-1.8287-5.21382-4.2682-2.6849-4.5015.72962-.0673 3.83866 1.1571 6.90883 2.7209 4.28332 2.1817 5.96262 2.4634 7.21687 1.2109 1.90337-1.9008 6.22221-.5483 10.71651 3.3559 1.76469 1.5329 2.90597 1.8399 3.13893.8443.89725-3.8367 9.35533.519 9.90118 5.0989.31041 2.6052-3.46381 2.2064-5.28906-.559zm-40.80827.1246c-2.00096-1.0253-7.10006-3.5067-11.33134-5.5142-4.23116-2.0075-7.73995-4.1578-7.79723-4.7785-.22095-2.3949 2.08727-2.5579 6.39861-.452 2.46916 1.2061 5.51013 1.7622 6.75766 1.2357 3.67222-1.5496 9.49191 1.0895 8.85225 4.0142-.48827 2.2322-.01071 2.3495 4.67854 1.1493 5.73698-1.4683 6.73517-.3149 3.02998 3.5009-2.95922 3.0474-5.84056 3.2773-10.58847.8446zm-15.1238 1.1223c-1.66938-.4985-3.09731-1.5789-3.17311-2.4008-.08442-.9149 1.02495-1.2949 2.86119-.98 1.64949.2828 3.43881.4818 3.97628.4421.53746-.0398 1.05823.8057 1.15723 1.8788.20289 2.1993-.49333 2.3524-4.82159 1.0599zm-18.28585-6.2445c-2.10532-1.3134-3.87735-2.9244-3.93785-3.5802-.17812-1.9308 3.31458-1.6824 5.37655.3824 1.22347 1.2251 3.08903 1.552 5.2262.9157 3.15218-.9386 7.87265.2056 6.68236 1.6197-.30633.3639-2.57351 1.1991-5.03818 1.8559-3.38999.9035-5.4133.6129-8.30908-1.1935zm-15.03416.5627c-1.63831-.1616-3.03238-.8755-3.09799-1.5864-.17151-1.8593 8.07742-1.5461 8.89442.3376.68669 1.5834-.28301 1.7923-5.79643 1.2488zm-10.21939-2.9415c-1.63473-1.3586-1.22723-2.9477.8039-3.1351 1.07314-.099 2.03215.698 2.13115 1.7711.18741 2.0313-1.30031 2.7227-2.93505 1.364zm-8.78918-1.482c-1.07794-1.0793-1.60957-2.3839-1.18155-2.899 1.1027-1.3269 3.96815 1.3264 3.51678 3.2564-.25946 1.1094-.98064.999-2.33523-.3574zm-11.34698-1.041c-4.03232-3.7058-1.45743-4.759 2.86085-1.1703 2.80672 2.3327 3.2847 3.235 1.78661 3.3732-1.12489.1038-3.21624-.8876-4.64746-2.2029zm260.26068-37.1217c-2.98389-1.0607-6.62921-1.8613-8.10072-1.779-2.71669.1518-6.00654-1.8306-6.1813-3.7249-.12811-1.3886 5.53242-1.8567 7.22554-.5976 1.22183.9085 7.54819 2.0921 16.95289 3.1717 2.00539.2302 3.72611 1.2854 3.82387 2.3449.24882 2.6971-6.91878 3.0026-13.72028.5849zm17.79165-6.2217c-4.22281-.5417-6.70087-1.5359-6.8113-2.7328-.18204-1.9732 1.19695-2.1653 10.68533-1.4882 3.14787.2247 5.6787 1.121 5.76359 2.0412.23252 2.5201-2.37928 3.1108-9.63762 2.1798zm-9.1023-13.3462c-8.4668-1.1643-8.64067-1.2331-8.85028-3.5048-.16652-1.8051.62111-2.0751 4.76855-1.6349 2.73241.29 6.70585.4992 8.82981.4649 2.12397-.0343 4.13268.5548 4.46398 1.309 1.0599 2.4138-3.64195 4.1317-9.21206 3.3658zm-85.09441-19.4352c-8.55833-.8579-10.00652-1.3918-8.54511-3.1504 1.5886-1.9115 17.69575-.4132 17.22434 1.6022-.46235 1.9773-1.87876 2.2299-8.67923 1.5482zm-15.03581-6.5648c-5.54809-1.0659-8.11341-2.6273-8.33927-5.0755-.21982-2.3827 2.96326-2.5784 5.21773-.3207.98965.9909 3.0403 1.6393 4.55708 1.4408 2.56942-.3364 2.5261-.445-.63546-1.5915-13.20786-4.7896-20.72379-11.3409-21.39831-18.652-.34781-3.7699-1.31484-5.4899-4.10124-7.2936-2.29546-1.486-3.4258-3.1434-3.05125-4.4739.32725-1.1624-.47667-3.4605-1.78653-5.1069-1.30984-1.6464-2.17618-4.2358-1.92523-5.7543.2841-1.7196-.58696-3.6277-2.31019-5.0598-2.27651-1.892-4.27132-2.0971-11.26667-1.1589-8.18116 1.0973-8.66073.9911-12.76608-2.8294-3.51141-3.2677-4.28275-4.9182-4.36219-9.3343-.13207-7.3481 2.89304-8.5093 3.55229-1.3636.38185 4.1387 1.39044 6.1017 4.39715 8.5585l3.90164 3.1879.15054-3.0904c.12176-2.5024.70229-2.9725 3.05159-2.4713 8.34809 1.7813 8.89922 1.6481 8.55634-2.0685-.48945-5.305 5.57406-13.4971 13.42978-18.1444 7.0641-4.179 11.2675-5.3387 12.65812-3.4925.43276.5745-2.63778 2.4363-6.8233 4.1372-6.91147 2.8087-14.73842 9.6831-14.46008 12.7003.16023 1.7367 2.06377 1.0194 4.51512-1.7014 2.6433-2.934 12.8763-6.4527 23.8876-8.214 8.79873-1.4074 12.56603-1.0308 12.77899 1.2775.11395 1.2351 2.2903 1.278 8.65918.171 7.96252-1.384 8.73138-1.2774 12.01335 1.6664 1.92847 1.7298 4.77046 3.0284 6.31537 2.8859 3.52662-.3254 1.74918 1.8325-2.74727 3.3354-2.54046.8491-4.04155.3861-6.56144-2.024-3.10071-2.9653-3.7138-3.0415-12.00456-1.4928-8.16709 1.5256-8.80096 1.4558-9.71638-1.0696-.77653-2.142-1.58426-2.4567-3.89948-1.5193-1.60604.6502-5.52578 1.7325-8.71051 2.4051-7.44159 1.5716-13.62859 5.0751-14.1559 8.0161-.33489 1.8672.19318 5.906 1.20957 9.2515.08631.2842 1.17435-.5902 2.41762-1.943 1.59024-1.7303 2.45851-2.0094 2.92751-.9413.51268 1.1677 1.28966 1.1076 3.36145-.2599 1.78433-1.1777 3.51225-1.4326 5.11501-.7545 1.33126.5632 6.16219 1.3961 10.73547 1.8509 4.5733.4548 8.79639 1.4392 9.38466 2.1875 1.95966 2.4931 10.55498 3.7507 19.80232 2.8975 11.66563-1.0762 17.13167-3.4107 15.90552-6.7931-.4911-1.3546-.34966-2.513.31426-2.5743 1.92695-.1777 7.37402 4.4926 7.55733 6.4797.41022 4.4463-17.29963 13.7712-24.13918 12.7101-1.84646-.2864-3.63638.1437-4.04894.973-1.68375 3.3852 17.43648.6694 23.85502-3.3883 4.28832-2.7109 6.32698-2.9021 6.53815-.6132.25209 2.7323-22.20268 10.8456-24.57068 8.8777-.73239-.6087-3.06781-.5897-5.1899.0422-3.23253.9625-3.75642.7865-3.22962-1.0849.48109-1.7088-.12593-2.1642-2.58216-1.9376-1.89728.1751-3.14189 1.0473-3.04184 2.1318.22224 2.4088-6.35336 9.0073-10.38919 10.4255-1.74622.6136-6.21242.4351-9.9249-.3966-8.2979-1.859-10.40312-1.7178-10.18162.6829.28491 3.0881 7.36506 6.2498 14.70814 6.5679 3.80312.1648 6.96371.83 7.02352 1.4783.0598.6483-.61772 1.3029-1.50559 1.4547-3.99408.683-11.8461.6598-15.57004-.046-3.44916-.6537-3.81432-.5095-2.37057.9362 2.52763 2.531 11.92611 6.431 21.64588 8.9821 6.85139 1.7982 10.56368 1.9753 18.44684.88 8.11151-1.127 9.90145-1.0237 10.04939.5799.15046 1.6307-2.80727 2.2641-18.00983 3.8566-10.00444 1.0479-20.29329 1.5012-22.86413 1.0072zm10.45424-32.4308c1.19146-.7715 2.11419-1.9674 2.05052-2.6576-.18208-1.9736-2.37757-1.2585-3.00766.9795-.35698 1.268-2.27909 2.178-5.16221 2.444-2.52633.2331-4.53521 1.0557-4.46395 1.8279.13954 1.5127 6.73917-.1048 10.5833-2.5938zm-23.95192-.1188c-.3203-3.4719-4.0677-6.2776-7.91105-5.923l-3.21445.2965 4.05253 4.2175c4.48567 4.6682 7.42776 5.2543 7.07297 1.409zm8.16204-3.5796c-1.02159-2.421-.66486-2.6393 4.47959-2.7418 6.09265-.1214 7.63052-1.9669 4.09066-4.9088-2.93499-2.4391-2.85482-3.2622.34661-3.5575 1.47298-.1359 2.35237-.6796 1.95428-1.2082-.39825-.5286-3.2536-.7079-6.34538-.3985-4.82417.4829-5.64212.9832-5.76707 3.5277-.08016 1.6308-.62763 3.0096-1.21675 3.0639-1.89288.1746-2.31264 4.2599-.69035 6.7179 2.12327 3.2169 4.55361 2.835 3.14841-.4947zm-7.65458-12.2489c-.11986-1.2989-1.735-1.8081-5.12024-1.6139-5.08451.2916-6.83048 1.6176-5.12013 3.8884 1.4951 1.9849 10.44983-.004 10.24037-2.2745zm-29.08841 43.7395c-2.37242-.7119-2.4317-4.1542-.07538-4.3716 1.08406-.1 2.05783.9762 2.19116 2.4215.13201 1.4308.08941 2.5688-.09465 2.5288-.18405-.0399-1.09357-.3004-2.02113-.5787zm-13.71079-17.0861c-5.90412-3.399-6.86336-5.0718-3.10729-5.4183 3.97981-.3672 10.91789 3.1643 10.68994 5.4412-.2997 2.9936-2.35382 2.9874-7.58265-.0229zm119.89044-11.7362c.22647-.9835 1.73019-2.1071 3.34138-2.4968 1.99063-.4815 2.79771-.1355 2.51782 1.0795-.2266.9835-1.7302 2.1071-3.3415 2.4968-1.99049.4815-2.79758.1355-2.5177-1.0795zm-168.24048 13.7715c-.18841-2.0422 2.03054-2.7079 5.63988-1.6918 3.51758.9902 2.61228 2.8982-1.55758 3.2829-2.60151.24-3.96228-.2903-4.0823-1.5911zm153.43736-14.7288c-.20396-2.2106.57198-2.7595 4.40051-3.1127 3.72369-.3436 4.60404.0317 4.42682 1.8873-.14578 1.5254-1.64804 2.588-4.40052 3.1127-3.49298.6659-4.21986.356-4.42681-1.8873zm61.89852-4.4819c.79366-1.5954 7.50518-2.2146 12.35722-1.1401 2.48099.5494 1.22575.9711-4.84655 1.6282-5.16234.5587-7.94147.378-7.51067-.4881zm-288.70466 20.2275c-10.68267-1.5062-16.04116-3.2429-16.22719-5.2593-.15989-1.733 1.4123-1.7136 4.63276.0572 5.55802 3.0562 15.26006 3.7728 27.07507 1.9997 10.1808-1.5278 13.93662-1.1662 10.88519 1.048-3.1189 2.2633-17.34761 3.4259-26.36583 2.1544zm-9.26917-8.0454c-3.63937-.6409-6.12942-2.4516-6.32777-4.6016-.19062-2.0662 5.70108-3.0202 7.10888-1.1512.50825.6746 4.98678.8518 9.95256.3937 8.52533-.7866 11.67905.288 7.25408 2.4716-3.03728 1.4987-14.98365 3.4164-17.98775 2.8875zm283.88986-37.0868c-1.03091-1.3685 6.11875-9.6834 8.57097-9.9677 1.78261-.2067 2.35875 2.2562 1.04974 4.4864-.87311 1.4877-7.03276 6.5218-8.10043 6.6203-.34067.0314-1.02472-.4811-1.52028-1.139zm-255.15353 22.1085c-1.50914-2.0035-.04016-3.0148 7.84364-5.3998 10.75082-3.2524 12.73636.2124 2.44886 4.2734-6.425 2.5363-9.01685 2.8199-10.2925 1.1264zm92.13504-9.681c-4.13943-1.2778-9.5341-7.9609-8.69106-10.7671.63788-2.1235.83674-2.1181 2.42435.0663 2.89652 3.9854 8.17958 7.6801 11.19547 7.8295 1.57088.0778 2.9102.7268 2.9762 1.4422.15937 1.7275-4.31657 2.5366-7.90496 1.4291zm-57.26883 2.6787c-.53968-.7164-.14612-1.7146.87446-2.2182 2.72309-1.3437 9.28801-.9613 9.42737.5492.16486 1.7868-9.08437 3.2853-10.30183 1.669zm72.6677-15.6218c-.23725-2.9853 2.96965-7.4742 7.23355-10.1255 4.66512-2.9007 6.26163-1.038 2.39606 2.7955-1.73297 1.7186-3.71038 4.5046-4.39436 6.1911-1.47234 3.6308-4.97676 4.3932-5.23525 1.1389zm-155.02463 14.4035c-2.684-.4521-4.44124-3.5565-2.7391-4.8387.67475-.5082 2.0826-.3376 3.12854.3791 1.12742.7725 6.20108.8138 12.45904.1014 10.74207-1.2227 13.94253-.6825 10.70741 1.8072-1.78572 1.3743-19.28921 3.2699-23.55589 2.551zm262.13622-27.94c-.48-.9726.30323-2.765 1.74053-3.983 3.12267-2.6464 3.52986-2.4685 2.91179 1.2716-.57265 3.465-3.45232 5.1433-4.65232 2.7114zm-248.67779 18.9174c-2.08399-1.732-1.10482-2.7797 3.60697-3.8595 2.64963-.6072 7.09433-2.0197 9.8771-3.1389 13.43323-5.4024 18.46122-4.2406 7.03714 1.6261-7.16863 3.6815-18.86972 6.7447-20.52121 5.3723zm21.06524-13.7201c-2.48222-2.0629 1.13775-3.2776 13.04022-4.3757 7.16629-.6611 13.26298-.6431 13.778.0407.58735.7797-3.01358 1.5964-9.88237 2.2415-5.94359.5582-11.96265 1.4429-13.37577 1.9659-1.41313.5231-3.01508.5805-3.56008.1276zm313.10919-39.3153c.34465-.4148 2.55796-1.4854 4.91841-2.3792 3.9284-1.4875 4.09288-1.4437 1.94293.5171-2.13777 1.9497-8.33103 3.6305-6.86134 1.8621zm13.06044-7.6032c1.8441-1.9077 3.92099-3.1859 4.61546-2.8405 1.56548.7787-3.51479 5.8981-6.0886 6.1356-1.15118.1062-.58016-1.1709 1.47314-3.2951zM422.3217 577.91061c-1.69314-2.2478-21.08472-7.90769-20.91846-6.10559.10372 1.1242 7.86084 4.87489 13.0443 6.30729 5.17433 1.4297 9.0287 1.331 7.87416-.2017zm81.17944-8.54449c-.15901-1.7237-4.98868-6.8953-9.14501-9.7924-2.18037-1.5198-3.73615-3.5738-3.45722-4.5645.69745-2.4775-4.72372-5.3259-9.32803-4.9011-4.31645.3982-13.58429-2.8922-19.01296-6.7502-2.01456-1.4317-5.13084-5.2369-6.92503-8.4562-2.9517-5.2958-8.80314-9.4252-10.4862-7.4001-1.4476 1.7419 3.27406 12.0732 8.23819 18.0256 5.38098 6.4521 8.02353 7.702 14.99471 7.0919 2.68504-.2351 5.30773 1.0045 9.05312 4.2786 2.90019 2.5353 6.73532 5.2268 8.52277 5.9812 1.78731.7544 4.421 2.6077 5.85253 4.1185 1.43166 1.5107 4.22209 2.842 6.20111 2.9585 1.97902.1164 4.04532.2589 4.59178.3166.54644.0577.95157-.3502.90024-.9064zm47.16459-5.9887c1.08256-1.2255-11.1436-4.1547-15.83741-3.7943-1.48186.1137-3.90994-.5478-5.39553-1.47-1.48561-.9223-3.78907-1.5764-5.11871-1.4538-3.60674.3328-.64148 3.9444 4.98956 6.0772 2.51557.9528 4.47712 2.5024 4.35905 3.4435-.16702 1.3308 1.58345 1.3401 7.87487.0421 4.44926-.918 8.55697-2.1981 9.12817-2.8447zm-68.44588 3.6003c-.71311-1.0848-3.46515-3.3309-6.11565-4.9912-2.65065-1.6603-5.68013-3.7342-6.73222-4.6086-2.64163-2.1954-8.88525-3.0139-9.74871-1.2779-.67481 1.3565 7.25861 8.4816 9.2402 8.2988.52486-.0484 1.69279 1.2031 2.59533 2.7812 1.32717 2.3203 2.63755 2.7641 6.84926 2.3197 4.352-.4591 4.99513-.8738 3.91179-2.522zm79.95497-12.1716c.57569-2.4651-3.34474-1.6933-4.04565.7965-.41576 1.4771.04706 1.9307 1.52906 1.4988 1.16889-.3407 2.30136-1.3735 2.51659-2.2953zm5.78795-4.7974c-.50813-.6747-1.50922-1.1726-2.22463-1.1066-.71542.066-.88504.672-.37689 1.3466.50825.6746 1.50936 1.1726 2.22477 1.1066.71541-.066.88502-.672.37675-1.3466zm-2.40055-4.6912c-.033-.3577-.87079.1593-1.86175 1.1489-.99096.9896-1.77475 2.092-1.74175 2.4497.033.3577.87079-.1593 1.86175-1.1489.99097-.9896 1.77475-2.092 1.74175-2.4497zm-290.10021 26.4297c-.066-.7155-1.03247-1.2166-2.14787-1.1137-1.11528.1029-1.61215.7391-1.10403 1.4137.50827.6746 1.47475 1.1758 2.14803 1.1136.67313-.0621 1.16988-.6982 1.10387-1.4136zm147.86669-18.2335c-.09901-1.0731-.70268-1.9029-1.34159-1.844-.63881.059-1.4175 1.0163-1.73029 2.1274-.3464 1.2306.17793 1.9514 1.34157 1.844 1.05077-.0969 1.82931-1.0543 1.73031-2.1274zm144.03927-18.8788c-2.58456-3.9159-6.57887-6.2099-8.41044-4.8303-2.69813 2.0323 2.39974 7.6952 6.58025 7.3095 2.71691-.2507 3.02532-.6685 1.83019-2.4792zm-156.27346 8.5568c1.27864-1.4361 1.04073-1.9615-1.30535-2.883-2.07468-.815-2.98209-2.355-3.27815-5.564-.36798-3.9887-.87984-4.5088-5.06618-5.1462-10.15539-1.5464-12.23147-1.4866-13.15948.3789-1.21116 2.4349 1.26111 3.6504 6.49457 3.1931 5.18714-.4533 8.34379.4082 8.52176 2.3258.09033.9734-2.23197 1.5767-6.72592 1.7472l-6.864.2604 4.2058 2.9299c2.3132 1.6115 5.7813 2.7875 7.70674 2.6134 1.92558-.1741 3.91668.2355 4.42483.9101 1.24392 1.6514 3.15114 1.362 5.04538-.7656zm159.24025-17.2395c-.2256-2.4454-4.67428-5.9032-7.2849-5.6624-3.16513.292-2.91351 1.5181.96535 4.7049 3.50627 2.8805 6.53937 3.3401 6.31955.9575zm-182.90355 15.878c.35025-.704-.00218-1.5978-.78314-1.9862-.78082-.3884-1.15903-1.2302-.84044-1.8707.31857-.6405-.13531-2.624-1.0088-4.4077-1.11499-2.2773-2.54323-3.1551-4.79523-2.9473-1.7641.1628-3.59312-.2163-4.06477-.8424-1.18954-1.5793 3.63283-3.4158 7.02265-2.6743 2.52147.5515 2.61979.3491 1.01308-2.0852-2.58367-3.9146-1.05817-4.707 5.69675-2.9591 4.58866 1.1873 5.93776 1.1634 5.82092-.1032-.32454-3.5178-16.38331-6.1194-17.97845-2.9126-.98541 1.9812-5.31195 2.1051-6.26215.1794-.6925-1.4033-8.21666-2.7173-20.95142-3.6588-1.81617-.1343-8.55411-.8366-14.97321-1.5608-6.41909-.7241-11.92255-.8113-12.22972-.1937-1.1152 2.2421-4.6489 1.4174-8.45822-1.9742-2.16243-1.9251-5.60453-3.5034-7.74087-3.5492-2.46576-.0529-4.40502-1.0909-5.40108-2.8908-1.84744-3.3385-9.73573-3.5699-8.09125-.2374.51069 1.0351.36173 1.9344-.33119 1.9983-2.38507.22-.92442 3.7157 1.73627 4.1554 1.89004.3123 2.76522 1.5342 3.01153 4.2042.19101 2.0702 1.06075 4.3568 1.93268 5.0814.87179.7246 2.37098 2.5776 3.33153 4.1177 2.37426 3.8076 18.60174 11.2854 23.50782 10.8328.97168-.0897 2.22147.4409 2.77746 1.1791.55609.7381 2.45225.9263 4.21387.418 2.40741-.6945 3.42669-.3064 4.10435 1.563.65267 1.8005 1.64927 2.2243 3.61025 1.5352 1.48981-.5235 6.87437-.4737 11.96571.1105 5.09133.5842 10.74983.9245 12.5744.7562 1.82458-.1683 3.92381.1889 4.66503.7938.74126.6049 3.71063 1.1172 6.59862 1.1384 2.888.0212 6.24984.0457 7.47064.0544 1.22095.0086 2.50627-.5603 2.85638-1.2642zm-22.07385-5.2531c-3.2132-1.3962-3.06418-1.4731 2.50434-1.2932 7.75612.2507 10.78289 1.5458 5.23191 2.2386-2.37579.2965-5.85717-.1289-7.73625-.9454zm-9.00696-1.9455c.39237-.4721 1.51001-.6218 2.48358-.3327 1.07607.3195.79622.6562-.71328.8584-1.36606.183-2.16266-.0536-1.7703-.5257zm-19.50091-1.3438c-2.70466-.8779-2.70466-.8779-.10312-1.1179 1.43083-.132 3.81859.155 5.30616.6379 2.70465.8779 2.70465.8779.10314 1.1179-1.43083.132-3.81861-.155-5.30618-.6379zm-9.99571-1.7015c-.15174-1.6447 2.50636-1.8899 5.20305-.48 1.61109.8423 1.27831 1.1582-1.5078 1.4309-1.96639.1924-3.62925-.2355-3.69525-.9509zm19.27138-4.4016c-1.78173-.9315-1.76372-1.1117.13028-1.3037 1.20883-.1226 2.61351.3291 3.12163 1.0037 1.16934 1.5524-.55261 1.7112-3.25191.3zm-18.45065-.9214-7.23506-.2167 6.49266-.7206c3.57099-.3964 7.70979-.3256 9.19735.1573 3.04911.9896 1.94552 1.0915-8.45495.78zm28.25672-6.5424c-.14248-1.5442 2.11733-1.7527 5.85342-.5401 2.26662.7357 2.0213.9559-1.5144 1.3594-2.32047.2648-4.27302-.1039-4.33902-.8193zm-26.24758-.1186c-6.11827.1578-10.50174-.2048-9.7411-.8056 1.47363-1.1641 26.33779-1.4916 27.69362-.3648.44229.3675-.91315.7167-3.01213.7759-2.09899.0593-8.82215.2368-14.94039.3945zm153.59183 8.2744c-4.28025-2.0845-12.25943-4.3433-14.58453-4.1288-.73609.0679 1.12139 1.6511 4.12784 3.5182 3.60304 2.2376 7.01901 3.2622 10.02175 3.006l4.55556-.3887-4.12062-2.0067zm-174.04513 11.7547c-.07304-.7917-3.26773-3.8913-7.09925-6.888-4.23663-3.3135-7.40324-6.9504-8.08094-9.2812-.61297-2.108-2.30903-7.5596-3.76904-12.1147-3.20821-10.0088-5.41075-30.2778-4.37527-40.2631 1.21771-11.7429 1.20943-15.8536-.03161-15.7391-.64076.0591-1.93861 2.2199-2.8842 4.8018-.9456 2.5819-2.27881 5.1158-2.96286 5.6311-.68408.5152-.81753 1.9466-.29662 3.1808.5208 1.2343.3711 5.7499-.33277 10.0347-.75802 4.6151-.75942 13.4299-.00328 21.6258 1.30704 14.1671 2.5843 17.7409 9.12134 25.5235 1.493 1.7775 2.80556 4.2197 2.91696 5.4273.2482 2.6899 5.44037 8.3612 8.50886 9.2938 3.62482 1.1018 9.43293.331 9.28868-1.2327zm264.87409-24.6249c.89067-1.5349.89216-2.9237.00725-6.633-.13579-.5689-1.50524.7346-3.04332 2.8965-1.53807 2.162-2.48226 4.3481-2.09805 4.8581 1.08472 1.44 4.01967.7988 5.13412-1.1216zm-287.92843 24.1776c-1.11628-1.4819-6.86762-.9503-7.69414.7112-.35055.7047 1.00141 1.339 3.00426 1.4095 4.31551.1518 5.87162-.5518 4.68988-2.1207zm-32.6004-4.8265c-1.71377-1.0607-5.73874-2.2794-8.9444-2.7082-5.79304-.7748-5.8146-.7639-3.52952 1.7886 1.26452 1.4124 2.72524 3.5395 3.24606 4.7269.57064 1.3011 3.12769 2.3906 6.43591 2.7421 4.8809.5187 5.51225.295 5.69837-2.0187.12379-1.5375-1.06533-3.3911-2.90642-4.5307zm14.09357 2.6891c-.18283-1.9816-1.15303-3.3007-2.52718-3.4362-1.72304-.1698-2.11967.6967-1.74318 3.8078.60842 5.0278 4.73537 4.6686 4.27036-.3716zm-29.38713 1.3993c-.066-.7154-.68244-1.2488-1.37002-1.1854-.68758.0635-2.52577-1.0235-4.08487-2.4153-3.06214-2.7336-6.86176-1.9291-6.55572 1.3881.10109 1.0956-.83246 2.1744-2.07452 2.3973-1.24208.223.4135.5719 3.67907.7754 9.14937.5701 10.53543.4423 10.40606-.9601zm43.72316-8.7826c.29096-.3454-.66545-2.2817-2.12543-4.3027-1.60261-2.2188-3.39739-7.8844-4.52989-14.2998-1.87532-10.6237-1.8761-10.6252-5.8171-10.6905-2.16783-.0359-4.54743-.5542-5.28801-1.1519-.74056-.5976-3.24352-.9116-5.56213-.6977-2.31874.2139-4.63149-.163-5.13976-.8377-.50813-.6746-4.2563-.9332-8.32938-.5746-4.07295.3585-9.80284.2612-12.73289-.2162-8.4786-1.3816-36.73976-1.4765-37.98931-.1275-.62334.673-2.72379 1.3703-4.66765 1.5497-6.59798.6087-14.80861 6.1156-16.34072 10.9599-1.37602 4.3505-1.29226 4.5375 3.68249 8.2204 2.79968 2.0728 5.56253 3.7364 6.13964 3.697.57711-.0393 3.7203.8597 6.98498 1.9979 3.26469 1.1381 8.19927 2.1875 10.96572 2.3317 5.03478.2626 15.42449 1.2011 24.33131 2.1979 2.60783.2918 5.51601.9159 6.46278 1.3868.94678.4709 4.12648-.0628 7.06603-1.1861 4.62741-1.7682 6.30376-1.7757 12.49015-.0561 5.58673 1.553 7.63082 1.617 9.37074.2936 1.81826-1.383 3.07664-1.1277 6.87932 1.3955 3.7567 2.4928 5.51829 2.8616 9.13698 1.9133 2.46567-.6461 4.72116-1.4574 5.01213-1.8029zm124.14648-17.6122c.29246-2.9671-8.4459-9.9841-14.98669-12.0346-5.94156-1.8625-6.98203-.8875-2.90465 2.7219 3.72839 3.3007 2.95682 4.8538-1.75944 3.5418-2.93742-.8171-3.17612-.7013-1.66746.8092.96811.9696 3.65958 1.9958 5.9809 2.2806 2.3213.2848 5.77087 1.7987 7.66556 3.3644 3.86637 3.1949 7.31985 2.8873 7.67178-.6833zm-27.53516-1.5449c1.1237-1.6399.05099-2.6824-5.94786-5.7803-8.13636-4.2016-21.20274-9.518-22.98814-9.3533-.63545.0586-4.65645-1.12-8.93556-2.6193-6.7029-2.3485-8.32203-2.4716-11.69268-.889-5.11833 2.4032-5.64233 2.394-5.87272-.103-.14599-1.5823-.89767-1.8114-3.03702-.9257-6.94532 2.8757-8.98767 2.9913-15.49225.8771-5.87542-1.9097-7.43287-1.9599-10.51197-.3384-4.99419 2.6299-4.55322 6.919.66177 6.4379 2.10411-.1942 4.2093.1565 4.67841.7792 1.73725 2.3065 8.55624 2.1209 12.39782-.3374 4.28121-2.7395 5.42236-1.0931 2.21053 3.1888-1.7596 2.3458-1.63389 2.5396 1.9117 2.9474 2.08723.2401 7.10084 1.0766 11.14131 1.8589 4.04047.7823 10.88163 1.3506 15.20258 1.2628 4.32093-.0877 8.4618.3252 9.20189.9176.74009.5925 3.50605.8779 6.14646.6343 2.64054-.2436 7.45935.4795 10.70848 1.6069 7.09836 2.4629 8.43169 2.4415 10.21725-.1645zm5.92494-7.7148c-.1063-1.1523-3.30612-2.459-5.52146-2.2546-.63436.0585-.7356.9534-.22478 1.9885.98728 2.0006 5.92737 2.2294 5.74624.2661zm184.66699-24.0646c-1.53133-4.8974-.87426-4.2819-5.2432-4.9118-1.96609-.2836-3.88353.1054-4.26108.8644-.37759.759.24452 1.2941 1.38231 1.1891 1.13777-.1049 2.52835.7999 3.09029 2.0107 2.89904 6.2481 6.93277 6.9276 5.03168.8476zm-187.28699 14.0612c-1.65943-.7317-4.37892-1.2257-6.04335-1.0977-4.62851.356-2.75518 4.6675 1.99639 4.5949 2.05774-.0315 4.10306.2435 4.54549.6111.44228.3676 1.18991-.107 1.66131-1.0547.54112-1.0881-.25484-2.2136-2.15984-3.0536zm182.56102-28.6495c-3.03838-4.4056-10.98757-11.1185-12.99767-10.9761-.53763.0381-.8965.9472-.7975 2.0203.09902 1.0732-.48051 2.0121-1.28802 2.0866-2.40692.2221 10.67388 9.3976 13.15447 9.2273 1.25467-.0862 2.33524.4287 2.40124 1.1441.06601.7154.69534 1.2477 1.39865 1.1828.70321-.0649-.13884-2.1731-1.87117-4.685zm-292.26933 23.1749c.18953-3.3304.13953-6.1989-.1111-6.3744-.25075-.1755-3.33061-.3625-6.84414-.4157l-6.38836-.0966 1.19451 4.6647c1.26313 4.9324 5.63986 8.846 9.4948 8.4904 1.74706-.1612 2.39365-1.6882 2.65429-6.2684zm50.88458-2.4878c6.17409-4.134 13.73932-14.7299 14.12811-19.7879.19538-2.5433.66132-6.5533 1.03516-8.9111 1.24125-7.8276-6.07854-22.0498-12.7385-24.7505-5.29536-2.1473-6.46785-1.921-3.0327.5856 5.35362 3.9064 7.82071 8.3321 8.60237 15.431.88989 8.0829-.07644 12.149-4.34769 18.2927-3.2708 4.7047-8.14406 8.2248-13.94222 10.0706-3.61011 1.1492-15.53104-1.8701-16.63656-4.2137-.67155-1.4236-7.60203.4909-7.45727 2.06.0583.632.93863 1.0723 1.95635.9784 1.01759-.0939 2.72135 1.8295 3.78619 4.274 3.75551 8.6225 19.71773 11.9495 28.64676 5.9709zm-68.23732 2.5692c.16742-6.3028-1.66038-11.3254-4.04155-11.1057-1.24262.1147-1.79566 1.8512-1.67062 5.2453.10292 2.7907-.09877 5.4179-.44816 5.8382-.72202.8689 3.61183 5.1767 5.07246 5.0419.52628-.0485 1.01578-2.3074 1.08787-5.0197zm298.47845-39.0195c-7.03322-5.053-10.13483-5.6109-18.44504-3.3175l-6.61735 1.8262 9.90894.9274c5.44984.5101 12.05932 1.7664 14.68773 2.7919 6.76055 2.6378 6.82287 2.3393.46572-2.228zm-280.13656 24.2089 3.08526-3.8921-11.31875.8572c-10.89422.8251-11.19211.9264-7.94299 2.7006 1.85663 1.0138 4.05949 2.4957 4.89523 3.293 2.67206 2.5493 8.02892 1.1444 11.28125-2.9587zm36.00043-4.3475c-.22546-2.4434-4.94229-3.8556-8.98366-2.6896-3.81325 1.1001-3.60883 4.1891.30269 4.5748 6.40597.6316 8.8639.0978 8.68097-1.8852zm261.11807-56.188c-.066-.7154-.73982-1.2436-1.49751-1.1737-.75757.0699-.96176.6791-.45364 1.3537.50827.6746 1.18208 1.2028 1.49765 1.1736.31543-.0291.51951-.6382.4535-1.3536zm-23.12332-1.8022c.37624-.7562.09864-1.3209-.61678-1.2549-.71543.066-1.60851.7387-1.98476 1.4949-.37612.7562-.09851 1.3209.61689 1.2549.71543-.066 1.60852-.7387 1.98465-1.4949zm11.32652-4.3663c2.20182-2.0086 2.04835-2.115-2.45254-1.6997-4.52506.4175-5.80659 1.6092-3.65413 3.398 1.46836 1.2204 3.53834.6447 6.10667-1.6983zm-374.20008 16.9382c-.13345-1.4465 9.06582-18.1804 12.05191-21.9231 7.24579-9.0815 9.8651-13.6504 10.14412-17.6944.1739-2.5216.74812-4.91 1.27592-5.3076.52794-.3976.22348-2.6709-.67663-5.0519-.89998-2.3809-1.5418-4.8259-1.42625-5.4334.11554-.6074-.76176-2.343-1.94957-3.8568-1.76823-2.2538-3.33967-2.6419-8.67474-2.1426-7.13354.6676-12.69518 4.1427-15.51591 9.695-.91592 1.803-3.14501 5.8978-4.95365 9.0997-1.80865 3.2019-3.48786 8.6144-3.73152 12.0277-.62419 8.7432.43407 19.8994 1.87492 19.7665.66729-.0616 1.74356 1.1674 2.39182 2.731 2.44284 5.8917 9.56526 12.1619 9.18958 8.0899zm-3.60245-10.6092c-.21274-2.3058 2.28066-8.8892 3.19444-8.4347.6304.3136 1.46648-.0741 1.85811-.8614.39149-.7872.24423-1.226-.32727-.975-2.372 1.0415-2.18266-1.4749.76807-10.2051 2.94781-8.722 8.41557-15.858 12.43726-16.2319 3.12137-.2902 3.35144 4.2753.39471 7.833-1.29883 1.5628-2.30701 3.5744-2.24038 4.4701.06664.8958-.84905 3.1649-2.03475 5.0424-1.76315 2.7921-2.53271 3.1557-4.22491 1.9961-1.66824-1.1431-2.1871-.9983-2.67845.7471-1.07229 3.8093-.43065 4.9428 1.63465 2.8876 1.11838-1.113.49561 1.3223-1.41821 5.5455-1.87676 4.1414-4.28985 7.8017-5.36232 8.1339-1.07246.3323-1.97296.3558-2.00095.0524zm-6.03954-8.5896c-.01637-.1788.42858-5.032.98875-10.7848 1.0799-11.0895 3.59461-17.7107 7.9673-20.9772 4.05877-3.0319 6.39751-.4824 4.01368 4.3752-3.89976 7.9461-7.12217 17.5479-7.4804 22.289-.28337 3.7494-.99264 5.0109-2.91699 5.1885-1.39845.129-2.55597.0882-2.57234-.0907zm347.39905-12.9543c-1.29608-.213-3.05009-.0293-3.89783.4082-.84773.4376.21255.6119 2.35637.3874 2.14381-.2245 2.83754-.5825 1.54146-.7956zm-61.16984 1.4456c-.12495-1.3543.61974-2.8803 1.65487-3.3911 2.40291-1.1857 2.22768-3.6666-.24286-3.4387-2.46677.2276-5.45921 5.5524-4.36559 7.7685 1.25545 2.5441 3.21736 1.9206 2.95358-.9387zm68.65941-10.2055c8.61385-5.4178 8.16178-7.9132-1.06167-5.8611-3.64747.8116-8.13481 2.4173-9.97183 3.5682-2.13059 1.335-3.67334 1.6502-4.26054.8706-1.42483-1.8915-4.6909-1.1095-4.48937 1.075.10803 1.1709 1.38088 1.8403 3.18334 1.674 1.65184-.1524 4.21885.4775 5.70444 1.3998 3.47838 2.1593 2.89588 2.3051 10.89563-2.7265zm-65.50644-2.9968c1.46951-1.0268 5.01156-2.1005 7.87126-2.386 2.85968-.2856 5.80388-1.0086 6.54248-1.6069 1.94154-1.5723 3.84684-6.6444 3.58048-9.5314-.12612-1.367.90836-3.715 2.2988-5.2177 2.85707-3.0879 13.51019-22.4942 13.34299-24.3065-.24699-2.6772-6.51654 4.7234-11.70178 13.8128-4.73387 8.2982-10.10931 15.0101-20.41908 25.4958-1.15433 1.1741-3.73773 2.2859-5.7409 2.4707-4.14175.3821-6.57211 2.7033-6.26913 5.9875.22074 2.3926.49369 2.2699 10.49488-4.7183zm58.91073-3.6483c2.19581-1.939 2.16999-2.0354-.71402-2.6662-3.67126-.803-7.65971 2.3969-4.80789 3.8574 2.41616 1.2373 2.8868 1.1358 5.52191-1.1912zm9.42992-7.6448c4.76792-.9377 9.25349-2.5685 9.97967-3.6283 2.61534-3.817-4.34699-3.5162-21.34288.9222-4.47906 1.1697-5.88235 3.2979-3.48709 5.2886.56262.4675 2.18541.4609 3.60619-.0146 1.42092-.4756 6.4807-1.6311 11.24411-2.5679zm-101.68624-4.1646c3.63033-3.663 7.12337-7.3924 7.76231-8.2874 1.06923-1.4978 13.52165-13.8002 22.34034-22.0711 3.35309-3.1448 3.49536-3.6501 1.49493-5.3126-2.00044-1.6625-2.78411-1.3537-8.23862 3.247-8.76897 7.3965-25.97734 28.0594-26.57465 31.9094-.35825 2.3096-1.40522 3.3859-3.47941 3.5773-2.99045.2759-5.88932 2.7245-5.69675 4.8118.2095 2.2706 5.95708-1.3816 12.39185-7.8744zm44.73954-2.4197c6.69443-8.7131 11.17677-17.1614 10.85926-20.4678-.15814-1.6473-1.62654-3.2164-3.70245-3.9563-3.1282-1.115-3.3456-1.0016-2.39524 1.2502.62221 1.4745.12221 4.4316-1.23566 7.308-1.25441 2.6573-2.2083 5.5289-2.11994 6.3814.08849.8525-2.93138 4.9115-6.71086 9.02-6.59187 7.1658-6.72454 7.4584-3.25768 7.1876 2.6536-.2073 4.92918-1.9939 8.56257-6.7231zm57.68947-2.0424c1.66988-1.8578-5.46831-2.4308-9.30331-.7469-1.89327.8313-3.62079 2.2748-3.83907 3.2078-.30273 1.2944 1.08112 1.344 5.8406.2097 3.43059-.8176 6.71631-2.0193 7.30178-2.6706zm13.08034-3.4802c-3.51956.0891-6.83169.6804-7.36015 1.314-.52861.6335 2.35109.5606 6.39922-.1622l7.36016-1.314-6.39923.1622zm2.90324-6.0626c2.60968-1.0404 4.70612-2.3115 4.6588-2.8245-.12018-1.3027-12.24313 1.3005-12.64905 2.7162-.18192.6346-1.74537 1.2843-3.47433 1.4438-1.72898.1596-3.09294.8386-3.03108 1.509.12845 1.3925 7.49304-.0527 14.49566-2.8445zm16.13471-.7043c2.538-1.5044 4.14251-3.4594 4.01081-4.8871-.12077-1.3087.9794-3.3955 2.44468-4.6373 5.18813-4.3967 1.15519-3.3399-7.54392 1.9768-7.28819 4.4543-8.66037 5.8251-7.90811 7.9002 1.10438 3.0465 3.41482 2.9559 8.99654-.3526zm-25.24671-3.4733c2.50364-1.2258 3.00107-2.0278 1.85083-2.9838-1.86306-1.5484-9.71353 2.0028-8.37005 3.7863 1.05723 1.4037 2.33461 1.2464 6.51922-.8025zm-91.81952 6.2242c.97271-2.8751 18.3504-15.1393 21.91799-15.4684 1.40913-.13 4.68403-1.4477 7.27759-2.9282 2.59362-1.4805 4.83472-2.7462 4.98038-2.8125.14566-.0663-.17515-1.334-.71272-2.817-.9539-2.6313-1.13493-2.634-7.50112-.1102-3.58806 1.4225-9.24679 5.064-12.57496 8.0922-8.78632 7.9947-17.01691 17.2468-15.25322 17.1464.83741-.0477 1.67711-.5437 1.86606-1.1023zm-13.2021-4.3346c3.3803-3.1855 7.46461-7.4876 9.07623-9.5604 3.49568-4.4956 20.17149-18.1039 22.35569-18.2433.84405-.0539.18532 1.2751-1.46361 2.9533l-2.99808 3.0511 3.66422-1.2568c4.17337-1.4315 18.55902-12.858 17.40027-13.821-.41914-.3484-3.57029 1.1816-7.00242 3.3999-3.43226 2.2183-6.28503 3.5501-6.33952 2.9595-.15631-1.6944 10.06463-8.3978 13.25306-8.6919 1.7196-.1587 6.25725-3.9608 11.26371-9.438 8.8184-9.6478 10.46899-13.5758 4.87919-11.6116-4.81164 1.6907-4.05674-.8477 2.11644-7.1159 3.49249-3.5464 5.28312-6.4302 4.85407-7.8175-.55423-1.7916-2.47875-.6517-10.40348 6.1613-5.34786 4.5977-13.67423 10.3262-18.50301 12.73-16.4377 8.1827-22.47261 12.2966-27.76975 18.9301-4.56253 5.7135-4.85569 6.4549-2.12738 5.3792 1.74045-.6862 4.01403-2.1416 5.05229-3.2344 1.03827-1.0927 2.52287-2.0453 3.29903-2.1169.77629-.0716 4.66789-2.1769 8.64794-4.6784 11.14667-7.0056 28.12778-15.9112 28.98338-15.2002 1.27385 1.0587-1.12233 2.9215-7.74401 6.0205-3.45822 1.6184-7.10022 3.7332-8.09333 4.6995-.99312.9663-3.22962 2.3189-4.97003 3.0058-13.237 5.2245-32.95985 19.4438-38.20252 27.5423-4.16761 6.4378.07774 4.6475 8.57163-3.6148 4.50234-4.3796 12.07294-10.5275 16.82341-13.6619 4.75063-3.1345 9.71968-6.5901 11.04226-7.6792 1.32274-1.0892 3.18732-2.0525 4.1435-2.1407 3.28652-.3032.34234 2.6285-7.32601 7.2949-17.00259 10.3464-35.21164 27.4486-38.96212 36.5934-2.84767 6.9439-1.60886 6.7837 6.47895-.8379zm120.80533-8.0394c4.35081-1.8813 6.16515-3.3877 6.01681-4.9957-.11682-1.2662 1.14318-3.3806 2.80002-4.6987 3.73703-2.9732 4.47886-3.0714 3.75424-.4973-.87255 3.0992 4.11475 2.0779 6.70302-1.3727 2.17992-2.9061 2.16985-2.9169-1.59668-1.7366-3.58151 1.1224-3.52075.9776 1.10495-2.6279 2.69243-2.0986 5.59547-3.6246 6.45107-3.3911 3.19661.8724 7.48161-9.4547 4.53184-10.922-2.05964-1.0244-12.01321 5.6156-18.6826 12.4631-3.3836 3.4739-9.92148 9.0534-14.5288 12.399-11.90295 8.6433-10.2107 11.285 3.44613 5.3799zm29.23209-5.7515c3.07568-3.0873 3.3271-4.3165.8355-4.0866-.94837.0875-2.96405 1.7492-4.47934 3.6928-3.31732 4.2551-.50572 4.559 3.64384.3938zm-34.71022-1.9913c-.37368-.3106-1.59266.5833-2.70864 1.9866-1.93871 2.4378-1.90844 2.463.67968.5648 1.48966-1.0926 2.40277-2.2408 2.02896-2.5514zm-55.36066-14.0388c6.90434-4.7403 9.96068-8.731 8.67782-11.3308-.80967-1.6408-2.03039-.9488-6.69606 3.7958-3.13826 3.1913-7.06084 7.1121-8.71693 8.7129-4.42888 4.2812-.11784 3.5272 6.73517-1.1779zm14.47282-2.687c2.97748-3.873 4.24386-8.5064 2.55448-9.3467-1.25091-.6222-9.63241 9.9587-9.4505 11.9304.2295 2.4877 4.11695 1.0312 6.89602-2.5837zm-17.37402-4.3452c8.52109-7.5963 12.20752-12.5866 9.79573-13.2606-1.12236-.3136-5.36125 3.4946-10.47856 9.414-11.69141 13.5241-11.48389 14.6928.68283 3.8466zm93.42772-11.7329c-.15768-2.1722-.79601-2.7467-2.40457-2.1636-3.30547 1.1982-3.79194 4.6186-.61524 4.3255 1.74186-.1607 2.37072.3381 1.85179 1.469-.45643.9946-.33127 1.2124.29851.5195.5963-.656.98756-2.5237.86951-4.1504zm-73.00566-8.1071c.39234-1.9539.05387-2.9566-.96617-2.8625-2.33799.2157-4.64117 4.5754-4.35095 8.2359.25349 3.1955.27217 3.1987 2.48423.4268 1.22602-1.5361 2.50078-4.1462 2.83289-5.8002zm73.86336-3.2933c-.07035-.7624-.86875-2.5087-1.77428-3.8806-1.56923-2.3775-1.75356-2.3777-3.9358-.0033-2.83947 3.0898-2.77919 4.3873.227 4.8836 4.14251.6838 5.61365.4156 5.48308-.9997z" style="opacity:1;fill:#000000;fill-opacity:1;display:inline"/>
  </g>
</svg>