<?xml version="1.0" encoding="UTF-8" standalone="no"?>
<svg xmlns="http://www.w3.org/2000/svg" xmlns:svg="http://www.w3.org/2000/svg" width="367.89014" height="286.11246" version="1.0">
  <defs/>
  <path d="M340.76969 284.44362c-3.04537.03035-8.03073-.1511-11.07858-.40322-3.73139-.30866-5.82738-.08955-6.41659.67077-.48127.62103-1.67862 1.23103-2.66075 1.35556-1.69464.21486-2.01052-.21826-2.69183-3.69073-.1592-.81142-.99199-1.39371-1.85064-1.29396-.85864.09974-3.31468-1.40327-5.45785-3.34003-5.58866-5.05041-5.83629-5.09576-8.3475-1.52857-2.92023 4.14817-5.28288 5.79335-8.99604 6.26413-1.64056.208-3.20215.8596-3.47019 1.44799-1.37359 3.01525-7.00896-.09227-10.62836-5.86083-2.70622-4.31313-2.74017-4.72879-.58073-7.11005 2.06866-2.28116 5.64616-3.02355 5.8968-1.22367.43504 3.12401 2.00937 3.59365 5.10833 1.52386 3.71732-2.48279 4.08725-3.77773 2.08602-7.30222-.85818-1.51141-1.54144-3.03775-1.51835-3.39187.08457-1.29687-12.04237-10.4347-13.58796-10.23874-.87709.11121-1.64577-.20057-1.70818-.69281-.13191-1.04038-5.9383-2.45469-6.59557-1.60655-.24352.31425-3.0207-.44579-6.17148-1.68898-3.15079-1.24318-7.29067-2.32647-9.19974-2.40729-8.99686-.38091-10.7119-.52876-12.66286-1.09168-5.88473-1.69795-10.80238-1.79793-21.08476-.42872-12.06581 1.60671-20.0732 1.52317-25.1764-.26267-4.38907-1.53592-5.01221-1.27873-4.29232 1.77158.91153 3.86237-2.12719 4.48466-6.45291 1.32149l-3.49332-2.55447-15.84929 1.84044c-9.61132 1.11607-16.40925 1.4842-17.27201.93531-.79579-.50627-2.80785-.45273-4.56607.12151-2.1381.69831-2.71607.66906-1.80726-.09148 1.07328-.8982.7672-1.25566-1.55604-1.81732-1.59068-.38455-3.42132-.63379-4.0681-.55386-.64677.07993-2.75218-.56123-4.67868-1.4248-3.21489-1.44109-3.77125-1.41569-6.77058.30917-3.04429 1.75071-3.64483 1.75869-8.77763.11672-3.03036-.96941-7.14739-1.55936-9.14895-1.311-2.00155.24837-5.83534-.1772-8.51952-.94568-2.68417-.76848-6.2415-1.22466-7.90516-1.01373-1.66366.21093-4.52133-.26432-6.35036-1.05611-1.82904-.7918-6.5534-1.85489-10.49857-2.36244-3.94517-.50754-8.85495-1.66656-10.91062-2.57561-2.05566-.90903-5.59743-2.01126-7.87059-2.44937-9.20749-1.77459-13.855-3.86682-20.5787-9.26414-3.85763-3.09664-7.03917-5.94348-7.07008-6.32631-.2601-3.22178 5.3095-7.29292 9.6264-7.03649 2.19898.13061 3.6254-.30373 4.2568-1.2962 1.26727-1.99195.12671-2.71155-3.58223-2.26004-4.01188.48836-18.01994-1.23108-22.04685-2.70619-6.67226-2.44415-7.1549-7.77157-1.23154-13.5943 2.83775-2.78956 4.11595-3.21344 16.38795-5.43465 7.32058-1.32501 16.15292-2.46436 19.62742-2.53189l6.31727-.12277.9891-3.90954c.544-2.15024.80048-4.15258.56996-4.44964-.23052-.29706-2.1304-.97127-4.22198-1.49823-2.09157-.52698-5.59946-1.78322-7.79531-2.79167-2.19586-1.00845-4.36421-1.78641-4.81857-1.7288-.45436.05761-3.2168-.69646-6.13877-1.6757-6.05415-2.02891-13.30615-6.93813-13.59316-9.20184-.10632-.83858-2.23212-2.40013-4.724-3.47013C5.3563 146.89459.73645 140.25699.08433 129.44192c-.7385-12.24799 3.4853-27.66249 8.28583-30.23862.75777-.40664 1.31931-1.2004 1.24786-1.76393-.1964-1.54904 2.73545-4.0619 5.13656-4.4025 1.17064-.16605 4.71259.93761 7.871 2.4526 10.4407 5.00803 10.81903 5.35152 12.08769 10.97442 1.39654 6.18967 4.02346 8.03507 9.21268 6.47188 6.68236-2.013 7.6459-2.48035 7.27195-3.52714-.20982-.58736.1506-1.34328.80093-1.67984.65033-.33656 1.27204.09492 1.38158.95884.20758 1.63721 1.93947 1.79011 4.53002.39994 1.10338-.59212 1.18925-1.12056.31497-1.93823-.56533-4.42306 14.94255-5.30457 16.53983-4.70285-1.30281.65623-3.81398 1.42161-5.58039 1.70083-1.7664.27922-3.15622.94489-3.08846 1.47926.16625 1.31125 13.97648-1.14344 14.6411-2.60239.59357-1.30299 6.04266-1.21777 6.20937.09711.06112.48202-.33531.93301-.88094 1.00219-.54563.06918-.92886.62425-.85161 1.23349.13449 1.06079 1.8511.67943 6.46443-1.43612 1.47779-.67768 2.84087-.21872 5.26137 1.77156 1.79676 1.4774 4.17342 2.57124 5.28146 2.43075 1.10803-.14048 3.09809.3154 4.42235 1.0131 2.84001 1.49626 12.3908 1.98531 12.99215.66526.22929-.50334 1.49303-1.0516 2.80832-1.21836 1.31528-.16676 3.74939-1.32873 5.40915-2.58215 14.09733-10.64606 18.23495-13.4376 21.44115-14.46575 2.55044-.81786 3.47721-1.58074 3.00019-2.46965-.55131-1.02735-.2929-1.10297 1.28394-.37573 1.49047.68741 3.65468.4094 8.83305-1.13468 3.7724-1.12485 9.08758-2.32774 11.81152-2.6731 2.72394-.34537 5.96854-1.16908 7.2102-1.83047 2.60038-1.38513 12.22957-13.7341 11.45582-14.69153-.28397-.35139-1.89907-.7376-3.58911-.85828-2.22352-.15876-3.1443-.78324-3.33147-2.25945-.38535-3.03937 2.28176-3.89204 5.30564-1.69619 3.27344 2.37707 4.08089 1.75975 5.02323-3.84045.40989-2.43597 1.11503-6.06353 1.56696-8.06124.45193-1.9977.83288-4.08722.84653-4.64336.07757-3.1582.7926-6.53333 2.03653-9.61292.77427-1.91684 1.32458-4.14123 1.22292-4.94308-.10167-.80185.30933-1.52057.91335-1.59715.604-.07658.77519-.74115.3804-1.4768-.39478-.73569-.04675-1.6977.77339-2.1378.82015-.44014 1.16657-1.05179.76983-1.35925-1.067-.82686 1.84499-4.576 3.74094-4.8164.8992-.114 3.36511-1.85246 5.4798-3.86322 2.76411-2.62827 3.45448-3.83376 2.45603-4.2886-2.18369-.99479-.69343-1.9698 4.26889-2.79296 2.7871-.46232 4.93541-.3077 5.50431.39618.51319.63494 2.80664 1.07658 5.09654.98141 2.28991-.09516 5.51029.50016 7.15641 1.32295 1.64612.8228 4.42519 2.05942 6.17572 2.74807 2.05386.80798 4.64286 3.38797 7.29928 7.27388 3.8365 5.61218 4.07589 6.31657 3.5194 10.35555-.3284 2.38355-.13975 5.6172.41925 7.18584.62012 1.74021.60804 3.49387-.03099 4.49833-.75757 1.19078-.70933 1.90816.17437 2.593.88369.6848 2.19908-.05155 4.75451-2.66157 1.94305-1.98456 3.88627-3.6531 4.31827-3.70789.43199-.05477 2.60644-2.06675 4.83209-4.47107 2.22566-2.40432 6.07287-5.9237 8.54937-7.82088 4.96775-3.80563 20.54713-22.9295 19.89758-24.42453C297.787 2.9267 300.93416.33167 303.701.0272c1.36693-.15042 3.92372.3384 5.68176 1.0863 3.94175 1.67685 6.44637 7.4505 7.17823 16.54724.49611 6.16658-1.00637 19.90047-2.57431 23.53118-.43982 1.01845-.68198 2.77998-.53814 3.91452.14385 1.13454-.08345 2.96487-.50511 4.06742-.60503 1.582-.33182 2.17092 1.29591 2.79344 2.82611 1.08083 3.53197.87046 2.64225-.7875-.53005-.98773.50436-2.18549 3.47071-4.0188 5.36226-3.31409 14.27999-4.27183 15.13918-1.62592.40114 1.23531-.09972 1.77665-1.84897 1.99844-2.66773.33824-4.18695 2.33445-5.94351 7.80961-2.17726 6.78647-2.16871 21.69042.01301 22.6843.70566.32145.01571 2.58345-1.82137 5.97135-1.62654 2.99962-3.62601 7.10094-4.44326 9.11404-.81726 2.01311-2.03229 4.78001-2.70007 6.1487-1.15999 2.37746-1.04942 2.5595 2.47798 4.07975 4.4311 1.90974 7.83419 5.63192 7.26669 7.94803-.31781 1.297-1.21314 1.63466-3.90978 1.47448-3.28867-.19535-3.89376.28123-10.12956 7.97816-3.64757 4.50225-7.34189 8.62145-8.20958 9.15378-3.18066 1.95132-6.9506 5.26787-7.15385 6.29349-.11485.57955 3.36207 1.41698 7.72649 1.86096 13.9456 1.41863 26.62565 9.09062 27.58953 16.6929.183 1.44336 1.14625 3.80486 2.14055 5.2478 3.08964 4.48364 5.90812 10.76807 6.35464 14.16903.23521 1.79149 1.18931 4.16533 2.12023 5.27521 5.23301 6.23895 9.54683 20.29652 7.70567 25.1107-1.54447 4.03841 5.12853 21.66331 9.67646 25.55769 1.74839 1.49714 2.57669 1.66254 3.48141.69518 2.47847-.36672 2.75448 5.95724.29868 7.15418-1.05906.13428-2.25808-.1673-2.66448-.67018-1.25848-1.55724-3.09461-.72234-3.82451 1.73902-1.32475 4.46738-3.89298 3.85772-12.33374-2.92787-6.54533-5.26184-8.56226-6.36689-10.97553-6.01329-2.28327.33454-2.94035.02939-2.88522-1.33987.03927-.97518-.39232-1.71427-.95908-1.64241-.56675.07186-2.19413-1.70285-3.61638-3.9438-3.15955-4.97825-9.67649-7.79221-15.25431-6.58668l-3.61526.78137 2.42073 3.2211c7.94455 10.57131 11.55328 19.53423 13.94322 34.63055.79625 5.02957 1.76574 7.48144 4.21688 10.66455 4.87665 6.33295 10.78733 10.50703 14.25573 10.06728 1.70438-.2161 2.62562-.75565 2.1966-1.28651-.4064-.50288-1.41493-.82861-2.24118-.72385-.89466.11343-1.45829-.52859-1.39352-1.58733.13232-2.16286 5.82826-3.72606 8.16349-2.2404 2.32122 1.47676 2.98282 8.5318.90288 9.6281-.90943.47936-2.03358 1.45147-2.49812 2.16026-1.2902 1.96859-3.21196 2.50051-9.25138 2.56072zm-13.96094-6.75821c-.03704-.2922-2.06867-1.10426-4.51471-1.80457-5.83721-1.6712-9.64873-7.21692-12.19848-17.74863-1.01899-4.20893-2.42631-8.72946-3.12738-10.04562-.70108-1.31615-.94097-2.6627-.53309-2.99232 1.26097-1.01906 3.36261 3.24082 4.77664 9.68195 1.77032 8.06408 2.97103 11.01362 4.3253 10.62513 1.86629-.53536 4.76117.6858 4.93834 2.08317.09229.72788.61826 1.52862 1.16883 1.77943 1.51628.69074-1.8542-6.4549-6.38444-13.53547-2.38634-3.72975-1.52483-5.43938 1.35314-2.68527 1.68594 1.61339 2.15133 1.69574 2.46016.43533.46007-1.87766-1.43179-5.61143-4.56487-9.00919-1.26956-1.37682-2.4366-3.5153-2.59342-4.75219-.28533-2.25045-3.28883-5.55481-4.86717-5.3547-.46106.05846-.7534.77593-.64963 1.59438.10377.81844-.29322 1.54918-.88221 1.62386-.66157.08388-.9704-.97651-.808-2.77435.21592-2.39027-.23891-3.15495-2.54612-4.28065-2.11403-1.03145-3.10484-1.05419-4.00483-.09189-.95015 1.01591-2.01985.11412-5.20634-4.38911-4.41498-6.23938-10.84885-11.03761-16.19983-12.08147-1.90692-.372-3.51933-1.08817-3.58315-1.59148-.17704-1.39639 1.91096-1.32782 6.94302.22802 2.51537.77771 5.61436 1.28204 6.88665 1.12073 1.2723-.16132 2.64577.11815 3.05217.62102.4064.50288 1.57907.8078 2.60592.67761 1.02686-.1302 2.24556.23167 2.7082.80415.60649.75047-.26228.97638-3.11387.80969l-3.95504-.23117 2.53436 2.10075c1.3939 1.15543 2.60289 2.6412 2.68663 3.30171.08375.66051 1.44338 1.29312 3.02141 1.4058 1.82763.13049 3.64043 1.26367 4.99386 3.12165 2.03776 2.79743 10.43657 8.01784 11.23722 6.98468 1.18955-1.53499-2.33723-6.00115-8.09162-10.24686-4.4685-3.29695-5.8269-4.72861-4.25565-4.48517 3.61019.55933 6.50871.71199 5.12546.26994-.68982-.22044-1.116-.96483-.94709-1.65419.18365-.74949-2.39903-2.04546-6.42413-3.22357-3.70217-1.08359-8.79766-3.49056-11.32332-5.3488-4.61827-3.3979-6.83242-4.11993-6.09483-1.98754.87591 2.53226-20.85282 2.88198-26.7454.43045-1.86653-.77654.81083-2.55955 2.76976-1.84454 2.67764.97734 17.69564.10933 16.82157-.97224-.37542-.46456-1.5491-.73478-2.60817-.6005-1.05906.13427-2.01046-.4255-2.11423-1.24395-.21026-1.65831 3.24559-2.4922 4.40137-1.06205.4064.50288 2.10023.74172 3.76408.53077 2.73147-.34632 2.93421-.61668 2.08824-2.78478-1.11036-2.84569-1.22935-2.81223 5.56993-1.56664 5.02702.92092 10.807 3.80289 9.92068 4.94657-.2193.28299-2.1106-.04697-4.20287-.73325-5.08825-1.66899-5.37889-.81781-.91839 2.68971 4.361 3.4293 17.04653 8.12824 18.13871 6.7189 1.08108-1.39503-.52559-3.00307-2.72224-2.72456-2.30149.2918-8.29483-3.52504-7.38435-4.70269.63843-.82577 3.40668-.06821 11.21244 3.06843 4.50716 1.81113 11.07055 3.77731 12.15168 3.64023.4338-.055-.92381-1.47048-3.0169-3.14551-2.0931-1.67503-4.15618-3.00107-4.58462-2.94674-.42845.05432-4.80493-1.24853-9.72552-2.89523-9.59521-3.21108-16.76445-8.19928-15.01986-10.45049.70076-.90426 1.64071-.60797 3.4935 1.10122 3.12984 2.88728 9.11925 5.52941 17.31905 7.64003 3.43864.88511 7.46306 2.21649 8.94317 2.95863 1.4801.74213 3.39634 1.50475 4.25831 1.6947.86197.18996 2.82358 2.22461 4.35912 4.52146 3.5386 5.29298 8.99431 10.18475 10.23796 9.17969 1.325-1.07079-1.40081-7.16322-4.8275-10.78988-1.48231-1.5688-4.9217-3.62754-7.64311-4.57497-4.83534-1.68338-7.37961-3.96255-4.73458-4.24127.72945-.07688 3.47409.70099 6.09919 1.72857 13.14283 5.14469 15.81927 5.82342 17.18891 4.35897.73032-.78087 1.2891-1.72539 1.24174-2.09894-.04737-.37355-3.82634-3.66607-8.39771-7.31671-8.00506-6.39272-8.24261-6.69709-6.4411-8.25261 1.81446-1.56669 1.69648-1.74994-3.93746-6.11599-5.39752-4.18285-5.76521-5.96221-.87882-4.25298 3.07255 1.07474 8.90335 2.02163 9.29968 1.51019.20551-.26518-1.04708-1.4364-2.78354-2.60272-2.86927-1.92719-2.94713-2.09515-.85383-1.84188 3.6866.44606 2.4463-1.70002-2.39075-4.13667-7.85345-3.95615-10.79042-4.82462-16.282-4.81464-3.8194.00695-5.44805-.4239-5.58151-1.47656-.14606-1.15194.55596-1.42878 3.12002-1.23037 6.91417.53505 10.88253.37079 10.76414-.44555-.52827-3.64256-9.17809-5.41645-19.02682-3.90199-3.986.61294-7.8015.86196-8.47889.55338-2.07031-.94314-.47884-2.58921 2.85756-2.95559 1.73592-.19063 4.5991-.82432 6.36263-1.4082 3.83257-1.26889 14.17851-.62262 19.93837 1.24549 5.34299 1.73289 5.55439 1.65037 1.81422-.70822-5.39103-3.39963-12.75075-5.2876-21.97125-5.63623-2.51807-.09521-3.13882.18026-2.61205 1.1591.56702 1.0536-1.8214 1.54764-13.31132 2.75343-12.55029 1.31705-13.98829 1.29031-13.86715-.25782.08078-1.03226.93051-1.72965 2.11179-1.7332 8.35235-.02508 12.41721-.88708 13.51172-2.86528 1.1017-1.99122 1.47455-2.04825 11.16719-1.70815 5.51508.19351 11.1308.52567 12.47936.7381 1.84632.29086 2.2943.05727 1.81374-.94569-.35101-.73256-1.9895-1.54934-3.64109-1.81504-1.6516-.26571-4.41556-.89203-6.14214-1.39184-6.03513-1.74701-7.37217-1.82047-19.28645-1.05958-11.16085.71278-15.88272.26972-25.75859-2.417-1.86618-.50769-3.45057-1.37672-3.52087-1.93118-.19567-1.54326 3.41576-1.65037 5.02115-.14893.78302.73233 2.36816 1.21176 3.52254 1.06539 1.73369-.21981 1.39543-.64339-1.9441-2.43451-2.22364-1.19262-4.12217-2.79309-4.21898-3.5566-.19126-1.50849.57574-1.29939 5.74252 1.56553 1.78898.99197 5.77859 2.04877 8.86581 2.34844 3.08721.29968 6.8881.83191 8.44644 1.18275 3.1955.71942 8.05568-.79139 7.33975-2.28159-.25837-.53781-2.36264-1.67541-4.67616-2.52802-2.3135-.8526-5.38359-1.98518-6.82241-2.51683-2.85592-1.0553-4.29524-2.92901-2.43148-3.16532.64328-.08156 2.60603.62281 4.36168 1.56526 3.81746 2.04924 9.76398 2.23604 13.01229.40873l2.35225-1.32324-2.98608.29927c-1.64234.1646-3.71058-.04858-4.59609-.47373-2.26915-1.08948 1.41153-1.4991 9.42603-1.04903 6.06327.3405 6.4934.22088 11.071-3.07864 2.61945-1.88808 4.58836-3.56793 4.37536-3.733-.21301-.16507-3.51212.83422-7.33137 2.22065s-7.22211 2.30534-7.5619 2.04201c-1.203-.93226.3875-2.61005 3.4755-3.66626 8.06437-2.7583 19.63983-9.97509 19.37317-12.07831-.1779-1.40313-3.97415-2.45983-7.3152-2.03622-1.71035.21685-4.39416 1.62565-5.96903 3.1333-3.67265 3.51584-8.0729 6.35722-12.02721 7.76634-1.72149.61344-3.96021 1.77484-4.97495 2.5809-1.01474.80605-4.24043 2.33747-7.16821 3.40317-4.53772 1.6517-6.14453 1.80292-10.88908 1.0248-3.06122-.50205-7.53554-.6631-9.94293-.35787-3.54276.44918-4.52393.18931-5.1475-1.36337-.82707-2.05936-1.21525-2.13498-6.50063-1.2661l-3.45599.56812 2.01359-2.23183c1.78052-1.97349 3.02536-2.29404 10.75431-2.76935 7.32932-.45072 8.92464-.82662 9.87977-2.32795.62649-.98474 2.11692-1.91441 3.31207-2.06594 2.7317-.34635 11.0843-5.71019 12.59869-8.09058 1.03046-1.61972.75761-1.67687-2.89844-.607-5.21107 1.5249-5.27154.46505-.14966-2.6232 2.23212-1.34586 5.41015-4.00692 7.06228-5.91346 2.92689-3.37759 2.93872-3.44227.46135-2.52369-4.29644 1.59307-4.19709-.66802.13102-2.98172 4.3307-2.31509 14.77548-14.1117 13.42275-15.16002-.44034-.34123-2.04926.32316-3.57539 1.47646-3.97071 3.00065-5.27043 2.82151-2.92843-.40364 1.10854-1.52656 2.58479-2.84774 3.28056-2.93595 1.59957-.2028 8.76132-13.39209 8.47937-15.61587-.11562-.91192.44832-3.61924 1.25322-6.01625.80489-2.397 1.36421-5.14086 1.24292-6.09744-.12128-.95658.19093-2.07174.69381-2.47814 1.37679-1.11265.37559-6.58522-1.27894-6.99062-1.52252-.37306-1.58919-3.72938-.1229-6.1877.59655-1.00019.23461-1.28977-1.35942-1.08766-1.72099.2182-2.09386-.15348-1.79428-1.78852.6722-3.66863-1.6474-1.94474-3.20549 2.38227-1.74934 4.8582-1.48647 9.13077.59314 9.64033 1.16885.28641 1.09171 1.6185-.39507 6.82197-2.12659 7.44275-4.52718 10.59134-10.49769 13.76871-2.33712 1.24375-5.0553 2.9613-6.04041 3.81676-.98509.85546-2.69586 1.6729-3.80171 1.81652-1.10583.14363-3.20476 1.09015-4.66427 2.1034-1.45952 1.01322-3.12551 1.90206-3.70222 1.97518-1.7593.22306-4.27451 3.76745-4.03182 5.68157.12654.99804-1.00209 2.6531-2.52473 3.70232-1.51445 1.0436-3.14326 2.91644-3.61957 4.16187-.81223 2.1238-.68641 2.20421 2.02606 1.29474 3.95243-1.3252 12.51796-6.51144 12.39221-7.5032-.05621-.44338.56743-.89106 1.38588-.99483 5.64623-.71587-3.85839 7.07961-11.99556 9.83851-5.72817 1.94212-7.78165 3.6345-5.61022 4.6237.80752.36786.702 1.16625-.33019 2.4982-1.27163 1.6409-1.2732 2.05608-.00968 2.56675 1.61508.65275 7.48085-1.51246 16.58626-6.12242 6.50356-3.29267 6.183-3.18622 6.32084-2.09906.0581.4583-1.71594 1.67104-3.94233 2.695-2.22639 1.02394-5.30272 2.6983-6.83629 3.72077-3.08734 2.05843-16.70555 9.133-20.09645 10.43997-4.29952 1.65719-1.98297 2.88202 3.07106 1.62377 4.29632-1.06962 4.83662-1.01961 3.95501.36615-2.16778 3.40742-19.12243 3.33691-18.91035-.07865.05481-.88267 1.03562-1.86227 2.17958-2.17688 4.01369-1.10385 8.69596-11.21336 6.57608-14.19843-1.26772-1.78514-.94424-4.8554.53129-5.04249 2.52728-.32043 7.9043-6.24325 9.41584-10.3716 3.26754-8.92436 5.29252-13.63777 7.61004-17.71334 2.6099-4.58976 12.81458-18.03472 13.78133-18.15729.97884-.1241 6.92509-5.94414 10.56796-10.34364 2.58264-3.11906 3.53733-3.72552 4.32685-2.74858 1.45443 1.7997 2.77345.31225 3.04056-3.42882.28858-4.04165 1.56964-6.11208 3.97013-6.41643 1.40823-.17855 1.9547.4899 2.23999 2.74001.50274 3.96522 1.71991 3.60141 3.22725-.96465 1.1645-3.5275 1.11904-3.85728-.81501-5.91303-1.12655-1.19744-2.41423-2.14502-2.8615-2.10574-1.6865.14814-4.9743 2.97258-8.03066 6.8989-7.38588 9.48813-9.05938 11.36612-10.26377 11.51796-.69924.08815-1.43501.82831-1.63508 1.64481-.20006.8165-2.11469 2.59706-4.25471 3.95682-2.14003 1.35975-4.62198 3.52196-5.51545 4.80491-.89347 1.28294-2.02057 2.38283-2.50466 2.44421-.4841.06138-1.36234.62973-1.95166 1.26302-3.23314 3.47434-16.09368 14.47231-19.39363 16.5849-2.11158 1.3518-4.31374 3.20365-4.89369 4.11525-.57995.9116-1.41527 1.70318-1.85624 1.7591-1.70912.2167-7.06668 5.59945-9.18543 9.22864-1.22339 2.09552-3.64542 6.14015-5.38229 8.98807-1.73687 2.8479-3.40184 6.68782-3.69993 8.53315-.38671 2.3939-1.20984 3.53748-2.8731 3.99163-2.12874.58127-2.31162.36382-2.1068-2.5049.25845-3.61969.12762-3.66012-3.57892-1.10599-2.8348 1.95343-4.74278 1.8661-4.96438-.22727-.11667-1.10224 5.40228-5.41348 7.22595-5.6447 1.4991-.19006 9.83859-10.62473 9.65413-12.07958-.23845-1.88067-4.31415-.34506-8.11874 3.05888l-2.77115 2.47933 1.91868-2.75524c1.05528-1.51538 1.88057-3.05584 1.83399-3.42325-.10248-.80824-10.13481 6.24454-12.14302 8.53661-1.11669 1.27452-1.98378 1.45536-3.98904.83195-2.04903-.637-3.67913-.23745-8.13872 1.99487-4.18455 2.09465-5.79724 2.5183-6.4608 1.6972-.67617-.83667-1.39056-.75538-3.03533.34542-1.18307.7918-3.88177 2.09963-5.99711 2.9063-2.11534.80666-5.77266 2.24594-8.12737 3.19841-3.09793 1.2531-4.42069 1.44166-4.78554.68225-.75825-1.5783-8.91143-.23286-10.42508 1.72035-.71467.92221-2.65864 1.8491-4.31991 2.05972-2.65112.33613-9.26701 3.74145-13.34044 6.86657-.75789.58145-3.46832 2.45849-6.02318 4.1712-4.09815 2.74731-4.27773 3.01096-1.5249 2.23872 4.78591-1.34258 3.34933 1.34262-2.02239 3.78015-6.04056 2.74105-24.94623 4.81588-30.32796 3.32839-2.13617-.59043-3.9681-1.73716-4.07093-2.54828-.1447-1.14113-1.53362-1.30404-6.13934-.72009-4.8553.61559-5.99036.45485-6.15861-.87219-.1743-1.37462-1.02365-1.43639-5.47782-.39836-2.89934.67569-5.74196.86397-6.3169.41841-.6486-.50264-2.6141-.02252-5.17845 1.26497-2.80774 1.40967-4.49847 1.79192-5.27257 1.19203-1.38501-1.07333-5.42559-.67114-6.00355.59758-.22973.50429-2.88425 1.49171-5.89894 2.19428-3.01468.70256-6.04833 1.88373-6.74143 2.62481-.97933 1.04712-2.24802 1.09045-5.6925.19442-4.34565-1.13046-4.45629-1.1074-5.65792 1.17898-.67408 1.28259-2.3252 4.05352-3.66915 6.15762-2.18476 3.42045-2.26387 3.96488-.74695 5.14042.93314.72315 3.57515 1.32837 5.87114 1.34494 2.296.01656 4.21986.38768 4.27527.82471.20104 1.58562-3.71794 2.50257-7.7948 1.82379-2.29409-.38195-4.46093-.32043-4.8152.13671-.35427.45715-.28549 3.65977.15284 7.11696.65865 5.19489 1.2467 6.65733 3.38833 8.42667 2.91019 2.40429 9.38839 4.83599 15.55654 5.83939 2.26431.36835 4.72837 1.26654 5.47568 1.99596 1.08883 1.0628 2.87974 1.00812 9.0157-.27525 5.4514-1.14018 7.38924-1.25604 6.72754-.40218-.51118.65962-5.29538 2.07304-10.63156 3.14092l-9.70215 1.9416 3.08005 1.49823c4.22724 2.05624 9.62086 1.01775 18.96274-3.65112 4.28124-2.13966 8.05491-3.68041 8.38594-3.42387 1.3357 1.03511.68682 2.13602-1.41984 2.40898-1.22724.15902-3.4255 1.11814-4.88501 2.13138-1.45952 1.01323-3.49549 1.94898-4.52438 2.07943-1.0289.13046-1.81793.65354-1.75341 1.16239.14107 1.11265 3.91885 1.927 4.97602 1.07265.4121-.33304 3.1652-1.01113 6.118-1.50689 6.92364-1.16242 7.58943-1.54604 8.902-5.1292 1.58628-4.33041 1.10562-6.46923-1.24198-5.5264-1.18906.47754-1.98025.282-2.08123-.51439-.0896-.70664 1.44983-1.80418 3.42094-2.43897 2.35103-.75715 5.20703-3.06492 8.30266-6.70889 6.97305-8.20823 13.08335-7.89372 9.84555.50678-1.06109 2.753-1.07923 3.83919-.07712 4.61579 2.1816 1.69064 1.67622 2.5817-1.71164 3.01794-2.57026.33096-3.50168 1.08946-4.59688 3.74338-.75541 1.83056-1.23491 3.41515-1.06555 3.52129.67927.42568 14.79158 1.81051 17.12868 1.68082 3.96304-.21992 3.37764-4.63444-1.06007-7.99402-6.26257-4.7411-2.17677-9.96146 4.60971-5.88974 1.52261.91353 4.1999 3.51996 5.94954 5.79209 1.74962 2.27211 4.55305 4.63367 6.22981 5.24789 1.67678.61422 5.93262 3.65185 9.45744 6.75027 3.53741 3.10951 8.2592 6.20089 10.53889 6.89989 2.27157.6965 3.95554 1.49165 3.74216 1.767-.2134.27535-1.84156-.00803-3.61815-.62973-4.86024-1.70081-3.95174.94434 1.46767 4.2732 2.39338 1.47013 4.71526 3.45874 5.15973 4.41912.70923 1.53247 3.93353 3.79963 21.53155 15.13986 7.22137 4.65348 9.34079 15.30758 4.10238 20.62232-1.21619 1.23393-2.14726 2.74832-2.06902 3.36534.20911 1.64932-4.62 3.92342-7.8475 3.69551-4.67232-.32993-2.99928 2.20546 3.0018 4.54907 5.30389 2.07133 5.50189 2.0737 6.60527.07874 1.21788-2.20199 5.47024-3.60435 6.61902-2.18286.98487 1.21867 4.32596-1.34125 4.09792-3.13979-.10133-.79925.26218-1.50979.80781-1.57897.54563-.06917.80089-1.63361.56723-3.47651-.53112-4.18903 1.88106-7.40708 3.1618-4.21809.9004 2.24199 2.61382 2.64578 2.54315.59933-.35052-10.15023-.76747-11.73558-3.52094-13.38759-1.71079-1.02643-2.61246-2.27263-2.36755-3.27219.35632-1.45418.70677-1.50038 3.53155-.46563 2.36031.86461 3.71195 2.39974 5.46457 6.20639 2.18391 4.74337 2.70602 5.18065 8.40255 7.03716 3.75996 1.22539 8.9939 1.93738 13.73847 1.86887 4.21549-.06086 8.26712.23042 9.00364.64729 2.42896 1.37481 12.19922 2.0697 13.0821.93044.52755-.68075.21411-1.46055-.86234-2.14538-1.94791-1.23925-2.39292-2.75608-.86542-2.94975.57557-.07297 3.19784.53598 5.82724 1.35324 3.88455 1.20736 5.24634 1.22007 7.26436.06781 2.14378-1.22407 3.49604-1.04423 9.88307 1.31443 7.48079 2.76256 15.00978 6.7568 17.44717 9.256.73114.74968 2.40404 2.31681 3.71756 3.48251 2.53146 2.2466 3.17898 3.72673 1.71172 3.91277-.48924.06203-4.46692-2.72227-8.8393-6.18733-9.04282-7.16632-19.39173-11.18935-24.07897-9.36044-3.15664 1.23169-2.06699 2.06959 4.01847 3.09007 8.50313 1.42591 18.96395 6.46635 19.32467 9.31139.2945 2.32272-2.31527 1.72714-6.25809-1.42816-4.08027-3.2653-13.73112-6.7972-17.32731-6.34125-1.18902.15075-2.74483-.17768-3.45735-.72986-.77825-.60311-3.92937-.583-7.8924.05036-5.22862.83562-6.87707 1.506-7.94766 3.23206-1.29068 2.08089-1.63551 2.14825-7.75299 1.51447-6.52274-.67577-15.10551-3.71216-16.82554-5.95252-.52384-.6823-2.96235-1.95671-5.41891-2.83202l-4.46645-1.59149-1.85064 4.02528c-1.01786 2.2139-2.03979 4.84306-2.27096 5.84258-.24664 1.06637-1.44358 1.94704-2.89669 2.13127-2.29269.29069-4.22869 2.95324-3.91966 5.39064.06823.53815 1.50006 1.10275 3.18185 1.25467 1.68177.15192 3.7161.99206 4.52073 1.86696 1.9015 2.06759 5.52513 3.41165 8.26234 3.06461 1.69246-.21459.82157-1.03489-3.93124-3.7029-3.35792-1.88499-6.14908-3.77235-6.20255-4.19413-.27147-2.14111 2.40578-2.1044 7.20911.09885 2.93934 1.34826 6.0064 2.36742 6.81569 2.26481.80928-.1026 2.90906.34007 4.66617.98373 3.38166 1.23874 5.91799-.05978 5.56438-2.84878-.09122-.71943.20847-1.61056.66596-1.98029 1.59313-1.2875 4.1426.15469 4.44155 2.51251.2372 1.8709.82659 2.30736 2.78114 2.05955 1.36408-.17295 2.823-.24453 3.24204-.15905.41905.08547.81119-.61193.87142-1.54976.07698-1.1986-.73425-1.72465-2.73072-1.77076-1.94315-.04488-1.43621-.29172 1.60502-.78152 10.85343-1.74799 28.73296.07799 25.59499 2.61393-.5763.46573.48512 1.81334 2.63148 3.341 3.48186 2.47823 4.66253 2.97963 12.5146 5.31464 2.01644.59963 5.11471 1.7816 6.88506 2.62658 4.41312 2.10639 5.56268 1.85492 2.62297-.57375-2.28905-1.89114-3.4624-4.28407-2.18034-4.44662 1.1158-.14147 11.39492 6.9566 11.52164 7.95607.07119.56145 1.04775 1.84084 2.17014 2.84307 3.07198 2.74311 5.81448 8.85341 4.64881 10.35758-.68945.88967-1.41142.74624-2.63077-.5226-1.58329-1.64754-1.6398-1.57889-.97635 1.18598.38731 1.6141.82586 3.48631.97455 4.16046.53112 2.40812 3.25226.89374 2.93206-1.63176-.36518-2.88017.27714-3.16578 2.93962-1.3071 1.75713 1.22664 1.95217 1.17853 2.27071-.55996.46977-2.5639-5.57847-14.15291-9.06526-17.36991-1.54271-1.42333-3.20258-3.44712-3.6886-4.49729-.48602-1.05018-1.30002-1.85663-1.80888-1.79211-.50886.06452-.98181-.32912-1.05099-.87475-.06918-.54564.54386-1.07696 1.36231-1.18073.81845-.10377 1.54124.2306 1.60622.74305.06497.51244 2.14896 2.75376 4.63108 4.98069 2.48212 2.22693 5.13347 5.66058 5.89189 7.63033 6.29325 16.34465 6.83689 18.81414 3.70289 16.8203-1.24575-.79254-1.4971-.59025-1.29057 1.03869.14107 1.1126-.273 2.31884-.92015 2.68053-.88831.49646-.84904.63557.16027.56768.7353-.04946 3.44762 1.66608 6.02739 3.81231 5.22664 4.34828 10.97866 7.03539 14.37098 6.71355 1.23258-.11695 2.21074-.4517 2.17369-.74391zm-60.88748-49.5455c-4.48911-2.33498-7.73505-3.05068-17.7098-3.90491-1.58347-.13561-2.8867-.90452-2.99615-1.76773-.10653-.84025.31919-1.29408.94605-1.00852.62686.28557 5.24178 1.02304 10.25539 1.63885 8.56259 1.05171 16.62158 4.1561 16.92105 6.51812.21444 1.69125-2.28321 1.19425-7.41654-1.47581zm-40.93485-18.14065c-.56871-.11283-2.21108-.31004-3.6497-.43824-3.28102-.29237-6.82511-2.62101-8.05706-5.2939-.51919-1.12647-2.00692-2.17605-3.30605-2.33243-1.29914-.15636-3.67209-1.29951-5.27322-2.54032-1.93197-1.49719-3.51469-1.97669-4.70552-1.42558-1.1534.5338-2.56826.16646-3.9608-1.02834-1.19154-1.02233-3.43367-2.32299-4.98253-2.89035-2.01949-.73978-2.74181-1.60129-2.55348-3.04555.20902-1.60302-.43816-2.10287-3.17169-2.44965-2.40011-.30448-3.61276-1.07809-4.02689-2.56898-.32592-1.17332-1.2394-2.05129-2.02994-1.95106-2.58861.32821-11.91138-3.67403-14.8293-6.36618-5.84423-5.39203-2.64772-6.37465 4.39741-1.35179 7.33745 5.23126 13.31329 5.31118 7.91684.10587-5.60109-5.40271-6.7803-6.77382-6.94535-8.07563-.26781-2.11224 2.45875-.54171 6.4462 3.7131 1.96961 2.10169 3.61238 4.06782 3.65059 4.36917.03821.30135 1.2081 1.47882 2.59976 2.61659 5.72982 4.68447 12.15175 8.01054 17.25878 8.93872 2.98075.54175 6.02939 1.09606 6.77474 1.23183.74536.13575 1.14272.71325.88303 1.28331-.29916.65671-1.41121.80944-3.03505.41687-2.24985-.54392-2.52857-.34892-2.28191 1.59647.62283 4.91236 12.42993 10.18616 20.56896 9.18741 5.39628-.66218 4.80556 1.25585-.71405 2.3185l-4.67393.89983 3.18248 1.61251c2.38695 1.20942 5.24974 1.43921 11.45229.91925 4.54839-.38129 8.07296-.26116 7.83238.26696-.4047.88836-12.42689 2.7459-14.76699 2.28161zm-26.45709-18.86352c-.91943-1.71333-2.84863-1.59241-2.62586.16459.22898 1.806 2.86657 3.75463 3.14951 2.32683.12065-.60877-.115-1.72991-.52365-2.49142zm41.27691 12.52012c-1.42197-.2836-4.55524-.84717-6.96282-1.25237-3.08561-.5193-4.44573-1.27538-4.60886-2.56204-.12845-1.01309-.93891-1.73563-1.82133-1.62375-2.39509.30367-11.97377-3.8438-12.15487-5.26294-.22985-1.80111 1.84854-1.77843 4.47622.04884 2.99298 2.0813 8.37919 3.10927 13.13325 2.50651 4.3143-.547 5.33111.9687 1.62101 2.41634-1.34527.52492-2.16161 1.17473-1.8141 1.44404 1.75871 1.36292 9.05499 2.04342 14.56443 1.35836 3.4633-.43063 6.2578-.33309 6.32804.22087.06917.54563-.93449 1.12648-2.23036 1.29079-1.29588.1643-3.61368.66599-5.15068 1.11487-1.53699.44888-3.95796.5841-5.37993.30048zm13.50605-8.755c-3.53878.02862-5.09093-.40146-5.22354-1.44737-.1045-.82425.49589-1.40877 1.34588-1.31029.844.09778 4.45418-.04923 8.02262-.32671 6.71203-.52191 8.94434.34101 5.09735 1.97043-2.51575 1.06557-2.46211 1.0591-9.24231 1.11394zm61.38722-10.82985c-.87092-.95934-4.15967-2.54641-7.30835-3.52683l-5.72486-1.78256 3.82286-.56729c6.05159-.89801 14.43831 3.24975 12.99173 6.42522-.70095 1.53869-2.06631 1.34063-3.78138-.54854zm-15.70382.28898c-4.46541-1.78205-5.2224-1.75952-22.30257.66388-15.59232 2.2123-17.90706 2.33335-19.60071 1.02506-1.80094-1.39117-1.82087-1.53691-.32024-2.3422.88012-.4723 3.02052-.47086 4.75647.00321 2.0214.55201 5.20557.38153 8.85572-.47412 3.1347-.73483 5.9746-1.12282 6.31088-.86222.33628.26061 5.2392-.01912 10.89535-.62161 5.65617-.60249 11.24153-.69811 12.4119-.21249 1.17038.48562 2.93986 1.02568 3.93219 1.20014 2.04486.3595 2.8595 3.32639.93639 3.41034-.68919.03007-3.33311-.77541-5.87538-1.78999zm-57.32846 5.92197c-.43081-.53309-.15975-1.30386.60236-1.71284 2.08772-1.12033 8.0858-1.08916 8.22932.04276.17226 1.35868-7.85639 2.8769-8.83168 1.67008zm-21.95239-1.98474c-9.2195-.41439-26.08958-7.41829-24.11579-10.01208.39685-.5215 1.88139.09813 3.29897 1.37697 1.41758 1.27884 4.39383 2.69709 6.61388 3.1517 2.22005.4546 4.548 1.1013 5.17324 1.4371.62523.3358 4.20249.79888 7.94945 1.02907 3.74697.23018 6.71876.89339 6.60399 1.47379-.2422 1.22488-1.95618 1.7038-5.52374 1.54345zm8.56578-5.98064c-6.24954-1.9742-7.68965-4.08714-2.47675-3.63392 5.50023.47821 12.6504 2.38458 12.78009 3.40742.23376 1.84373-4.83139 1.95508-10.30334.2265zm47.71666-4.5997c-4.00458-.98236-2.43655-3.15055 2.50837-3.46848 6.25691-.40228 17.06839.18895 17.16315.93856.12572.99448-16.96866 3.19295-19.67152 2.52992zm-33.80777-.31553c-.40988-.31763-.82684-1.22115-.92657-2.0078-.18104-1.42788.03037-1.44157 6.90494-.44729 1.47446.21325 2.18629.00514 1.76509-.51604-1.56648-1.93837.74736-3.36603 7.28865-4.49714 11.08407-1.91664 9.49687 1.03166-2.25892 4.19605-2.0104.54116-3.60462 1.38345-3.5427 1.87178.12944 1.02093-8.10759 2.27065-9.23049 1.40044zm-33.64531.86839c-1.86851-.83502-3.48045-2.17408-3.58208-2.9757-.10654-.8403-3.57156-2.56838-8.18282-4.08095-7.20419-2.36311-7.98247-2.87077-7.84142-5.11491.12757-2.0298-.33821-2.54301-2.51387-2.76993-1.46874-.15318-4.90044-1.12666-7.62599-2.16329-4.50617-1.71387-5.11721-2.3332-6.73806-6.8295-.98037-2.71959-2.39118-6.08894-3.13512-7.48746-1.71892-3.23126-1.48657-10.70535.33998-10.93693.74428-.09437 3.00144 1.6748 5.01592 3.93146 4.69562 5.26016 12.52842 8.15174 19.44243 7.17742 4.8052-.67714 10.27297-3.19566 10.08894-4.64708-.05229-.41244.64375-.84356 1.54677-.95805 1.52775-.1937 1.54374-.06763.23003 1.81421-1.96692 2.81754-1.54733 4.32384.92758 3.3299 1.30608-.52454 1.88032-.41798 1.55819.28914-.28057.61589-1.67645 1.57489-3.10196 2.13111-1.42551.55622-3.69459 2.02817-5.04243 3.271-6.17876 5.69744-21.08721 2.57105-25.06326-5.25592-1.07779-2.12166-1.9077.43586-.94339 2.90724 1.01721 2.60697 9.70316 7.31922 12.82508 6.95779 2.02391-.23431 2.37383.82588.90021 2.72743-.80852 1.04332-.54003 1.27808 1.20821 1.05642 2.69369-.34153 6.29833.90669 6.46731 2.2395.06675.52644-.57463 1.0454-1.42528 1.15325-.85065.10786-1.21412.60754-.80772 1.11042.4064.50288 2.19889.72921 3.98331.50297 2.68236-.34009 3.27759-.04033 3.43592 1.73036.14886 1.66473 1.19078 2.34358 4.6784 3.04816 3.53033.71321 4.43409 1.31131 4.23925 2.80548-.16244 1.24585.42584 2.02243 1.71034 2.25778 1.98778.36422 2.92209 2.58422 1.55317 3.69051-.41269.33351-2.27913-.07681-4.14764-.91183zm-58.58793-8.7459c-6.98412-2.90813-6.76929-4.14345.28423-1.63442 2.81914 1.00279 6.30062 2.14596 7.73663 2.54038l2.61094.71713-2.47281.37229c-1.36005.20475-5.03159-.69317-8.15899-1.99538zm6.9137-2.73116c-4.11363-1.84421-6.10713-3.94603-3.21777-3.39262 9.03802 1.73112 12.82452 2.71174 12.91632 3.34504.21488 1.48244-6.42534 1.51503-9.69855.04758zm7.47719-3.71164c-.72048-.18943-1.1388-.72016-.9296-1.17938.49853-1.09433 5.47647-.77212 5.6205.36382.11812.93166-2.51092 1.38876-4.6909.81556zm96.04513-15.69303c-6.60988-1.29787-9.8816-2.85924-10.17637-4.8565-.19543-1.32417 2.26885-1.08504 7.27793.70622 3.27208 1.1701 7.61349 1.64857 13.0342 1.43649 4.47036-.1749 8.18065.09774 8.24508.60587.15442 1.21792-14.40819 2.88797-18.38084 2.10792zm-111.35503 12.15887c-2.24446-.21177-5.11492-.49131-6.37879-.6212-1.26388-.1299-2.38179-.89732-2.48424-1.70537-.22978-1.81236-.08036-1.83126 5.81944-.73596 2.63115.48848 6.06077.97414 7.62139 1.07926 1.56061.10512 2.62459.65842 2.36441 1.22956-.54453 1.19533-1.34281 1.282-6.94221.75371zm58.1193-6.69639c-.02968-.2341 2.19748-1.45076 4.94924-2.70368 2.75176-1.25293 5.53159-2.58257 6.17741-2.95477 2.3071-1.32962 1.48484 2.17555-.84872 3.61799-2.24549 1.388-10.1614 2.95953-10.27793 2.04046zm-52.60219-1.46623c-.11618-.91633.74177-1.60606 2.23292-1.79512 2.89584-.36716 4.35077 1.0047 2.25711 2.12822-2.52408 1.3545-4.29269 1.2233-4.49003-.3331zm-9.88691-2.30467c-.46505-.57544-.45313-1.55264.02649-2.17153 1.23064-1.58802 4.60795-1.17455 4.83187.59154.22613 1.78356-3.6699 3.05059-4.85836 1.57999zm44.07845-6.28174c-3.23621-.16232-10.26407-5.38705-12.36442-9.19209-.88896-1.61046-1.73928-3.05935-1.88962-3.21978-.15034-.16041-1.61147.63042-3.24695 1.75742-2.86579 1.97477-3.1926 1.98236-9.01326.20909-3.32181-1.01199-6.43005-1.78884-6.9072-1.72633-.47715.06252-2.78829-1.57227-5.13588-3.63285-3.59116-3.15214-4.30469-4.36528-4.49754-7.64681-.15878-2.70181.33942-4.30127 1.62135-5.2052 1.01781-.7177 2.95884-2.2574 4.31339-3.42157 1.35456-1.16416 3.19023-2.20888 4.07928-2.3216 1.28763-.16326 1.17272.48218-.5649 3.17298-2.20795 3.41913-2.52665 6.70587-.72961 7.52451.54051.24623 1.10176-.86979 1.24721-2.48004.14546-1.61026 1.33618-4.1373 2.64605-5.61564 2.02689-2.28762 3.44494-2.82582 9.52178-3.61389 4.36434-.56598 7.56118-1.46917 8.22308-2.32326 2.2525-2.90654 8.72897-1.51366 9.17096 1.97237.24478 1.93064.36779 1.89713-3.75204 1.02198-1.79426-.38114-3.31383-1.09952-3.37683-1.5964-.06842-.53964-.76702-.44726-1.73492.22943-.89121.62305-3.75977 2.06234-6.37457 3.1984-5.61862 2.44113-8.8245 6.91772-6.75804 9.43672.9563 1.16575 3.30244 1.47482 9.19761 1.21169 7.56936-.33786 15.62147 1.05951 27.16121 4.71359 3.20915 1.01618 7.54984 1.31042 13.26119.89892 4.66977-.33645 8.82366-.21214 9.23089.27625.47192.56599 1.43164.39709 2.64668-.46578 2.38001-1.69019 5.65016-2.15274 6.63182-.93804.40918.50631-.03811 2.37743-.99396 4.15804-2.11747 3.94455-6.04315 4.73697-14.67256 2.96176-10.69992-2.20114-11.00292-2.15083-12.96324 2.15235-2.92847 6.42845-6.92119 8.85767-13.97696 8.50378zm6.44408-4.8266c-.11727-.92501.84517-3.10971 2.13877-4.85491 1.97191-2.66031 2.0953-3.29308.76356-3.9156-2.38194-1.11343-3.47767-.19037-3.63014 3.05804-.10548 2.24729-.86287 3.23301-3.28183 4.27121-3.65184 1.56734-4.62192 1.03526-6.15078-3.37371-.93516-2.69682-.81512-3.17267.85377-3.38427 1.06807-.13542 2.71568.64989 3.66137 1.74514 1.68005 1.94573 1.7099 1.91606 1.3028-1.29482-.35613-2.80884-.94014-3.43085-4.02064-4.28229-4.9133-1.35801-6.31157-.35652-5.74469 4.11456.3727 2.93951 1.3319 4.39377 4.62085 7.00582 4.54026 3.6058 9.89382 4.11979 9.48696.91083zm-21.05032-10.34614c2.64481-1.41929 1.37049-3.59394-1.86559-3.18364-1.65441.20976-4.70495-.08764-6.77895-.66088-3.49338-.96556-3.97766-.87145-6.57985 1.27867l-2.80892 2.32095 2.75224.66537c1.51373.36596 3.89259.30574 5.28636-.13382 1.39376-.43956 3.35361-.45107 4.35522-.02559 2.13694.90778 3.58642.84068 5.63949-.26106zm-24.48193-9.94456c.22685-.92581.01005-1.30293-.50824-.88408-.49712.40174-.85059 1.15053-.7855 1.66396.18093 1.42701.85214 1.0224 1.29374-.77988zm72.86859 20.60661c-1.90484-.06703-3.70767-.63423-4.0063-1.26045-.59284-1.24315 6.37803-1.50651 8.09942-.30598 1.45986 1.01813-.31982 1.69921-4.09312 1.56643zm46.91949-6.47777c-1.16071-.6668-1.60882-1.29039-.99578-1.38576.61302-.09535 1.75525.42581 2.53827 1.15813 1.80781 1.69078 1.16861 1.78511-1.54249.22763zm-113.81034 14.29969c-1.32472-1.02659-.01671-2.41982 2.58101-2.74918 1.55986-.19777 2.40955.16967 2.25311.97434-.2813 1.44682-3.65774 2.68648-4.83412 1.77484zm51.81307-6.85624c-.06918-.54564.28567-1.32456.78854-1.73096.50288-.4064.97093-.29248 1.04011.25315.06918.54563-.28567 1.32456-.78854 1.73096-.50288.4064-.97093.29248-1.04011-.25315zm-155.24522 15.8031c-4.23028.0387-6.29346-1.19272-4.46885-2.66727.74326-.60066 2.77867-.70589 4.92553-.25463 2.92596.61502 4.832.35115 9.5161-1.31738 3.2215-1.14754 6.62192-2.66486 7.55648-3.37182 1.92418-1.45557 3.03572-1.02757 2.54392.97954-.34962 1.42686-11.56476 6.40402-14.70783 6.52716-1.01278.03969-3.42719.08667-5.36535.1044zm226.65146-29.00758c-.40641-.50287-.26614-.97426.31169-1.04752.57784-.07327 1.10721.31322 1.17639.85885.06918.54563-.07108 1.01702-.31169 1.04752-.24062.03051-.76999-.35597-1.17639-.85885zM131.08635 141.1948c-.1493-1.17749.68508-1.58483 3.4863-1.70203 5.28957-.22127 5.92973 2.08105.76086 2.7364-3.00908.38152-4.10137.1155-4.24716-1.03437zm-3.12095-4.73965c-1.12052-.0924-3.11082-.26003-4.4229-.37251-1.56988-.13457-2.2585-.72319-2.01391-1.72142.30006-1.22461-.76937-1.37226-5.54952-.76619-5.25984.66689-5.94931.52913-6.17278-1.23337-.21646-1.7073-.9088-1.89912-4.96234-1.37488-2.59093.33508-7.07603 1.63111-9.9669 2.88009-2.89086 1.24898-7.44374 2.90484-10.11751 3.6797-2.67377.77486-6.52165 2.15929-8.55084 3.07651-2.37631 1.07412-4.07425 1.36944-4.77065.82977-.59467-.46085-.73623-1.11189-.31458-1.44676 1.47705-1.17305 11.28674-5.42662 15.60975-6.76852 18.35027-5.69611 21.16792-6.1036 28.70581-4.15147 2.00628.51958 4.89269 1.05117 6.41422 1.18131 1.69901.14532 2.63944.75498 2.43728 1.58001-.2177.88847 1.12655 1.48259 3.96957 1.75445 2.36431.22608 4.54863.94637 4.85404 1.60065.55102 1.18043-1.11356 1.5854-5.14874 1.25263zm-86.31998 5.02702c-3.6617-1.96218-2.27437-3.13393 3.88013-3.27717 3.75778-.08746 5.9335-.59639 6.88108-1.60956 1.0545-1.12749 1.69695-1.24047 2.68775-.47265 3.69746 2.86537-8.80538 7.84773-13.44896 5.35938zm173.50198-28.96064c-.09911-.78169-1.18463-1.60528-2.41227-1.83021-6.34835-1.16319-9.52386-2.46593-8.34098-3.42187 1.50565-1.21679 8.0249-1.07598 9.68322.20915 1.76441 1.36733 3.48235 6.18115 2.26118 6.33598-.55603.0705-1.09205-.51138-1.19115-1.29305zM63.28665 128.01168c-1.26236-1.56203.4806-2.91688 4.39013-3.41257 3.33068-.42229 3.86253-.24603 3.0607 1.0143-1.12818 1.77333-6.54645 3.51736-7.45083 2.39827zm199.97459-25.57331c-.02655-.20945 2.39338-1.69449 5.37762-3.3001 2.98425-1.6056 6.36908-3.52455 7.52186-4.26429 1.15278-.73976 2.34748-1.1501 2.65489-.91187.62181.48188-1.29294 1.79762-8.5141 5.85052-4.64777 2.60858-6.93432 3.46138-7.04027 2.62574zM35.91562 127.95848c-.71694-.18874-1.3554-.75238-1.41882-1.25254-.1824-1.43871 2.47565-1.389 4.0416.07557 1.14848 1.07412 1.15858 1.34973.0522 1.42581-.7543.05187-1.95805-.06011-2.67498-.24884zm44.09375-5.56759c-1.26702-.98189.0562-2.38655 2.54549-2.70216 2.7227-.34521 3.42993 1.04425 1.15338 2.26593-1.9041 1.02181-2.806 1.12817-3.69887.43623zm114.21925-15.85308c-.06918-.54564.54386-1.07697 1.3623-1.18073.81845-.10377 1.54469.25775 1.61387.80338.06918.54563-.54386 1.07696-1.3623 1.18073-.81845.10377-1.54469-.25775-1.61387-.80338zm-46.86973 3.99515c-.15257-1.20341 4.74054-5.7097 6.43281-5.92426.71921-.09119.40359.65495-.70138 1.65809-1.10498 1.00314-1.92736 2.46821-1.82752 3.25572.09985.78752-.71131 1.54504-1.80257 1.6834-1.09127.13836-2.03687-.16447-2.10134-.67295zm15.3747-5.94214c-.07658-.60401.50405-1.17976 1.2903-1.27945.78624-.09968 1.68149-.73432 1.98943-1.41029.40826-.89619-.87056-.88186-4.72183.05288-5.27798 1.28102-5.27939 1.28065-1.98341-.52979 3.90959-2.14749 10.0668-3.28276 9.3573-1.7253-.31248.68595 3.07214.61849 9.43324-.18802 5.45632-.6918 10.22469-.8815 10.59637-.42158 1.11849 1.384-1.11985 1.87755-8.87595 1.95714-6.82736.07006-10.37609.93119-15.3001 3.71273-.98167.55453-1.70231.4866-1.78535-.16832zm-20.33577 1.41425c1.08537-1.40056 14.56659-8.06818 15.24696-7.54092.26113.20236-2.57104 1.77155-6.29371 3.48708-3.72268 1.71553-6.95494 3.52842-7.18282 4.02865-.22787.50022-.92368.97408-1.54624 1.05301-.78907.10004-.85698-.21127-.22419-1.02782zm122.67206-17.12776c4.31237-1.74813 9.95-5.00095 9.86256-5.69054-.11501-.90713 4.08645-3.27028 7.99771-4.49839 2.90359-.9117 2.90453-.91067.58638.64973-1.27702.8596-4.0662 3.09786-6.19818 4.97395-2.78981 2.45495-5.31839 3.68175-9.02112 4.37681-2.82965.53115-4.28195.61596-3.22735.18844zm-20.66595-3.84989c-1.0283-1.27242-.08558-2.51803 2.92327-3.86248 2.78626-1.245 2.68035.80273-.16876 3.2628-1.39821 1.20728-2.13401 1.36747-2.75451.59968zm43.16893-9.00473c.95757-.93539 2.41068-1.7856 3.22912-1.88937 1.12403-.14252 1.06215.2274-.25295 1.51202-.95757.93538-2.41068 1.7856-3.22913 1.88936-1.12403.14252-1.06215-.2274.25296-1.512zm-12.62501-1.80584c-1.63799-.74619-.21494-2.45639 3.37334-4.05403 1.31194-.58412 3.48271-2.0633 4.82393-3.28708 1.6478-1.5035 3.28964-2.1226 5.06306-1.90914 1.50982.18173 3.17244-.26998 3.91462-1.06354.70957-.75869 1.80241-1.27792 2.42853-1.15384 1.44639.28663-9.68224 8.26862-11.36708 8.15301-.6887-.04726-2.5256.81497-4.08198 1.91606-1.5564 1.1011-3.42588 1.73044-4.15442 1.39856zM300.68774 265.157c-.36168-.64715-.51611-.06057-.34316 1.30351.17295 1.36408.46888 1.89356.65761 1.17663.18873-.71693.04723-1.833-.31445-2.48014zm21.45579-5.21937c-1.1363-.88057-1.77588.74317-.77873 1.97704.75325.93207.98703.90323 1.19524-.14748.14237-.7184-.04506-1.5417-.41651-1.82956zm-29.07684-10.10504c-1.61871-3.39516-4.39748-5.81299-5.31704-4.62639-.29315.37828.84118 2.08325 2.52075 3.7888 1.67956 1.70556 3.19183 3.90759 3.36058 4.89339.17479 1.02104.45373 1.23529.6482.49786.18775-.71198-.35787-2.76113-1.21249-4.55366zm60.75797-24.67692c-.55187-1.17744-2.20007-5.84469-3.66266-10.37168-1.50534-4.65929-3.05744-7.9617-3.57689-7.61054-.50471.3412-.48342 4.04518.04731 8.23108.84821 6.68998 1.29514 7.88328 3.69431 9.86366 3.36317 2.7761 4.82974 2.72893 3.49793-.11252zm-96.70417 11.70656c-.17775-1.40196-2.72908-2.87961-4.56914-2.64631-2.02099.25624-2.11775 2.85601-.12581 3.38039 2.09404.55126 4.80419.12752 4.69495-.73408zm-2.00942-5.61867c.27858-1.43176-1.82263-2.0437-9.29657-2.70748-7.34442-.65228-8.77659.39138-4.7835 3.48585 2.67724 2.07474 3.67143 2.23591 8.444 1.3689 2.97522-.5405 5.51144-1.50678 5.63607-2.14727zm89.30581-13.71514c.02057-2.64296-.50745-3.96769-1.52982-3.83806-.54563.06918-.78263 1.77756-.52667 3.79639.44277 3.49221 2.02938 3.52435 2.05649.04167zm-150.53463 17.97241c-.36381-.45019-1.4206-.72227-2.34841-.60464-.92781.11764-2.35773-.60827-3.1776-1.61313-1.78504-2.18782-6.52861-1.94539-6.24152.31898.10595.83558 1.00624 1.67551 2.00067 1.86652.99442.19102 3.18176.76423 4.86076 1.27381 3.14184.95356 6.07932.2102 4.9061-1.24154zm-28.73309 3.84714c1.71363-.93422 1.67428-1.02147-.59394-1.31724-1.33602-.1742-2.87137.04634-3.4119.49009-.54053.44375-1.78032.77736-2.7551.74133-.97477-.03602-1.71215.40899-1.63862.98892.15168 1.19632 5.62881.60744 8.39956-.9031zm13.33149-2.60722c-.11081-.87401-6.0932-4.45705-7.20609-4.31594-1.07819.1367-11.6669-5.28567-13.29469-6.80807-2.16882-2.02841 1.01689-3.48432 3.631-1.65941 1.56669 1.0937 2.57427 1.10066 4.75465.03283 1.52167-.74523 4.08835-1.41337 5.70374-1.48476 2.27487-.10053 3.20589-.77598 4.12935-2.99582.65574-1.57632.95652-3.03191.66838-3.23466-.28815-.20275-6.36226.09254-13.49804.65618-13.84172 1.09335-18.89854.92319-24.8981-.83779-2.40395-.70562-6.59587-.73474-11.60228-.08061-4.31115.56328-10.79798.93653-14.41518.82944-3.6172-.1071-11.74849.15758-18.06953.58819-7.97351.54316-12.9349.36404-16.20225-.58497-2.5902-.75232-9.02974-1.4551-14.31009-1.56173-5.28035-.10662-12.14703-.60075-15.2593-1.09804-6.28332-1.00399-6.72349-1.0216-9.87816-.39518-1.21678.2416-2.15445.89568-2.08373 1.45351.23378 1.84385 9.17881 8.67134 13.00505 9.92637 3.3956 1.11379 3.8885 1.06545 5.10198-.50041 1.12275-1.44881 1.09513-1.96536-.1683-3.14698-.98843-.92445-1.21736-1.79329-.6615-2.51056 1.2441-1.60539 5.13897 2.1002 5.5411 5.27184.30277 2.38807.87005 2.6708 6.456 3.21773 3.36823.32979 6.94933.89636 7.958 1.25903 3.90791 1.40514 5.16288.4702 4.11855-3.06825-1.16172-3.93617-.70693-4.81628 1.96142-3.79579 2.25449.86222 2.90946 3.20758 1.1419 4.08905-.85457.42617-.58995 1.11172.9489 2.45827 2.40543 2.10482 11.1859 5.33139 11.92233 4.38112.26412-.34081-1.31321-2.05192-3.50516-3.80246-3.41673-2.72867-3.85142-3.47325-3.04656-5.21837 1.14418-2.48086 1.77599-2.59628 5.16385-.94333 3.29252 1.60644 3.50413 2.72988.66244 3.51694-1.84397.51073-1.1536 1.12772 4.35799 3.89477 9.38088 4.70958 15.29433 6.98842 15.94747 6.1456.31146-.4019-.08469-1.33955-.88032-2.08367-1.24922-1.16833-.9728-1.41303 2.02558-1.79319 1.90971-.24213 4.11286.15894 4.89588.89127.78302.73232 2.00145 1.25824 2.70762 1.16871.70616-.08953 1.52572.34047 1.82122.95556.30475.63432 1.03438.71664 1.68579.19019 1.53577-1.24113-2.00017-4.36082-4.57294-4.03462-1.0067.12764-1.87629-.10231-1.93244-.51099-.05614-.40869-1.16639-1.11574-2.46722-1.57121-7.4535-2.60983-9.25994-3.53153-9.42169-4.80729-.3183-2.51049 3.26382-1.94751 7.56481 1.18891 2.30418 1.68027 8.16549 4.34544 13.02515 5.92258 4.85965 1.57714 10.03143 3.79414 11.49285 4.92668 1.93929 1.50287 3.36582 1.82822 5.28046 1.20434l2.62333-.85481-3.29073-1.47059c-1.80988-.80883-3.72635-1.41536-4.25879-1.34785-.53245.06751-1.05121-.53289-1.15281-1.33421-.10407-.82082-.74514-1.15621-1.46826-.76817-.70595.37884-2.71021-.2242-4.45393-1.34008-1.74372-1.11588-4.92048-2.41599-7.05949-2.88914-2.139-.47314-3.93432-1.21701-3.9896-1.65303-.05528-.43602-.96702-.6829-2.02608-.54862-1.05906.13427-2.25808-.16731-2.66448-.67019-1.76872-2.18861 4.81395-1.31991 9.73901 1.28523 2.95909 1.56523 6.02805 2.76373 6.81989 2.66333.79184-.10039 1.77222.22891 2.17862.73179.4064.50287 1.36896.83443 2.13904.73679 1.95704-.24813 12.71959 3.20387 13.67506 4.38617.43278.53554 1.34994.67156 2.03811.30226.68817-.3693 1.86648-.09601 2.61847.60729.752.70331 1.98857 1.19997 2.74795 1.10369.97199-.12324.45442-1.25114-1.74849-3.81034-1.72104-1.9994-3.55747-3.58097-4.08094-3.5146-.52347.06637-2.20005-.62827-3.72572-1.54364-1.52567-.91536-3.49528-1.5751-4.3769-1.46608-2.14799.26564-8.3345-3.59307-7.50059-4.67834.36288-.47226 2.30244-.31639 4.31012.34638 2.00768.66278 4.23578.89088 4.95133.50689.72457-.38882 3.93841 1.12091 7.25389 3.40762 3.2741 2.25817 8.20372 4.86449 10.95471 5.79183 2.75099.92733 5.05134 2.0768 5.11189 2.55439.12154.95859 5.20564 3.08057 7.18421 2.9985.68938-.0286 1.20746-.41446 1.15129-.85748zm-70.20249-5.12751c-.85795-.20778-1.81762-.62154-2.13259-.91947-.31498-.29793-2.62592-1.53096-5.13544-2.74007-5.1856-2.49848-5.77348-3.59977-2.4923-4.66894 2.71577-.88494 5.75045.55281 6.04337 2.86317.11493.90641 1.38949 2.01501 2.83237 2.46358 1.44288.44857 2.69924 1.41356 2.7919 2.14443.09267.73086.05241 1.30775-.08946 1.28196-.14187-.02578-.9599-.21687-1.81785-.42466zm20.50031-7.25469c-3.08967-.59702-5.0351-3.04344-2.6597-3.34461 2.04854-.25973 8.27258 1.90012 8.40131 2.91539.15489 1.22168-1.13968 1.31845-5.74161.42922zm-62.90267-1.24657c-1.45214-1.1997-2.37472-2.52393-2.05017-2.94271.32454-.4188 1.61884.09572 2.87622 1.14335 1.25738 1.04765 2.71518 1.85041 3.23955 1.78392.52438-.06648 1.01002.32555 1.0792.87118.22905 1.80662-2.46455 1.35858-5.1448-.85574zM339.58901 211.529c-.03051-.24062-.75146-.34924-1.60211-.24139-.85065.10786-1.20869.61425-.79567 1.12533.68245.84445 2.53054.16315 2.39778-.88394zm-103.28866 8.72695c.69956-1.53564-8.62244-4.05449-12.96675-3.50368-7.00279.88787-3.54732 3.58429 5.58123 4.35522 5.136.43375 6.89225.23126 7.38552-.85154zm-135.19376 15.5213c-.41784-.77863-.93516-1.39345-1.1496-1.36626-.21444.02719-.305.71907-.20122 1.53752.10377.81845.62109 1.43326 1.1496 1.36626.52851-.06701.61905-.7589.20122-1.53752zM350.173 199.60301c-.07326-.57783-.54465-.7181-1.04752-.3117-.50288.4064-.88936.93578-.85886 1.17639.03051.24062.5019.38088 1.04753.3117.54563-.06918.93211-.59856.85885-1.17639zm-71.69801 5.43737c-.75248-.19578-1.60366-.05205-1.89151.31939-.28786.37145.32781.53163 1.36813.35596 1.14967-.19412 1.35493-.45901.52338-.67535zm63.92063-14.72385c-.52795-1.18047-2.03202-3.05518-3.34236-4.16601-2.23006-1.89053-2.44935-1.89876-3.42848-.12866-1.5402 2.78444-1.10759 3.84473 2.1589 5.29125 4.28821 1.89898 5.7643 1.58001 4.61194-.99658zm-184.02443 22.97275c-.09589-.7563-9.40076-3.18394-14.1327-3.68722-2.77806-.29547-8.30679-1.17255-12.28606-1.94907-3.97928-.77652-8.55122-1.53201-10.15986-1.67888-1.60865-.14687-2.72703-.52226-2.48529-.83421.24173-.31194 3.37274-.18835 6.9578.27464 3.58505.463 7.33875.89743 8.34155.96542 1.9707.13359 8.20028 1.23892 11.55645 2.05047 1.14387.27661 3.71121.84863 5.7052 1.27117 1.99398.42255 5.03667 1.1661 6.76153 1.65233 5.14714 1.451 7.77792 1.71843 7.65875.77855-.254-2.00337-5.53371-4.34335-12.81625-5.68018-4.2571-.78146-8.65324-2.07794-9.76918-2.88108-1.11595-.80314-3.24924-1.52933-4.74063-1.61376-1.4914-.08443-7.10171-.79116-12.46735-1.57051-18.94626-2.7519-22.38965-3.07343-23.94955-2.23633-2.89373 1.55287-.65402 4.04211 4.66764 5.18765 2.84979.61345 4.62779 1.22072 3.95112 1.34948-4.30119.81846 3.66665 4.11138 15.8689 6.55825 4.36206.87472 8.74973 1.49341 9.75038 1.37489 2.08681-.24718 9.17798 1.13634 10.30642 2.01083.74784.57955 11.36463-.68383 11.28113-1.34244zm-43.6824-8.62984c.64714-.36168 1.76321-.50319 2.48014-.31445.71693.18873.18745.48466-1.17663.65761-1.36408.17295-1.95066.01852-1.30351-.34316zm60.49789 6.10123c-.06918-.54564-.90616-.88617-1.85995-.75676-1.48203.2011-1.50008.34771-.12416 1.00832 2.02562.97255 2.13752.95836 1.98411-.25156zm165.09023-30.69915c-1.59095-2.2636-1.88854-2.35949-2.29592-.73979-.29545 1.17467.30176 2.52138 1.61953 3.65202 2.65503 2.278 3.06964.49288.67639-2.91223zm-238.06079 33.28035c.29426-.37971-2.03094-4.50753-5.16711-9.17292l-5.70215-8.48251-.91713-12.09247c-.50443-6.65087-.57258-13.44627-.15147-15.10089.42112-1.65462.59783-4.18777.39268-5.62921-.23961-1.6836.5491-3.67882 2.20554-5.57944 1.41818-1.62726 2.51185-3.48445 2.43037-4.12711-.0815-.64267.69009-2.32282 1.7146-3.73367 1.02452-1.41085 1.59704-2.77109 1.27229-3.02276-.86667-.67162-5.93357 6.32818-6.38647 8.82273-.21336 1.1752-1.02663 2.89812-1.80726 3.8287-2.62427 3.12836-5.51582 10.243-5.8311 14.34739-.17203 2.23942.3826 9.88034 1.2325 16.97982 1.77604 14.83551 4.27554 21.0746 9.21346 22.99798 2.96128 1.15345 6.59313 1.1362 7.50125-.03564zm-16.3799-2.38017c-.95662-4.88145-3.13028-7.62766-5.77225-7.29269-1.81794.23049-2.43776.84553-2.26056 2.24313.13428 1.05906.72555 2.14488 1.31394 2.41292.58839.26804 1.20324 1.53986 1.36634 2.82626.30687 2.42034 1.83945 3.34669 4.36667 2.63941.89816-.25136 1.27762-1.34027.98587-2.82903zm73.83359-7.30573c-.4064-.50287-1.3822-.83275-2.16845-.73307-.78625.09969-1.48614-.26518-1.55532-.81081-.06918-.54563-.58107-.93433-1.13755-.86377-.55647.07055-2.80968-.70708-5.00712-1.72808-4.69765-2.18265-15.55645-4.5953-22.02042-4.89257-4.19539-.19294-17.51674-1.16174-23.26559-1.69198-1.32835-.12252-2.25105-.43458-2.05043-.69346.61442-.79284 22.02275.5614 31.81369 2.01246 10.74978 1.59316 9.78114 1.56171 9.62275.31248-.06918-.54564-.74076-.91409-1.4924-.81879-.75163.0953-1.96228-.38384-2.69033-1.06474-.72804-.68092-2.79007-1.3015-4.5823-1.37909-1.79222-.07759-5.32422-.33372-7.84889-.56919-2.52466-.23547-7.10913-.61757-10.18771-.84912-3.07857-.23154-8.07247-.80198-11.09756-1.26762-4.33202-.66683-5.70972-.55782-6.48694.51331-.74676 1.02912-.6578 1.43494.36572 1.66827 1.00102.2282.9312.71059-.26866 1.85621-2.57591 2.45944-.39745 3.2049 12.85225 4.398 6.72967.60598 14.09659 1.46789 16.37093 1.91534 2.27435.44746 8.77509 1.63298 14.4461 2.63449 5.67102 1.00152 11.03612 2.17414 11.92246 2.60585 2.11239 1.02886 5.41398.6192 4.46577-.55412zm8.26111-2.42087c-.19018-1.49999-9.97687-5.42563-12.67375-5.0837-1.06306.13478-2.26534-.16638-2.67174-.66926-1.1416-1.41262-3.6208-.73177-3.40931.93626.10377.81845.65372 1.42913 1.2221 1.35706 1.63445-.20722 14.38592 4.08888 15.22757 5.13033.93626 1.1585 2.51844.01177 2.30513-1.67069zm-103.7234 8.74823c-.27444-2.1645-3.56237-4.86024-5.6111-4.60049-2.41344.306-1.34425 4.10488 1.68304 5.97991 2.71083 1.67901 4.24741 1.13941 3.92805-1.37942zm10.03647-.34373c-.32145-2.5353-3.16428-5.27731-4.41959-4.26284-1.13594.91801-.95447 4.99651.26434 5.94103 1.56842 1.21545 4.37825.08064 4.15525-1.67819zm262.74554-34.51373c-.06918-.54563-.57221-.93546-1.11784-.86628-.54563.06918-.93546.57221-.86628 1.11784.06918.54563.57221.93546 1.11784.86628.54563-.06918.93546-.57221.86628-1.11784zM54.07736 209.58824c-.22938-1.80916-7.76923-6.89815-8.8847-5.99668-2.03944 1.64817.28172 4.4305 5.55737 6.6615 2.71118 1.14653 3.5361.9817 3.32733-.66482zm-21.03492 1.05056c-.06918-.54563-.5722-.93546-1.11784-.86628-.54563.06918-.93545.57221-.86627 1.11784.06917.54563.5722.93546 1.11783.86628.54564-.06918.93546-.57221.86628-1.11784zm47.62965-19.39496-.78542-7.71246-6.19133.78499c-3.59728.45609-6.77098.33579-7.57479-.28713-1.00147-.77609-7.38022-.36376-23.10237 1.4934-19.17794 2.26536-22.08067 2.82206-24.81093 4.75833-4.27335 3.03059-4.17074 5.99307.24403 7.04592 1.88708.45005 4.36857 1.05727 5.51441 1.3494 5.5203 1.40737 11.24713 1.60902 18.8492.66369 8.72092-1.08447 16.34033-1.08346 26.59565.0035 3.37173.35738 7.46164.41646 9.0887.13129l2.95828-.51847-.78543-7.71246zm249.33315-24.99307c-.75248-.19578-1.60367-.05206-1.89152.31939-.28786.37146.32781.53163 1.36814.35596 1.14966-.19413 1.35492-.45901.52338-.67535zm-194.99537 16.08766c-8.38913-8.77412-9.91219-9.00068-16.92732-2.51807-3.0437 2.81264-5.52599 5.3699-5.51621 5.68279.00978.31289 4.2464.82751 9.4147 1.1436 5.16831.3161 10.59199 1.05636 12.05264 1.64503 1.46064.58867 3.68001.95652 4.9319.81743 2.08376-.2315 1.74934-.80392-3.95571-6.77078zm191.0112-20.18597c-.86302-1.79792-3.99252-1.6723-3.76135.15099.11668.92026 1.04611 1.45328 2.26468 1.29878 1.21228-.1537 1.83108-.75312 1.49667-1.44977zm-210.31236 16.29573c2.01737-1.66233 3.95268-4.28912 4.3007-5.83731.34801-1.54818.97468-3.77091 1.39259-4.93941.64911-1.81498-.73061-10.19097-1.81744-11.0332-.20045-.15535-.60301 2.3588-.89455 5.587-.63201 6.99811-2.7514 10.33039-7.91769 12.44887-4.04072 1.65694-12.03645 1.96572-13.2127.51024-1.56773-1.93991-3.54722-.43534-3.18508 2.42093.53995 4.25865 3.8656 5.61507 11.41889 4.6574 4.97913-.63129 6.99194-1.40565 9.91528-3.81452zm-36.43147.92683c.57174-.73777.93765-2.14497.81313-3.12711-.1749-1.37944-1.01638-1.68554-3.69861-1.34547-3.82796.48534-4.361 2.30742-1.35623 4.63598 2.10829 1.63382 2.87173 1.60442 4.24171-.1634zm-12.5969-3.98823c-.7122-3.69692-1.30644-4.69023-2.8635-4.78658-2.66365-.1648-4.31946 3.11249-3.13501 6.20505 1.07572 2.80866 2.49074 3.76729 5.10483 3.45837 1.51995-.17962 1.65579-.92088.89368-4.87684zm65.61566-4.49947c-2.13786-.5664-5.74034-3.35308-4.53262-3.50621.35715-.04528 2.33694.38411 4.39953.9542 6.16614 1.7043 7.45744.8927 3.12363-1.96323-2.11732-1.3953-5.1439-3.04323-6.72572-3.66209-2.6463-1.0353-2.93884-.961-3.66209.93013-1.45952 3.8163-.46182 6.091 3.13586 7.14951 1.87163.55067 4.07363.92444 4.89333.83059.87672-.10037.61653-.40214-.63192-.7329zm-28.90164.33951c-.31357-.65325-1.33107-1.2376-2.26113-1.29856-1.1792-.07729-1.44993.33838-.89449 1.37342.93628 1.74474 3.99422 1.67219 3.15562-.07486zm7.52906-4.04396c-.58763-1.22313-5.96395-2.40127-6.68892-1.46578-.28494.36768.35602 1.41847 1.42434 2.33508 2.00156 1.71734 6.1761 1.02803 5.26458-.8693zm-30.5316 1.5048c-.71693-.18873-1.833-.04723-2.48014.31445-.64715.36169-.06057.51611 1.30351.34316 1.36408-.17295 1.89356-.46888 1.17663-.65761zm-42.85159-10.02743c-.06918-.54563-.82177-.90381-1.67242-.79596-.85064.10785-1.21413.60754-.80773 1.11042.4064.50287 1.159.86106 1.67242.79596.51343-.0651.87691-.56478.80773-1.11042zm249.80984-41.13609c5.86034-2.62335 13.1797-7.35376 13.04329-8.42972-.16543-1.3047-1.89779-.8509-4.18064 1.09516-3.56732 3.04102-13.78079 7.16744-17.72657 7.16182-2.47574-.00353-4.36968.60347-5.5486 1.77831-1.67304 1.66725-1.4012 1.73576 4.16513 1.04978 3.27524-.40363 7.88657-1.59854 10.24739-2.65535zM22.12204 138.94297c.35809-2.26301.9661-4.58543 1.35113-5.16093.38504-.57551.61748-1.69777.51654-2.49391-.10094-.79615 1.23065-3.93607 2.95909-6.97762 4.40062-7.74378 4.44306-7.8965 2.76584-9.95216-1.18552-1.45302-1.27858-2.13016-.44122-3.21068 1.95836-2.52707.6075-6.66433-2.76753-8.47608-1.72778-.9275-3.75442-1.60863-4.50364-1.51364-.74922.09499-2.3357-.34016-3.52553-.96703-1.75515-.9247-2.5667-.85324-4.30153.37877-2.88092 2.04591-7.80604 10.35959-8.06346 13.61126-.11435 1.44439-.52908 3.45453-.92163 4.46699-.39255 1.01246-.25607 5.45041.30328 9.86211.8678 6.84445 1.47643 8.6179 4.14838 12.08778 3.5908 4.6631 4.64315 4.88321 5.78509 1.21002 1.10912-3.56767 2.40006-3.47454 2.86682.20679.21208 1.67277 1.06415 3.94615 1.89347 5.05196 1.46833 1.95786 1.50492 1.93166 1.39585-.99924-.06161-1.6554.18096-4.86138.53905-7.12439zm-5.0013-4.45638c-.8096-.6274-.18213-5.99982 1.29678-11.10316.6508-2.24576.84296-4.9306.427-5.96633-.97698-2.43265.61245-5.85638 2.85048-6.14014 1.91873-.24327 3.07455 4.04406 1.44522 5.3608-.50288.4064-.82048 1.49404-.70578 2.41698.1147.92295-.6272 4.01554-1.64867 6.87242-1.02147 2.85688-1.7536 6.01152-1.62697 7.01032.2231 1.75965-.78128 2.52307-2.03807 1.54911zM9.422 128.70912c-.1561-.67321-.54937-2.32436-.8739-3.66922-1.20773-5.00486 2.1965-16.06995 4.41506-14.35065.37113.2876.19383 2.98294-.394 5.98962-.58784 3.00669-.8638 7.14172-.61326 9.18897.30273 2.47362.00175 3.7798-.89726 3.89378-.74404.09434-1.48053-.37929-1.63664-1.0525zm283.75895-19.12989c3.48654-1.86842 7.36612-4.14716 8.62131-5.06385 2.80609-2.04935 3.64038-4.70558 1.01454-3.23014-6.80444 3.82335-14.96495 7.49431-17.32498 7.79353-3.04234.38574-4.97894 2.22123-4.69622 4.45105.22846 1.80191 3.74284.68092 12.38535-3.95059zm2.44331-6.29823c2.87862-1.34549 5.60832-2.89166 6.066-3.43594.45767-.54428 1.83256-1.11645 3.05531-1.27148 2.6131-.3313 3.77089-2.22965 2.13368-3.4984-1.09058-.84517-7.52981 1.76302-11.92149 4.82875-.88441.61738-2.47504 1.23244-3.53472 1.3668-2.32489.29476-4.95352 3.42131-3.93552 4.68098.40134.49662 1.21867.64929 1.81629.33928.59762-.31002 3.44182-1.66452 6.32045-3.00999zm15.531-.08391c.82109-.44062 1.42765-1.31562 1.34792-1.94444-.07973-.62882.71723-1.84677 1.77101-2.70655 1.05379-.85979 1.64527-1.77303 1.31441-2.02943-.71066-.55073-7.92786 5.87713-7.82121 6.96581.08851.9034 1.37447.79507 3.38787-.28539zm-10.31315-8.66314c2.73704-1.73218 7.1488-6.05862 10.06213-9.86755 2.85342-3.7306 6.5239-7.87413 8.15661-9.20784 1.63271-1.3337 2.91658-2.83494 2.85304-3.33607-.18561-1.46397-1.41859-.9125-4.97446 2.22492-1.83448 1.6186-3.60208 2.97672-3.92801 3.01804-.32592.04132-3.27281 2.69544-6.54864 5.89803-3.27583 3.2026-7.06701 6.23565-8.42485 6.74012-2.94544 1.0943-8.36486 7.38417-7.39563 8.5835.87811 1.08657 4.10384-.19524 10.19981-4.05315zm15.36701-7.44006c7.91855-12.9931 4.71044-13.17536-4.42613-.25147-3.09474 4.3776-3.47752 5.47937-2.28964 6.59034.78449.7337 1.57587 1.31504 1.75864 1.29186.18277-.02317 2.41347-3.457 4.95713-7.63073zm-56.63046 10.1503c-.06918-.54565-.54586-.9388-1.05928-.8737-.51343.06508-1.15282.59975-1.42086 1.18814-.26804.5884.20864.98155 1.05929.8737.85065-.10785 1.49003-.64252 1.42085-1.18815zm43.36348-14.43032c.04239-2.93237-1.81715-2.29627-3.55792 1.21706-1.16583 2.35296-1.11489 2.43323 1.15183 1.81473 1.62592-.44366 2.38245-1.39692 2.40609-3.03179zm11.71957-10.91328c.1275-.45199.75227-.89078 1.38838-.97508.63612-.0843 2.37902-1.24459 3.87312-2.57842l2.71654-2.42512-3.39449 1.05321c-3.2341 1.00345-3.31019.96677-1.61044-.77638.98122-1.00628 2.59694-2.57333 3.5905-3.48234 1.4248-1.30355 1.50586-1.80558.38368-2.37616-1.10048-.55955-.82023-1.50098 1.23711-4.15575 2.94996-3.8066 3.15802-6.13617.60396-6.76199-2.47812-.6072-5.80095 4.94198-5.30564 8.86052.29043 2.29767-.17934 3.5967-1.68018 4.64603-3.49912 2.44645-6.85933 7.61426-5.99646 9.2222.43655.81348.08014 2.54562-.79204 3.84918-1.4595 2.18138-1.33336 2.14524 1.5842-.454 1.74348-1.55324 3.27427-3.1939 3.40176-3.6459zm-2.3832-7.23274c3.98166-4.58976 4.67582-5.9464 2.92928-5.72497-1.12638.14281-8.00335 8.46807-7.86916 9.52642.15227 1.20101 1.49978.16404 4.93988-3.80145zM205.92073 76.2216c2.09366-1.12352.63873-2.49538-2.2571-2.12822-2.54711.32295-3.10835 1.88431-.88748 2.46896.71693.18873 1.38308.36887 1.48032.40031.09724.03144.84616-.30203 1.66426-.74105zm73.45784-12.4181c3.17719-1.9849 9.13435-8.66043 8.95946-10.03986-.04268-.33664-1.04696-.2078-2.23172.28627l-2.15411.89832 1.90634-2.05898c1.0485-1.13245 3.44094-3.59753 5.31654-5.47795l3.41019-3.41894-4.0126-.3166c-3.90336-.30799-4.124-.16226-8.10442 5.35285-2.25049 3.11822-4.04747 6.01912-3.99329 6.44647.05419.42735 1.30548.458 2.78065.06808 1.47517-.3899 2.04931-.33365 1.27586.12501-3.15323 1.8699-9.06697 7.99041-8.91077 9.22235.22202 1.75111 1.64492 1.48248 5.75787-1.08702zm-69.45903 7.47933c.95044-2.48517 9.60859-8.6296 11.16252-7.92172.58981.2687.05532 1.51034-1.19718 2.7811-1.2445 1.26264-2.21553 2.66792-2.15785 3.12287.23869 1.88257 4.12651-1.00809 7.09646-5.27634 1.75039-2.51556 4.02889-5.16762 5.06332-5.89344 8.55819-6.00504 12.71386-10.38858 15.06701-15.89318 1.10549-2.586 1.92101-5.4036 1.81226-6.2613-.10874-.8577.47192-1.64435 1.29037-1.74812 1.83656-.23285 1.83829-.2211-.56299-3.81637-2.21772-3.32046-3.29233-3.02305-3.78219 1.04678-1.06965 8.88667-8.33723 21.07164-15.52004 26.02123-3.80602 2.62268-4.9791 1.37144-1.63411-1.74296 8.99092-8.37115 13.76492-16.1834 15.44673-25.2773.41997-2.27087 1.48677-5.15968 2.37065-6.41959 1.57833-2.24979 1.5625-2.32149-.88443-4.00884-4.01424-2.7681-9.80352-4.84665-11.6228-4.17296-2.38424.88292-1.89556 2.3182.80305 2.3586 1.87252.028 2.28075.56498 2.32024 3.05193.09093 5.72613-4.85447 17.10636-7.00753 16.12554-.74027-.33723.00301-2.7415 2.04642-6.61958 3.09836-5.88018 3.79615-8.85425 2.02473-8.62966-.4667.05917-1.07326 1.563-1.34789 3.34184-.51047 3.30627-2.98415 6.2528-4.35651 5.18926-.42018-.32562-.17513-1.79889.54456-3.27394 1.51287-3.10074 1.05835-8.84298-.81486-10.29463-.96724-.74958-2.28227-.25959-5.32613 1.98456-6.63521 4.89195-8.53803 6.73673-8.36405 8.10897.09079.7161-.83366 2.31528-2.05433 3.55374-2.5295 2.56637-4.53342 8.81994-5.45115 17.01121-.34655 3.09316-.94127 6.0943-1.32158 6.6692-.38033.5749-.6168 1.6345-.52549 2.35467.0913.72016-.7259 3.21885-1.81601 5.55264-1.86967 4.00274-2.29279 8.35475-.79379 8.1647.37406-.04743 1.58872-1.18603 2.69925-2.53023 2.73843-3.31465 3.79463-2.13625 1.65605 1.84764l-1.73364 3.2295 2.30378.147c1.26707.08084 2.63058.16732 3.03003.19217.39945.02486 1.09115-.90889 1.53712-2.07499zm16.07121-21.836c-.395-.3061 1.39159-3.5069 3.9702-7.11286 2.57861-3.60598 4.635-6.9773 4.56977-7.49183-.06524-.51453.55103-1.0204 1.36947-1.12418 1.91339-.24259 1.99963.71905.35996 4.0141-1.63055 3.27675-8.08262 12.08513-8.93106 12.1927-.34108.04325-.94334-.17182-1.33834-.47793zm10.12662-18.02442c-.01501-.1367.80845-2.58599 1.82992-5.44288 1.02146-2.85688 1.95352-4.43469 2.07124-3.50625.32652 2.57531-1.65377 8.9162-2.83119 9.06547-.57348.07271-1.05497.02036-1.06997-.11634zm-36.11896 41.11967c-.06918-.54563-.79542-.90716-1.61387-.80339-.81844.10377-1.43148.6351-1.3623 1.18073.06918.54563.79542.90716 1.61387.8034.81844-.10378 1.43148-.6351 1.3623-1.18074zm32.73792-4.15079c-.06918-.54563-.59856-.9321-1.1764-.85885-.57783.07326-.71809.54465-.31169 1.04752.4064.50288.93578.88936 1.17639.85886.24061-.0305.38088-.5019.3117-1.04753zm43.60528-13.84174c-.12317-.9714-1.65231.02247-3.95787 2.57242-2.61611 2.89343-1.49315 3.6059 1.37023.86935 1.48345-1.41775 2.64789-2.96655 2.58764-3.44177zm19.989-1.23078c1.22383-1.21374 1.87111-2.48117 1.43837-2.81652-.95059-.73666-5.44246 2.91803-5.26891 4.2869.18277 1.44155 1.34369.99592 3.83054-1.47038zm-48.77704 4.73367c-.02719-.21445-.75165-.56195-1.60992-.77226-.85827-.21029-1.50566.05006-1.43866.57856.06701.52851.79148.87603 1.60992.77226.81845-.10377 1.46585-.36413 1.43866-.57856zm-4.81248-3.7817c5.89856-7.20865 8.88949-13.13028 8.14865-16.13327-.66084-2.6787-.69198-2.65735-2.94739 2.02113-1.25372 2.60065-4.37943 7.46067-6.94603 10.80005-4.14554 5.39375-4.98624 7.94552-2.51445 7.63212.44448-.05635 2.36113-2.00037 4.25922-4.32004zm56.76151-15.76475c-.27876-2.24986-1.84889-2.00322-4.52373.7106-1.81478 1.84123-1.90215 2.32472-.57295 3.17036.86262.5488 1.43084 1.7759 1.2627 2.72687-.16813.951.67415.24403 1.87174-1.57102 1.19758-1.81505 2.0806-4.0816 1.96224-5.0368zm-16.2068 3.31484c1.36071-1.83573 1.96145-3.2727 1.335-3.19328-1.26793.16076-4.69153 4.54587-4.53192 5.8047.16112 1.2708.56202.94332 3.19692-2.61142zm9.90875-3.76438c2.69329-2.91916 3.84328-6.65022 2.27056-7.36667-.84319-.38412-6.97573 8.4459-6.80437 9.79738.16564 1.3065 1.98642.33032 4.53381-2.4307zm16.89141-13.74565c.14702-1.12744.10158-2.02889-.10096-2.0032-.20253.02567-.73288 1.00012-1.17855 2.16543-.44766 1.17052-.40248 2.06704.10095 2.00321.5012-.06355 1.03155-1.03799 1.17856-2.16544zm1.94287-6.10186c-.19639-1.44403-.33472-1.4531-1.00089-.0656-1.00922 2.102-.84271 3.4153.31445 2.48014.50288-.4064.81178-1.49294.68644-2.41454zM156.61362 88.12282c-2.02716-2.1357 1.95378-1.82485 0 0z" style="fill:#000000"/>
</svg>