<?xml version="1.0" encoding="UTF-8"?>
<!DOCTYPE svg PUBLIC "-//W3C//DTD SVG 1.1//EN" "http://www.w3.org/Graphics/SVG/1.1/DTD/svg11.dtd">
<svg xmlns="http://www.w3.org/2000/svg" version="1.1" width="1106px" height="1274px" style="shape-rendering:geometricPrecision; text-rendering:geometricPrecision; image-rendering:optimizeQuality; fill-rule:evenodd; clip-rule:evenodd" xmlns:xlink="http://www.w3.org/1999/xlink">
<g><path style="opacity:1" fill="#090909" d="M 338.5,257.5 C 337.549,258.919 337.216,260.585 337.5,262.5C 332.968,262.182 328.634,262.515 324.5,263.5C 322.132,264.783 319.965,266.45 318,268.5C 309.903,285.709 299.569,301.376 287,315.5C 280.115,326.998 279.781,338.664 286,350.5C 296.279,363.445 308.446,374.278 322.5,383C 324.167,383.667 325.833,383.667 327.5,383C 330.986,381.004 334.319,378.837 337.5,376.5C 338.239,376.631 338.906,376.464 339.5,376C 346.428,369.577 352.762,362.744 358.5,355.5C 371.524,341.779 383.358,327.112 394,311.5C 406.722,288.769 411.055,264.436 407,238.5C 405.872,224.862 403.206,211.528 399,198.5C 389.017,172.888 381.684,146.555 377,119.5C 373.937,100.422 376.937,82.4217 386,65.5C 388.042,62.0595 390.542,59.0595 393.5,56.5C 397.5,53.1667 401.167,49.5 404.5,45.5C 408.915,39.9348 414.582,36.1015 421.5,34C 454.368,30.3621 486.034,35.0288 516.5,48C 539.431,57.9757 562.264,68.1424 585,78.5C 597.7,69.3982 611.533,62.2315 626.5,57C 660.403,52.0572 690.737,60.0572 717.5,81C 748.633,107.133 777.466,135.633 804,166.5C 818.949,187.117 834.282,207.45 850,227.5C 855.672,236.17 860.005,245.503 863,255.5C 875.075,299.21 884.075,343.543 890,388.5C 894.059,409.402 899.059,430.068 905,450.5C 907.278,456.667 909.945,462.667 913,468.5C 931.854,495.026 951.854,520.692 973,545.5C 999.596,576.932 1027.1,607.599 1055.5,637.5C 1058.1,641.771 1061.43,645.437 1065.5,648.5C 1073.87,655.7 1081.37,663.7 1088,672.5C 1090.71,675.859 1091.54,679.526 1090.5,683.5C 1089.33,684.584 1088,685.417 1086.5,686C 1072.16,686.978 1057.83,687.978 1043.5,689C 1042.13,689.402 1040.79,689.902 1039.5,690.5C 1035.46,697.194 1029.46,699.861 1021.5,698.5C 1011.1,698.234 1001.1,696.067 991.5,692C 983.712,688.606 976.045,684.939 968.5,681C 965.937,679.921 963.271,679.421 960.5,679.5C 961.73,691.088 964.23,702.421 968,713.5C 973.777,731.05 980.11,748.384 987,765.5C 999.608,793.049 1011.94,820.715 1024,848.5C 1028.49,857.493 1033.49,866.16 1039,874.5C 1042.29,880.36 1044.79,886.526 1046.5,893C 1046.3,895.406 1045.3,897.406 1043.5,899C 1034.21,901.147 1025.21,900.147 1016.5,896C 1008.14,891.316 999.471,887.482 990.5,884.5C 991.013,888.79 990.013,892.623 987.5,896C 985.833,896.667 984.167,896.667 982.5,896C 966.584,884.088 951.251,871.421 936.5,858C 922.333,843.833 908.167,829.667 894,815.5C 891.342,822.133 888.676,828.8 886,835.5C 884.68,839.182 882.18,840.682 878.5,840C 873.917,836.088 870.083,831.588 867,826.5C 850.841,800.014 833.508,774.347 815,749.5C 808.633,738.628 802.466,727.628 796.5,716.5C 794.763,726.919 792.597,737.252 790,747.5C 786.464,756.811 780.298,758.978 771.5,754C 764.986,747.805 759.819,740.638 756,732.5C 749.998,725.001 743.832,717.668 737.5,710.5C 733.5,704.5 728.5,699.5 722.5,695.5C 713.318,687.488 705.818,678.155 700,667.5C 698.503,665.323 696.503,663.99 694,663.5C 690.791,664.52 687.624,665.686 684.5,667C 672.638,673.428 660.972,680.094 649.5,687C 646.167,687.667 642.833,687.667 639.5,687C 635.205,685.619 631.205,683.952 627.5,682C 624.269,688.275 625.602,693.608 631.5,698C 637.677,700.919 643.344,704.586 648.5,709C 670.939,729.708 693.939,749.708 717.5,769C 732.521,779.177 747.188,789.844 761.5,801C 800.167,822.333 838.833,843.667 877.5,865C 917.675,889.585 957.342,914.918 996.5,941C 1008.78,949.615 1020.78,958.615 1032.5,968C 1042.3,978.91 1046.64,991.743 1045.5,1006.5C 1044.8,1023.84 1041.97,1040.84 1037,1057.5C 1035.43,1062.88 1033.1,1067.88 1030,1072.5C 1023.47,1079.37 1016.64,1085.87 1009.5,1092C 998.958,1100.96 986.958,1103.96 973.5,1101C 967.657,1097.82 961.823,1094.65 956,1091.5C 955.055,1091.91 954.388,1092.57 954,1093.5C 953.313,1099.03 951.98,1104.36 950,1109.5C 947.374,1112.23 944.207,1114.06 940.5,1115C 929.388,1115.56 918.721,1113.56 908.5,1109C 898.394,1104.78 888.727,1099.78 879.5,1094C 854.459,1075.13 830.793,1054.63 808.5,1032.5C 806.1,1029.1 803.1,1026.43 799.5,1024.5C 788.028,1014.2 778.195,1002.53 770,989.5C 762,980.833 754,972.167 746,963.5C 741.748,950.911 733.581,941.744 721.5,936C 714.235,933.747 706.901,931.747 699.5,930C 694.945,926.555 689.945,923.888 684.5,922C 668.249,916.513 651.582,913.847 634.5,914C 633.424,915.726 633.257,917.559 634,919.5C 639.041,928.951 642.707,938.951 645,949.5C 644.94,961.512 647.607,972.845 653,983.5C 656.729,988.026 661.563,990.359 667.5,990.5C 668.641,992.421 668.808,994.421 668,996.5C 666.167,998.333 664.333,1000.17 662.5,1002C 655.348,1004.94 648.515,1008.44 642,1012.5C 638.675,1018.42 636.342,1024.76 635,1031.5C 632.507,1037.16 629.507,1042.49 626,1047.5C 610,1066.17 594,1084.83 578,1103.5C 574.734,1107.03 572.234,1111.03 570.5,1115.5C 570.608,1116.44 570.941,1117.28 571.5,1118C 584.917,1124.86 598.584,1125.2 612.5,1119C 624.936,1113.12 637.603,1107.78 650.5,1103C 666.651,1100.5 679.818,1105.66 690,1118.5C 697.798,1131.27 697.298,1143.6 688.5,1155.5C 686.118,1158.86 683.451,1159.2 680.5,1156.5C 677.192,1148.53 671.526,1142.86 663.5,1139.5C 660.567,1140.93 658.067,1142.93 656,1145.5C 652.618,1153.1 648.118,1159.94 642.5,1166C 635.42,1168.77 628.086,1169.77 620.5,1169C 596.342,1165.21 572.008,1163.71 547.5,1164.5C 547.623,1180.39 544.123,1195.39 537,1209.5C 532.704,1216.14 526.537,1219.64 518.5,1220C 513.426,1223.98 510.259,1229.15 509,1235.5C 509.283,1242.46 507.783,1248.96 504.5,1255C 501.537,1256.85 498.537,1256.85 495.5,1255C 489.75,1249.67 485.916,1243.17 484,1235.5C 479.284,1221.45 477.951,1207.11 480,1192.5C 481.563,1186.61 484.396,1181.45 488.5,1177C 476.955,1179.46 465.289,1181.8 453.5,1184C 451.051,1184.72 448.717,1185.72 446.5,1187C 444.766,1202.55 436.1,1208.89 420.5,1206C 418.122,1205.49 415.788,1204.82 413.5,1204C 406.646,1200.41 400.313,1196.07 394.5,1191C 392.086,1189.12 389.419,1188.45 386.5,1189C 383.469,1191.56 381.302,1194.73 380,1198.5C 378.339,1205.44 377.006,1212.44 376,1219.5C 370.952,1222.4 366.285,1221.73 362,1217.5C 354.877,1206.17 352.544,1193.83 355,1180.5C 360.447,1166.05 370.613,1156.88 385.5,1153C 386.804,1152.2 387.471,1151.03 387.5,1149.5C 386.181,1141.02 382.848,1133.52 377.5,1127C 376.167,1126.33 374.833,1125.67 373.5,1125C 370.983,1124.74 368.65,1125.41 366.5,1127C 363.5,1130.67 360.5,1134.33 357.5,1138C 354.335,1140.13 351.335,1139.96 348.5,1137.5C 346.527,1134.75 345.027,1131.75 344,1128.5C 339.677,1125.6 334.844,1124.26 329.5,1124.5C 326.408,1124.51 323.408,1125.01 320.5,1126C 319.299,1126.9 318.465,1128.07 318,1129.5C 319.495,1143.03 313.995,1152.2 301.5,1157C 294.5,1157.33 287.5,1157.67 280.5,1158C 280,1158.5 279.5,1159 279,1159.5C 277.473,1165.41 277.139,1171.41 278,1177.5C 278.93,1180.36 280.597,1182.69 283,1184.5C 284.363,1190.34 282.03,1192.67 276,1191.5C 269.351,1191.53 264.017,1188.86 260,1183.5C 257.268,1179.76 254.934,1175.76 253,1171.5C 248.86,1159.41 244.527,1147.41 240,1135.5C 239.097,1134.3 237.931,1133.47 236.5,1133C 229.776,1132.23 223.11,1132.56 216.5,1134C 206.953,1137.11 197.62,1140.77 188.5,1145C 178.168,1146.75 169.668,1143.58 163,1135.5C 161.209,1132.01 159.876,1128.34 159,1124.5C 157.587,1122.59 155.753,1121.25 153.5,1120.5C 149.944,1121.86 146.778,1123.86 144,1126.5C 140.54,1132.59 136.706,1138.42 132.5,1144C 126.82,1147.9 121.986,1147.07 118,1141.5C 114.123,1132.26 113.789,1122.93 117,1113.5C 118.643,1110.04 120.81,1107.04 123.5,1104.5C 127.167,1101.5 130.5,1098.17 133.5,1094.5C 136.138,1091.38 139.472,1089.21 143.5,1088C 151.438,1086.8 159.438,1086.14 167.5,1086C 170.767,1086.06 172.934,1084.56 174,1081.5C 176.108,1074.97 176.775,1068.31 176,1061.5C 175.5,1059.67 174.333,1058.5 172.5,1058C 168.705,1057.16 165.039,1057.5 161.5,1059C 158.817,1065.84 154.484,1071.34 148.5,1075.5C 138.771,1070.85 135.271,1063.19 138,1052.5C 141.57,1041.93 148.737,1035.1 159.5,1032C 179.361,1029.28 197.361,1033.95 213.5,1046C 222.444,1055.28 232.778,1062.61 244.5,1068C 253.845,1071.74 263.511,1073.4 273.5,1073C 279.561,1070.1 285.228,1066.6 290.5,1062.5C 294.167,1060.83 296.833,1058.17 298.5,1054.5C 312.519,1038.32 324.186,1020.49 333.5,1001C 326.191,964.835 321.024,928.335 318,891.5C 309.043,853.256 292.376,818.923 268,788.5C 247.926,750.416 220.593,718.416 186,692.5C 181.798,684.796 176.631,677.796 170.5,671.5C 142.167,653.167 118.833,629.833 100.5,601.5C 95.7579,599.142 90.9245,599.142 86,601.5C 85,600.833 84,600.167 83,599.5C 81.8667,588.229 80.8667,576.896 80,565.5C 79.3333,563.5 78.6667,561.5 78,559.5C 72.9474,553.448 68.2807,547.115 64,540.5C 63.3916,537.183 62.8916,533.849 62.5,530.5C 63.8866,520.532 64.3866,510.532 64,500.5C 63.586,500.043 63.086,499.709 62.5,499.5C 59.2465,501.546 55.7465,502.879 52,503.5C 50.8333,503.167 49.6667,502.833 48.5,502.5C 42.0487,490.708 39.382,478.041 40.5,464.5C 40.8517,451.15 41.5184,437.817 42.5,424.5C 43.3789,415.094 40.0455,407.594 32.5,402C 28.1269,398.814 23.4602,396.147 18.5,394C 16.9512,392.786 15.7845,391.286 15,389.5C 14.3333,385.833 14.3333,382.167 15,378.5C 20.1775,361.129 28.6775,345.796 40.5,332.5C 39.4729,330.976 37.9729,330.309 36,330.5C 27.0409,333.637 23.7076,330.637 26,321.5C 38.3821,302.615 53.2155,285.782 70.5,271C 75.2583,267.976 80.0916,265.143 85,262.5C 85.704,260.722 86.204,258.888 86.5,257C 85.2347,251.142 85.2347,245.309 86.5,239.5C 89.497,238.524 92.497,238.69 95.5,240C 106.103,243.868 116.77,247.534 127.5,251C 137.964,251.967 147.631,249.634 156.5,244C 165.032,236.718 165.532,228.885 158,220.5C 151.104,213.8 142.938,209.3 133.5,207C 110.447,202.635 88.78,194.635 68.5,183C 58.7618,174.656 56.9285,164.823 63,153.5C 65.6534,150.806 68.8201,149.973 72.5,151C 79.8128,155.636 87.1461,160.302 94.5,165C 116.03,174.566 138.363,181.4 161.5,185.5C 166.68,186.815 172.014,186.815 177.5,185.5C 177.376,184.893 177.043,184.56 176.5,184.5C 146.084,172.293 117.084,157.459 89.5,140C 82.6253,134.793 76.7919,128.626 72,121.5C 71.5065,119.866 71.3398,118.199 71.5,116.5C 73.1992,116.34 74.8659,116.506 76.5,117C 88.5,123.667 100.5,130.333 112.5,137C 129.135,142.726 146.135,146.393 163.5,148C 154.492,138.663 143.492,133.33 130.5,132C 115.286,122.453 103.119,109.953 94,94.5C 90.3581,89.8535 85.8581,86.3535 80.5,84C 76.3749,83.1462 72.3749,83.4796 68.5,85C 63.5207,90.3106 58.1874,95.3106 52.5,100C 50.212,100.418 48.212,99.7509 46.5,98C 33.2868,79.2718 34.6201,61.7718 50.5,45.5C 53.5,43.1667 56.1667,40.5 58.5,37.5C 65.0463,32.3914 72.3796,28.558 80.5,26C 109.849,15.9209 139.516,14.9209 169.5,23C 185.91,27.1366 201.91,32.4699 217.5,39C 248.833,53.3333 280.167,67.6667 311.5,82C 320.956,85.4472 330.622,88.1139 340.5,90C 341.517,91.0495 341.684,92.2161 341,93.5C 334.563,99.0355 327.063,101.702 318.5,101.5C 318.343,102.873 318.51,104.207 319,105.5C 334.65,129.638 345.483,155.805 351.5,184C 351.385,185.895 350.718,187.562 349.5,189C 346.247,190.036 342.914,190.703 339.5,191C 338.299,191.903 337.465,193.069 337,194.5C 336.369,215.585 336.869,236.585 338.5,257.5 Z M 475.5,943.5 C 477.129,944.625 478.629,945.959 480,947.5C 482.595,954.526 486.095,961.026 490.5,967C 492.329,967.273 493.829,968.107 495,969.5C 495.626,975.462 498.626,979.795 504,982.5C 504.667,983.833 505.333,985.167 506,986.5C 511.315,1008.57 515.148,1030.91 517.5,1053.5C 517.723,1066.61 514.223,1078.61 507,1089.5C 501.182,1097.32 494.682,1104.48 487.5,1111C 482.457,1115.47 476.79,1116.8 470.5,1115C 467.71,1112.79 466.877,1109.96 468,1106.5C 472.878,1102.55 475.044,1097.38 474.5,1091C 474.503,1078.33 468.169,1071.33 455.5,1070C 449.201,1069.08 442.868,1068.58 436.5,1068.5C 415.093,1069.69 393.76,1071.69 372.5,1074.5C 369.097,1074.44 365.764,1073.94 362.5,1073C 362.043,1072.59 361.709,1072.09 361.5,1071.5C 364.316,1064.85 368.149,1058.85 373,1053.5C 380.5,1044.67 388.667,1036.5 397.5,1029C 399.976,1029.75 402.309,1031.08 404.5,1033C 414.685,1035.27 424.685,1034.61 434.5,1031C 438.662,1028.19 441.495,1024.36 443,1019.5C 445.127,1012.53 447.127,1005.53 449,998.5C 452.345,992.825 457.178,988.992 463.5,987C 465.617,985.269 467.117,983.102 468,980.5C 469.573,970.538 470.906,960.538 472,950.5C 472.653,947.861 473.82,945.527 475.5,943.5 Z M 207.5,1087.5 C 211.182,1087.33 214.848,1087.5 218.5,1088C 220.116,1088.62 221.449,1089.62 222.5,1091C 215.833,1095.67 209.167,1095.67 202.5,1091C 203.955,1089.37 205.622,1088.21 207.5,1087.5 Z M 434.5,1102.5 C 443.496,1103 448.329,1107.66 449,1116.5C 443.036,1114.68 438.036,1111.35 434,1106.5C 433.421,1105.07 433.588,1103.74 434.5,1102.5 Z"/></g>
<g><path style="opacity:1" fill="#f0f0f0" d="M 254.5,413.5 C 260.5,414.167 266.5,414.833 272.5,415.5C 267.072,420.428 262.572,426.095 259,432.5C 257.98,436.71 258.98,440.377 262,443.5C 267.308,427.254 278.474,420.921 295.5,424.5C 313.991,426.659 332.325,425.826 350.5,422C 399.606,408.195 439.439,381.028 470,340.5C 488.986,313.816 505.986,285.816 521,256.5C 537.268,218.763 547.601,179.43 552,138.5C 553.574,128.772 556.907,119.772 562,111.5C 581.875,91.1412 605.042,75.6412 631.5,65C 646.981,62.2284 661.981,63.8951 676.5,70C 683.658,73.4117 690.658,77.0784 697.5,81C 727.775,103.265 755.608,128.432 781,156.5C 798.732,178.966 815.732,201.966 832,225.5C 838.428,235.352 844.095,245.685 849,256.5C 856.609,284.27 863.276,312.27 869,340.5C 874.358,378.626 882.025,416.292 892,453.5C 895.293,462.415 898.293,471.415 901,480.5C 905.638,513.022 911.305,545.355 918,577.5C 933.821,631.782 949.487,686.115 965,740.5C 982.462,789.754 1003.46,837.421 1028,883.5C 1028.67,885.167 1028.67,886.833 1028,888.5C 1027.44,889.022 1026.77,889.355 1026,889.5C 1020.66,887.48 1015.82,884.647 1011.5,881C 985.26,859.428 961.76,835.261 941,808.5C 912.626,762.759 887.626,715.092 866,665.5C 858.394,643.347 850.394,621.347 842,599.5C 832.457,556.952 823.624,514.285 815.5,471.5C 815.608,467.673 816.442,464.007 818,460.5C 821.195,453.247 824.195,445.914 827,438.5C 827.523,436.777 828.523,435.444 830,434.5C 836.148,442.119 841.815,450.119 847,458.5C 853.742,464.971 858.742,472.638 862,481.5C 865.267,488.968 867.934,496.635 870,504.5C 870.301,512.671 871.634,520.671 874,528.5C 883.933,562.298 894.266,595.965 905,629.5C 905.333,629.833 905.667,630.167 906,630.5C 906.167,628.5 906.333,626.5 906.5,624.5C 904.274,609.317 901.107,594.317 897,579.5C 892.461,566.218 888.128,552.884 884,539.5C 880.87,519.718 877.203,500.052 873,480.5C 870.746,472.66 867.413,465.327 863,458.5C 857.291,452.46 851.957,446.126 847,439.5C 841.665,430.162 838.332,420.162 837,409.5C 836.906,394.479 836.74,379.479 836.5,364.5C 834.631,367.052 832.631,369.552 830.5,372C 818.919,371.381 814.419,365.214 817,353.5C 818.333,348.167 819.667,342.833 821,337.5C 826.414,321.588 832.414,305.921 839,290.5C 840.46,281.434 839.293,272.768 835.5,264.5C 835.167,264.167 834.833,263.833 834.5,263.5C 834.1,273.145 832.267,282.478 829,291.5C 828.167,292.333 827.333,293.167 826.5,294C 814.63,297.159 803.797,294.992 794,287.5C 794.448,272.492 799.448,259.159 809,247.5C 811.891,242.501 812.891,237.167 812,231.5C 810.933,229.717 809.433,229.217 807.5,230C 806.67,232.802 805.837,235.635 805,238.5C 801.333,243.5 797.667,248.5 794,253.5C 795.334,263.848 792.167,272.348 784.5,279C 778.297,279.237 775.797,282.404 777,288.5C 780.154,291.652 782.487,295.319 784,299.5C 784.81,317.782 781.144,335.115 773,351.5C 767.068,360.766 759.235,367.932 749.5,373C 745.88,373.841 742.546,373.174 739.5,371C 732.192,364.882 728.859,357.049 729.5,347.5C 731.856,325.899 733.356,304.232 734,282.5C 734.286,276.493 736.453,271.327 740.5,267C 741.833,266.333 743.167,266.333 744.5,267C 749.833,271.667 755.167,276.333 760.5,281C 764.262,283.47 768.262,283.97 772.5,282.5C 756.04,271.601 749.54,256.601 753,237.5C 758,226.167 763,214.833 768,203.5C 768.667,199.833 768.667,196.167 768,192.5C 764.184,184.869 759.851,177.536 755,170.5C 754.333,174.833 754.333,179.167 755,183.5C 756.251,188.313 757.751,192.98 759.5,197.5C 757.475,206.226 754.308,214.559 750,222.5C 748.604,224.527 746.938,224.86 745,223.5C 741.451,217.305 739.451,210.638 739,203.5C 735.841,200.659 733.508,201.326 732,205.5C 731.497,211.672 728.997,216.838 724.5,221C 720.448,224.483 716.615,224.317 713,220.5C 711.107,216.91 710.273,213.077 710.5,209C 714.92,179.398 714.42,149.898 709,120.5C 707.239,113.965 703.739,108.631 698.5,104.5C 698.167,105.333 697.833,106.167 697.5,107C 699.745,114.4 701.578,121.9 703,129.5C 700.895,142.69 702.562,155.357 708,167.5C 709.31,174.871 708.31,181.871 705,188.5C 700.624,191.986 695.791,192.486 690.5,190C 679.667,183.751 669,177.251 658.5,170.5C 658.264,157.191 658.098,143.857 658,130.5C 657.995,127.771 656.829,125.771 654.5,124.5C 653.914,124.709 653.414,125.043 653,125.5C 652.667,133.5 652.333,141.5 652,149.5C 651.477,151.223 650.477,152.556 649,153.5C 646.947,151.75 645.114,149.75 643.5,147.5C 641.254,154.594 643.088,160.261 649,164.5C 649.667,165.833 649.667,167.167 649,168.5C 645.151,174.344 641.318,180.177 637.5,186C 638.886,189.005 640.886,189.338 643.5,187C 645.833,184.667 648.167,182.333 650.5,180C 656.58,180.024 662.246,181.691 667.5,185C 677.334,190.749 687.001,196.749 696.5,203C 700.888,207.223 702.554,212.389 701.5,218.5C 701.628,225.453 700.294,232.12 697.5,238.5C 695.157,239.725 693.323,239.059 692,236.5C 686.255,224.677 680.255,213.01 674,201.5C 673.631,212.916 675.131,224.083 678.5,235C 678.415,236.107 678.081,237.107 677.5,238C 669.982,238.514 665.149,235.014 663,227.5C 661.363,222.286 660.363,216.953 660,211.5C 658.951,210.483 657.784,210.316 656.5,211C 654.962,213.928 654.296,217.094 654.5,220.5C 656.88,229.39 655.713,237.724 651,245.5C 646,251.167 641,256.833 636,262.5C 631.672,253.839 626.838,245.506 621.5,237.5C 619.858,244.789 620.691,251.789 624,258.5C 624.667,260.167 624.667,261.833 624,263.5C 619.917,270.668 615.584,277.668 611,284.5C 609.257,287.957 608.257,291.623 608,295.5C 600.732,296.581 597.066,293.248 597,285.5C 594.196,284.298 592.196,282.298 591,279.5C 589.906,271.067 588.406,262.734 586.5,254.5C 584.741,253.246 583.241,253.579 582,255.5C 581.403,263.789 582.736,271.789 586,279.5C 589.473,291.129 595.473,301.129 604,309.5C 624.115,344.233 629.449,381.233 620,420.5C 619.293,422.081 618.46,423.581 617.5,425C 616.216,425.684 615.049,425.517 614,424.5C 613.452,411.161 613.619,397.828 614.5,384.5C 614.333,380.5 614.167,376.5 614,372.5C 613.581,371.328 612.915,370.328 612,369.5C 610.417,371.911 609.417,374.578 609,377.5C 608.064,391.987 606.064,406.32 603,420.5C 601.708,426.211 598.208,429.211 592.5,429.5C 590.976,409.769 586.476,390.769 579,372.5C 577.732,370.283 576.232,368.283 574.5,366.5C 574.167,368.333 573.833,370.167 573.5,372C 578.12,393.068 578.62,414.235 575,435.5C 573.564,443.49 570.397,450.657 565.5,457C 558.581,461.97 550.914,463.637 542.5,462C 540.714,461.215 539.214,460.049 538,458.5C 539.344,425.772 538.344,393.105 535,360.5C 534.747,357.21 533.747,354.21 532,351.5C 530.764,358.368 529.764,365.368 529,372.5C 526.83,378.809 523.663,384.476 519.5,389.5C 523.507,397.178 526.674,405.178 529,413.5C 529.667,423.833 529.667,434.167 529,444.5C 528.237,451.136 525.737,456.969 521.5,462C 515.41,465.187 509.076,467.854 502.5,470C 498.5,473.333 494.5,476.667 490.5,480C 470.256,478.747 461.423,467.913 464,447.5C 467.152,438.402 468.152,429.069 467,419.5C 466.385,417.884 465.385,416.551 464,415.5C 463.843,425.154 460.509,433.487 454,440.5C 453.042,442.199 452.542,444.033 452.5,446C 455.861,457.087 459.028,468.254 462,479.5C 464.721,490.879 461.221,499.713 451.5,506C 447.803,507.899 444.136,507.899 440.5,506C 429.822,498.472 423.322,488.306 421,475.5C 414.532,484.571 410.198,494.571 408,505.5C 404.643,509.356 401.476,513.356 398.5,517.5C 410.474,518.381 417.307,512.714 419,500.5C 422.064,501.899 424.064,504.232 425,507.5C 429.318,534.455 437.652,560.122 450,584.5C 455.562,600.546 450.395,611.713 434.5,618C 430.928,619.405 427.261,619.738 423.5,619C 412.199,614.701 403.699,607.201 398,596.5C 389.746,584.404 385.079,571.071 384,556.5C 383.439,553.71 382.106,551.377 380,549.5C 379.211,543.763 379.544,538.097 381,532.5C 382.87,528.104 384.703,523.771 386.5,519.5C 377.628,520.478 370.461,517.478 365,510.5C 361.22,504.274 358.553,497.607 357,490.5C 355.657,481.741 353.99,473.074 352,464.5C 351.535,465.931 350.701,467.097 349.5,468C 346.54,467.68 343.54,467.68 340.5,468C 339.426,468.739 338.759,469.739 338.5,471C 347.513,482.204 351.346,495.037 350,509.5C 342.438,513.161 336.105,511.494 331,504.5C 325.86,495.219 321.527,485.552 318,475.5C 317.972,485.008 318.472,494.508 319.5,504C 320.787,514.061 316.787,517.395 307.5,514C 294.749,508.013 286.583,498.179 283,484.5C 279.454,480.132 277.287,480.632 276.5,486C 278.604,494.144 280.604,502.311 282.5,510.5C 282.351,512.32 281.684,513.82 280.5,515C 275.959,516.114 271.959,515.114 268.5,512C 264.289,505.747 260.455,499.247 257,492.5C 255.54,489.79 253.54,489.124 251,490.5C 248.807,501.588 252.307,510.421 261.5,517C 263.715,518.044 266.048,518.71 268.5,519C 274.227,530.929 275.893,543.429 273.5,556.5C 271.926,557.631 270.259,557.798 268.5,557C 256.51,550.348 246.343,541.515 238,530.5C 241.189,519.485 242.189,508.151 241,496.5C 240.869,491.563 238.702,487.897 234.5,485.5C 232.473,486.693 230.973,488.36 230,490.5C 229.667,500.167 229.333,509.833 229,519.5C 227.003,524.166 224.503,528.499 221.5,532.5C 224.897,536.045 228.897,538.879 233.5,541C 242.151,549.98 249.651,559.814 256,570.5C 258.833,574.667 262.333,578.167 266.5,581C 269.038,581.867 271.038,581.201 272.5,579C 270.71,576.836 268.544,575.002 266,573.5C 264.779,568.03 266.946,564.53 272.5,563C 275.5,562.333 278.5,562.333 281.5,563C 283.218,565.627 284.718,568.46 286,571.5C 297.354,580.404 310.187,586.237 324.5,589C 329.731,591.232 333.231,595.065 335,600.5C 336.272,618.16 340.939,634.827 349,650.5C 354.75,658.967 362.25,665.467 371.5,670C 373.667,672.167 375.833,674.333 378,676.5C 379.257,681.578 377.257,683.911 372,683.5C 364.972,682.05 358.139,680.216 351.5,678C 350.743,680.848 351.743,683.181 354.5,685C 357.382,686.608 360.382,687.941 363.5,689C 369.5,689.333 375.5,689.667 381.5,690C 386.167,693.333 390.167,697.333 393.5,702C 409.746,716.625 428.746,722.958 450.5,721C 455.644,718.763 460.977,717.096 466.5,716C 473.503,715.94 480.503,715.94 487.5,716C 490.167,714.667 492.833,713.333 495.5,712C 501.383,705.614 507.716,699.781 514.5,694.5C 521.847,699.175 529.514,703.342 537.5,707C 552.138,711.787 563.971,707.954 573,695.5C 574.045,692.564 574.879,689.564 575.5,686.5C 576.723,685.386 578.056,685.219 579.5,686C 584.619,688.785 588.786,692.618 592,697.5C 598.169,706.5 603.836,715.834 609,725.5C 611.139,728.939 613.639,732.106 616.5,735C 617.449,735.617 618.282,735.451 619,734.5C 619.667,732.167 619.667,729.833 619,727.5C 614.882,719.728 610.382,712.228 605.5,705C 606.577,703.457 607.911,703.457 609.5,705C 612.081,707.536 614.914,709.702 618,711.5C 619.092,710.704 620.259,710.037 621.5,709.5C 641.251,719.384 658.918,732.217 674.5,748C 694.743,762.906 714.41,778.573 733.5,795C 740.167,799.667 746.833,804.333 753.5,809C 837.64,853.554 919.307,901.887 998.5,954C 1006.35,959.759 1014.01,965.759 1021.5,972C 1034.08,984.256 1038.25,999.089 1034,1016.5C 1023.1,1004.93 1011.6,994.101 999.5,984C 997.091,982.293 994.425,981.46 991.5,981.5C 991.841,984.516 993.007,987.182 995,989.5C 1006.58,1000.74 1016.25,1013.41 1024,1027.5C 1026.39,1034.85 1025.73,1041.85 1022,1048.5C 996.014,1015.84 966.181,987.344 932.5,963C 930.004,961.92 927.67,960.586 925.5,959C 924.365,958.251 923.365,958.417 922.5,959.5C 928.716,967.214 936.05,973.714 944.5,979C 959.696,993.862 974.529,1009.03 989,1024.5C 998.569,1035.41 1006.57,1047.41 1013,1060.5C 1013.67,1063.83 1013.67,1067.17 1013,1070.5C 1004.97,1078.1 996.133,1084.6 986.5,1090C 966.181,1085.51 947.514,1077.18 930.5,1065C 869.633,1012.47 813.133,955.633 761,894.5C 756.085,886.4 758.418,882.4 768,882.5C 784.661,884.418 799.495,890.585 812.5,901C 814.259,901.798 815.926,901.631 817.5,900.5C 807.702,892.868 799.036,884.035 791.5,874C 781.694,869.201 771.36,866.867 760.5,867C 758.926,868.826 758.093,870.993 758,873.5C 757.439,874.022 756.772,874.355 756,874.5C 747.298,869.798 739.131,864.298 731.5,858C 728.394,856.364 725.227,854.864 722,853.5C 721.5,853.833 721,854.167 720.5,854.5C 722.086,857.341 723.92,860.007 726,862.5C 726.49,863.793 726.657,865.127 726.5,866.5C 715.096,862.284 705.429,855.451 697.5,846C 693.989,845.548 693.489,846.715 696,849.5C 705.908,861.096 717.741,869.929 731.5,876C 737.879,884.59 744.379,893.09 751,901.5C 806.53,961.364 864.364,1018.86 924.5,1074C 932.511,1080.83 939.177,1088.67 944.5,1097.5C 943.811,1099.35 942.478,1100.52 940.5,1101C 923.712,1102.22 908.045,1098.55 893.5,1090C 878.266,1080.21 863.932,1069.21 850.5,1057C 831.333,1039.17 812.833,1020.67 795,1001.5C 787.288,992.79 779.955,983.79 773,974.5C 764.472,966.644 757.472,957.644 752,947.5C 723.265,916.108 697.598,882.441 675,846.5C 668.532,839.03 661.698,831.864 654.5,825C 652.559,823.097 650.226,822.264 647.5,822.5C 648.872,829.25 651.372,835.583 655,841.5C 661.945,852.111 669.278,862.444 677,872.5C 682.041,880.746 685.541,889.579 687.5,899C 687.549,903.151 685.549,904.484 681.5,903C 669.809,896.311 661.309,886.811 656,874.5C 654.903,870.476 655.736,866.976 658.5,864C 655.236,862.009 651.903,860.009 648.5,858C 645.707,854.919 643.54,851.419 642,847.5C 638.961,844.149 635.294,841.816 631,840.5C 629.941,840.63 629.108,841.13 628.5,842C 632.272,848.768 636.439,855.268 641,861.5C 642.916,864.898 643.916,868.565 644,872.5C 651.619,876.069 654.786,882.069 653.5,890.5C 652.127,890.657 650.793,890.49 649.5,890C 644,884.5 638.5,879 633,873.5C 627.147,864.46 621.814,855.127 617,845.5C 609.642,837.144 601.976,829.144 594,821.5C 591.486,817.475 589.819,813.141 589,808.5C 581.388,793.557 570.388,781.89 556,773.5C 552.836,773.767 551.836,775.433 553,778.5C 560.122,781.61 566.122,786.276 571,792.5C 574,796.5 577,800.5 580,804.5C 585.748,814.997 591.748,825.33 598,835.5C 604.333,843.167 610.667,850.833 617,858.5C 619.543,862.931 620.043,867.598 618.5,872.5C 611.186,867.019 604.686,860.686 599,853.5C 592.279,842.724 586.612,831.391 582,819.5C 572.64,803.138 560.14,789.638 544.5,779C 540.747,777.011 536.747,776.178 532.5,776.5C 532.33,777.822 532.663,778.989 533.5,780C 547.376,788.37 559.876,798.537 571,810.5C 574.077,814.631 575.244,819.298 574.5,824.5C 572.143,824.663 569.81,824.497 567.5,824C 559.073,819.453 550.406,815.453 541.5,812C 538.833,811.333 536.167,811.333 533.5,812C 536.468,815.147 539.802,817.814 543.5,820C 557.623,825.803 570.123,833.97 581,844.5C 583.035,847.561 584.201,850.895 584.5,854.5C 577.054,851.685 569.387,849.685 561.5,848.5C 561.393,850.903 562.393,852.736 564.5,854C 570.187,854.928 574.687,857.761 578,862.5C 582.249,871.084 588.749,877.25 597.5,881C 608.516,888.994 616.849,898.994 622.5,911C 623.793,911.49 625.127,911.657 626.5,911.5C 626.618,917.591 627.451,923.591 629,929.5C 633.764,944.886 637.097,960.553 639,976.5C 640.898,983.292 644.564,988.958 650,993.5C 650.667,994.5 650.667,995.5 650,996.5C 643.519,999.972 638.186,998.639 634,992.5C 630.221,987.277 627.221,981.61 625,975.5C 623.553,964.154 619.553,953.821 613,944.5C 611.989,943.663 610.822,943.33 609.5,943.5C 613.235,954.888 616.069,966.555 618,978.5C 622.65,987.449 626.316,996.782 629,1006.5C 631.282,1017.48 628.449,1026.81 620.5,1034.5C 618.717,1030.7 617.55,1026.7 617,1022.5C 616.252,1020.67 615.252,1019 614,1017.5C 613.085,1018.33 612.419,1019.33 612,1020.5C 611.892,1030.23 611.225,1039.89 610,1049.5C 609.163,1051.01 607.996,1051.51 606.5,1051C 604.255,1046.68 602.422,1042.18 601,1037.5C 598.478,1034.67 596.478,1035.01 595,1038.5C 594.667,1045.17 594.333,1051.83 594,1058.5C 593.612,1059.43 592.945,1060.09 592,1060.5C 589.346,1059.18 587.346,1057.18 586,1054.5C 582.471,1046.25 579.138,1037.91 576,1029.5C 576.331,1039.31 576.831,1049.14 577.5,1059C 577.808,1072.01 574.642,1072.84 568,1061.5C 564.412,1055.32 561.078,1048.99 558,1042.5C 556.743,1040.25 554.91,1038.92 552.5,1038.5C 553.056,1043.69 552.056,1048.53 549.5,1053C 545.835,1053.39 543.002,1051.89 541,1048.5C 534.923,1038.35 529.923,1027.68 526,1016.5C 522.614,1004.28 518.614,992.284 514,980.5C 507.521,969.707 501.521,958.707 496,947.5C 477.013,922.197 459.013,896.197 442,869.5C 428.186,854.024 415.52,837.691 404,820.5C 399.833,816.333 395.667,812.167 391.5,808C 389.35,806.589 387.016,805.755 384.5,805.5C 384.884,809.604 386.384,813.271 389,816.5C 394.649,821.14 399.149,826.64 402.5,833C 401.423,834.543 400.089,834.543 398.5,833C 385.968,819.806 374.968,805.473 365.5,790C 364.517,789.409 363.85,789.743 363.5,791C 362.667,794.498 361.834,797.998 361,801.5C 360.439,802.022 359.772,802.355 359,802.5C 340.247,792.62 323.247,780.286 308,765.5C 304.016,761.212 302.016,756.212 302,750.5C 303.667,749.5 305.333,748.5 307,747.5C 307.667,746.5 307.667,745.5 307,744.5C 303.167,740.667 299.333,736.833 295.5,733C 294.552,732.517 293.552,732.351 292.5,732.5C 293.084,742.839 293.751,753.173 294.5,763.5C 285.403,761.602 277.903,756.936 272,749.5C 259.783,736.739 249.783,722.406 242,706.5C 240.207,703.705 238.04,701.205 235.5,699C 233.393,698.146 232.059,698.812 231.5,701C 235.542,710.626 238.875,720.459 241.5,730.5C 237.698,729.221 234.531,726.888 232,723.5C 223.67,712.848 216.337,701.514 210,689.5C 208.964,686.247 208.297,682.914 208,679.5C 205.74,674.644 202.74,670.311 199,666.5C 194.839,650.352 186.673,636.518 174.5,625C 173.552,624.517 172.552,624.351 171.5,624.5C 171.953,628.693 173.119,632.693 175,636.5C 180.494,643.487 185.494,650.82 190,658.5C 190.452,661.877 191.118,665.211 192,668.5C 194.971,674.942 197.804,681.442 200.5,688C 200.15,689.257 199.483,689.591 198.5,689C 190.311,680.112 182.478,670.946 175,661.5C 167.554,650.387 159.721,639.554 151.5,629C 150.5,628.5 149.5,628 148.5,627.5C 148.076,631.843 147.743,636.176 147.5,640.5C 127.497,623.831 114.497,602.831 108.5,577.5C 109.116,573.855 109.45,570.188 109.5,566.5C 107.278,566.178 105.444,566.845 104,568.5C 100.621,574.627 97.6212,580.961 95,587.5C 91.8951,568.207 89.2284,548.874 87,529.5C 86.6322,528.09 85.7989,527.09 84.5,526.5C 81.5064,528.662 79.0064,531.328 77,534.5C 76.6667,534.167 76.3333,533.833 76,533.5C 76.1695,512.147 76.8361,490.814 78,469.5C 73.1667,475 68.3333,480.5 63.5,486C 58.7401,488.793 55.5734,487.626 54,482.5C 50.4319,464.414 50.7652,446.414 55,428.5C 59.5818,421.336 63.0818,413.669 65.5,405.5C 65.5472,404 64.8805,403 63.5,402.5C 61.3211,403.757 59.3211,405.257 57.5,407C 55.3646,407.635 53.3646,407.301 51.5,406C 47.4381,401.609 43.7714,396.943 40.5,392C 46.5,384.667 52.5,377.333 58.5,370C 58.1667,369.5 57.8333,369 57.5,368.5C 50.0281,373.472 42.6948,378.639 35.5,384C 31.5256,386.659 27.1923,388.159 22.5,388.5C 23.0076,381.14 25.5076,374.473 30,368.5C 36.6049,358.295 43.9383,348.628 52,339.5C 50.2018,335.821 49.5351,331.821 50,327.5C 51.8333,325 53.6667,322.5 55.5,320C 60.2262,317.31 64.5596,314.144 68.5,310.5C 66.9255,309.369 65.2588,309.202 63.5,310C 55.7233,313.305 47.8899,316.472 40,319.5C 38.4574,318.423 38.4574,317.089 40,315.5C 56.2934,299.124 73.7934,284.29 92.5,271C 95.7095,269.908 98.8761,268.741 102,267.5C 102.315,266.092 101.982,264.759 101,263.5C 98.294,261.129 95.9606,258.463 94,255.5C 93.3886,251.912 94.8886,250.746 98.5,252C 107.19,254.684 115.857,257.35 124.5,260C 132.646,260.991 140.646,260.324 148.5,258C 155.294,254.601 162.294,251.768 169.5,249.5C 171.299,249.577 172.966,250.077 174.5,251C 176.685,253.588 179.352,255.421 182.5,256.5C 187.134,255.433 191.301,253.433 195,250.5C 195.61,245.744 193.61,242.41 189,240.5C 187.19,242.067 186.023,244.067 185.5,246.5C 184.5,247.833 183.5,247.833 182.5,246.5C 178.129,237.532 173.296,228.865 168,220.5C 161.56,212.062 153.394,205.896 143.5,202C 120.961,198.264 99.6276,190.931 79.5,180C 73.101,176.284 70.2677,170.784 71,163.5C 71.414,163.043 71.914,162.709 72.5,162.5C 81.7781,168.973 91.7781,174.14 102.5,178C 118.795,182.824 135.128,187.49 151.5,192C 165.739,196.458 179.739,201.458 193.5,207C 207.38,209.134 215.88,203.3 219,189.5C 217.455,171.925 208.955,158.759 193.5,150C 177.076,141.304 160.076,133.971 142.5,128C 133.724,124.2 125.89,119.033 119,112.5C 110.957,100.12 101.124,89.2865 89.5,80C 81.653,75.8591 73.3196,74.1924 64.5,75C 58.8571,77.1546 53.8571,80.3213 49.5,84.5C 48.3391,80.2047 48.1725,75.8713 49,71.5C 53.2199,59.5554 60.0532,49.3887 69.5,41C 75.7962,37.7402 79.6295,39.5735 81,46.5C 88.31,54.7475 97.1433,60.9142 107.5,65C 111.458,67.234 114.958,70.0673 118,73.5C 119.157,67.6491 116.991,63.4824 111.5,61C 103.549,58.1139 96.7161,53.6139 91,47.5C 90.5172,46.552 90.3505,45.552 90.5,44.5C 109.558,47.0152 127.891,52.1818 145.5,60C 146.316,67.4205 146.816,74.9205 147,82.5C 148.356,89.5487 151.522,95.5487 156.5,100.5C 157.086,100.291 157.586,99.9574 158,99.5C 159.231,91.9108 159.897,84.2441 160,76.5C 161.512,74.0426 162.846,74.0426 164,76.5C 162.26,90.6396 167.093,101.806 178.5,110C 196.066,122.764 212.066,121.097 226.5,105C 228.217,103.441 230.217,102.608 232.5,102.5C 232.856,105.564 232.023,108.231 230,110.5C 226.833,113.667 223.667,116.833 220.5,120C 216.965,121.706 213.298,123.04 209.5,124C 207.081,125.509 206.081,127.675 206.5,130.5C 209.947,130.186 213.28,129.352 216.5,128C 224.5,123.333 232.5,118.667 240.5,114C 246.393,112.938 251.726,114.271 256.5,118C 264.948,120.276 270.948,117.442 274.5,109.5C 272.926,108.369 271.259,108.202 269.5,109C 266.746,112.879 263.079,114.212 258.5,113C 246.975,103.819 234.642,95.8186 221.5,89C 196.833,77 172.167,65 147.5,53C 127.48,43.7449 106.48,38.0782 84.5,36C 102.451,26.916 121.451,23.916 141.5,27C 161.024,29.0381 180.024,33.3714 198.5,40C 230.074,54.1201 261.408,68.7868 292.5,84C 300.955,87.8946 309.622,91.2279 318.5,94C 313.295,96.7898 307.961,99.2898 302.5,101.5C 321.188,126.545 334.855,154.212 343.5,184.5C 342.277,185.614 340.944,185.781 339.5,185C 332.803,180.151 325.47,176.651 317.5,174.5C 317.897,178.737 320.064,181.737 324,183.5C 325.275,185.717 326.275,188.051 327,190.5C 328.536,200.782 328.87,211.115 328,221.5C 327.781,222.938 327.281,224.271 326.5,225.5C 321.453,221.087 317.62,215.754 315,209.5C 313.174,208.159 312.007,208.659 311.5,211C 317.706,226.077 324.706,240.744 332.5,255C 330.833,255.667 329.167,255.667 327.5,255C 322.844,252.422 318.011,250.255 313,248.5C 311.739,248.759 310.739,249.426 310,250.5C 308.116,261.153 304.449,271.153 299,280.5C 289.906,293.024 281.572,306.024 274,319.5C 271.066,330.059 270.733,340.726 273,351.5C 275.691,357.197 279.525,362.03 284.5,366C 304.406,382.54 325.906,396.706 349,408.5C 348.805,410.745 347.638,412.578 345.5,414C 342.56,415.152 339.56,416.152 336.5,417C 328.507,417.5 320.507,417.666 312.5,417.5C 313.641,414.167 315.474,411.167 318,408.5C 318.643,402.463 316.143,398.13 310.5,395.5C 309.914,395.709 309.414,396.043 309,396.5C 308.709,401.189 308.709,405.856 309,410.5C 304.833,406.333 300.667,402.167 296.5,398C 294.783,396.441 292.783,395.608 290.5,395.5C 291.263,401.365 293.429,406.698 297,411.5C 298.261,417.08 296.094,418.913 290.5,417C 282.058,411.945 273.058,408.278 263.5,406C 263.182,403.958 263.015,401.791 263,399.5C 261.981,398.313 260.814,397.313 259.5,396.5C 258.102,398.797 256.436,400.963 254.5,403C 241.173,406.808 241.173,410.308 254.5,413.5 Z"/></g>
<g><path style="opacity:0.961" fill="#404040" d="M 58.5,37.5 C 56.1667,40.5 53.5,43.1667 50.5,45.5C 52.1667,41.8333 54.8333,39.1667 58.5,37.5 Z"/></g>
<g><path style="opacity:1" fill="#efefef" d="M 431.5,40.5 C 456.516,39.5364 480.516,44.0364 503.5,54C 526.295,64.2312 548.962,74.7312 571.5,85.5C 566.472,90.8595 561.472,96.1929 556.5,101.5C 541.581,84.3656 522.915,73.3656 500.5,68.5C 500.393,70.9032 501.393,72.7365 503.5,74C 511.869,79.0119 520.869,82.0119 530.5,83C 539.986,91.143 545.986,101.31 548.5,113.5C 547.448,113.649 546.448,113.483 545.5,113C 542.443,110.277 539.11,107.944 535.5,106C 533.888,105.28 532.388,105.446 531,106.5C 530.516,108.913 530.85,111.246 532,113.5C 534.641,117.116 536.474,121.116 537.5,125.5C 537.046,129.12 535.046,131.287 531.5,132C 526.777,132.624 522.11,132.29 517.5,131C 508.196,127.895 498.863,125.228 489.5,123C 497.266,127.768 504.099,133.601 510,140.5C 510.825,142.701 510.325,144.534 508.5,146C 497.963,147.972 487.63,146.972 477.5,143C 469.759,140.961 466.593,136.128 468,128.5C 471.368,124.406 474.202,120.073 476.5,115.5C 474.011,115.702 471.677,115.202 469.5,114C 462.684,105.925 454.017,102.258 443.5,103C 452.24,106.375 457.073,112.542 458,121.5C 450.939,124.388 443.772,126.888 436.5,129C 444.752,131.524 452.419,135.191 459.5,140C 465.208,145.967 470.541,152.134 475.5,158.5C 478.579,155.943 481.579,153.109 484.5,150C 486.5,149.333 488.5,149.333 490.5,150C 496.669,151.834 502.836,153.668 509,155.5C 510.627,155.375 512.127,154.875 513.5,154C 516.86,150.64 520.194,147.306 523.5,144C 535.912,142.098 540.079,147.265 536,159.5C 533.51,172.085 531.51,184.751 530,197.5C 529.443,199.615 528.609,201.615 527.5,203.5C 526.277,204.614 524.944,204.781 523.5,204C 519.941,201.455 517.608,198.121 516.5,194C 516.625,192.373 517.125,190.873 518,189.5C 527.25,182.053 527.75,174.219 519.5,166C 516.55,163.361 513.217,161.527 509.5,160.5C 510.172,165.013 512.005,169.013 515,172.5C 518.088,179.249 515.921,182.249 508.5,181.5C 503.033,180.959 497.7,180.125 492.5,179C 496.333,182.167 500.167,185.333 504,188.5C 506.254,194.658 508.921,200.658 512,206.5C 515.683,209.187 519.017,212.187 522,215.5C 521.944,221.729 520.611,227.729 518,233.5C 516.075,226.984 513.075,220.984 509,215.5C 506.282,212.125 502.949,210.792 499,211.5C 498.333,212.833 498.333,214.167 499,215.5C 501.838,219.172 504.171,223.172 506,227.5C 506.461,236.432 507.628,245.265 509.5,254C 509.655,261.847 505.988,265.514 498.5,265C 484.5,252.333 470.5,239.667 456.5,227C 454.833,226.167 453.167,225.333 451.5,224.5C 451.167,225 450.833,225.5 450.5,226C 451.953,229.072 453.787,231.905 456,234.5C 467.742,246.238 478.742,258.571 489,271.5C 490.476,276.076 490.81,280.743 490,285.5C 489.131,288.394 487.298,289.561 484.5,289C 479.778,279.945 472.778,273.278 463.5,269C 459.592,264.515 455.926,259.848 452.5,255C 450.725,253.561 448.725,252.561 446.5,252C 441.087,250.98 435.754,249.647 430.5,248C 427.438,246.939 424.938,245.106 423,242.5C 420.56,232.864 418.227,223.197 416,213.5C 407.595,186.953 399.595,160.286 392,133.5C 388.738,117.652 387.738,101.652 389,85.5C 394.591,62.083 408.758,47.083 431.5,40.5 Z"/></g>
<g><path style="opacity:0.922" fill="#404040" d="M 404.5,45.5 C 401.167,49.5 397.5,53.1667 393.5,56.5C 396.167,51.8333 399.833,48.1667 404.5,45.5 Z"/></g>
<g><path style="opacity:1" fill="#161616" d="M 452.5,59.5 C 458.572,58.7772 464.072,60.1105 469,63.5C 469.483,64.448 469.649,65.448 469.5,66.5C 463.825,65.9993 458.491,64.3326 453.5,61.5C 452.702,61.0431 452.369,60.3764 452.5,59.5 Z"/></g>
<g><path style="opacity:1" fill="#0a0a0a" d="M 480.5,71.5 C 481.922,71.7086 483.255,72.2086 484.5,73C 494.691,84.7501 506.691,94.0834 520.5,101C 508.12,98.2844 495.953,99.1177 484,103.5C 483.5,103.167 483,102.833 482.5,102.5C 484.483,100.016 486.65,97.6829 489,95.5C 489.781,94.2713 490.281,92.938 490.5,91.5C 486.697,85.0411 483.364,78.3744 480.5,71.5 Z"/></g>
<g><path style="opacity:1" fill="#d8d8d8" d="M 176.5,76.5 C 184.795,77.4079 192.795,79.5745 200.5,83C 202.077,86.4815 201.077,89.1482 197.5,91C 194.167,90.6667 190.833,90.3333 187.5,90C 183.869,97.8763 186.535,102.043 195.5,102.5C 201.801,102.012 206.968,99.3453 211,94.5C 212.768,108.061 206.934,113.227 193.5,110C 178.132,103.763 172.465,92.5966 176.5,76.5 Z"/></g>
<g><path style="opacity:1" fill="#080808" d="M 683.5,127.5 C 685.888,128.219 687.388,129.885 688,132.5C 688.667,138.167 688.667,143.833 688,149.5C 687.887,151.974 686.887,153.974 685,155.5C 682.249,150.583 681.082,145.249 681.5,139.5C 681.34,135.315 682.007,131.315 683.5,127.5 Z"/></g>
<g><path style="opacity:1" fill="#d9d9d9" d="M 93.5,136.5 C 93.7352,135.903 94.2352,135.57 95,135.5C 112.425,143.399 130.591,148.899 149.5,152C 159.773,154.536 169.773,157.869 179.5,162C 184.116,164.56 188.282,167.727 192,171.5C 193.483,174.702 193.817,178.036 193,181.5C 192.275,182.059 191.442,182.392 190.5,182.5C 156.143,171.152 123.81,155.819 93.5,136.5 Z"/></g>
<g><path style="opacity:1" fill="#0d0d0d" d="M 216.5,147.5 C 232.375,155.565 240.875,168.565 242,186.5C 244.887,197.828 242.054,207.328 233.5,215C 231.783,216.559 229.783,217.392 227.5,217.5C 227.338,215.473 227.505,213.473 228,211.5C 230,208.833 232,206.167 234,203.5C 235.446,191.396 233.779,179.729 229,168.5C 224.811,161.445 220.644,154.445 216.5,147.5 Z"/></g>
<g><path style="opacity:1" fill="#080808" d="M 452.5,160.5 C 455.649,160.211 458.649,160.711 461.5,162C 470.251,169.921 474.085,179.754 473,191.5C 471.561,194.102 470.061,196.602 468.5,199C 468.858,201.032 469.692,202.866 471,204.5C 471.976,211.027 469.142,214.36 462.5,214.5C 462.789,211.351 462.289,208.351 461,205.5C 458.335,202.766 455.835,199.932 453.5,197C 456.278,194.5 458.778,191.667 461,188.5C 462.434,184.594 462.767,180.594 462,176.5C 459.408,170.761 456.241,165.427 452.5,160.5 Z"/></g>
<g><path style="opacity:0.413" fill="#5a5a5a" d="M 176.5,184.5 C 177.043,184.56 177.376,184.893 177.5,185.5C 172.014,186.815 166.68,186.815 161.5,185.5C 166.695,185.821 171.695,185.487 176.5,184.5 Z"/></g>
<g><path style="opacity:1" fill="#121212" d="M 218.5,228.5 C 222.138,227.737 223.638,229.07 223,232.5C 219.548,235.976 215.381,237.976 210.5,238.5C 210.608,236.217 211.441,234.217 213,232.5C 215.015,231.303 216.849,229.97 218.5,228.5 Z"/></g>
<g><path style="opacity:1" fill="#141414" d="M 790.5,227.5 C 791.774,231.074 791.607,234.741 790,238.5C 788.736,240.607 786.903,241.607 784.5,241.5C 784.859,236.116 786.859,231.449 790.5,227.5 Z"/></g>
<g><path style="opacity:1" fill="#ededed" d="M 724.5,229.5 C 739.866,226.592 745.366,232.592 741,247.5C 736.709,257.784 729.709,265.451 720,270.5C 715.623,268.109 712.623,264.442 711,259.5C 702.394,243.104 706.894,233.104 724.5,229.5 Z"/></g>
<g><path style="opacity:1" fill="#f0f0f0" d="M 665.5,246.5 C 681.443,244.269 689.609,251.269 690,267.5C 690.811,286.55 690.144,305.55 688,324.5C 685.793,340.71 676.96,351.543 661.5,357C 652.606,359.258 645.106,357.092 639,350.5C 630.471,337.774 623.804,324.108 619,309.5C 618.223,290.225 626.39,276.058 643.5,267C 648.867,261.968 653.867,256.635 658.5,251C 660.898,249.476 663.231,247.976 665.5,246.5 Z"/></g>
<g><path style="opacity:1" fill="#141414" d="M 296.5,246.5 C 297.693,246.97 298.36,247.97 298.5,249.5C 297.881,254.906 295.547,259.406 291.5,263C 287.687,265.596 285.187,264.763 284,260.5C 283.11,257.294 283.443,254.294 285,251.5C 285.941,253.061 287.108,254.395 288.5,255.5C 291.869,253.073 294.536,250.073 296.5,246.5 Z"/></g>
<g><path style="opacity:1" fill="#eeeeee" d="M 423.5,255.5 C 431.64,254.283 438.973,256.116 445.5,261C 459.71,270.877 471.544,283.043 481,297.5C 481.667,299.833 481.667,302.167 481,304.5C 480.275,305.059 479.442,305.392 478.5,305.5C 472.56,303.196 466.893,300.363 461.5,297C 458.634,295.724 455.8,295.557 453,296.5C 452.582,298.788 453.249,300.788 455,302.5C 458.81,306.4 462.81,310.066 467,313.5C 466.677,319.529 463.511,323.695 457.5,326C 452.345,327.851 447.012,329.018 441.5,329.5C 445.146,333.632 448.146,338.132 450.5,343C 449.333,348.509 446.166,352.342 441,354.5C 432.881,350.553 428.548,344.219 428,335.5C 429.829,333.844 431.163,331.844 432,329.5C 432.667,324.167 432.667,318.833 432,313.5C 431.333,312.167 430.667,310.833 430,309.5C 425.728,307.226 422.061,304.226 419,300.5C 416.165,295.657 415.832,290.657 418,285.5C 419.62,283.274 421.786,281.94 424.5,281.5C 430.215,284.375 435.548,287.875 440.5,292C 442.92,292.915 444.253,292.082 444.5,289.5C 441.261,283.187 436.261,278.687 429.5,276C 422.104,270.654 420.104,263.821 423.5,255.5 Z"/></g>
<g><path style="opacity:0.728" fill="#535353" d="M 338.5,257.5 C 338.5,259.5 338.5,261.5 338.5,263.5C 333.833,263.5 329.167,263.5 324.5,263.5C 328.634,262.515 332.968,262.182 337.5,262.5C 337.216,260.585 337.549,258.919 338.5,257.5 Z"/></g>
<g><path style="opacity:1" fill="#ededed" d="M 702.5,261.5 C 707.015,268.527 712.515,274.86 719,280.5C 722.137,285.108 724.47,290.108 726,295.5C 727.655,315.253 724.655,334.253 717,352.5C 711.973,358.714 706.64,359.047 701,353.5C 698.867,349.768 697.534,345.768 697,341.5C 695.897,315.706 697.231,290.04 701,264.5C 701.513,263.473 702.013,262.473 702.5,261.5 Z"/></g>
<g><path style="opacity:1" fill="#151515" d="M 102.5,272.5 C 104.144,272.286 105.644,272.62 107,273.5C 107.495,275.473 107.662,277.473 107.5,279.5C 104.482,279.2 102.482,277.533 101.5,274.5C 101.863,273.817 102.196,273.15 102.5,272.5 Z"/></g>
<g><path style="opacity:1" fill="#0d0d0d" d="M 565.5,272.5 C 572.108,273.285 574.608,276.952 573,283.5C 568.996,291.6 566.33,290.933 565,281.5C 564.366,278.445 564.532,275.445 565.5,272.5 Z"/></g>
<g><path style="opacity:1" fill="#0f0f0f" d="M 128.5,280.5 C 130.167,280.5 131.833,280.5 133.5,280.5C 133.811,285.7 131.311,288.7 126,289.5C 124.5,289.333 123.667,288.5 123.5,287C 124.985,284.683 126.652,282.516 128.5,280.5 Z"/></g>
<g><path style="opacity:1" fill="#090909" d="M 278.5,287.5 C 278.795,298.894 273.129,305.561 261.5,307.5C 259.746,302.296 259.246,296.963 260,291.5C 260.589,289.137 262.089,288.137 264.5,288.5C 264.5,291.5 264.5,294.5 264.5,297.5C 265.552,297.649 266.552,297.483 267.5,297C 271.359,293.968 275.026,290.802 278.5,287.5 Z"/></g>
<g><path style="opacity:1" fill="#101010" d="M 80.5,292.5 C 81.8333,292.5 83.1667,292.5 84.5,292.5C 84.7818,297.55 82.4484,300.55 77.5,301.5C 75.7336,301.566 74.7336,300.732 74.5,299C 76.014,296.322 78.014,294.155 80.5,292.5 Z"/></g>
<g><path style="opacity:1" fill="#0c0c0c" d="M 235.5,294.5 C 237.167,294.5 238.833,294.5 240.5,294.5C 237.428,303.881 231.095,309.881 221.5,312.5C 219.076,312.852 217.576,311.852 217,309.5C 216.176,306.118 216.343,302.784 217.5,299.5C 218.939,301.36 220.605,303.027 222.5,304.5C 226.284,300.443 230.617,297.109 235.5,294.5 Z"/></g>
<g><path style="opacity:1" fill="#080808" d="M 545.5,294.5 C 559.663,293.175 567.163,299.508 568,313.5C 572.156,318.322 575.489,323.655 578,329.5C 579.976,343.573 575.976,355.573 566,365.5C 565.914,350.788 565.247,336.121 564,321.5C 562.484,318.994 560.318,318.16 557.5,319C 553.976,322.025 550.309,324.858 546.5,327.5C 545.081,323.596 545.581,319.93 548,316.5C 551.883,312.95 556.049,309.783 560.5,307C 555.833,303.667 551.167,300.333 546.5,297C 545.748,296.329 545.414,295.496 545.5,294.5 Z"/></g>
<g><path style="opacity:1" fill="#eeeeee" d="M 800.5,300.5 C 808.765,298.625 814.265,301.625 817,309.5C 816.886,333.511 808.72,354.344 792.5,372C 788.204,375.982 783.204,377.315 777.5,376C 774.735,373.005 773.902,369.505 775,365.5C 779.863,353.244 784.53,340.911 789,328.5C 790.851,322.992 791.851,317.325 792,311.5C 793.582,306.765 796.415,303.098 800.5,300.5 Z"/></g>
<g><path style="opacity:1" fill="#151515" d="M 107.5,302.5 C 111.7,302.914 112.533,304.914 110,308.5C 107.592,311.62 104.426,312.953 100.5,312.5C 101.276,308.06 103.61,304.727 107.5,302.5 Z"/></g>
<g><path style="opacity:1" fill="#ececec" d="M 411.5,304.5 C 417.007,305.502 420.507,308.836 422,314.5C 422.878,320.302 422.378,325.969 420.5,331.5C 413.819,331.252 407.986,328.586 403,323.5C 403.124,315.922 405.957,309.589 411.5,304.5 Z"/></g>
<g><path style="opacity:1" fill="#121212" d="M 172.5,318.5 C 173.5,318.5 174.5,318.5 175.5,318.5C 176.105,323.957 174.105,327.957 169.5,330.5C 165.403,329.378 164.57,327.044 167,323.5C 168.73,321.598 170.563,319.931 172.5,318.5 Z"/></g>
<g><path style="opacity:1" fill="#0f0f0f" d="M 129.5,319.5 C 131.5,319.5 133.5,319.5 135.5,319.5C 134.625,326.398 130.958,331.398 124.5,334.5C 122.554,332.956 122.054,330.956 123,328.5C 124.686,325.117 126.853,322.117 129.5,319.5 Z"/></g>
<g><path style="opacity:1" fill="#0b0b0b" d="M 70.5,326.5 C 71.5,326.5 72.5,326.5 73.5,326.5C 73.5,332.5 70.5,335.5 64.5,335.5C 64.3505,334.448 64.5172,333.448 65,332.5C 66.6993,330.304 68.5327,328.304 70.5,326.5 Z"/></g>
<g><path style="opacity:1" fill="#eeeeee" d="M 400.5,328.5 C 405.882,334.229 410.549,340.562 414.5,347.5C 412.909,350.256 410.576,352.089 407.5,353C 403.277,354.472 398.943,355.472 394.5,356C 393.299,356.903 392.465,358.069 392,359.5C 390.953,369.661 391.787,379.661 394.5,389.5C 393.615,393.291 391.282,395.791 387.5,397C 379.301,400.011 370.968,402.511 362.5,404.5C 352.567,401.699 343.567,397.033 335.5,390.5C 357.214,369.784 378.88,349.117 400.5,328.5 Z"/></g>
<g><path style="opacity:1" fill="#111111" d="M 220.5,330.5 C 224.677,329.842 226.177,331.508 225,335.5C 221.071,341.38 215.571,343.88 208.5,343C 204.872,342.21 202.872,340.043 202.5,336.5C 206.757,337.817 211.09,338.317 215.5,338C 217.797,335.901 219.464,333.401 220.5,330.5 Z"/></g>
<g><path style="opacity:1" fill="#141414" d="M 859.5,329.5 C 860.92,333.381 859.92,336.714 856.5,339.5C 854.752,335.29 855.752,331.956 859.5,329.5 Z"/></g>
<g><path style="opacity:1" fill="#111111" d="M 258.5,331.5 C 259.5,331.5 260.5,331.5 261.5,331.5C 261.012,340.153 256.512,345.153 248,346.5C 242.246,345.584 239.913,342.251 241,336.5C 241.718,335.549 242.551,335.383 243.5,336C 245.422,337.42 246.755,339.253 247.5,341.5C 251.863,338.798 255.53,335.464 258.5,331.5 Z"/></g>
<g><path style="opacity:1" fill="#ececec" d="M 419.5,354.5 C 426.103,352.964 430.437,355.297 432.5,361.5C 432.281,362.938 431.781,364.271 431,365.5C 423.456,372.692 414.956,378.525 405.5,383C 403.741,383.798 402.074,383.631 400.5,382.5C 398.568,375.73 399.402,369.396 403,363.5C 408.199,359.766 413.699,356.766 419.5,354.5 Z"/></g>
<g><path style="opacity:1" fill="#efefef" d="M 684.5,355.5 C 686.26,358.701 687.094,362.367 687,366.5C 688.741,382.131 689.408,397.798 689,413.5C 688.3,417.066 686.467,419.9 683.5,422C 679.703,425.232 675.37,427.398 670.5,428.5C 658.433,423.94 649.267,415.94 643,404.5C 636.11,391.666 633.277,378 634.5,363.5C 645.133,364.849 655.8,365.349 666.5,365C 673.355,363.278 679.355,360.111 684.5,355.5 Z"/></g>
<g><path style="opacity:1" fill="#efefef" d="M 711.5,366.5 C 720.374,366.104 727.707,369.27 733.5,376C 739.967,379.793 746.967,381.459 754.5,381C 755.416,381.374 756.25,381.874 757,382.5C 757.297,401.615 752.297,419.282 742,435.5C 739.191,439.61 736.025,443.443 732.5,447C 730.5,447.667 728.5,447.667 726.5,447C 715.293,438.459 707.126,427.626 702,414.5C 700.996,400.469 699.996,386.469 699,372.5C 702.653,369.237 706.819,367.237 711.5,366.5 Z"/></g>
<g><path style="opacity:0.91" fill="#3d3d3d" d="M 358.5,355.5 C 352.762,362.744 346.428,369.577 339.5,376C 338.906,376.464 338.239,376.631 337.5,376.5C 344.167,369.167 351.167,362.167 358.5,355.5 Z"/></g>
<g><path style="opacity:1" fill="#0e0e0e" d="M 108.5,370.5 C 111.902,371.558 112.402,373.558 110,376.5C 108.117,379.024 105.617,380.358 102.5,380.5C 102.343,379.127 102.51,377.793 103,376.5C 105.04,374.63 106.873,372.63 108.5,370.5 Z"/></g>
<g><path style="opacity:1" fill="#eeeeee" d="M 803.5,371.5 C 811.015,374.184 817.515,378.517 823,384.5C 824.988,388.224 825.821,392.224 825.5,396.5C 824.725,410.645 822.891,424.645 820,438.5C 815.684,448.47 811.351,458.47 807,468.5C 804.936,469.591 802.769,469.758 800.5,469C 793.881,462.552 788.215,455.386 783.5,447.5C 788.502,433.66 793.002,419.66 797,405.5C 798.756,396.923 799.756,388.257 800,379.5C 800.696,376.562 801.862,373.896 803.5,371.5 Z"/></g>
<g><path style="opacity:1" fill="#101010" d="M 248.5,377.5 C 252.5,376.833 254.167,378.5 253.5,382.5C 257.309,381.929 260.643,380.262 263.5,377.5C 264.318,383.541 261.484,386.875 255,387.5C 249.838,386.163 247.671,382.829 248.5,377.5 Z"/></g>
<g><path style="opacity:1" fill="#131313" d="M 191.5,380.5 C 192.833,380.5 194.167,380.5 195.5,380.5C 195.703,382.39 195.037,383.89 193.5,385C 189.474,388.512 184.808,390.679 179.5,391.5C 178.5,391.167 177.5,390.833 176.5,390.5C 180.995,386.326 185.995,382.993 191.5,380.5 Z"/></g>
<g><path style="opacity:1" fill="#eeeeee" d="M 773.5,384.5 C 783.98,382.509 789.647,386.676 790.5,397C 788.525,419.599 781.025,440.099 768,458.5C 765.185,462.159 761.685,464.826 757.5,466.5C 751.936,463.773 747.436,459.773 744,454.5C 743.333,452.167 743.333,449.833 744,447.5C 750,435.5 756,423.5 762,411.5C 764.736,404.626 767.069,397.626 769,390.5C 770.332,388.34 771.832,386.34 773.5,384.5 Z"/></g>
<g><path style="opacity:1" fill="#111111" d="M 232.5,388.5 C 235.85,388.335 239.183,388.502 242.5,389C 247.705,391.207 247.705,393.374 242.5,395.5C 237.98,394.597 234.647,392.263 232.5,388.5 Z"/></g>
<g><path style="opacity:1" fill="#0a0a0a" d="M 489.5,393.5 C 492.808,392.974 494.974,394.307 496,397.5C 497.438,405.461 495.272,412.294 489.5,418C 485.025,421.571 480.025,424.071 474.5,425.5C 474.46,422.575 475.293,419.909 477,417.5C 483.571,410.69 487.737,402.69 489.5,393.5 Z"/></g>
<g><path style="opacity:1" fill="#ededed" d="M 634.5,412.5 C 635.978,412.238 637.311,412.571 638.5,413.5C 640.823,419.327 644.489,424.16 649.5,428C 654.328,431.581 659.328,434.915 664.5,438C 667.433,440.264 669.6,443.098 671,446.5C 671.756,456.536 671.423,466.536 670,476.5C 668.569,483.333 664.736,485.833 658.5,484C 649.959,478.092 645.125,469.925 644,459.5C 638.591,454.684 635.257,448.684 634,441.5C 631.819,433.632 631.152,425.632 632,417.5C 632.366,415.548 633.199,413.882 634.5,412.5 Z"/></g>
<g><path style="opacity:1" fill="#434343" d="M 254.5,413.5 C 260.868,413.17 267.202,413.504 273.5,414.5C 273.376,415.107 273.043,415.44 272.5,415.5C 266.5,414.833 260.5,414.167 254.5,413.5 Z"/></g>
<g><path style="opacity:1" fill="#070707" d="M 442.5,429.5 C 443.486,433.97 443.819,438.637 443.5,443.5C 443.271,448.258 441.604,452.425 438.5,456C 433.02,457.582 427.687,459.582 422.5,462C 416.355,466.644 410.355,471.477 404.5,476.5C 402.441,467.938 404.941,460.938 412,455.5C 413.75,452.754 414.75,449.754 415,446.5C 416.133,444.789 417.633,444.289 419.5,445C 421.077,447.564 422.077,450.397 422.5,453.5C 424.55,454.663 426.55,454.496 428.5,453C 434.826,446.186 439.492,438.353 442.5,429.5 Z"/></g>
<g><path style="opacity:1" fill="#eeeeee" d="M 687.5,429.5 C 689.371,429.859 690.871,430.859 692,432.5C 695.447,441.501 697.447,450.834 698,460.5C 698.807,466.274 701.14,471.274 705,475.5C 706.299,489.031 709.633,502.031 715,514.5C 715.478,509.132 715.145,503.799 714,498.5C 709.188,478.932 705.188,459.266 702,439.5C 710.237,445.064 716.237,452.397 720,461.5C 722.614,487.236 727.281,512.569 734,537.5C 737.038,553.435 739.705,569.435 742,585.5C 743,588.833 744,592.167 745,595.5C 748.562,601.167 751.562,607.167 754,613.5C 761.429,637.791 770.429,661.457 781,684.5C 786.65,699.774 787.983,715.44 785,731.5C 783.885,735.729 782.219,739.729 780,743.5C 777.333,747.5 774.667,747.5 772,743.5C 761.837,725.17 751.17,707.17 740,689.5C 724.002,659.505 711.335,628.172 702,595.5C 695.155,565.94 688.821,536.274 683,506.5C 681.605,505.185 680.605,505.519 680,507.5C 679.482,517.853 679.816,528.186 681,538.5C 684.773,558.139 688.44,577.806 692,597.5C 694.863,609.422 698.53,621.089 703,632.5C 712.123,649.579 720.29,667.079 727.5,685C 727.452,686.033 727.119,686.366 726.5,686C 722.248,682.419 718.748,678.252 716,673.5C 695.511,637.525 681.511,599.191 674,558.5C 673.333,549.167 673.333,539.833 674,530.5C 677.503,503.953 679.503,477.287 680,450.5C 680.242,442.602 682.742,435.602 687.5,429.5 Z"/></g>
<g><path style="opacity:1" fill="#838383" d="M 443.5,443.5 C 443.819,438.637 443.486,433.97 442.5,429.5C 442.783,428.711 443.283,428.044 444,427.5C 444.817,433.016 444.651,438.35 443.5,443.5 Z"/></g>
<g><path style="opacity:1" fill="#0d0d0d" d="M 182.5,438.5 C 185.243,438.077 186.576,439.244 186.5,442C 185.978,445.549 184.311,448.382 181.5,450.5C 180.914,450.291 180.414,449.957 180,449.5C 178.812,445.259 179.645,441.592 182.5,438.5 Z"/></g>
<g><path style="opacity:1" fill="#f0f0f0" d="M 602.5,438.5 C 614.693,435.845 623.193,440.179 628,451.5C 632.966,463.435 638.966,474.768 646,485.5C 650.928,490.045 656.761,492.545 663.5,493C 664.931,493.465 666.097,494.299 667,495.5C 666.572,513.159 663.906,530.492 659,547.5C 654.5,556 648,562.5 639.5,567C 635.598,567.738 631.932,567.072 628.5,565C 614.978,555.469 605.144,542.969 599,527.5C 588.841,504.543 585.174,480.543 588,455.5C 589.5,446.843 594.334,441.177 602.5,438.5 Z"/></g>
<g><path style="opacity:1" fill="#0c0c0c" d="M 213.5,444.5 C 215.5,444.5 217.5,444.5 219.5,444.5C 219.446,451.944 216.28,457.61 210,461.5C 206.703,459.842 205.703,457.175 207,453.5C 208.611,450.062 210.777,447.062 213.5,444.5 Z"/></g>
<g><path style="opacity:1" fill="#0e0e0e" d="M 384.5,453.5 C 385.833,453.5 387.167,453.5 388.5,453.5C 387.135,463.862 381.469,470.529 371.5,473.5C 373.425,465.247 377.758,458.58 384.5,453.5 Z"/></g>
<g><path style="opacity:1" fill="#efefef" d="M 731.5,455.5 C 741.134,462.322 751.134,468.656 761.5,474.5C 762.584,475.665 763.417,476.998 764,478.5C 770,505.833 776,533.167 782,560.5C 792.802,593.907 803.802,627.24 815,660.5C 817,665.167 819,669.833 821,674.5C 822,675.167 823,675.833 824,676.5C 830.441,694.05 837.441,711.383 845,728.5C 851.96,735.419 855.96,743.753 857,753.5C 859.292,754.79 861.292,756.457 863,758.5C 866.197,766.923 870.863,774.256 877,780.5C 884.995,795.598 885.495,810.931 878.5,826.5C 873.667,818.167 868.833,809.833 864,801.5C 843.606,770.769 823.606,739.769 804,708.5C 786.817,675.813 772.15,642.147 760,607.5C 753.008,583.541 747.675,559.207 744,534.5C 735.996,508.814 731.83,482.481 731.5,455.5 Z"/></g>
<g><path style="opacity:1" fill="#eeeeee" d="M 805.5,488.5 C 805.205,486.265 805.539,484.265 806.5,482.5C 809.461,492.667 812.295,503.001 815,513.5C 816.926,548.128 823.592,581.795 835,614.5C 844.506,634.35 852.839,654.684 860,675.5C 877.479,715.457 896.812,754.457 918,792.5C 924.611,802.777 931.611,812.777 939,822.5C 952.333,837.833 965.667,853.167 979,868.5C 979.748,870.332 980.748,871.999 982,873.5C 983.434,881.443 981.268,882.943 975.5,878C 950.241,853.743 926.074,828.577 903,802.5C 896.413,793.326 891.413,783.326 888,772.5C 879.357,762.896 872.024,752.562 866,741.5C 854.218,720.27 843.218,698.603 833,676.5C 828.133,665.898 824.466,654.898 822,643.5C 805.835,613.34 795.502,581.34 791,547.5C 787.988,540.494 784.988,533.494 782,526.5C 780.879,518.21 780.213,509.876 780,501.5C 778.797,495.686 777.13,490.019 775,484.5C 774.333,478.167 774.333,471.833 775,465.5C 778.104,457.969 781.771,457.636 786,464.5C 790.469,471.771 794.135,479.438 797,487.5C 798.61,498.647 800.943,509.647 804,520.5C 806.135,526.766 808.801,532.766 812,538.5C 809.132,521.974 806.965,505.307 805.5,488.5 Z"/></g>
<g><path style="opacity:1" fill="#0b0b0b" d="M 226.5,462.5 C 228.252,462.418 229.252,463.251 229.5,465C 227.269,473.623 223.602,481.456 218.5,488.5C 217.914,488.291 217.414,487.957 217,487.5C 215.928,477.547 219.095,469.214 226.5,462.5 Z"/></g>
<g><path style="opacity:1" fill="#efefef" d="M 573.5,464.5 C 574.167,471.5 574.833,478.5 575.5,485.5C 579.847,508.705 587.68,530.705 599,551.5C 601.63,555.132 604.63,558.465 608,561.5C 609.479,568.375 607.646,574.208 602.5,579C 599.167,581 595.833,583 592.5,585C 588.29,586.02 584.623,585.02 581.5,582C 576.585,577.756 572.419,572.923 569,567.5C 557.313,544.088 549.647,519.421 546,493.5C 545.091,487.388 545.424,481.388 547,475.5C 556.071,472.552 564.904,468.885 573.5,464.5 Z"/></g>
<g><path style="opacity:1" fill="#7c7c7c" d="M 573.5,464.5 C 573.56,463.957 573.893,463.624 574.5,463.5C 575.497,470.803 575.831,478.137 575.5,485.5C 574.833,478.5 574.167,471.5 573.5,464.5 Z"/></g>
<g><path style="opacity:1" fill="#eeeeee" d="M 526.5,471.5 C 532.645,471.806 536.145,475.14 537,481.5C 537.248,497.068 539.248,512.402 543,527.5C 547.853,545.059 553.686,562.226 560.5,579C 558.062,590.426 550.895,596.592 539,597.5C 531.408,596.582 526.074,592.582 523,585.5C 507.857,552.189 500.857,517.189 502,480.5C 505.845,476.325 508.845,476.992 511,482.5C 511.185,497.903 514.518,512.57 521,526.5C 520.557,510.839 520.224,495.173 520,479.5C 520.583,475.428 522.75,472.761 526.5,471.5 Z"/></g>
<g><path style="opacity:1" fill="#8b8b8b" d="M 806.5,482.5 C 805.539,484.265 805.205,486.265 805.5,488.5C 804.203,486.307 804.203,483.973 805.5,481.5C 806.107,481.624 806.44,481.957 806.5,482.5 Z"/></g>
<g><path style="opacity:1" fill="#efefef" d="M 472.5,487.5 C 484.395,486.182 491.895,491.182 495,502.5C 496.194,514.125 496.861,525.792 497,537.5C 500.225,555.734 504.392,573.734 509.5,591.5C 509.594,596.246 507.261,599.079 502.5,600C 490.14,602.655 479.64,599.489 471,590.5C 458.304,575.449 448.971,558.449 443,539.5C 441.576,533.224 441.242,526.891 442,520.5C 448.58,515.208 455.914,511.208 464,508.5C 469.292,520.033 473.625,532.033 477,544.5C 476.779,526.511 474.946,508.678 471.5,491C 471.648,489.744 471.982,488.577 472.5,487.5 Z"/></g>
<g><path style="opacity:1" fill="#eeeeee" d="M 911.5,491.5 C 943.316,528.428 975.149,565.428 1007,602.5C 1029.69,626.192 1052.69,649.526 1076,672.5C 1076.62,673.449 1076.45,674.282 1075.5,675C 1070.83,675.667 1066.17,675.667 1061.5,675C 1054.29,673.061 1047.29,670.561 1040.5,667.5C 1039.83,667.833 1039.17,668.167 1038.5,668.5C 1042.42,672.802 1047.09,676.136 1052.5,678.5C 1046.41,679.807 1040.74,678.64 1035.5,675C 1019.82,665.658 1006.32,653.825 995,639.5C 994.684,634.693 992.517,631.026 988.5,628.5C 985.852,632.853 986.019,637.187 989,641.5C 999.724,655.583 1011.39,668.916 1024,681.5C 1026.02,683.769 1026.86,686.436 1026.5,689.5C 1014.65,691.208 1003.31,689.375 992.5,684C 977.077,677.885 963.911,668.718 953,656.5C 948.883,649.343 947.55,641.676 949,633.5C 968.751,653.631 990.917,670.131 1015.5,683C 1005.37,671.2 994.869,659.7 984,648.5C 975.465,637.264 967.298,625.764 959.5,614C 958.036,612.623 957.036,612.623 956.5,614C 957.941,618.989 959.774,623.822 962,628.5C 962.781,629.944 962.614,631.277 961.5,632.5C 950.517,626.881 943.017,618.215 939,606.5C 928.722,568.389 919.555,530.055 911.5,491.5 Z"/></g>
<g><path style="opacity:1" fill="#0b0b0b" d="M 196.5,510.5 C 201.542,510.015 205.376,512.015 208,516.5C 208.729,520.333 207.063,521.999 203,521.5C 195.065,520.948 192.898,517.282 196.5,510.5 Z"/></g>
<g><path style="opacity:1" fill="#ededed" d="M 323.5,519.5 C 327.198,518.68 329.531,520.013 330.5,523.5C 329.431,528.8 329.264,534.134 330,539.5C 333.143,551.095 335.977,562.762 338.5,574.5C 338.182,580.313 335.182,582.48 329.5,581C 308.853,571.868 298.686,556.035 299,533.5C 301.431,528.021 305.597,524.521 311.5,523C 315.623,521.808 319.623,520.641 323.5,519.5 Z"/></g>
<g><path style="opacity:1" fill="#eeeeee" d="M 349.5,520.5 C 353.936,520.21 358.27,520.71 362.5,522C 364.604,523.693 366.104,525.86 367,528.5C 369.547,543.841 372.214,559.175 375,574.5C 378.667,582.833 382.333,591.167 386,599.5C 388.05,606.647 385.55,609.48 378.5,608C 364.436,600.6 354.603,589.433 349,574.5C 343.271,560.857 339.437,546.69 337.5,532C 337.408,529.186 338.408,526.853 340.5,525C 343.437,523.199 346.437,521.699 349.5,520.5 Z"/></g>
<g><path style="opacity:1" fill="#0d0d0d" d="M 718.5,520.5 C 721.452,521.359 723.285,523.359 724,526.5C 724.615,535.292 726.949,543.625 731,551.5C 731.89,554.706 731.557,557.706 730,560.5C 724.206,551.353 720.539,541.353 719,530.5C 718.502,527.183 718.335,523.85 718.5,520.5 Z"/></g>
<g><path style="opacity:1" fill="#e8e8e8" d="M 283.5,522.5 C 286.292,522.452 288.125,523.785 289,526.5C 292.173,537.031 294.84,547.698 297,558.5C 297.951,562.027 299.284,565.36 301,568.5C 301.798,570.259 301.631,571.926 300.5,573.5C 285.746,561.757 279.246,546.424 281,527.5C 281.366,525.548 282.199,523.882 283.5,522.5 Z"/></g>
<g><path style="opacity:1" fill="#181818" d="M 94.5,522.5 C 97.2257,522.264 99.559,523.097 101.5,525C 102.178,530.476 99.8449,531.809 94.5,529C 93.232,526.837 93.232,524.67 94.5,522.5 Z"/></g>
<g><path style="opacity:1" fill="#0f0f0f" d="M 206.5,549.5 C 210.44,549.758 214.107,550.924 217.5,553C 219.229,554.789 219.896,556.956 219.5,559.5C 213.977,559.822 209.477,557.822 206,553.5C 205.421,552.072 205.588,550.738 206.5,549.5 Z"/></g>
<g><path style="opacity:1" fill="#101010" d="M 183.5,556.5 C 186.244,557.072 187.077,558.738 186,561.5C 184.556,563.155 182.722,563.822 180.5,563.5C 180.15,560.547 181.15,558.213 183.5,556.5 Z"/></g>
<g><path style="opacity:1" fill="#f0f0f0" d="M 659.5,563.5 C 661.144,563.286 662.644,563.62 664,564.5C 671.792,581.002 676.459,598.336 678,616.5C 681.339,626.844 685.505,636.844 690.5,646.5C 676.607,657.217 662.273,667.384 647.5,677C 643.579,677.959 640.412,676.792 638,673.5C 619.031,643.958 610.864,611.624 613.5,576.5C 627.739,576.356 641.405,573.523 654.5,568C 656.063,566.264 657.73,564.764 659.5,563.5 Z"/></g>
<g><path style="opacity:1" fill="#0e0e0e" d="M 121.5,565.5 C 122.5,565.5 123.5,565.5 124.5,565.5C 124.698,569.257 123.365,572.257 120.5,574.5C 116.432,571.085 116.765,568.085 121.5,565.5 Z"/></g>
<g><path style="opacity:1" fill="#080808" d="M 303.5,587.5 C 315.031,589.863 321.531,596.863 323,608.5C 324.667,610.167 326.333,611.833 328,613.5C 328.825,615.701 328.325,617.534 326.5,619C 320.108,619.627 315.275,617.127 312,611.5C 307.16,604.165 304.327,596.165 303.5,587.5 Z"/></g>
<g><path style="opacity:1" fill="#0e0e0e" d="M 241.5,589.5 C 242.922,589.709 244.255,590.209 245.5,591C 247.586,596.393 251.586,599.393 257.5,600C 260.46,605.433 258.627,608.266 252,608.5C 244.664,606.663 240.164,601.996 238.5,594.5C 238.757,592.308 239.757,590.641 241.5,589.5 Z"/></g>
<g><path style="opacity:1" fill="#0f0f0f" d="M 168.5,591.5 C 174.642,592.854 175.976,596.187 172.5,601.5C 168.148,604.654 165.815,603.487 165.5,598C 165.32,595.198 166.32,593.031 168.5,591.5 Z"/></g>
<g><path style="opacity:1" fill="#eaeaea" d="M 344.5,591.5 C 347.224,599.072 352.057,605.072 359,609.5C 367.232,623.365 371.732,638.365 372.5,654.5C 371.127,654.657 369.793,654.49 368.5,654C 358.488,645.678 352.321,635.178 350,622.5C 343.615,613.041 341.782,602.707 344.5,591.5 Z"/></g>
<g><path style="opacity:1" fill="#efefef" d="M 593.5,592.5 C 597.167,592.5 600.833,592.5 604.5,592.5C 604.178,598.358 604.511,604.025 605.5,609.5C 608.407,627.794 612.574,645.794 618,663.5C 619.098,669.847 618.098,675.847 615,681.5C 610.509,686.259 605.009,687.759 598.5,686C 586.812,679.98 577.312,671.48 570,660.5C 559.056,643.959 552.056,625.959 549,606.5C 553.198,600.309 559.032,596.475 566.5,595C 575.365,592.84 584.365,592.007 593.5,592.5 Z"/></g>
<g><path style="opacity:1" fill="#6a6a6a" d="M 593.5,592.5 C 597.298,591.517 601.298,591.183 605.5,591.5C 605.5,597.5 605.5,603.5 605.5,609.5C 604.511,604.025 604.178,598.358 604.5,592.5C 600.833,592.5 597.167,592.5 593.5,592.5 Z"/></g>
<g><path style="opacity:1" fill="#efefef" d="M 516.5,597.5 C 525.014,598.683 531.514,603.016 536,610.5C 537.92,613.339 539.587,616.339 541,619.5C 545.541,638.123 551.874,656.123 560,673.5C 562.131,679.012 563.131,684.679 563,690.5C 562.167,694 560,696.167 556.5,697C 535.314,696.646 520.147,686.813 511,667.5C 506.605,651.189 503.105,634.689 500.5,618C 500.329,614.871 501.162,612.037 503,609.5C 507.099,604.892 511.599,600.892 516.5,597.5 Z"/></g>
<g><path style="opacity:1" fill="#efefef" d="M 462.5,599.5 C 464.989,599.298 467.323,599.798 469.5,601C 473.088,604.93 477.421,607.597 482.5,609C 485.938,614.381 488.438,620.215 490,626.5C 494.872,643.823 499.039,661.323 502.5,679C 502.363,681.898 501.863,684.731 501,687.5C 498.333,691.5 495.667,695.5 493,699.5C 488.631,705.274 483.131,706.774 476.5,704C 457.881,695.38 444.714,681.547 437,662.5C 433.704,654.448 431.537,646.115 430.5,637.5C 430.56,632.929 432.56,629.429 436.5,627C 446.457,622.712 453.29,615.546 457,605.5C 459.04,603.63 460.873,601.63 462.5,599.5 Z"/></g>
<g><path style="opacity:1" fill="#0e0e0e" d="M 132.5,605.5 C 134.857,605.337 137.19,605.503 139.5,606C 142.326,608.864 141.826,611.031 138,612.5C 133.829,611.546 131.996,609.213 132.5,605.5 Z"/></g>
<g><path style="opacity:1" fill="#0e0e0e" d="M 284.5,606.5 C 289.716,608.363 294.216,611.363 298,615.5C 298.749,616.635 298.583,617.635 297.5,618.5C 286.701,621.365 282.367,617.365 284.5,606.5 Z"/></g>
<g><path style="opacity:1" fill="#0d0d0d" d="M 195.5,617.5 C 200.284,617.108 203.284,619.275 204.5,624C 201.703,628.483 198.536,628.649 195,624.5C 194.297,622.071 194.463,619.738 195.5,617.5 Z"/></g>
<g><path style="opacity:1" fill="#efefef" d="M 387.5,617.5 C 397.153,617.243 404.986,620.909 411,628.5C 421.317,650.469 431.65,672.469 442,694.5C 444.667,697.833 447.333,701.167 450,704.5C 451.041,707.636 450.207,710.136 447.5,712C 444.167,712.667 440.833,712.667 437.5,712C 421.381,707.87 408.214,699.37 398,686.5C 394.885,681.156 392.552,675.489 391,669.5C 387.619,655.213 384.452,640.879 381.5,626.5C 381.944,622.402 383.944,619.402 387.5,617.5 Z"/></g>
<g><path style="opacity:1" fill="#0a0a0a" d="M 221.5,627.5 C 227.016,627.473 228.349,629.64 225.5,634C 220.57,634.427 219.237,632.26 221.5,627.5 Z"/></g>
<g><path style="opacity:1" fill="#101010" d="M 271.5,634.5 C 278.938,634.861 283.605,638.528 285.5,645.5C 280.703,645.879 276.036,645.379 271.5,644C 267.646,640.574 267.646,637.407 271.5,634.5 Z"/></g>
<g><path style="opacity:1" fill="#101010" d="M 908.5,636.5 C 909.496,636.414 910.329,636.748 911,637.5C 918.46,656.545 925.126,675.878 931,695.5C 931.667,697.5 931.667,699.5 931,701.5C 922.352,684.866 915.352,667.532 910,649.5C 909.265,645.187 908.765,640.853 908.5,636.5 Z"/></g>
<g><path style="opacity:1" fill="#0c0c0c" d="M 320.5,636.5 C 327.897,638.231 331.564,642.898 331.5,650.5C 325.812,649.989 321.979,646.989 320,641.5C 319.36,639.735 319.527,638.068 320.5,636.5 Z"/></g>
<g><path style="opacity:0.961" fill="#434343" d="M 1055.5,637.5 C 1059.57,640.563 1062.9,644.229 1065.5,648.5C 1061.43,645.437 1058.1,641.771 1055.5,637.5 Z"/></g>
<g><path style="opacity:1" fill="#0f0f0f" d="M 314.5,661.5 C 320.431,660.993 321.931,663.326 319,668.5C 316.418,666.772 314.918,664.439 314.5,661.5 Z"/></g>
<g><path style="opacity:1" fill="#0d0d0d" d="M 259.5,664.5 C 264.013,664.588 268.013,666.088 271.5,669C 273.219,670.87 274.219,673.037 274.5,675.5C 269.703,675.879 265.036,675.379 260.5,674C 257.122,671.036 256.789,667.869 259.5,664.5 Z"/></g>
<g><path style="opacity:1" fill="#0b0b0b" d="M 241.5,683.5 C 244.614,684.091 247.114,685.758 249,688.5C 252.735,694.904 257.235,700.737 262.5,706C 267.1,708.215 271.266,711.048 275,714.5C 276.261,720.08 274.094,721.913 268.5,720C 254.275,711.621 245.275,699.454 241.5,683.5 Z"/></g>
<g><path style="opacity:0.961" fill="#4a4a4a" d="M 722.5,695.5 C 728.5,699.5 733.5,704.5 737.5,710.5C 732.167,705.833 727.167,700.833 722.5,695.5 Z"/></g>
<g><path style="opacity:1" fill="#0d0d0d" d="M 281.5,698.5 C 289.606,698.29 294.939,701.957 297.5,709.5C 291.579,710.123 286.746,708.123 283,703.5C 281.991,701.975 281.491,700.308 281.5,698.5 Z"/></g>
<g><path style="opacity:1" fill="#0b0b0b" d="M 577.5,698.5 C 582.029,698.496 585.529,700.496 588,704.5C 592.538,711.95 595.371,719.95 596.5,728.5C 594.278,728.822 592.444,728.155 591,726.5C 588.963,717.078 583.963,709.745 576,704.5C 575.252,702.16 575.752,700.16 577.5,698.5 Z"/></g>
<g><path style="opacity:1" fill="#111111" d="M 340.5,710.5 C 347.501,710.496 353.501,712.83 358.5,717.5C 357.45,719.873 355.617,720.873 353,720.5C 348.414,720.195 344.414,718.528 341,715.5C 339.481,713.861 339.314,712.194 340.5,710.5 Z"/></g>
<g><path style="opacity:1" fill="#0e0e0e" d="M 542.5,715.5 C 552.212,714.743 561.545,716.243 570.5,720C 575.717,721.7 578.384,725.2 578.5,730.5C 577.448,730.649 576.448,730.483 575.5,730C 572.09,726.262 568.09,723.262 563.5,721C 559.156,719.524 556.822,721.024 556.5,725.5C 549.176,725.466 544.509,722.133 542.5,715.5 Z"/></g>
<g><path style="opacity:1" fill="#0b0b0b" d="M 621.5,714.5 C 631.003,723.161 638.836,733.161 645,744.5C 645.495,746.473 645.662,748.473 645.5,750.5C 644.127,750.657 642.793,750.49 641.5,750C 631.647,739.976 624.981,728.143 621.5,714.5 Z"/></g>
<g><path style="opacity:1" fill="#121212" d="M 385.5,725.5 C 390.633,725.489 395.133,727.155 399,730.5C 400.164,733.567 399.164,735.233 396,735.5C 390.893,734.544 387.059,731.877 384.5,727.5C 384.863,726.817 385.196,726.15 385.5,725.5 Z"/></g>
<g><path style="opacity:1" fill="#111111" d="M 945.5,734.5 C 951.936,742.039 956.269,750.706 958.5,760.5C 955.358,760.201 953.191,758.534 952,755.5C 948.748,748.825 946.582,741.825 945.5,734.5 Z"/></g>
<g><path style="opacity:1" fill="#080808" d="M 363.5,740.5 C 372.488,741.643 379.988,745.643 386,752.5C 386.667,754.5 386.667,756.5 386,758.5C 382.632,759.83 379.465,759.33 376.5,757C 370.784,752.467 366.451,746.967 363.5,740.5 Z"/></g>
<g><path style="opacity:1" fill="#0b0b0b" d="M 329.5,743.5 C 332.016,743.755 334.35,744.589 336.5,746C 346.31,752.663 355.476,760.163 364,768.5C 365.202,770.677 365.702,773.011 365.5,775.5C 351.544,769.382 339.377,760.715 329,749.5C 328.322,747.402 328.489,745.402 329.5,743.5 Z"/></g>
<g><path style="opacity:1" fill="#171717" d="M 633.5,761.5 C 638.306,761.974 640.639,764.64 640.5,769.5C 635.128,769.147 632.795,766.48 633.5,761.5 Z"/></g>
<g><path style="opacity:1" fill="#0d0d0d" d="M 330.5,765.5 C 335.62,765.476 339.787,767.476 343,771.5C 343.433,775.068 341.767,776.734 338,776.5C 330.828,775.849 328.328,772.183 330.5,765.5 Z"/></g>
<g><path style="opacity:1" fill="#eeeeee" d="M 375.5,976.5 C 375.819,974.25 375.319,972.25 374,970.5C 373.501,976.491 373.334,982.491 373.5,988.5C 373.368,994.923 372.535,1001.26 371,1007.5C 370.439,1008.02 369.772,1008.36 369,1008.5C 359.186,1000.67 351.52,991.003 346,979.5C 342.811,969.46 338.811,959.793 334,950.5C 332.939,916.593 326.939,883.593 316,851.5C 312.547,842.594 308.547,833.927 304,825.5C 294.782,810.285 284.782,795.618 274,781.5C 272.287,777.905 270.453,774.405 268.5,771C 268.833,770.5 269.167,770 269.5,769.5C 279.492,780.995 289.325,792.662 299,804.5C 303.386,809.389 308.22,813.722 313.5,817.5C 313.833,817.167 314.167,816.833 314.5,816.5C 307.579,806.324 300.412,796.324 293,786.5C 292.362,785.391 291.862,784.225 291.5,783C 291.85,781.743 292.517,781.409 293.5,782C 317.318,804.317 340.985,826.817 364.5,849.5C 365.408,848.21 365.241,846.877 364,845.5C 343.1,824.603 322.934,803.103 303.5,781C 305.598,781.032 307.598,781.699 309.5,783C 363.902,820.009 412.402,863.843 455,914.5C 461.198,925.508 463.698,937.341 462.5,950C 462.333,955.167 462.167,960.333 462,965.5C 462.808,977.031 457.642,981.865 446.5,980C 441.167,975.667 441.167,971.333 446.5,967C 448.459,966.069 450.459,965.236 452.5,964.5C 453.696,963.441 454.363,962.107 454.5,960.5C 451.075,952.806 449.242,944.806 449,936.5C 449.308,935.692 449.808,935.025 450.5,934.5C 456.402,934.771 458.902,932.104 458,926.5C 456.493,927.535 454.993,927.368 453.5,926C 438.753,914.587 426.086,901.254 415.5,886C 407.326,879.581 398.326,874.747 388.5,871.5C 389.091,874.614 390.758,877.114 393.5,879C 412.822,893.988 428.988,911.821 442,932.5C 442.825,936.211 442.659,939.878 441.5,943.5C 439.144,941.31 436.644,939.31 434,937.5C 433.833,937.833 433.667,938.167 433.5,938.5C 437.082,944.914 441.249,950.914 446,956.5C 446.497,958.81 446.663,961.143 446.5,963.5C 445.127,963.657 443.793,963.49 442.5,963C 439.778,959.058 436.278,957.225 432,957.5C 434.563,971.602 437.063,985.768 439.5,1000C 439.226,1004.6 438.392,1009.1 437,1013.5C 433.715,1018.45 430.048,1023.12 426,1027.5C 427.027,1012.35 429.027,997.345 432,982.5C 427.564,985.348 424.564,989.348 423,994.5C 420.818,1005.31 418.151,1015.98 415,1026.5C 411.4,1029.35 408.4,1028.69 406,1024.5C 400.471,1008.6 398.471,992.271 400,975.5C 405.387,963.283 403.387,952.283 394,942.5C 393.833,943.5 393.667,944.5 393.5,945.5C 395.145,950.932 396.478,956.432 397.5,962C 397.74,964.891 396.907,967.391 395,969.5C 394.667,981.5 394.333,993.5 394,1005.5C 393.113,1012.05 391.446,1018.38 389,1024.5C 380.772,1009.6 376.272,993.595 375.5,976.5 Z"/></g>
<g><path style="opacity:1" fill="#1b1b1b" d="M 614.5,817.5 C 620.255,818.337 623.255,821.67 623.5,827.5C 618.758,826.773 615.425,824.107 613.5,819.5C 613.863,818.817 614.196,818.15 614.5,817.5 Z"/></g>
<g><path style="opacity:1" fill="#090909" d="M 771.5,833.5 C 776.034,833.267 780.368,834.1 784.5,836C 799.817,843.321 814.483,851.654 828.5,861C 839.213,870.048 850.213,878.714 861.5,887C 885.689,902.593 909.356,918.926 932.5,936C 938.21,939.855 944.21,943.188 950.5,946C 957.5,952.333 964.5,958.667 971.5,965C 976.062,966.553 980.396,968.553 984.5,971C 986.54,973.185 987.874,975.685 988.5,978.5C 983.808,978.159 979.474,976.659 975.5,974C 965.55,965.39 954.55,958.39 942.5,953C 899.27,924.886 857.27,895.053 816.5,863.5C 816.167,863.667 815.833,863.833 815.5,864C 820.467,869.969 825.801,875.635 831.5,881C 839.796,887.627 847.796,894.627 855.5,902C 871.345,913.423 887.012,925.09 902.5,937C 908.015,942.348 913.348,947.848 918.5,953.5C 917.635,954.583 916.635,954.749 915.5,954C 911.833,951.667 908.167,949.333 904.5,947C 885.369,931.603 865.702,916.936 845.5,903C 821.368,881.87 797.535,860.37 774,838.5C 772.906,836.922 772.072,835.255 771.5,833.5 Z"/></g>
<g><path style="opacity:1" fill="#0b0b0b" d="M 341.5,844.5 C 344.516,845.343 347.183,846.843 349.5,849C 359.444,857.939 368.278,867.772 376,878.5C 376.749,879.635 376.583,880.635 375.5,881.5C 363.186,872.353 352.353,861.686 343,849.5C 341.991,847.975 341.491,846.308 341.5,844.5 Z"/></g>
<g><path style="opacity:1" fill="#141414" d="M 631.5,860.5 C 637.255,861.337 640.255,864.67 640.5,870.5C 634.7,869.699 631.7,866.366 631.5,860.5 Z"/></g>
<g><path style="opacity:1" fill="#0a0a0a" d="M 578.5,877.5 C 580.903,877.393 582.736,878.393 584,880.5C 591.411,893.232 595.911,906.899 597.5,921.5C 593.438,921.276 590.605,919.276 589,915.5C 587.262,907.562 585.928,899.562 585,891.5C 582.262,889.354 579.262,887.687 576,886.5C 574.93,882.858 575.764,879.858 578.5,877.5 Z"/></g>
<g><path style="opacity:1" fill="#0f0f0f" d="M 378.5,893.5 C 379.725,894.152 380.392,895.319 380.5,897C 379.561,902.993 377.561,908.493 374.5,913.5C 370.525,911.358 367.358,908.358 365,904.5C 363.115,902.086 362.448,899.419 363,896.5C 365.344,898.181 367.677,899.848 370,901.5C 373.476,899.584 376.309,896.917 378.5,893.5 Z"/></g>
<g><path style="opacity:1" fill="#0f0f0f" d="M 401.5,907.5 C 405.768,909.933 409.268,913.266 412,917.5C 418.084,926.665 423.917,935.998 429.5,945.5C 422.509,944.806 416.509,947.306 411.5,953C 409.975,954.009 408.308,954.509 406.5,954.5C 406.491,952.692 406.991,951.025 408,949.5C 410.333,947.833 412.667,946.167 415,944.5C 415.923,942.966 416.423,941.299 416.5,939.5C 414.275,931.049 410.441,923.383 405,916.5C 403.336,913.673 402.17,910.673 401.5,907.5 Z"/></g>
<g><path style="opacity:1" fill="#0f0f0f" d="M 575.5,927.5 C 579.746,928.044 583.246,930.044 586,933.5C 590.643,938.594 592.809,944.594 592.5,951.5C 589.675,951.919 587.509,950.919 586,948.5C 581.349,942.032 577.849,935.032 575.5,927.5 Z"/></g>
<g><path style="opacity:1" fill="#0e0e0e" d="M 548.5,933.5 C 554.33,933.161 556.83,935.827 556,941.5C 552.952,945.01 549.619,945.343 546,942.5C 544.927,938.9 545.76,935.9 548.5,933.5 Z"/></g>
<g><path style="opacity:1" fill="#1d1d1d" d="M 429.5,947.5 C 431.476,948.427 431.809,949.76 430.5,951.5C 429.571,950.311 429.238,948.978 429.5,947.5 Z"/></g>
<g><path style="opacity:1" fill="#0a0a0a" d="M 566.5,956.5 C 576.449,955.782 581.116,960.449 580.5,970.5C 574.509,969.587 569.342,966.92 565,962.5C 564.257,960.126 564.757,958.126 566.5,956.5 Z"/></g>
<g><path style="opacity:1" fill="#0d0d0d" d="M 597.5,968.5 C 609.501,974.179 613.668,983.512 610,996.5C 608.611,998.227 606.944,999.561 605,1000.5C 604.228,1000.36 603.561,1000.02 603,999.5C 602.833,998.167 602.667,996.833 602.5,995.5C 604.071,990.599 604.571,985.599 604,980.5C 602.255,979.044 600.422,977.711 598.5,976.5C 597.607,973.916 597.274,971.249 597.5,968.5 Z"/></g>
<g><path style="opacity:1" fill="#6c6c6c" d="M 375.5,976.5 C 374.833,980.5 374.167,984.5 373.5,988.5C 373.334,982.491 373.501,976.491 374,970.5C 375.319,972.25 375.819,974.25 375.5,976.5 Z"/></g>
<g><path style="opacity:1" fill="#dddddd" d="M 345.5,1001.5 C 361.955,1013.72 366.121,1029.39 358,1048.5C 354,1056.5 350,1064.5 346,1072.5C 345.182,1075.23 345.348,1077.89 346.5,1080.5C 347.795,1081.1 349.128,1081.6 350.5,1082C 365.863,1082.84 381.197,1082.5 396.5,1081C 400.716,1080.28 404.716,1078.95 408.5,1077C 414.693,1075.35 418.86,1077.51 421,1083.5C 423.6,1091.13 425.1,1098.79 425.5,1106.5C 414.947,1097.89 402.947,1092.56 389.5,1090.5C 379.915,1091.12 371.249,1094.29 363.5,1100C 356.106,1107.37 347.439,1112.7 337.5,1116C 328.015,1117.73 320.015,1115.06 313.5,1108C 312.5,1107.33 311.5,1107.33 310.5,1108C 309.683,1115.75 309.183,1123.59 309,1131.5C 307.903,1138.58 304.403,1144.08 298.5,1148C 296.635,1149.3 294.635,1149.63 292.5,1149C 286.597,1142.88 279.597,1138.55 271.5,1136C 267.638,1135.09 263.972,1135.42 260.5,1137C 265.1,1139.21 269.266,1142.05 273,1145.5C 272.922,1150.38 271.589,1155.05 269,1159.5C 268.213,1163.18 267.379,1166.85 266.5,1170.5C 261.429,1162.48 257.596,1153.81 255,1144.5C 252.905,1136.74 254.739,1130.24 260.5,1125C 268.486,1121.34 275.653,1116.51 282,1110.5C 283.128,1108.65 283.628,1106.65 283.5,1104.5C 282.127,1104.34 280.793,1104.51 279.5,1105C 259.802,1122.45 237.469,1127.12 212.5,1119C 210.833,1118.33 209.167,1118.33 207.5,1119C 200.747,1127.63 191.914,1132.8 181,1134.5C 175.245,1134.21 171.412,1131.38 169.5,1126C 172.312,1123.27 175.646,1121.27 179.5,1120C 187.444,1111.84 187.444,1103.67 179.5,1095.5C 223.744,1106.36 263.41,1097.19 298.5,1068C 319.465,1049.54 335.131,1027.38 345.5,1001.5 Z"/></g>
<g><path style="opacity:0.957" fill="#434343" d="M 799.5,1024.5 C 803.1,1026.43 806.1,1029.1 808.5,1032.5C 804.9,1030.57 801.9,1027.9 799.5,1024.5 Z"/></g>
<g><path style="opacity:1" fill="#dbdbdb" d="M 163.5,1039.5 C 171.144,1039.41 178.477,1040.91 185.5,1044C 200.538,1051.38 214.205,1060.71 226.5,1072C 235.173,1076.11 244.006,1079.61 253,1082.5C 253.63,1084.9 252.797,1086.74 250.5,1088C 246.989,1090.51 243.156,1092.34 239,1093.5C 233.26,1091.37 228.427,1087.87 224.5,1083C 219.569,1078.69 213.903,1077.03 207.5,1078C 201.028,1080.44 194.361,1081.94 187.5,1082.5C 187.916,1074.79 188.416,1067.12 189,1059.5C 185.844,1050 179.344,1045.83 169.5,1047C 163.707,1049.73 158.04,1052.73 152.5,1056C 150.26,1056.98 147.927,1057.48 145.5,1057.5C 145.491,1055.69 145.991,1054.02 147,1052.5C 151.561,1046.75 157.061,1042.42 163.5,1039.5 Z"/></g>
<g><path style="opacity:1" fill="#dddddd" d="M 531.5,1057.5 C 532.552,1057.35 533.552,1057.52 534.5,1058C 537.061,1061.47 540.061,1064.47 543.5,1067C 547.71,1068.02 551.377,1067.02 554.5,1064C 556.167,1063.33 557.833,1063.33 559.5,1064C 561.304,1072.3 566.304,1077.47 574.5,1079.5C 574.833,1080.17 575.167,1080.83 575.5,1081.5C 573.853,1085.46 571.686,1089.13 569,1092.5C 562.039,1101.13 554.705,1109.46 547,1117.5C 546.333,1118.5 546.333,1119.5 547,1120.5C 559.191,1126.12 571.691,1130.95 584.5,1135C 594.841,1136.27 604.841,1134.93 614.5,1131C 623.833,1126 633.167,1121 642.5,1116C 665.006,1109.09 680.006,1116.75 687.5,1139C 686.862,1142.29 684.862,1143.29 681.5,1142C 679.65,1138.64 677.317,1135.64 674.5,1133C 665.452,1132.81 656.452,1132.31 647.5,1131.5C 645.45,1128.38 643.95,1125.05 643,1121.5C 639.685,1126.46 637.185,1131.8 635.5,1137.5C 636.183,1141.2 637.683,1144.53 640,1147.5C 641.134,1155.07 637.967,1159.57 630.5,1161C 622.694,1161.35 616.194,1158.52 611,1152.5C 609.293,1150.09 608.46,1147.42 608.5,1144.5C 603.768,1146.7 599.102,1149.2 594.5,1152C 577.907,1154.05 561.24,1155.05 544.5,1155C 538.553,1156.61 535.053,1160.45 534,1166.5C 534.138,1177.38 532.805,1188.05 530,1198.5C 529,1199.5 528,1200.5 527,1201.5C 523.342,1196.34 518.508,1194.67 512.5,1196.5C 513.803,1198.97 515.303,1201.3 517,1203.5C 517.667,1204.83 517.667,1206.17 517,1207.5C 505.683,1217.13 499.35,1229.46 498,1244.5C 494.631,1235.53 491.798,1226.36 489.5,1217C 490.302,1211.56 492.802,1207.06 497,1203.5C 498.009,1201.98 498.509,1200.31 498.5,1198.5C 490.328,1200.5 487.494,1197.5 490,1189.5C 499.752,1178 506.919,1165 511.5,1150.5C 510.833,1150.17 510.167,1149.83 509.5,1149.5C 503.718,1153.44 498.051,1157.61 492.5,1162C 477.545,1170.21 461.545,1174.54 444.5,1175C 438.751,1179.97 434.584,1186.13 432,1193.5C 427.994,1198.17 423.494,1198.67 418.5,1195C 412.5,1190.33 406.5,1185.67 400.5,1181C 397.789,1179.78 394.956,1178.95 392,1178.5C 377.903,1182.09 370.07,1191.09 368.5,1205.5C 363.152,1200.28 361.318,1193.95 363,1186.5C 367.014,1178.82 372.181,1171.98 378.5,1166C 385.802,1160.09 393.135,1160.09 400.5,1166C 406.65,1174.48 413.15,1182.65 420,1190.5C 421.023,1189.4 421.523,1188.07 421.5,1186.5C 420.195,1176.89 416.028,1168.89 409,1162.5C 406.164,1157.05 407.664,1153.22 413.5,1151C 424.208,1144.56 435.708,1142.72 448,1145.5C 451.903,1145.48 455.736,1144.98 459.5,1144C 478.849,1132.9 496.016,1119.07 511,1102.5C 515.424,1096.66 519.091,1090.32 522,1083.5C 524.871,1074.65 528.038,1065.98 531.5,1057.5 Z"/></g>
<g><path style="opacity:0.992" fill="#404040" d="M 298.5,1054.5 C 296.833,1058.17 294.167,1060.83 290.5,1062.5C 292.833,1059.5 295.5,1056.83 298.5,1054.5 Z"/></g>
<g><path style="opacity:1" fill="#dadada" d="M 432.5,1075.5 C 443.05,1074.36 452.217,1077.36 460,1084.5C 461.783,1086.29 462.616,1088.46 462.5,1091C 461.967,1096.98 460.133,1102.48 457,1107.5C 454.167,1104 451.333,1100.5 448.5,1097C 437.439,1094.44 431.106,1087.61 429.5,1076.5C 430.791,1076.74 431.791,1076.4 432.5,1075.5 Z"/></g>
<g><path style="opacity:1" fill="#d9d9d9" d="M 147.5,1095.5 C 152.844,1095.33 158.177,1095.5 163.5,1096C 169.543,1097.7 171.71,1101.53 170,1107.5C 163.993,1109.11 157.826,1109.94 151.5,1110C 139.931,1112.91 132.265,1119.91 128.5,1131C 125.143,1132.14 123.143,1130.97 122.5,1127.5C 127.866,1114.47 136.199,1103.81 147.5,1095.5 Z"/></g>
<g><path style="opacity:0.969" fill="#525252" d="M 133.5,1094.5 C 130.5,1098.17 127.167,1101.5 123.5,1104.5C 125.833,1100.17 129.167,1096.83 133.5,1094.5 Z"/></g>
<g><path style="opacity:1" fill="#dcdcdc" d="M 381.5,1098.5 C 390.162,1097.66 398.495,1098.83 406.5,1102C 414.18,1106.51 421.513,1111.51 428.5,1117C 432.714,1119.27 437.047,1121.27 441.5,1123C 451.441,1124.23 461.441,1124.9 471.5,1125C 465.947,1130.22 459.614,1134.22 452.5,1137C 441.838,1136.85 431.171,1136.85 420.5,1137C 412.143,1140.26 404.31,1144.43 397,1149.5C 391.662,1139.56 392.329,1130.23 399,1121.5C 399.749,1120.36 399.583,1119.36 398.5,1118.5C 391.964,1116.56 385.297,1116.06 378.5,1117C 370.646,1118.68 362.98,1120.84 355.5,1123.5C 356.561,1117.56 359.561,1112.73 364.5,1109C 369.594,1104.46 375.261,1100.96 381.5,1098.5 Z"/></g>
</svg>
