<?xml version="1.0" encoding="UTF-8"?>
<!DOCTYPE svg PUBLIC "-//W3C//DTD SVG 1.1//EN" "http://www.w3.org/Graphics/SVG/1.1/DTD/svg11.dtd">
<svg xmlns="http://www.w3.org/2000/svg" xmlns:xlink="http://www.w3.org/1999/xlink" width="1816" height="2048" style="shape-rendering:geometricPrecision;text-rendering:geometricPrecision;image-rendering:optimizeQuality;fill-rule:evenodd;clip-rule:evenodd" version="1.1">
  <g>
    <path fill="#010101" d="M680.5 38.5c10.868.3391 18.368 5.6725 22.5 16 3.551 12.0742 5.551 24.4075 6 37 1.334 49.362 3.334 98.696 6 148 .767 17.834 4.1 35.167 10 52 3.324 13.896 3.991 27.896 2 42-1.061 4.731-3.394 8.731-7 12-1.632 4.53-2.632 9.196-3 14-2.799 25.258-4.466 50.591-5 76-.903 36.684-.569 73.351 1 110 .632 5.565 2.632 10.565 6 15-.657 11.45 2.343 21.784 9 31 10.956 13.958 22.29 27.625 34 41 19.862 20.195 40.028 40.029 60.5 59.5 29.296 24.961 58.296 50.294 87 76 39.192 36.176 74.359 75.676 105.5 118.5 40.64 57.362 77.3 117.36 110 180 21.84 41.69 43.18 83.69 64 126 5.72 13.17 11.06 26.51 16 40 33.1 70.19 65.1 140.86 96 212 24.24 63.39 46.91 127.39 68 192 13.3 38.28 30.96 74.28 53 108 35.96 51.21 83.46 66.04 142.5 44.5 18.21-6.62 35.55-14.95 52-25 34.26-22.78 45.1-53.95 32.5-93.5-7.56-21.79-16.23-43.12-26-64-11.64-30.55-2.81-53.05 26.5-67.5 18.09-4.29 35.76-2.95 53 4 27.72 12.39 48.22 32.22 61.5 59.5 3.66 8.98 5.5 18.31 5.5 28-1.5 11.97-2 23.97-1.5 36 5.38 6.15 7.55 13.32 6.5 21.5-.2 21.93-5.7 42.43-16.5 61.5-1.46 9.85-4.46 19.18-9 28-2 3.33-4.67 6-8 8-.07 6.29-1.41 12.29-4 18-5.21 9.87-11.21 19.2-18 28-3.92 9.14-8.59 17.8-14 26-37.35 31.1-79.18 54.6-125.5 70.5-26.8 7.88-54.13 10.88-82 9-18.68-2.77-37.35-5.6-56-8.5-5.36.67-10.69 1.5-16 2.5-15.57 7.3-31.91 11.97-49 14-40.95 3.22-81.95 5.55-123 7-16.16.59-31.82 3.59-47 9-13.66 2.07-26.66.07-39-6-2.82-1.82-5.32-3.99-7.5-6.5-.33-3.33-.67-6.67-1-10-.42-1.17-1.09-2.17-2-3-6.27 2.26-11.44 6.1-15.5 11.5-7.04 4.35-14.7 7.01-23 8-26.87 3.72-53.87 5.22-81 4.5-39.073 2.23-77.406-1.93-115-12.5-7.333-.67-14.667-.67-22 0-25.457 7.98-51.457 10.48-78 7.5-12.499-1.19-24.499.64-36 5.5-7.333 4-14.667 8-22 12-19.253 8.77-26.753 2.6-22.5-18.5 1.338-7.02 2.338-14.02 3-21-8.073 7.28-16.24 14.45-24.5 21.5-4.535 3.77-9.535 6.77-15 9-3.591.79-7.091.62-10.5-.5-1.284-9.9-1.951-19.9-2-30-2.555-4.37-6.388-6.87-11.5-7.5-15.069-2.42-28.236 1.41-39.5 11.5-1.218 4.43-3.385 8.26-6.5 11.5-8.717 3.87-14.55 1.37-17.5-7.5-.823-7.89.177-15.56 3-23 13.097-30.42 32.264-56.25 57.5-77.5 11.646-7.08 24.313-11.08 38-12 45.307-5.33 90.64-5.67 136-1 8.333.67 16.667.67 25 0-66.866-51.32-121.033-113.49-162.5-186.5-21.64-39.25-35.474-81.09-41.5-125.5-1.866-26.56-4.366-53.06-7.5-79.5-2.698-25.5-8.698-50.16-18-74-3.169-6.83-7.669-12.66-13.5-17.5-6.062-2.43-11.728-1.76-17 2-9.931 11.69-17.431 24.85-22.5 39.5-9.087 28.43-15.754 57.43-20 87-3.627 26.72-7.627 53.39-12 80-11.575 43.63-21.575 87.63-30 132-7.217 41.97-14.217 83.97-21 126-3.141 9.81-9.641 16.31-19.5 19.5-2.46 1.46-4.627 3.29-6.5 5.5-2.477 10.1-6.144 19.76-11 29-30.144 41.82-67.977 74.65-113.5 98.5-13.776 6.01-28.109 8.01-43 6-10.157 2.5-19.157 7.17-27 14-8.222 7.23-16.722 14.06-25.5 20.5-2.281-1.28-4.281-2.94-6-5-5.459-7.13-11.292-13.96-17.5-20.5-11.079-8.4-22.079-8.4-33 0-4.701 4.37-9.034 9.03-13 14-7.333 1.25-12.5-1.59-15.5-8.5-1.98-6.19-3.313-12.52-4-19-.346-2.35-1.513-4.18-3.5-5.5-6.276-1.34-11.943 0-17 4-8.777 7.44-18.11 14.11-28 20-3 .67-6 .67-9 0-3.59-1.53-7.257-2.86-11-4-7.333-.33-14.6667-.67-22-1-5.4143-.47-8.081-3.47-8-9 2.4335-11.63 6.2668-22.8 11.5-33.5 11.233-23.48 24.233-45.81 39-67 4.263-6.26 9.763-11.1 16.5-14.5 42.3-.32 68.8-20.82 79.5-61.5 19.737-72.35 34.737-145.69 45-220 13.287-80.96 23.62-162.3 31-244 4.542-50.94 5.542-101.94 3-153-1.06-17.03-4.06-33.69-9-50-2.237-7.67-6.737-13.5-13.5-17.5-11.61-1.25-23.276-1.91-35-2-8.833-2.5-11.666-8-8.5-16.5 5.896-4.55 10.229-10.22 13-17 .56-25.43-4.44-49.77-15-73-9.585-19.511-19.919-38.511-31-57-2.433-7.499-4.1-15.166-5-23-.977-13.703-2.31-27.37-4-41-1.668-3.842-4.168-7.009-7.5-9.5-9.688-3.927-18.855-8.76-27.5-14.5-5.588-8.879-4.422-16.712 3.5-23.5l20-10c4.858-5.904 7.358-12.738 7.5-20.5.668-25.375 2.001-50.709 4-76 1.009-7.723 2.343-15.39 4-23 3.119-9.687 5.619-19.521 7.5-29.5-.637-2.245-1.47-4.412-2.5-6.5-4.749-4.078-8.749-8.745-12-14-7.589-14.177-14.922-28.51-22-43-2.95-4.618-6.284-8.952-10-13-.667-3-.667-6 0-9 5.542-12.569 8.042-25.736 7.5-39.5.037-36.817-7.463-71.984-22.5-105.5-13.738-37.025-22.238-75.191-25.5-114.5-.443-6.61.557-12.943 3-19 3.667-.333 7.333-.667 11-1 1.016-.519 1.682-1.353 2-2.5.579-14.014 1.412-28.014 2.5-42 2.126-5.795 5.46-10.795 10-15 .986-2.278 1.82-4.611 2.5-7-6.413-19.138-10.246-38.804-11.5-59-1.479-24.316-1.813-48.649-1-73 .923-32.2242 16.423-53.7242 46.5-64.5 13.482-2.3738 26.816-1.7072 40 2 18.616 6.139 35.616 15.139 51 27 11.961 9.6256 23.628 19.6256 35 30 76.012-1.316 152.012-3.6495 228-7 12.01-.7232 23.677-3.0566 35-7 15.593-8.6013 30.927-17.6013 46-27 19.114-10.4013 39.114-18.2346 60-23.5Z" style="opacity:0.995"/>
  </g>
  <g>
    <path fill="#e6e6e6" d="M178.5 66.5c32.462.3187 61.128 10.8187 86 31.5 18.878 16.384 37.878 32.55 57 48.5-8.006 5.503-16.672 9.669-26 12.5-15.269 2.243-28.436-1.924-39.5-12.5-5.336-26.014-19.836-45.181-43.5-57.5-10.616-5.0932-18.783-2.5932-24.5 7.5-.667 3.667-.667 7.333 0 11 3.361 9.723 8.027 18.723 14 27 12.333 14.333 24.667 28.667 37 43 3.078 7.579.578 10.079-7.5 7.5-6.882-2.584-11.382-7.417-13.5-14.5-11.41-11.749-24.243-21.583-38.5-29.5-7.018-5.677-12.518-12.511-16.5-20.5-1.967-6.699.533-9.866 7.5-9.5.691-1.067 1.191-2.234 1.5-3.5.332-11.0113.332-22.0113 0-33 1.277-3.4382 3.443-6.1049 6.5-8Z" style="opacity:1"/>
  </g>
  <g>
    <path fill="#e8e8e8" d="M656.5 66.5c3.071-.5755 5.071.5912 6 3.5-1.03 2.5602-2.197 5.0602-3.5 7.5-10 11.3333-20 22.667-30 34-6.464 7.927-10.464 16.927-12 27-2.978 7.409-8.478 11.242-16.5 11.5-5.358 4.874-6.358 10.54-3 17 2.268 1.552 4.768 2.385 7.5 2.5 7.062-2.788 12.062-.788 15 6 1 9.333 2 18.667 3 28 2.225 5.887 4.892 11.553 8 17 .667 7.667.667 15.333 0 23-1.077 5.323-3.577 9.823-7.5 13.5-3.761.738-7.428.405-11-1-8.667-7.333-16.667-15.333-24-24-1.333-.667-2.667-.667-4 0-.812 6.085-1.312 12.252-1.5 18.5-.973 6.781-4.14 12.281-9.5 16.5-17.976 9.155-36.31 17.489-55 25-7.411 3.034-15.078 4.034-23 3-5.898-1.432-9.898-4.932-12-10.5 2.042-6.21 6.042-10.71 12-13.5 12.701-6.007 25.368-12.007 38-18 3.556-2.055 6.223-4.888 8-8.5-.029-1.529-.696-2.696-2-3.5-11.119-3.13-22.453-4.13-34-3-8.347 1.679-15.18 5.846-20.5 12.5-8.061 11.732-15.728 23.732-23 36l-5.5 5.5c-1.333.667-2.667.667-4 0-3.84-5.334-7.84-10.5-12-15.5-1.872 9.296-1.039 18.296 2.5 27 4.856 4.175 9.856 8.175 15 12 2.525 5.44 4.525 11.107 6 17 5.044 5.376 9.711 11.042 14 17 1.53 3.59 2.864 7.257 4 11 .849 9.738 2.182 19.405 4 29 .847 4.005 3.014 7.005 6.5 9 2.027-1.193 3.527-2.86 4.5-5 1.045-6.625 1.711-13.292 2-20 2.328-7.915 7.495-10.749 15.5-8.5 1.431.465 2.597 1.299 3.5 2.5.58 4.442.08 8.776-1.5 13 .908 6.296 4.075 7.63 9.5 4 .616-4.451 2.449-8.284 5.5-11.5 6.749-1.139 13.083-3.473 19-7 6-4.667 12-9.333 18-14 1.284-.684 2.451-.517 3.5.5-.658 9.182 2.509 11.016 9.5 5.5 12.816-14.788 20.816-31.622 24-50.5 9.884 4.081 14.884 11.581 15 22.5-1.294 5.788-1.794 11.621-1.5 17.5 4.883-5.096 8.217-11.096 10-18 1.667-11.333 3.333-22.667 5-34 .862-1.587 1.529-3.254 2-5 2.697-3.358 5.364-6.691 8-10-3.201-11.684-.367-21.517 8.5-29.5 8.765-5.061 13.431-2.561 14 7.5-1.403 9.947-3.903 19.614-7.5 29-.851 2.553-.518 4.886 1 7 7.921-4.956 12.421-2.79 13.5 6.5-.49 5.139-1.99 9.972-4.5 14.5-4.949 4.943-9.116 10.443-12.5 16.5.145.772.478 1.439 1 2 5.667.333 11.333.667 17 1 .808.308 1.475.808 2 1.5-4.992 4.823-10.158 9.49-15.5 14-5.386 6.646-4.552 12.146 2.5 16.5 7.237.633 14.404.133 21.5-1.5 4.091-.319 5.091 1.014 3 4-12.378 14.057-27.211 24.557-44.5 31.5-8.585-.957-15.085 2.21-19.5 9.5-2.985 8.913-5.651 17.913-8 27-5.978 10.545-12.145 10.545-18.5 0-1.528-1.361-3.195-2.528-5-3.5-6.551-1.856-13.217-3.189-20-4-3.827-1.746-7.493-3.746-11-6-8.573-9.32-19.239-13.154-32-11.5-16.558-1.429-30.558 3.738-42 15.5-5.384 2.764-11.051 4.764-17 6-16.967 1.924-33.967 3.591-51 5-10.817 1.691-21.483 4.025-32 7-3.412 1.455-6.579 3.288-9.5 5.5-1.041 3.136-.207 5.636 2.5 7.5 11.392 3.79 22.725 7.79 34 12 15.393 10.842 18.893 24.675 10.5 41.5-8.75 11.784-20.25 19.117-34.5 22-4.922.206-9.255-1.294-13-4.5-2.957-4.08-5.79-8.247-8.5-12.5-3.016-4.319-5.35-3.986-7 1-1.352 8.541-5.186 15.707-11.5 21.5-4.723 2.235-9.723 3.069-15 2.5-.149-1.052.017-2.052.5-3 4.624-2.794 8.791-6.127 12.5-10-2.89-2.295-3.723-5.295-2.5-9 2.434-8.717 7.601-15.217 15.5-19.5 3.178-.445 6.345-.278 9.5.5 7.167-.5 11-4.333 11.5-11.5.146-2.034-.52-3.701-2-5-3.96-1.091-7.96-2.091-12-3-3.188-1.934-4.688-4.768-4.5-8.5-.903-1.201-2.069-2.035-3.5-2.5-4.333-.667-8.667-.667-13 0-6.178 2.03-12.512 3.196-19 3.5 3.113-6.303 7.279-11.97 12.5-17 5.907-8.468 8.24-17.802 7-28-.948-2.07-2.448-3.57-4.5-4.5-6.069-.804-12.069-.471-18 1-18.202 5.848-34.702 14.682-49.5 26.5-1.93 3.576-3.097 7.409-3.5 11.5-8.985-.322-17.651-2.322-26-6-3.919-1.54-7.419-3.707-10.5-6.5-.896-3.292.271-5.625 3.5-7 1.544-4.728.711-9.062-2.5-13-10.333-13-20.667-26-31-39-5.558-7.781-8.225-16.448-8-26-8.177-3.191-13.177-9.191-15-18-.854-4.125-.52-8.125 1-12 3.681-1.535 7.514-2.702 11.5-3.5 1.825-1.466 2.325-3.299 1.5-5.5-1.663-2.417-3.829-4.25-6.5-5.5-5.118-.398-10.118-.065-15 1l-2.5-2.5c-.333-6.667-.667-13.333-1-20-.574-1.992-1.741-3.492-3.5-4.5-3.333-.333-6.667-.667-10-1-1.978-2.497-2.478-5.331-1.5-8.5 4.489-7.827 10.822-13.494 19-17 1.711-.061 3.044.606 4 2 6.525 25.16 22.692 38.327 48.5 39.5 6.799-.399 12.132-3.399 16-9 1.717-1.559 3.717-2.392 6-2.5-1.782 16.635-2.949 33.302-3.5 50 1.614 5.611 4.781 10.111 9.5 13.5 26.489 14.704 54.822 22.371 85 23 2-.667 4-1.333 6-2 2.193-5.948 6.526-9.282 13-10 7.058-1.618 12.892.216 17.5 5.5.754 7.546 2.421 14.88 5 22 3.057 4.15 5.39 3.816 7-1 .109-14.373.776-28.707 2-43 1.701-10.404 5.368-20.07 11-29 5.205-10.946 8.371-22.446 9.5-34.5.233-3.459-.601-6.626-2.5-9.5-15.517-2.851-28.684-10.018-39.5-21.5-9.427-7.369-20.093-12.036-32-14-7.863.593-15.03-1.241-21.5-5.5-1.174-3.546-1.84-7.213-2-11-2.815-5.669-7.315-7.502-13.5-5.5-12.014 6.337-23.348 13.67-34 22-3.333 1.667-6.667 3.333-10 5-11.435 4.568-17.935.735-19.5-11.5-.667-6-.667-12 0-18 .855-7.496 4.688-9.996 11.5-7.5 4.954 3.285 9.62 6.952 14 11 .948.483 1.948.649 3 .5-1.069-9.019-2.403-18.019-4-27-.381-2.825.619-4.991 3-6.5 10.687-.893 21.353-2.226 32-4l2.5-2.5c-2.238-7.441-.405-13.607 5.5-18.5 11.357-4.178 22.357-9.178 33-15 9.832-7.086 20.166-13.419 31-19 8.215-.683 16.215-2.35 24-5 14.538-1.403 28.872-.403 43 3 2.885 2.394 5.885 4.561 9 6.5 4.963-1.783 9.297-4.617 13-8.5 3.134-.79 6.134-.457 9 1 4 4.667 8 9.333 12 14 .948.483 1.948.649 3 .5-1.149-7.028.518-13.195 5-18.5 11.548-5.767 17.714-2.267 18.5 10.5 3.973 5.913 9.473 9.746 16.5 11.5 19.156 4.55 38.49 5.55 58 3 3.284-1.396 4.951-3.896 5-7.5-5.524-14.879-3.024-28.212 7.5-40 18.742-17.2539 39.909-30.5872 63.5-40Z" style="opacity:1"/>
  </g>
  <g>
    <path fill="#e6e6e6" d="M673.5 81.5c4.758.9141 8.258 3.5808 10.5 8 6.781 16.018 9.447 32.685 8 50-2.287 8.397-7.787 12.897-16.5 13.5-10.143 1.085-20.143.418-30-2-4.27-.912-6.104-3.412-5.5-7.5 3.365-3.864 7.198-7.197 11.5-10 4.834-5.677 3.667-9.344-3.5-11-4.764 1.473-9.597 2.473-14.5 3 2.492-9.605 8.826-14.439 19-14.5 4.386-1.93 7.552-5.097 9.5-9.5 1.561-8.1408 5.395-14.8075 11.5-20Z" style="opacity:1"/>
  </g>
  <g>
    <path fill="#e5e5e5" d="M169.5 155.5c9.011-.916 14.178 3.084 15.5 12-.564 11.178 1.436 21.844 6 32l7.5 7.5c5.054 2.389 9.554 5.555 13.5 9.5 4.981 9.396 1.981 14.063-9 14-10.493-1.834-19.66-6.334-27.5-13.5-6.958-5.951-12.791-12.785-17.5-20.5-3.668-7.313-1.501-11.146 6.5-11.5.691-1.067 1.191-2.234 1.5-3.5-.544-7.31-.877-14.643-1-22 1.397-1.57 2.897-2.904 4.5-4Z" style="opacity:1"/>
  </g>
  <g>
    <path fill="#e4e4e4" d="M675.5 193.5c13.534-1.615 18.034 4.052 13.5 17-6.016 9.477-11.682 9.144-17-1-2.925-6.458-1.758-11.792 3.5-16Z" style="opacity:1"/>
  </g>
  <g>
    <path fill="#e6e6e6" d="M201.5 245.5c13.438-1.379 22.271 4.288 26.5 17 6.946 23.391-.887 30.891-23.5 22.5-11.124-9.991-13.957-21.824-8.5-35.5 1.812-1.477 3.645-2.81 5.5-4Z" style="opacity:1"/>
  </g>
  <g>
    <path fill="#e6e6e6" d="M291.5 244.5c4.292-.465 8.292.368 12 2.5 3.038 2.703 5.705 5.703 8 9 19.679 3.925 36.179 13.425 49.5 28.5 2.164 2.311 3.164 4.978 3 8-28.682 3.418-56.516-.415-83.5-11.5-2.31-1.637-3.81-3.804-4.5-6.5-2.402-14.055 2.764-24.055 15.5-30Z" style="opacity:1"/>
  </g>
  <g>
    <path fill="#e5e5e5" d="M522.5 304.5c6.98-1.065 12.48 1.269 16.5 7 .79 3.134.457 6.134-1 9-3.59 2.546-7.423 4.713-11.5 6.5-2.488 2.627-2.655 5.46-.5 8.5 8.284 11.614 16.95 11.947 26 1 1.664-3.656 2.497-7.49 2.5-11.5-1.527-5.745-2.027-11.579-1.5-17.5 3-4 6-4 9 0 3.963 12.677 2.963 25.01-3 37-11.779 14.041-25.612 16.541-41.5 7.5-11.027-11.456-12.86-24.29-5.5-38.5 3.103-3.614 6.603-6.614 10.5-9Z" style="opacity:1"/>
  </g>
  <g>
    <path fill="#e3e3e3" d="M694.5 308.5c3.152-.541 5.652.459 7.5 3 1.893 3.118 3.226 6.451 4 10 .667 6.667.667 13.333 0 20-.196 1.786-1.029 3.119-2.5 4-11.074-6.009-15.574-15.342-13.5-28 .986-3.306 2.486-6.306 4.5-9Z" style="opacity:1"/>
  </g>
  <g>
    <path fill="#e4e4e4" d="M297.5 312.5c5.099-.325 10.099.175 15 1.5 8.923 5.873 9.256 12.206 1 19-4.916 1.161-9.916 1.827-15 2-.457.414-.791.914-1 1.5 5.679 5.179 11.179 10.512 16.5 16 2.243 6.765-.257 9.598-7.5 8.5-12.444-9.392-17.944-21.892-16.5-37.5.764-4.918 3.264-8.584 7.5-11Z" style="opacity:1"/>
  </g>
  <g>
    <path fill="#e0e0e0" d="M583.5 312.5c7.821-1.667 11.321 1.333 10.5 9-4.789 10.281-11.289 19.281-19.5 27-.333-.667-.667-1.333-1-2 3.123-9.449 5.29-19.115 6.5-29 .997-1.823 2.164-3.49 3.5-5Z" style="opacity:1"/>
  </g>
  <g>
    <path fill="#e3e3e3" d="M263.5 322.5c5.507 1.002 9.007 4.336 10.5 10 1.196 5.552.363 10.719-2.5 15.5-5.406 2.324-8.906.491-10.5-5.5-.667-5.333-.667-10.667 0-16 .662-1.484 1.496-2.817 2.5-4Z" style="opacity:1"/>
  </g>
  <g>
    <path fill="#e5e5e5" d="M522.5 439.5c3.447.314 6.78 1.148 10 2.5 20.497 12.248 41.83 22.915 64 32 5.046.816 10.046 1.816 15 3 3.991 1.621 5.824 4.454 5.5 8.5-.903 1.201-2.069 2.035-3.5 2.5-12.073.114-24.073-.552-36-2-2.731 2.626-4.564 5.793-5.5 9.5.087 10.181-2.579 19.514-8 28-3.419 3.348-7.252 3.848-11.5 1.5-12.89-5.891-23.723-14.391-32.5-25.5-1.303-2.44-2.47-4.94-3.5-7.5.672-3.677 2.839-5.51 6.5-5.5 2.544-.116 4.711.717 6.5 2.5 4.051 5.518 9.384 8.685 16 9.5.289-3.149-.211-6.149-1.5-9-5.358-6.524-10.525-13.19-15.5-20 1.333-.333 2.667-.667 4-1 6.981 1.496 13.981 2.829 21 4-2.679-8.516-8.346-14.349-17-17.5-3.253-1.036-6.586-1.703-10-2-6.22-3.021-7.553-7.521-4-13.5Z" style="opacity:1"/>
  </g>
  <g>
    <path fill="#e6e6e6" d="M442.5 446.5c5.355-1.155 9.522.512 12.5 5 2.455 4.031 4.121 8.364 5 13 1.697 6.043 5.531 8.21 11.5 6.5 5.742-1.803 11.409-3.803 17-6 2.333-.667 4.667-.667 7 0 .597 1.062.93 2.228 1 3.5-3.71 10.476-2.21 20.143 4.5 29 6.366 6.031 12.366 12.364 18 19 .926 3.753-.574 5.92-4.5 6.5-17.016 2.332-32.016-2.001-45-13-11.791-10.448-21.291-22.615-28.5-36.5-2.013-5.203-3.513-10.537-4.5-16-.237-5.007 1.763-8.673 6-11Z" style="opacity:1"/>
  </g>
  <g>
    <path fill="#e2e2e2" d="M648.5 446.5c6.009-.166 12.009.001 18 .5 3.876 2.128 3.876 4.461 0 7-11.407 6.874-23.74 9.874-37 9-1.825-1.466-2.325-3.299-1.5-5.5 5.84-5.668 12.673-9.334 20.5-11Z" style="opacity:1"/>
  </g>
  <g>
    <path fill="#e1e1e1" d="M301.5 454.5h7c-2.168 7.806-6.501 14.306-13 19.5-6.926 5.974-14.926 8.974-24 9-2.371-2.184-2.204-4.35.5-6.5 8.888-8.737 18.721-16.071 29.5-22Z" style="opacity:1"/>
  </g>
  <g>
    <path fill="#dfdfdf" d="M209.5 462.5c13.748 1.416 26.415 5.916 38 13.5 2.107 1.264 3.107 3.097 3 5.5-13.889-1.019-26.555-5.519-38-13.5-2.107-1.264-3.107-3.097-3-5.5Z" style="opacity:1"/>
  </g>
  <g>
    <path fill="#e0e0e0" d="M231.5 490.5c9.172-.872 17.339 1.461 24.5 7 1.271 3.666.104 6.166-3.5 7.5-8.666 1.651-16.666.151-24-4.5-1.211-1.374-2.211-2.874-3-4.5 1.404-2.527 3.404-4.36 6-5.5Z" style="opacity:1"/>
  </g>
  <g>
    <path fill="#e2e2e2" d="M189.5 505.5c14.51.343 25.01 7.009 31.5 20 1.412 8.082-1.754 10.249-9.5 6.5-8.776-3.8-16.61-8.967-23.5-15.5-3.687-4.375-3.187-8.041 1.5-11Z" style="opacity:1"/>
  </g>
  <g>
    <path fill="#e4e4e4" d="M658.5 513.5c4.219-.521 7.886.646 11 3.5 17.909 17.463 14.576 22.797-10 16-6.333-6.182-6.666-12.682-1-19.5Z" style="opacity:1"/>
  </g>
  <g>
    <path fill="#e2e2e2" d="M251.5 520.5c6.026-.824 11.193.842 15.5 5 .7 4.989-1.467 8.155-6.5 9.5-4.611 1.007-8.945.34-13-2-3.366-5.674-2.032-9.84 4-12.5Z" style="opacity:1"/>
  </g>
  <g>
    <path fill="#e7e7e7" d="M438.5 536.5c8.007-.166 16.007 0 24 .5 7.035.79 13.702 2.79 20 6 2.54 2.205 4.707 4.705 6.5 7.5 3.781 18.284-3.386 29.451-21.5 33.5-11.772 1.024-23.439.357-35-2-18.412-3.326-24.579-13.826-18.5-31.5 1.458-2.46 3.291-4.627 5.5-6.5 6.104-3.417 12.437-5.917 19-7.5Z" style="opacity:1"/>
  </g>
  <g>
    <path fill="#e1e1e1" d="M230.5 542.5c7.344.039 13.511 2.705 18.5 8 1.14 3.028.306 5.195-2.5 6.5-6.641 1.406-12.641.073-18-4-4.454-4.667-3.787-8.167 2-10.5Z" style="opacity:1"/>
  </g>
  <g>
    <path fill="#e2e2e2" d="M634.5 543.5c4.621-.507 8.954.326 13 2.5 1.961 2.963 4.294 5.629 7 8 13.029-2.308 19.196 3.192 18.5 16.5-2.153 1.944-4.653 2.444-7.5 1.5-12.758-3.96-24.258-10.127-34.5-18.5-.781-1.229-1.281-2.562-1.5-4 .965-2.628 2.632-4.628 5-6Z" style="opacity:1"/>
  </g>
  <g>
    <path fill="#e4e4e4" d="M270.5 551.5c9.181.509 15.181 5.175 18 14-.719 2.228-2.052 4.061-4 5.5-5.58 1.517-11.247 1.851-17 1-6.963-2.28-8.796-6.78-5.5-13.5 2.464-2.981 5.297-5.314 8.5-7Z" style="opacity:1"/>
  </g>
  <g>
    <path fill="#e1e1e1" d="M311.5 557.5c7.786-.352 14.286 2.315 19.5 8 .751 4.095-1.082 6.262-5.5 6.5-5.421.839-10.754.506-16-1-4.916-1.848-6.083-5.014-3.5-9.5 1.812-1.477 3.645-2.81 5.5-4Z" style="opacity:1"/>
  </g>
  <g>
    <path fill="#e3e3e3" d="M204.5 558.5c9.653-.257 17.486 3.409 23.5 11 2.447 3.697 1.947 6.864-1.5 9.5-10.98 1.26-19.147-2.907-24.5-12.5-1.163-3.471-.33-6.138 2.5-8Z" style="opacity:1"/>
  </g>
  <g>
    <path fill="#e6e6e6" d="M352.5 566.5c1.277 1.194 1.944 2.86 2 5-4.766 36.729-13.766 72.396-27 107 .855.793 1.689.46 2.5-1 8.624-10.96 17.624-21.626 27-32-3.024 21.072-10.024 40.739-21 59-.667 2-.667 4 0 6 1.049 1.017 2.216 1.184 3.5.5 7.577-10.314 13.743-21.481 18.5-33.5 3.727-9.181 7.061-18.515 10-28 2.647-5.825 6.98-7.825 13-6 1.711.061 3.044-.606 4-2 .873-4.938 2.039-9.771 3.5-14.5 2.403-.63 4.237.203 5.5 2.5 3.231 6.65 4.231 13.65 3 21-.46 9.38-3.293 17.88-8.5 25.5-6.613 2.602-12.113 6.768-16.5 12.5-13.47 16.594-24.137 34.928-32 55-.631 3.71-.131 7.21 1.5 10.5-4.458 15.084-10.958 29.25-19.5 42.5-10.839 17.013-22.172 33.68-34 50-1.684 1.851-3.517 3.518-5.5 5l-2-2c-1.2 1.031-2.534 1.865-4 2.5-3.667 5-8 9.333-13 13-9.374 3.276-17.541 1.442-24.5-5.5-.863-5.838 1.637-9.671 7.5-11.5 12.364-2.109 22.864-7.609 31.5-16.5 7.806-16.952 17.139-32.952 28-48 2.388-4.108 4.221-8.441 5.5-13-1.352-3.754-4.018-4.921-8-3.5-6.849 6.185-13.016 13.018-18.5 20.5-9.679 16.513-21.179 31.68-34.5 45.5l-3 1.5c-1.157-3.284-1.324-6.618-.5-10 2.06-5.12 4.393-10.12 7-15 24.473-34.004 48.139-68.337 71-103-18.468 20.136-37.301 39.969-56.5 59.5-2.728 2.392-5.728 4.392-9 6-1.867.711-3.367.211-4.5-1.5-.142-9.301 1.025-18.468 3.5-27.5-.038-3.888-1.204-4.388-3.5-1.5-3.137 4.608-5.47 9.608-7 15-1.709 8.92-2.709 17.92-3 27-.955 12.075-5.789 22.242-14.5 30.5-1.51.85-3.01 1.683-4.5 2.5-.772-.145-1.439-.478-2-1 .088-19.863 3.422-39.197 10-58 3.732-5.406 7.065-11.073 10-17l18-48c5.238-11.48 11.238-22.48 18-33 1.606-3.531 2.772-7.198 3.5-11 6.084-1.41 12.084-1.243 18 .5 3.066 4.335 4.732 9.169 5 14.5l1-1c6.161-19.327 11.994-38.661 17.5-58-5.899 10.213-14.732 16.379-26.5 18.5-9.574 2.119-19.241 2.786-29 2-5.486-.484-7.319-3.317-5.5-8.5 3.134-2.712 6.8-4.045 11-4 6.03 1.174 12.03 2.507 18 4 1.167-.333 2.333-.667 3.5-1-3.878-5.374-7.545-10.874-11-16.5.145-.772.478-1.439 1-2 2.215-1.044 4.548-1.71 7-2 9-.333 18-.667 27-1 8.728-1.013 15.894-4.846 21.5-11.5 3.329-5.486 6.829-10.82 10.5-16Z" style="opacity:1"/>
  </g>
  <g>
    <path fill="#e4e4e4" d="M236.5 577.5c9.188-.438 17.522 2.062 25 7.5 5.182 3.826 6.682 8.659 4.5 14.5-12.805 4.947-23.471 1.947-32-9-2.542-5.062-1.708-9.395 2.5-13Z" style="opacity:1"/>
  </g>
  <g>
    <path fill="#e3e3e3" d="M605.5 585.5c6.102-.767 11.769.399 17 3.5 3.1 4.733 2.434 8.733-2 12-8.277 1.243-15.944-.423-23-5-1.507-.837-2.007-2.004-1.5-3.5 3.068-2.583 6.235-4.916 9.5-7Z" style="opacity:1"/>
  </g>
  <g>
    <path fill="#dedede" d="M654.5 584.5c8.767-.852 17.101.648 25 4.5 5.681 2.507 9.348 6.674 11 12.5-12.885-2.97-25.885-5.47-39-7.5-1.825-1.466-2.325-3.299-1.5-5.5 1.397-1.57 2.897-2.904 4.5-4Z" style="opacity:1"/>
  </g>
  <g>
    <path fill="#e4e4e4" d="M573.5 587.5c9.817-.351 14.317 4.315 13.5 14-1.458 2.46-3.291 4.627-5.5 6.5-5.246 1.506-10.579 1.839-16 1-3.792-2.053-4.958-5.219-3.5-9.5 2.691-5.189 6.524-9.189 11.5-12Z" style="opacity:1"/>
  </g>
  <g>
    <path fill="#e4e4e4" d="M214.5 600.5c14.312 1.406 25.478 8.072 33.5 20 1.221 5.47-.946 8.97-6.5 10.5-6.751 2.068-13.084 1.068-19-3-5.244-4.249-9.411-9.416-12.5-15.5-1.691-5.369-.191-9.369 4.5-12Z" style="opacity:1"/>
  </g>
  <g>
    <path fill="#e8e8e8" d="m743.5 1492.5 2-20c5.374 10.21 10.541 20.55 15.5 31 3.278 8.45 5.611 17.11 7 26 8.693 5.68 12.86 3.18 12.5-7.5-.119-4.31-.952-8.47-2.5-12.5-13.639-27.88-22.639-57.22-27-88-.831-3.67-2.665-6.67-5.5-9-6.642 8.73-10.475 7.4-11.5-4-.958-4.62-1.625-9.29-2-14-.667-25.67-.667-51.33 0-77 1.215-23.07 5.881-45.41 14-67 2.94-7.6 7.44-14.1 13.5-19.5 3.333-2 6.667-2 10 0 3.284 3.41 6.45 6.91 9.5 10.5 1.262-3.81 1.929-7.81 2-12 1.057-8.1 5.224-10.6 12.5-7.5 1.414 3.06 2.581 6.22 3.5 9.5 11.483 5.62 20.15 2.62 26-9 .915.83 1.581 1.83 2 3-.452 7.26 2.381 12.76 8.5 16.5 10.133 4.03 20.133 8.37 30 13 8.347 6.69 16.347 13.69 24 21 6.565 1.84 13.232 3.17 20 4 1.877 2.25 3.377 4.75 4.5 7.5 1.239 7.44 2.906 14.77 5 22 3.781 3.35 8.114 4.02 13 2 4.608.49 6.942 3.16 7 8 .499 5.32.666 10.66.5 16-.166 4.68.001 9.35.5 14 .717-.54 1.217-1.21 1.5-2 5.868-13.03 13.535-24.86 23-35.5 2.6-1.43 5.1-2.93 7.5-4.5.935-2.41 1.435-4.91 1.5-7.5-1.411-7.15-2.744-14.31-4-21.5.806-4.3 3.139-5.13 7-2.5 2.557 2.89 4.724 6.06 6.5 9.5-.313 11.35 5.187 17.19 16.5 17.5 1.786.78 3.29 1.95 4.5 3.5 1.97 4.8 3.31 9.8 4 15 3.6 1.91 6.93 4.24 10 7 7.67 14.01 12.33 29.01 14 45 .33 14.7-.01 29.37-1 44l1 1c7.17-7.5 15.67-13 25.5-16.5 1.88-1.54 3.38-3.38 4.5-5.5.67-4.67.67-9.33 0-14-2.47-7.56-4.14-15.22-5-23 8.08 6.29 16.24 12.45 24.5 18.5 4.19 4.22 8.02 8.72 11.5 13.5 2.61 13.22 7.94 25.22 16 36 3.11 5.34 5.45 11.01 7 17 1.75 11.72 3.08 23.38 4 35 9.39-17.25 12.06-35.58 8-55-4.64-20.16-8.31-40.5-11-61-.15-13.46-1.48-26.8-4-40-.71-1.58-1.54-3.08-2.5-4.5-1-.67-2-.67-3 0-2.21 1.87-4.04 4.04-5.5 6.5-3.82 8.32-8.16 16.32-13 24-6.31 5.43-12.47 5.27-18.5-.5-5.97-5.59-8.14-12.42-6.5-20.5 3.14-5.47 5.81-11.13 8-17 .5-1.97.66-3.97.5-6-1.37-.16-2.71.01-4 .5-4.46 4.95-9.12 9.61-14 14-6.69 1.57-11.86-.59-15.5-6.5-10.62-16.91-19.96-34.57-28-53-2.75-4.75-6.25-8.92-10.5-12.5-2.027-.5-4.027-.33-6 .5-2.607-.64-4.94-1.8-7-3.5-6.374-6.71-12.374-13.71-18-21-1.667-.67-3.333-.67-5 0-2.597 5.19-5.93 9.86-10 14-1.867.71-3.367.21-4.5-1.5-9.864-19.73-19.197-39.73-28-60-.972-3.6-1.472-7.26-1.5-11 .793-6.37 1.793-12.71 3-19-5.715.4-11.215 1.74-16.5 4-3.307-.75-4.807-2.91-4.5-6.5 1.648-8.56 3.148-17.06 4.5-25.5-3.445 4.56-6.112 9.56-8 15-2.26 22.69 1.406 44.36 11 65 2.753 4.71 6.753 7.71 12 9 5.617 13.7 1.117 20.2-13.5 19.5-2.5-1.17-4.333-3-5.5-5.5-.919-4.37-1.919-8.7-3-13-2.571-1.85-5.238-3.52-8-5-7.938-12.54-14.272-25.88-19-40-4.408-12.56-8.408-25.22-12-38 .023 15.53.856 31.03 2.5 46.5.023 4.57-.477 9.07-1.5 13.5-1.029 3.38-3.196 4.54-6.5 3.5-3.5-2.17-6.333-5-8.5-8.5-5.581-12.41-8.914-25.41-10-39-.888-13.32-1.555-26.66-2-40-.92-2.6-1.587-5.27-2-8-.777-1.71-2.11-2.71-4-3-2.734 1.09-5.4 1.09-8 0-.211-9.24.622-18.41 2.5-27.5.396-5.83-1.104-6.66-4.5-2.5-5.976 10.23-8.642 21.23-8 33 11.088 16.68 15.754 35.02 14 55-3.126 16.7-10.126 18.36-21 5-5.151-6.79-7.484-14.45-7-23-.911-3.08-2.744-5.41-5.5-7-.978.48-1.811 1.14-2.5 2-.667 5-.667 10 0 15 3.852 13.77 5.518 27.77 5 42-.519 1.02-1.353 1.68-2.5 2-3.277-1.44-5.777-3.77-7.5-7-11.908-25.97-20.575-52.97-26-81-.667-6.67-.667-13.33 0-20 2-6.67 4-13.33 6-20 1.092-4.3 1.425-8.63 1-13-1.049-1.02-2.216-1.18-3.5-.5-4.935 6.71-8.102 14.21-9.5 22.5-3.942 22.48-5.609 45.14-5 68-.828 5.48-2.161 10.81-4 16-1.629 5.36-4.962 7.69-10 7-1.044-2.21-1.71-4.55-2-7-.333-11.67-.667-23.33-1-35-.419-1.17-1.085-2.17-2-3-4.167 5.5-8.333 11-12.5 16.5-1.135.75-2.135.58-3-.5-3.739-12.43-6.405-25.1-8-38-.187-2.06-.687-4.06-1.5-6-.497 2.65-.664 5.31-.5 8 1.332 15.17-1.501 29.51-8.5 43-1.554 2.6-3.72 3.77-6.5 3.5-.782-2.74-1.282-5.57-1.5-8.5-.833-1-1.667-2-2.5-3-5.113-2.14-10.446-3.64-16-4.5-3.402-3.72-3.902-7.89-1.5-12.5 3.955-5.62 8.288-10.96 13-16 8.394-14.24 11.727-29.57 10-46-1.123-2.75-2.623-5.25-4.5-7.5-1.333-.67-2.667-.67-4 0-3.358 8.41-6.525 16.91-9.5 25.5-4.3 6.16-8.967 6.5-14 1-2.861-4.39-5.194-9.05-7-14-1.263-2.3-3.097-3.13-5.5-2.5-1.854 2.54-3.021 5.38-3.5 8.5-.667 9.33-.667 18.67 0 28 3.421 13.59 6.421 27.26 9 41 .819 11.04.486 22.04-1 33-1.19 4.71-3.19 9.05-6 13-2.167 1.96-4.501 2.3-7 1 5.773-18.54 4.107-36.54-5-54-3.084-1.46-5.084-.46-6 3-.312 13.67-.145 27.34.5 41-1.89.2-3.39-.46-4.5-2-2.194-3.05-3.861-6.39-5-10-.437-4.78.063-9.45 1.5-14-8.428.75-15.928 3.75-22.5 9-1.872 2.71-2.705 5.71-2.5 9 .524 4.05 1.357 8.05 2.5 12 .791 4.43.457 8.76-1 13-3.818 2.72-7.151 2.05-10-2-1.594-6.04-3.261-12.04-5-18-7.12-7.02-14.954-7.85-23.5-2.5-4.977 4.65-9.644 9.65-14 15-1.612.72-3.112.55-4.5-.5-6.535-9.61-10.702-20.11-12.5-31.5-.276-3.79.557-7.29 2.5-10.5 4.906-5.48 9.572-11.15 14-17 1.261-5.58-.906-7.41-6.5-5.5-6.277 3.22-11.443 7.72-15.5 13.5-5.613 11.61-13.446 21.44-23.5 29.5-6.34 2.99-9.673.99-10-6 .213-3.64 1.047-7.14 2.5-10.5 10.894-22.46 22.227-44.46 34-66-9.667 11.67-19.333 23.33-29 35-5.694 9.05-10.027 18.72-13 29-.667 6-.667 12 0 18 4.64 8.92 8.307 18.25 11 28 2.496 10.57 1.829 20.91-2 31-1.491 1.5-3.324 2.34-5.5 2.5-2.268 1.56-3.434 3.72-3.5 6.5-.099 10.08.901 20.08 3 30 .667 6 .667 12 0 18-.804 1.3-1.971 1.97-3.5 2-12.573-6.59-17.739-2.92-15.5 11 .465 1.43 1.299 2.6 2.5 3.5 4.886 1.22 9.886 1.89 15 2 2.675 1.84 4.508 4.34 5.5 7.5.912 4.29 1.579 8.63 2 13 .43 30.04 1.763 60.04 4 90 3.181 21.27 5.514 20.94 7-1 .071-17.38.738-34.71 2-52 .469-8.13 4.636-12.63 12.5-13.5-3.262-2.59-5.762-5.76-7.5-9.5-10.887-31.54-15.22-63.87-13-97 5.961-4.54 10.294-3.2 13 4 4.945 17.84 9.279 35.84 13 54 1.263-7.23 1.93-14.56 2-22 .837-6.84 3.67-12.67 8.5-17.5 6.267-2.53 11.767-1.37 16.5 3.5 4.637 5.61 7.971 11.94 10 19 1.891 9.58 3.225 19.25 4 29 2.503 9.34 6.836 17.67 13 25 1.264 2.11 3.097 3.11 5.5 3-.931-10.35-2.098-20.68-3.5-31-.667-4.33-.667-8.67 0-13 .583-1.5 1.416-2.83 2.5-4 6.61-.44 9.944-3.94 10-10.5-1.658-5.74-2.158-11.58-1.5-17.5 4.582-1.56 8.248-.22 11 4 5.765 8.89 6.765 18.22 3 28-2.042 2.1-4.542 3.27-7.5 3.5-.96 1.42-1.793 2.92-2.5 4.5.289 11.99.289 23.99 0 36-2.596 2-4.929 4.33-7 7-.856 7.43-2.19 14.76-4 22-1.365 2.36-3.365 4.03-6 5-4.567 10.26-7.9 20.93-10 32-7.957 39.41-14.291 79.08-19 119-1.405 5.88-3.405 11.55-6 17-2.488 1.15-4.488 2.81-6 5-.329 10.53.171 21.03 1.5 31.5-.089 6.2-.589 12.37-1.5 18.5-5.123 19.94-10.123 39.94-15 60-6.031 32.49-12.698 64.82-20 97-2.751 11.5-6.084 22.84-10 34-1.387 5.04-4.554 7.87-9.5 8.5-3.067 3.3-5.233 7.13-6.5 11.5-1.266 8.8-3.932 17.13-8 25-2.855 3.84-6.688 5.68-11.5 5.5-2.833 1.5-5 3.67-6.5 6.5-2.75 9.76-5.75 19.42-9 29-1.167 1.17-2.333 2.33-3.5 3.5-7.889 1.36-13.056 5.86-15.5 13.5-.518 7.57-3.351 14.07-8.5 19.5-10.857 1.86-19.357 7.36-25.5 16.5-3.202 6.42-7.369 12.08-12.5 17-1.299-.59-2.132-1.59-2.5-3-.621-5.88-2.788-11.04-6.5-15.5-2-.67-4-.67-6 0-6.667 8-13.333 16-20 24-2 .67-4 .67-6 0-3.667-2.33-7.333-4.67-11-7-2.333-.67-4.667-.67-7 0-2.923 2.05-5.757 4.21-8.5 6.5-5.698 7.19-11.531 14.19-17.5 21-.995-12.49-1.329-25.16-1-38 3.323-22.79 16.656-33.29 40-31.5 9.805-2.47 17.305-7.97 22.5-16.5.667-1.33.667-2.67 0-4-8.136-.57-11.136-4.91-9-13 2.428-5.62 2.761-11.29 1-17-1.868-1.17-3.702-1.01-5.5.5-4.534 4.59-7.368 10.09-8.5 16.5-1.54 3.92-3.707 7.42-6.5 10.5-5.599 3.01-7.933 1.34-7-5 .082-3.24.582-6.4 1.5-9.5 10.123-25.83 17.123-52.49 21-80 1.409-7.64 3.742-14.97 7-22 3.368-5.7 8.201-9.54 14.5-11.5 11.001-.04 22.001-.04 33 0 3.167-.5 5-2.33 5.5-5.5.896-5.45.563-10.78-1-16-.804-1.3-1.971-1.97-3.5-2-6.012 3.72-9.178 2.05-9.5-5-2.855-3.84-6.688-5.68-11.5-5.5-1.833-.5-3-1.67-3.5-3.5-.794-2.97-1.461-5.97-2-9-1.963-33.71.704-67.04 8-100 2.077-13.91 7.077-26.58 15-38 1.547-5.95 2.881-11.95 4-18 1.503-29.74 3.837-59.4 7-89 .701-7.85 3.368-14.85 8-21 .92-2.6 1.587-5.27 2-8 1.131-24.09.131-48.09-3-72-.667-10.33-.667-20.67 0-31 .833-2.17 2.333-3.67 4.5-4.5 5.397-.23 10.731-.89 16-2 6.007-1.67 8.173-5.5 6.5-11.5-4.806-3.89-9.14-8.23-13-13-1.244-7.76 2.089-11.42 10-11 2.925.02 5.759.52 8.5 1.5 1.979 4.16 4.312 8.16 7 12 5.096 1.58 8.263-.25 9.5-5.5.886-4.97 1.552-9.97 2-15 1.523-4.95 4.69-6.29 9.5-4 1.883-.38 3.383-1.38 4.5-3 1.251-12.76-1.916-24.26-9.5-34.5-4.05-3.36-8.717-5.02-14-5-6.493-5.08-7.66-11.25-3.5-18.5 2.317-2.6 5.15-3.43 8.5-2.5.597 1.06.93 2.23 1 3.5-1.149 2.94-1.649 5.94-1.5 9 1.126 1.44 2.626 2.11 4.5 2 6.931-.9 13.598-2.73 20-5.5 1.624-1.12 2.624-2.62 3-4.5-6.771-12.11-15.438-22.78-26-32-5.063 5.78-9.896 11.78-14.5 18-7.833 10.17-18 14.01-30.5 11.5-1.167 1.17-2.333 2.33-3.5 3.5-.96 9.78 2.373 17.78 10 24 2.966 6.92.799 10.42-6.5 10.5-1.786-.78-3.286-1.95-4.5-3.5-2.679-7.53-6.512-14.36-11.5-20.5-3.464-.82-6.798-.48-10 1-2.54 3.87-5.706 7.04-9.5 9.5-2.281-1.28-4.281-2.94-6-5-2.517-5.85-6.851-9.52-13-11-2.248.73-4.415 1.73-6.5 3-.406-6.13 2.594-9.97 9-11.5 7.942-.62 15.776-.12 23.5 1.5 17.005.49 25.171-7.84 24.5-25 .667-6 1.333-12 2-18 3.604 9.88 7.77 19.54 12.5 29 .561.52 1.228.86 2 1 2.764-3.19 4.764-6.86 6-11 2.747-24.52-1.92-47.52-14-69-4.333-3.67-8.667-7.33-13-11-2.704-4.62-4.038-9.62-4-15-.388-.93-1.055-1.59-2-2-3.902 2.37-7.735 4.87-11.5 7.5-2.081.87-4.247 1.37-6.5 1.5-2.509-.59-5.009-.76-7.5-.5-5.406 7.98-9.906 16.48-13.5 25.5-3.389 6.22-8.222 10.89-14.5 14-.667-.33-1.333-.67-2-1-.423-3.1-1.423-5.94-3-8.5-1.667-.67-3.333-.67-5 0-6.166 4.34-8.666 2.84-7.5-4.5 4.429-9.44 10.762-17.44 19-24 8.507-12.69 12.34-26.69 11.5-42 .667-2 1.333-4 2-6 1.174 8.38 2.674 16.72 4.5 25 1.123 2.75 2.623 5.25 4.5 7.5 1.496.51 2.663.01 3.5-1.5 1.872-2.71 2.705-5.71 2.5-9-1.654-6.93-2.487-13.93-2.5-21 .561-.52 1.228-.86 2-1 4.385 3.15 8.051 2.49 11-2 5.847-15.72 11.847-31.38 18-47 6.21-11.535 13.21-22.535 21-33 4.333-10.333 8.667-20.667 13-31 7.944-12.276 16.277-24.276 25-36 3.631-7.173 6.964-14.507 10-22 5.385-6.384 10.385-13.05 15-20 .833-3.167-.333-4.333-3.5-3.5-5.019 2.843-9.686 6.176-14 10-15.723 15.379-29.556 32.212-41.5 50.5-5.491 11.65-11.491 22.983-18 34-8.433 16.197-15.766 32.864-22 50-4.747 7.949-10.913 9.115-18.5 3.5-6.961-4.643-11.128-11.143-12.5-19.5-.999-9.011.335-17.677 4-26 5.254-8.839 10.254-17.839 15-27 3.111-8.112 5.445-16.446 7-25 4.849-10.372 11.182-19.705 19-28 9.667-7 18-15.333 25-25 .483-.948.649-1.948.5-3-5.097.043-9.764 1.543-14 4.5-8.947 5.947-17.614 12.28-26 19-5.427 3.764-11.093 7.097-17 10-2.201.825-4.034.325-5.5-1.5-1.204-4.216-1.87-8.549-2-13-.718-.951-1.551-1.117-2.5-.5-5.626 9.418-11.126 18.918-16.5 28.5l-8.5 8.5c-6.664.582-12.164 3.415-16.5 8.5-5.845 10.357-11.178 21.023-16 32-2.143 2.825-4.81 4.825-8 6-3.399-.565-5.232-2.565-5.5-6 .469-3.574 1.636-6.908 3.5-10 12.66-15.309 18.994-32.975 19-53 2.592-9.556 8.759-15.39 18.5-17.5 21.326-22.133 37.492-47.633 48.5-76.5 1.035-3.149.368-5.816-2-8-.809-4.863-.142-9.53 2-14 11.793-19.919 21.127-40.919 28-63 7.851-12.342 19.018-17.842 33.5-16.5 2.292 1.29 4.292 2.957 6 5 1.667.667 3.333.667 5 0 4.167-2.833 7.667-6.333 10.5-10.5 7.601-13.278 17.101-25.111 28.5-35.5 3.342-2.515 7.009-4.348 11-5.5.942.108 1.775.441 2.5 1 .919 3.278 2.086 6.445 3.5 9.5 10.008 5.167 20.341 5.834 31 2 6.974-6.989 15.307-11.656 25-14 7.959-1.592 15.959-2.925 24-4 38.637-3.371 76.637-.038 114 10 18.72 5.085 33.887 15.252 45.5 30.5 3.613 8.836 7.613 17.503 12 26 5 7.667 10 15.333 15 23l70.5 88.5c6.727 5.536 14.393 7.869 23 7 1.444-1.126 2.11-2.626 2-4.5-1.768-6.203-4.602-11.87-8.5-17-5-5.667-10-11.333-15-17-1.112-1.89-1.946-3.89-2.5-6 .579-1.961 1.913-2.961 4-3 9.033 3.52 16.533 9.186 22.5 17 5.471 8.131 11.638 15.631 18.5 22.5 1.284.684 2.451.517 3.5-.5-1.239-9.015 1.928-15.849 9.5-20.5 4.094-.767 8.094-.434 12 1 7.389 3.882 12.389 9.715 15 17.5.014 2.093-.652 3.926-2 5.5-7.899 2.521-15.899 4.188-24 5 7.05 1.944 12.883 5.778 17.5 11.5 3 4.333 6 8.667 9 13 4.824 10.317 10.158 20.317 16 30 3.592 6.594 9.092 10.428 16.5 11.5l4.5 4.5c4.595 11.692 11.095 22.192 19.5 31.5 2.529 2.029 5.196 3.862 8 5.5.063-4.213.229-8.546.5-13 2.833-5.5 7-9.667 12.5-12.5 1.61-.72 3.11-.554 4.5.5 3.96 37.556 14.96 72.89 33 106 4.28 7.51 9.95 8.85 17 4 2.23-4.897 1.9-9.563-1-14-3.58-2.873-7.41-5.373-11.5-7.5-7.68-8.72-11.18-18.886-10.5-30.5 2.55-2.506 5.05-2.34 7.5.5 23.68 27.524 39.85 59.02 48.5 94.5 2.93 1.57 6.1 2.4 9.5 2.5l3.5 3.5c.91 4.04 1.91 8.04 3 12 2.82 3.99 6.65 5.66 11.5 5-1.2 3.33-3.53 5.83-7 7.5-4.33 4.15-5.16 8.98-2.5 14.5 12.07 20.81 21.41 42.81 28 66 9.09 41.6 22.76 81.6 41 120 1.61 3.54 3.94 6.54 7 9 1.01-4 2.17-8 3.5-12 1.92-1.14 3.92-1.31 6-.5 5.35 5.2 9.85 11.03 13.5 17.5 4.41 9.82 9.08 19.49 14 29 2.75 5.09 6.92 8.26 12.5 9.5 3.93 2.87 4.93 6.53 3 11-2.7.61-5.37.44-8-.5-1.59.51-2.75 1.51-3.5 3-.75 9.14-2.25 18.14-4.5 27-1.35 1.4-3.02 2.06-5 2-4.29-1.38-8.62-2.22-13-2.5-1.08 1.73-1.24 3.56-.5 5.5 4.55 10.77 9.89 21.11 16 31 5.68 6.67 12.84 10 21.5 10 8.56 12.13 14.73 25.46 18.5 40 7.57 27.5 11.74 55.5 12.5 84 3.87-7.83 6.03-16.17 6.5-25 .43-17.37.09-34.7-1-52 2.47-8.37 6.14-9.04 11-2 1.62 3.85 2.62 7.85 3 12-.1 11.84 1.24 23.51 4 35 3.22 3.88 5.55 8.21 7 13 1.65 24.01 3.31 48.01 5 72 1.12 2.75 2.62 5.25 4.5 7.5 4.6 1.1 9.27 1.93 14 2.5 2.55 2.81 4.05 6.15 4.5 10 .33 28 .67 56 1 84 .14 7.46 1.14 14.79 3 22 .39.93 1.05 1.59 2 2 1.74-1.18 2.74-2.85 3-5 1.97-10.66 3.81-21.32 5.5-32 1.4 2.47 2.23 5.14 2.5 8 5.04 45.38 10.38 90.71 16 136 .71 6.72.38 13.38-1 20-1.4 2.03-3.06 2.36-5 1-5.89-10.34-10.23-21.34-13-33-5.04-17.31-8.04-34.98-9-53-2.47-7.33-7.64-10.83-15.5-10.5-3.31-2.78-5.47-6.28-6.5-10.5-.65-11.84-.49-23.68.5-35.5-.46-17.65-4.96-34.15-13.5-49.5-2.42-4.12-5.92-5.96-10.5-5.5-3.51 4.34-7.18 8.51-11 12.5-.59-.21-1.09-.54-1.5-1-.14-6.08-.8-12.08-2-18-1.54-3.31-3.7-3.81-6.5-1.5-9.04 9.89-16.2 21.06-21.5 33.5-4.39 9.17-8.39 18.5-12 28-1.54 4.54-2.38 9.21-2.5 14 4.12-.06 7.45-1.73 10-5 9.31-9.96 18.14-20.29 26.5-31-2.44 16.41-6.77 32.41-13 48-6.79 16.24-14.12 32.24-22 48-4.06 8.74-1.56 12.24 7.5 10.5 4.19-3.53 7.69-7.7 10.5-12.5 4.19-8.25 8.19-16.58 12-25 2.05-2.92 4.21-5.76 6.5-8.5 1-.67 2-.67 3 0 2.99 6.7 7.65 8.2 14 4.5 4.08 1.96 4.91 4.96 2.5 9-3.25 2.84-6.92 4.84-11 6-1.06 2.71-1.56 5.54-1.5 8.5 5.03 28.27 11.86 56.11 20.5 83.5 3.43 12.51 6.1 25.17 8 38 .89 7.41.56 14.75-1 22-1.17 5.17-4.33 8.33-9.5 9.5-4.33.67-8.67.67-13 0-10.42-3.04-20.75-6.37-31-10-7.17-2.44-14.5-3.44-22-3-7.69 5.56-16.35 8.23-26 8-44.3 2.1-88.64 3.1-133 3-10.88-.2-21.55 1.13-32 4-1.05 1.38-2.38 2.38-4 3-28.57 1.54-56.572-1.8-84-10-4.229-1.11-8.229-2.78-12-5l-9-9c-4.736-3.26-9.402-3.26-14 0-4.435 4.38-8.268 9.21-11.5 14.5-8.778 6.26-18.611 9.76-29.5 10.5-29.267 2.01-56.934-3.65-83-17-9.356-5.03-14.189-12.86-14.5-23.5-.561-.52-1.228-.86-2-1-4.823 3.49-9.656 6.99-14.5 10.5-4.43 2.27-9.097 2.94-14 2-5.525-2.92-7.358-7.42-5.5-13.5 12.773-19.13 30.606-28.97 53.5-29.5 2.421 1 3.755 2.83 4 5.5-.869 3.44-2.036 6.77-3.5 10-.667 1.67-.667 3.33 0 5 4.742-3.95 9.576-7.79 14.5-11.5 11.633-4.19 23.633-6.86 36-8 63.415-4.92 126.749-3.92 190 3 32 4.94 64.17 8.11 96.5 9.5 7.88.08 15.72-.42 23.5-1.5 4.95-.97 8.62-3.63 11-8 2.46-1.56 5.12-2.56 8-3 23.95 1.61 47.95 2.28 72 2 10.19-.96 19.86-3.63 29-8-12.37.23-24.7 1.23-37 3-7.67.67-15.33.67-23 0-5.11-2.04-7.27-5.87-6.5-11.5-3.4-6.74-8.24-12.24-14.5-16.5-11.04-5.45-20.54-12.95-28.5-22.5-5.63-9.08-11.13-18.25-16.5-27.5-1-.67-2-.67-3 0-3.03 3.23-5.7 6.73-8 10.5-7.36 5.37-14.7 5.2-22-.5-18.49-16.17-27.33-36.67-26.5-61.5-1-2.67-2-5.33-3-8-2.03-3.36-4.37-3.69-7-1-1.93 3.45-3.26 7.11-4 11-.16 10.38-.83 20.71-2 31-2.16 7.92-6.32 9.08-12.5 3.5-12.35-14.54-23.85-29.71-34.5-45.5l-5.5-5.5c-.95-.62-1.78-.45-2.5.5-.66 18.01 5 33.68 17 47 9.37 9.04 19.04 17.7 29 26 3.5 4.33 6.5 8.99 9 14 1.01 4.61.34 8.94-2 13-4.26 2.88-8.76 5.38-13.5 7.5-1.3.8-1.97 1.97-2 3.5 2.2 5.04 5.03 9.7 8.5 14 .72 1.61.55 3.11-.5 4.5-10.41-.38-17.58-5.55-21.5-15.5-1.19-5.44.97-8.61 6.5-9.5 2.51-4.18 2.34-8.35-.5-12.5-2.61-5.1-5.78-9.77-9.5-14-.83 5.3-1.33 10.64-1.5 16-.17 2.21-.84 4.21-2 6-5.7-6.7-11.7-13.03-18-19-.77.14-1.44.48-2 1-.33 2.67-.67 5.33-1 8-.56.52-1.23.86-2 1-4.74-2.73-8.91-6.23-12.5-10.5-5.586-4.53-11.919-6.2-19-5-6.517 2.46-13.183 4.3-20 5.5-6.394.27-10.061-2.73-11-9 2.516.26 4.85 1.09 7 2.5 3.362 1.29 5.362.29 6-3-2.692-8.36-6.692-16.02-12-23-.949-.62-1.782-.45-2.5.5l-1 10c-.388.93-1.055 1.59-2 2-4.703-3.04-8.369-7.04-11-12-6.626-12.17-9.959-25.17-10-39-.667-1.33-1.333-2.67-2-4-2.667-2-5.333-4-8-6-1.156-3.62-2.156-7.29-3-11-.093-8.41-.76-16.74-2-25-.953-2.09-2.286-2.43-4-1-5.256 8.91-5.923 18.25-2 28 8.006 26.35 17.006 52.35 27 78 2.617 7.47 4.117 15.13 4.5 23-1.373.16-2.707-.01-4-.5-7.46-5.13-13.96-11.29-19.5-18.5-12.907-16.25-24.24-33.59-34-52-2.43-5.05-3.596-10.39-3.5-16 1.802-13.46 1.302-26.79-1.5-40-4-8-8-8-12 0-.667 8.67-.667 17.33 0 26 4.177 19.2 9.177 38.2 15 57 4.469 17.73-1.031 22.23-16.5 13.5-19.055-12.38-33.888-28.55-44.5-48.5-1.347-6.1-.18-11.6 3.5-16.5 2.712-.74 5.045-.07 7 2 1.952 2.07 3.785 4.24 5.5 6.5 3.916 9.9 9.416 18.73 16.5 26.5 1.525 1.01 3.192 1.51 5 1.5.233-4.53-.6-8.87-2.5-13-4.561-10.23-9.561-20.23-15-30-1.34-4.01-2.673-8.01-4-12-.667-9.67-.667-19.33 0-29 3.094-19.99 6.094-39.99 9-60 .827-4.04.66-8.04-.5-12-1.871-1.27-3.704-1.27-5.5 0-1.725 3.17-3.058 6.51-4 10-3.394 20.61-6.394 41.27-9 62-1.178 4.38-2.512 8.71-4 13-2.034 3.36-4.368 3.69-7 1-3.481-6.96-5.815-14.3-7-22-2.687-24.91 2.646-47.91 16-69 5.484-15.9 7.817-32.23 7-49-.689-.86-1.522-1.52-2.5-2-7.746 5.91-16.413 7.58-26 5-1.494.21-2.661.88-3.5 2-.786 9.76-.119 19.43 2 29 1.793 27.82-1.041 55.16-8.5 82-15.946-32.34-26.779-66.34-32.5-102-2.254-7.84-5.587-15.17-10-22-3.549-3.21-6.716-6.71-9.5-10.5.145-.77.478-1.44 1-2 2.388-.3 4.555-1.14 6.5-2.5 2.827-4.98 4.327-10.31 4.5-16Z" style="opacity:1"/>
  </g>
  <g>
    <path fill="#050505" d="M628.5 641.5c32.04 2.52 60.707 13.687 86 33.5 8.427 8.353 15.26 17.853 20.5 28.5.497 2.31.663 4.643.5 7-3.687-.676-7.02-2.176-10-4.5-22.244-21.627-47.911-37.961-77-49-5.537-1.726-11.204-2.726-17-3-7.883-2.936-8.883-7.102-3-12.5Z" style="opacity:1"/>
  </g>
  <g>
    <path fill="#040404" d="M553.5 647.5c6.73-.274 13.397.226 20 1.5 6.949 2.43 7.616 5.763 2 10-10.931 2.83-21.931 3.163-33 1-2.894-.869-4.061-2.702-3.5-5.5 4.232-3.788 9.065-6.121 14.5-7Z" style="opacity:1"/>
  </g>
  <g>
    <path fill="#e4e4e4" d="M238.5 684.5c3.757-.429 7.257.237 10.5 2 .87 14.064-3.13 26.73-12 38-9.485 7.136-13.985 4.636-13.5-7.5-.451-13.532 4.549-24.365 15-32.5Z" style="opacity:1"/>
  </g>
  <g>
    <path fill="#050505" d="M516.5 699.5c3.095.126 4.928 1.793 5.5 5 7.895 38.28 1.561 73.947-19 107-10.458 10.606-14.458 8.272-12-7 1.94-6.547 4.94-12.547 9-18 1.156-3.623 2.156-7.289 3-11 2.535-20.02 5.202-40.02 8-60 .946-5.671 2.779-11.005 5.5-16Z" style="opacity:1"/>
  </g>
  <g>
    <path fill="#e4e4e4" d="M375.5 707.5h7c-1.442 13.295-7.442 24.129-18 32.5-5.423 2.923-8.089 1.257-8-5 2.014-12.208 8.347-21.375 19-27.5Z" style="opacity:1"/>
  </g>
  <g>
    <path fill="#030303" d="M844.5 964.5h-2c1.239-20.293-1.594-39.96-8.5-59-1.167-1.667-2.333-3.333-3.5-5-1.759-1.254-3.259-.921-4.5 1-.333 3-.667 6-1 9-.718.951-1.551 1.117-2.5.5-2.914-6.501-6.58-12.501-11-18-4.762-2.522-9.762-4.522-15-6l-3.5-3.5c-5.636-16.568-12.636-32.568-21-48-13.254-23.506-26.254-47.173-39-71-10.62-18.239-22.953-35.239-37-51-2.8-4.546-1.633-6.879 3.5-7 3.251.391 6.251 1.558 9 3.5 5.2 4.865 10.033 10.032 14.5 15.5 16.909 29.578 36.909 56.912 60 82 4.246 5.491 8.246 11.158 12 17 10.667 19.333 21.333 38.667 32 58l5.5 5.5c1.399.595 2.732.428 4-.5 4.032 3.391 6.532 7.725 7.5 13 .667 4 1.333 8 2 12 .812 17.377.312 34.711-1.5 52Z" style="opacity:1"/>
  </g>
  <g>
    <path fill="#e3e3e3" d="M801.5 721.5c2.925-.04 5.591.793 8 2.5 3.781 4.78 8.448 8.447 14 11 7.303 1.661 14.636 2.995 22 4-8.703 3.681-16.37 8.847-23 15.5-10.677-6.525-17.843-15.859-21.5-28-.64-1.765-.473-3.432.5-5Z" style="opacity:1"/>
  </g>
  <g>
    <path fill="#090909" d="M695.5 767.5c4.344-.161 8.011 1.339 11 4.5 14.92 14.678 26.754 31.511 35.5 50.5 1.079 2.563 1.579 5.229 1.5 8-2.825.419-4.991-.581-6.5-3-10.896-16.231-22.563-31.898-35-47-3.238-3.809-5.404-8.142-6.5-13Z" style="opacity:1"/>
  </g>
  <g>
    <path fill="#070707" d="M432.5 773.5c1.699-.16 3.366.006 5 .5.559.725.892 1.558 1 2.5-1.863 4.697-4.363 9.031-7.5 13-10.435 12.437-21.602 24.271-33.5 35.5-3.584 3.416-7.584 6.249-12 8.5-.748-3.571.085-6.905 2.5-10 11.873-19.369 26.707-36.036 44.5-50Z" style="opacity:1"/>
  </g>
  <g>
    <path fill="#080808" d="M862.5 822.5c11.239 11.087 20.406 23.753 27.5 38 2.245 6.846 2.911 13.846 2 21-.953 2.092-2.286 2.425-4 1-9.339-19.674-17.839-39.674-25.5-60Z" style="opacity:1"/>
  </g>
  <g>
    <path fill="#050505" d="M578.5 848.5h4c-.708 6.961-2.542 13.627-5.5 20-7.735 18.321-18.568 34.488-32.5 48.5-2.318 1.993-4.984 3.159-8 3.5 1.246-5.17 3.08-10.17 5.5-15 7.576-14.825 15.909-29.158 25-43 3.603-4.881 7.436-9.548 11.5-14Z" style="opacity:1"/>
  </g>
  <g>
    <path fill="#060606" d="M692.5 848.5c6.588-.123 11.754 2.544 15.5 8 13.368 20.768 20.701 43.434 22 68-2.321 3.417-4.988 3.75-8 1-.511-5.533-1.844-10.867-4-16-8.736-19.709-17.57-39.375-26.5-59 .363-.683.696-1.35 1-2Z" style="opacity:1"/>
  </g>
  <g>
    <path fill="#030303" d="M919.5 874.5c3.644.208 5.811 2.208 6.5 6 4.186 20.945 4.519 41.945 1 63-1.729 6.05-4.062 6.384-7 1-1.761-5.9-3.095-11.9-4-18-.667-12.667-.667-25.333 0-38 .036-4.995 1.202-9.661 3.5-14Z" style="opacity:1"/>
  </g>
  <g>
    <path fill="#040404" d="M572.5 908.5c6.174-1.327 8.341 1.006 6.5 7-8.08 12.748-18.247 23.581-30.5 32.5-1.525 1.009-3.192 1.509-5 1.5 5.962-16.247 15.629-29.913 29-41Z" style="opacity:1"/>
  </g>
  <g>
    <path fill="#e3e3e3" d="M320.5 916.5c1.644-.214 3.144.12 4.5 1 .774 6.724.441 13.39-1 20-5.054 11.776-10.387 23.442-16 35-4.315 14.595-8.315 29.26-12 44-.741 2.84-2.407 4.84-5 6-1.653-.32-2.653-1.32-3-3-2.156-15.26-.823-30.259 4-45 6.089-21.176 15.589-40.51 28.5-58Z" style="opacity:1"/>
  </g>
  <g>
    <path fill="#050505" d="M945.5 924.5c3.83.985 6.663 3.319 8.5 7 9.003 19.094 10.669 38.761 5 59-1.264 2.107-3.097 3.107-5.5 3-.493-23.261-3.159-46.261-8-69Z" style="opacity:1"/>
  </g>
  <g>
    <path fill="#090909" d="M711.5 937.5c2.599.049 4.766 1.049 6.5 3 3.168 5.334 5.501 11.001 7 17 2.91 12.859 3.91 25.859 3 39-.368 1.41-1.201 2.41-2.5 3-3.561-5.175-6.061-10.842-7.5-17-3.624-12.161-6.457-24.494-8.5-37-.115-2.909.551-5.575 2-8Z" style="opacity:1"/>
  </g>
  <g>
    <path fill="#121212" d="M872.5 950.5c3.289 14.362 4.456 29.029 3.5 44-.697 5.82-2.031 11.49-4 17-1.695 3.19-4.195 5.53-7.5 7-.333-.83-.667-1.67-1-2.5 5.823-21.418 8.823-43.251 9-65.5Z" style="opacity:1"/>
  </g>
  <g>
    <path fill="#e3e3e3" d="M319.5 965.5c1.89-.203 3.39.463 4.5 2 9.97 28.302 9.97 56.64 0 85-1.057 3.48-3.057 6.15-6 8-.772-.14-1.439-.48-2-1-2.925-14.16-4.092-28.5-3.5-43-.591-14.49.576-28.826 3.5-43 .696-2.938 1.862-5.604 3.5-8Z" style="opacity:1"/>
  </g>
  <g>
    <path fill="#5a5a5a" d="M842.5 964.5h2c-1.242 6.508-1.908 6.508-2 0Z" style="opacity:1"/>
  </g>
  <g>
    <path fill="#050505" d="M528.5 970.5c6.604-.056 7.77 2.611 3.5 8-7.667 9-16 17.333-25 25-25.259 28.51-43.259 61.17-54 98-.808 13.06-2.141 26.06-4 39-.912 4.27-3.412 6.1-7.5 5.5-7.457-6.12-9.957-13.95-7.5-23.5 11.674-44.68 31.341-85.35 59-122 9.629-12.811 21.463-22.811 35.5-30Z" style="opacity:1"/>
  </g>
  <g>
    <path fill="#0b0b0b" d="M764.5 974.5c2.411-.363 3.911.637 4.5 3 1.836 4.511 3.17 9.177 4 14 .984 13.77.317 27.44-2 41-1.527-1.72-2.527-3.72-3-6-3.749-15.15-5.749-30.486-6-46 .655-2.128 1.489-4.128 2.5-6Z" style="opacity:1"/>
  </g>
  <g>
    <path fill="#050505" d="M985.5 1000.5c2.825-.42 4.991.58 6.5 3 5.484 9.48 5.817 19.15 1 29-3.488 2.96-6.155 2.29-8-2-3.442-10.17-3.276-20.17.5-30Z" style="opacity:1"/>
  </g>
  <g>
    <path fill="#0b0b0b" d="M900.5 1004.5c2.252.42 3.752 1.75 4.5 4 4.492 25.74 2.826 51.07-5 76-1.667 4.17-4.501 7.17-8.5 9-2.944-1.04-4.277-3.2-4-6.5 6.932-24.66 10.432-49.83 10.5-75.5.847-2.35 1.68-4.69 2.5-7Z" style="opacity:1"/>
  </g>
  <g>
    <path fill="#090909" d="M1048.5 1019.5c1-.09 1.83.25 2.5 1 11.86 24.24 20.53 49.58 26 76 .82 3.05.65 6.05-.5 9-2.66-3.3-4.82-6.97-6.5-11-10.44-24.09-17.61-49.09-21.5-75Z" style="opacity:1"/>
  </g>
  <g>
    <path fill="#5a5a5a" d="M352.5 1035.5c-.667 2-1.333 4-2 6-.316-3.48.184-6.81 1.5-10 .49 1.29.657 2.63.5 4Z" style="opacity:1"/>
  </g>
  <g>
    <path fill="#090909" d="M1019.5 1041.5c2.59.75 4.42 2.42 5.5 5 .37 15.81-2.96 30.81-10 45-1.4 2.03-3.06 2.36-5 1-.67-5-.67-10 0-15 3.17-12.01 6.34-24.01 9.5-36Z" style="opacity:1"/>
  </g>
  <g>
    <path fill="#545454" d="M702.5 1089.5c-.667.67-1.333 1.33-2 2-.164-2.69.003-5.35.5-8 .813 1.94 1.313 3.94 1.5 6Z" style="opacity:1"/>
  </g>
  <g>
    <path fill="#e1e1e1" d="M368.5 1102.5c3.362-.43 6.195.57 8.5 3 7.603 14.01 10.603 29.01 9 45-.414.46-.914.79-1.5 1-13.323-11.65-19.823-26.31-19.5-44 .997-1.82 2.164-3.49 3.5-5Z" style="opacity:1"/>
  </g>
  <g>
    <path fill="#0c0c0c" d="M1052.5 1115.5c2.46 1.55 3.96 3.89 4.5 7 2.43 26.5 1.09 52.83-4 79-.29 1.54-.96 2.88-2 4-4.17-13.14-6-26.64-5.5-40.5.08-10.56.91-21.06 2.5-31.5.68-6.26 2.18-12.26 4.5-18Z" style="opacity:1"/>
  </g>
  <g>
    <path fill="#e6e6e6" d="M745.5 1161.5c6.628-1.27 11.461 1.06 14.5 7 3.673 7.07 4.34 14.41 2 22-4.879 6.52-11.379 8.68-19.5 6.5-2.967-2.1-4.8-4.93-5.5-8.5-2.228-10.8.606-19.8 8.5-27Z" style="opacity:1"/>
  </g>
  <g>
    <path fill="#e3e3e3" d="M656.5 1162.5c2.101 2.68 4.101 5.51 6 8.5 5.43 3.53 11.43 5.19 18 5 1.783 1.07 2.283 2.57 1.5 4.5-7.415 9.68-15.415 10.35-24 2-2.633-6.53-3.133-13.19-1.5-20Z" style="opacity:1"/>
  </g>
  <g>
    <path fill="#767676" d="M403.5 1151.5c-.667 6-1.333 12-2 18-.33-6.37.004-12.7 1-19 .607.12.94.46 1 1Z" style="opacity:1"/>
  </g>
  <g>
    <path fill="#e4e4e4" d="M506.5 1171.5c4.353.82 7.853 3.15 10.5 7 8.428 10.95 11.761 23.28 10 37-1.691 3.71-4.525 4.88-8.5 3.5-2.2-2.23-4.033-4.73-5.5-7.5-5.074-12.94-7.24-26.27-6.5-40Z" style="opacity:1"/>
  </g>
  <g>
    <path fill="#e1e1e1" d="M812.5 1174.5c4.606 1.14 7.44 4.14 8.5 9 3.216 8.36 3.216 16.69 0 25-3.66 3.87-8.16 5.03-13.5 3.5-1.528-1.65-2.195-3.65-2-6 2.663-10.49 4.996-20.99 7-31.5Z" style="opacity:1"/>
  </g>
  <g>
    <path fill="#e2e2e2" d="M554.5 1180.5c1.871.36 3.371 1.36 4.5 3 2.059 4.18 3.726 8.51 5 13 3.905 18.92 6.905 37.92 9 57l-21-21c-6.613-10.16-8.28-21.16-5-33 1.051-7 3.551-13.34 7.5-19Z" style="opacity:1"/>
  </g>
  <g>
    <path fill="#e0e0e0" d="M692.5 1182.5c3.149.66 4.649 2.66 4.5 6 1.118 21.29-1.882 41.96-9 62-3.452 4.13-5.785 3.46-7-2-1.451-22.96 2.382-44.96 11.5-66Z" style="opacity:1"/>
  </g>
  <g>
    <path fill="#090909" d="M948.5 1183.5c5.098-1.07 8.264.93 9.5 6 2.156 5.96 1.99 11.8-.5 17.5-2.135.63-4.135.3-6-1-5.093-5.95-6.926-12.78-5.5-20.5.995-.57 1.828-1.23 2.5-2Z" style="opacity:1"/>
  </g>
  <g>
    <path fill="#080808" d="M1124.5 1191.5c3.54-.28 5.37 1.38 5.5 5 .67 9 .67 18 0 27-.31.81-.81 1.47-1.5 2-7.22-7.14-10.38-15.81-9.5-26 1.6-2.87 3.43-5.54 5.5-8Z" style="opacity:1"/>
  </g>
  <g>
    <path fill="#e2e2e2" d="M715.5 1209.5c12.787 2.59 15.287 9.26 7.5 20-3.54 4.72-8.04 8.05-13.5 10-1.147-.32-1.981-.98-2.5-2-.284-10.31 2.549-19.65 8.5-28Z" style="opacity:1"/>
  </g>
  <g>
    <path fill="#e3e3e3" d="M660.5 1212.5c2.403-.11 4.236.89 5.5 3 5.501 13.16 4.335 25.66-3.5 37.5-9.9 4.73-17.233 2.06-22-8 .145-.77.478-1.44 1-2 7.652.02 11.819-3.82 12.5-11.5-.695-7.42 1.472-13.75 6.5-19Z" style="opacity:1"/>
  </g>
  <g>
    <path fill="#0e0e0e" d="M1064.5 1215.5c2.46 1.55 3.96 3.89 4.5 7 2.17 11.51-1.5 20.51-11 27-.67-2.33-.67-4.67 0-7 3.27-8.76 5.44-17.76 6.5-27Z" style="opacity:1"/>
  </g>
  <g>
    <path fill="#e5e5e5" d="M338.5 1235.5c1.699-.16 3.366.01 5 .5 3.615 3.62 6.449 7.79 8.5 12.5 7.162 25.32 16.829 49.66 29 73 2.768 9.88-.732 12.71-10.5 8.5-7.773-6.77-13.607-14.94-17.5-24.5-8.676-19.36-14.509-39.52-17.5-60.5-.391-3.67.609-6.84 3-9.5Z" style="opacity:1"/>
  </g>
  <g>
    <path fill="#e3e3e3" d="M941.5 1250.5c8.407-.45 13.574 3.55 15.5 12 2.689 8.83 1.522 17-3.5 24.5-3.993.75-6.826-.75-8.5-4.5-1.207-8.82-3.04-17.49-5.5-26-.137-2.34.53-4.34 2-6Z" style="opacity:1"/>
  </g>
  <g>
    <path fill="#e1e1e1" d="M915.5 1258.5c9.375 3.66 15.875 10.33 19.5 20 2.285 5.47 2.952 11.14 2 17-2.026 5-4.693 5.34-8 1-7.183-11.71-11.683-24.38-13.5-38Z" style="opacity:1"/>
  </g>
  <g>
    <path fill="#e3e3e3" d="M384.5 1265.5c4.467-.37 8.8.13 13 1.5 3.291 2.33 3.791 5.17 1.5 8.5-5.291 6.29-10.958 6.62-17 1-2.572-4.61-1.739-8.28 2.5-11Z" style="opacity:1"/>
  </g>
  <g>
    <path fill="#0d0d0d" d="M1066.5 1267.5c2.45-.42 3.78.58 4 3-2.68 8.52-7.68 15.35-15 20.5-1.67.67-3.33.67-5 0-.91-3.76-.08-7.26 2.5-10.5 3.74-5.24 8.24-9.57 13.5-13Z" style="opacity:1"/>
  </g>
  <g>
    <path fill="#0a0a0a" d="M1144.5 1283.5c1.89-.2 3.39.46 4.5 2 4.54 9.98 4.54 19.98 0 30-1.68 3.01-4.01 5.35-7 7-.77-.14-1.44-.48-2-1-1.54-8.27-1.87-16.6-1-25 .77-4.83 2.61-9.17 5.5-13Z" style="opacity:1"/>
  </g>
  <g>
    <path fill="#121212" d="M522.5 1298.5c2.928 1.09 5.094 3.09 6.5 6 5.502 10.01 7.502 20.67 6 32-.308.81-.808 1.47-1.5 2-2.171-3.01-3.671-6.34-4.5-10-3.104-9.81-5.271-19.81-6.5-30Z" style="opacity:1"/>
  </g>
  <g>
    <path fill="#0b0b0b" d="M454.5 1312.5c5.647 3.48 10.147 8.15 13.5 14 2.883 5.1 5.217 10.43 7 16 .758 2.27.591 4.44-.5 6.5-2.593-.55-4.76-2.05-6.5-4.5-5.639-7.61-9.972-15.94-13-25-.497-2.31-.663-4.64-.5-7Z" style="opacity:1"/>
  </g>
  <g>
    <path fill="#0c0c0c" d="M1154.5 1317.5c6.05-.06 10.55 2.61 13.5 8 4.78 7.4 6.28 15.4 4.5 24-1.36-5.05-3.53-9.72-6.5-14-3.25-2.84-6.92-4.84-11-6-1.82-3.93-1.99-7.93-.5-12Z" style="opacity:1"/>
  </g>
  <g>
    <path fill="#070707" d="M991.5 1323.5c1.29.56 2.123 1.56 2.5 3 .504 9.19 4.671 16.03 12.5 20.5 4.06-.3 7.23 1.2 9.5 4.5 2.87 10.25 3.2 20.59 1 31-3.33-6.67-6.67-13.33-10-20-3-4.5-7-5.84-12-4-1.653-.32-2.653-1.32-3-3-1.808-10.64-1.974-21.31-.5-32Z" style="opacity:1"/>
  </g>
  <g>
    <path fill="#e5e5e5" d="M339.5 1327.5c3.692-.53 6.858.47 9.5 3 13.479 19.91 19.813 41.91 19 66 .036 3.97-1.797 5.8-5.5 5.5l-4.5-4.5c-3.993-7.96-7.993-15.96-12-24-4.016-6.01-8.683-11.34-14-16-1.549-11.14.951-21.14 7.5-30Z" style="opacity:1"/>
  </g>
  <g>
    <path fill="#060606" d="M514.5 1337.5c5.078 9.83 9.912 19.83 14.5 30 1.251 3.75 2.084 7.58 2.5 11.5-.486 11-4.986 13.16-13.5 6.5-2.449-6.46-3.949-13.13-4.5-20-.327-9.51.006-18.85 1-28Z" style="opacity:1"/>
  </g>
  <g>
    <path fill="#040404" d="M954.5 1337.5c5.096 10.53 9.929 21.19 14.5 32 2.807 10.95 3.141 21.95 1 33-1.668 3.1-3.835 3.6-6.5 1.5-4.007-4-6.507-8.83-7.5-14.5-1.161-5.63-1.994-11.29-2.5-17-.328-11.85.005-23.51 1-35Z" style="opacity:1"/>
  </g>
  <g>
    <path fill="#424242" d="M937.5 1335.5c.667 4 1.333 8 2 12-.283.79-.783 1.46-1.5 2-.499-4.65-.666-9.32-.5-14Z" style="opacity:1"/>
  </g>
  <g>
    <path fill="#989898" d="M514.5 1337.5c-.994 9.15-1.327 18.49-1 28-1.323-9.51-1.323-19.17 0-29 .607.12.94.46 1 1Z" style="opacity:1"/>
  </g>
  <g>
    <path fill="#5d5d5d" d="M954.5 1337.5c-.995 11.49-1.328 23.15-1 35-1.325-11.84-1.325-23.84 0-36 .607.12.94.46 1 1Z" style="opacity:1"/>
  </g>
  <g>
    <path fill="#0c0c0c" d="M434.5 1384.5c.996-.09 1.829.25 2.5 1 2.233 10.76 1.9 21.43-1 32-2.333 5.33-4.667 5.33-7 0-.565-11.4 1.268-22.4 5.5-33Z" style="opacity:1"/>
  </g>
  <g>
    <path fill="#080808" d="M462.5 1384.5c2.846.31 4.346 1.98 4.5 5 .92 9.74.587 19.41-1 29-5.465-8.52-8.131-17.86-8-28 1.332-2.16 2.832-4.16 4.5-6Z" style="opacity:1"/>
  </g>
  <g>
    <path fill="#e5e5e5" d="M331.5 1384.5c4.564.05 8.064 2.05 10.5 6 13.216 19.65 19.549 41.31 19 65-.347 1.68-1.347 2.68-3 3-2.879-.88-5.213-2.54-7-5-6.673-13.37-13.34-26.7-20-40-1.242-1.37-2.742-2.37-4.5-3-2.118 1.45-4.451 2.11-7 2 1.118-10.72 5.118-20.06 12-28Z" style="opacity:1"/>
  </g>
  <g>
    <path fill="#040404" d="M1149.5 1423.5c4.38 1.89 7.22 5.23 8.5 10 7.52 19.34 10.19 39.34 8 60-.76 5.22-3.59 8.55-8.5 10-3.93-.76-6.43-3.1-7.5-7-4.98-20.36-6.65-41.03-5-62 .41-4.15 1.91-7.82 4.5-11Z" style="opacity:1"/>
  </g>
  <g>
    <path fill="#e4e4e4" d="M322.5 1435.5c3.802 1.28 6.969 3.61 9.5 7 12.415 22.58 20.415 46.58 24 72-1.96 3.88-4.793 4.71-8.5 2.5-12.84-19.5-22.007-40.67-27.5-63.5-.667-4.67-.667-9.33 0-14 .662-1.48 1.496-2.82 2.5-4Z" style="opacity:1"/>
  </g>
  <g>
    <path fill="#e2e2e2" d="M699.5 1473.5c7.334-.92 14.168.42 20.5 4 2.199 5.86.032 9.36-6.5 10.5-8.277 1.03-14.611-1.97-19-9 1.179-2.34 2.846-4.18 5-5.5Z" style="opacity:1"/>
  </g>
  <g>
    <path fill="#a4a4a4" d="m745.5 1472.5-2 20c-.166-7.34 0-14.67.5-22 .717.54 1.217 1.21 1.5 2Z" style="opacity:1"/>
  </g>
  <g>
    <path fill="#e5e5e5" d="M318.5 1495.5c3.488.64 5.988 2.64 7.5 6 1 6.33 2 12.67 3 19 2.73 5.79 5.73 11.46 9 17 6.541 20.59 8.208 41.59 5 63-3.956 15.45-8.623 15.78-14 1-6.139-14.75-12.472-29.42-19-44-4.974-17.85-4.307-35.51 2-53 1.611-3.44 3.777-6.44 6.5-9Z" style="opacity:1"/>
  </g>
  <g>
    <path fill="#dfdfdf" d="M707.5 1513.5c3.095.13 4.928 1.79 5.5 5 .307 8.39-3.526 14.22-11.5 17.5-2.626.99-5.293 1.33-8 1-1.208-4.15-.374-7.98 2.5-11.5 3.364-4.53 7.197-8.53 11.5-12Z" style="opacity:1"/>
  </g>
  <g>
    <path fill="#050505" d="M413.5 1533.5c2.42-.21 4.753.13 7 1 2.129 3.29 3.796 6.79 5 10.5 2.67.54 5.17.04 7.5-1.5 1.605.6 2.938 1.6 4 3 1.517 5.58 1.851 11.25 1 17-.118 2.07-1.118 3.41-3 4-4.399-2.12-8.566-4.62-12.5-7.5-4.024-.5-8.024-.33-12 .5-1.039-6.3-1.206-12.63-.5-19 .502-2.99 1.669-5.65 3.5-8Z" style="opacity:1"/>
  </g>
  <g>
    <path fill="#0c0c0c" d="M458.5 1533.5c6.569.25 9.903 3.75 10 10.5.144 5.9-2.522 9.74-8 11.5-6.244-3.51-8.41-8.84-6.5-16 .804-2.65 2.304-4.65 4.5-6Z" style="opacity:1"/>
  </g>
  <g>
    <path fill="#e8e8e8" d="M1655.5 1551.5c6.89-.84 13.23.66 19 4.5 6.3 5.3 12.3 10.97 18 17 7.48 6.48 15.48 7.15 24 2 15.95-1.88 18.11 2.62 6.5 13.5-.61 6.24.39 12.24 3 18 19.22 34.1 25.55 70.43 19 109-6.06 15.24-10.73 30.9-14 47-1.82 4.98-4.16 9.64-7 14 1.01 4.19.01 7.53-3 10 1.01 4.19.01 7.53-3 10 1.01 4.19.01 7.53-3 10-.32 3.04-.32 6.04 0 9-18.79 10.31-37.62 20.48-56.5 30.5-3.56 1.84-4.56 4.51-3 8-1.15 4.49-3.82 7.83-8 10-5.34 3.11-11.01 5.45-17 7-6.79.54-13.45.21-20-1l-1.5 1.5c2.25 11.36-2.25 17.86-13.5 19.5-25.97.94-44.47-10.23-55.5-33.5l-6.5-6.5c-1-.67-2-.67-3 0-4.21 5.03-9.54 6.7-16 5-2.59-1.31-5.26-1.98-8-2-.98 2.15-.81 4.31.5 6.5 8.43 14.1 16.43 28.43 24 43 .49 1.63.66 3.3.5 5-1.37.16-2.71-.01-4-.5-13.91-11.9-26.41-25.07-37.5-39.5-6.18-8.01-9.18-17.01-9-27 3.91-7.54 10.08-12.04 18.5-13.5 60.5-.14 110.67-22.64 150.5-67.5 18.09-21.85 29.42-46.85 34-75 2.3-21.46-2.03-41.46-13-60-11.65-13.64-19.32-29.31-23-47-.67-5.33-.67-10.67 0-16 1.54-4.43 4.04-8.1 7.5-11Z" style="opacity:1"/>
  </g>
  <g>
    <path fill="#e6e6e6" d="M306.5 1586.5c1.871.36 3.371 1.36 4.5 3 14.277 29.77 20.277 61.1 18 94-.774 3.55-2.107 6.88-4 10-3.667 4-7.333 4-11 0-14.58-27.23-20.58-56.23-18-87 2.209-7.42 5.709-14.09 10.5-20Z" style="opacity:1"/>
  </g>
  <g>
    <path fill="#0b0b0b" d="M863.5 1622.5c1.835.62 3.002 1.96 3.5 4 3.451 8.1 3.284 16.1-.5 24-3.171 2.84-6.004 2.5-8.5-1-.906-2.24-1.406-4.58-1.5-7 1.206-7.08 3.54-13.74 7-20Z" style="opacity:1"/>
  </g>
  <g>
    <path fill="#0a0a0a" d="M1000.5 1630.5c1.18-.22 2.18.11 3 1 2.19 4.09 3.69 8.42 4.5 13 2.11 13.94 2.78 27.94 2 42-.23 2.28-1.07 4.28-2.5 6-2.56-2.11-4.39-4.77-5.5-8-4.237-16.07-5.57-32.4-4-49 .847-1.69 1.68-3.36 2.5-5Z" style="opacity:1"/>
  </g>
  <g>
    <path fill="#e2e2e2" d="M768.5 1652.5c2.267 10.72-.733 20.22-9 28.5-2.716 2.15-5.216 1.98-7.5-.5-.667-2.67-.667-5.33 0-8 4.639-7.46 10.139-14.13 16.5-20Z" style="opacity:1"/>
  </g>
  <g>
    <path fill="#e5e5e5" d="M285.5 1675.5c1.699-.16 3.366.01 5 .5 2.288 2.74 4.455 5.58 6.5 8.5 11.472 23.03 16.139 47.36 14 73-2.103 7.06-5.436 7.72-10 2-12.747-24.83-18.747-51.16-18-79 .366-1.95 1.199-3.62 2.5-5Z" style="opacity:1"/>
  </g>
  <g>
    <path fill="#e4e4e4" d="M1363.5 1726.5c7.06-.04 11.89 3.29 14.5 10 .92 2.6 1.59 5.27 2 8 1.96 18.62 3.29 37.28 4 56 1.14 12.78 2.98 25.45 5.5 38-1.44 7.91-4.94 8.91-10.5 3-10.05-21.55-16.05-44.21-18-68-1.84-14.35-1.84-28.68 0-43 .66-1.48 1.5-2.82 2.5-4Z" style="opacity:1"/>
  </g>
  <g>
    <path fill="#e5e5e5" d="M274.5 1740.5c4.325.9 7.158 3.57 8.5 8 7.083 19.08 10.417 38.74 10 59-1.45 4.81-4.616 6.64-9.5 5.5-1.549-1.21-2.715-2.71-3.5-4.5-6.363-19.84-9.363-40.17-9-61 .653-2.64 1.82-4.97 3.5-7Z" style="opacity:1"/>
  </g>
  <g>
    <path fill="#e5e5e5" d="M1394.5 1774.5c11.51 2.16 20.35 8.16 26.5 18 2.04 16.16 5.04 32.16 9 48 .67 5.67.67 11.33 0 17-.52 1.02-1.35 1.68-2.5 2-2.94-1.11-5.11-3.11-6.5-6-5.02-10.03-10.02-20.03-15-30-2.44-4.28-5.94-7.28-10.5-9-.83-1.67-1.67-3.33-2.5-5-1.47-10.29-1.8-20.63-1-31 .66-1.48 1.5-2.82 2.5-4Z" style="opacity:1"/>
  </g>
  <g>
    <path fill="#e0e0e0" d="M262.5 1793.5c5.402 10.22 5.235 20.56-.5 31-8.245 7.4-11.245 5.4-9-6 2.098-8.8 5.265-17.14 9.5-25Z" style="opacity:1"/>
  </g>
  <g>
    <path fill="#e2e2e2" d="M1083.5 1793.5c9.19 1.28 14.69 6.61 16.5 16 .79 3.59.62 7.09-.5 10.5-2.71.74-5.05.07-7-2-6.89-6.9-9.89-15.07-9-24.5Z" style="opacity:1"/>
  </g>
  <g>
    <path fill="#e3e3e3" d="M1454.5 1801.5h3c-.85 2.72-2.02 5.39-3.5 8-.67 1.67-.67 3.33 0 5 2.24.56 4.24 1.56 6 3 9.08 18.98 13.08 38.98 12 60-.52 1.72-1.52 3.06-3 4-2.99-1.65-5.32-3.99-7-7-6.3-13.94-13.64-27.28-22-40-4.96-7.52-4.3-14.52 2-21 4.06-4.23 8.23-8.23 12.5-12Z" style="opacity:1"/>
  </g>
  <g>
    <path fill="#e2e2e2" d="M1126.5 1816.5c12.86 1.66 17.19 8.49 13 20.5-5.12 2.51-9.29 1.34-12.5-3.5-3.05-5.68-3.22-11.35-.5-17Z" style="opacity:1"/>
  </g>
  <g>
    <path fill="#e4e4e4" d="M706.5 1853.5c4.014-.17 8.014 0 12 .5 3.461 2.99 3.961 6.49 1.5 10.5-3.143 7.46-7.643 13.96-13.5 19.5-6.326 4.09-10.826 2.59-13.5-4.5-2.545-12.58 1.955-21.25 13.5-26Z" style="opacity:1"/>
  </g>
  <g>
    <path fill="#e2e2e2" d="M190.5 1868.5c1.967-.24 3.801.09 5.5 1 5.622 13.16 5.955 26.5 1 40-2.667 4-5.333 4-8 0-5.081-13.94-4.581-27.61 1.5-41Z" style="opacity:1"/>
  </g>
  <g>
    <path fill="#e0e0e0" d="M1432.5 1871.5c3.48-.32 6.81.18 10 1.5 1.17 1.87 1.01 3.7-.5 5.5-7.26 7.55-16.09 11.05-26.5 10.5-1.78-2.24-2.28-4.74-1.5-7.5 5.18-5.32 11.34-8.66 18.5-10Z" style="opacity:1"/>
  </g>
  <g>
    <path fill="#e6e6e6" d="M249.5 1883.5c4.633-1.04 7.799.62 9.5 5 1.315 8.34.315 16.34-3 24-8.422 8.46-16.089 7.8-23-2-1.53-6.12-.197-11.45 4-16 3.767-4.28 7.934-7.94 12.5-11Z" style="opacity:1"/>
  </g>
  <g>
    <path fill="#b9b9b9" d="M283.5 1913.5c-.329 12.84.005 25.51 1 38-.283.79-.783 1.46-1.5 2-.827-13.51-.66-26.84.5-40Z" style="opacity:1"/>
  </g>
</svg>