<?xml version="1.0" encoding="UTF-8"?>
<!DOCTYPE svg PUBLIC "-//W3C//DTD SVG 1.1//EN" "http://www.w3.org/Graphics/SVG/1.1/DTD/svg11.dtd">
<svg xmlns="http://www.w3.org/2000/svg" version="1.1" width="2053px" height="2048px" style="shape-rendering:geometricPrecision; text-rendering:geometricPrecision; image-rendering:optimizeQuality; fill-rule:evenodd; clip-rule:evenodd" xmlns:xlink="http://www.w3.org/1999/xlink">
<g><path style="opacity:0.994" fill="#010101" d="M 1368.5,52.5 C 1371.85,52.335 1375.18,52.5017 1378.5,53C 1408.43,63.6317 1437.1,76.965 1464.5,93C 1510.36,119.537 1554.02,149.204 1595.5,182C 1657.63,231.778 1716.46,285.611 1772,343.5C 1802.85,377.013 1829.85,413.346 1853,452.5C 1880.56,497.608 1905.56,544.275 1928,592.5C 1941.78,632.05 1956.11,671.383 1971,710.5C 1985.36,767.958 1997.02,825.958 2006,884.5C 2007.8,916.235 2010.47,947.902 2014,979.5C 2016.43,1059.09 2010.77,1138.09 1997,1216.5C 1990.75,1241.6 1983.08,1266.27 1974,1290.5C 1948.42,1358.98 1920.09,1426.32 1889,1492.5C 1879.76,1511.31 1869.76,1529.65 1859,1547.5C 1856,1550.5 1853,1553.5 1850,1556.5C 1843.77,1568.63 1836.77,1580.3 1829,1591.5C 1815,1610.83 1801,1630.17 1787,1649.5C 1779.63,1658.54 1771.3,1666.54 1762,1673.5C 1736.2,1704.3 1708.03,1732.8 1677.5,1759C 1649.12,1781.05 1620.45,1802.72 1591.5,1824C 1559.02,1847.08 1525.35,1868.42 1490.5,1888C 1484.54,1892.29 1478.88,1896.96 1473.5,1902C 1452.6,1910.28 1431.6,1918.28 1410.5,1926C 1408.5,1928 1406.5,1930 1404.5,1932C 1398.33,1933.06 1392.33,1934.72 1386.5,1937C 1367.84,1945.5 1348.84,1953.16 1329.5,1960C 1310.25,1965.31 1290.91,1970.31 1271.5,1975C 1249.06,1986.26 1225.39,1993.93 1200.5,1998C 1122.96,2010.01 1044.96,2014.68 966.5,2012C 929.652,2011.18 892.985,2008.18 856.5,2003C 829.608,1997.69 802.608,1993.02 775.5,1989C 764.744,1986.31 754.078,1983.31 743.5,1980C 706.167,1966.67 668.833,1953.33 631.5,1940C 581.779,1916.98 533.445,1891.64 486.5,1864C 453.24,1843.2 421.573,1820.2 391.5,1795C 382.904,1790.37 374.571,1785.37 366.5,1780C 348.968,1764.13 332.468,1747.3 317,1729.5C 275.266,1681.11 236.599,1630.44 201,1577.5C 85.6757,1392.55 32.3424,1190.89 41,972.5C 50.6651,827.498 87.3317,689.831 151,559.5C 170.555,519.378 191.889,480.378 215,442.5C 220.755,433.99 226.755,425.657 233,417.5C 242.333,408.833 251.667,400.167 261,391.5C 296.555,347.265 335.055,305.432 376.5,266C 414.134,234.854 452.134,204.187 490.5,174C 495.404,173.421 500.07,172.088 504.5,170C 551.499,139.161 599.499,109.827 648.5,82C 659.354,75.4828 669.354,67.8161 678.5,59C 691.047,53.5919 703.047,54.5919 714.5,62C 719,65.1667 722.833,69 726,73.5C 728.815,78.6831 729.148,84.0164 727,89.5C 722.009,98.4999 715.509,106.333 707.5,113C 690.83,125.102 675.664,138.935 662,154.5C 614.307,219.56 579.64,291.227 558,369.5C 551.136,393.018 547.636,417.018 547.5,441.5C 546.391,520.12 559.891,596.12 588,669.5C 593.714,683.265 600.714,696.265 609,708.5C 612.028,717.557 616.361,725.89 622,733.5C 650.497,773.344 682.663,810.177 718.5,844C 729.167,852.667 739.833,861.333 750.5,870C 805.388,903.084 864.055,927.417 926.5,943C 950.93,947.776 975.596,950.443 1000.5,951C 1035.24,952.313 1069.91,951.313 1104.5,948C 1168.54,934.879 1228.54,911.546 1284.5,878C 1292.99,871.511 1301.99,865.845 1311.5,861C 1337.97,838.2 1362.8,813.7 1386,787.5C 1393.33,778.833 1400.67,770.167 1408,761.5C 1411.52,756.458 1414.52,751.125 1417,745.5C 1421.33,742.5 1425,738.833 1428,734.5C 1457.23,686.371 1480.23,635.371 1497,581.5C 1506.38,546.954 1510.55,511.787 1509.5,476C 1508.98,398.433 1492.15,324.6 1459,254.5C 1442.31,217.218 1421.65,182.552 1397,150.5C 1386.3,140.131 1375.3,130.131 1364,120.5C 1360.55,117.044 1357.88,113.044 1356,108.5C 1355.62,92.4548 1357.95,76.7882 1363,61.5C 1363.84,57.8426 1365.67,54.8426 1368.5,52.5 Z"/></g>
<g><path style="opacity:1" fill="#e9e9e9" d="M 1590.5,246.5 C 1591.87,246.343 1593.21,246.51 1594.5,247C 1598.34,249.084 1602,251.417 1605.5,254C 1638.22,281.052 1670.06,309.218 1701,338.5C 1705.05,342.768 1708.22,347.602 1710.5,353C 1713.77,354.063 1717.1,354.896 1720.5,355.5C 1720.1,357.826 1720.6,360.159 1722,362.5C 1725.97,365.464 1729.63,368.797 1733,372.5C 1734.27,377.714 1736.61,382.381 1740,386.5C 1773.45,419.607 1801.12,456.94 1823,498.5C 1830,508.5 1837,518.5 1844,528.5C 1864.35,567.528 1883.35,607.194 1901,647.5C 1967.82,824.314 1982.15,1005.31 1944,1190.5C 1921.97,1287.26 1887.3,1379.26 1840,1466.5C 1813.84,1514.18 1785.17,1560.18 1754,1604.5C 1728,1636.83 1699.5,1667 1668.5,1695C 1600.02,1756.48 1525.69,1809.81 1445.5,1855C 1421.74,1867.55 1397.08,1877.88 1371.5,1886C 1356.01,1888.19 1340.68,1891.19 1325.5,1895C 1191.16,1940.88 1053.16,1959.21 911.5,1950C 850.518,1942.87 790.518,1930.87 731.5,1914C 719.495,1910.16 707.829,1905.5 696.5,1900C 685.599,1896.35 674.599,1893.02 663.5,1890C 601.879,1862.36 542.879,1830.36 486.5,1794C 481.981,1790.57 477.648,1786.9 473.5,1783C 458.495,1774.17 443.828,1764.83 429.5,1755C 424.786,1749.07 419.953,1743.24 415,1737.5C 380.304,1702.47 345.97,1667.14 312,1631.5C 271.729,1583.64 236.396,1532.31 206,1477.5C 202,1472.83 198,1468.17 194,1463.5C 192.737,1458.38 191.071,1453.38 189,1448.5C 177.774,1428.05 168.774,1406.72 162,1384.5C 145.426,1348.78 132.426,1311.78 123,1273.5C 93.2986,1164 83.2986,1052.67 93,939.5C 95.6291,899.467 100.962,859.8 109,820.5C 131.851,730.614 164.184,644.281 206,561.5C 214.826,544.51 224.16,527.843 234,511.5C 238.932,501.685 243.265,491.685 247,481.5C 260.11,467.927 271.777,453.26 282,437.5C 330.952,377.875 384.119,322.042 441.5,270C 447.5,265.333 453.5,260.667 459.5,256C 462.561,253.965 465.895,252.799 469.5,252.5C 468.599,256.316 467.099,259.983 465,263.5C 454.048,278.121 442.714,292.454 431,306.5C 390.545,368.071 356.878,433.404 330,502.5C 321.679,522.459 316.013,543.125 313,564.5C 311.849,570.468 309.849,576.134 307,581.5C 302.775,605.852 298.441,630.186 294,654.5C 289.68,690.53 287.846,726.697 288.5,763C 286.883,810.567 290.383,857.734 299,904.5C 308.997,948.821 321.33,992.488 336,1035.5C 348.661,1057.82 359.994,1080.82 370,1104.5C 384.425,1127.68 398.091,1151.34 411,1175.5C 436.971,1213.49 465.971,1249.15 498,1282.5C 524.589,1310.09 552.089,1336.59 580.5,1362C 597.5,1375.67 614.5,1389.33 631.5,1403C 634.14,1407.63 637.473,1411.63 641.5,1415C 668.096,1429.65 695.763,1441.98 724.5,1452C 786.134,1475.66 849.801,1490.66 915.5,1497C 947.704,1501.21 980.038,1503.71 1012.5,1504.5C 1041.22,1504.32 1069.88,1503.15 1098.5,1501C 1144.95,1493.51 1190.95,1483.84 1236.5,1472C 1245.59,1469.29 1254.59,1466.29 1263.5,1463C 1285.12,1459.36 1305.46,1452.03 1324.5,1441C 1402.73,1398.9 1475.4,1348.9 1542.5,1291C 1619.64,1212.3 1677.8,1121.13 1717,1017.5C 1725.53,988.563 1734.87,959.896 1745,931.5C 1758.19,865.676 1764.36,799.176 1763.5,732C 1765.19,651.321 1752.03,573.155 1724,497.5C 1703.57,441.64 1677.57,388.64 1646,338.5C 1644.42,335.343 1643.42,332.009 1643,328.5C 1641.16,326.292 1638.83,324.958 1636,324.5C 1633.55,318.263 1630.55,312.263 1627,306.5C 1616.33,290.5 1605.67,274.5 1595,258.5C 1592.65,254.797 1591.15,250.797 1590.5,246.5 Z"/></g>
<g><path style="opacity:1" fill="#e9e9e9" d="M 544.5,247.5 C 549.659,247.136 551.492,249.47 550,254.5C 547.107,264.951 543.107,274.951 538,284.5C 534.356,305.413 528.689,325.746 521,345.5C 515.634,367.856 512.3,390.523 511,413.5C 507.571,472.971 511.238,531.971 522,590.5C 527.852,616.054 534.518,641.387 542,666.5C 551.503,693.507 564.17,718.84 580,742.5C 610.921,790.424 646.755,834.591 687.5,875C 700.093,887.262 714.093,897.596 729.5,906C 735.289,907.35 740.956,909.017 746.5,911C 751.833,917.667 757.833,923.667 764.5,929C 766.5,929.333 768.5,929.667 770.5,930C 773.468,933.147 776.802,935.814 780.5,938C 793.555,945.194 806.888,951.861 820.5,958C 839.06,963.077 857.06,969.743 874.5,978C 890.966,984.371 907.966,987.371 925.5,987C 927.067,985.924 928.734,985.091 930.5,984.5C 934.615,986.124 938.615,987.957 942.5,990C 969.013,995.737 995.846,998.237 1023,997.5C 1055.75,997.427 1088.25,994.594 1120.5,989C 1129.78,986.794 1138.78,983.794 1147.5,980C 1180.88,977.071 1212.55,968.071 1242.5,953C 1247.34,951.052 1252.34,949.719 1257.5,949C 1259.78,944.384 1263.12,940.717 1267.5,938C 1290.64,926.935 1312.97,914.602 1334.5,901C 1374.2,871.634 1409.7,837.801 1441,799.5C 1448,788.5 1455,777.5 1462,766.5C 1464.96,762.534 1468.3,758.867 1472,755.5C 1478.44,741.413 1486.1,728.079 1495,715.5C 1499.33,706.833 1503.67,698.167 1508,689.5C 1515.75,669.92 1524.08,650.587 1533,631.5C 1542,595.5 1549.33,559.166 1555,522.5C 1558.62,483.455 1558.29,444.455 1554,405.5C 1549.51,386.706 1546.17,367.706 1544,348.5C 1536.27,319.657 1527.94,290.99 1519,262.5C 1517.53,257.937 1516.69,253.27 1516.5,248.5C 1519.14,248.954 1521.47,250.121 1523.5,252C 1558.13,287.272 1588.96,325.439 1616,366.5C 1625.24,385.314 1635.24,403.647 1646,421.5C 1683.51,498.525 1708.18,579.525 1720,664.5C 1722.85,719.825 1723.18,775.159 1721,830.5C 1717.26,846.678 1714.26,863.011 1712,879.5C 1705.89,902.941 1700.89,926.608 1697,950.5C 1687.81,971.741 1678.81,993.074 1670,1014.5C 1664.39,1032.05 1657.39,1049.05 1649,1065.5C 1633.77,1097.65 1615.77,1127.98 1595,1156.5C 1592.19,1160.45 1590.19,1164.79 1589,1169.5C 1577.08,1184.76 1564.41,1199.42 1551,1213.5C 1522.71,1243.13 1493.21,1271.29 1462.5,1298C 1443.5,1311.67 1424.5,1325.33 1405.5,1339C 1396.66,1344.25 1387.66,1349.25 1378.5,1354C 1374.03,1358.4 1369.03,1362.07 1363.5,1365C 1336.66,1377.92 1310.33,1391.58 1284.5,1406C 1276.94,1407.87 1269.27,1409.2 1261.5,1410C 1224.58,1424.08 1186.92,1435.75 1148.5,1445C 1142.17,1445.33 1135.83,1445.67 1129.5,1446C 1115.04,1449.74 1100.37,1452.41 1085.5,1454C 1016.77,1460.17 948.439,1457.17 880.5,1445C 853.164,1439 825.831,1433 798.5,1427C 787.938,1422.1 777.605,1416.77 767.5,1411C 752.423,1407.3 738.089,1401.63 724.5,1394C 694.842,1377.84 665.508,1361.17 636.5,1344C 530.425,1270.6 449.592,1175.77 394,1059.5C 385.396,1042.29 379.063,1024.29 375,1005.5C 363.657,976.805 354.324,947.471 347,917.5C 345.602,900.445 342.269,883.779 337,867.5C 326.825,816.169 324.825,764.503 331,712.5C 348.672,557.586 403.672,417.919 496,293.5C 510.8,276.528 526.967,261.195 544.5,247.5 Z"/></g>
<g><path style="opacity:1" fill="#020202" d="M 497.5,327.5 C 506.765,327.645 509.932,332.311 507,341.5C 504.382,347.734 502.049,354.068 500,360.5C 499.436,368.554 498.436,376.554 497,384.5C 489.784,410.345 486.117,436.678 486,463.5C 485.078,470.192 483.078,476.525 480,482.5C 479.333,487.833 479.333,493.167 480,498.5C 483.733,515.292 485.4,532.292 485,549.5C 489.042,576.006 496.042,601.672 506,626.5C 508.376,639.769 511.71,652.769 516,665.5C 526.995,684.49 536.661,704.156 545,724.5C 545.498,727.817 545.665,731.15 545.5,734.5C 549.273,733.822 552.106,735.156 554,738.5C 556.333,742.167 558.667,745.833 561,749.5C 572.807,779.607 589.807,806.274 612,829.5C 613.856,836.359 617.689,841.859 623.5,846C 628.678,849.422 633.678,853.089 638.5,857C 647.403,866.813 656.07,876.813 664.5,887C 680.891,896.529 696.225,907.529 710.5,920C 726.112,930.612 741.445,941.612 756.5,953C 763.886,958.718 770.22,965.385 775.5,973C 774.413,979.424 770.746,981.757 764.5,980C 762.5,979 760.5,978 758.5,977C 749.45,969.615 740.116,962.615 730.5,956C 725.938,954.447 721.604,952.447 717.5,950C 708.523,940.691 699.19,931.691 689.5,923C 652.412,898.597 618.912,869.764 589,836.5C 577.089,821.021 566.423,804.687 557,787.5C 555.429,776.023 550.429,766.356 542,758.5C 525.269,732.376 510.602,705.043 498,676.5C 492.644,657.076 486.977,637.743 481,618.5C 478.769,611.605 474.936,605.771 469.5,601C 468.552,600.517 467.552,600.351 466.5,600.5C 466.865,606.965 468.032,613.298 470,619.5C 477.54,641.787 484.873,664.12 492,686.5C 494.394,692.287 497.06,697.954 500,703.5C 501.659,706.43 501.992,709.43 501,712.5C 502.333,714.5 503.667,716.5 505,718.5C 505.803,725.434 504.136,731.767 500,737.5C 499.219,738.944 499.386,740.277 500.5,741.5C 503.954,743.451 507.621,744.951 511.5,746C 514,747.167 515.833,749 517,751.5C 531.309,789.452 549.309,825.452 571,859.5C 572.528,862.417 573.861,865.417 575,868.5C 610.568,908.405 647.235,947.405 685,985.5C 689.942,994.23 687.442,997.73 677.5,996C 664.18,990.337 652.18,982.671 641.5,973C 603.082,938.272 570.249,899.105 543,855.5C 539.211,849.26 536.545,842.593 535,835.5C 530.231,830.732 526.231,825.399 523,819.5C 516.112,801.503 508.445,783.837 500,766.5C 496.94,757.67 494.607,748.67 493,739.5C 480.587,719.003 470.587,697.337 463,674.5C 458.768,663.694 453.268,653.694 446.5,644.5C 445.359,646.421 445.192,648.421 446,650.5C 454.923,684.269 465.256,717.603 477,750.5C 486.554,772.942 495.554,795.609 504,818.5C 515.784,840.402 526.784,862.735 537,885.5C 553.578,907.656 569.911,929.989 586,952.5C 596.333,964.167 606.667,975.833 617,987.5C 620.131,991.429 622.464,995.763 624,1000.5C 627.195,1001.15 630.361,1001.98 633.5,1003C 639.5,1010 645.5,1017 651.5,1024C 659.984,1030.74 668.984,1036.74 678.5,1042C 685.115,1046.36 687.282,1052.2 685,1059.5C 680.382,1065.05 674.549,1066.89 667.5,1065C 662.003,1062.75 657.003,1059.75 652.5,1056C 639.667,1044.5 627.5,1032.33 616,1019.5C 594.958,995.46 574.292,971.127 554,946.5C 527.796,910.783 505.129,872.783 486,832.5C 480.956,814.028 473.956,796.362 465,779.5C 462.294,777.129 459.961,774.463 458,771.5C 452.94,758.987 448.273,746.321 444,733.5C 441.816,745.869 442.149,758.202 445,770.5C 452.667,787.833 460.333,805.167 468,822.5C 471.297,844.06 477.63,864.727 487,884.5C 503.345,921.54 523.012,956.54 546,989.5C 549.274,998.714 553.607,1007.38 559,1015.5C 575.895,1039.27 594.228,1061.93 614,1083.5C 617.755,1088 620.755,1093 623,1098.5C 628.334,1103.17 634.5,1106.34 641.5,1108C 652.767,1124.27 666.434,1138.27 682.5,1150C 697.779,1152.96 710.279,1160.46 720,1172.5C 725.344,1181.89 722.844,1186.39 712.5,1186C 688.601,1178.22 666.934,1166.55 647.5,1151C 592.612,1098.47 546.446,1039.3 509,973.5C 499.866,956.9 491.533,939.9 484,922.5C 475.639,913.122 469.305,902.456 465,890.5C 440.885,833.69 421.552,775.356 407,715.5C 405.139,717.888 403.806,720.554 403,723.5C 402.468,744.984 404.134,766.317 408,787.5C 409.011,801.816 409.678,816.15 410,830.5C 416.039,844.988 420.373,859.988 423,875.5C 425.65,884.143 428.316,892.81 431,901.5C 440.888,925.277 450.221,949.277 459,973.5C 464.121,985.742 469.787,997.742 476,1009.5C 492.094,1036.68 507.428,1064.35 522,1092.5C 546.019,1122.52 572.186,1150.69 600.5,1177C 613.5,1187.33 626.5,1197.67 639.5,1208C 642.022,1212.03 645.022,1215.7 648.5,1219C 669.951,1230.14 690.618,1242.47 710.5,1256C 722.671,1263.25 735.004,1270.25 747.5,1277C 755.004,1281.66 760.004,1288.16 762.5,1296.5C 762.451,1300.1 760.784,1302.6 757.5,1304C 751.732,1305.22 746.399,1304.22 741.5,1301C 736.072,1295.57 730.072,1290.9 723.5,1287C 697.671,1273.26 672.671,1258.26 648.5,1242C 637.926,1232.09 626.259,1223.75 613.5,1217C 597.136,1204.64 581.969,1190.81 568,1175.5C 552.63,1159.13 537.63,1142.47 523,1125.5C 515.615,1116.45 508.615,1107.12 502,1097.5C 500.423,1090.25 496.757,1084.25 491,1079.5C 487.448,1070.27 483.448,1061.27 479,1052.5C 472.643,1045.14 465.976,1038.14 459,1031.5C 451.502,1010.84 443.168,990.502 434,970.5C 428.899,951.626 421.566,933.626 412,916.5C 406.744,896.063 401.077,875.73 395,855.5C 384.918,805.346 379.585,754.679 379,703.5C 378.71,701.956 378.044,700.623 377,699.5C 371.597,704.682 368.264,711.015 367,718.5C 365.032,730.073 364.199,741.74 364.5,753.5C 368.703,844.351 387.536,932.018 421,1016.5C 430.824,1036.48 439.824,1056.81 448,1077.5C 447.988,1087.81 451.988,1096.14 460,1102.5C 462.442,1110.72 466.442,1118.05 472,1124.5C 508.058,1170.23 548.558,1211.73 593.5,1249C 612.992,1262.91 632.659,1276.58 652.5,1290C 664.127,1299.29 675.461,1308.96 686.5,1319C 691.037,1320.76 695.704,1322.09 700.5,1323C 702.126,1325.63 704.126,1327.96 706.5,1330C 733.137,1342.98 759.137,1356.98 784.5,1372C 794.986,1377.38 805.986,1381.38 817.5,1384C 818.428,1384.39 819.095,1385.05 819.5,1386C 818.179,1388.65 816.179,1390.65 813.5,1392C 804.378,1392.93 795.378,1392.27 786.5,1390C 760.038,1380.1 734.038,1369.1 708.5,1357C 704.833,1354.67 701.833,1351.67 699.5,1348C 679.092,1339.3 660.092,1328.3 642.5,1315C 631.888,1307.39 622.221,1298.72 613.5,1289C 596.41,1278.92 580.743,1266.92 566.5,1253C 526.816,1213.69 490.316,1171.86 457,1127.5C 448.037,1115.91 442.037,1102.91 439,1088.5C 434.524,1078.88 429.524,1069.55 424,1060.5C 421.973,1058.47 419.973,1056.47 418,1054.5C 415.953,1047.93 414.287,1041.27 413,1034.5C 411.607,1030.71 409.941,1027.05 408,1023.5C 402.333,1019.17 397.333,1014.17 393,1008.5C 392.126,1004.46 391.126,1000.46 390,996.5C 382.308,985.761 377.975,973.761 377,960.5C 360.853,912.475 351.853,863.141 350,812.5C 346.165,743.175 352.498,674.841 369,607.5C 377.628,579.652 385.628,551.652 393,523.5C 395.719,511.633 397.552,499.633 398.5,487.5C 401.976,484.565 404.476,480.898 406,476.5C 414.425,448.988 426.092,422.988 441,398.5C 452.667,380.167 464.333,361.833 476,343.5C 481.71,335.923 488.877,330.589 497.5,327.5 Z"/></g>
<g><path style="opacity:1" fill="#020202" d="M 1673.5,340.5 C 1680.2,340.682 1686.2,342.849 1691.5,347C 1704.63,356.46 1716.13,367.627 1726,380.5C 1731.5,390.173 1737.5,399.506 1744,408.5C 1761.21,426.572 1775.21,446.905 1786,469.5C 1790.86,474.276 1795.53,479.276 1800,484.5C 1814.49,510.827 1829.49,536.827 1845,562.5C 1855,582.17 1862,602.837 1866,624.5C 1868.83,630.822 1872.16,636.822 1876,642.5C 1877.67,643.5 1879.33,644.5 1881,645.5C 1889.25,663.581 1895.92,682.248 1901,701.5C 1918.04,765.043 1931.38,829.376 1941,894.5C 1943.39,936.143 1944.73,977.81 1945,1019.5C 1942.5,1045.49 1940.17,1071.49 1938,1097.5C 1937.67,1118.83 1937.33,1140.17 1937,1161.5C 1936.76,1169.6 1935.76,1177.6 1934,1185.5C 1925.19,1213.27 1917.19,1241.27 1910,1269.5C 1902.87,1288.23 1896.54,1307.23 1891,1326.5C 1861.49,1398.53 1825.49,1466.87 1783,1531.5C 1777.04,1539.13 1770.71,1546.46 1764,1553.5C 1760.26,1561.32 1756.26,1568.99 1752,1576.5C 1746.03,1581.47 1740.36,1586.8 1735,1592.5C 1705.61,1627.56 1674.45,1661.06 1641.5,1693C 1638.5,1695.33 1635.5,1697.67 1632.5,1700C 1626.66,1703.05 1623.32,1701.38 1622.5,1695C 1624.39,1689.06 1627.22,1683.56 1631,1678.5C 1646.64,1663.19 1661.97,1647.52 1677,1631.5C 1692.49,1610 1709.49,1589.66 1728,1570.5C 1742.05,1552.11 1755.72,1533.45 1769,1514.5C 1771.41,1509.34 1774.08,1504.34 1777,1499.5C 1795.92,1471.88 1813.26,1443.22 1829,1413.5C 1839.53,1388.78 1850.86,1364.44 1863,1340.5C 1866.61,1323.43 1870.61,1306.43 1875,1289.5C 1880.17,1272.84 1886.17,1256.51 1893,1240.5C 1895.76,1230.62 1898.09,1220.62 1900,1210.5C 1903,1202.16 1906,1193.82 1909,1185.5C 1913.12,1159.67 1915.45,1133.67 1916,1107.5C 1918.98,1033.74 1917.65,960.075 1912,886.5C 1910.64,872.636 1908.97,872.303 1907,885.5C 1905.92,932.189 1904.25,978.855 1902,1025.5C 1900.86,1045.54 1899.2,1065.54 1897,1085.5C 1888.29,1140.41 1878.29,1195.07 1867,1249.5C 1864.2,1258.9 1861.2,1268.23 1858,1277.5C 1856.64,1286.32 1854.64,1294.99 1852,1303.5C 1844.22,1323.73 1835.89,1343.73 1827,1363.5C 1814.45,1389.26 1802.45,1415.26 1791,1441.5C 1780.81,1461.9 1768.14,1480.56 1753,1497.5C 1732.9,1520.27 1712.07,1542.44 1690.5,1564C 1678.76,1572.19 1674.6,1569.36 1678,1555.5C 1684.78,1543.61 1692.78,1532.61 1702,1522.5C 1727.61,1498.25 1748.61,1470.58 1765,1439.5C 1781.64,1407.55 1796.64,1374.88 1810,1341.5C 1813.68,1334.14 1817.35,1326.8 1821,1319.5C 1831.56,1287.25 1840.56,1254.58 1848,1221.5C 1849.93,1210.93 1850.93,1200.26 1851,1189.5C 1857.32,1163.21 1861.32,1136.54 1863,1109.5C 1864.49,1102.19 1866.83,1095.19 1870,1088.5C 1870.49,1074.36 1872.16,1060.36 1875,1046.5C 1875.76,1034.65 1875.59,1022.82 1874.5,1011C 1875.72,1000.5 1876.55,990 1877,979.5C 1875.67,978.167 1874.33,978.167 1873,979.5C 1870.87,983.232 1869.53,987.232 1869,991.5C 1869.21,1025.21 1864.55,1058.21 1855,1090.5C 1852.82,1107.91 1850.16,1125.24 1847,1142.5C 1841.24,1163.31 1836.24,1184.31 1832,1205.5C 1818.16,1242.84 1803.5,1279.84 1788,1316.5C 1767.86,1360.81 1743.2,1402.14 1714,1440.5C 1708.14,1446.7 1701.97,1452.53 1695.5,1458C 1690.89,1461.03 1685.89,1462.03 1680.5,1461C 1677.83,1459 1676.5,1456.33 1676.5,1453C 1677.37,1448.42 1679.21,1444.26 1682,1440.5C 1692.53,1429.75 1701.87,1418.08 1710,1405.5C 1715.41,1400.76 1720.08,1395.43 1724,1389.5C 1745.01,1350.48 1764.68,1310.81 1783,1270.5C 1817.41,1178.14 1838.41,1082.81 1846,984.5C 1848.27,906.818 1847.94,829.152 1845,751.5C 1844.67,749.167 1844.33,746.833 1844,744.5C 1842.75,741.184 1841.08,740.85 1839,743.5C 1838.67,745.167 1838.33,746.833 1838,748.5C 1836.2,804.52 1833.87,860.52 1831,916.5C 1826.86,961.298 1819.86,1005.63 1810,1049.5C 1808.96,1064.69 1806.63,1079.69 1803,1094.5C 1797.35,1115.08 1792.02,1135.75 1787,1156.5C 1773.85,1195.98 1756.85,1233.65 1736,1269.5C 1732.25,1277.35 1728.92,1285.35 1726,1293.5C 1719.91,1302.01 1713.58,1310.35 1707,1318.5C 1702,1326.83 1697,1335.17 1692,1343.5C 1684.9,1349.66 1677.57,1349.99 1670,1344.5C 1669.08,1342.97 1668.58,1341.3 1668.5,1339.5C 1669.77,1334.96 1671.6,1330.62 1674,1326.5C 1699.64,1292.25 1720.98,1255.25 1738,1215.5C 1742.51,1197.48 1749.51,1180.48 1759,1164.5C 1762.38,1155.09 1764.72,1145.43 1766,1135.5C 1776.68,1107.1 1783.68,1077.76 1787,1047.5C 1795.36,990.817 1802.52,933.984 1808.5,877C 1808.33,874.167 1808.17,871.333 1808,868.5C 1806.51,867.253 1805.01,867.253 1803.5,868.5C 1802.57,870.795 1801.73,873.129 1801,875.5C 1787.34,970.802 1759.01,1061.47 1716,1147.5C 1712.07,1154.43 1707.07,1160.43 1701,1165.5C 1695.36,1178.11 1688.7,1190.11 1681,1201.5C 1648.37,1245.13 1611.2,1284.63 1569.5,1320C 1558.77,1328.72 1553.94,1326.22 1555,1312.5C 1557.61,1307.56 1560.61,1302.9 1564,1298.5C 1587.33,1274.5 1610.67,1250.5 1634,1226.5C 1643.72,1216.05 1652.72,1205.05 1661,1193.5C 1673.75,1171 1686.75,1148.67 1700,1126.5C 1738.16,1046.37 1763.16,962.368 1775,874.5C 1777.59,850.222 1779.59,825.889 1781,801.5C 1782.88,787.664 1785.54,773.997 1789,760.5C 1788.64,719.786 1786.98,679.12 1784,638.5C 1776.74,599.553 1769.74,560.553 1763,521.5C 1753.89,501.287 1744.23,481.287 1734,461.5C 1720.77,442.716 1710.44,422.382 1703,400.5C 1693.33,387.17 1684.66,373.17 1677,358.5C 1673.89,352.746 1672.72,346.746 1673.5,340.5 Z"/></g>
</svg>
