<?xml version="1.0" encoding="UTF-8" standalone="no"?>
<!DOCTYPE svg PUBLIC "-//W3C//DTD SVG 1.1//EN" "http://www.w3.org/Graphics/SVG/1.1/DTD/svg11.dtd">
<svg xmlns:xl="http://www.w3.org/1999/xlink" xmlns:dc="http://purl.org/dc/elements/1.1/" version="1.1" xmlns="http://www.w3.org/2000/svg" viewBox="81 63 63 351" width="63" height="351">
  <defs>
    <clipPath id="artboard_clip_path">
      <path d="M 81 63 L 144 63 L 144 414 L 81 414 Z"/>
    </clipPath>
  </defs>
  <g id="Mace,_Flanged_(3)" fill-opacity="1" fill="none" stroke="none" stroke-opacity="1" stroke-dasharray="none">
    <title>Mace, Flanged (3)</title>
    <g id="Mace,_Flanged_(3)_Art" clip-path="url(#artboard_clip_path)">
      <title>Art</title>
      <g id="Group_874">
        <g id="Graphic_919">
          <path d="M 112.38985 65.27296 C 110.5955 65.493026 109.21769 66.71732 108.64211 68.5359 C 108.28065 69.741485 108.4263 70.09848 109.42882 70.63154 C 111.52105 71.743995 110.55041 73.46434 107.90195 73.398 C 107.0859 73.35547 106.30237 73.77753 105.79803 74.51577 C 105.20374 75.318 104.84674 75.46365 104.50356 75.05753 C 103.43045 73.81601 101.98204 74.33184 100.93911 76.293305 C 100.35694 77.49336 98.90407 79.06912 96.9662 80.61065 C 93.69964 83.17895 91.61272 86.26265 91.1375 89.36463 C 90.95039 90.66292 90.60551 91.20639 89.4131 92.08198 C 86.71212 94.11233 84.72938 99.20832 85.68215 101.72771 C 85.95304 102.37495 86.02363 103.08341 85.90775 103.30135 C 85.76869 103.56288 86.21222 105.2524 86.89411 107.12457 C 87.55558 108.92997 88.03441 110.97372 87.88706 111.56631 C 87.76012 112.22566 87.83348 112.82377 88.00783 112.91648 C 88.18218 113.00918 88.31954 113.69724 88.27977 114.40294 C 88.11414 116.60723 89.88955 119.78768 91.87143 120.89737 C 99.58376 125.10991 99.21741 124.74739 100.05918 129.05284 C 100.21695 129.80766 100.5193 130.08024 101.27136 130.03283 C 102.08741 130.07535 102.515 130.63817 103.35742 133.1548 C 104.30742 135.78456 104.60701 136.1675 105.3006 135.80943 C 105.74753 135.59979 106.25847 135.48008 106.38924 135.54961 C 106.52 135.61914 106.65884 139.77447 106.68839 144.76627 C 106.69476 149.80166 106.74195 154.97058 106.75237 156.31798 C 106.74237 157.59863 106.80763 165.5727 106.81825 173.96502 C 106.87246 182.38051 106.92772 191.63524 106.98662 194.57393 C 107.04551 197.51262 107.04252 202.03984 107.04295 204.66788 C 107.04337 207.29593 107.07568 212.17738 107.10034 215.60107 C 107.18495 222.80268 107.26444 244.31482 107.24699 251.18262 C 107.20382 253.7875 107.22295 257.43188 107.24272 259.28746 C 107.2625 261.14304 107.27503 264.1689 107.2948 266.0245 C 107.31458 267.88007 107.33966 273.9318 107.39897 279.49855 C 107.52757 300.81316 107.41976 305.1169 106.43254 307.49937 C 105.67708 309.44595 105.70961 309.91053 106.46549 310.592 C 107.45973 311.4561 108.39803 316.3161 107.83904 317.47255 C 107.67404 317.88802 107.58793 318.6809 107.6817 319.34578 C 107.73187 319.9875 107.75377 323.52152 107.74972 327.2095 C 107.70209 330.8743 107.75269 334.14406 107.78798 334.4983 C 107.87898 335.27353 107.81282 356.42867 107.6912 361.28418 C 107.66079 362.49806 107.67609 365.41357 107.72839 367.73374 C 107.7807 370.0539 107.85277 374.22965 107.82725 377.01164 C 107.8249 379.75004 107.9025 383.70508 107.93992 385.73777 C 108.2446 394.73373 107.7934 403.04823 106.95246 403.99887 C 105.8853 405.1647 106.74919 408.5873 108.36195 409.44484 C 109.88753 410.256 119.99913 410.3768 121.94083 409.56415 C 125.10746 408.3405 126.04833 406.0452 124.41303 403.44246 C 123.94738 402.63576 123.6176 399.04984 123.587 393.2188 C 123.53428 388.2706 123.41501 378.92593 123.31381 372.38643 C 123.2562 365.8701 123.12758 356.01727 123.06826 350.45053 C 123.00895 344.8838 122.94305 338.69852 122.86204 336.64265 C 122.78103 334.58677 122.67707 328.15763 122.62329 322.3702 C 122.5459 313.99828 122.69942 311.39617 123.42065 309.9346 C 124.30411 308.1679 124.28646 307.99077 122.82105 306.54067 C 121.80917 305.49944 121.4947 304.82903 121.87764 304.52944 C 122.15022 304.2271 122.36286 300.1468 122.26102 295.39613 C 121.88747 273.28035 121.68401 259.36212 121.54603 249.0011 C 121.38765 238.57333 121.18142 224.76545 120.15455 159.08298 C 119.81672 139.94948 119.94941 134.65257 120.63258 132.9471 C 121.48074 130.82617 121.50392 130.78258 123.15091 131.1551 C 125.08261 131.62309 125.47108 131.1028 126.86123 125.85946 C 127.45063 123.48912 128.40638 121.4813 130.75654 117.58707 C 137.04494 107.23245 138.5161 104.04499 138.66856 100.60365 C 138.77679 98.92795 138.42213 96.3352 137.9063 94.8868 C 137.3469 93.41522 136.25677 90.20777 135.48112 87.67072 C 133.57452 81.7927 132.2101 79.83718 128.20829 77.37391 C 126.46753 76.33651 124.88624 75.104345 124.72018 74.68058 C 124.32406 73.74312 123.45612 74.00847 122.47337 75.331 C 121.32838 76.95864 120.11344 76.089 119.34884 73.11055 C 118.60466 70.19886 117.75607 69.69175 116.78267 71.52245 C 116.41185 72.21986 116.07527 72.43227 115.88603 72.052096 C 115.67362 71.71551 115.98044 70.92816 116.55155 70.16951 C 117.25896 69.25969 117.49901 68.49275 117.2949 67.82511 C 116.88665 66.48982 114.07384 65.05013 112.38985 65.27296 Z" fill="black"/>
        </g>
        <g id="Graphic_918">
          <path d="M 115.08997 69.44829 C 114.83503 69.92776 112.04198 70.34365 111.34457 69.97283 C 110.25487 69.39342 110.66651 68.82954 112.32733 68.6503 C 113.59032 68.48318 115.3449 68.96882 115.08997 69.44829 Z" fill="#f3f3f3"/>
        </g>
        <g id="Graphic_917">
          <path d="M 131.80441 82.8084 C 134.24577 86.73432 134.59637 93.01505 132.73993 99.2405 C 132.283 100.73079 130.11379 105.33625 127.7294 109.71547 C 123.95721 116.59963 123.43904 117.88963 122.99529 120.61697 L 122.52006 123.71896 L 120.83331 124.05214 C 118.85908 124.4002 118.49273 124.03768 119.41978 122.29415 C 119.7906 121.59674 120.00089 120.25486 119.86906 119.3461 C 119.44105 116.15524 120.55373 109.64615 122.37976 104.63457 C 126.26912 93.95484 126.89999 89.92921 125.49156 85.32247 C 124.9432 83.40948 123.85691 80.93091 123.17885 79.78762 C 122.4572 78.62116 121.90714 77.657755 121.9535 77.57058 C 122.6256 76.30652 123.37213 76.47981 126.85365 78.55462 C 129.7917 80.28454 130.74235 81.12547 131.80441 82.8084 Z" fill="#f3f3f3"/>
        </g>
        <g id="Graphic_916">
          <path d="M 120.1651 80.19799 C 122.35046 83.76414 123.5807 87.54929 123.53477 90.26452 C 123.45737 93.35439 122.80885 97.2029 122.31556 97.49972 C 122.06892 97.64814 121.53969 99.37954 121.06893 101.42159 C 120.57777 103.39688 119.99666 105.43617 119.7649 105.87205 C 119.16232 107.00534 118.31563 112.59355 118.22441 116.23518 C 118.16742 119.39182 117.75408 120.90528 117.14384 120.58081 C 116.83873 120.41858 116.36757 108.37081 116.37502 102.78366 C 116.39713 101.90084 116.24171 98.40762 116.08352 95.02476 C 115.2154 76.78343 115.2894 75.59273 116.75715 74.304435 C 117.27638 73.85367 117.46838 74.12349 117.95827 75.72584 C 118.28486 76.79407 119.29504 78.78488 120.1651 80.19799 Z" fill="#f3f3f3"/>
        </g>
        <g id="Graphic_915">
          <path d="M 114.91816 73.66209 L 114.91816 73.66209 C 114.83928 73.28468 114.3681 72.69869 113.75787 72.37422 C 112.84252 71.88752 112.61905 71.99234 111.87741 73.38716 C 111.2053 74.65122 111.18595 75.423685 111.82701 77.16232 C 112.26119 78.34367 112.64943 82.24024 112.71492 85.79746 C 112.85864 91.5209 113.10697 101.88468 113.59726 117.57684 C 113.80605 124.22946 113.05229 125.22645 110.00559 122.54418 C 108.88059 121.61054 108.61247 120.85296 108.63905 118.9102 C 108.62098 116.10504 108.00204 113.48358 107.26104 113.08959 C 106.99951 112.95053 106.6525 111.81554 106.54938 110.64248 C 106.44903 109.35908 105.72079 107.57409 104.76079 106.22498 C 102.75638 103.37006 101.05942 97.93897 101.18318 94.76193 C 101.33393 92.27017 101.48405 91.56723 103.92712 83.08179 C 105.40445 77.88481 105.42933 76.89164 104.16528 76.21953 C 103.51145 75.87189 103.15169 76.12789 102.43323 77.47912 C 101.877 78.52523 100.1339 80.22623 97.79268 82.00058 L 94.09959 84.84529 L 93.11343 88.06699 C 91.91039 92.01203 91.73539 93.70814 92.23357 94.97943 C 92.46363 95.49313 92.49063 96.17842 92.35158 96.43995 C 91.97799 97.24771 94.58094 102.65733 96.99253 106.0083 C 98.20853 107.71717 99.49788 110.02416 99.84489 111.15915 C 101.1689 115.60919 101.66814 117.7197 101.8512 120.1094 C 102.05192 122.67621 102.64833 123.55244 104.66444 124.17714 C 106.19832 124.65725 106.54596 124.00342 106.64377 120.98032 L 106.65824 118.63974 L 107.13324 119.95462 C 107.42453 120.66861 107.53042 121.73131 107.42666 122.34708 C 107.30248 122.89607 107.34437 123.86883 107.48449 124.44654 C 107.84361 125.97935 106.19045 127.61635 105.01633 126.88024 C 104.53686 126.6253 103.35722 126.1099 102.39275 125.82072 C 100.74852 125.33785 100.68452 125.24791 100.7481 122.7098 C 100.74045 121.25205 100.59544 119.10623 100.38197 117.93041 C 100.1249 116.73142 100.0422 115.62513 100.15808 115.40719 C 100.45937 114.84055 98.22107 110.74304 95.36701 106.54178 C 92.36177 102.20422 90.27805 96.34384 90.95187 94.1302 L 91.36245 92.72709 L 90.0244 93.24568 C 88.19306 94.06109 86.45484 97.3302 87.26366 98.54302 C 87.62725 99.0159 87.77396 100.21213 87.59514 101.17936 C 87.13374 103.72958 88.76393 109.18108 90.42963 110.56995 C 93.52269 113.16505 96.98145 117.91148 98.60952 121.68452 C 99.57058 123.87286 100.20611 125.8322 100.09023 126.05014 C 99.58036 127.00908 101.69576 128.07795 103.8184 127.97653 L 106.0078 127.8547 L 106.18704 129.51552 L 106.43304 131.15592 L 108.25503 129.83233 C 110.52672 128.18874 113.16859 127.63656 115.86999 128.23426 C 117.03475 128.46219 118.22269 128.64654 118.48975 128.56489 C 118.7568 128.48324 118.6741 127.37696 118.35303 126.08802 C 117.88632 124.44209 117.35391 123.6558 116.71774 123.48527 C 115.90445 123.3324 115.74562 121.73834 115.5987 113.4972 C 115.43862 104.01901 115.06505 93.365 114.69233 87.96709 C 113.99153 78.03366 113.93923 75.7135 114.41764 75.129205 C 114.69299 74.7165 114.93028 74.05991 114.91816 73.66209 Z" fill="#f3f3f3"/>
        </g>
        <g id="Graphic_914">
          <path d="M 110.20596 76.63586 C 110.55466 76.82127 110.9899 78.84185 111.19891 81.0776 C 111.34115 83.33377 111.59481 86.43193 111.71005 88.0028 C 111.84846 89.53009 111.96242 94.6786 111.9975 99.44969 C 112.03257 104.22079 112.13824 109.70035 112.2656 111.66905 C 112.54732 116.29173 112.4748 120.94971 112.0974 121.0286 C 111.02917 121.35519 109.82975 118.9842 109.34327 115.48269 C 108.70179 111.116 107.64037 107.64426 105.90854 104.48698 C 105.27407 103.36687 104.33236 100.40607 103.81824 98.00808 C 102.78722 93.32246 103.05216 91.56235 105.71424 84.03202 C 106.18882 82.71885 106.64745 80.27897 106.75845 78.49292 C 106.93132 75.11835 107.45884 74.33653 108.73225 75.51681 C 109.14219 75.90251 109.81366 76.42727 110.20596 76.63586 Z" fill="#f3f3f3"/>
        </g>
        <g id="Graphic_913">
          <path d="M 137.03114 96.32244 C 138.01962 101.82412 137.46999 103.48876 132.54898 111.27168 C 128.86842 117.14226 125.25676 124.67089 124.6276 127.74693 C 124.49513 128.62699 124.09178 128.85981 122.70079 128.84705 C 121.70762 128.82217 120.83032 128.57935 120.68191 128.33271 C 120.19585 127.45924 121.19902 126.20348 122.57237 126.03912 L 123.90212 125.85159 L 124.38011 122.63925 C 125.02862 118.79074 126.20678 115.83886 131.10802 106.20036 C 133.17347 102.21066 134.88192 98.36662 134.94486 97.61733 C 135.20044 95.34904 135.75284 93.57405 136.18872 93.80581 C 136.40666 93.92169 136.79725 95.07986 137.03114 96.32244 Z" fill="#f3f3f3"/>
        </g>
        <g id="Graphic_912">
          <path d="M 91.53358 113.22564 C 94.20946 116.60532 97.59317 121.70323 97.51258 122.2754 C 97.31335 123.17587 92.36748 120.4902 90.95395 118.73221 C 89.73242 117.24404 88.55683 113.04065 89.0667 112.08172 C 89.48388 111.29713 90.24805 111.64754 91.53358 113.22564 Z" fill="#f3f3f3"/>
        </g>
        <g id="Graphic_911">
          <path d="M 115.0129 132.47506 L 115.0129 132.47506 C 116.04923 129.89507 112.65425 129.65544 109.45721 132.09297 L 107.74558 133.41932 L 107.9046 142.05828 C 108.00645 146.80896 108.09765 154.6291 108.08914 159.37702 C 108.12421 164.14812 108.17395 173.62355 108.24644 180.42734 C 108.31894 187.23113 108.40079 194.5431 108.36868 196.70656 C 108.35974 198.82643 108.38717 202.13977 108.40694 203.99535 C 108.42671 205.85093 108.46731 210.40132 108.46327 214.0893 C 108.50281 217.80047 108.53065 223.74185 108.59613 227.29907 C 108.61803 230.8331 108.63652 236.26632 108.62588 239.33578 C 108.61525 242.40524 108.67498 250.60002 108.72153 257.55776 C 108.81168 264.53867 108.87778 277.76884 108.97664 287.04674 C 109.0319 296.30147 109.1231 304.1216 109.22517 304.45543 C 109.30681 304.7225 110.93892 304.80754 112.86403 304.657 C 114.76873 304.4397 117.26325 304.4801 118.49477 304.68763 C 119.65953 304.91557 120.67312 305.0072 120.69629 304.96362 C 120.74264 304.87644 120.71182 303.46227 120.64293 301.80422 C 120.39544 296.69654 120.14074 281.29738 120.0927 270.87236 C 120.07081 267.33832 119.96791 261.7484 119.87372 258.45548 C 119.77953 255.16255 119.70704 248.35876 119.68026 243.2566 C 119.69706 238.17763 119.63775 232.6109 119.54845 230.88608 C 119.45915 229.16126 119.34477 221.3847 119.20722 213.65174 C 119.09284 205.8752 118.91786 196.10953 118.75861 191.88743 C 118.64295 187.6885 118.55876 183.11494 118.61511 181.74712 C 118.62787 180.35613 118.58025 172.55916 118.47693 164.3412 C 118.28559 150.8208 118.24881 146.99928 118.02366 136.59192 C 117.95371 134.09463 117.77277 133.3834 117.02624 133.21011 C 116.43365 133.06276 116.0303 133.29558 115.97566 133.71382 C 115.92101 134.13205 115.6076 134.30088 115.21531 134.09229 C 114.77943 133.86053 114.72925 133.21882 115.0129 132.47506 Z" fill="#f3f3f3"/>
        </g>
        <g id="Graphic_910">
          <path d="M 105.77199 131.97857 C 105.81664 132.84098 105.64335 133.5875 105.37629 133.66915 C 104.75224 133.89644 103.70294 130.82252 104.12011 130.03794 C 104.65316 129.03541 105.68269 130.25375 105.77199 131.97857 Z" fill="#f3f3f3"/>
        </g>
        <g id="Graphic_909">
          <path d="M 122.75259 307.51066 C 123.04941 308.00395 123.18676 308.692 122.97818 309.0843 C 122.67689 309.65095 122.54612 309.5814 122.01924 308.57442 C 121.44877 307.54425 121.05648 307.33567 118.6806 306.96697 C 115.75573 306.4741 110.74458 307.2761 109.21283 308.47447 C 108.11036 309.28606 106.79166 309.03218 107.30154 308.07324 C 107.78824 307.1579 111.90998 305.71524 114.49997 305.47093 C 115.78337 305.37058 118.00807 305.60298 119.34718 305.92362 C 120.72988 306.26744 121.87147 306.53896 121.95865 306.5853 C 122.069 306.58808 122.389 307.0378 122.75259 307.51066 Z" fill="#f3f3f3"/>
        </g>
        <g id="Graphic_908">
          <path d="M 119.88639 314.37335 C 119.81175 317.35286 119.75987 317.66074 119.23681 317.38263 C 119.06246 317.28992 118.94446 315.8294 119.0091 314.13053 C 119.05056 312.47524 118.81944 311.1223 118.53197 311.1372 C 118.17774 311.1725 117.9498 312.33724 117.93151 313.94894 C 117.86517 316.5974 117.77246 316.77175 116.79694 316.924 C 115.77783 317.05305 115.79824 317.1198 116.53094 317.84487 C 117.71441 319.08916 116.916 319.22375 113.84549 318.37388 C 111.05967 317.61948 110.02462 316.62184 110.67355 315.40137 C 110.81261 315.13985 110.52684 314.20514 110.08437 313.35486 C 109.6419 312.50457 109.35613 311.56987 109.49519 311.30834 C 110.00506 310.3494 112.24911 309.80933 115.49569 309.80232 C 119.42479 309.87866 119.96273 310.44425 119.88639 314.37335 Z" fill="#f3f3f3"/>
        </g>
        <g id="Graphic_907">
          <path d="M 121.66415 314.8154 C 121.57356 316.6682 121.40134 318.25397 121.20104 318.3152 C 120.73369 318.4581 120.7541 318.52485 120.65056 314.72375 C 120.62973 312.02894 120.89849 310.9977 121.5959 311.36853 C 121.63949 311.3917 121.71114 312.9394 121.66415 314.8154 Z" fill="#f3f3f3"/>
        </g>
        <g id="Graphic_906">
          <path d="M 113.4802 318.8506 C 117.18689 319.87098 117.8473 320.83715 117.8879 325.38754 C 117.9198 327.64094 117.74757 329.2267 117.34698 329.34917 C 117.01316 329.45123 115.32534 328.94518 113.59946 328.19525 L 110.40924 326.83444 L 109.56959 324.20746 C 108.72993 321.58047 108.35168 316.40326 108.97574 316.17596 C 109.15285 316.1583 109.67315 316.5468 110.10073 317.1096 C 110.69991 317.87548 111.57167 318.339 113.4802 318.8506 Z" fill="#f3f3f3"/>
        </g>
        <g id="Graphic_905">
          <path d="M 119.98779 327.95776 C 119.95185 329.39234 119.72392 330.5571 119.48003 330.59516 C 119.03862 330.5841 119.00695 323.91384 119.40095 323.17284 C 119.72265 322.67296 120.0133 325.17577 119.98779 327.95776 Z" fill="#f3f3f3"/>
        </g>
        <g id="Graphic_904">
          <path d="M 121.87866 328.2922 C 121.88397 332.48838 121.85527 332.75267 121.20144 332.40503 C 120.85274 332.2196 120.7273 324.88447 121.07495 324.23065 C 121.53847 323.3589 121.83083 324.9121 121.87866 328.2922 Z" fill="#f3f3f3"/>
        </g>
        <g id="Graphic_903">
          <path d="M 117.19622 331.84092 C 116.83093 332.31763 116.83752 332.93616 117.24747 333.32186 C 117.57023 333.6612 117.86535 335.1041 117.82941 336.53867 C 117.86513 339.52095 117.5749 339.6462 114.01003 338.2539 C 110.70668 337.0007 108.80433 334.4796 108.87897 331.50007 C 108.86579 330.263 108.93702 329.18267 108.98337 329.0955 C 109.02972 329.0083 110.13984 329.6545 111.53189 330.50648 C 113.20589 331.5643 114.19077 331.92023 114.59412 331.6874 C 115.08741 331.3906 114.78506 331.118 113.14359 330.52477 C 111.65607 329.9575 110.87424 329.42996 110.53936 328.6928 C 110.09965 327.73214 110.21001 327.7349 112.26141 328.71384 C 113.48188 329.36277 115.03617 329.90965 115.73911 330.05976 C 117.47604 330.3683 117.83963 330.84116 117.19622 331.84092 Z" fill="#f3f3f3"/>
        </g>
        <g id="Graphic_902">
          <path d="M 119.97629 337.2329 C 119.91824 339.5503 119.52254 341.24087 119.1413 340.59088 C 118.88807 340.12076 119.00417 335.48596 119.30546 334.9193 C 119.5604 334.43985 120.00946 335.90866 119.97629 337.2329 Z" fill="#f3f3f3"/>
        </g>
        <g id="Graphic_901">
          <path d="M 121.68941 339.3738 C 121.61477 342.35333 121.56289 342.6612 121.03983 342.3831 C 120.69113 342.1977 120.65499 336.58736 120.97946 335.97713 C 121.39663 335.19254 121.70663 336.9229 121.68941 339.3738 Z" fill="#f3f3f3"/>
        </g>
        <g id="Graphic_900">
          <path d="M 114.93792 341.76648 L 118.00397 343.6763 L 118.06669 347.34385 C 118.13387 349.9515 117.95229 351.02907 117.4877 351.0616 C 117.13347 351.0969 116.74777 351.50684 116.71353 351.99184 C 116.63018 352.67436 116.31954 352.73283 115.33742 352.26654 C 114.35531 351.80026 114.50372 352.0469 115.93107 353.25313 C 117.48642 354.63923 117.86489 355.3996 118.22784 357.66128 C 118.74026 361.00885 118.67732 361.75814 118.12003 361.965 C 117.87615 362.0031 116.1271 361.29674 114.25281 360.30016 C 110.94011 358.53877 110.83252 358.42565 109.68499 355.7468 C 108.68587 353.31456 108.27274 350.41117 108.78262 349.45223 C 108.8985 349.2343 109.8602 349.6338 110.88038 350.344 C 111.92373 351.01056 113.14972 351.4388 113.55031 351.3163 C 114.08442 351.15302 113.76166 350.81367 112.27966 350.0257 C 111.14637 349.4231 110.21614 348.64893 110.18084 348.2947 C 110.1919 347.8533 110.89207 348.11376 112.63284 349.15116 C 115.91683 351.17684 116.53153 350.44137 113.40424 348.33128 C 110.34095 346.3111 108.85683 343.84466 108.7163 340.6389 C 108.5581 337.25605 108.80752 336.9973 110.53445 338.58645 C 111.26716 339.3115 113.28433 340.77543 114.93792 341.76648 Z" fill="#f3f3f3"/>
        </g>
        <g id="Graphic_899">
          <path d="M 120.36474 348.17437 C 120.33369 351.17706 120.23822 351.46177 119.67158 351.16048 C 119.36646 350.99824 119.51126 346.09915 119.85891 345.44532 C 120.22973 344.7479 120.40514 345.67985 120.36474 348.17437 Z" fill="#f3f3f3"/>
        </g>
        <g id="Graphic_898">
          <path d="M 122.09444 349.6532 C 122.07062 351.4856 121.83716 352.87105 121.66281 352.77834 C 121.27051 352.56976 121.25457 351.44306 121.61008 347.83013 C 121.81549 344.92014 122.1829 346.1219 122.09444 349.6532 Z" fill="#f3f3f3"/>
        </g>
        <g id="Graphic_897">
          <path d="M 120.13742 359.0121 C 120.17867 361.77366 120.00538 362.5202 119.39514 362.1957 C 119.22079 362.103 119.14085 360.88638 119.30755 359.52132 C 119.45384 358.0895 119.61777 356.8348 119.6233 356.6141 C 119.652 356.3498 119.76512 356.2422 119.8523 356.28857 C 119.98306 356.3581 120.1066 357.5979 120.13742 359.0121 Z" fill="#f3f3f3"/>
        </g>
        <g id="Graphic_896">
          <path d="M 121.91072 360.51407 C 122.00002 362.2389 121.83055 363.7143 121.63026 363.77553 C 121.40679 363.88035 121.18885 363.76447 121.10444 363.60777 C 120.98473 363.09683 121.46506 357.1461 121.63941 357.2388 C 121.77018 357.30832 121.88818 358.76885 121.91072 360.51407 Z" fill="#f3f3f3"/>
        </g>
        <g id="Graphic_895">
          <path d="M 114.4144 361.78386 C 116.20151 362.7341 116.65504 363.14296 116.01334 363.19314 C 114.72993 363.2935 112.70723 362.05027 111.57564 360.4981 C 111.06364 359.7786 110.89482 359.46518 111.26117 359.8277 C 111.62753 360.19023 113.06317 361.0654 114.4144 361.78386 Z" fill="#f3f3f3"/>
        </g>
        <g id="Graphic_894">
          <path d="M 113.90835 363.47168 C 118.76428 366.22135 118.63351 366.15182 118.56058 368.18176 C 118.48935 369.2621 118.3977 370.2757 118.28183 370.49363 C 118.02689 370.9731 114.07631 369.99076 112.11485 368.94783 C 109.80468 367.7195 108.71009 365.572 108.72072 362.50252 L 108.81024 359.81048 L 110.06324 360.924 C 110.75512 361.5155 112.49312 362.66327 113.90835 363.47168 Z" fill="#f3f3f3"/>
        </g>
        <g id="Graphic_893">
          <path d="M 120.47952 370.04074 C 120.464 371.5421 120.23606 372.70685 120.01812 372.59097 C 119.66941 372.40556 119.69557 367.83475 120.02004 367.2245 C 120.34451 366.6143 120.51716 367.65658 120.47952 370.04074 Z" fill="#f3f3f3"/>
        </g>
        <g id="Graphic_892">
          <path d="M 122.26387 371.1013 C 122.2543 375.01 122.25706 374.89965 121.77759 374.6447 C 121.55965 374.52884 121.53158 373.0043 121.64258 371.21826 C 121.79716 369.4554 121.98704 368.04675 122.1178 368.11627 C 122.20498 368.16263 122.25898 369.5332 122.26387 371.1013 Z" fill="#f3f3f3"/>
        </g>
        <g id="Graphic_891">
          <path d="M 115.89425 372.35516 C 112.95174 371.68517 111.24903 370.89165 110.41427 369.83278 C 109.72792 369.02055 112.99044 370.14024 116.39031 371.948 L 118.37495 372.94732 L 115.89425 372.35516 Z" fill="#f3f3f3"/>
        </g>
        <g id="Graphic_890">
          <path d="M 118.14808 374.9513 C 118.68049 375.7376 119.1642 379.34947 118.81656 380.0033 C 118.51527 380.56994 115.77028 379.94907 113.7884 378.83937 C 111.04235 377.37927 109.35241 375.19476 109.38176 373.14165 C 109.36028 372.23565 109.42599 371.376 109.51869 371.20166 C 109.58822 371.0709 110.46275 371.42406 111.53204 371.9367 C 112.53456 372.46976 113.84774 372.94434 114.44309 372.98134 C 115.94167 373.1072 117.46725 373.9184 118.14808 374.9513 Z" fill="#f3f3f3"/>
        </g>
        <g id="Graphic_889">
          <path d="M 120.43145 382.53927 C 120.3768 382.9575 120.08104 383.30345 119.72957 383.2284 C 118.73916 383.09316 118.82249 393.8724 119.8465 395.31145 C 120.6989 396.54745 120.67956 397.3199 119.71232 397.1411 C 119.36085 397.06604 119.01874 397.49915 118.91221 398.22527 C 118.75933 399.03856 118.94857 399.41873 119.62833 399.61244 C 121.47286 400.03407 120.61704 400.69725 118.6594 400.3832 C 117.53823 400.17844 115.25888 400.36427 113.56936 400.8078 C 111.87984 401.25134 110.23944 401.49734 109.93432 401.3351 C 109.6292 401.17287 109.31878 396.8145 109.33835 391.62515 L 109.24226 382.2369 L 111.64301 381.61243 C 113.99741 381.07513 119.01239 381.002 120.01491 381.53504 C 120.32003 381.6973 120.48609 382.12104 120.43145 382.53927 Z" fill="#f3f3f3"/>
        </g>
        <g id="Graphic_888">
          <path d="M 111.19842 379.08367 C 111.2133 379.37114 111.05383 379.5659 110.7923 379.42685 C 110.57436 379.31097 110.34154 378.9076 110.32665 378.62015 C 110.33495 378.2891 110.47124 378.1379 110.73277 378.27697 C 110.95071 378.39285 111.20671 378.7526 111.19842 379.08367 Z" fill="#f3f3f3"/>
        </g>
        <g id="Graphic_887">
          <path d="M 113.5577 380.1145 C 113.35741 380.1757 112.94194 380.01072 112.70635 379.71772 C 112.42718 379.40155 112.62747 379.3403 113.10694 379.59525 C 113.60958 379.8066 113.80158 380.07643 113.5577 380.1145 Z" fill="#f3f3f3"/>
        </g>
        <g id="Graphic_886">
          <path d="M 122.05418 393.57792 C 121.91342 394.78904 120.69402 394.97933 120.45737 393.8471 C 120.26154 392.8484 120.9866 392.1157 121.72759 392.5097 C 121.94553 392.62558 122.08842 393.09293 122.05418 393.57792 Z" fill="#f3f3f3"/>
        </g>
        <g id="Graphic_885">
          <path d="M 120.09993 402.8265 C 119.98405 403.0444 119.69382 403.16965 119.43229 403.0306 C 119.21435 402.9147 119.11229 402.5809 119.22817 402.36295 C 119.36722 402.10142 119.67787 402.04295 119.89581 402.15883 C 120.15734 402.2979 120.23899 402.56495 120.09993 402.8265 Z" fill="#f3f3f3"/>
        </g>
        <g id="Graphic_884">
          <path d="M 112.9502 402.6032 C 112.90384 402.6904 112.50602 402.7025 112.06461 402.69145 C 111.64638 402.6368 111.38761 402.3874 111.5035 402.16945 C 111.64255 401.9079 112.04037 401.8958 112.38908 402.0812 C 112.73778 402.2666 112.99655 402.51603 112.9502 402.6032 Z" fill="#f3f3f3"/>
        </g>
        <g id="Graphic_883">
          <path d="M 116.83655 407.91247 C 116.72067 408.1304 115.73962 408.50335 114.60739 408.74 C 111.25429 409.47313 107.93436 408.882 107.83677 407.48826 C 107.79212 406.62586 109.95239 404.14027 110.51904 404.44156 C 110.82415 404.6038 111.37592 404.6176 111.84327 404.47473 C 112.31062 404.33185 113.41414 404.3595 114.2942 404.49196 C 115.74643 404.705 116.07196 404.934 116.52655 406.1821 C 116.79466 406.9397 116.95243 407.69453 116.83655 407.91247 Z" fill="#f3f3f3"/>
        </g>
        <g id="Graphic_882">
          <path d="M 115.49491 137.03651 C 115.4645 138.25039 115.57039 139.31309 115.65756 139.35944 C 115.78833 139.42897 115.90038 138.48215 115.93079 137.26827 C 115.9612 136.0544 115.85531 134.9917 115.76813 134.94534 C 115.63737 134.87581 115.52531 135.82263 115.49491 137.03651 Z" fill="black"/>
        </g>
        <g id="Graphic_881">
          <path d="M 115.5134 142.46972 C 115.4041 143.30619 115.089 144.4246 114.80811 145.058 C 114.52724 145.69142 114.49024 146.28677 114.70818 146.40265 C 114.96971 146.5417 115.31288 146.94782 115.50212 147.328 C 115.71453 147.66458 115.89888 146.47664 115.94587 144.60065 C 116.05474 141.13614 115.77727 139.87038 115.5134 142.46972 Z" fill="black"/>
        </g>
        <g id="Graphic_880">
          <path d="M 116.84081 145.02059 C 116.8104 146.23447 116.91629 147.29717 117.00347 147.34352 C 117.13423 147.41305 117.24628 146.46623 117.27669 145.25235 C 117.3071 144.03847 117.20121 142.97577 117.11404 142.92942 C 116.98327 142.85989 116.87122 143.80671 116.84081 145.02059 Z" fill="black"/>
        </g>
        <g id="Graphic_879">
          <path d="M 116.97496 154.65272 C 116.94922 161.85157 116.83993 162.68804 116.28987 161.72463 C 115.99305 161.23134 115.70215 174.60717 115.95092 176.13722 C 116.08828 176.82527 116.16141 181.84025 116.10378 186.7857 C 116.07997 188.6181 116.08868 190.9151 116.0638 191.90826 C 116.08251 192.9246 116.1884 193.98731 116.42398 194.2803 C 116.82563 194.99707 116.85604 193.7832 116.57328 176.8595 C 116.43848 169.01619 116.49123 162.50263 116.66834 162.48498 C 116.86864 162.42375 117.0264 163.17856 117.02194 164.2385 C 116.99706 165.23167 117.08273 173.27252 117.23623 182.13218 C 117.86384 221.43595 117.89891 226.20704 117.63186 226.2887 C 117.49833 226.32951 117.2636 219.83084 117.13157 211.87717 C 116.97913 203.85674 116.79629 197.05018 116.7174 196.67277 C 116.28875 195.27072 116.06464 197.16436 116.33489 199.6004 C 116.47607 201.01734 116.55325 202.34433 116.46054 202.51868 C 116.36784 202.69304 116.35231 204.19438 116.4212 205.85243 C 116.61192 209.69989 116.2917 213.66705 115.89005 212.95029 C 115.67764 212.6137 115.47735 212.67494 115.4227 213.09317 C 115.36806 213.5114 115.5777 213.95834 115.92641 214.14375 C 116.23153 214.30598 116.47477 216.05674 116.4686 218.06626 C 116.41884 220.0526 116.47497 223.10165 116.56427 224.82647 C 116.65357 226.55128 116.6914 231.21203 116.67907 235.23107 C 116.64632 239.18334 116.7101 243.69015 116.78175 245.23784 C 116.96758 247.5172 116.8434 248.06618 116.06265 248.3779 C 115.34865 248.6692 115.29953 248.86672 115.90424 249.4119 C 116.72412 250.1833 116.82724 251.35635 116.84062 259.6383 C 116.90907 270.1301 117.13082 282.43662 117.31453 283.0375 C 117.41658 283.37132 117.63176 283.59755 117.87564 283.5595 C 118.09911 283.45467 118.15079 276.10188 118.00005 267.13186 C 117.39052 230.63326 117.37415 226.8785 117.73115 226.73287 C 117.90827 226.71522 118.06603 227.47004 118.01798 228.5068 C 118.03669 229.52315 118.20103 242.35826 118.4519 257.02855 C 118.65919 271.67566 118.84946 284.35684 118.85053 285.19607 C 118.808 286.01212 118.90113 288.46582 118.95619 290.67563 C 119.21197 295.45226 119.03123 301.78594 118.69741 301.888 C 118.56388 301.92882 118.45523 300.97647 118.48564 299.7626 C 118.51498 297.7095 118.13545 296.1099 117.7878 296.76373 C 117.50969 297.2868 117.55689 302.4557 117.8973 302.97217 C 118.06612 303.28558 118.54836 303.43016 118.94894 303.3077 C 119.54982 303.124 119.74905 302.22352 119.70504 299.5723 C 119.65402 293.6745 119.1661 263.78216 118.99984 256.3135 C 118.94265 252.42522 118.85845 247.85165 118.81274 246.15 C 118.70113 238.2631 118.42199 215.02339 118.2972 205.89943 C 117.7455 160.03852 117.08407 135.30957 116.97496 154.65272 Z" fill="black"/>
        </g>
        <g id="Graphic_878">
          <path d="M 115.81297 154.31443 C 115.67391 154.57596 115.67773 155.30484 115.81509 155.9929 C 116.00815 157.10195 116.00815 157.10195 116.08491 155.8009 C 116.19314 154.1252 116.09108 153.79137 115.81297 154.31443 Z" fill="black"/>
        </g>
        <g id="Graphic_877">
          <path d="M 115.84145 158.467 C 115.84804 159.08553 115.94457 159.64006 116.07534 159.70958 C 116.16251 159.75594 116.28392 159.3173 116.27733 158.69876 C 116.27074 158.08024 116.17421 157.52571 116.04345 157.45618 C 115.95627 157.40983 115.83486 157.84848 115.84145 158.467 Z" fill="black"/>
        </g>
        <g id="Graphic_876">
          <path d="M 117.62836 285.49672 C 117.35024 286.01978 117.39744 291.1887 117.69426 291.682 C 118.1395 292.42192 118.2405 291.9165 118.31513 288.937 C 118.35277 286.55283 118.02235 284.75572 117.62836 285.49672 Z" fill="black"/>
        </g>
        <g id="Graphic_875">
          <path d="M 113.41025 316.3533 C 113.62542 316.57953 114.14848 316.85765 114.49995 316.9327 C 114.83101 316.941 114.65942 316.73794 114.04919 316.41348 C 113.43895 316.089 113.17466 316.0603 113.41025 316.3533 Z" fill="black"/>
        </g>
      </g>
    </g>
  </g>
</svg>
