<?xml version="1.0" encoding="UTF-8"?>
<!DOCTYPE svg PUBLIC "-//W3C//DTD SVG 1.1//EN" "http://www.w3.org/Graphics/SVG/1.1/DTD/svg11.dtd">
<svg xmlns="http://www.w3.org/2000/svg" version="1.1" width="2560px" height="1158px" style="shape-rendering:geometricPrecision; text-rendering:geometricPrecision; image-rendering:optimizeQuality; fill-rule:evenodd; clip-rule:evenodd" xmlns:xlink="http://www.w3.org/1999/xlink">
<g><path style="opacity:0.981" fill="#090909" d="M 593.5,621.5 C 594.434,620.432 594.768,619.099 594.5,617.5C 593.209,617.263 592.209,617.596 591.5,618.5C 552.338,622.6 517.671,637.1 487.5,662C 444.873,699.169 407.706,741.002 376,787.5C 362.204,807.722 354.704,830.056 353.5,854.5C 353.876,864.265 355.043,873.931 357,883.5C 364.076,907.394 370.743,931.394 377,955.5C 378.854,969.461 379.854,983.461 380,997.5C 339.403,1043.05 288.57,1069.55 227.5,1077C 185.089,1080.75 146.755,1070.08 112.5,1045C 88.579,1025.05 72.7456,999.881 65,969.5C 57.561,942.655 54.2277,915.322 55,887.5C 65.8658,855.632 86.3658,832.132 116.5,817C 120.667,812.833 124.833,808.667 129,804.5C 162.667,755.167 196.333,705.833 230,656.5C 264.341,606.844 301.341,559.177 341,513.5C 367.081,483.742 395.915,457.242 427.5,434C 528.027,368.53 637.36,324.03 755.5,300.5C 761.427,299.436 767.094,297.602 772.5,295C 775.376,289.72 777.876,284.22 780,278.5C 794.917,257.677 808.583,236.01 821,213.5C 838.101,178.798 855.601,144.298 873.5,110C 891.24,107.74 898.907,115.407 896.5,133C 895.87,144.839 895.203,156.672 894.5,168.5C 898.499,167.072 901.999,164.739 905,161.5C 912.895,152.704 917.228,142.371 918,130.5C 918.644,119.795 919.644,109.128 921,98.5C 921.504,94.9798 923.337,92.4798 926.5,91C 936.2,91.0001 945.2,93.6668 953.5,99C 967.638,107.153 980.805,116.653 993,127.5C 1002.28,139.395 999.779,147.895 985.5,153C 939.305,166.238 929.472,193.071 956,233.5C 968.836,251.715 982.003,269.548 995.5,287C 1031.48,289.674 1067.48,291.841 1103.5,293.5C 1107.47,292.803 1111.47,292.303 1115.5,292C 1116.62,288.591 1116.79,285.091 1116,281.5C 1113.23,272.674 1111.9,263.674 1112,254.5C 1112.83,253.667 1113.67,252.833 1114.5,252C 1134.85,240.823 1155.52,230.156 1176.5,220C 1200.54,206.987 1223.21,191.987 1244.5,175C 1262.17,159.333 1279.83,143.667 1297.5,128C 1307.67,120.516 1317.67,120.683 1327.5,128.5C 1330.23,132.593 1330.06,136.593 1327,140.5C 1299.5,169.333 1272,198.167 1244.5,227C 1235.06,235.106 1225.06,242.439 1214.5,249C 1197.33,259.419 1180,269.586 1162.5,279.5C 1161.37,281.074 1161.2,282.741 1162,284.5C 1163,287.5 1164,290.5 1165,293.5C 1165.5,294.667 1166.33,295.5 1167.5,296C 1325.76,303.969 1484.09,309.969 1642.5,314C 1929.5,315.409 2216.5,317.076 2503.5,319C 2508.06,323.28 2511.23,328.447 2513,334.5C 2515.9,344.655 2517.9,354.989 2519,365.5C 2521.2,392.202 2520.87,418.868 2518,445.5C 2517.25,453.912 2512.75,458.745 2504.5,460C 2479.82,460.537 2455.15,460.537 2430.5,460C 2426.13,468.579 2421.63,477.079 2417,485.5C 2412.94,491.278 2407.78,495.778 2401.5,499C 2410.81,500.016 2420.14,500.683 2429.5,501C 2435.52,501.076 2439.36,503.909 2441,509.5C 2441.67,514.167 2441.67,518.833 2441,523.5C 2438.83,527.01 2435.66,529.177 2431.5,530C 2424.91,531.466 2418.24,532.466 2411.5,533C 2339.52,536.692 2267.52,540.025 2195.5,543C 2189.39,543.355 2183.39,544.355 2177.5,546C 2173.07,549.132 2168.24,551.299 2163,552.5C 2155.74,549.86 2148.24,548.027 2140.5,547C 2107.4,546.004 2074.4,547.338 2041.5,551C 2033.01,553.333 2024.51,555.5 2016,557.5C 2009.24,555.546 2002.41,553.713 1995.5,552C 1941.76,550.514 1888.09,551.847 1834.5,556C 1818.29,558.979 1801.96,560.979 1785.5,562C 1720.86,565.199 1656.19,567.866 1591.5,570C 1478.5,569.368 1365.5,569.035 1252.5,569C 1242.07,569.153 1231.74,570.153 1221.5,572C 1218.74,573.097 1217.07,575.097 1216.5,578C 1214.04,579.562 1211.38,580.562 1208.5,581C 1184.87,579.675 1161.2,579.341 1137.5,580C 1130.39,580.282 1123.39,581.282 1116.5,583C 1113.87,584.626 1111.54,586.626 1109.5,589C 1105.75,590.045 1101.92,590.545 1098,590.5C 1062.13,584.178 1025.96,580.678 989.5,580C 953.425,578.696 917.425,579.696 881.5,583C 877.463,583.568 873.63,584.735 870,586.5C 875.872,628.206 866.206,665.873 841,699.5C 828.225,713.48 812.725,723.313 794.5,729C 762.813,740.504 730.146,745.504 696.5,744C 659.741,737.878 630.574,719.711 609,689.5C 594.367,668.969 589.2,646.302 593.5,621.5 Z M 797.5,583.5 C 824.327,575.26 840.494,584.594 846,611.5C 847.976,653.147 830.809,683.98 794.5,704C 773.588,712.102 752.088,717.936 730,721.5C 728.491,720.91 726.991,720.244 725.5,719.5C 730.283,713.264 733.45,706.264 735,698.5C 736.291,678.525 737.291,658.525 738,638.5C 739.507,622.822 745.84,609.488 757,598.5C 761.167,594.333 765.333,590.167 769.5,586C 778.936,584.915 788.269,584.082 797.5,583.5 Z M 662.5,593.5 C 678.222,592.847 693.222,595.847 707.5,602.5C 709.3,638.289 707.967,673.955 703.5,709.5C 703.577,713.632 704.244,717.632 705.5,721.5C 703.856,721.286 702.356,721.62 701,722.5C 669.548,714.778 644.882,697.445 627,670.5C 609.149,630.878 620.983,605.211 662.5,593.5 Z"/></g>
<g><path style="opacity:1" fill="#efefef" d="M 928.5,97.5 C 934.306,97.2679 939.639,98.7679 944.5,102C 961,111.336 976.167,122.502 990,135.5C 991.373,137.695 991.706,140.029 991,142.5C 980.958,145.931 971.125,150.098 961.5,155C 947.349,163.155 937.849,174.988 933,190.5C 931.646,198.727 932.813,206.56 936.5,214C 936.167,214.5 935.833,215 935.5,215.5C 917.9,204.452 900.734,192.785 884,180.5C 883.517,179.552 883.351,178.552 883.5,177.5C 895.557,178.221 905.391,173.888 913,164.5C 919.783,155.259 924.116,144.925 926,133.5C 926.333,122.167 926.667,110.833 927,99.5C 927.717,98.9558 928.217,98.2891 928.5,97.5 Z"/></g>
<g><path style="opacity:1" fill="#eeeeee" d="M 882.5,116.5 C 887.452,116.675 889.952,119.342 890,124.5C 890.859,134.219 890.526,143.885 889,153.5C 883.394,169.66 873.394,172.994 859,163.5C 858.333,161.833 858.333,160.167 859,158.5C 864.294,145.244 870.628,132.578 878,120.5C 879.397,118.93 880.897,117.596 882.5,116.5 Z"/></g>
<g><path style="opacity:1" fill="#eeeeee" d="M 1307.5,130.5 C 1308.24,130.369 1308.91,130.536 1309.5,131C 1287.14,155.031 1263.8,178.031 1239.5,200C 1230.68,206.579 1221.68,212.913 1212.5,219C 1187.83,234 1163.17,249 1138.5,264C 1146.27,285.96 1154.43,307.794 1163,329.5C 1175.9,357.692 1175.57,385.692 1162,413.5C 1160.45,397.606 1151.95,387.439 1136.5,383C 1131.16,378.119 1131.66,373.619 1138,369.5C 1138.17,368.167 1138.33,366.833 1138.5,365.5C 1133.77,332.233 1127.6,299.233 1120,266.5C 1119.33,263.833 1119.33,261.167 1120,258.5C 1122.5,256.667 1125,254.833 1127.5,253C 1158.95,238.447 1189.28,222.114 1218.5,204C 1229.68,195.91 1240.68,187.576 1251.5,179C 1269.77,162.221 1288.44,146.055 1307.5,130.5 Z"/></g>
<g><path style="opacity:1" fill="#eaeaea" d="M 1309.5,143.5 C 1310.04,143.56 1310.38,143.893 1310.5,144.5C 1287.46,173.042 1262.46,199.875 1235.5,225C 1209.8,244.332 1182.3,260.832 1153,274.5C 1149.04,272.583 1147.87,269.583 1149.5,265.5C 1182.52,247.331 1214.19,227.164 1244.5,205C 1266.36,184.633 1288.03,164.133 1309.5,143.5 Z"/></g>
<g><path style="opacity:1" fill="#efefef" d="M 849.5,172.5 C 858.992,174.412 867.659,178.245 875.5,184C 898.011,198.843 919.678,214.843 940.5,232C 949.697,240.863 958.531,250.03 967,259.5C 971.58,265.66 975.914,271.993 980,278.5C 982.035,281.561 983.201,284.895 983.5,288.5C 981.345,288.628 979.345,288.128 977.5,287C 942.326,262.913 907.326,238.58 872.5,214C 860.787,204.052 852.454,191.885 847.5,177.5C 847.437,175.486 848.103,173.819 849.5,172.5 Z"/></g>
<g><path style="opacity:1" fill="#eeeeee" d="M 840.5,190.5 C 843.509,190.423 845.676,191.756 847,194.5C 850.54,202.24 855.54,208.907 862,214.5C 863.187,216.044 863.52,217.711 863,219.5C 856.25,226.494 851.417,234.661 848.5,244C 839.935,245.275 831.268,245.942 822.5,246C 819.28,247.352 815.947,248.186 812.5,248.5C 812.34,246.801 812.506,245.134 813,243.5C 822.705,226.089 831.872,208.423 840.5,190.5 Z"/></g>
<g><path style="opacity:1" fill="#e6e6e6" d="M 867.5,226.5 C 872.901,225.966 877.901,227.133 882.5,230C 890.898,235.063 898.731,240.896 906,247.5C 906.591,248.483 906.257,249.15 905,249.5C 903.775,249.138 902.609,248.638 901.5,248C 896.111,243.611 890.444,239.611 884.5,236C 873.192,234.642 869.026,239.476 872,250.5C 874.785,255.619 878.618,259.786 883.5,263C 889.331,266.081 894.998,269.415 900.5,273C 888.274,268.721 876.607,263.055 865.5,256C 856.197,249.085 855.03,240.918 862,231.5C 863.73,229.598 865.563,227.931 867.5,226.5 Z"/></g>
<g><path style="opacity:1" fill="#ececec" d="M 878.5,242.5 C 880.989,242.298 883.323,242.798 885.5,244C 893.843,252.844 903.843,259.178 915.5,263C 931.167,274 946.833,285 962.5,296C 969.953,300.197 977.953,302.53 986.5,303C 997.91,309.742 1007.41,318.575 1015,329.5C 1015.59,334.568 1013.25,336.568 1008,335.5C 991.424,334.041 977.09,327.708 965,316.5C 964.144,312.456 962.478,308.789 960,305.5C 952.149,297.502 943.649,290.335 934.5,284C 918.167,274.333 901.833,264.667 885.5,255C 881.545,252.881 878.878,249.715 877.5,245.5C 877.685,244.416 878.018,243.416 878.5,242.5 Z"/></g>
<g><path style="opacity:1" fill="#efefef" d="M 826.5,254.5 C 835.491,254.08 844.157,255.58 852.5,259C 883.981,275.238 914.981,292.238 945.5,310C 940.728,308.963 936.061,307.296 931.5,305C 910.167,294.667 888.833,284.333 867.5,274C 856.815,269.158 845.815,265.158 834.5,262C 822.498,258.763 812.664,261.93 805,271.5C 799.635,278.893 795.302,286.893 792,295.5C 789.484,305.099 790.151,314.433 794,323.5C 799.999,333.508 807.499,342.341 816.5,350C 833.946,363.445 851.946,376.111 870.5,388C 876.71,392.542 881.876,398.042 886,404.5C 891.988,432.932 889.321,460.599 878,487.5C 861.481,520.185 834.981,538.685 798.5,543C 766.985,546.82 742.485,535.653 725,509.5C 708.323,467.182 721.657,438.849 765,424.5C 766.257,424.85 766.591,425.517 766,426.5C 737.284,444.364 731.284,468.031 748,497.5C 765.136,515.194 784.969,519.027 807.5,509C 824.637,496.546 831.804,479.712 829,458.5C 824.561,444.063 815.728,433.23 802.5,426C 811.14,426.685 819.807,427.518 828.5,428.5C 838.308,428.863 844.141,424.197 846,414.5C 849.456,403.357 847.456,393.357 840,384.5C 824.233,369.738 809.567,354.071 796,337.5C 774.807,308.111 778.974,282.944 808.5,262C 814.328,258.788 820.328,256.288 826.5,254.5 Z"/></g>
<g><path style="opacity:1" fill="#eaeaea" d="M 822.5,268.5 C 832.285,267.926 841.619,269.759 850.5,274C 872.045,283.105 892.712,293.772 912.5,306C 896.025,301.045 879.358,296.378 862.5,292C 850.297,288.466 837.964,287.8 825.5,290C 821.127,291.713 817.293,294.213 814,297.5C 813.088,301.452 813.755,305.119 816,308.5C 838.274,332.775 861.274,356.442 885,379.5C 893.804,388.776 899.138,399.776 901,412.5C 908.376,470.228 887.876,514.728 839.5,546C 814.779,560.428 788.779,563.428 761.5,555C 750.798,550.623 741.465,544.289 733.5,536C 741.191,539.942 749.191,543.609 757.5,547C 809.66,559.283 850.493,543.116 880,498.5C 897.265,467.908 901.598,435.575 893,401.5C 887.88,392.713 881.047,385.547 872.5,380C 849.342,366.517 828.175,350.351 809,331.5C 799.767,321.474 796.434,309.807 799,296.5C 804.215,284.801 812.048,275.467 822.5,268.5 Z"/></g>
<g><path style="opacity:1" fill="#e7e7e7" d="M 822.5,297.5 C 833.173,299.253 842.673,303.586 851,310.5C 851.667,311.167 851.667,311.833 851,312.5C 839.992,312.825 830.326,309.158 822,301.5C 821.421,300.072 821.588,298.738 822.5,297.5 Z"/></g>
<g><path style="opacity:1" fill="#6a6a6a" d="M 1015.5,297.5 C 1008.98,297.177 1002.64,297.51 996.5,298.5C 995.957,298.44 995.624,298.107 995.5,297.5C 1002.32,296.182 1008.99,296.182 1015.5,297.5 Z"/></g>
<g><path style="opacity:1" fill="#f1f1f1" d="M 1015.5,297.5 C 1049.52,298.429 1083.52,299.929 1117.5,302C 1118.67,302.5 1119.5,303.333 1120,304.5C 1123.84,319.723 1127.18,335.056 1130,350.5C 1130.67,356.167 1130.67,361.833 1130,367.5C 1127.99,372.838 1124.16,376.004 1118.5,377C 1115.93,379.479 1113.6,382.146 1111.5,385C 1095.57,390.014 1079.24,391.681 1062.5,390C 1058.9,389.846 1055.57,388.846 1052.5,387C 1047.32,376.074 1038.65,371.407 1026.5,373C 1020.03,375.132 1016.03,379.466 1014.5,386C 986.832,388.263 969.332,376.096 962,349.5C 960.393,343.312 960.226,337.145 961.5,331C 963.167,330.333 964.833,330.333 966.5,331C 979.253,336.14 992.253,340.473 1005.5,344C 1011.16,344.499 1016.82,344.666 1022.5,344.5C 1022.67,338.824 1022.5,333.157 1022,327.5C 1021.33,326.167 1020.67,324.833 1020,323.5C 1012.33,314.995 1004.49,306.662 996.5,298.5C 1002.64,297.51 1008.98,297.177 1015.5,297.5 Z"/></g>
<g><path style="opacity:1" fill="#f1f1f1" d="M 866.5,302.5 C 872.989,302.716 879.322,303.882 885.5,306C 902.561,311.131 919.561,316.465 936.5,322C 938.526,336.723 939.359,351.557 939,366.5C 922.385,370.08 905.551,371.247 888.5,370C 873.657,356.656 858.991,343.156 844.5,329.5C 848.529,325.394 852.695,321.394 857,317.5C 858.582,313.63 861.082,310.63 864.5,308.5C 865.172,306.47 865.838,304.47 866.5,302.5 Z"/></g>
<g><path style="opacity:1" fill="#f0f0f0" d="M 766.5,305.5 C 768.467,305.261 770.301,305.594 772,306.5C 774,321.17 778.167,335.17 784.5,348.5C 784.182,349.647 783.516,350.481 782.5,351C 779.899,351.92 777.232,352.587 774.5,353C 734.45,355.519 694.783,360.853 655.5,369C 643.663,371.723 631.996,375.057 620.5,379C 600.006,386.943 579.672,395.276 559.5,404C 550.218,407.205 540.884,410.205 531.5,413C 520.562,415.65 509.896,414.983 499.5,411C 492.928,407.199 492.928,403.199 499.5,399C 512.901,390.632 526.901,383.299 541.5,377C 614.129,345.4 689.129,321.567 766.5,305.5 Z"/></g>
<g><path style="opacity:1" fill="#f2f2f2" d="M 1172.5,304.5 C 1316.83,310.282 1461.16,316.115 1605.5,322C 1903.83,323.961 2202.16,325.294 2500.5,326C 2505.94,333.984 2508.77,342.817 2509,352.5C 2511.76,383.812 2512.09,415.145 2510,446.5C 2509.19,451.81 2506.03,453.976 2500.5,453C 2478.38,454.173 2456.38,453.173 2434.5,450C 2433.69,449.692 2433.03,449.192 2432.5,448.5C 2434.89,444.354 2435.56,440.021 2434.5,435.5C 2429.55,434.717 2424.55,434.217 2419.5,434C 2417.5,433 2415.5,432 2413.5,431C 2404.85,424.347 2396.85,417.014 2389.5,409C 2376.25,404.399 2362.59,402.066 2348.5,402C 2301.19,400.141 2253.85,399.141 2206.5,399C 1864.49,397.21 1522.49,394.71 1180.5,391.5C 1183.19,362.724 1179.85,334.724 1170.5,307.5C 1170.94,306.261 1171.61,305.261 1172.5,304.5 Z"/></g>
<g><path style="opacity:1" fill="#d9d9d9" d="M 833.5,317.5 C 838.11,317.12 840.776,319.12 841.5,323.5C 837.411,323.412 834.744,321.412 833.5,317.5 Z"/></g>
<g><path style="opacity:1" fill="#e9e9e9" d="M 948.5,327.5 C 950.61,328.453 951.777,330.119 952,332.5C 953.445,342.615 955.445,352.615 958,362.5C 964.051,376.217 974.218,385.384 988.5,390C 993.784,391.547 999.118,392.88 1004.5,394C 1022.53,395.425 1040.53,397.092 1058.5,399C 1054.5,399.333 1050.5,399.667 1046.5,400C 1044.5,401.333 1042.5,402.667 1040.5,404C 1021.29,405.509 1002.29,404.176 983.5,400C 962.927,396.76 951.093,384.927 948,364.5C 946.717,356.887 945.884,349.221 945.5,341.5C 945.246,336.52 946.246,331.853 948.5,327.5 Z"/></g>
<g><path style="opacity:1" fill="#f1f1f1" d="M 760.5,360.5 C 770.912,360.074 781.246,360.574 791.5,362C 797.928,366.423 803.761,371.59 809,377.5C 809.49,378.793 809.657,380.127 809.5,381.5C 748.457,382.594 691.124,397.761 637.5,427C 614.151,439.366 592.151,453.699 571.5,470C 552.867,486.297 534.534,502.964 516.5,520C 506,528.5 495.5,537 485,545.5C 483,548.167 483,550.833 485,553.5C 491.961,557.71 499.461,560.543 507.5,562C 524.208,564.785 540.875,567.785 557.5,571C 558.308,571.308 558.975,571.808 559.5,572.5C 532.131,594.942 504.631,617.276 477,639.5C 475,642.167 475,644.833 477,647.5C 480.186,649.617 483.686,650.95 487.5,651.5C 443.187,689.887 404.687,733.22 372,781.5C 360.691,798.453 352.358,816.786 347,836.5C 344.784,852.607 345.45,868.607 349,884.5C 354.131,902.227 359.464,919.893 365,937.5C 369.18,952.063 371.68,966.896 372.5,982C 372.702,986.986 372.035,991.819 370.5,996.5C 368.048,997.314 365.715,996.814 363.5,995C 344.981,979.813 328.481,962.647 314,943.5C 300.777,923.834 293.111,902.167 291,878.5C 288.375,844.913 292.709,812.247 304,780.5C 327.523,715.758 363.856,659.425 413,611.5C 419.153,603.859 423.153,595.192 425,585.5C 425.97,572.867 420.137,568.033 407.5,571C 403.131,572.267 399.297,574.433 396,577.5C 380.109,601.39 363.443,624.723 346,647.5C 312.713,689.789 279.046,731.789 245,773.5C 234.333,788.167 223.667,802.833 213,817.5C 197.84,837.649 179.673,854.482 158.5,868C 131.446,884.369 102.779,888.035 72.5,879C 70.9194,878.293 69.4194,877.46 68,876.5C 67.3333,875.5 67.3333,874.5 68,873.5C 81.3185,851.181 99.4852,834.014 122.5,822C 131.116,814.39 138.616,805.89 145,796.5C 195.774,715.733 250.441,637.733 309,562.5C 343.464,519.036 382.297,479.87 425.5,445C 442.652,432.588 460.319,420.921 478.5,410C 479.833,409.333 481.167,409.333 482.5,410C 491.184,414.511 500.184,418.177 509.5,421C 526.119,422.21 542.119,419.544 557.5,413C 585.064,400.052 613.398,389.052 642.5,380C 659.948,375.31 677.615,371.644 695.5,369C 717.326,366.216 738.993,363.383 760.5,360.5 Z"/></g>
<g><path style="opacity:1" fill="#e7e7e7" d="M 922.5,375.5 C 929.167,375.5 935.833,375.5 942.5,375.5C 942.67,376.822 942.337,377.989 941.5,379C 937.479,378.952 933.813,379.952 930.5,382C 927.459,385.912 924.792,390.079 922.5,394.5C 918.726,392.229 915.393,389.396 912.5,386C 908.124,383.597 903.457,382.097 898.5,381.5C 899.912,380.194 901.579,379.36 903.5,379C 909.962,377.773 916.295,376.606 922.5,375.5 Z"/></g>
<g><path style="opacity:1" fill="#eaeaea" d="M 816.5,373.5 C 826.432,378.932 834.266,386.598 840,396.5C 844.066,410.394 839.066,418.394 825,420.5C 797.938,412.753 771.438,414.253 745.5,425C 737.877,428.727 731.044,433.561 725,439.5C 722.707,444.282 719.541,447.616 715.5,449.5C 723.006,430.494 736.339,417.328 755.5,410C 767.716,404.955 780.382,403.289 793.5,405C 799.063,406.974 804.73,408.474 810.5,409.5C 820.478,408.683 825.478,403.183 825.5,393C 825.406,389.643 824.573,386.477 823,383.5C 820.978,379.997 818.811,376.663 816.5,373.5 Z"/></g>
<g><path style="opacity:1" fill="#e9e9e9" d="M 1026.5,379.5 C 1032.5,378.756 1037.66,380.422 1042,384.5C 1042.67,385.833 1042.67,387.167 1042,388.5C 1036.14,389.932 1030.3,389.765 1024.5,388C 1023.43,387.261 1022.76,386.261 1022.5,385C 1023.65,383.019 1024.98,381.186 1026.5,379.5 Z"/></g>
<g><path style="opacity:1" fill="#f2f2f2" d="M 939.5,386.5 C 943.105,386.799 946.439,387.965 949.5,390C 956.628,397.567 965.295,402.567 975.5,405C 995.912,409.708 1016.58,412.708 1037.5,414C 1058.82,423.491 1080.49,432.158 1102.5,440C 1113.44,443.322 1124.61,445.489 1136,446.5C 1143.74,445.684 1151.24,444.184 1158.5,442C 1165.87,458.198 1178.54,466.698 1196.5,467.5C 1201.05,467.701 1205.38,466.867 1209.5,465C 1217.17,464.333 1224.83,464.333 1232.5,465C 1251.89,467.673 1271.22,470.673 1290.5,474C 1307.36,475.71 1320.86,483.21 1331,496.5C 1341.98,517.697 1335.48,528.863 1311.5,530C 1257.9,533.883 1204.23,535.216 1150.5,534C 1148.62,533.784 1146.95,533.117 1145.5,532C 1158.31,518.691 1158.81,504.858 1147,490.5C 1135.3,480.133 1122.8,478.967 1109.5,487C 1095.7,503.041 1096.36,518.541 1111.5,533.5C 1053.51,535.095 995.511,536.262 937.5,537C 913.101,537.317 888.767,538.317 864.5,540C 897.666,507.189 913.166,467.356 911,420.5C 909.669,410.843 907.169,401.51 903.5,392.5C 903.833,391.833 904.167,391.167 904.5,390.5C 905.7,391.531 907.034,392.365 908.5,393C 913.727,398.638 919.061,404.138 924.5,409.5C 926.722,404.055 929.222,398.722 932,393.5C 933.742,390.254 936.242,387.921 939.5,386.5 Z"/></g>
<g><path style="opacity:1" fill="#dcdcdc" d="M 1129.5,393.5 C 1132.19,393.336 1134.85,393.503 1137.5,394C 1140,394.412 1142,395.578 1143.5,397.5C 1142.97,398.192 1142.31,398.692 1141.5,399C 1134.75,399.877 1128.08,399.544 1121.5,398C 1124.1,396.205 1126.77,394.705 1129.5,393.5 Z"/></g>
<g><path style="opacity:1" fill="#ececec" d="M 1105.5,395.5 C 1106.59,395.62 1107.25,396.287 1107.5,397.5C 1106.57,399.606 1105.4,401.606 1104,403.5C 1103.33,407.167 1103.33,410.833 1104,414.5C 1105.57,419.961 1107.4,425.294 1109.5,430.5C 1097.65,426.247 1085.99,421.414 1074.5,416C 1066.6,413.025 1058.6,410.358 1050.5,408C 1057.5,407.667 1064.5,407.333 1071.5,407C 1073.61,406.64 1075.61,405.973 1077.5,405C 1079.21,402.957 1081.21,401.29 1083.5,400C 1089.22,399.718 1094.88,399.052 1100.5,398C 1102.49,397.626 1104.16,396.793 1105.5,395.5 Z"/></g>
<g><path style="opacity:1" fill="#d9d9d9" d="M 803.5,398.5 C 806.64,397.359 809.973,397.192 813.5,398C 816.019,400.442 815.352,401.942 811.5,402.5C 808.533,401.683 805.866,400.35 803.5,398.5 Z"/></g>
<g><path style="opacity:1" fill="#f2f2f2" d="M 1194.5,399.5 C 1539.49,402.68 1884.49,405.18 2229.5,407C 2273.53,407.397 2317.53,408.731 2361.5,411C 2369.37,411.774 2377.03,413.441 2384.5,416C 2393.21,423.712 2402.21,431.045 2411.5,438C 2415.85,440.538 2420.52,442.204 2425.5,443C 2426.12,444.569 2426.46,446.236 2426.5,448C 2422.46,466.052 2412.8,480.385 2397.5,491C 2387.96,496.27 2378.29,501.27 2368.5,506C 2182.47,510.382 1996.47,515.716 1810.5,522C 1772.8,523.026 1735.14,524.692 1697.5,527C 1684.2,528.28 1671.2,530.947 1658.5,535C 1638.5,544.333 1618.5,553.667 1598.5,563C 1508.8,563.598 1419.14,562.265 1329.5,559C 1327.29,558.83 1325.29,558.163 1323.5,557C 1332.86,554.657 1341.86,551.323 1350.5,547C 1359.32,540.865 1364.16,532.365 1365,521.5C 1365.65,510.807 1365.32,500.14 1364,489.5C 1362.35,477.353 1356.52,467.853 1346.5,461C 1339.16,457.162 1331.49,454.162 1323.5,452C 1290.34,444.806 1257,438.472 1223.5,433C 1215.32,431.274 1207.32,428.941 1199.5,426C 1190.55,421.55 1184.22,414.717 1180.5,405.5C 1180.59,403.575 1181.59,402.408 1183.5,402C 1187.28,401.082 1190.95,400.249 1194.5,399.5 Z"/></g>
<g><path style="opacity:1" fill="#ececec" d="M 723.5,400.5 C 725.527,400.338 727.527,400.505 729.5,401C 712.695,407.403 696.695,415.403 681.5,425C 641.5,452 601.5,479 561.5,506C 550.091,513.067 538.424,519.733 526.5,526C 525.167,526.667 523.833,526.667 522.5,526C 528.468,519.031 534.801,512.364 541.5,506C 560.286,488.207 579.953,471.541 600.5,456C 639.136,432.011 680.136,413.511 723.5,400.5 Z"/></g>
<g><path style="opacity:1" fill="#dddddd" d="M 1130.5,406.5 C 1136.18,406.334 1141.84,406.501 1147.5,407C 1149.78,407.233 1151.78,408.066 1153.5,409.5C 1153.02,410.478 1152.36,411.311 1151.5,412C 1138.95,414.546 1126.29,415.546 1113.5,415C 1110.08,413.857 1109.75,412.19 1112.5,410C 1118.57,408.503 1124.57,407.336 1130.5,406.5 Z"/></g>
<g><path style="opacity:1" fill="#f1f1f1" d="M 734.5,407.5 C 735.552,407.351 736.552,407.517 737.5,408C 714.873,425.425 703.539,448.591 703.5,477.5C 704.033,504.457 713.7,527.457 732.5,546.5C 699.639,550.893 666.639,552.393 633.5,551C 606.092,550.02 578.759,548.02 551.5,545C 542.397,543.872 533.397,542.205 524.5,540C 521.294,539.375 520.294,537.709 521.5,535C 527.499,533.501 533.166,531.168 538.5,528C 551.833,520 565.167,512 578.5,504C 614.56,478.942 650.893,454.275 687.5,430C 702.348,420.669 718.015,413.169 734.5,407.5 Z"/></g>
<g><path style="opacity:1" fill="#e6e6e6" d="M 1170.5,418.5 C 1171.12,418.611 1171.62,418.944 1172,419.5C 1172.85,427.677 1174.52,435.677 1177,443.5C 1182.65,452.434 1190.48,454.934 1200.5,451C 1206.1,447.397 1210.27,442.563 1213,436.5C 1215.79,455.707 1207.62,463.207 1188.5,459C 1167.44,452.366 1161.44,438.866 1170.5,418.5 Z"/></g>
<g><path style="opacity:1" fill="#e5e5e5" d="M 1121.5,422.5 C 1129.34,422.036 1137.01,422.536 1144.5,424C 1137.99,429.168 1130.99,429.834 1123.5,426C 1122.18,425.184 1121.51,424.017 1121.5,422.5 Z"/></g>
<g><path style="opacity:1" fill="#e9e9e9" d="M 1180.5,422.5 C 1184.62,425.068 1188.62,427.902 1192.5,431C 1195.56,433.035 1198.89,434.201 1202.5,434.5C 1200.64,444.764 1194.97,447.597 1185.5,443C 1180.93,436.968 1179.27,430.134 1180.5,422.5 Z"/></g>
<g><path style="opacity:1" fill="#e7e7e7" d="M 772.5,431.5 C 779.508,431.334 786.508,431.5 793.5,432C 800.983,433.661 807.15,437.494 812,443.5C 819.597,453.627 823.597,464.96 824,477.5C 821.283,480.321 818.95,479.987 817,476.5C 816,469.833 815,463.167 814,456.5C 809.258,446.781 801.425,441.281 790.5,440C 781.269,439.249 772.102,439.749 763,441.5C 757.514,441.643 757.014,440.143 761.5,437C 765.259,435.121 768.925,433.287 772.5,431.5 Z"/></g>
<g><path style="opacity:1" fill="#ededed" d="M 1219.5,441.5 C 1251.33,445.583 1283,450.75 1314.5,457C 1326.6,459.219 1337.6,463.885 1347.5,471C 1351.8,476.093 1354.63,481.926 1356,488.5C 1357.53,500.457 1357.87,512.457 1357,524.5C 1353.76,536.074 1346.26,543.241 1334.5,546C 1322.24,548.988 1309.91,551.654 1297.5,554C 1138.45,556.249 979.45,558.916 820.5,562C 844.028,550.131 869.028,544.797 895.5,546C 1005.5,544.348 1115.5,542.681 1225.5,541C 1253.53,540.332 1281.53,538.998 1309.5,537C 1341.41,535.344 1350.25,520.177 1336,491.5C 1328.6,481.085 1318.76,474.251 1306.5,471C 1278.27,464.921 1249.94,459.421 1221.5,454.5C 1219.93,450.313 1219.27,445.98 1219.5,441.5 Z"/></g>
<g><path style="opacity:1" fill="#eaeaea" d="M 779.5,444.5 C 794.378,444.429 804.045,451.429 808.5,465.5C 806.143,465.663 803.81,465.497 801.5,465C 794.011,461.759 787.011,457.759 780.5,453C 778.773,451.611 777.439,449.944 776.5,448C 777.071,446.401 778.071,445.234 779.5,444.5 Z"/></g>
<g><path style="opacity:1" fill="#eaeaea" d="M 757.5,450.5 C 762.454,451.473 767.121,453.306 771.5,456C 783.335,463.083 795.002,470.417 806.5,478C 808.333,479.833 810.167,481.667 812,483.5C 812.659,486.353 811.492,488.02 808.5,488.5C 791.747,481.627 776.414,472.46 762.5,461C 760.291,459.127 758.458,456.96 757,454.5C 756.421,453.072 756.588,451.738 757.5,450.5 Z"/></g>
<g><path style="opacity:1" fill="#e6e6e6" d="M 747.5,460.5 C 749.411,460.574 750.578,461.574 751,463.5C 751.955,481.427 760.788,493.26 777.5,499C 786.211,500.365 794.544,499.199 802.5,495.5C 805.354,495.549 806.521,496.882 806,499.5C 791.075,510.297 776.242,510.13 761.5,499C 753.994,493.476 748.827,486.309 746,477.5C 744.99,471.62 745.49,465.954 747.5,460.5 Z"/></g>
<g><path style="opacity:1" fill="#e9e9e9" d="M 760.5,472.5 C 773.277,475.892 784.277,482.392 793.5,492C 780.493,494.11 769.993,489.943 762,479.5C 760.798,477.323 760.298,474.989 760.5,472.5 Z"/></g>
<g><path style="opacity:1" fill="#e5e5e5" d="M 1117.5,490.5 C 1118.87,490.343 1120.21,490.51 1121.5,491C 1127.64,500.768 1133.14,510.934 1138,521.5C 1138.08,527.255 1136.08,527.922 1132,523.5C 1125.97,514.771 1120.97,505.438 1117,495.5C 1116.36,493.735 1116.53,492.068 1117.5,490.5 Z"/></g>
<g><path style="opacity:1" fill="#e2e2e2" d="M 1133.5,492.5 C 1141.47,497.777 1145.14,505.11 1144.5,514.5C 1139.25,508.005 1135.59,500.671 1133.5,492.5 Z"/></g>
<g><path style="opacity:1" fill="#e4e4e4" d="M 1110.5,505.5 C 1112.37,505.859 1113.87,506.859 1115,508.5C 1118.35,514.188 1120.85,520.188 1122.5,526.5C 1113.65,522.497 1109.65,515.497 1110.5,505.5 Z"/></g>
<g><path style="opacity:1" fill="#eeeeee" d="M 2390.5,507.5 C 2403.91,507.056 2417.24,507.556 2430.5,509C 2435.46,512.999 2435.8,517.499 2431.5,522.5C 2429.88,523.154 2428.22,523.654 2426.5,524C 2344.59,529.602 2262.59,532.935 2180.5,534C 2179.11,532.829 2178.27,531.329 2178,529.5C 2177.5,525.848 2177.33,522.182 2177.5,518.5C 2238.17,516.795 2298.83,514.962 2359.5,513C 2369.89,510.713 2380.23,508.88 2390.5,507.5 Z"/></g>
<g><path style="opacity:1" fill="#eaeaea" d="M 2163.5,517.5 C 2165.14,517.286 2166.64,517.62 2168,518.5C 2170.3,526.02 2170.97,533.686 2170,541.5C 2165.04,545.715 2160.38,545.381 2156,540.5C 2152.73,534.139 2152.73,527.806 2156,521.5C 2158.26,519.501 2160.76,518.168 2163.5,517.5 Z"/></g>
<g><path style="opacity:1" fill="#eeeeee" d="M 2068.5,520.5 C 2094.5,520.5 2120.5,520.5 2146.5,520.5C 2146.5,526.167 2146.5,531.833 2146.5,537.5C 2108.18,539.56 2069.85,541.227 2031.5,542.5C 2031.5,535.833 2031.5,529.167 2031.5,522.5C 2043.99,521.987 2056.33,521.32 2068.5,520.5 Z"/></g>
<g><path style="opacity:1" fill="#eeeeee" d="M 2013.5,522.5 C 2016.58,522.26 2019.58,522.593 2022.5,523.5C 2023.66,531.145 2023.83,538.812 2023,546.5C 2021.01,551.708 2017.51,552.874 2012.5,550C 2010.68,548.2 2009.52,546.034 2009,543.5C 2007.29,535.678 2008.79,528.678 2013.5,522.5 Z"/></g>
<g><path style="opacity:1" fill="#ececec" d="M 1837.5,547.5 C 1833.83,547.5 1830.17,547.5 1826.5,547.5C 1826.5,543.5 1826.5,539.5 1826.5,535.5C 1826.18,533.278 1826.84,531.444 1828.5,530C 1886.11,526.485 1943.78,524.652 2001.5,524.5C 2001.5,530.167 2001.5,535.833 2001.5,541.5C 1946.83,543.436 1892.16,545.436 1837.5,547.5 Z"/></g>
<g><path style="opacity:1" fill="#676767" d="M 1790.5,530.5 C 1799.99,529.506 1809.65,529.173 1819.5,529.5C 1819.82,534.032 1819.48,538.366 1818.5,542.5C 1818.5,538.5 1818.5,534.5 1818.5,530.5C 1809.17,530.5 1799.83,530.5 1790.5,530.5 Z"/></g>
<g><path style="opacity:1" fill="#efefef" d="M 1790.5,530.5 C 1799.83,530.5 1809.17,530.5 1818.5,530.5C 1818.5,534.5 1818.5,538.5 1818.5,542.5C 1818.36,545.617 1817.02,548.117 1814.5,550C 1809.03,552.08 1803.36,553.413 1797.5,554C 1740.55,557.552 1683.55,559.218 1626.5,559C 1642.42,549.707 1659.09,542.041 1676.5,536C 1714.43,532.892 1752.43,531.058 1790.5,530.5 Z"/></g>
<g><path style="opacity:1" fill="#ebebeb" d="M 498.5,543.5 C 519.865,546.338 541.198,549.505 562.5,553C 616.069,560.857 669.736,561.524 723.5,555C 730.167,554.333 736.833,554.333 743.5,555C 753.293,559.23 763.293,562.896 773.5,566C 751.905,568.509 730.238,570.175 708.5,571C 660.901,573.551 613.568,571.217 566.5,564C 543.44,560.706 520.44,557.039 497.5,553C 495.349,552.735 493.682,551.735 492.5,550C 493.835,547.177 495.835,545.011 498.5,543.5 Z"/></g>
<g><path style="opacity:1" fill="#424242" d="M 1826.5,535.5 C 1826.5,539.5 1826.5,543.5 1826.5,547.5C 1830.17,547.5 1833.83,547.5 1837.5,547.5C 1833.7,548.483 1829.7,548.817 1825.5,548.5C 1825.18,543.968 1825.52,539.634 1826.5,535.5 Z"/></g>
<g><path style="opacity:1" fill="#eaeaea" d="M 990.5,564.5 C 1057.18,564.118 1123.84,564.618 1190.5,566C 1196.78,566.123 1202.94,566.956 1209,568.5C 1210.36,570.603 1209.53,572.103 1206.5,573C 1180.51,572.579 1154.51,572.579 1128.5,573C 1118.59,572.63 1110.26,575.964 1103.5,583C 1101.8,583.958 1099.97,584.458 1098,584.5C 1078.76,579.766 1059.26,576.599 1039.5,575C 1012.52,573.536 985.523,572.702 958.5,572.5C 872.389,573.449 786.389,576.949 700.5,583C 649.632,586.773 600.298,597.44 552.5,615C 534.052,622.391 515.718,630.057 497.5,638C 493.159,639.691 488.826,641.024 484.5,642C 512.88,619.285 541.547,596.951 570.5,575C 577.5,574.333 584.5,574.333 591.5,575C 624.708,579.22 658.041,580.554 691.5,579C 740.496,576 789.496,573 838.5,570C 889.322,568.059 939.989,566.225 990.5,564.5 Z"/></g>
<g><path style="opacity:1" fill="#f2f2f2" d="M 406.5,578.5 C 411.952,578.144 415.785,580.477 418,585.5C 418.569,592.037 416.569,597.703 412,602.5C 394.874,617.956 379.54,634.956 366,653.5C 343.23,685.35 323.23,719.017 306,754.5C 287.978,794.574 279.978,836.574 282,880.5C 285.735,907.726 296.069,932.059 313,953.5C 326.567,970.071 341.233,985.738 357,1000.5C 359.164,1002.81 360.164,1005.48 360,1008.5C 335.099,1029.36 307.599,1046.2 277.5,1059C 220.298,1080.11 166.631,1073.45 116.5,1039C 93.9526,1020.09 79.1192,996.255 72,967.5C 65.0292,940.215 61.8626,912.548 62.5,884.5C 108.954,898.051 150.287,888.885 186.5,857C 197.732,846.437 208.232,835.27 218,823.5C 230.089,806.323 242.422,789.323 255,772.5C 299.112,719.591 341.779,665.591 383,610.5C 389,601.167 395,591.833 401,582.5C 403.015,581.303 404.849,579.97 406.5,578.5 Z"/></g>
<g><path style="opacity:1" fill="#eaeaea" d="M 842.5,583.5 C 852.866,579.499 859.699,582.833 863,593.5C 867.033,627.376 859.699,658.709 841,687.5C 831.963,699.942 820.463,709.442 806.5,716C 769.922,732.418 731.589,739.084 691.5,736C 672.046,731.938 654.712,723.605 639.5,711C 627.462,700.64 617.295,688.806 609,675.5C 595.797,654.188 595.13,632.521 607,610.5C 612.122,604.015 618.622,601.015 626.5,601.5C 607.69,626.215 606.523,651.882 623,678.5C 648.84,715.669 684.34,732.169 729.5,728C 759.691,726.124 787.691,717.457 813.5,702C 845.277,675.333 858.111,641.499 852,600.5C 849.313,594.448 846.146,588.781 842.5,583.5 Z"/></g>
<g><path style="opacity:1" fill="#949494" d="M 727.5,588.5 C 736.675,587.178 746.008,587.178 755.5,588.5C 755.376,589.107 755.043,589.44 754.5,589.5C 745.682,588.507 736.682,588.173 727.5,588.5 Z"/></g>
<g><path style="opacity:1" fill="#ececec" d="M 727.5,588.5 C 736.682,588.173 745.682,588.507 754.5,589.5C 749.548,596.291 744.382,602.958 739,609.5C 734.951,615.981 732.284,622.981 731,630.5C 730.054,651.838 729.054,673.171 728,694.5C 726.935,703.465 723.101,710.965 716.5,717C 715.056,717.781 713.723,717.614 712.5,716.5C 711.109,714.38 710.442,712.047 710.5,709.5C 711.827,702.525 712.994,695.525 714,688.5C 715.832,657.86 716.666,627.193 716.5,596.5C 710.141,594.826 703.807,592.993 697.5,591C 697.833,590.667 698.167,590.333 698.5,590C 708.137,588.909 717.804,588.409 727.5,588.5 Z"/></g>
<g><path style="opacity:0.031" fill="#a2a2a2" d="M 591.5,618.5 C 592.209,617.596 593.209,617.263 594.5,617.5C 594.768,619.099 594.434,620.432 593.5,621.5C 593.715,619.821 593.048,618.821 591.5,618.5 Z"/></g>
</svg>
