<?xml version="1.0" encoding="UTF-8"?>
<!DOCTYPE svg PUBLIC "-//W3C//DTD SVG 1.1//EN" "http://www.w3.org/Graphics/SVG/1.1/DTD/svg11.dtd">
<svg xmlns="http://www.w3.org/2000/svg" version="1.1" width="993px" height="1488px" style="shape-rendering:geometricPrecision; text-rendering:geometricPrecision; image-rendering:optimizeQuality; fill-rule:evenodd; clip-rule:evenodd" xmlns:xlink="http://www.w3.org/1999/xlink">
<g><path style="opacity:0.968" fill="#020202" d="M 499.5,2.5 C 505.247,2.73897 508.747,5.73897 510,11.5C 511.439,24.3265 513.773,36.9931 517,49.5C 526.94,83.6523 538.273,117.319 551,150.5C 554.228,158.059 557.894,165.392 562,172.5C 563.317,180.785 565.65,188.785 569,196.5C 574.97,208.94 580.803,221.44 586.5,234C 578.68,243.155 570.847,252.322 563,261.5C 551.245,280.078 542.578,300.078 537,321.5C 530.131,342.345 525.631,363.678 523.5,385.5C 523.3,389.362 523.966,393.029 525.5,396.5C 539.711,393.861 548.878,399.528 553,413.5C 555.709,425.538 554.042,436.871 548,447.5C 547.613,451.165 549.113,453.998 552.5,456C 556.998,459.253 561.998,460.753 567.5,460.5C 575.859,460.635 583.859,459.135 591.5,456C 637.082,453.964 672.582,434.131 698,396.5C 715.297,372.645 721.964,345.978 718,316.5C 715.751,292.171 709.751,268.838 700,246.5C 697.458,243.383 694.458,240.717 691,238.5C 688.779,232.39 685.779,226.723 682,221.5C 674.402,211.899 666.069,202.899 657,194.5C 655.481,189.655 656.147,184.989 659,180.5C 695.415,178.427 730.915,183.927 765.5,197C 851.357,231.188 913.523,290.355 952,374.5C 973.388,421.865 982.055,471.531 978,523.5C 977.002,570.495 965.002,614.495 942,655.5C 880.051,762.863 786.717,820.863 662,829.5C 657.455,829.397 652.955,828.897 648.5,828C 644.555,826.892 642.221,824.392 641.5,820.5C 642.183,816.801 643.683,813.468 646,810.5C 670.339,785.83 686.339,756.497 694,722.5C 696.621,693.305 695.288,664.305 690,635.5C 683.068,612.902 670.235,594.402 651.5,580C 623.251,558.084 591.251,547.917 555.5,549.5C 554.976,558.897 553.809,568.231 552,577.5C 547.883,584.615 544.216,591.948 541,599.5C 539.816,608.625 538.983,617.792 538.5,627C 544.394,770.86 550.894,914.693 558,1058.5C 563.943,1147.33 579.11,1234.49 603.5,1320C 603.507,1323.26 603.007,1326.42 602,1329.5C 594.311,1340.21 587.645,1351.54 582,1363.5C 562.333,1392.17 542.667,1420.83 523,1449.5C 517.225,1458.05 512.225,1467.05 508,1476.5C 506.207,1479.3 504.04,1481.8 501.5,1484C 499.167,1484.67 496.833,1484.67 494.5,1484C 490.908,1481.08 488.075,1477.58 486,1473.5C 466.542,1433.25 445.542,1393.91 423,1355.5C 417.439,1346.05 413.272,1336.05 410.5,1325.5C 418.54,1302.01 424.707,1278.01 429,1253.5C 435.686,1212.71 443.02,1172.05 451,1131.5C 452.586,1121.22 453.586,1110.89 454,1100.5C 455.412,944.493 457.079,788.493 459,632.5C 458.749,621.472 458.082,610.472 457,599.5C 456.587,596.768 455.92,594.101 455,591.5C 451.252,586.002 448.585,580.002 447,573.5C 445.666,566.152 444.332,558.819 443,551.5C 442.097,550.299 440.931,549.465 439.5,549C 392.122,547.612 352.622,564.446 321,599.5C 307.568,616.786 300.234,636.453 299,658.5C 296.735,682.547 297.068,706.547 300,730.5C 308.924,760.697 324.257,787.03 346,809.5C 348.515,812.842 350.348,816.509 351.5,820.5C 351.144,823.688 349.477,825.855 346.5,827C 258.916,828.698 182.583,800.364 117.5,742C 25.6837,652.508 -5.48293,545.008 24,419.5C 53.964,321.21 115.131,249.71 207.5,205C 249.549,185.883 293.549,177.549 339.5,180C 341.286,180.196 342.619,181.029 343.5,182.5C 341.164,187.175 338.331,191.508 335,195.5C 325.931,203.899 317.598,212.899 310,222.5C 306.243,227.772 303.243,233.439 301,239.5C 298.427,240.806 296.094,242.473 294,244.5C 275.326,283.877 270.326,324.877 279,367.5C 300.66,418.487 338.826,448.654 393.5,458C 410.778,459.881 428.111,460.714 445.5,460.5C 444.647,446.542 446.147,432.875 450,419.5C 454.517,406.804 463.351,399.471 476.5,397.5C 477.572,395.283 478.239,392.95 478.5,390.5C 472.311,349.766 459.811,311.099 441,274.5C 435.493,265.485 429.493,256.818 423,248.5C 417.546,241.012 417.212,233.345 422,225.5C 429.496,217.186 435.496,207.853 440,197.5C 468.381,134.942 488.215,69.9417 499.5,2.5 Z"/></g>
<g><path style="opacity:1" fill="#efefef" d="M 503.5,54.5 C 504.458,54.9528 505.292,55.6195 506,56.5C 515.023,86.5933 524.357,116.593 534,146.5C 546.523,174.234 556.356,202.901 563.5,232.5C 561.255,246.661 555.088,258.661 545,268.5C 530.496,298.186 518.663,328.852 509.5,360.5C 509.167,360.167 508.833,359.833 508.5,359.5C 507.726,355.221 507.226,350.887 507,346.5C 506.876,284.825 506.209,223.158 505,161.5C 504.801,154.742 503.968,148.075 502.5,141.5C 501.808,142.025 501.308,142.692 501,143.5C 499.522,157.794 498.689,172.127 498.5,186.5C 497.785,224.163 497.285,261.83 497,299.5C 496.848,321.196 496.015,342.863 494.5,364.5C 492.888,372.803 496.221,377.303 504.5,378C 508.788,382.865 508.288,387.031 503,390.5C 500.679,390.091 498.513,389.257 496.5,388C 493.707,384.919 491.54,381.419 490,377.5C 483.333,344.167 472.667,312.167 458,281.5C 450.833,267.167 443.667,252.833 436.5,238.5C 450.764,203.54 464.931,168.54 479,133.5C 486.11,112.06 492.443,90.3933 498,68.5C 499.361,63.573 501.194,58.9064 503.5,54.5 Z"/></g>
<g><path style="opacity:1" fill="#f0f0f0" d="M 295.5,195.5 C 300.5,195.5 305.5,195.5 310.5,195.5C 310.453,198.928 309.287,201.928 307,204.5C 270.529,246.674 255.195,295.674 261,351.5C 263.307,368.089 268.974,383.423 278,397.5C 288.547,416.054 302.047,432.221 318.5,446C 353.635,464.194 390.968,474.361 430.5,476.5C 431.277,493.822 431.611,511.155 431.5,528.5C 428.358,528.201 426.191,526.534 425,523.5C 422.043,513.403 420.71,503.07 421,492.5C 419.35,487.514 417.016,487.181 414,491.5C 413.333,492.833 412.667,494.167 412,495.5C 411.155,506.401 411.655,517.235 413.5,528C 414.694,533.646 412.694,535.479 407.5,533.5C 404.285,529.37 402.118,524.703 401,519.5C 400.459,511.628 398.959,503.961 396.5,496.5C 395.914,496.709 395.414,497.043 395,497.5C 390.657,509.748 390.49,522.081 394.5,534.5C 393.688,540.331 391.188,540.998 387,536.5C 383.083,529.009 381.083,521.009 381,512.5C 379.932,507.95 378.098,503.783 375.5,500C 374.833,499.333 374.167,499.333 373.5,500C 372.854,503.081 372.521,506.248 372.5,509.5C 373.112,517.338 373.779,525.172 374.5,533C 375.671,540.163 373.338,545.829 367.5,550C 350.457,559.518 334.457,570.518 319.5,583C 301.986,599.856 291.153,620.356 287,644.5C 277.481,686.349 281.148,727.016 298,766.5C 305.029,781.504 312.863,796.004 321.5,810C 312.865,811.312 304.199,811.645 295.5,811C 270.476,805.244 245.809,798.244 221.5,790C 212.554,786.194 203.888,781.861 195.5,777C 189.656,774.706 183.656,773.039 177.5,772C 176.214,768.847 174.214,766.181 171.5,764C 117.241,730.071 77.7406,683.571 53,624.5C 3.57569,488.715 30.7424,370.881 134.5,271C 169.1,241.359 208.434,220.026 252.5,207C 266.837,202.668 281.17,198.835 295.5,195.5 Z"/></g>
<g><path style="opacity:1" fill="#f0f0f0" d="M 683.5,195.5 C 810.453,212.644 898.286,280.31 947,398.5C 977.007,488.786 969.34,575.786 924,659.5C 901.536,695.971 873.37,727.471 839.5,754C 833.998,757.585 828.331,760.919 822.5,764C 819.786,766.181 817.786,768.847 816.5,772C 812.916,773.073 809.25,773.74 805.5,774C 795.014,778.744 784.68,783.744 774.5,789C 749.298,797.973 723.632,805.307 697.5,811C 689.103,811.87 680.77,811.537 672.5,810C 687.481,786.868 698.815,762.035 706.5,735.5C 716.236,695.388 713.736,656.054 699,617.5C 689.012,597.018 674.512,580.518 655.5,568C 646.001,561.749 636.334,555.749 626.5,550C 620.555,545.674 618.221,539.84 619.5,532.5C 620.112,524.662 620.779,516.828 621.5,509C 621.478,505.914 621.145,502.914 620.5,500C 619.833,499.333 619.167,499.333 618.5,500C 613.627,508.085 611.127,516.918 611,526.5C 610.011,531.312 607.844,535.479 604.5,539C 600.518,540.187 598.851,538.687 599.5,534.5C 601.819,523.169 601.986,511.836 600,500.5C 599.417,498.998 598.584,497.665 597.5,496.5C 597.167,497.167 596.833,497.833 596.5,498.5C 594.756,506.775 593.256,515.109 592,523.5C 590.959,527.759 588.792,531.259 585.5,534C 584.167,534.667 582.833,534.667 581.5,534C 580.863,531.757 580.53,529.424 580.5,527C 582.201,516.89 582.701,506.724 582,496.5C 581.44,492.698 579.44,490.032 576,488.5C 574.523,489.444 573.523,490.777 573,492.5C 573.29,503.07 571.957,513.403 569,523.5C 567.809,526.534 565.642,528.201 562.5,528.5C 562.367,511.154 562.7,493.821 563.5,476.5C 604.78,474.126 643.447,462.959 679.5,443C 699.302,424.202 714.802,402.368 726,377.5C 740.239,328.068 734.906,280.735 710,235.5C 701.245,222.989 692.245,210.656 683,198.5C 682.53,197.423 682.697,196.423 683.5,195.5 Z"/></g>
<g><path style="opacity:1" fill="#0b0b0b" d="M 120.5,308.5 C 121.5,308.5 122.5,308.5 123.5,308.5C 123.453,311.928 122.287,314.928 120,317.5C 117.167,320.333 114.333,323.167 111.5,326C 109.975,327.009 108.308,327.509 106.5,327.5C 107.15,323.86 108.65,320.527 111,317.5C 114.062,314.268 117.229,311.268 120.5,308.5 Z"/></g>
<g><path style="opacity:1" fill="#0e0e0e" d="M 870.5,308.5 C 879.342,312.008 885.009,318.342 887.5,327.5C 885.692,327.509 884.025,327.009 882.5,326C 879,323.167 875.833,320 873,316.5C 871.293,314.091 870.46,311.425 870.5,308.5 Z"/></g>
<g><path style="opacity:1" fill="#080808" d="M 84.5,353.5 C 91.3753,353.307 93.2086,356.307 90,362.5C 87.3333,363.833 85.3333,365.833 84,368.5C 56.6797,431.995 50.013,497.661 64,565.5C 69.2332,592.201 78.2332,617.535 91,641.5C 110.832,671.346 134.332,698.179 161.5,722C 199.796,750.312 242.13,770.312 288.5,782C 293.216,784.737 293.549,787.737 289.5,791C 286.5,791.667 283.5,791.667 280.5,791C 240.574,780.249 202.907,764.249 167.5,743C 141.593,721.761 118.426,697.927 98,671.5C 96.0816,663.57 91.7483,657.237 85,652.5C 77.1102,639.715 71.1102,626.048 67,611.5C 59.3532,587.607 53.3532,563.274 49,538.5C 46.798,513.752 47.4647,489.086 51,464.5C 56.1167,434.701 63.1167,405.367 72,376.5C 74.6255,367.91 78.7922,360.243 84.5,353.5 Z"/></g>
<g><path style="opacity:1" fill="#080808" d="M 904.5,353.5 C 909.407,353.551 912.907,355.884 915,360.5C 918.921,368.594 922.254,376.928 925,385.5C 936.204,422.388 943.204,460.055 946,498.5C 947.355,522.201 945.021,545.534 939,568.5C 933.211,592.325 925.877,615.658 917,638.5C 913.041,647.413 907.374,655.08 900,661.5C 897.21,669.747 892.877,677.08 887,683.5C 869.5,703.667 850.667,722.5 830.5,740C 793.6,763.279 753.933,780.279 711.5,791C 709.167,791.667 706.833,791.667 704.5,791C 700.451,787.737 700.784,784.737 705.5,782C 752.362,770.233 795.029,749.9 833.5,721C 864.944,693.91 890.777,662.41 911,626.5C 939.883,554.583 944.216,481.25 924,406.5C 920.425,392.101 915.092,378.434 908,365.5C 902.468,362.638 901.301,358.638 904.5,353.5 Z"/></g>
<g><path style="opacity:1" fill="#0c0c0c" d="M 104.5,390.5 C 108.225,390.78 109.392,392.78 108,396.5C 106.067,401.978 103.567,407.145 100.5,412C 98.2992,412.825 96.4659,412.325 95,410.5C 94.1355,401.896 97.3022,395.23 104.5,390.5 Z"/></g>
<g><path style="opacity:1" fill="#0c0c0c" d="M 886.5,390.5 C 892.719,392.217 896.886,396.217 899,402.5C 899.777,405.429 899.61,408.263 898.5,411C 896.105,413.145 893.938,412.978 892,410.5C 888.162,404.185 886.329,397.518 886.5,390.5 Z"/></g>
<g><path style="opacity:1" fill="#ececec" d="M 528.5,409.5 C 541.259,409.416 545.759,415.416 542,427.5C 539.677,430.578 536.843,433.078 533.5,435C 520.27,441.76 506.27,444.427 491.5,443C 489.33,441.414 486.996,440.08 484.5,439C 476.882,437.145 469.715,434.312 463,430.5C 459.523,425.007 459.69,419.674 463.5,414.5C 467.185,411.924 470.851,412.09 474.5,415C 481.276,421.886 488.943,427.553 497.5,432C 505.143,433.073 511.976,431.24 518,426.5C 519.969,422.768 520.969,418.768 521,414.5C 523.17,412.177 525.67,410.51 528.5,409.5 Z"/></g>
<g><path style="opacity:1" fill="#0c0c0c" d="M 122.5,418.5 C 123.822,418.33 124.989,418.663 126,419.5C 126.483,425.068 125.483,430.401 123,435.5C 121.987,437.846 120.321,439.513 118,440.5C 117.228,440.355 116.561,440.022 116,439.5C 115.257,431.563 117.424,424.563 122.5,418.5 Z"/></g>
<g><path style="opacity:1" fill="#0b0b0b" d="M 868.5,418.5 C 872.417,419.248 874.917,421.582 876,425.5C 878.362,430.215 878.862,435.049 877.5,440C 876.5,440.667 875.5,440.667 874.5,440C 869.323,433.645 867.323,426.478 868.5,418.5 Z"/></g>
<g><path style="opacity:1" fill="#080808" d="M 83.5,438.5 C 84.1174,438.611 84.6174,438.944 85,439.5C 85.1667,442 85.3333,444.5 85.5,447C 83.8302,468.688 82.1636,490.355 80.5,512C 81.0627,541.364 87.2293,569.531 99,596.5C 109.262,622.371 122.595,646.371 139,668.5C 177.749,705.14 222.582,731.973 273.5,749C 274.728,749.779 275.728,750.779 276.5,752C 276.167,752.5 275.833,753 275.5,753.5C 264.789,755.079 254.455,753.579 244.5,749C 200.705,731.208 162.539,705.375 130,671.5C 86.0581,609.736 67.7247,541.069 75,465.5C 76.7595,456.119 79.5928,447.119 83.5,438.5 Z"/></g>
<g><path style="opacity:1" fill="#080808" d="M 909.5,438.5 C 912.704,442.922 914.871,447.922 916,453.5C 921.627,477.915 922.96,502.582 920,527.5C 913.443,580.913 894.443,629.247 863,672.5C 831.289,705.46 794.122,730.627 751.5,748C 740.584,752.565 729.25,754.565 717.5,754C 716.549,753.282 716.383,752.449 717,751.5C 718.255,750.789 719.421,749.956 720.5,749C 771.407,731.977 816.24,705.144 855,668.5C 885.222,627.193 904.555,581.193 913,530.5C 913.167,524.5 913.333,518.5 913.5,512.5C 912.399,491.126 910.733,469.793 908.5,448.5C 908.539,445.083 908.873,441.75 909.5,438.5 Z"/></g>
<g><path style="opacity:1" fill="#efefef" d="M 502.5,455.5 C 514.655,456.495 526.989,456.829 539.5,456.5C 539.5,463.167 539.5,469.833 539.5,476.5C 540.201,508.243 539.034,539.91 536,571.5C 534.727,581.928 529.227,588.928 519.5,592.5C 506.203,587.592 492.536,584.092 478.5,582C 468.443,579.4 462.943,572.9 462,562.5C 460.58,525.187 460.08,487.854 460.5,450.5C 474.302,453.626 488.302,455.293 502.5,455.5 Z"/></g>
<g><path style="opacity:1" fill="#9d9d9d" d="M 502.5,455.5 C 515.167,455.5 527.833,455.5 540.5,455.5C 540.825,462.687 540.491,469.687 539.5,476.5C 539.5,469.833 539.5,463.167 539.5,456.5C 526.989,456.829 514.655,456.495 502.5,455.5 Z"/></g>
<g><path style="opacity:1" fill="#0f0f0f" d="M 142.5,457.5 C 146.138,456.737 147.638,458.07 147,461.5C 145.795,465.877 142.961,468.21 138.5,468.5C 138.436,464.301 139.769,460.634 142.5,457.5 Z"/></g>
<g><path style="opacity:1" fill="#111111" d="M 846.5,457.5 C 852.991,458.09 855.991,461.756 855.5,468.5C 849.459,467.455 846.459,463.788 846.5,457.5 Z"/></g>
<g><path style="opacity:1" fill="#050505" d="M 507.5,465.5 C 513.176,465.334 518.843,465.501 524.5,466C 526.667,466.833 528.167,468.333 529,470.5C 529.855,485.533 529.522,500.533 528,515.5C 527.641,519.573 525.474,521.907 521.5,522.5C 525.797,524.96 528.297,528.626 529,533.5C 529.759,544.865 529.425,556.199 528,567.5C 527.55,569.519 526.717,571.352 525.5,573C 517.458,576.204 509.124,577.204 500.5,576C 497.984,573.146 498.317,570.479 501.5,568C 506.931,565.378 512.597,563.378 518.5,562C 521.265,559.034 520.932,556.367 517.5,554C 515.283,552.725 512.949,551.725 510.5,551C 509.643,550.311 508.977,549.478 508.5,548.5C 512.5,544.5 516.5,540.5 520.5,536.5C 515.986,533.146 511.653,529.646 507.5,526C 509.41,522.951 511.91,520.451 515,518.5C 515.167,517.667 515.333,516.833 515.5,516C 514.324,512.486 512.491,509.319 510,506.5C 509.333,505.5 509.333,504.5 510,503.5C 513.478,501.184 516.978,499.017 520.5,497C 517.005,494.313 513.505,491.479 510,488.5C 509.333,487.167 509.333,485.833 510,484.5C 512.865,481.772 514.365,478.438 514.5,474.5C 510.161,475.154 506.327,474.154 503,471.5C 502.333,470.5 502.333,469.5 503,468.5C 504.652,467.601 506.152,466.601 507.5,465.5 Z"/></g>
<g><path style="opacity:1" fill="#090909" d="M 107.5,470.5 C 105.27,550.244 133.603,617.411 192.5,672C 211.608,689.063 233.608,701.063 258.5,708C 260.607,709.264 261.607,711.097 261.5,713.5C 252.945,715.161 244.612,714.328 236.5,711C 209.079,699.356 185.579,682.19 166,659.5C 122.562,609.875 101.229,551.875 102,485.5C 102.769,480.076 104.603,475.076 107.5,470.5 Z"/></g>
<g><path style="opacity:1" fill="#090909" d="M 884.5,470.5 C 885.496,470.414 886.329,470.748 887,471.5C 891.283,479.467 893.116,487.967 892.5,497C 888.9,575.534 856.9,639.534 796.5,689C 781.007,701.797 763.341,710.131 743.5,714C 740.106,714.752 736.773,714.585 733.5,713.5C 732.275,711.157 732.941,709.323 735.5,708C 747.395,703.924 759.061,699.257 770.5,694C 837.436,650.361 875.603,588.528 885,508.5C 885.86,497.764 885.36,487.097 883.5,476.5C 883.573,474.41 883.906,472.41 884.5,470.5 Z"/></g>
<g><path style="opacity:1" fill="#141414" d="M 176.5,493.5 C 180.225,493.78 181.392,495.78 180,499.5C 177.45,503.125 174.95,503.292 172.5,500C 173.25,497.429 174.583,495.262 176.5,493.5 Z"/></g>
<g><path style="opacity:1" fill="#141414" d="M 814.5,493.5 C 819.542,494.353 821.542,497.187 820.5,502C 814.451,502.11 812.451,499.276 814.5,493.5 Z"/></g>
<g><path style="opacity:1" fill="#e1e1e1" d="M 443.5,490.5 C 444.824,494.107 445.491,498.107 445.5,502.5C 445.554,507.899 445.054,513.233 444,518.5C 443.5,509.173 443.334,499.839 443.5,490.5 Z"/></g>
<g><path style="opacity:1" fill="#0a0a0a" d="M 136.5,497.5 C 138.752,497.916 140.252,499.249 141,501.5C 143.6,542.255 155.6,579.922 177,614.5C 177.494,616.134 177.66,617.801 177.5,619.5C 172.056,617.902 167.89,614.569 165,609.5C 147.679,578.033 137.512,544.367 134.5,508.5C 134.296,504.576 134.963,500.909 136.5,497.5 Z"/></g>
<g><path style="opacity:1" fill="#0c0c0c" d="M 854.5,498.5 C 856.39,498.297 857.89,498.963 859,500.5C 858.15,537.229 849.15,571.896 832,604.5C 828.882,609.286 825.382,613.786 821.5,618C 819.975,619.009 818.308,619.509 816.5,619.5C 816.34,617.801 816.506,616.134 817,614.5C 837.558,582.157 848.892,546.824 851,508.5C 851.331,504.845 852.498,501.512 854.5,498.5 Z"/></g>
<g><path style="opacity:1" fill="#111111" d="M 349.5,512.5 C 351.173,513.343 352.34,514.676 353,516.5C 355.888,523.301 356.721,530.301 355.5,537.5C 349.57,530.114 347.57,521.78 349.5,512.5 Z"/></g>
<g><path style="opacity:1" fill="#101010" d="M 643.5,512.5 C 644.117,512.611 644.617,512.944 645,513.5C 645.849,519.339 645.183,525.005 643,530.5C 641.985,533.21 640.485,535.543 638.5,537.5C 637.343,534.216 637.176,530.882 638,527.5C 638.781,522.048 640.614,517.048 643.5,512.5 Z"/></g>
<g><path style="opacity:1" fill="#121212" d="M 325.5,526.5 C 326.822,526.33 327.989,526.663 329,527.5C 329.829,532.864 329.663,538.198 328.5,543.5C 325.596,540.193 323.596,536.36 322.5,532C 322.863,529.808 323.863,527.974 325.5,526.5 Z"/></g>
<g><path style="opacity:1" fill="#111111" d="M 665.5,526.5 C 668.925,526.757 670.925,528.59 671.5,532C 670.421,536.325 668.421,540.158 665.5,543.5C 664.215,537.78 664.215,532.113 665.5,526.5 Z"/></g>
<g><path style="opacity:1" fill="#090909" d="M 176.5,532.5 C 178.173,533.343 179.34,534.676 180,536.5C 188.639,559.445 199.639,581.111 213,601.5C 217.133,606.634 221.633,611.468 226.5,616C 236.635,623.458 247.301,630.125 258.5,636C 260.607,637.264 261.607,639.097 261.5,641.5C 258.482,641.665 255.482,641.498 252.5,641C 229.869,632.939 212.702,618.439 201,597.5C 192.317,582.466 184.983,566.8 179,550.5C 177.049,544.654 176.215,538.654 176.5,532.5 Z"/></g>
<g><path style="opacity:1" fill="#090909" d="M 815.5,532.5 C 816.777,533.694 817.444,535.36 817.5,537.5C 810.782,565.266 798.949,590.6 782,613.5C 770.417,626.043 756.584,635.209 740.5,641C 737.854,641.497 735.187,641.664 732.5,641.5C 732.393,639.097 733.393,637.264 735.5,636C 746.503,629.834 757.17,623.167 767.5,616C 783.519,600.155 795.686,581.655 804,560.5C 808.122,551.259 811.956,541.926 815.5,532.5 Z"/></g>
<g><path style="opacity:1" fill="#0a0a0a" d="M 218.5,550.5 C 219.552,550.351 220.552,550.517 221.5,551C 228.136,559.764 233.636,569.264 238,579.5C 244.877,589.377 253.377,597.544 263.5,604C 267.214,606.858 269.88,610.358 271.5,614.5C 258.589,611.778 248.089,605.111 240,594.5C 229.361,581.555 222.194,566.888 218.5,550.5 Z"/></g>
<g><path style="opacity:1" fill="#0a0a0a" d="M 772.5,550.5 C 773.5,550.5 774.5,550.5 775.5,550.5C 770.212,573.917 758.212,593.084 739.5,608C 734.228,611.307 728.561,613.474 722.5,614.5C 722.351,613.448 722.517,612.448 723,611.5C 728.188,605.832 734.021,600.998 740.5,597C 745.034,592.801 749.201,588.301 753,583.5C 759.008,572.143 765.508,561.143 772.5,550.5 Z"/></g>
<g><path style="opacity:1" fill="#0f0f0f" d="M 269.5,547.5 C 275.422,559.423 280.089,571.923 283.5,585C 283.719,586.971 282.885,588.138 281,588.5C 276.052,585.194 273.052,580.527 272,574.5C 269.899,565.626 269.066,556.626 269.5,547.5 Z"/></g>
<g><path style="opacity:1" fill="#0d0d0d" d="M 297.5,551.5 C 305.295,552.962 309.629,557.628 310.5,565.5C 304.466,564.646 300.3,561.312 298,555.5C 297.51,554.207 297.343,552.873 297.5,551.5 Z"/></g>
<g><path style="opacity:1" fill="#131313" d="M 692.5,551.5 C 693.833,551.5 695.167,551.5 696.5,551.5C 695.368,559.804 690.701,564.471 682.5,565.5C 683.893,559.441 687.226,554.775 692.5,551.5 Z"/></g>
<g><path style="opacity:1" fill="#0d0d0d" d="M 723.5,547.5 C 726.571,561.486 724.071,574.486 716,586.5C 714.915,587.293 713.748,587.96 712.5,588.5C 711.343,585.216 711.176,581.882 712,578.5C 715.854,568.135 719.687,557.802 723.5,547.5 Z"/></g>
<g><path style="opacity:1" fill="#eeeeee" d="M 480.5,596.5 C 486.563,595.838 492.23,597.004 497.5,600C 499.152,601.47 500.152,603.303 500.5,605.5C 499.604,607.801 499.438,610.134 500,612.5C 502.408,614.956 505.241,616.789 508.5,618C 511.866,620.93 512.199,624.097 509.5,627.5C 506.102,628.104 502.769,628.937 499.5,630C 498.409,632.064 498.242,634.231 499,636.5C 501.333,637.5 503,639.167 504,641.5C 504.333,652.167 504.667,662.833 505,673.5C 505.865,679.099 507.698,684.266 510.5,689C 508.395,693.94 506.062,698.773 503.5,703.5C 506.697,707.922 508.53,712.922 509,718.5C 511.098,741.863 510.765,765.196 508,788.5C 506.662,791.318 505.162,793.985 503.5,796.5C 506.167,799.833 508.833,803.167 511.5,806.5C 509.897,809.28 508.063,811.946 506,814.5C 504.86,819.039 506.194,822.706 510,825.5C 510.667,827.833 510.667,830.167 510,832.5C 507.987,834.532 506.487,836.866 505.5,839.5C 508.819,844.15 512.486,848.484 516.5,852.5C 512.109,856.016 507.776,859.516 503.5,863C 507.77,867.292 511.77,871.792 515.5,876.5C 512.655,880.856 509.989,885.356 507.5,890C 510.436,893.155 513.436,896.322 516.5,899.5C 513.148,903.686 509.314,907.353 505,910.5C 504.15,912.01 503.317,913.51 502.5,915C 502.905,915.945 503.572,916.612 504.5,917C 515.727,917.291 518.893,922.458 514,932.5C 511.842,933.826 510.008,935.493 508.5,937.5C 510.19,940.024 512.357,942.024 515,943.5C 515.167,944.333 515.333,945.167 515.5,946C 514.527,949.645 512.694,952.812 510,955.5C 509.51,956.793 509.343,958.127 509.5,959.5C 514.594,960.488 516.927,963.655 516.5,969C 516.912,974.389 514.578,977.556 509.5,978.5C 509.491,980.308 509.991,981.975 511,983.5C 515.082,986.079 518.249,989.413 520.5,993.5C 520.471,995.029 519.804,996.196 518.5,997C 514.34,998.899 511.34,1001.9 509.5,1006C 512.016,1009.49 514.849,1012.66 518,1015.5C 518.667,1017.17 518.667,1018.83 518,1020.5C 516.086,1022.75 514.586,1025.25 513.5,1028C 514.675,1030.68 516.508,1032.85 519,1034.5C 523.276,1043.78 520.442,1048.61 510.5,1049C 508.59,1049.41 507.59,1050.57 507.5,1052.5C 508.269,1055.1 509.936,1056.94 512.5,1058C 517.136,1059.39 521.47,1061.23 525.5,1063.5C 522.813,1067.02 519.647,1070.02 516,1072.5C 512.886,1075.96 511.886,1079.96 513,1084.5C 522.273,1086.22 523.939,1090.88 518,1098.5C 514.367,1101.39 510.867,1104.39 507.5,1107.5C 507.709,1108.09 508.043,1108.59 508.5,1109C 512.584,1109.23 516.584,1109.9 520.5,1111C 523.087,1112.53 523.92,1114.69 523,1117.5C 518.407,1122.15 512.907,1125.32 506.5,1127C 510.497,1129.45 514.831,1131.11 519.5,1132C 525.797,1133.55 526.797,1136.55 522.5,1141C 520,1142.83 517.5,1144.67 515,1146.5C 514.333,1147.83 514.333,1149.17 515,1150.5C 521.606,1155.89 529.106,1159.22 537.5,1160.5C 537.666,1151.49 537.5,1142.49 537,1133.5C 533.954,1103.9 531.62,1074.23 530,1044.5C 527.241,970.503 524.575,896.503 522,822.5C 521.333,795.5 521.333,768.5 522,741.5C 522.303,739.112 523.137,736.945 524.5,735C 525.996,734.493 527.163,734.993 528,736.5C 531.427,799.798 534.094,863.131 536,926.5C 539.999,994.492 543.999,1062.49 548,1130.5C 556.068,1186.51 566.068,1242.17 578,1297.5C 579.603,1305.78 580.77,1314.12 581.5,1322.5C 538.692,1328.66 495.692,1330.16 452.5,1327C 447.35,1326.73 442.35,1325.73 437.5,1324C 435.667,1323.5 434.5,1322.33 434,1320.5C 433.333,1315.83 433.333,1311.17 434,1306.5C 441.236,1271.99 447.569,1237.32 453,1202.5C 462.16,1124.78 467.494,1046.78 469,968.5C 470.964,845.484 473.63,722.484 477,599.5C 478.145,598.364 479.312,597.364 480.5,596.5 Z"/></g>
<g><path style="opacity:1" fill="#e5e5e5" d="M 522.5,601.5 C 523.496,601.414 524.329,601.748 525,602.5C 525.667,610.167 525.667,617.833 525,625.5C 524.439,626.022 523.772,626.355 523,626.5C 519.497,623.982 517.997,620.482 518.5,616C 518.72,610.841 520.054,606.008 522.5,601.5 Z"/></g>
<g><path style="opacity:1" fill="#0d0d0d" d="M 183.5,624.5 C 185.783,624.608 187.783,625.441 189.5,627C 196.153,636.653 204.153,644.986 213.5,652C 225.668,659.585 238.001,666.918 250.5,674C 252.241,675.62 254.075,677.12 256,678.5C 256.483,679.448 256.649,680.448 256.5,681.5C 249.35,680.431 242.684,677.931 236.5,674C 222.984,666.078 209.984,657.411 197.5,648C 192.667,644.5 188.5,640.333 185,635.5C 182.532,632.036 182.032,628.37 183.5,624.5 Z"/></g>
<g><path style="opacity:1" fill="#0e0e0e" d="M 807.5,624.5 C 808.822,624.33 809.989,624.663 811,625.5C 811.374,630.331 810.041,634.664 807,638.5C 789.084,654.737 769.251,668.237 747.5,679C 744.28,680.352 740.947,681.186 737.5,681.5C 737.393,679.097 738.393,677.264 740.5,676C 750.574,669.601 760.908,663.601 771.5,658C 785.307,648.69 797.307,637.524 807.5,624.5 Z"/></g>
<g><path style="opacity:1" fill="#dbdbdb" d="M 522.5,632.5 C 523.117,632.611 523.617,632.944 524,633.5C 525.378,640.118 525.711,646.785 525,653.5C 523.789,657.462 521.789,658.129 519,655.5C 518.833,654 518.667,652.5 518.5,651C 519.691,644.791 521.024,638.625 522.5,632.5 Z"/></g>
<g><path style="opacity:1" fill="#c8c8c8" d="M 523.5,670.5 C 525.029,675.916 525.695,681.583 525.5,687.5C 525.388,694.86 524.888,702.194 524,709.5C 522.85,703.164 522.35,696.664 522.5,690C 522.519,683.423 522.852,676.923 523.5,670.5 Z"/></g>
<g><path style="opacity:1" fill="#080808" d="M 518.5,1167.5 C 526.194,1168 533.86,1168.84 541.5,1170C 545.541,1206.92 552.374,1243.42 562,1279.5C 563.708,1286.75 564.875,1294.08 565.5,1301.5C 566.359,1309.97 562.692,1315.13 554.5,1317C 540.45,1320.12 526.45,1320.12 512.5,1317C 508.5,1315 508.5,1313 512.5,1311C 524.576,1310.85 536.576,1309.85 548.5,1308C 559.055,1304.48 559.055,1301.14 548.5,1298C 537.25,1296.14 525.917,1295.14 514.5,1295C 512.382,1294.74 510.716,1293.74 509.5,1292C 511.377,1289.89 513.71,1288.56 516.5,1288C 525.005,1287.06 533.338,1285.39 541.5,1283C 549.783,1278.16 549.449,1274.16 540.5,1271C 531.226,1269.78 521.893,1269.11 512.5,1269C 508.21,1268.13 507.544,1266.13 510.5,1263C 511.833,1262.33 513.167,1261.67 514.5,1261C 523.548,1260.21 532.548,1259.21 541.5,1258C 546.809,1254.72 546.809,1251.38 541.5,1248C 540.167,1247.33 538.833,1246.67 537.5,1246C 531.247,1244.8 524.914,1244.13 518.5,1244C 511.557,1242.53 510.89,1239.87 516.5,1236C 522.226,1234.94 527.893,1233.61 533.5,1232C 539.008,1229.84 539.675,1226.84 535.5,1223C 527.561,1220.9 519.561,1219.23 511.5,1218C 518.446,1215.19 525.112,1211.86 531.5,1208C 534.183,1206.16 535.85,1203.66 536.5,1200.5C 536.41,1198.57 535.41,1197.41 533.5,1197C 527.163,1196.93 520.83,1196.93 514.5,1197C 510.664,1194.79 510.664,1192.45 514.5,1190C 519.132,1188.93 523.799,1187.93 528.5,1187C 529.357,1186.31 530.023,1185.48 530.5,1184.5C 529.352,1182.85 528.019,1181.35 526.5,1180C 521.95,1178.93 517.783,1177.1 514,1174.5C 513.333,1173.17 513.333,1171.83 514,1170.5C 515.652,1169.6 517.152,1168.6 518.5,1167.5 Z"/></g>
<g><path style="opacity:1" fill="#eeeeee" d="M 471.5,1340.5 C 506.5,1340.5 541.5,1340.5 576.5,1340.5C 576.509,1342.31 576.009,1343.98 575,1345.5C 559.496,1369.84 543.496,1393.84 527,1417.5C 524.95,1419.89 522.616,1421.89 520,1423.5C 519.228,1423.36 518.561,1423.02 518,1422.5C 517.333,1420.5 517.333,1418.5 518,1416.5C 520.333,1411.83 522.667,1407.17 525,1402.5C 536.883,1383.9 549.383,1365.73 562.5,1348C 542.12,1347.84 521.787,1348.84 501.5,1351C 497.448,1351.63 493.782,1353.13 490.5,1355.5C 491.472,1357.64 493.139,1358.8 495.5,1359C 503.409,1359.65 511.076,1361.32 518.5,1364C 520.833,1365.24 521.5,1366.91 520.5,1369C 516.251,1370.13 511.918,1370.79 507.5,1371C 501.345,1373.1 501.012,1375.77 506.5,1379C 511.563,1379.25 516.563,1379.91 521.5,1381C 524.89,1382.01 525.89,1384.01 524.5,1387C 520.479,1389.34 516.146,1390.67 511.5,1391C 509.714,1391.78 508.214,1392.95 507,1394.5C 507.717,1401.49 505.717,1407.49 501,1412.5C 500.302,1420.45 502.969,1427.11 509,1432.5C 509.946,1438.67 508.612,1444.34 505,1449.5C 503.235,1451.77 501.068,1453.44 498.5,1454.5C 496.971,1454.47 495.804,1453.8 495,1452.5C 491.084,1447 487.418,1441.34 484,1435.5C 468.921,1407.01 453.588,1378.67 438,1350.5C 436.729,1346.83 437.896,1344.33 441.5,1343C 451.692,1342.65 461.692,1341.82 471.5,1340.5 Z"/></g>
</svg>
