<svg xmlns="http://www.w3.org/2000/svg" width="400" height="255.48387097">
  <path fill="#f1f1f1" fill-rule="evenodd" d="M314.249 11.011c-12.2.629-29.492 6.996-37.748 13.898-9.461 7.911-11.524 22.762-4.634 33.366 3.337 5.135 19.207 17.407 21.16 16.362.844-.452 2.374-.042 5.265 1.41 3.558 1.787 8.394 2.794 18.258 3.803 42.871 4.384 69.733-7.706 72.255-32.519 1.381-13.585-9.061-27.155-25.204-32.754-5.534-1.919-16.96-3.114-34.272-3.584-9.966-.27-9.485-.271-15.08.018m27.476 9.965c11.903.785 24.095 6.354 28.682 13.101 8.325 12.245.317 28.905-16.162 33.624-12.706 3.638-35.284 2.546-49.069-2.372-16.393-5.849-26.917-20.586-20.825-29.163 3.817-5.375 11.671-10.875 18.908-13.242 6.464-2.114 23.145-2.959 38.466-1.948m-8.945 4.227c-2.292.614-4.773 2.716-4.556 3.858.256 1.341 4.704.541 6.69-1.203 2.549-2.238 1.444-3.613-2.134-2.655m-13.101.491c-1.539 1.046-2.16 2.715-1.322 3.553 1.242 1.242 5.732-.773 5.732-2.573 0-1.649-2.582-2.222-4.41-.98m21.549 1.244c-1.161.42-2.02 1.542-1.642 2.145.443.706 2.443.715 3.685.017 2.551-1.434.869-3.214-2.043-2.162m8.448 1.486c-1.759.949-1.251 2.655.868 2.915 2.017.248 3.449-1.429 2.191-2.567-.64-.58-2.282-.766-3.059-.348M37.7 28.53c-10.41 1.478-21.662 6.817-25.936 12.307-3.153 4.05 2.246 15.426 8.771 18.479 5.882 2.752 26.751 2.798 33.227.072 4.11-1.73 9.151-6.646 11.464-11.179 1.811-3.551-1.531-9.64-7.4-13.477-5.506-3.601-15.897-6.803-20.126-6.202m284.613 5.655c-4.757 2.786-5.672 5.493-1.717 5.08 2.67-.279 4.578-1.802 4.917-3.922.362-2.263-.673-2.637-3.2-1.158m10.591-.421c-1.725.908-3.447 2.823-3.447 3.83 0 .984 5.688-.568 6.762-1.845 1.73-2.056-.569-3.433-3.315-1.985m-20.597 1c-1.246.211-2.507.774-3.547 1.585-2.901 2.261-1.177 5.302 2.064 3.642.884-.453 5.598-4.897 5.598-5.278 0-.253-2.499-.223-4.115.051m29.418.4c-1.218.835-1.671 2.365-1.123 3.793.5 1.301 6.235-1.156 6.235-2.671 0-1.298-3.677-2.105-5.112-1.122m10.544.101c-2.869 1.302-1.303 3.84 2.368 3.84 2.657 0 4.657-2.938 2.692-3.955-1.077-.557-3.713-.497-5.06.115M45.24 36.287c9.205 3.216 12.184 10.58 6.001 14.835-6.122 4.212-11.236 5.12-18.398 3.267-9.822-2.542-10.512-2.951-11.101-6.593-.632-3.908-.24-6.059 1.318-7.248 5.28-4.027 16.615-6.205 22.18-4.261m252.955 1.798c-1.591.483-2.023 1.914-.817 2.704 1.377.902 4.099-1.066 3.257-2.354-.27-.414-1.602-.605-2.44-.35m64.559.027c-1.605.464-1.712 2.039-.182 2.678 2.048.856 4.274-.371 3.454-1.904-.466-.87-1.826-1.192-3.272-.774M32.368 41.915c-2.019.788-2.975 2.024-2.975 3.844 0 2.223 1.211 2.358 3.053.341 3.179-3.478 3.142-5.443-.078-4.185m6.839 1.632c-2.511 2.601-4.206 6.04-2.977 6.036.902-.002 3.306-2.673 4.876-5.417 1.724-3.013.725-3.339-1.899-.619m286.765-.62c-1.715.409-3.16 1.888-3.16 3.233 0 1.84 1.293 1.685 3.878-.467 2.886-2.402 2.587-3.554-.718-2.766m7.958-.083c-2.254.316-2.743.893-2.087 2.463.918 2.197 5.039 2.562 7.227.64 2.271-1.994-.617-3.737-5.14-3.103m13.578.215c-3.192 1.138-5.109 6.014-2.364 6.014 1.512 0 4.975-2.511 5.551-4.024.68-1.789-.93-2.794-3.187-1.99m-45.655.238c0 .066.111.412.247.769.307.807-.215 2.42-1.138 3.517-1.077 1.279-.382 1.876 1.83 1.573 2.89-.397 3.426-2.444 1.161-4.439-1.178-1.037-2.1-1.66-2.1-1.42m10.16 1.716c-.937.7-.893 1.396.128 2.019 1.882 1.147 5.536.345 5.555-1.221.015-1.242-4.28-1.845-5.683-.798m44.281-.359c-1.885.693-1.705 4.419.213 4.419.758 0 1.445-.401 2.919-1.706 1.263-1.119 2.2-1.128 3.172-.032 2.971 3.352 3.326 3.522 4.284 2.058 1.8-2.753.826-3.437-6.454-4.53-2.704-.406-3.49-.446-4.134-.209M43.125 46.368c-.997.998-1.165 2.99-.346 4.11.419.573 1.611-1.206 1.868-2.789.226-1.397-.668-2.174-1.522-1.321m287.448 4.859c-1.679.526-4.439 3.054-4.439 4.067 0 .382 4.149.028 5.034-.429 3.591-1.857 3.11-4.797-.595-3.638m21.15.275c-3.393 1.058-4.476 5.194-1.428 5.449 2.131.179 4.048-1.514 4.369-3.859.268-1.951-.482-2.357-2.941-1.59m-42.19 1.175c-1.777.376-2.029 1.849-.448 2.621 1.141.558 2.493.408 3.262-.36 1.307-1.308-.49-2.752-2.814-2.261m8.191-.034c-1.193.288-1.278.963-.241 1.92 1.647 1.52 4.442 1.487 4.258-.05-.145-1.206-2.407-2.259-4.017-1.87m23.377-.003c-1.412.284-2.551 1.577-2.337 2.651.407 2.035 1.451 2.444 3.131 1.227 2.051-1.486 3.383-3.866 2.163-3.866-.264 0-.81-.049-1.215-.108-.404-.059-1.188-.016-1.742.096m18.529 2.226c-1.045 1.328-.988 2.386.129 2.386 1.199 0 1.979-1.392 1.492-2.662-.237-.617-1.024-.483-1.621.276m-43.594 4.841c-2.929 1.529-3.031 2.239-.466 3.245 3.093 1.214 3.663.988 3.663-1.446 0-2.453-.934-2.979-3.197-1.799m8.562.165c-.741 1.216-.478 2.984.524 3.52 1.881 1.007 7.389-1.406 6.116-2.679-1.518-1.518-5.89-2.071-6.64-.841m10.566 1.062c-1.812.819-1.483 2.125.683 2.708 1.932.52 4.897-.517 4.54-1.587-.396-1.189-3.569-1.87-5.223-1.121m12.649.034c-2.335 1.268.411 3.716 2.789 2.487 1.339-.692 1.451-1.646.277-2.362-.99-.603-2.102-.649-3.066-.125m-328.58 5.511c-1.194 1.242 1.194 6.909 3.674 8.715 7.81 5.69 27.258 3.196 33.059-4.239 2.604-3.337-.03-4.195-8.17-2.659-4.701.887-12.042.834-15.336-.111-4.784-1.372-12.581-2.377-13.227-1.706m260.377 9.056c-1.11 1.337 1.025 17.346 2.915 21.857.834 1.992 4.29 3.494 12.555 5.457 1.546.367 3.214.776 3.706.909.923.249 8.08 1.673 12.141 2.416 13.144 2.405 25.369 2.074 20.063-.543-1.649-.814-3.517-1.224-9.584-2.104-7.506-1.089-10.144-2.09-9.741-3.695.269-1.073 2.714-.972 15.747.651 5.255.655 8.462-.044 10.108-2.202 1.891-2.478-.608-3.349-10.619-3.702-10.744-.378-16.613-1.881-16.613-4.254 0-1.397 1.373-1.586 4.791-.659 9.504 2.577 31.178 1.928 40.528-1.215 2.622-.881 5.559-1.597 8.895-2.169 1.77-.303 2.261-1.654.808-2.222-2.318-.907-17.448.675-23.839 2.492-3.781 1.075-9.815.786-25.177-1.206-19.451-2.522-24.444-3.769-32.064-8.006-4.369-2.429-4.167-2.351-4.62-1.805m94.006 3.379c-.659.749-1.464 2.535-1.886 4.181-.506 1.976-1.378 4.269-2.37 6.234-.773 1.533-1.238 3.134-2.453 8.456-.356 1.559-.934 3.678-1.285 4.71-1.166 3.428-.377 4.506 1.258 1.718 1.472-2.513 8.839-23.036 8.839-24.625 0-1.088-1.357-1.523-2.103-.674M32.46 84.624c-7.233.224-8.779.681-7.185 2.123 4.043 3.66 25.076 2.372 25.076-1.535 0-.581-8.785-.869-17.891-.588m-1.917 8.579c-2.552.305-3.001.428-3.705 1.021-1.81 1.523-.779 3.636 2.111 4.324 8.743 2.084 26.416-1.21 21.85-4.072-1.738-1.09-14.872-1.915-20.256-1.273m329.865.155c-1.982 1.019-1.931 2.564.088 2.695 1.551.101 2.443-.436 2.443-1.472 0-1.36-1.167-1.924-2.531-1.223m-19.052 1.773c-2.011 1.729-.376 5.955 1.931 4.991 1.672-.699 3.205-3.038 2.609-3.983-.907-1.439-3.396-1.992-4.54-1.008m10.673-.281c-1.779.515-2.379 2.396-1.208 3.789 1.178 1.398 3.452.758 4.554-1.282 1.101-2.037-.591-3.304-3.346-2.507m-77.285 7.959c-1.328 2.914 6.942 7.223 18.741 9.763 3.059.659 7.602 1.719 10.096 2.355 2.494.637 4.94 1.257 5.437 1.379 6.693 1.641 41.082 2.786 53.031 1.766 4.753-.406 9.376-2.068 9.744-3.503.496-1.934-.638-2.578-3.529-2.007-16.47 3.251-66.201-.576-72.384-5.571-1.848-1.493-2-1.529-6.551-1.559-4.588-.029-4.649-.043-9.968-2.315-2.397-1.024-4.235-1.147-4.617-.308m-235.318.22c-4.87.567-5.006 3.911-.187 4.594 3.639.515 4.039 2.419.85 4.048-3.899 1.993-3.348 3.633 1.343 4 4.442.347 5.355 2.19 1.896 3.827-2.907 1.374-3.667 4.527-1.239 5.137.356.089 2.2-.094 4.098-.408 4.045-.668 4.366-.568 3.267 1.016-1.365 1.97-3.37 3.216-5.598 3.477-1.765.208-1.765.293.007 2.151 2.351 2.465 3.425 2.561 7.272.65 3.095-1.538 4.073-1.508 4.073.125 0 1.059-.833 1.874-2.995 2.932-7.826 3.827-4.918 7.904 3.567 5 5.451-1.865 5.692.927.273 3.158-5.423 2.231-6.601 3.472-4.999 5.261 1.791 1.998 4.727 1.576 9.641-1.387 4.18-2.52 5.347-2.109 3.545 1.249-.784 1.462-6.263 7.299-7.733 8.239-.434.277.403.183 2.023-.228 1.055-.267 2.579-.654 3.388-.859 1.994-.506 4.358-1.524 5.564-2.398 2.498-1.81 3.828-1.558 3.828.725 0 1.608-1.135 3.096-3.99 5.23-3.717 2.778-5.079 5.413-2.962 5.729 2.395.357 16.664-14.142 16.664-16.932 0-1.224-1.743-3.629-5.277-7.281-8.666-8.953-20.089-29.2-19.734-34.976.095-1.546-.313-1.79-3.508-2.101-3.018-.293-10.473-.281-13.077.022m-11.411.378c-.467 1.217-.163 3.594 1.159 9.053 2.255 9.311 4.516 15.749 5.807 16.539.33.202.611.821.812 1.789 1.188 5.714 11.985 27.665 16.318 33.174 3.059 3.89 5.305 5.696 6.097 4.904.981-.98-.411-3.875-6.106-12.7-7.363-11.408-19.898-41.898-19.898-48.398 0-2.582-3.482-6.205-4.189-4.361m320.291 1.239c-3.989 1.423-5.18 6.025-1.559 6.025 2.164 0 5.477-5.727 3.604-6.229-.776-.208-.936-.192-2.045.204m8.73-.127c-2.763.54-4.221 2.981-2.209 3.7 1.314.47 6.323-2.132 6.323-3.284 0-.538-2.3-.77-4.114-.416m-20.051.645c-1.005 1.005-.506 2.281 1.711 4.375 2.923 2.763 3.531 2.756 3.045-.035-.68-3.903-3.039-6.056-4.756-4.34m-232.32 6.252c-7.796 1.461-14.085 6.085-15.755 11.585-1.665 5.478.773 14.666 4.375 16.488 3.281 1.66 4.197-.115 3.197-6.198-1.241-7.552.558-13.076 4.881-14.988 6.939-3.069 16.685 1.753 18.388 9.098.507 2.184.233 3.698-1.17 6.476-.972 1.923-1.679 2.915-5.117 7.173-4.501 5.574-3.353 8.325 2.735 6.555 7.514-2.184 11.803-10.889 10.726-21.769-.802-8.098-.526-7.167-2.582-8.719-6.648-5.02-13.195-6.916-19.678-5.701m171.664 3.485c-1.114 1.416-1.006 5.674.208 8.202 2.349 4.893 7.357 6.127 14.631 3.606 4.93-1.71 5.122-1.653 5.53 1.635.389 3.131 2.49 5.948 5.618 7.532 2.916 1.477 5.674.758 11.372-2.963 6.614-4.318 8.494-4.121 8.856.928.598 8.359 9.927 9.327 14.35 1.49 2.616-4.636 5.17-3.827 6.344 2.008.997 4.958 2.445 6.115 6.48 5.177 3.032-.705 5.016-2.086 7.161-4.983 1.204-1.626 6.06-11.238 6.06-11.995 0-.522-6.502-.937-20.83-1.329-9.594-.262-10.893-.338-19.425-1.136-10.358-.968-23.391-3.022-31.694-4.995-2.705-.643-3.629-.921-8.568-2.581-4.3-1.446-5.344-1.548-6.093-.596m-52.942 2.933c-5.954 1.241-13.984 5.617-15.708 8.56-4.427 7.553-3.894 17.25 1.229 22.389 4.726 4.741 12.834 7.907 16.012 6.253 2.945-1.532 2.238-3.234-2.292-5.511-10.908-5.484-14.048-15.893-6.81-22.571 6.283-5.797 18.659-.716 21.141 8.68 1.138 4.308 3.33 5.018 4.838 1.565 2.116-4.846-1.321-13.543-6.761-17.108-2.952-1.933-8.265-2.963-11.649-2.257m45.685 12.965c-2.511 2.562-10.81 12.786-14.201 17.495-.934 1.297 15.247 16.328 27.029 25.109 8.512 6.343 11.685 8 12.786 6.673.998-1.202-.754-2.988-11.525-11.745-5.705-4.639-6.413-5.519-4.436-5.519 1.747 0 3.571 1.177 7.274 4.694 7.365 6.996 13.308 9.211 16.471 6.139 1.882-1.828 1.27-2.486-5.313-5.712-8.314-4.075-13.195-7.906-13.195-10.356 0-1.495 1.806-.903 4.6 1.507 7.158 6.175 21.984 11.139 21.98 7.361-.003-2.678-2.987-4.733-6.679-4.601l-2.052.073-.682-.861c-1.706-2.155-3.16-3.322-5.732-4.603-4.106-2.046-5.525-3.488-5.189-5.276.355-1.891 1.537-1.62 5.188 1.192 4.584 3.531 10.271 4.901 12.016 2.896 1.38-1.586-.322-3.457-5.57-6.12-5.493-2.787-7.137-4.066-6.759-5.257.276-.869.988-.641 7.026 2.252 4.095 1.962 6.446 2.937 8.227 3.414 3.482.931 3.276-3.517-.236-5.087-.67-.3-2.081-.908-3.135-1.351-1.054-.443-4.39-2.106-7.412-3.697-6.862-3.609-8.597-4.186-13.419-4.462-4.803-.274-6.765-.983-10.343-3.735-3.733-2.873-4.284-2.908-6.719-.423m45.325 8.393c-.905.761-1.039 1.742-.292 2.141 1.903 1.019 4.591-1.003 3.193-2.401-.624-.624-1.998-.5-2.901.26m-211.31.75c-2.59 2.042-1.383 5.616 1.463 4.333 2.244-1.012 2.915-2.856 1.54-4.231-.931-.931-1.909-.964-3.003-.102m236.877 1.965c-1.759.948-1.251 2.655.867 2.915 2.018.247 3.45-1.43 2.192-2.568-.64-.579-2.283-.766-3.059-.347m-108.399 1.645c-1.449.592-1.629 1.827-.614 4.237.805 1.912 2.476 4.427 3.2 4.814 2.771 1.484 4.632-6.548 1.975-8.521-.693-.515-3.733-.867-4.561-.53m-140.419 1.772c-.086.223-.157.654-.158.959-.008 1.74-3.215 5.271-12.195 13.425-8.099 7.354-11.221 9.602-17.709 12.754-8.358 4.061-10.135 7.226-4.305 7.666 13.97 1.056 41.351-21.388 38.31-31.401-.833-2.743-3.36-4.923-3.943-3.403m257.838 3.385c-2.197 1.592-5.18 5.586-7.509 10.054-1.391 2.669-3.201 5.252-3.818 5.447-.794.252-2.519 2.292-4.761 5.63-3.011 4.481-4.702 6.476-10.851 12.801-5.304 5.455-6.07 6.396-5.793 7.118.445 1.16 2.822.041 7.71-3.632 4.483-3.369 6.194-4.211 8.923-4.394l2.022-.136-1.464-.494c-1.544-.522-2.847-1.714-2.594-2.374.078-.202.141-.489.141-.637 0-.148 1.019-1.318 2.263-2.599 3.145-3.239 5.523-6.297 11.25-14.471 4.851-6.923 7.19-10.762 7.19-11.801 0-1.387-1.19-1.612-2.709-.512m-32.207-.216c-.895.362-1.664 1.516-1.373 2.06 1.099 2.052 5.427 2.477 6.313.62.942-1.975-2.314-3.741-4.94-2.68m8.654 1.47c-2.564.465-.458 3.437 2.556 3.607 4.003.227 4.167-2.871.18-3.415-.626-.085-1.368-.187-1.649-.226-.282-.038-.771-.023-1.087.034m-82.172.345c-3.029 1.764-.547 6.623 8.545 16.726 6.806 7.562 7.676 9.037 6.201 10.511-2.172 2.172-8.829-3.37-15.143-12.607-4.516-6.604-8.978-9.239-12.261-7.237-6.035 3.679 13.402 26.666 35.209 41.639 19.595 13.454 33.54 18.131 38.776 13.006 2.651-2.596 1.89-3.681-3.628-5.174-8.277-2.239-18.343-7.777-30.683-16.882-9.236-6.814-12.656-10.567-11.025-12.098 1.62-1.522 2.922-.763 19.728 11.507 9.908 7.235 16.207 11.06 20.447 12.419 6.82 2.187 13.393 1.62 16.549-1.425 2.089-2.015 1.359-2.577-9.009-6.949-2.741-1.156-6.049-2.563-7.351-3.127-3.825-1.658-9.964-5.39-17.441-10.601-5.726-3.991-14.284-10.948-20.676-16.809-2.308-2.115-5.184-4.752-6.393-5.859-6.614-6.06-10.036-8.094-11.845-7.04m94.888.512c-2.101.94-2.552 2.525-.841 2.954 1.77.444 3.954-2.887 2.228-3.399-.13-.038-.754.162-1.387.445m-234.249.961c-1.388.664-2.456 1.881-3.448 3.929-3.246 6.704-18.914 20.895-29.012 26.278-8.734 4.655-10.271 6.7-6.637 8.829 4.633 2.715 12.418-2.12 27.805-17.268 11.004-10.833 16.522-17.388 16.588-19.705.057-1.996-2.969-3.175-5.296-2.063m208.61 3.111c-2.038.612-4.226 3.397-3.392 4.318 1.09 1.204 4.91 1.76 6.488.944 3.655-1.89.956-6.478-3.096-5.262m9.63 3.362c-1.236.598-1.478 2.591-.442 3.628 1.76 1.76 4.86-.14 3.923-2.403-.575-1.388-2.063-1.911-3.481-1.225m8.148.596c-1.514 1.088-1.531 2.842-.034 3.462 1.198.496 4.205.213 4.877-.459 1.47-1.469-3.064-4.281-4.843-3.003m-225.862 11.043c-8.523 8.945-13.308 13.42-16.565 15.492-1.671 1.063-1.831 1.436-.639 1.489 2.504.112 5.007-.728 8.129-2.729 4.782-3.066 4.971.398.288 5.313-3.642 3.823-4.122 5.558-1.538 5.558 2.184 0 5.125-1.71 9.927-5.77l2.939-2.485.128 4.702c.215 7.934 1.579 8.676 5.678 3.09 2-2.725 5.568-3.629 5.568-1.41 0 .91-.575 1.855-1.917 3.151-2.528 2.441-2.593 4.405-.168 5.1 1.828.524 3.692-.821 4.629-3.34.947-2.546 2.158-2.856 3.375-.866.765 1.253.754 1.283-1.51 4.234-1.504 1.96-1.023 3.322 1.183 3.352 1.82.025 2.722-.76 4.428-3.856.333-.605.611-.79 1.186-.79 1.143 0 1.337 1.126.778 4.532-.896 5.462 2.257 5.584 5.101.198 2.236-4.233 3.576-4.234 3.216-.002-.451 5.293-.167 6.518 1.51 6.518 1.428 0 2.3-1.183 3.369-4.569 1.792-5.671 3.563-4.398 2.94 2.113-.488 5.102.275 6.799 2.195 4.879 1.243-1.243 1.628-2.608 2.283-8.092.272-2.274 1.862-3.267 2.637-1.646.29.606.297 1.073.041 2.657-.6 3.724 1.027 9.126 2.29 7.603 1.157-1.393 2.744-31.824 1.731-33.179-.817-1.093-6.087-2.145-14.371-2.869-5.999-.524-10.54-1.407-12.089-2.351-2.316-1.41-2.716-1.591-3.87-1.746-2.873-.385-6.38-1.849-14.296-5.965-2.157-1.121-4.106-2.11-4.331-2.196-.294-.113-1.492.98-4.255 3.88m212.584-2.976c-3.284 1.592-3.507 3.818-.382 3.818 1.76 0 2.658-1.046 2.556-2.976-.093-1.773-.182-1.808-2.174-.842m6.698 1.315c-1.282.735-1.551 2.292-.559 3.225 1.084 1.018 3.832.565 4.535-.748.902-1.687-2.096-3.555-3.976-2.477m-100.575 2.331c-.773.468-2.211 1.406-3.195 2.086-5.569 3.846-14.459 6.739-24.792 8.067-2.249.29-4.188.624-4.309.744-.507.505-.007 31.318.572 35.153.632 4.192 1.154 6.021 1.971 6.902 1.918 2.07 2.704-.442 3.074-9.817l.176-4.45 1.602 4.896c4.669 14.27 8.801 15.468 6.755 1.958-.675-4.462-.407-8.051.602-8.051.775 0 2.01 1.964 2.324 3.697.903 4.977 4.947 4.83 4.797-.174-.13-4.352 1.437-4.449 4.216-.262 3.31 4.986 5.435 4.168 4.656-1.791-.745-5.691.992-6.222 3.588-1.096 1.625 3.209 2.304 3.869 3.705 3.606 2.079-.39 2.359-1.58 1.188-5.045-1.952-5.774-.656-6.651 3.076-2.083 2.578 3.155 4.511 4.264 6.202 3.557 1.328-.555 1.258-1.519-.297-4.08-.668-1.099-1.646-2.707-2.173-3.572-2.846-4.67-.95-4.848 3.256-.307 3.041 3.285 5.739 4.907 6.993 4.207 1.64-.917.924-2.331-3.573-7.063-3.175-3.341-4.823-5.478-4.823-6.253 0-1.998 4.644 1.421 12.795 9.422 4.864 4.773 6.047 5.515 8.861 5.553 1.68.024 2.102-.215 2.11-1.195.006-.725-6.343-6.694-13.929-13.095-6.152-5.191-14.143-13.241-16.587-16.709-4.137-5.87-5.686-6.712-8.841-4.805m-56.178 4.151c-4.085 2.861-5.416 26.971-2.469 44.711 2.477 14.908 6.524 23.823 10.942 24.105 3.517.224 3.537-.16.568-10.431-3.518-12.171-5.246-41.956-2.834-48.858 1.054-3.019 2.183-4.261 3.068-3.376.924.924 1.011 2.227 1.037 15.557.014 7.169.113 13.897.221 14.952 2.073 20.374 5.748 31.014 11.134 32.232 2.84.643 2.989-.844 1.029-10.251-1.681-8.062-2.296-11.26-2.803-14.569-1.267-8.259-1.963-17.498-2.283-30.288-.258-10.292-.452-11.738-1.688-12.547-1.178-.772-2.563.065-3.059 1.849-.502 1.804-4.449 1.149-7.094-1.178-2.62-2.304-4.374-2.885-5.769-1.908m139.579-.143c-.992.4-1.469 1.408-1.094 2.313.927 2.238 6.517 2.729 7.046.619.487-1.939-3.519-3.912-5.952-2.932m13.883 1.217c-4.367 2.3-5.937 4.019-4.712 5.161 1.508 1.405 4.617-.542 6.839-4.283 1.68-2.826 1.62-2.851-2.127-.878m-22.081 5.311c-1.412.989-1.163 2.529.605 3.744 2.452 1.685 5.254 1.381 5.419-.588.173-2.058-4.269-4.385-6.024-3.156m8.707 4.464c-1.678.345-2.164.693-2.072 1.483.234 2.026 7.747 1.947 7.747-.081 0-1.092-3.264-1.898-5.675-1.402m-227.297 6.91c0 2.042 6.648 8.089 19.588 17.817 7.782 5.849 11.782 8.074 17.838 9.922 5.69 1.737 3.783-1.042-4.121-6.004-8.445-5.301-11.261-7.235-14.646-10.061-1.336-1.115-3.004-2.289-3.707-2.61-1.25-.57-4.036-2.509-8.88-6.181-4.324-3.276-6.072-4.106-6.072-2.883m23.084 6.24c-1.395.606-2.047 2.478-1.147 3.292 1.755 1.588 5.036-1.487 3.367-3.155-.595-.596-1.095-.626-2.22-.137m8.512 4.746c-2.883.863-2.428 4.081.578 4.081.979 0 1.442-.145 2.023-.634 2.527-2.126.77-4.456-2.601-3.447m137.612 2.796c-1.866 1.867-.274 4.077 2.946 4.091 1.886.008 2.347-.697 1.511-2.313-.939-1.816-3.426-2.808-4.457-1.778m15.776.704c-1.115 1.232.432 3.218 3.896 5 3.616 1.86 4.968.425 2.809-2.979-1.172-1.849-5.642-3.196-6.705-2.021m-144.837.307c-1.037 1.037-1.565 3.867-.899 4.818.97 1.385 3.947-.347 3.947-2.297 0-1.741-2.095-3.474-3.048-2.521m121.329 2.958c-2.65 1.493-.563 5.227 2.929 5.238 1.729.005 2.894-3.3 1.666-4.728-.781-.907-3.377-1.196-4.595-.51m-113.444 2.408c-.917.917-1.026 2.531-.25 3.709 2.023 3.068 4.921.615 3.353-2.838-.799-1.759-1.905-2.07-3.103-.871m128.765-.468c-3.21.756-4.125 2.362-1.521 2.67.806.095 2.267.337 3.246.537 1.746.357 2.476.321 4.18-.207 1.497-.464 1.563-2.257.084-2.257-.392 0-1.566-.227-2.611-.505-2.11-.561-2.03-.555-3.378-.238m-24.464 1.03c-1.776.709-2.286 2.301-1.265 3.951 1.848 2.992 6.632 2.687 6.632-.423 0-2.387-3.107-4.429-5.367-3.528m-94.934 1.841c-.561.41-.471 2.974.211 5.995.709 3.144.27 3.329-5.597 2.362-3.47-.572-4.878-.64-5.122-.245-.838 1.357 7.677 4.916 21.991 9.193.844.252 2.731.82 4.194 1.262 4.718 1.426 6.951 1.882 7.319 1.496.828-.87-.635-2.2-3.973-3.61-2.26-.955-3.793-1.414-11.209-3.354-6.593-1.725-7.4-2.306-5.825-4.192 3.392-4.06 1.707-11.609-1.989-8.907m84.914 1.974c-1.113 1.114-.902 2.288.671 3.728 2.683 2.457 4.422.995 2.933-2.467-.912-2.118-2.271-2.594-3.604-1.261m25.137-.571c-1.002.69 5.689 6.182 7.533 6.182 2.735 0 1.318-4.563-1.74-5.604-1.779-.605-5.25-.952-5.793-.578m32.295-.038c-1.389.302-3.99 1.386-8.039 3.351-5.834 2.831-7.941 3.753-11.642 5.094-15.352 5.565-29.278 8.576-47.028 10.169-9.042.811-11.063 1.081-13.146 1.757-4.487 1.457 1.152 2.32 11.229 1.718 13.742-.82 24.389-2.674 37.367-6.506 4.378-1.293 6.356-1.948 15.029-4.976 1.616-.564 4.066-1.324 5.444-1.688 4.9-1.295 13.214-6.298 13.214-7.952 0-.924-.926-1.293-2.428-.967m-66.78 1.876c-1.623.989-1.801 3.6-.334 4.911 2.652 2.369 6.262-1.771 3.66-4.197-1.425-1.329-2.085-1.471-3.326-.714m-65.052 1.058c-.369 2.749.8 5.357 2.174 4.849 1.322-.489 1.13-1.987-.6-4.683-.969-1.51-1.388-1.554-1.574-.166m8.701.495c-1.599.931.815 5.858 2.87 5.858 2.053 0 .84-4.831-1.454-5.79-.964-.403-.851-.397-1.416-.068m82.894 1.164c-2.011 2.556 1.572 5.491 5.403 4.427 1.423-.395 1.412-.675-.088-2.217-2.66-2.737-4.349-3.439-5.315-2.21m-11.776 3.927c-.976.977-.19 2.146 2.168 3.226 2.753 1.26 4.251.339 3.057-1.88-.877-1.629-4.109-2.462-5.225-1.346m-10.153 1.527c-2.536 1.546-.527 4.098 3.391 4.307 2.894.153 3.062-.783.588-3.258-1.658-1.658-2.581-1.901-3.979-1.049m-12.543 1.591c-.836.836.495 3.015 2.085 3.414 1.553.389 2.883-.926 2.21-2.185-.596-1.113-3.562-1.962-4.295-1.229m-9.764.455c-.539.341-.496 2.284.07 3.148.541.825 1.675.935 2.318.224 1.21-1.337-.899-4.314-2.388-3.372"/>
  <path fill="#040404" fill-rule="evenodd" d="M322.3 1.253c-.211.118-.843.292-1.405.386-.973.162-1.937.454-3.068.927-.281.117-1.546.354-2.811.525-1.265.171-2.415.394-2.556.494-.141.101-2.153.385-4.473.632-2.319.247-4.332.534-4.473.638-.14.104-1.233.334-2.428.511-1.195.178-2.549.476-3.01.663-.46.187-1.61.531-2.556.765-.945.234-1.833.511-1.974.616-.14.105-.715.334-1.278.508-2.04.633-8.106 3.562-9.015 4.354-.179.155-.725.45-1.214.654-.489.204-.889.485-.889.624 0 .138-.144.253-.319.254-.176.002-.837.406-1.47.899-.633.492-1.414 1.095-1.736 1.339-.322.244-1.169.961-1.882 1.594-1.145 1.015-1.776 1.64-3.741 3.706-.447.47-2.564 3.208-3.745 4.843-.571.792-.804 1.178-1.646 2.726-.335.617-.691 1.178-.79 1.249-.1.07-.387.674-.64 1.342-.252.667-.537 1.214-.632 1.214-.204 0-1.035 2.531-1.035 3.153 0 .234-.096.425-.214.425-.117 0-.365 1.351-.55 3.003-.184 1.652-.427 3.123-.539 3.269-.91 1.188-.805 10.97.137 12.777.218.417.397.952.398 1.188.001.236.154.581.34.767.185.186.546.884.801 1.552s.54 1.214.633 1.214c.093 0 .322.431.508.958.186.528.492 1.136.681 1.352.188.216.529.791.757 1.278.229.486.722 1.418 1.096 2.07 1.802 3.137 2.248 4.012 2.59 5.077.203.632.442 1.207.531 1.278.089.07.373 1.163.633 2.428.259 1.265.548 2.358.642 2.428.21.157 1.013 5.269 1.013 6.45 0 .473.115.975.256 1.115.144.145.267 1.864.282 3.949.031 4.482-.351 5.489-2.805 7.4-1.743 1.357-3.063 3.15-3.274 4.449-.083.512-.25.992-.372 1.067-.29.18-.285 2.29.008 2.858 1.164 2.261 1.191 11.803.037 13.215-.119.145-.353.781-.521 1.414-.168.632-.582 1.757-.92 2.499-.338.743-.614 1.453-.614 1.58 0 .126-.146.381-.324.567-.178.186-.541.827-.806 1.424-.265.598-.56 1.086-.657 1.086-.097 0-.3.273-.452.607-.152.333-1.119 1.531-2.15 2.662-2.765 3.034-2.847 3.158-3.134 4.745-.508 2.811-6.929 8.863-8.688 8.188-.656-.251-.941-1.825-1.095-6.049-.081-2.219-.246-4.094-.366-4.169-.121-.074-.219-.688-.219-1.365 0-1.46-.707-5.694-.982-5.888-.107-.075-.342-.643-.523-1.263-.181-.62-.607-1.567-.946-2.104-.339-.537-.617-1.055-.617-1.152 0-.096-.17-.357-.378-.58-.208-.223-1.047-1.124-1.864-2.002-.818-.879-1.628-1.598-1.802-1.598-.174 0-.377-.158-.451-.351-.075-.193-.589-.556-1.143-.806-.554-.249-1.007-.54-1.007-.645 0-.105-.575-.398-1.278-.651-.703-.252-1.278-.539-1.278-.636 0-.097-.776-.384-1.725-.637-.949-.252-1.783-.541-1.853-.641-.54-.766-10.985-.764-11.5.002-.071.107-.877.338-1.791.515-.914.176-2.121.521-2.684.767-.562.246-1.424.602-1.916.792-.492.19-.953.422-1.023.515-.07.094-.645.414-1.278.711-1.726.812-6.39 4.369-6.39 4.873 0 .096-.466.687-1.036 1.314-1.087 1.197-1.406 1.689-2.314 3.568-.306.633-.647 1.21-.758 1.283-.111.072-.394.877-.631 1.789-.236.911-.539 1.893-.673 2.182-.653 1.407-.639 10.359.019 11.743.133.281.436 1.345.673 2.364.237 1.02.533 1.853.659 1.853.125 0 .228.21.228.467 0 .465 2.903 6.409 3.261 6.677.104.077.398.516.653.976 1.019 1.831 3.53 3.703 5.415 4.035.562.099 1.137.266 1.278.371.14.105 1.347.273 2.681.374 2.721.206 3.325.424 3.325 1.202 0 .578 1.093 1.745 1.635 1.745 1.432 0 1.718 1.505.503 2.641-1.509 1.413-1.736 1.581-2.618 1.947-.463.192-.975.475-1.139.63-.345.327-4.611 2.194-5.012 2.194-.149 0-.27.097-.27.215s-.661.361-1.47.539c-.808.179-1.929.526-2.492.771-.562.246-1.77.598-2.683.782-.914.185-1.719.419-1.789.522-.071.102-1.336.377-2.812.609-1.476.232-2.883.532-3.127.665-1.402.765-5.869.053-6.272-1-.225-.587-1.123-1.295-1.655-1.305-.246-.005-.448-.107-.448-.227 0-.318-3.266-.806-6.579-.984-1.583-.084-2.877-.251-2.877-.37s-2.186-.217-4.857-.217c-3.067 0-4.856.094-4.856.256 0 .14-.537.255-1.193.255-1.899 0-4.359.518-4.967 1.045-.557.484-2.012.996-2.834.999-.238.001-.504.116-.591.257-.198.32-7.627.345-8.246.027-.244-.125-2.28-.417-4.524-.648-2.244-.232-4.142-.509-4.217-.617-.076-.108-1.489-.405-3.14-.66-1.652-.255-3.004-.547-3.004-.648 0-.101-.833-.331-1.853-.51-1.019-.18-1.969-.419-2.11-.532-.142-.114-1.062-.391-2.045-.616-.983-.226-2.132-.571-2.554-.768-.422-.196-1.342-.5-2.045-.674-.702-.173-1.335-.388-1.405-.477-.071-.088-.646-.318-1.278-.51-.633-.192-1.38-.484-1.662-.649-.281-.165-1.115-.514-1.853-.777-.738-.262-1.342-.561-1.342-.665 0-.103-.243-.265-.542-.359-2.647-.841-5.431-4.382-4.095-5.208.148-.091.348-.666.446-1.278.124-.774.322-1.15.651-1.236.26-.068.473-.214.473-.324 0-.11.575-.407 1.278-.66.703-.252 1.278-.543 1.278-.646 0-.103.633-.371 1.406-.596.773-.225 1.406-.492 1.406-.595 0-.102.462-.33 1.027-.507 1.791-.559 7.406-5.011 7.408-5.874 0-.105.287-.525.639-.934.351-.408.638-.835.638-.947 0-.113.279-.616.621-1.119.341-.503.695-1.256.787-1.673.091-.417.253-.758.36-.758.106 0 .397-.949.646-2.109.248-1.159.583-2.384.744-2.722.424-.889.401-9.604-.027-10.032-.175-.175-.319-.596-.319-.934 0-.941-.823-4.139-1.064-4.139-.118 0-.214-.2-.214-.445 0-.451-1.736-4.176-2.055-4.411-.096-.071-.378-.531-.628-1.023-.249-.492-.61-.986-.802-1.099-.192-.112-.349-.345-.349-.518 0-.172-.316-.615-.703-.984-.387-.368-1.059-1.055-1.494-1.526-1.072-1.162-3.057-2.823-3.892-3.258-.376-.196-.742-.44-.812-.543-.316-.461-3.629-1.773-4.879-1.932-.761-.096-1.544-.304-1.742-.461-.497-.396-12.493-.399-12.749-.003-.101.155-.61.361-1.133.457-.523.096-1.098.316-1.278.489-.18.173-.816.531-1.414.796-.597.264-1.086.571-1.086.681 0 .109-.204.264-.453.343-.249.079-.853.493-1.342.919-.489.426-1.449 1.261-2.133 1.854-2.397 2.079-6.19 6.026-6.976 7.26-.252.396-.534.778-.627.848-.591.448-2.739 4.707-3.081 6.109-.157.646-.395 1.315-.529 1.486-.133.17-.299 1.493-.368 2.939-.194 4.048-.765 5.115-2.081 3.892-1.782-1.655-2.696-2.64-3.013-3.244-.203-.386-.467-.703-.587-.703-.12 0-.362-.347-.538-.773-.176-.425-.449-.856-.606-.958-.157-.102-.507-.588-.778-1.08-.27-.492-.561-.952-.644-1.023-.084-.07-.668-.932-1.297-1.916-.628-.985-1.23-1.828-1.336-1.875-.106-.047-.193-.219-.193-.383s-.284-.628-.631-1.032c-.347-.403-.777-1.065-.957-1.47-.179-.404-.395-.736-.48-.736-.085 0-.371-.489-.636-1.086-.265-.597-.627-1.238-.805-1.424-.179-.186-.325-.446-.325-.578 0-.132-.222-.728-.494-1.323-1.465-3.212-2.061-4.639-2.061-4.935 0-.181-.148-.482-.329-.667-.181-.186-.549-1.086-.818-1.999-.27-.914-.559-1.719-.643-1.79-.083-.07-.368-.875-.632-1.789-.264-.913-.559-1.776-.655-1.917-.097-.14-.38-1.118-.629-2.172-.25-1.055-.547-2.037-.661-2.183-.115-.147-.401-1.469-.636-2.94-.236-1.47-.538-2.911-.672-3.203-.579-1.264.35-7.947 1.269-9.128.132-.171.453-.914.712-1.652.26-.738.549-1.342.642-1.342.094 0 .377-.546.629-1.214.252-.667.539-1.271.636-1.341.098-.071.392-.588.654-1.151.262-.562.57-1.137.683-1.278.283-.35 2.142-3.832 2.798-5.239.294-.633.606-1.208.691-1.278.086-.07.673-1.163 1.306-2.428.632-1.265 1.214-2.358 1.292-2.428.078-.071.299-.531.489-1.023.191-.492.487-1.067.657-1.278.171-.211.468-.843.66-1.405.192-.563.423-1.08.512-1.151.09-.07.357-.7.593-1.399.237-.699.534-1.397.661-1.55.334-.402 1.006-3.404 1.01-4.512.003-.518.119-1.014.26-1.101.14-.087.255-.496.255-.91 0-.413-.115-.751-.255-.751-.141 0-.257-.432-.259-.959-.004-1.215-.666-3.737-1.012-3.853-.145-.048-.266-.279-.27-.513-.004-.234-.291-.944-.638-1.576-.347-.633-.806-1.524-1.019-1.981-.213-.457-.501-.831-.639-.831-.139 0-.253-.124-.253-.276 0-.641-2.589-3.455-4.654-5.059-.744-.577-1.521-1.195-1.727-1.372-.207-.177-.61-.45-.895-.607-.286-.156-1.439-.817-2.564-1.467-1.124-.651-2.188-1.184-2.364-1.185-.176-.001-.32-.099-.32-.217s-.718-.429-1.597-.69c-.879-.262-1.656-.558-1.727-.658-.623-.877-22.384-.851-23.001.028-.071.1-1.508.263-3.193.362-3.814.223-6.619.571-7.215.895-.25.136-1.001.443-1.669.681-.668.239-1.214.533-1.214.654 0 .122-.144.222-.32.224-.332.002-2.234 1.391-3.14 2.291-.286.285-.614.518-.729.518-.187 0-2.2 2.01-3.625 3.619-1.158 1.308-3.177 4.004-3.177 4.243 0 .14-.164.39-.365.557-.38.316-1.982 3.507-2.316 4.616-.106.351-.322.8-.481.998-.374.465-.381 4.938-.009 5.416.154.197.484 1.107.733 2.02.249.914.533 1.719.631 1.79.098.07.39.817.65 1.661.259.843.616 1.763.794 2.045.177.281.451 1 .608 1.597.157.597.397 1.086.532 1.086s.246.187.246.416c0 .229.359 1.178.797 2.109 2.622 5.565 3.237 6.958 3.433 7.763.093.386.254.703.357.703.103 0 .34.489.526 1.086.187.597.55 1.445.808 1.883.258.439.469.924.469 1.079 0 .155.279.893.621 1.64.884 1.933 1.418 3.413 1.866 5.174.215.844.502 1.752.638 2.019.137.267.347 2.452.468 4.856.294 5.878.486 8.106.749 8.716.121.282.415 1.949.652 3.706.237 1.758.509 3.253.604 3.323.095.07.375 1.202.623 2.516.247 1.313.55 2.578.673 2.811.123.233.418 1.287.655 2.341.237 1.054.518 2.032.624 2.172.107.141.339.889.517 1.662.177.773.403 1.521.502 1.661.099.141.39 1.061.646 2.045.257.984.54 1.846.63 1.917.09.07.382.875.65 1.789.267.914.552 1.719.633 1.789.081.07.358.818.616 1.661.258.844.556 1.649.663 1.79.106.14.397.888.647 1.661.249.773.61 1.632.8 1.91.191.277.347.668.347.87 0 .201.345 1.096.767 1.988.421.893.766 1.795.766 2.006 0 .21.097.382.214.382.118 0 .43.633.692 1.406.263.773.546 1.406.628 1.406.082 0 .365.632.627 1.406.263.773.567 1.405.675 1.405.108 0 .273.259.365.575.25.855 2.693 5.883 3.073 6.326.181.211.534.901.786 1.534.251.632.554 1.265.674 1.406.262.308.985 1.631 1.747 3.195.308.632.654 1.211.769 1.286.116.076.393.536.616 1.023.224.487.74 1.461 1.147 2.163.856 1.478 1.534 2.903 1.534 3.226 0 .124.103.225.23.225.126 0 .436.575.689 1.278.253.703.534 1.278.624 1.278.091 0 .308.489.483 1.086.175.597.481 1.342.681 1.654.751 1.177 1.099 3.517.805 5.414-.288 1.865.039 5.564.52 5.875.133.086.401.606.596 1.157.443 1.245 2.257 3.098 3.223 3.291 1.526.306 3.138 2.471 3.14 4.219.002 1.866 2.773 5.652 5.024 6.864.469.253.854.543.854.645 0 .101.632.383 1.405.627.774.244 1.406.523 1.406.62 0 .284 1.44.511 4.821.76 1.738.128 3.29.333 3.45.456.161.123.837.371 1.504.552 1.284.347 1.477.484 3.908 2.772 1.708 1.608 2.375 2.163 6.189 5.151 1.441 1.128 2.696 2.052 2.79 2.052.094 0 .353.172.576.382.728.688 2.831 2.174 3.078 2.174.132 0 .332.143.445.319.239.374 1.037.91 1.674 1.124.246.082.447.24.447.35 0 .178.861.791 2.383 1.698.274.163.568.394.655.513.086.12.588.444 1.115.721.527.276.959.584.959.683 0 .099.21.247.466.328.256.081.688.348.958.592.271.245.838.614 1.259.821.422.207.94.526 1.151.709.64.556 2.358 1.633 2.986 1.872.326.124.592.325.592.448s.489.439 1.086.702c.598.263 1.174.617 1.28.786.107.17.595.441 1.086.603.491.162.893.391.893.509s.518.412 1.15.654c.633.241 1.15.526 1.15.632 0 .106.432.379.959.606.527.226 1.131.525 1.342.663.21.138 1.073.551 1.917.917.843.367 2.108.929 2.811 1.25.703.32 1.738.728 2.3.907.563.179 1.08.4 1.151.492.137.18 2.71 1.037 3.114 1.037.135 0 .407.162.605.36.198.198.822.438 1.387.533.565.096 1.028.269 1.028.386 0 .117.805.42 1.789.673.984.254 1.789.538 1.789.633 0 .094.834.374 1.853.621 1.019.247 1.911.529 1.981.626.07.096.933.388 1.917.648s1.846.547 1.917.639c.07.091.933.376 1.917.633.984.256 1.904.548 2.044.649.141.1 1.176.392 2.301.65 1.124.257 2.102.545 2.172.64.071.095.818.313 1.662.485.843.173 1.649.407 1.791.522.142.114 1.349.413 2.684.664 1.334.252 2.483.528 2.553.616.071.087 1.209.289 2.53.448 1.813.22 2.643.45 3.381.939.539.356 1.051.647 1.14.647.088 0 .637.373 1.219.827 1.253.979 1.084.827 3.699 3.327 1.139 1.089 2.24 1.981 2.445 1.981.206 0 .542.168.747.373 1.095 1.094 18.128 1.195 18.535.11.047-.125.396-.228.777-.228 1.06 0 3.659-.739 3.971-1.129.153-.191.738-.484 1.301-.65.562-.165 1.252-.408 1.533-.538 1.013-.468 10.866-2.002 12.972-2.018.667-.005 1.214-.108 1.214-.228 0-.12 1.236-.295 2.747-.389 4.326-.269 8.324-.685 8.882-.924.281-.12 2.179-.414 4.217-.653 2.039-.239 3.764-.512 3.834-.609.07-.096 1.508-.386 3.195-.644 1.687-.259 3.125-.551 3.195-.65.07-.098 1.217-.376 2.548-.617s2.539-.53 2.684-.642c.145-.112 1.011-.346 1.924-.521.914-.175 1.719-.399 1.79-.498.07-.099 1.105-.387 2.3-.639 1.195-.253 2.23-.539 2.3-.636.07-.097 1.019-.383 2.109-.635 1.089-.252 1.981-.545 1.981-.652 0-.106.661-.339 1.469-.517.809-.178 1.934-.533 2.501-.789.567-.255 1.372-.544 1.789-.641.417-.097.994-.323 1.282-.502.289-.179 1.237-.526 2.109-.771.871-.244 1.584-.519 1.584-.61 0-.092.518-.319 1.151-.506.632-.187 1.15-.414 1.15-.505 0-.091.478-.314 1.062-.496.971-.303 1.839-.68 5.759-2.5.729-.339 1.448-.616 1.597-.616.15 0 .272-.092.272-.205 0-.113.575-.412 1.278-.665.703-.253 1.278-.544 1.278-.648 0-.104.46-.341 1.022-.527.562-.185 1.023-.418 1.023-.517 0-.099.546-.386 1.214-.639.667-.252 1.271-.538 1.341-.636.071-.097.761-.384 1.534-.636s1.463-.535 1.534-.628c.07-.094.932-.381 1.916-.638.984-.257 1.905-.552 2.045-.655.503-.368 3.64-.774 7.221-.935 2.003-.089 3.642-.247 3.642-.35 0-.102.509-.263 1.132-.356.623-.093 1.417-.394 1.766-.668.348-.274.766-.498.928-.498.47 0 11.509-11.211 11.509-11.689 0-.098.237-.412.527-.698.289-.287.98-1.153 1.534-1.926.554-.774 1.11-1.532 1.235-1.686.126-.153.429-.671.674-1.15.246-.479.525-.928.62-.998.348-.256 1.306-2.515 1.687-3.978.215-.826.476-1.562.579-1.637.103-.075.4-.618.659-1.207.26-.589.631-1.132.824-1.206.193-.074.351-.29.351-.479 0-.354 1.677-1.972 2.043-1.972.626 0 1.85-2.596 1.692-3.586-.143-.894-.102-1.015.34-1.015 1.243 0 1.784-.392 5.457-3.955 2.42-2.347 3.751-3.829 6-6.683.319-.405.814-1.023 1.1-1.375.286-.351 1.2-1.559 2.031-2.684.831-1.124 1.607-2.159 1.724-2.3.118-.141.434-.629.704-1.086.269-.457.562-.831.651-.831.089 0 .369-.46.623-1.022.253-.563.544-1.023.646-1.023.103 0 .329-.345.504-.766.174-.422.401-.767.503-.767.102 0 .393-.46.647-1.022.253-.563.541-1.023.639-1.023.098 0 .393-.489.657-1.086.263-.598.558-1.144.655-1.215.212-.155 1.324-2.09 1.894-3.295.225-.478.574-1.032.774-1.232.2-.2.434-.644.52-.985.086-.342.236-.621.335-.621.098 0 .389-.489.646-1.087.258-.597.606-1.258.774-1.469.168-.211.462-.786.653-1.278s.427-.952.524-1.023c.279-.201 2.279-4.181 2.28-4.536 0-.176.1-.32.221-.32.122 0 .427-.546.68-1.214.252-.668.535-1.271.628-1.342.267-.2 1.743-3.372 1.934-4.153.094-.387.268-.703.386-.703s.414-.633.658-1.406c.244-.773.528-1.405.631-1.405.103 0 .395-.806.649-1.79.253-.984.55-1.789.66-1.789.109 0 .199-.28.199-.622 0-1.376 2.489-4.745 3.505-4.745.181 0 .329-.114.329-.252 0-.139.402-.421.894-.626.492-.206.895-.487.895-.625 0-.139.221-.322.493-.408.61-.194 2.408-2.022 2.87-2.919.189-.366.463-.794.61-.951.147-.157.417-.79.6-1.406.183-.616.437-1.32.563-1.564.295-.567.303-4.21.01-4.391-.122-.075-.288-.549-.37-1.053-.164-1.013-1.641-4.23-2.074-4.518-.371-.248-.356-5.642.016-6.109.155-.195.428-1.159.608-2.143.18-.984.407-1.847.506-1.917.099-.07.385-.99.637-2.045.251-1.054.541-2.032.644-2.172.103-.141.33-.888.505-1.662.175-.773.465-1.641.645-1.929.18-.289.527-1.237.772-2.109.244-.871.526-1.585.626-1.585.099 0 .396-.718.66-1.597.263-.879.617-1.74.786-1.914.169-.175.389-.686.488-1.136.099-.45.323-.963.499-1.139.176-.176.475-.843.664-1.484.189-.64.418-1.164.509-1.164.091 0 .371-.546.623-1.214.253-.668.538-1.272.634-1.342.096-.07.381-.674.633-1.342s.529-1.215.615-1.217c.087-.001.386-.49.665-1.086.279-.596.576-1.141.661-1.211.266-.222 4.256-7.512 4.441-8.115.096-.316.267-.575.379-.575.112 0 .402-.633.645-1.406.244-.772.537-1.463.653-1.535.116-.072.417-1.021.669-2.109.252-1.089.578-2.061.724-2.161.348-.239.326-8.356-.023-8.593-.139-.094-.459-1.378-.712-2.854-.252-1.476-.546-2.799-.653-2.94-.106-.14-.399-1.118-.65-2.172-.252-1.055-.533-1.975-.626-2.045-.093-.07-.381-.818-.64-1.661-.258-.844-.545-1.591-.636-1.662-.091-.07-.367-.665-.613-1.321-.246-.657-.614-1.332-.817-1.501-.204-.169-.37-.445-.37-.614 0-.169-.342-.758-.76-1.31-.418-.553-.763-1.121-.767-1.262-.004-.142-.237-.402-.518-.578-.281-.175-.511-.447-.511-.603 0-.156-1.244-1.506-2.765-3.001-2.721-2.674-3.35-3.237-4.756-4.251-.39-.281-1.11-.822-1.601-1.204-.49-.381-1.111-.762-1.38-.847-.269-.086-.489-.245-.489-.355 0-.11-.46-.407-1.022-.661-.562-.253-1.022-.536-1.022-.628 0-.092-.46-.371-1.023-.619-.562-.248-1.022-.534-1.022-.636 0-.101-.518-.398-1.15-.659-.633-.261-1.15-.572-1.15-.691s-.157-.217-.348-.217c-.191 0-.754-.276-1.25-.612-.496-.337-1.346-.768-1.889-.958-.542-.189-1.044-.413-1.114-.497-.07-.083-.933-.354-1.917-.602s-2.019-.55-2.3-.673c-.621-.27-4.846-1.001-5.794-1.002-.375-.001-.72-.106-.766-.233-.047-.128-2.213-.429-4.814-.669-2.601-.241-4.959-.533-5.24-.65-.281-.117-2.984-.342-6.006-.5-3.022-.158-5.84-.388-6.262-.509-.422-.122-2.476-.391-4.564-.597-2.089-.205-3.923-.5-4.077-.653-.328-.328-1.671-.358-2.222-.049m7.029 9.74c17.312.47 28.738 1.665 34.272 3.584 16.143 5.599 26.585 19.169 25.204 32.754-2.522 24.813-29.384 36.903-72.255 32.519-9.864-1.009-14.7-2.016-18.258-3.803-2.891-1.452-4.421-1.862-5.265-1.41-1.953 1.045-17.823-11.227-21.16-16.362-6.89-10.604-4.827-25.455 4.634-33.366 8.256-6.902 25.548-13.269 37.748-13.898 5.595-.289 5.114-.288 15.08-.018m-6.773 9.616c-13.993.426-20.146 1.755-27.075 5.851-5.667 3.35-11.467 9.011-12.564 12.262-2.635 7.812 6.551 19.872 19.447 25.531 13.016 5.711 38.144 7.381 51.881 3.448 19.823-5.676 26.169-27.383 11.25-38.48-9.291-6.911-21.091-9.277-42.939-8.612m13.731 4.754c.734.581-1.348 2.902-3.43 3.823-1.483.656-4.499.575-4.633-.125-.423-2.22 6.134-5.228 8.063-3.698m-12.709.196c1.072 1.072.316 2.498-1.893 3.567-2.631 1.274-4.475.149-3.344-2.039.944-1.825 4.038-2.728 5.237-1.528m20.564 1.366c1.286.94-.884 2.818-3.09 2.674-1.546-.101-1.96-.66-1.222-1.648.872-1.169 3.32-1.751 4.312-1.026m8.593 1.847c1.258 1.138-.174 2.815-2.191 2.567-1.403-.172-2.364-1.238-1.839-2.038.807-1.227 2.949-1.508 4.03-.529m-308.788.377c12.855 3.07 21.826 10.012 21.804 16.872-.012 3.642-6.76 11.166-11.989 13.367-6.476 2.726-27.345 2.68-33.227-.072-6.525-3.053-11.924-14.429-8.771-18.479C16.038 35.347 27.29 30.008 37.7 28.53c1.275-.181 4.046.093 6.247.619m281.439 4.623c1.153 2.155-1.454 5.144-4.79 5.493-2.946.308-3.419-.727-1.28-2.802 2.64-2.56 5.468-3.814 6.07-2.691m11.176-.238c.932.931-.28 2.72-2.374 3.504-1.721.644-4.731.998-4.731.556 0-2.34 5.616-5.55 7.105-4.06m-20.14 1.179c0 1.111-5.881 5.707-7.356 5.748-2.981.085-2.174-3.323 1.197-5.052 1.39-.714 6.159-1.252 6.159-.696m29.885.669c1.365 1.235-1.947 3.979-4.802 3.979-1.671 0-1.513-3.009.22-4.197.887-.607 3.824-.467 4.582.218m11.022-.232c1.965 1.017-.035 3.955-2.692 3.955-3.671 0-5.237-2.538-2.368-3.84 1.347-.612 3.983-.672 5.06-.115m-322.824.742c-3.494.729-9.499 3.172-11.445 4.656-1.558 1.189-1.95 3.34-1.318 7.248.589 3.642 1.279 4.051 11.101 6.593 5.042 1.305 8.721 1.338 11.703.106 9.252-3.824 11.564-6.721 9.21-11.542-2.7-5.53-11.362-8.708-19.251-7.061m266.13 2.543c.493.754-.644 2.276-1.946 2.602-1.434.36-2.664-1.53-1.581-2.429.907-.753 3.079-.86 3.527-.173m64.316-.325c2.014.702 1.256 3.04-.985 3.04-2.443 0-3.403-2.405-1.212-3.038 1.125-.325 1.269-.326 2.197-.002M34.76 42.055c0 1.54-3.044 5.485-4.234 5.485-1.086 0-1.487-1.736-.785-3.395.833-1.967 5.019-3.71 5.019-2.09m7.157.15c0 1.634-4.425 7.375-5.687 7.378-1.229.004.466-3.435 2.977-6.036 1.854-1.921 2.71-2.345 2.71-1.342m286.446.638c.833.223.211 1.282-1.673 2.85-2.585 2.152-3.878 2.307-3.878.467 0-2.083 3.145-3.962 5.551-3.317m10.806.44c2.567 1.199-1.483 4.548-4.669 3.862-2.673-.576-4.095-3.585-1.921-4.065 1.932-.426 5.478-.316 6.59.203m10.541-.331c2.818.783-1.165 6.121-4.566 6.121-2.745 0-.828-4.876 2.364-6.014 1.217-.434 1.054-.426 2.202-.107m-45.757 1.765c2.265 1.995 1.729 4.042-1.161 4.439-2.212.303-2.907-.294-1.83-1.573.923-1.097 1.445-2.71 1.138-3.517-.136-.357-.247-.703-.247-.769 0-.24.922.383 2.1 1.42m12.916.264c1.142.697 1.094 1.251-.185 2.126-1.474 1.01-5.374.229-5.374-1.076 0-1.448 3.745-2.156 5.559-1.05m43.559-.118c7.28 1.093 8.254 1.777 6.454 4.53-.958 1.464-1.313 1.294-4.284-2.058-.972-1.096-1.909-1.087-3.172.032-2.801 2.48-4.41 2.257-4.41-.611 0-2.23.952-2.563 5.412-1.893M44.475 46.392c.447.539.167 1.965-.664 3.383-.638 1.088-.713 1.139-1.032.703-1.329-1.818.307-5.76 1.696-4.086m288.42 4.767c2.446 1.115-.704 3.998-4.636 4.244-2.394.149-2.45.092-1.358-1.392 1.682-2.288 4.397-3.579 5.994-2.852m21.613.346c.475.572.116 2.609-.656 3.723-1.865 2.69-6.123 2.108-5.276-.721.677-2.26 4.811-4.352 5.932-3.002m-41.991 1.821c.453.619.409 1.032-.17 1.612-1.608 1.608-5.311.134-4.037-1.607.703-.962 3.505-.966 4.207-.005m8.469.025c.886.658 1.025 1.72.278 2.12-1.471.787-5.151-1.059-4.435-2.225.566-.919 2.857-.862 4.157.105m23.072-.699c1.22 0-.112 2.38-2.163 3.866-1.68 1.217-2.724.808-3.131-1.227-.315-1.579 1.893-3.066 4.079-2.747.405.059.951.108 1.215.108m17.193 1.938c.487 1.27-.293 2.662-1.492 2.662-.756 0-1.006-.346-.811-1.123.367-1.463 1.931-2.508 2.303-1.539m-42.416 5.02c.399.568.55 2.828.243 3.628-.314.819-5.023-.34-5.404-1.331-.513-1.339 4.324-3.493 5.161-2.297m10.176.076c3.139 1.097 3.226 1.686.462 3.126-3.067 1.597-5.389.864-5.383-1.7.005-2.006 1.785-2.522 4.921-1.426m10.593 1.56c.947.707.985 1.011.217 1.723-1.241 1.151-4.327 1.087-5.527-.113-1.649-1.648 3.263-3.138 5.31-1.61m11.275-.153c1.174.716 1.062 1.67-.277 2.362-1.181.611-2.41.446-3.237-.434-1.519-1.617 1.398-3.218 3.514-1.928m-323.815 5.89c1.632.278 4.061.819 5.396 1.202 3.294.945 10.635.998 15.336.111 6.619-1.249 8.945-1.07 8.945.687 0 4.638-11.186 9.288-22.364 9.296-8.511.006-13.342-2.754-14.944-8.537-1.091-3.936-.509-4.146 7.631-2.759M284.23 77.34c7.62 4.237 12.613 5.484 32.064 8.006 15.362 1.992 21.396 2.281 25.177 1.206 6.391-1.817 21.521-3.399 23.839-2.492 1.453.568.962 1.919-.808 2.222-3.336.572-6.273 1.288-8.895 2.169-9.35 3.143-31.024 3.792-40.528 1.215-3.418-.927-4.791-.738-4.791.659 0 2.373 5.869 3.876 16.613 4.254 10.011.353 12.51 1.224 10.619 3.702-1.646 2.158-4.853 2.857-10.108 2.202-13.033-1.623-15.478-1.724-15.747-.651-.403 1.605 2.235 2.606 9.741 3.695 6.067.88 7.935 1.29 9.584 2.104 5.306 2.617-6.919 2.948-20.063.543-4.061-.743-11.218-2.167-12.141-2.416-.492-.133-2.16-.542-3.706-.909-5.67-1.347-10.386-2.995-11.588-4.05-2.554-2.241-5.618-23.655-3.384-23.655.095 0 1.95.988 4.122 2.196m91.182 1.433c1.119 1.119-7.752 25.764-9.636 26.772-.995.533-1.044-.434-.154-3.05.351-1.032.929-3.151 1.285-4.71 1.215-5.322 1.68-6.923 2.453-8.456.992-1.965 1.864-4.258 2.37-6.234.92-3.59 2.527-5.477 3.682-4.322M48.243 84.759c2.389.162 2.539.347 1.278 1.568-3.841 3.716-24.729 3.313-24.729-.478 0-1.183 13.1-1.791 23.451-1.09m-3.642 8.532c6.041.488 7.908 1.4 6.184 3.02-3.325 3.124-21.951 4.003-24.201 1.143-.801-1.019-.69-2.436.254-3.23.704-.593 1.153-.716 3.705-1.021 1.705-.203 11.187-.144 14.058.088m317.937.146c1.22 1.22.025 2.751-2.042 2.616-1.574-.102-1.982-.655-1.231-1.667.953-1.283 2.492-1.73 3.273-.949m-17.51 1.849c1.351 1.001 1.339 1.958-.044 3.533-2.202 2.509-4.728 1.483-4.453-1.807.194-2.305 2.513-3.196 4.497-1.726m9.696-.436c1.578.55 1.196 2.716-.704 3.992-1.254.841-2.38.77-3.199-.203-1.871-2.225.84-4.857 3.903-3.789m-75.363 8.267c5.319 2.272 5.38 2.286 9.968 2.315 4.551.03 4.703.066 6.551 1.559 6.183 4.995 55.914 8.822 72.384 5.571 2.891-.571 4.025.073 3.529 2.007-.368 1.435-4.991 3.097-9.744 3.503-11.949 1.02-46.338-.125-53.031-1.766-.497-.122-2.943-.742-5.437-1.379-2.494-.636-7.037-1.696-10.096-2.355-8.206-1.767-13.383-3.737-16.736-6.371-3.96-3.11-2.23-5.153 2.612-3.084m-226.858-.11c3.195.311 3.603.555 3.508 2.101-.355 5.776 11.068 26.023 19.734 34.976 3.534 3.652 5.277 6.057 5.277 7.281 0 2.79-14.269 17.289-16.664 16.932-2.117-.316-.755-2.951 2.962-5.729 2.855-2.134 3.99-3.622 3.99-5.23 0-2.283-1.33-2.535-3.828-.725-1.206.874-3.57 1.892-5.564 2.398-.809.205-2.333.592-3.388.859-1.62.411-2.457.505-2.023.228 1.47-.94 6.949-6.777 7.733-8.239 1.802-3.358.635-3.769-3.545-1.249-4.914 2.963-7.85 3.385-9.641 1.387-1.602-1.789-.424-3.03 4.999-5.261 5.419-2.231 5.178-5.023-.273-3.158-3.891 1.332-7.089 1.203-7.875-.317-.805-1.556.243-2.695 4.308-4.683 2.162-1.058 2.995-1.873 2.995-2.932 0-1.633-.978-1.663-4.073-.125-3.847 1.911-4.921 1.815-7.272-.65-1.772-1.858-1.772-1.943-.007-2.151 2.228-.261 4.233-1.507 5.598-3.477 1.099-1.584.778-1.684-3.267-1.016-1.898.314-3.742.497-4.098.408-2.428-.61-1.668-3.763 1.239-5.137 3.459-1.637 2.546-3.48-1.896-3.827-4.691-.367-5.242-2.007-1.343-4 3.189-1.629 2.789-3.533-.85-4.048-3.231-.458-4.673-2.823-2.429-3.983 1.556-.805 10.297-1.157 15.693-.633m-21.899 1.131c.948 1.077 1.6 2.557 1.6 3.63 0 6.5 12.535 36.99 19.898 48.398 5.695 8.825 7.087 11.72 6.106 12.7-.792.792-3.038-1.014-6.097-4.904-4.333-5.509-15.13-27.46-16.318-33.174-.201-.968-.482-1.587-.812-1.789-1.479-.904-4.961-11.621-6.851-21.088-.908-4.547.245-6.305 2.474-3.773m319.747.304c1.873.502-1.44 6.229-3.604 6.229-1.215 0-2.211-.843-2.209-1.872.002-2.272 3.582-4.955 5.813-4.357m9.613.002c1.6.219 1.512.575-.52 2.096-2.622 1.964-4.935 2.349-5.464.909-.676-1.837 2.58-3.472 5.984-3.005m-20.292.764c1.419 1.194 2.862 5.523 2.096 6.289-.753.753-5.41-3.919-5.41-5.428 0-1.317 2.118-1.867 3.314-.861m-226.529 6.375c5.546 1.145 12.849 5.745 13.159 8.289 1.401 11.491 1.215 14.322-1.273 19.425-2.606 5.346-7.09 8.704-11.678 8.745-3.67.033-3.631-2.355.113-6.992 3.438-4.258 4.145-5.25 5.117-7.173 1.403-2.778 1.677-4.292 1.17-6.476-1.703-7.345-11.449-12.167-18.388-9.098-4.323 1.912-6.122 7.436-4.881 14.988 1 6.083.084 7.858-3.197 6.198-3.602-1.822-6.04-11.01-4.375-16.488 2.443-8.046 14.059-13.519 24.233-11.418m169.279 3.914c4.939 1.66 5.863 1.938 8.568 2.581 8.303 1.973 21.336 4.027 31.694 4.995 8.532.798 9.831.874 19.425 1.136 14.328.392 20.83.807 20.83 1.329 0 .757-4.856 10.369-6.06 11.995-2.145 2.897-4.129 4.278-7.161 4.983-4.035.938-5.483-.219-6.48-5.177-1.174-5.835-3.728-6.644-6.344-2.008-4.423 7.837-13.752 6.869-14.35-1.49-.362-5.049-2.242-5.246-8.856-.928-5.698 3.721-8.456 4.44-11.372 2.963-3.128-1.584-5.229-4.401-5.618-7.532-.408-3.288-.6-3.345-5.53-1.635-9.839 3.411-16.638-.863-15.526-9.762.386-3.085 1.322-3.285 6.78-1.45m-50.964 2.945c6.222 1.984 10.948 8.622 10.934 15.36-.013 6.278-3.911 7.592-5.433 1.832-2.482-9.396-14.858-14.477-21.141-8.68-7.238 6.678-4.098 17.087 6.81 22.571 4.53 2.277 5.237 3.979 2.292 5.511-4.21 2.191-15.597-3.714-18.402-9.542-2.205-4.582-2.477-6.78-1.415-11.466 2.089-9.224 4.113-11.221 15.6-15.397 3.461-1.258 7.196-1.324 10.755-.189m-122.001 5.309c.808.154 1.47.372 1.47.484 0 .112.25.283.556.38 1.087.345 3.277 3.072 3.277 4.081 0 1.432-3.23 5.316-4.687 5.636-.84.185-3.492-.093-3.492-.365 0-.1-.504-.33-1.121-.512-2.697-.797-4.051-6.286-2.086-8.457.218-.241.396-.566.396-.722 0-.974 2.251-1.182 5.687-.525m163.668 5.725c.689.361 1.889 1.147 2.666 1.746 3.578 2.752 5.54 3.461 10.343 3.735 4.822.276 6.557.853 13.419 4.462 3.022 1.591 6.358 3.254 7.412 3.697 1.054.443 2.465 1.051 3.135 1.351 3.512 1.57 3.718 6.018.236 5.087-1.781-.477-4.132-1.452-8.227-3.414-6.038-2.893-6.75-3.121-7.026-2.252-.378 1.191 1.266 2.47 6.759 5.257 5.248 2.663 6.95 4.534 5.57 6.12-1.745 2.005-7.432.635-12.016-2.896-3.651-2.812-4.833-3.083-5.188-1.192-.336 1.788 1.083 3.23 5.189 5.276 2.572 1.281 4.026 2.448 5.732 4.603l.682.861 2.052-.073c3.692-.132 6.676 1.923 6.679 4.601.004 3.778-14.822-1.186-21.98-7.361-2.794-2.41-4.6-3.002-4.6-1.507 0 2.45 4.881 6.281 13.195 10.356 6.583 3.226 7.195 3.884 5.313 5.712-3.163 3.072-9.106.857-16.471-6.139-3.703-3.517-5.527-4.694-7.274-4.694-1.977 0-1.269.88 4.436 5.519 10.771 8.757 12.523 10.543 11.525 11.745-1.101 1.327-4.274-.33-12.786-6.673-11.782-8.781-27.963-23.812-27.029-25.109 3.391-4.709 11.69-14.933 14.201-17.495 2.165-2.21 2.289-2.25 4.053-1.323m-47.694.851c.071.1.505.334.966.52.73.296 2.265 1.649 3.693 3.257 1.516 1.706 1.244 3.523-.737 4.928-.681.483-1.295.95-1.366 1.038-.07.088-.53.382-1.022.652-.492.271-.963.584-1.045.696-.653.886-4.227.834-4.834-.07-.07-.105-.476-.369-.902-.587-4.942-2.53-3.563-8.624 2.436-10.763.476-.17 2.638.083 2.811.329m91.867 8.605c1.398 1.398-1.29 3.42-3.193 2.401-.747-.399-.613-1.38.292-2.141.903-.76 2.277-.884 2.901-.26m-211.208 1.112c1.375 1.375.704 3.219-1.54 4.231-2.846 1.283-4.053-2.291-1.463-4.333 1.094-.862 2.072-.829 3.003.102m236.933 2.21c1.258 1.138-.174 2.815-2.192 2.568-1.402-.173-2.364-1.239-1.838-2.039.806-1.227 2.948-1.508 4.03-.529m-106.897 1.828c2.657 1.973.796 10.005-1.975 8.521-2.083-1.114-4.627-7.45-3.416-8.504 1.022-.891 4.2-.901 5.391-.017M93.58 145.947c3.466 3.643 1.868 9.151-4.726 16.288-10.269 11.115-23.572 18.536-32.075 17.893-5.83-.44-4.053-3.605 4.305-7.666 6.488-3.152 9.61-5.4 17.709-12.754 8.98-8.154 12.187-11.685 12.195-13.425.007-1.704 1.15-1.852 2.592-.336m257.807 2.347c.944.945-.505 3.624-6.884 12.728-5.727 8.174-8.105 11.232-11.25 14.471-1.244 1.281-2.263 2.451-2.263 2.599 0 .148-.063.435-.141.637-.253.66 1.05 1.852 2.594 2.374l1.464.494-2.022.136c-2.729.183-4.44 1.025-8.923 4.394-4.888 3.673-7.265 4.792-7.71 3.632-.277-.722.489-1.663 5.793-7.118 6.149-6.325 7.84-8.32 10.851-12.801 2.242-3.338 3.967-5.378 4.761-5.63.617-.195 2.427-2.778 3.818-5.447 3.681-7.063 8.368-12.013 9.912-10.469m-30.9.272c1.266.651 1.712 1.597 1.23 2.607-.886 1.857-5.214 1.432-6.313-.62-.814-1.523 3.048-3.033 5.083-1.987m7.68 1.589c2.502.341 3.731 2.082 2.185 3.095-.9.59-3.829.416-4.784-.284-1.847-1.354-1.228-3.336.95-3.037.281.039 1.023.141 1.649.226m-81.534.509c1.437.729 5.285 3.764 8.471 6.684 1.209 1.107 4.085 3.744 6.393 5.859 6.392 5.861 14.95 12.818 20.676 16.809 7.477 5.211 13.616 8.943 17.441 10.601 1.302.564 4.61 1.971 7.351 3.127 10.368 4.372 11.098 4.934 9.009 6.949-3.156 3.045-9.729 3.612-16.549 1.425-4.24-1.359-10.539-5.184-20.447-12.419-16.806-12.27-18.108-13.029-19.728-11.507-1.631 1.531 1.789 5.284 11.025 12.098 12.34 9.105 22.406 14.643 30.683 16.882 5.518 1.493 6.279 2.578 3.628 5.174-5.236 5.125-19.181.448-38.776-13.006-21.807-14.973-41.244-37.96-35.209-41.639 3.283-2.002 7.745.633 12.261 7.237 6.314 9.237 12.971 14.779 15.143 12.607 1.475-1.474.605-2.949-6.201-10.511-8.075-8.974-10.648-13.264-9.4-15.678.771-1.49 2.193-1.723 4.229-.692m93.413.217c.669 1.062-1.387 3.233-2.74 2.893-1.711-.429-1.26-2.014.841-2.954 1.282-.574 1.503-.567 1.899.061m-231.618 1.39c2.184 2.184-1.61 7.286-15.822 21.278-15.387 15.148-23.172 19.983-27.805 17.268-3.634-2.129-2.097-4.174 6.637-8.829 10.098-5.383 25.766-19.574 29.012-26.278 1.983-4.095 5.713-5.703 7.978-3.439m206.8 2.71c3.623 1.514 2.37 5.548-1.736 5.585-3.138.028-5.165-1.267-4.35-2.78 1.265-2.349 4.076-3.644 6.086-2.805m9.536 3.347c1.928 1.351.932 4.228-1.463 4.228-1.754 0-2.762-1.726-1.994-3.412.509-1.118 2.392-1.562 3.457-.816m9.175 1.025c2.521 1.477 1.967 2.983-1.163 3.16-2.916.164-4.308-.848-3.449-2.51.87-1.681 2.468-1.906 4.612-.65m-220.929 8.856c7.916 4.116 11.423 5.58 14.296 5.965 1.154.155 1.554.336 3.87 1.746 1.549.944 6.09 1.827 12.089 2.351 8.284.724 13.554 1.776 14.371 2.869 1.013 1.355-.574 31.786-1.731 33.179-1.263 1.523-2.89-3.879-2.29-7.603.256-1.584.249-2.051-.041-2.657-.775-1.621-2.365-.628-2.637 1.646-.655 5.484-1.04 6.849-2.283 8.092-1.92 1.92-2.683.223-2.195-4.879.623-6.511-1.148-7.784-2.94-2.113-1.069 3.386-1.941 4.569-3.369 4.569-1.677 0-1.961-1.225-1.51-6.518.36-4.232-.98-4.231-3.216.002-2.844 5.386-5.997 5.264-5.101-.198.559-3.406.365-4.532-.778-4.532-.575 0-.853.185-1.186.79-1.706 3.096-2.608 3.881-4.428 3.856-2.206-.03-2.687-1.392-1.183-3.352 2.264-2.951 2.275-2.981 1.51-4.234-1.217-1.99-2.428-1.68-3.375.866-.937 2.519-2.801 3.864-4.629 3.34-2.425-.695-2.36-2.659.168-5.1 1.342-1.296 1.917-2.241 1.917-3.151 0-2.219-3.568-1.315-5.568 1.41-4.099 5.586-5.463 4.844-5.678-3.09l-.128-4.702-2.939 2.485c-4.802 4.06-7.743 5.77-9.927 5.77-2.584 0-2.104-1.735 1.538-5.558 4.683-4.915 4.494-8.379-.288-5.313-3.122 2.001-5.625 2.841-8.129 2.729-1.192-.053-1.032-.426.639-1.489 3.257-2.072 8.042-6.547 16.565-15.492 2.763-2.9 3.961-3.993 4.255-3.88.225.086 2.174 1.075 4.331 2.196m206.172-.45c.102 1.93-.796 2.976-2.556 2.976-3.125 0-2.902-2.226.382-3.818 1.992-.966 2.081-.931 2.174.842m7.44.536c1.553.803 1.568 2.536.028 3.332-1.872.968-4.103.143-4.086-1.512.019-1.823 2.179-2.792 4.058-1.82m-98.892 2.055c1.021.753 2.317 2.286 4.242 5.018 2.444 3.468 10.435 11.518 16.587 16.709 13.736 11.591 16.017 14.348 11.819 14.29-2.814-.038-3.997-.78-8.861-5.553-8.151-8.001-12.795-11.42-12.795-9.422 0 .775 1.648 2.912 4.823 6.253 4.497 4.732 5.213 6.146 3.573 7.063-1.254.7-3.952-.922-6.993-4.207-4.206-4.541-6.102-4.363-3.256.307.527.865 1.505 2.473 2.173 3.572 1.555 2.561 1.625 3.525.297 4.08-1.691.707-3.624-.402-6.202-3.557-3.732-4.568-5.028-3.691-3.076 2.083 1.171 3.465.891 4.655-1.188 5.045-1.401.263-2.08-.397-3.705-3.606-2.596-5.126-4.333-4.595-3.588 1.096.779 5.959-1.346 6.777-4.656 1.791-2.779-4.187-4.346-4.09-4.216.262.15 5.004-3.894 5.151-4.797.174-.314-1.733-1.549-3.697-2.324-3.697-1.009 0-1.277 3.589-.602 8.051 2.046 13.51-2.086 12.312-6.755-1.958l-1.602-4.896-.176 4.45c-.37 9.375-1.156 11.887-3.074 9.817-.817-.881-1.339-2.71-1.971-6.902-.579-3.835-1.079-34.648-.572-35.153.121-.12 2.06-.454 4.309-.744 10.333-1.328 19.223-4.221 24.792-8.067 4.641-3.206 6.015-3.611 7.794-2.299m-57.095 4.637c.547.371 1.486 1.107 2.087 1.635 2.645 2.327 6.592 2.982 7.094 1.178.496-1.784 1.881-2.621 3.059-1.849 1.236.809 1.43 2.255 1.688 12.547.32 12.79 1.016 22.029 2.283 30.288.507 3.309 1.122 6.507 2.803 14.569 1.96 9.407 1.811 10.894-1.029 10.251-5.386-1.218-9.061-11.858-11.134-32.232-.108-1.055-.207-7.783-.221-14.952-.026-13.33-.113-14.633-1.037-15.557-.885-.885-2.014.357-3.068 3.376-2.412 6.902-.684 36.687 2.834 48.858 2.969 10.271 2.949 10.655-.568 10.431-6.683-.426-12.494-21.189-12.47-44.552.02-19.316 2.615-27.425 7.679-23.991m139.912-.089c2.287 1.21 2.665 2.907.82 3.679-1.939.81-5.289-.146-5.929-1.693-.874-2.11 2.439-3.398 5.109-1.986m13.031-.28c0 1.287-3.365 5.432-5.165 6.362-2.741 1.416-4.245-.49-2.024-2.564 1.753-1.637 7.189-4.509 7.189-3.798m-22.092 6.568c2.972 1.35 3.842 3.479 1.824 4.464-1.186.58-2.781.285-4.371-.807-3.124-2.146-.961-5.25 2.547-3.657m10.463 4.859c1.707.973.342 2.27-2.603 2.472-4.361.3-6.265-2.14-2.305-2.954 1.455-.299 3.971-.052 4.908.482m-229.831 6.692c.704.433 2.368 1.612 3.698 2.619 4.844 3.672 7.63 5.611 8.88 6.181.703.321 2.371 1.495 3.707 2.61 3.385 2.826 6.201 4.76 14.646 10.061 4.79 3.008 7.888 5.677 7.437 6.408-.686 1.11-10.169-2.631-15.17-5.983-8.904-5.969-23.888-18.419-25.21-20.946-.957-1.828-.084-2.24 2.012-.95m22.93 6.113c.78.779.599 1.7-.588 3.003-.972 1.068-3.246.539-3.246-.755 0-1.931 2.617-3.466 3.834-2.248m9.041 4.588c1.463.556 1.394 2.171-.148 3.468-1.645 1.384-4.548.519-4.548-1.355 0-1.631 2.731-2.86 4.696-2.113m137.876 3.075c1.558 1.128 2.276 2.786 1.53 3.532-.921.921-4.896-.1-5.207-1.338-.609-2.426 1.566-3.724 3.677-2.194m17.259.763c1.641.63 2.767 1.984 3.092 3.718.395 2.107-.843 2.431-3.692.965-6.071-3.123-5.568-7.052.6-4.683m-146.818.932c.885 1.126.715 2.305-.5 3.461-2.286 2.175-3.9.755-2.914-2.563.739-2.488 1.918-2.799 3.414-.898m123.409 2.526c1.228 1.428.063 4.733-1.666 4.728-2.713-.009-4.901-2.461-3.887-4.356.796-1.487 4.387-1.728 5.553-.372m-115.936 1.427c.284.152.734.756 1 1.342 1.568 3.453-1.33 5.906-3.353 2.838-1.402-2.128.354-5.249 2.353-4.18m130.04.241c1.045.278 2.219.505 2.611.505 1.479 0 1.413 1.793-.084 2.257-1.704.528-2.434.564-4.18.207-.979-.2-2.44-.442-3.246-.537-2.604-.308-1.689-1.914 1.521-2.67 1.348-.317 1.268-.323 3.378.238m-24.768 1.08c2.771 1.4 3.138 4.732.614 5.565-1.722.569-3.957-.289-4.953-1.902-1.723-2.786 1.197-5.25 4.339-3.663m-95.357 1.463c1.918 1.026 1.523 6.382-.662 8.997-1.575 1.886-.768 2.467 5.825 4.192 7.416 1.94 8.949 2.399 11.209 3.354 3.338 1.41 4.801 2.74 3.973 3.61-.368.386-2.601-.07-7.319-1.496-1.463-.442-3.35-1.01-4.194-1.262-14.314-4.277-22.829-7.836-21.991-9.193.244-.395 1.652-.327 5.122.245 5.867.967 6.306.782 5.597-2.362-1.203-5.33-.31-7.557 2.44-6.085m84.726 1.681c1.355.888 2.141 4.218 1.197 5.072-1.038.939-4.001-1.108-4.291-2.964-.271-1.74 1.654-3.052 3.094-2.108m28.467.39c3.058 1.041 4.475 5.604 1.74 5.604-1.844 0-8.535-5.492-7.533-6.182.543-.374 4.014-.027 5.793.578m28.436-.521c2.294 1.228-6.154 7.089-12.72 8.824-1.378.364-3.828 1.124-5.444 1.688-8.673 3.028-10.651 3.683-15.029 4.976-12.978 3.832-23.625 5.686-37.367 6.506-10.077.602-15.716-.261-11.229-1.718 2.083-.676 4.104-.946 13.146-1.757 17.75-1.593 31.676-4.604 47.028-10.169 3.701-1.341 5.808-2.263 11.642-5.094 6.462-3.136 8.782-3.894 9.973-3.256m-66.646 1.555c.307.158.873.581 1.258.94 2.602 2.426-1.008 6.566-3.66 4.197-2.264-2.024-.186-6.466 2.402-5.137m-65.546 1.45c1.73 2.696 1.922 4.194.6 4.683-1.374.508-2.543-2.1-2.174-4.849.186-1.388.605-1.344 1.574.166m8.543.397c2.294.959 3.507 5.79 1.454 5.79-2.055 0-4.469-4.927-2.87-5.858.565-.329.452-.335 1.416.068m84.285 1.158c1.482.96 3.928 3.483 3.713 3.831-.853 1.379-4.987.913-6.359-.718-1.955-2.323.111-4.754 2.646-3.113m-10.868 3.87c2.087 1.01 2.652 3.629.815 3.781-1.708.141-5.041-1.795-5.041-2.929 0-1.306 2.322-1.774 4.226-.852m-11.586 1.244c1.563.595 3.819 3.586 3.234 4.29-.858 1.035-5.544-.052-6.325-1.467-.933-1.691 1.125-3.57 3.091-2.823m-11.894 2.058c1.811.822 2.13 2.447.604 3.08-1.026.424-1.957.15-2.988-.881-1.978-1.978-.379-3.454 2.384-2.199m-10.669.969c1.245 1.51.84 3.136-.782 3.136-.955 0-1.627-1.028-1.627-2.49 0-1.841 1.166-2.154 2.409-.646"/>
</svg>