<?xml version="1.0" encoding="UTF-8" standalone="no"?>
<!DOCTYPE svg PUBLIC "-//W3C//DTD SVG 1.1//EN" "http://www.w3.org/Graphics/SVG/1.1/DTD/svg11.dtd">
<svg xmlns="http://www.w3.org/2000/svg" width="272" height="315" viewBox="36 63 272 315">
  <defs>
    <clipPath id="a">
      <path d="M36 63h272v315H36Z"/>
    </clipPath>
  </defs>
  <g fill="none" clip-path="url(#a)">
    <path fill="#000" d="M289.92007 66.812485c-2.76 2.555555-5.31557 4.497775-5.72445 4.600005-1.43112 0-14.10667 11.96-17.37778 16.35556-10.73334 14.61778-15.43556 24.73778-20.85334 44.97779-1.73778 6.13333-4.39555 9.71111-8.17778 10.63111-1.43112.40889-5.21332 3.18-6.13332 3.18-2.76001 0-12.67557 5.71334-12.67557 7.14445 0 1.84 1.73777 2.86222 2.55555 1.53333.71556-1.12444 10.12002-1.32889 16.0489-.40889 4.49778.81778 10.63112 6.03111 11.65332 10.12 1.02224 3.98667-1.53332 7.66667-7.4622 10.73334-5.31557 2.76-6.64446 5.82667-2.35112 5.31556 4.70222-.51111 9.2.92 12.77778 4.08889 3.06667 2.55555 3.57778 3.78222 3.57778 7.36 0 3.06667-.71556 5.11111-2.24889 6.95111-2.45335 2.76-9.91555 6.84889-16.35555 8.89334-2.14668.71555-3.88446 1.63555-3.88446 2.14667 0 .40888 2.04446 1.84 4.6 3.06666 12.77779 6.13334 16.66223 21.56889 7.87112 30.76889-3.88446 3.98668-6.64446 5.82668-17.17334 11.14224-7.05334 3.47556-14.51556 11.04-15.43556 15.43556-.30666 1.63555-1.02222 3.2711-1.43111 3.57777-.51111.30667-.92 1.43113-.92 2.55556 0 2.55557 2.76 2.55557 3.57778-.10223 1.12444-3.47555 9.40444-6.9511 16.96889-7.15555 6.64445-.20445 19.93334 2.24889 21.67112 3.98667 1.53333 1.53333.30666 3.47556-4.29334 6.74668-5.41778 3.68-13.8 4.7022-17.68445 2.14665-2.24889-1.53333-2.76-1.53333-3.88445-.10222-1.02221 1.22667-.71555 2.04445 1.43112 4.70223 1.43111 1.73777 2.65778 4.08889 2.65778 5.21334 0 1.73777-2.86223 8.99555-3.47556 8.99555-1.32889 0-8.99556-4.70222-11.65334-7.05335-3.88444-3.47554-11.85778-5.72443-16.76444-4.7022-1.84.40888-4.90667 1.73777-6.64446 2.8622-3.47555 2.35112-4.49777 5.82668-1.84 5.82668 3.06668 0 9.40446 3.98667 10.12 6.33778 1.94223 7.36-.5111 11.65334-9.09777 16.04889-3.68 1.94223-6.95111 3.88445-7.25778 4.29335-1.02222 1.73777-3.27111.92-3.68-1.43112-.92-4.6 1.22667-19.83112 3.78222-27.29334 4.80445-14.2089 5.72445-17.58224 5.21333-19.01334-.92-2.3511-3.2711-1.63556-6.23555 1.73778-1.43111 1.73777-2.76 3.06666-2.86222 2.86222-.20445-.20445-.92-1.22667-1.73778-2.2489-1.02222-1.4311-1.12445-1.73777 0-1.53332 1.73778.40888 2.86222-3.88445 3.27111-13.08445.20444-4.49778.81778-7.66667 1.53334-7.97333 1.22666-.51112 3.68 2.55555 4.80444 6.23555 1.12445 3.57778 3.68 5.72445 5.21334 4.39555 1.12444-.92 1.32889-11.04.20444-16.66222-.10222-.81778 1.12445-1.12445 3.37334-.92 3.16889.20444 3.78222-.20445 5.52-3.37334 1.12444-1.94222 2.35111-3.57777 2.86222-3.57777.51112 0 3.16889 1.12443 5.92889 2.55555 5.92889 2.96445 7.97333 3.16888 8.89333.81778.51112-1.22667-.61333-2.86222-3.57777-5.52-2.35111-2.04445-4.29333-3.98667-4.29333-4.29334 0-.30666 1.02222-.71556 2.3511-.92 1.84-.20444 2.2489-.81776 1.94223-3.68-.10223-1.73778 0-3.27111.20444-3.27111.30667 0 3.16889.71555 6.33778 1.53333 3.16889.81778 6.23555 1.22667 6.64445.92001 2.3511-1.43112.61333-4.60001-4.19111-7.76889-2.86223-1.84-5.11112-3.68-5.11112-4.0889 0-.40889 1.22667-1.02222 2.86223-1.32889 5.82666-1.32888 8.17778-4.80444 3.57777-5.41777-1.22667-.20444-2.76-1.02223-3.37333-1.73778-1.02222-1.22666-.71556-1.73778 1.43111-2.55556 8.38223-3.1689 11.96001-5.31556 11.65335-6.95111-.30668-1.73779-1.43112-1.94222-12.26668-2.14667-3.16889-.10222-3.88445-.51112-3.88445-2.04444 0-1.12445-.61333-2.24889-1.22667-2.55556-.92-.30667-.61333-1.12445 1.02223-2.45333 3.47555-3.16889 1.94222-5.62223-2.96445-4.80445-5.92888 1.02222-4.80444-.81778 2.76-4.49778 6.13334-2.96444 8.17778-5.62222 4.39556-5.82666-.81778 0-2.45334-.30667-3.57778-.71556-1.22666-.40889-3.37333-.30667-4.80444.20444-3.57778 1.43112-6.74667.30667-7.46222-2.55556-.51112-2.04444-.92-2.24888-2.65779-1.32888-1.12444.61333-2.65778.81777-3.47555.51111-1.94223-.71555-.92-7.97334 1.73778-12.67556 1.12444-1.84 1.94222-3.88445 1.94222-4.49779 0-2.55555 9.91556-15.43555 14.41334-18.70666 5.72444-4.08889 6.44-6.84889 2.76-11.85778-2.55556-3.47556-8.6889-7.05334-12.16445-7.05334-1.22667 0-7.05334-1.63556-13.08445-3.78222-9.81334-3.37334-11.96-3.68-22.18223-3.78223-7.76889-.10222-11.85777.30667-12.88 1.22667-1.02222.81778-6.13334 1.43111-13.69778 1.84-9.40445.40889-13.18667 1.02222-16.66223 2.65778-3.57778 1.73778-10.32445 6.54222-10.32445 12.47111 0 3.98667.20445 4.19112 9.30223 11.34667 6.33778 5.0089 14.72 15.53779 18.60445 23.71557l2.55555 5.31555-2.96444-.61332c-2.76-.51112-2.96445-.30668-2.96445 2.65777 0 4.08889-1.94222 4.80444-6.23555 2.55555-2.35112-1.12444-5.72-.64444-5.72-2.07555 0-.61333-3.99112-4.46667-5.42223-4.46667-.51111 0-1.43111.81778-1.94222 1.94222-.81778 1.43112-.40889 2.76 1.94222 5.92889 1.63556 2.24889 4.19111 4.60001 5.62223 5.21334 2.96444 1.32889 2.55555 3.27111-.61334 3.27111-2.04444 0-2.65778 2.45334-.92 3.57778 1.43111.92.20444 2.55556-1.94222 2.55556-.92 0-2.55556.61333-3.57778 1.32889-1.63556 1.22666-1.53334 1.53333 1.43111 5.31555l3.27111 4.08889-3.98667.81777c-2.14666.4089-6.33778 2.2489-9.2 3.98668-8.38222 5.11112-6.95111 7.36 3.88445 6.23556 6.13334-.61334 6.23555-.61334 5.52 1.63556-.61333 1.94221-.40889 2.14666 1.94222 1.53332 1.63556-.40888 2.65778-.20444 2.65778.51112 0 .61333-.71556.81777-1.53333.40889-1.02223-.30667-1.53333-.10223-1.32889.71555.20444.71556-2.04445 2.76-5.00889 4.49778-5.72445 3.37334-10.01778 8.17778-8.99556 9.81334.81778 1.4311 4.6 1.32889 4.6-.10223 0-.61333 2.14667 0 5.41778-1.43111 2.04444-.81778 4.6-1.53333 5.72445-1.53333 2.86222 0 3.47555 5.62222 1.02222 9.71111-2.35111 3.78223 2.38553 5.22636-3.47556 7.15556-1.97225 2.23747-1.94222 5.52.10222 6.33778 1.02223.40889 3.06667-.92 5.9289-3.68 2.3511-2.24888 4.6-4.19111 5.00888-4.19111.40889 0 .71556 1.63555.71556 3.57777 0 4.39556 2.65778 6.33778 5.31556 3.88446 1.73778-1.53334 1.84-1.43112 1.94222 1.32888.10222 6.84889.71556 10.83556 1.73778 11.85778 1.53333 1.53334 2.96444.20444 3.68-3.68.40889-1.94222 1.32889-3.98666 2.14667-4.70222 1.32889-1.12444 1.53333-.81778 1.53333 1.94222 0 3.06667.92 3.98667 4.29333 4.6 2.04445.30667 5.62223 2.55556 4.08889 2.65778-1.02222 0-1.32888 2.24889-1.12444 9.40446.20444 11.1422-1.22667 12.88-3.16889 3.68-1.53333-7.2578-2.45333-8.99557-5.21333-8.99557-1.73778 0-1.94223.71557-1.84001 6.64444.10223 3.68001.81778 9.81333 1.63556 13.59556.71556 3.78223 1.43111 7.97334 1.63556 9.40445.10222 1.43112 1.12444 6.84889 2.24889 11.96002 1.32889 6.74665 2.45334 9.50665 3.47555 9.50665 1.94223 0 1.12445.71555-1.43111 1.22667-1.12444.10222-2.04444-.20444-2.04444-.81778 0-1.63554-2.55556-3.68-8.28001-6.64444-4.29333-2.2489-5.11111-3.1689-5.62222-6.44-.51111-3.06667 0-4.6 2.86222-8.99556 3.98667-5.92889 3.27112-8.58667-1.32889-5.31556-6.33778 4.49778-7.76889 5.21332-10.01778 5.00889-2.65778-.30667-11.14222-5.62222-8.99555-5.62222.71555 0 1.22667-1.32889 1.22667-3.16889 0-1.63556 1.22666-5.62223 2.65777-8.68889 2.04445-4.29334 2.35111-6.03112 1.53333-6.8489-.92-.92-2.3511 0-6.03111 3.88445-6.33778 6.74668-7.36 7.46222-13.49333 9.71111-3.37334 1.22667-5.9289 1.63557-6.95112 1.02223-1.02222-.40889-3.57778-1.32889-5.82667-1.94223-2.24889-.61333-5.82667-2.45333-7.87111-4.19111-4.80445-3.98667-6.03111-9.81332-3.37333-15.94667 1.02222-2.14667 1.94222-3.37333 2.24889-2.76.30666.71555 2.04444 1.32889 3.98666 1.32889 7.05334 0 12.77778 2.24889 17.17334 6.54222 2.35111 2.35111 4.70223 5.11112 5.31556 6.13334 1.63555 3.06667 3.27111 1.12444 3.98667-4.80445 1.02222-8.28-2.35112-17.58223-8.79112-24.12445-2.86222-2.86222-5.82667-5.21333-6.64444-5.21333-.71556 0-1.43111-.40889-1.43111-.92 0-.51112-.92001-1.22667-2.04445-1.63557-1.22667-.40888-2.24889-1.9422-2.65778-4.1911-.81778-4.19111.51111-6.03112 7.66667-10.63112 6.03111-3.78222 10.12-9.09778 8.17778-10.32444-.81778-.51112-3.06667-.92-5.11111-.92-3.16889 0-3.88445-.51112-5.92889-4.08889-1.94223-3.47555-2.14667-4.60001-1.22667-7.46223 1.02222-2.86222 2.24889-3.88444 8.38222-6.64444 8.07556-3.57778 8.79112-5.62223 2.35112-6.13334-2.14667-.20444-4.39556-.81778-4.90667-1.32889-.61333-.51111-1.73778-.92-2.65778-.92-1.22667 0-1.73778-1.12445-1.94222-4.29333-.20445-4.80445 2.55555-11.04001 5.00889-11.04001.81778 0 3.27111-.92 5.41778-2.04444 2.04444-1.12445 4.39555-2.04445 5.21333-2.04445 1.94222 0 3.16889-1.94222 1.94222-3.16889-.51111-.51111-3.88444-1.12444-7.56444-1.43111-11.34667-.92-18.19556-7.76889-18.70667-18.80889-.30667-7.05333 2.24889-13.39112 7.36-18.09334 4.08889-3.68 3.88444-6.54222-.30667-6.54222s-13.49334-10.22223-18.80889-20.6489C80.87557 87.25693 74.33334 80.61249 63.497785 75.6036c-9.09778-4.29334-19.422225-6.44-20.751115-4.39556-.40889.71556.40889 1.43111 2.146666 1.84 5.213334 1.22667 16.048894 7.871115 21.977784 13.49334 4.49778 4.29333 6.54222 7.36 9.09778 13.39111 3.06667 7.15556 3.27111 8.68889 3.37333 19.52445.10223 11.14223 0 12.06223-2.45333 15.02667-3.57778 4.49779-9.91556 6.95112-16.04889 6.03112-7.97334-1.22667-9.81334-1.22667-10.22223.10222-.20444.61333 1.022224 1.43111 2.96445 1.84 4.395554 1.02222 15.02667 6.03111 17.68445 8.38222 5.92889 5.21333 7.05333 9.91556 3.27111 13.39112-3.16889 2.96444-10.22223 2.96444-18.19556.10222-3.271114-1.22667-6.74667-1.94222-7.66667-1.53333-1.43111.51111-1.22667 1.02222.92 3.68 4.08889 4.70222 5.315556 9.81333 5.213334 20.44445-.102224 11.96-1.635554 16.35557-9.09778 26.16889-3.066668 3.98668-5.622224 7.7689-5.622224 8.38223 0 1.63555 2.35111 2.14667 4.49778 1.02222 1.02222-.61333 4.49778-.81777 7.564446-.61333 6.746668.61333 9.302224 3.16889 9.404444 9.60889 0 3.98667-.306664 4.29333-4.80444 6.74667-2.760004 1.4311-6.64445 2.96444-8.688894 3.2711-2.044446.4089-4.804446-.5111-6.133336 0-1.02222.30668-2.044444.10223-2.35111-.40888C38.964445 240.0792 36 240.89698 36 242.12364c0 .51111.92 1.12446 1.942223 1.53334 7.257777 2.24889 12.164447 13.8 9.404447 21.67112-.81778 2.14666-2.453334 5.41777-3.782223 7.36-3.577777 5.31555-.817777 7.25778 4.395556 3.1689 3.271112-2.55557 12.266667-2.76 16.968897-.4089 5.31555 2.65778 6.84889 5.31555 6.23555 10.73333-.81777 6.13334 1.94223 19.52447 5.92889 28.82667 2.86223 6.64445 3.16889 8.38223 3.06667 17.78668 0 9.40445-.30666 11.04002-2.65778 15.33332-1.63555 2.86224-2.35111 5.11113-1.737775 5.72446 1.635555 1.63554 6.644445-.30666 11.653335-4.70222 3.78223-3.37334 5.41778-5.82667 7.25778-10.93778 1.32889-3.68 3.06667-6.74666 3.88445-6.95111 2.35111-.40889 6.64444 3.98665 8.99556 9.2 2.55555 5.82665 3.27111 17.99111 1.32888 20.03555-1.84 1.94223-1.63555 4.1911.30667 5.0089 2.65778 1.02222 4.6-.8178 8.99556-8.89334 4.49778-8.07556 9.50667-12.88 14.51556-13.90222 2.45333-.40889 3.78222 0 6.44 2.24889 3.06667 2.55557 3.27111 3.16887 2.96445 7.76887-.30667 4.4978-.10223 4.9067 2.04444 4.9067 2.04445 0 4.49778-3.47557 4.19111-5.9289-.71555-4.90667 4.19112-11.4489 8.68889-11.4489 4.60001 0 5.92889 4.29334 4.60001 14.92445-1.53334 12.57335-.81778 17.58225 2.86222 20.54667 4.29333 3.47558 8.89333 3.06668 18.80889-1.94222 10.01778-5.21333 12.77778-8.58667 9.71112-11.96-1.12445-1.22667-3.06668-2.14667-4.39556-2.14667-4.80445 0-8.17778-10.01778-5.31556-15.64 2.35111-4.39556 7.25778-7.87113 11.14223-7.87113 3.16889 0 10.42667 3.5778 12.88001 6.3378 3.57777 3.88444 5.72444 11.65333 4.49777 16.25333-.61333 2.14667-1.53333 4.19111-2.04444 4.49777-1.43112.92-1.22667 4.39557.30667 4.90668 3.37333 1.22666 12.88-7.15558 16.04889-14.10668 1.12444-2.2489 2.35111-7.05333 2.96444-10.73333.81777-5.11111 1.73777-7.15557 3.68-8.99557 5.52-4.7022 11.85777-1.9422 13.80001 6.03113.71556 2.76.92 5.82667.61333 6.64444-.40889.92-.10222 2.35113.51111 3.06667 1.84 2.24889 3.98667-.20444 3.98667-4.29334 0-6.5422 6.44-14.00444 13.18667-15.33333 3.78222-.81777 9.09778 1.94223 10.42668 5.52 1.12443 2.86223 2.65777 4.29333 4.80443 4.29333 1.63557 0 1.63557-2.55555-.10223-3.88444-1.4311-1.22666-1.32888-8.68889.30668-16.56001 1.63555-8.38222-.61334-20.54667-6.13334-31.68889l-2.24889-4.70223 2.24889-3.78223c3.27111-5.52 8.28001-7.76888 15.23112-6.84888 5.52.71555 8.58667 2.96444 11.96 8.68888 1.32889 2.35112 3.47554 1.22668 3.47554-1.73777 0-4.90667-2.55554-10.12-6.9511-14.20889-5.41777-5.21334-7.25777-9.2-7.97333-17.58224-.51111-5.6222-.30667-6.9511 2.35111-11.96 3.47556-6.64444 7.36002-9.40444 10.52889-7.36 1.94223 1.22667 5.11113 1.73778 5.11113.81778 0-.30666-1.3289-2.45333-2.96446-4.90666-1.53334-2.45334-3.16889-5.82667-3.57778-7.46222-2.45333-10.83557-2.86222-14.41335-2.35111-24.12446.40889-9.71111.81778-11.55111 3.88445-17.88889 1.9422-3.88445 3.68-7.36 3.78222-7.87112.71555-1.43111-2.86222-.71555-6.64445 1.32889-5.11111 2.76-6.44 2.55556-10.32445-.92-6.84889-6.33778-3.37332-17.27556 6.64445-21.05778 3.06667-1.22667 4.39556-2.24889 4.39556-3.68 0-2.24889-.71556-2.35111-4.08889-.40889-3.27111 1.84-11.34667 1.94222-15.74224.10222-2.04443-.81777-4.80443-3.47555-6.74666-6.23556-3.27111-4.70222-3.37334-5.00889-2.76-13.18667l.51111-8.28 5.72445-5.11111 5.82667-5.11111-2.24889-2.24889c-1.84-1.73778-2.35111-3.68-2.55556-9.40445l-.30666-7.15556 5.31554-6.44c2.96446-3.57778 5.62224-6.54222 5.9289-6.74667 2.14667-.92 8.07556-6.84889 8.07556-7.87111 0-2.964446-3.16889-2.14667-7.76889 2.044445Z"/>
    <path fill="#f3f3f3" d="M74.43557 86.43916c4.08889 4.49778 9.2 13.28889 13.18667 22.79556 2.65777 6.13333 2.96444 8.28 3.47555 22.18223.10223.71555.81778 1.32889 1.63556 1.32889 1.12444 0 1.53333 1.02222 1.43111 3.27111-.20444 3.16889-.20444 3.16889-.61333.51111-.92-5.62222-2.04445-1.53333-1.53334 5.41778.51111 7.66666-.40889 8.99556-3.27111 4.6-.92-1.43111-2.24889-2.55556-2.86222-2.55556-.61334 0-.30667 1.02222.81778 2.24889 2.55555 2.96445 5.82666 10.12001 4.90666 10.93778-.30666.30667-1.32889-.51111-2.24889-1.94222-2.86222-4.39556-10.12-11.24445-11.96-11.24445-1.12444 0 0 1.53334 3.47556 4.70222 5.31555 4.80445 7.87111 8.28 6.84889 9.30223-.30667.30667-1.73778-.92-3.16889-2.65778-1.53333-1.73778-3.16889-3.16889-3.78222-3.16889-.61334 0 .30666 1.53334 1.84 3.37334 1.63555 1.73778 3.88444 5.41778 5.00889 8.17778 1.02222 2.65778 2.35111 4.80444 2.76 4.80444 2.24889 0 2.96444-5.11111 3.16889-22.28445.10222-3.47555.51111-6.33777.92-6.33777.81777 0 1.32889 8.89333.92 14.51555-.20445 2.55555.61333 3.37334 3.16889 2.96445.40889 0 1.22666.81778 1.84 1.94222.61333 1.12445 1.63555 2.04445 2.35111 2.04445.71556 0 1.73778.81777 2.35111 1.84.71556 1.02222 3.16889 2.45333 5.52 3.16889l4.29334 1.22666-2.76 2.55556c-1.43112 1.32889-3.06667 2.24889-3.57778 1.94222-1.12445-.71555-3.37334 2.2489-2.65778 3.47556.30667.51111-.10222 1.12444-.92 1.53334-1.73778.61333-1.94222 7.97333-.30667 11.04 1.12445 2.24888 6.03111 4.90666 9.2 5.00889 1.53334 0 .61334.71555-2.65777 1.73777-6.03112 2.04444-8.99556 5.72444-9.20001 11.24444-.10222 4.90668 1.63556 7.05335 8.17778 10.32446l4.70223 2.35111-5.00889 3.37333c-6.64445 4.49778-11.55112 10.12-11.55112 13.49334 0 2.55556 2.14667 4.90666 12.67556 14.00446 5.00889 4.1911 9.81334 12.88 9.81334 17.58222v2.76l-3.27111-2.76c-4.49778-3.57778-8.6889-5.31556-13.49334-5.62222-4.80445-.20445-6.44-1.02223-4.6-2.2489 2.76-1.73777-1.94222-1.02222-7.36 1.12445-4.29334 1.73778-5.52001 1.84-6.23556.81778-.71556-1.02223-1.32889-.81778-2.55556 1.02222-.81778 1.22667-2.45333 2.24889-3.47555 2.24889-2.14667 0-3.47556 1.63556-1.94223 2.55556 1.53334.92 1.22667 4.6-.40889 4.6-.81777 0-1.63555-1.02223-1.94222-2.3511-1.22667-4.80446-.61333-28.21336.81778-33.73336.61333-2.14667.40889-2.76-.92-2.76-1.22667 0-1.63556.92-1.63556 3.47556 0 2.2489-.61333 3.68-1.63555 4.0889-1.431115.5111-1.431115.92-.30667 2.3511 1.32889 1.4311 1.124445 1.63556-1.32889 1.12444-2.964445-.51111-3.98667.61334-1.43111 1.53334.81778.30666 2.04444 1.63555 2.65778 2.86222 1.12444 2.04445 1.02222 2.14667-.92 1.63556-2.55556-.61334-2.65778-.40889-.51111 2.86222 2.14666 3.37332 1.43111 3.16889-4.088894-.61333-2.964446-2.14667-6.133336-3.37335-9.404446-3.68-2.76-.30667-4.702224-.20445-4.293335.20445.511111.5111 1.84.92 3.066665 1.12443 3.68.40889 9.40445 3.06667 11.448894 5.41777 2.248886 2.55557 1.737776 2.6578-4.702224.61335-2.964445-.81778-5.11111-1.02223-5.41778-.40889-.61333.92.71556 1.32889 3.27111 1.02222.71556-.10222 1.942226.30667 2.55556.92.715555.61332 2.86222 2.04445 4.804445 3.37332 3.577775 2.35113 5.213335 4.80446 3.16889 4.80446-.613335 0-2.351115-.92-3.884445-2.04444-3.373335-2.55556-10.42667-3.88445-10.42667-2.14667 0 .71555.40889 1.02222 1.02222.61333 2.76-1.63555 19.01334 10.42667 16.86667 12.57334-.30666.40888-1.02222.10222-1.43111-.71556-.92-1.32889-3.16889-1.84-14.61778-2.76-7.462224-.71556-10.93778-2.76-7.66667-4.6 1.32889-.81778 1.73778-2.45333 1.73778-6.54222 0-3.06667-.40889-5.82667-1.02222-6.13334-.511114-.30666-1.022225-1.53333-1.022225-2.65778 0-1.12444-.715555-2.76-1.533335-3.68-1.94222-1.84-1.124443-3.37332 1.942224-3.37332 2.964446 0 9.813336-3.37335 12.164446-5.9289 3.16889-3.47556 3.782225-7.56445 1.63556-12.16445-2.14667-4.80445-5.41778-7.15555-10.22223-7.66667-2.146664-.20444-3.37333-.81778-3.27111-1.63555.204445-.61333-.61333-1.22667-1.84-1.22667-1.124444 0-1.73778-.40889-1.43111-1.02222.92-1.53334 10.222224-.30667 14.20889 1.73777 5.41778 2.86223 8.58667 5.62223 9.91556 8.58667.61333 1.63556 1.53333 2.96445 2.044445 2.96445s.92.92.92 2.04444c0 2.04445 1.533335 2.76 2.351115 1.22667.30666-.40889.817775-2.86222 1.12444-5.52.613335-4.08889.51111-4.80444-.81778-4.29334-.92.30667-1.94222-.30666-2.76-1.84-.71555-1.32889-2.146664-3.16889-3.27111-4.1911-1.12444-.92-1.635555-1.73779-1.22667-1.73779.511115 0 1.94223 1.02223 3.27112 2.24889 3.47555 3.27111 4.08889 1.43111.61333-2.14666-2.24889-2.24889-3.68-2.86223-5.72445-2.45334-5.92889 1.12445-2.35111-1.63555 5.41778-4.1911 9.71112-3.1689 13.2889-3.37334 13.2889-.8178 0 1.02223-.40889 2.2489-.81778 2.76-1.02223 1.3289-3.68 10.12001-6.23556 20.95557-2.35111 10.01778-3.98667 33.73335-2.35111 33.73335 2.04444 0 4.29333-1.22667 4.29333-2.35112 0-.61333 1.22667-2.3511 2.76-3.98666 1.43111-1.53334 2.35112-3.16889 1.94223-3.57778-.40889-.51111-1.63556.20444-2.65778 1.43111-2.24889 2.86223-4.08889 3.06667-4.08889.40889 0-1.02222 1.73778-3.37334 3.88444-5.21334 2.14667-1.84 2.76-2.65777 1.43111-2.04444-3.57777 1.73778-5.00889.71555-2.35111-1.63556 5.41778-4.70222 9.30223-8.89332 8.79112-9.50667-.40889-.30665-1.43112.40889-2.35112 1.53335-2.45333 3.16888-6.64444 5.52-8.07555 4.7022-1.73778-1.0222.30666-3.2711 5.82667-6.5422 4.80444-2.76001 13.49333-11.04002 11.65333-11.04002-.61333 0-2.35111 1.43112-3.98667 3.06667-3.16889 3.27111-11.24444 8.28-12.16444 7.46223-.71556-.71556 2.96444-4.08889 6.33778-5.82668 4.19111-2.14666 14.51556-12.16444 14.51556-13.90222-.10223-.92-1.73778.30667-3.88445 2.65778-3.88445 4.29334-13.69778 11.65334-15.53778 11.65334-1.32889 0-1.32889-.20445.51111-6.54223 1.32889-4.39555 2.45333-6.03111 6.13333-8.68889 4.29334-3.06667 7.66667-7.25778 5.9289-7.25778-.51112 0-2.04445 1.3289-3.57778 3.06667-3.06667 3.57778-4.90667 3.88444-4.90667 1.02223 0-1.12445.61333-2.04445 1.43111-2.04445 3.57778 0 11.85778-9.81335 10.32445-12.26667-.30667-.51112-.10223-1.94223.51111-3.16889 2.14666-3.98667.40889-2.96445-2.86222 1.63555-3.27112 4.70223-5.31556 5.82666-5.31556 3.06666 0-.81777-.61334-1.53332-1.43111-1.53332-.71556 0-1.94223.71555-2.65778 1.53332-.71556.81779-2.65778 1.43112-4.49778 1.43112-2.96445-.20444-2.96445-.20444-.40889-.61333 2.35111-.40889 2.86222-1.12445 3.88445-5.72445.71555-2.96444 1.63555-5.82667 2.04444-6.33778 1.02222-1.43111 3.16889-16.86666 2.45333-17.99111-.30666-.51112-1.12444-.92-1.84-.92-.71555 0-2.24889-1.43112-3.57778-3.16889-3.06666-4.19112-3.78222-3.16889-1.02222 1.53333 3.06667 5.31556 3.88445 9.91556 2.65778 15.84445-1.02222 5.62222-2.24889 6.54222-3.78222 2.86222-1.43111-3.68-6.031115-8.68889-6.13334-6.74666 0 .92.61334 1.94222 1.43111 2.24888 1.73778.71556 5.72445 8.79112 5.72445 11.75556 0 2.76-1.94222 3.88445-2.65778 1.53334-2.14667-6.95112-5.92889-12.98223-11.55111-18.40001-4.80445-4.70222-4.39556-2.24889.61333 2.96445 6.03111 6.44 8.79111 10.52888 8.28 12.16444-.20444.71556-1.84-1.02222-3.68-3.78222-1.73778-2.76-4.19111-5.62222-5.41778-6.33778l-2.24889-1.43111 2.24889 3.16889c1.22667 1.73778 2.65778 3.37333 3.271115 3.68 1.124445.71556 5.00889 8.17778 5.00889 9.71111 0 .51111-.715555 1.02223-1.635555 1.02223-1.94222 0-7.56445-3.88445-7.56445-5.21334 0-1.53334-5.315554-9.09778-6.33778-9.09778-1.53333 0 0 5.11111 2.862226 9.40444 1.328889 2.14668 4.293334 5.11112 6.542224 6.54223 4.29333 2.86222 5.31556 4.80445 2.35111 4.39557-2.96444-.4089-16.76445 4.1911-17.37778 5.82666-.30667.71555-.92 1.22666-1.32889.92-.51111-.30666-1.124445-.10223-1.533334.51111-.306666.51111-1.635556 1.02223-2.862223 1.02223-1.942223-.10223-2.044443-.20445-.715553-1.3289 2.24889-1.84 4.70222-5.9289 5.52-9.40445 2.45333-10.01778 3.06667-17.27555 1.73778-19.72889-.71556-1.32889-.81778-2.96444-.20445-4.49778.92-2.24888 1.022225-2.24888 2.55556 1.43112 1.73778 3.98666 3.68 5.21333 3.68 2.24888 0-2.96444-3.47556-7.66667-5.31556-7.25778-1.94222.51111-4.6-1.94222-3.475553-3.16889.408889-.40889 4.395553-.71555 8.791113-.71555 7.76889 0 8.17778-.10223 11.65334-3.47556 1.94222-1.94222 3.37333-3.88444 3.06666-4.39556-.30666-.40889 0-.81777.51112-.81777 3.47555 0-3.16889-12.47112-7.768896-14.61779-3.373334-1.53333-2.862224-2.96444 1.840001-5.21333 2.453335-1.12445 5.213335-3.57778 6.848895-6.03111 2.55555-3.88445 2.76-4.80445 2.76-15.74223-.10223-7.56445-.51111-11.96-1.32889-12.77778-.71556-.71556-1.22667-2.24889-1.22667-3.47556 0-1.32889-.40889-2.55555-.92-2.86222-.40889-.30667-1.124445-2.04445-1.53333-3.78222-.30667-1.73778-1.73778-4.49778-3.16889-6.23556-1.431115-1.63556-2.55556-3.47556-2.55556-3.98667s-.92-.92-2.044445-.92c-1.124445 0-2.044445-.71555-2.044445-1.53333 0-2.55556 1.94222-1.73778 5.72445 2.24889Zm196.16449 9.91555c-1.63556 4.80445-3.37333 8.58667-3.88444 8.48445-.61332-.10222-1.84 2.86222-2.76 6.74667-1.02222 3.78222-2.35112 7.56445-3.06667 8.38222-.81778 1.02223-.81778 1.94223-.10222 3.47556 1.63555 2.96445 1.32889 4.19111-.61333 3.47556-1.73778-.71556-1.73778-.61334 0 2.04444.92 1.43111 1.73777 3.16889 1.73777 3.78223 0 2.04444-1.84.92-3.98667-2.35112-1.12444-1.73777-2.14666-2.86222-2.14666-2.45333 0 1.22667 3.98666 8.68889 5.00889 9.30222.51111.30667.92 3.88445 1.02222 7.87112 0 3.88444.40889 8.38222.71555 9.91556l.71556 2.76-3.47556-3.27111c-3.68-3.47556-9.7111-6.44001-13.18666-6.44001-3.37334 0-2.35112 1.73778 1.43111 2.45333 3.68.71556 12.47111 6.44 11.44889 7.56445-.40889.30667-1.22667 0-1.84-.61333-.71556-.71556-1.94222-1.22667-2.86222-1.22667-.92002 0 .10222 1.63555 2.86222 4.19112 4.80444 4.6 5.21333 5.41777 2.24889 4.49777-2.65778-.81777-2.55556.10223.30667 2.86223 2.65777 2.55555 4.80444 7.05333 4.80444 9.91556 0 2.55555-.20444 2.55555-4.70222-.51112-3.88445-2.65777-7.56445-3.37333-7.56445-1.53333 0 .51112.92 1.02222 2.04445 1.02222 2.45333 0 11.14222 7.66667 10.01778 8.79112-.5111.40888-1.73778-.10222-2.86223-1.12445-1.02222-.92-2.65777-1.53333-3.47555-1.22667-.81778.30667-2.96445-.5111-4.80445-1.94222-1.84-1.32888-3.98667-2.45333-4.70222-2.45333-2.14667 0-1.53335-1.63555 1.73778-4.90667 3.57777-3.68 3.88444-6.84889 1.12444-12.36889-2.65777-5.00889-9.09777-9.40445-14.92445-10.12-2.55555-.20445-4.49778-.92-4.29332-1.53334.20443-.61333 2.65777-1.94222 5.6222-3.06667 6.44-2.45333 10.12-5.72444 10.9378-9.60888 1.22666-5.72445 4.90666-17.07112 7.76888-24.12446 1.63556-3.98667 2.76-7.36 2.55556-7.56444-.20444-.20445.71556-1.63556 2.14666-3.1689 1.43112-1.53333 3.1689-3.88444 3.78223-5.31555 1.43111-3.27111 7.05333-10.32445 7.66667-9.60889.20444.20444-.81778 4.29333-2.45334 8.99555Z"/>
    <path fill="#f3f3f3" d="M274.8934 96.55916c-.30667.30667-1.22667.40889-1.94222.10222-.81778-.30667-.51112-.61333.61332-.61333 1.12445-.10222 1.7378.20444 1.3289.51111Z"/>
    <path fill="#f3f3f3" d="m276.42673 101.3636 1.63557 3.47556-3.5778 2.86222-3.57777 2.86223.71557-4.49778c1.4311-9.2 2.24888-10.01778 4.80443-4.70223Zm-9.71111 9.09779c-.30667.81777-.61332.51111-.61332-.61334-.10224-1.12444.20443-1.73778.5111-1.32889.30666.30667.4089 1.22667.10222 1.94223Zm-1.02222 12.57333c-.4089 7.46223-.20445 10.12.92 11.14223 1.12444 1.22666 1.12444 1.53333-.10223 2.04445-1.12444.40888-1.32887 2.04444-.92 7.97333 1.02223 13.59556 3.37333 35.88001 3.88445 36.39112.30668.20445 1.22668.20445 2.14668-.20445 1.12443-.40888 1.4311-1.22666 1.0222-2.65777-.40888-1.22667-.20444-2.65778.30668-3.37333.51112-.71556 1.32889-2.86223 1.73777-4.80445.40889-1.94223 1.63555-5.11112 2.65778-6.95112 2.24889-3.88444 2.35111-4.29333 1.02223-4.29333-.51112 0-2.04446 2.35111-3.47556 5.21333-2.04445 4.39556-2.55556 4.90667-3.78222 3.57778-.71556-.92-.81778-1.63555-.20445-1.63555.51111 0 1.22667-1.43112 1.63557-3.16889.30665-1.73778 1.9422-4.80445 3.68-6.74667 3.57777-3.98667 4.08888-6.03112 1.12443-4.49778-1.02223.61333-2.14666.81778-2.45333.40888-.4089-.30666-1.53334.51112-2.65778 1.84-1.12444 1.3289-2.14667 2.2489-2.14667 1.94223-.10222-.30667-.30665-4.39556-.61333-9.09778l-.40889-8.68889 3.78222 4.19111c2.65778 2.86223 5.11112 4.39556 7.76889 4.90667 4.90666.92 5.31556 1.73778 2.76001 5.82666-5.11112 8.48445.92 21.26224 10.12 21.26224 1.63555 0 3.37335.40888 3.68 1.02222.30665.51111.20445 1.02222-.30665 1.02222-1.84002 0-7.46224 12.67556-9.5067 21.36445-1.12443 4.80445-2.76 11.04-3.7822 13.90223-1.7378 5.00889-5.52 9.71111-7.7689 9.71111-.61333 0-.30667-.71555.71555-1.43111 1.94223-1.53333 2.35112-4.19111.71555-5.21334-.5111-.30666-1.0222-1.43111-1.0222-2.35111.1022-1.53333.20443-1.53333 1.12443.10223.92 1.63556 1.32889 1.32888 3.37334-2.55556 2.76-5.41778 2.24889-6.44-1.12445-2.35111-2.45332 2.96443-2.55555 3.06666-2.04444.51111 1.32889-6.33778 2.65778-10.52889 4.6-14.31112 2.55555-5.21333.92-5.41778-2.14668-.30666-1.63554 2.86222-2.3511 3.37333-2.55555 2.04444-.20445-.92-.92-1.73778-1.73777-1.73778-1.84 0 1.84-9.81333 4.90666-13.08444 1.12446-1.22667 1.63556-2.24889 1.12446-2.24889-1.63557 0-3.1689 1.43111-5.31557 5.00889-1.73778 2.96444-2.24889 3.27111-2.86223 1.84-.30666-.92-1.32888-1.73778-2.14666-1.73778-1.22666 0-1.43111 1.02222-1.02222 5.31556.30668 2.96444.71556 8.38222 1.02222 12.06222.30666 3.68 1.02222 10.32445 1.53334 14.82223.61332 4.49778 1.02222 8.89333 1.02222 9.71111 0 .81778.10222 6.33778.20444 12.26667.10223 5.92889-.10222 11.65334-.61334 12.67557-.5111 1.32888-.20444 2.3511 1.12445 3.2711 1.53335 1.12445 1.63555 1.4311.30667 1.4311-1.12444 0-1.94222 1.84-2.86222 6.3378-1.22667 6.64444-4.1911 17.17333-4.70223 17.17333-.10222 0-.92-.30667-1.73777-.61333-1.3289-.4089-1.12445-1.4311 1.12444-5.62223 2.35111-4.39555 2.55556-5.21333 1.22666-6.03111-1.32888-.81778-1.32888-1.02222.10223-1.02222 2.35111 0 2.96445-3.27111 3.57777-18.60444.51112-11.96001.4089-13.39113-1.32888-14.72001-1.02222-.92001-1.32889-1.32889-.61332-1.02223 1.73776.92 2.55554-.92 1.73776-3.98666-.71556-2.96445-4.49776-3.68-4.49776-.81778-.10224 1.63555-.20446 1.63555-1.3289.20444-1.53334-1.94222-9.09778-7.15556-9.71112-6.64445-.20444.20445 2.45334 3.16889 5.82667 6.44001 3.88445 3.78222 6.23555 6.84888 6.23555 8.28 0 1.94222-.40888 1.84-3.47555-1.63556-1.94222-2.04444-3.88445-3.47556-4.29333-2.96444-.40889.40888.61333 2.24888 2.45333 4.08888 2.96445 3.06668 5.31555 7.56445 5.31555 10.22223 0 .61334-.61333.20445-1.4311-.92-2.45334-3.27111-2.76-1.02223-.61334 3.47557 3.47556 7.15555 2.14667 19.62666-1.32889 12.88-1.84-3.5778-6.54222-8.1778-7.46222-7.2578-.40889.30668.71555 2.2489 2.45333 4.29335 3.98667 4.39555 6.64445 9.40445 5.52002 10.12-.51113.30667-2.2489-1.63555-3.88446-4.19111-3.47556-5.52-9.71111-10.12-12.36889-8.99556-1.53335.61332-1.43111.92 1.22665 2.24889 4.19113 2.14667 6.44002 4.19111 9.81335 8.89333 3.06667 4.0889 3.78222 6.74667 1.94222 6.74667-.51111 0-1.02222-.81777-1.02222-1.84 0-3.37333-9.91555-11.44889-14.00445-11.44889-3.2711 0-2.96444 1.63556.4089 2.55556 3.16888.71556 11.96 7.56444 11.14222 8.48446-.30667.30665-1.43112-.20446-2.35112-1.02224-5.21333-4.6-16.35556-7.15556-24.02222-5.62222-7.05334 1.43111-6.03112 2.76 1.53332 2.04444 7.05334-.61333 16.86668 1.53334 19.11557 4.19112 1.02223 1.3289.71556 1.4311-2.24889.5111-10.63111-3.37333-21.97778-4.08888-25.76001-1.63555-1.53333 1.02222-2.86222 1.22667-3.78222.61333-1.12445-.71555-.61333-1.63555 2.65778-4.49778 2.24889-1.94222 4.39556-3.47555 4.70222-3.57777 1.12445 0 17.8889-9.71113 20.54667-11.85778 3.68001-2.86223 5.9289-8.79112 5.9289-15.33335 0-4.70222-1.43112-10.01777-3.06667-11.65333-.30667-.30667-1.02222-1.43111-1.63555-2.55556-.61334-1.12444-2.55556-2.96444-4.29334-4.08889-1.73778-1.12444-3.16889-2.45332-3.27111-2.86222 0-.40889 2.14665-1.73778 4.70222-2.76 8.38223-3.68 12.06223-7.36 13.18667-13.49334.61333-2.96444.30666-3.98666-1.63556-5.82666-1.32888-1.12445-1.73778-2.14667-1.02222-2.14667.71556 0 .92-.51111.61334-1.02223-1.53334-2.55555 1.63555-.71555 4.49777 2.55556 3.37333 3.88444 3.88445 5.21334 2.04445 5.82667-.92.30667-.81778 1.12445.20444 2.86222 1.53334 2.76 3.98667 19.42223 2.86224 19.42223-.4089 0-1.22668-.71555-1.94224-1.53333-.71556-.81778-1.94222-1.53334-2.76-1.53334-1.63556 0 3.68 6.84889 6.54224 8.58667 1.53332.81778 1.4311-1.12444-.30668-16.25334-.20445-1.63554-.61332-7.15555-1.02222-12.26667-.30667-5.00889-1.02223-12.16444-1.53334-15.84444-.51111-3.68001-1.12444-8.07556-1.32889-9.71112-2.35111-16.66222-2.24887-54.6889.10223-54.6889.20444 0 .20444 4.39556 0 9.71111Zm-77.38225-6.74667c2.55555.51111 6.64445 1.63556 9.20001 2.45334 2.55554.92 7.76889 2.35111 11.75555 3.27111 7.25779 1.63556 12.77779 5.31556 12.77779 8.58667-.10223.92-1.3289 2.55555-2.76 3.68-4.70223 3.47556-9.50667 8.79111-9.50667 10.32445 0 .81778-.61333 1.43111-1.43112 1.43111-.71555 0-2.96444 3.06667-4.90666 6.84889-1.94223 3.78222-4.08889 7.05333-4.80445 7.25778-1.63556.51111.92-5.62222 5.0089-12.3689 2.04444-3.16888 2.55555-4.80444 1.63555-4.80444-1.43112 0-9.81335 12.88-9.81335 15.02667 0 .61334-1.12443 3.57778-2.45332 6.54223-2.35112 5.21334-2.55556 5.31555-2.55556 2.24889-.10222-1.73778-.71556-3.47556-1.32889-3.68001-.81778-.40888-.71556-.61333.40889-.61333 1.02222-.10222 3.06667-3.06667 5.52-8.28001 2.04445-4.49777 4.39556-8.17777 5.11111-8.17777.71557 0 1.22667-.81778 1.12445-1.84-.20445-2.65778 6.44-12.98223 9.71112-15.1289 2.96444-2.04444 3.68-3.47555 1.73777-3.47555-1.32889 0-8.07556 7.15556-8.07556 8.58667 0 .51111-.81778 1.94222-1.84 3.06666-2.55555 2.86223-10.32445 16.56001-11.04001 19.62668-.81777 3.06666-2.45332 3.27111-1.73777.10221.51111-2.24888 1.43111-4.49777 5.21334-12.98222 2.65777-6.03111 9.09778-16.45778 10.63111-17.68445 1.02222-.61333.92-.81777-.20444-.51111-1.53334.51111-7.56444 8.07556-9.09779 11.55112-.51111 1.12444-2.14666 4.6-3.68 7.66666-1.53333 3.06667-3.88445 9.50668-5.21333 14.2089-2.45333 8.79111-3.06667 10.12-4.08889 8.99556-.71556-.71556 1.43111-15.02667 2.55556-16.45779.40888-.61333 1.43111-2.76 2.14666-4.70222 2.04445-5.31555 6.64445-14.82223 9.20001-18.91112 1.63554-2.65777 1.84-3.37333.61334-2.96444-1.94223.71556-11.14224 19.21778-14.72002 29.54223-2.24888 6.64445-3.16888 8.28-5.11111 8.48445-1.22667.20444-2.24889 1.02222-2.24889 1.84 0 .81777-.92 1.43111-2.24888 1.32889-1.53334-.10223-1.84-.30667-.71556-.61334 2.04444-.51111 3.57778-8.28 1.94222-9.91556-.71556-.71556-1.02222-.30666-1.02222 1.22667 0 1.32889-.61334 2.24889-1.53334 2.24889-.81777 0-1.53333-.71555-1.53333-1.63556 0-1.22666-.61333-1.53333-2.14667-1.12444-1.32889.40888-2.24889 0-2.65778-1.12444-1.73777-5.21334-4.49777-10.63112-5.00889-10.12001-.40888.40889.30667 2.86223 1.43112 5.62223 2.65777 6.0311 3.98666 13.49333 2.45333 13.49333-1.22667 0-4.49778-4.90666-3.88445-5.92889.20445-.40889-.61333-2.86222-2.04444-5.31555-1.32889-2.55556-2.96445-5.82667-3.57778-7.46223-.61333-1.53333-1.53333-2.76-2.04444-2.76-.51112 0-.92-.81778-.92-1.84 0-1.94222-13.59557-16.56-15.33334-16.56-1.53333 0-1.22667 1.84.40889 2.76 6.13333 3.68 20.95556 27.19112 22.79556 36.39112 1.02222 4.90667-1.53334 2.35111-2.86222-2.96445-1.02223-3.88444-1.53334-4.49778-3.88445-4.49778-2.24889-.10222-2.45333-.20445-.81778-1.12445 2.14667-1.22666 2.24889-3.2711.30667-4.90666-.81778-.71556-2.45334-3.16889-3.68-5.52-2.2489-4.19111-5.41778-7.56444-10.22223-10.73334-1.43111-.92-3.16889-2.55555-3.88444-3.47555-1.32889-1.84-5.31556-2.55556-5.31556-1.12445 0 .51111 1.63556 1.94222 3.68 3.27111 7.05333 4.90667 20.13778 21.56889 16.76445 21.56889-.51112 0-1.02222-.40888-1.02222-.81777 0-.51111-1.3289-2.24889-3.06667-3.88445-1.63556-1.63555-3.06667-3.47555-3.06667-3.98666 0-1.02222-2.55556-3.47556-12.06222-11.65334-5.21334-4.39556-5.31556-4.39556-3.68-7.15556 2.76-4.49778 11.24444-7.97333 20.13778-8.17778 4.29333-.10222 9.30222-.61333 11.14222-1.22666 1.84001-.51112 6.64446-1.22667 10.5289-1.53334 3.98666-.30666 7.36-.81778 7.66666-1.12444.30667-.20445 1.84-.20445 3.57778.20444 1.63556.30667 5.11112 1.02222 7.66667 1.43111Zm-89.03558 4.90667c1.73778 1.02222 3.16889 2.14667 3.16889 2.55556 0 1.22666-4.29333 7.97333-5.00889 7.97333-1.02222 0-3.27111-7.25778-2.55555-8.38222.30666-.40889-.20445-.81778-1.02223-.81778-2.96444 0-1.53333-2.65778 1.63556-2.96444.30667-.10223 2.04445.71555 3.78222 1.63555Z"/>
    <path fill="#f3f3f3" d="M275.20007 153.59917c0 .20445-.71557.92001-1.53334 1.63556-1.32889 1.12445-1.43111 1.02222-.92-.40889.51111-1.43111 2.45334-2.35111 2.45334-1.22667ZM90.6889 163.10584c.40889 1.43112.20445 2.35112-.40889 2.35112-.61333 0-1.12444-.30667-1.12444-.81778 0-.40889-.30667-1.84-.61333-3.27111-.81778-3.16889 1.12444-1.63556 2.14666 1.73777Zm80.04003 5.62223c.40888 4.49778 2.35111 5.52 4.6 2.35111 2.24889-3.06667 4.39555-3.27111 5.11111-.51111.30666 1.22667 1.43111 2.04444 2.76 2.04444 1.22666 0 3.16889.51111 4.29333 1.12445 1.73778.92 2.65778.61334 5.82667-2.55556 4.6-4.49778 5.62223-4.6 4.70223-.61333-.92 3.98667.20443 7.15556 2.45333 7.15556 1.02222 0 2.45333.71555 3.1689 1.53333.81777 1.02222 3.06666 1.53334 6.54221 1.53334 4.70223 0 5.31556.20444 5.31556 2.14666 0 1.63556-.51111 1.94222-2.35111 1.43111-1.73778-.40889-3.06666.20445-4.90666 2.14667-1.43112 1.53333-2.2489 3.06666-1.94223 3.57778.30667.51111 2.65778.92 5.31556.92h4.80444l-2.86222 2.65778c-1.53334 1.4311-2.55555 2.96444-2.24889 3.47555.30667.40889-.30666 1.12445-1.22666 1.43111-1.94223.81778-3.37334-.92-3.37334-3.98666 0-1.12445-.71556-3.06667-1.53334-4.19112-1.22666-1.94222-1.22666-2.45333 0-4.08888 2.24889-2.96445 1.84-3.47556-1.53332-1.73778-3.37334 1.63555-6.13334.61333-6.13334-2.35112 0-.71555-1.12446-2.14666-2.55556-3.06666-2.45334-1.53334-2.65778-1.53334-5.11111.71556-1.32889 1.32888-2.55556 2.76-2.55556 3.16888 0 1.43112 2.76.92 4.08889-.71555.71556-.81778 1.73778-1.53333 2.24888-1.53333 1.43112 0-2.45332 6.13333-4.6 7.25777-2.04444 1.12445-1.22666 3.37333.92 2.55556.92-.40889 1.84.40889 2.45334 1.94222.61334 1.63555 1.53334 2.35111 2.55556 1.94222.81778-.30667 1.53333-1.02222 1.53333-1.53333 0-.51111.71557-.92 1.63557-.92 2.45332 0 1.12443 2.45333-1.53335 2.86222-1.32888.20444-2.65777 1.43112-3.27111 2.96444-.51111 1.3289-1.53334 2.35112-2.14666 2.14668-.71556-.30668-1.94223.20444-2.65778.92-1.12445 1.12444-1.22667 1.63555-.10223 2.96444.81778 1.02222 1.53333 1.22668 2.35112.40888 1.63555-1.63555 2.65778-1.22666 2.65778 1.02223 0 1.12445.51111 2.04445 1.02222 2.04445 1.43111 0 1.32889 3.37333-.20445 4.90667-1.32889 1.32889.30666 1.73777 4.70223 1.22666 2.45333-.20444 1.63555 2.45334-.92 2.96445-1.02223.20444-2.55557 1.02222-3.37334 1.84-3.57778 3.47556-4.80444-1.53333-1.53333-6.54222 1.53333-2.24889 1.4311-2.35112-1.02222-2.35112-1.43112 0-2.76-.71555-3.16889-1.53332-.71556-1.94223-3.06667-1.94223-4.70223 0-.71556.92-2.24889 1.4311-3.37333 1.32888-1.12445-.20445-2.24889.30667-2.55556 1.12444-.40889 1.12445.40889 1.32889 4.29333.81778 2.76-.40889 4.70223-.30667 4.70223.30667 0 .51111.71556.71555 1.63556.30667 1.43111-.51112 1.53333-.10223.92 2.86222-.30667 1.94222-.92 4.29334-1.12445 5.21334-.51111 1.63555.20445 1.84 4.70223 1.84 3.27111 0 5.00889.40888 4.6 1.02222-.30667.51111-2.04445 1.02222-3.78223 1.02222-2.35111 0-2.96444.40889-2.45334 1.53333.4089 1.12445-.10221 1.53333-1.84 1.53333-2.04444 0-2.3511-.40888-1.84-2.24888.4089-1.84.20445-2.04445-1.94221-1.53334-1.32889.40889-3.06667.71556-3.78223.71556-.81778 0-1.02222.81778-.61333 2.45333.71555 3.06667-1.22667 4.39556-2.55556 1.73778-.81777-1.53333-.71555-2.86222.71556-5.41778.92-1.84 2.35111-3.78222 3.06667-4.19111 2.24889-1.53333 1.22666-2.24889-3.37334-2.45333-4.6-.10223-6.33778 1.43111-2.55556 2.45333 2.55556.71555 2.65778 1.94222.30667 3.16889-2.35111 1.22667-6.44-.30667-6.44-2.35111 0-1.84-1.12444-2.04444-2.76-.40889-1.32889 1.32889-4.39556-2.55555-4.39556-5.62223 0-1.53332-.30666-1.73777-1.12444-.92-1.53334 1.53334-.30667 6.33778 1.73778 7.15556.92.30667 2.76 1.73778 4.08889 2.96445 1.22666 1.32889 3.57777 2.45333 5.00889 2.45333 1.73777 0 2.55555.51111 2.24889 1.22667-.20445.71555-1.53334 1.32889-2.86222 1.32889-1.73779 0-2.55556.71555-2.76 2.35111-.51112 3.06667-3.06668 2.86222-3.88445-.30667-1.02223-4.08889-2.76-3.06666-2.04445 1.22667l.71556 3.88444-2.65778-2.86222c-1.43111-1.53333-2.55556-3.57778-2.55556-4.39555 0-.81778-.40889-1.43112-1.02222-1.43112-2.55556 0 .30667 6.23556 5.0089 10.63112 3.47555 3.37333 3.98666 4.70222 1.63555 4.70222-2.24889 0-5.62223-3.27112-5.62223-5.31556 0-1.12444-.71555-1.84-1.84-1.84-1.12444 0-2.45333-1.02222-3.06667-2.35111l-1.12444-2.24889v2.24889c-.10222 1.63555-.61333 2.14667-1.63556 1.73778-.81777-.40889-1.53333-.20444-1.53333.40889 0 2.04444 4.39556 6.33778 9.50667 9.30222 4.60001 2.65778 6.54222 3.06666 14.00445 3.27112 5.92889.20444 8.68889-.10223 8.99556-.92.20444-.71556 1.02222-1.22666 1.84-1.22666.81777 0 3.78222-1.22668 6.54222-2.6578 2.76-1.4311 5.82668-2.45332 6.74668-2.24888 2.24888.40888 3.16888 2.86222 1.12443 2.86222-.81777 0-1.84.71556-2.14666 1.63556-.40889 1.02222-1.32889 1.3289-2.55557.92-2.3511-.71556-4.70221 1.94222-3.68 4.29333.51112 1.02223.71556 2.86223.61334 4.19112-.20444 1.32889.20445 2.96445.81778 3.57778.51111.71555.61333 1.94222.20444 2.65777-.71556 1.12445-1.12444.92-2.14666-.81777-.61334-1.22667-2.35111-2.65778-3.78223-3.27113-2.45333-.92-2.55555-1.12443-.81777-2.3511 1.53333-1.12444 1.63555-1.63555.40889-3.78222l-1.32889-2.45334-.61334 2.45334c-.71556 3.06667-2.35111 3.78222-4.29333 1.73778-2.14667-2.14666-3.88445-.10223-3.88445 4.49778 0 6.33776-1.53333 6.74666-4.19111 1.02222-2.55556-5.41778-5.41777-6.74666-6.54222-3.06666-.61334 2.04444-2.55556 2.65777-3.88445 1.32888-.40889-.30668-.20444-1.22668.40889-1.94222 1.22667-1.53334.10222-6.74666-1.43111-6.23556-.61334.20444-1.53334 1.22667-2.14667 2.2489-.61333 1.0222-1.94222 2.8622-2.86222 3.98666-1.84 1.94222-1.84 1.94222-1.94222-1.02222-.10223-1.63556-.10223-4.08889 0-5.52001.20444-4.90666-.71556-5.41778-3.98667-2.04443-3.78223 3.88443-5.0089 2.14666-2.65778-3.5778 1.63556-3.88444 2.14667-7.66666 1.02222-7.66666-.92 0-7.05334 6.44-6.84889 7.25778.10222.40888-.40889 1.02222-1.22667 1.32888-2.86222 1.12445-2.76-1.63555.40889-6.0311 3.78223-5.21334 3.78223-5.21334 1.02223-5.9289-1.53334-.40888-1.94223-1.22666-1.73778-3.47555.30666-3.06667 0-3.16889-6.95112-1.84-4.70222.81778-3.98666-.40889 2.65778-4.70222 2.86222-1.84 5.11112-3.68 5.11112-4.19112 0-.51111-1.22667-1.32889-2.65778-1.94221-2.55556-.92-2.65778-1.12445-1.02222-2.86223 2.45333-2.76 2.04444-3.37334-2.14667-3.06667-9.20001.5111-9.30223-.20444-.61333-4.70222 4.70222-2.35111 5.21333-2.96445 4.29333-4.70223-.51111-1.02222-1.43111-1.94222-1.94223-1.94222-.61333 0-1.02222-.61333-1.02222-1.32889 0-.61334 1.32889-1.22667 3.06667-1.32889 3.98667-.10222 5.11111-1.22666 2.76-2.86222-2.76-2.14667-2.04445-3.68 1.84-3.68 2.86222 0 3.57778-.40889 3.57778-2.04445 0-1.63555-.51111-1.94222-2.24889-1.73778-1.32889.20445-1.73778.20445-1.02222 0 1.43111-.5111 1.73778-2.3511.40888-2.3511-1.32888 0-5.72444-3.98667-5.1111-4.6.30666-.30667 2.3511.5111 4.6 1.73777 4.90666 2.65778 7.97333 1.94223 7.25778-1.73777-.61334-2.86223.30666-3.27112 2.24889-1.02223 1.84 2.14667 4.08889 1.94223 4.08889-.51111 0-2.24889 2.04444-2.65778 3.78222-.92 2.04444 2.04444 4.08889.30666 6.03112-5.11111 2.04444-5.72445 3.88444-5.62223 4.29333.10222Z"/>
    <path fill="#f3f3f3" d="M196.3867 189.0703c-1.73777 1.02222-2.45332-.4089-1.4311-2.96445.61333-1.63555.71555-1.63555 1.73778.20445.81778 1.4311.71555 2.14666-.30668 2.76Zm98.13337 7.76889c.10223 5.52001.61333 11.85778 1.22667 14.10667 2.35111 8.79111 2.35111 9.30222.81776 7.97334-.81776-.71556-3.47554-1.53334-5.82665-1.94223-4.80445-.71556-4.70223-.61333-3.16889-5.52.61334-1.94222 1.22666-5.00889 1.53334-6.64445.30666-1.73778 1.22666-6.03112 2.04444-9.71112 2.76-11.34666 3.37333-11.04 3.37333 1.73779Zm-77.58669.30666c0 .51111-.92 1.02223-2.14666 1.02223-1.12445 0-1.73778-.51112-1.43112-1.02223.30667-.61333 1.3289-1.02222 2.14667-1.02222.81778 0 1.43111.40889 1.43111 1.02222ZM98.35557 200.1103c-2.04444 3.88444-8.48444 9.91556-8.99556 8.48445-.20444-.81778 1.84001-3.47555 4.49778-5.82667 5.72445-5.21334 5.92889-5.31556 4.49778-2.65778Zm103.96003-.20445c.4089 1.12445-2.65778 2.76-3.57778 1.94223-.20444-.30668-.20444-1.22668.20445-2.14668.61333-1.84 2.76-1.63555 3.37333.20445Zm-4.80444 2.86223c0 1.43112-.40889 2.55555-1.02223 2.55555-.51111 0-1.02223-1.12443-1.02223-2.55555 0-1.43111.51112-2.55556 1.02223-2.55556.61334 0 1.02223 1.12445 1.02223 2.55556Zm9.2-1.02223c0 .81778-.40889 1.53335-.92 1.53335-1.32889 0-2.24889-1.63557-1.43111-2.45335 1.12445-1.12445 2.35111-.61333 2.35111.92Zm9.40444.51112c6.33778 0 6.23556 1.94223-.30666 3.78223-4.39556 1.32888-4.39556 1.32888-.61334.92 4.29334-.51112 5.0089.92 1.22667 2.65777-3.27111 1.43111-2.76 3.27111.81778 3.68 3.37333.40889 3.68 2.24889.40889 2.24889-2.35111 0-4.80444 1.73778-4.80444 3.27111 0 .51111 1.22666 2.14667 2.86222 3.57778l2.76 2.65778-4.29334-.71556c-5.00888-.71555-5.62222.40889-2.24888 4.08889 2.14666 2.35111 1.84 5.41778-.4089 3.68-2.04444-1.63556-6.64444-2.35111-7.46222-1.12444-.71556 1.22667 5.41778 8.07556 7.25778 8.07556.71555 0 2.04444.92 3.06667 2.04444 2.45333 2.76 1.63555 2.55556-6.13333-.92-7.56445-3.47556-8.38223-5.52-4.19112-10.63112 1.53333-1.94222 2.14667-3.78222 1.84-5.41777-.30667-1.73778 0-2.45333 1.12444-2.45333 2.55556 0 3.78223-3.37334 3.78223-9.91556 0-3.98667-.61334-6.8489-1.73778-8.48444-1.63556-2.2489-1.63556-2.35112.10223-1.7378 1.02221.4089 4.08888.71557 6.9511.71557Zm-14.00444 3.06666c.30666.51111.20444 1.02223-.30666 1.02223-.51112 0-1.3289 1.02222-1.7378 2.24889-.61332 2.04445-.81777 2.14666-1.22666.51111-.92-3.47556 1.63556-6.44001 3.27112-3.78223Zm24.02223 0c0 .51111-.71556 1.02223-1.53334 1.02223s-1.53333-.51112-1.53333-1.02223c0-.61333.71555-1.02223 1.53333-1.02223.81778 0 1.53334.4089 1.53334 1.02223Z"/>
    <path fill="#f3f3f3" d="M208.2445 208.28808c.30666.51112.10221 1.22667-.51112 1.63555-.51111.30667-1.02222-.10223-1.02222-.92 0-1.84.61334-2.14666 1.53334-.71555Zm-3.27112 3.37333c-.71556 6.03112-1.32888 8.07556-2.35111 7.46223-1.22667-.81778-1.12445-5.41778.30666-8.48444 1.53334-3.27112 2.45334-2.76 2.04445 1.02221Zm-137.79559 2.04445c2.04444 1.84 5.11111 5.31555 6.84889 7.66667 2.45333 3.68 2.65778 4.39555 1.22666 4.39555-1.02222 0-1.43111-.30666-1.02222-.71555 1.32889-1.43111-6.95111-8.48445-11.96-10.12001-4.90667-1.63555-4.90667-1.73777-2.55556-2.96444 3.37334-1.84 3.271114-1.84 7.46223 1.73778Zm157.42226-.20445c.30667.51111.10222 1.02223-.40889 1.02223-.61333 0-1.12444-.51112-1.12444-1.02223 0-.61333.20444-1.02221.40888-1.02221.30667 0 .81778.40888 1.12445 1.02221Zm67.9778 7.15556c2.14665 1.12445 4.19111 2.45333 4.49778 2.86223.30667.5111-1.12445 2.04444-3.27113 3.37333-4.39554 2.86222-7.8711 9.40445-8.89332 16.35557-.51111 3.57777-1.32888 5.31555-3.57778 6.9511-1.63556 1.12445-3.2711 2.14667-3.68 2.14667-.92 0 2.65778-5.31557 4.6-6.84889.92-.71556 1.22667-1.32888.71556-1.32888s-1.84.71554-2.86223 1.73777c-1.73777 1.53333-1.84 1.53333-1.84-.10223 0-1.02222 1.43111-3.16889 3.16889-4.80444 1.73778-1.63556 2.55556-2.96445 1.84-2.96445-.71555 0-2.14666.71555-3.16889 1.63555-1.63555 1.63557-1.84 1.63557-2.45333 0-1.3289-3.57777.61333-8.58666 5.21333-12.77777 2.55557-2.35111 5.00889-4.19111 5.62223-4.19111.51111 0 1.02222-.51112 1.02222-1.02222 0-2.04445-3.57778-.92-7.05333 2.24888-2.04445 1.94222-3.27112 2.65778-2.86223 1.63556.40888-1.22667.20445-1.53334-.92-1.12444-.92.30666-1.43112-.10223-1.43112-1.22667 0-1.32889.61334-1.63556 2.14668-1.22667 1.22666.30667 3.57778-.30666 5.31555-1.43111 3.98667-2.35111 3.06667-2.35111 7.87112.10222Zm-89.95558 5.72445c0 1.22666-3.57777 6.54222-4.29334 6.54222-1.43111 0-.30666-5.21334 1.32889-6.23556 1.63556-1.02222 2.96445-1.22666 2.96445-.30666Zm-18.19557 3.68c-.61333.61333-1.53333.81778-1.94222.40888-.40888-.40888-.10222-1.12444.71556-1.63555 1.94222-1.22667 2.76-.30667 1.22666 1.22667Zm8.79112-1.02222c-.30667.71555-1.43112 1.4311-2.65778 1.63555-1.63555.30667-2.04444-.10222-1.63555-1.22667.71555-1.94222 4.90666-2.24888 4.29333-.40888Zm-14.20889 1.73777c1.84 1.12445.51111 3.16889-2.04445 3.16889-2.14666 0-2.24888-.10222-1.32888-2.45333.71555-1.84 1.32888-1.94223 3.37333-.71556Zm14.41334 1.84c0 1.02223-3.27112 4.39556-4.29334 4.39556-1.32889 0-.92-1.73778.81777-3.47556 1.63556-1.63555 3.47557-2.14667 3.47557-.92Zm-20.34223 2.35113c1.63556 0 2.96444.40888 2.96444 1.0222 0 1.12445-6.03111 1.43112-8.58667.4089-.92-.30667-1.32889-1.02222-1.02221-1.63556.30666-.51111 1.32888-.71555 2.14666-.40889.81778.30667 2.86222.61335 4.49778.61335Zm23.92.92c-.30666.61332-1.43111 1.12443-2.35111 1.12443-1.32889 0-1.32889-.20443.40889-1.43111 2.14668-1.53333 3.06668-1.43112 1.94222.30668Zm-39.35556 2.14665c0 1.84-1.94223 1.12445-3.06667-1.12445-1.12444-1.9422-1.02222-2.04444.92-.92 1.22667.61334 2.14667 1.53334 2.14667 2.04445Zm25.24889-1.43111c.92 2.35111-1.32889 4.08889-3.27111 2.45334-.81778-.71556-1.53333-1.94223-1.53333-2.65778 0-1.94223 3.98667-1.84 4.80444.20444Zm-6.23555 3.98666c.40888.8178 1.73778 1.53334 3.06666 1.53334 1.32889 0 2.45334.40889 2.45334.92 0 1.63556-3.88445 2.35112-6.13334 1.12446-1.12444-.61334-3.06666-.8178-4.08888-.51112-1.63556.51112-2.04445.20444-2.04445-1.94223 0-2.24888.40889-2.65777 3.06667-2.65777 1.84 0 3.37333.61332 3.68 1.53332Zm23.40888 6.64446c-.30666.51111-1.0222 1.02222-1.63554 1.02222-.51112 0-.92-.51111-.92-1.02222 0-.61334.71554-1.02223 1.63554-1.02223.8178 0 1.22668.40889.92 1.02223Zm85.3556 6.03111c0 1.32889-.92 2.04443-3.27112 2.45333-4.29334.61334-4.70223.20445-2.35111-2.3511 2.35111-2.6578 5.62223-2.6578 5.62223-.10223Zm-116.02226 4.19111c-.30667.51112-1.22667 1.02222-1.84 1.02222-.71556 0-.61334-.4089.30666-1.02222 1.94223-1.22668 2.35111-1.22668 1.53334 0Zm114.28446 1.32889c-1.73777.71556-3.57777 1.53333-3.98666 1.94223-.40888.5111-1.22666.81777-1.84.81777-.61334-.10222 0-1.02222 1.32889-2.04444 1.32889-1.12445 3.57777-2.04445 5.11112-1.94223 2.55555.10223 2.55555.10223-.61335 1.22667Zm-118.37335.71556c.30666.61333-.10223.71555-.92.40887-1.84-.71554-2.14667-1.4311-.71555-1.4311.61332 0 1.32888.4089 1.63555 1.02223Zm125.4267 4.29333c1.53333 1.73778 2.86222 3.57778 2.86222 3.98667s-2.76.71557-6.13333.61333c-3.47556 0-6.74667.51111-7.36001 1.12444-1.53333 1.53334-2.86223 1.53334-2.86223.20445s5.52-4.08889 8.38223-4.08889c1.63557 0 1.94223-.30666 1.12445-1.12444-.81778-.81778-1.73778-.81778-3.16888 0-2.45334 1.32888-5.31557 1.43111-5.31557.30666 0-1.22666 5.41777-4.19111 7.56445-4.29333 1.12444 0 3.27112 1.43111 4.90667 3.27111Zm-15.1289-.71556c.30667.81778.10223 1.53334-.40888 1.53334-.61334 0-1.02223-.71556-1.02223-1.53334 0-.81777.20446-1.53333.40889-1.53333.20445 0 .61334.71556 1.02222 1.53333Zm-101.30225 4.49778c.92.81778 1.73778 2.04445 1.73778 2.55556s-.81778 1.84-1.73778 2.96446c-1.73777 1.9422-1.73777 1.9422.4089 1.32887 3.57777-1.12444 3.68 1.12445.10222 3.88445-3.06667 2.45333-3.16889 2.65778-1.02222 2.65778 2.76 0 2.86222 1.4311.20444 3.37333-2.14667 1.53334-1.73778 2.96445.61333 2.04445 2.76-1.02222 1.43111 1.84-1.32889 2.96444-2.76 1.12445-2.76 1.22668-.51111 1.53334 1.22667.30666 2.24889 1.12444 2.24889 1.94222 0 1.73778 1.73778 1.84 3.37334.10222.71555-.71555 2.3511-3.47555 3.68-6.13333 2.14666-4.29334 5.21333-6.54223 5.21333-3.78223 0 .51111-.71556 1.02223-1.53333 1.02223-.81778 0-1.63556.92-1.63556 2.04443-.20444 2.04446-.51111 3.68-.92 4.6-.10222.30668-.30667.8178-.51111 1.22668-.71556 2.65778-1.94223 4.39556-3.06667 4.39556-.61333 0-2.04444.92-3.06666 2.04444-1.94223 2.14667-.81778 2.96445 1.22666.92 1.22667-1.22668 3.37334-.40888 3.37334 1.22667 0 .51111-.61334.92-1.3289.92-.81777 0-2.45333 1.22665-3.88444 2.65778-2.24889 2.45333-2.24889 2.65777-.40889 2.04444 1.12445-.30667 2.76-.10222 3.57778.40889 1.22667.81778 1.12445 1.02224-.61333 1.02224-1.22667 0-2.76.71554-3.47556 1.5333-1.02222 1.2267-.92 1.53335.71556 1.53335 1.12444 0 2.24888.30665 2.65778.61335.92.92-.30667 3.47554-1.73778 3.47554-1.53334 0-5.00889 4.08889-4.29334 4.90666.40889.30668 1.32889-.30666 2.14667-1.4311 1.43111-1.84 1.43111-1.84 1.53333.5111 0 1.63556.40889 2.14668 1.53334 1.7378 2.14666-.8178 1.94222.61332-.51112 2.76-1.73777 1.53332-2.04444 1.53332-2.04444.1022 0-.81777-.40889-1.32888-.92-.92-.51111.30668-.92 1.94223-.92 3.5778.10222 2.65777.40889 2.96443 2.14667 2.45332 1.73777-.51112 1.94222-.30666 1.43111 1.63556-.40889 1.53332.20444 3.06667 1.94222 4.80444 2.14667 2.14668 2.24889 2.76001 1.22667 4.70223-1.63556 3.06665-1.73778 16.56 0 18.19555 2.24889 2.3511 1.32889 3.88445-3.06667 5.1111-2.45333.71558-5.62222 2.1467-7.15556 3.1689-3.37333 2.35112-4.1911 2.35112-2.96444-.1022.61334-1.02223 2.86222-2.86223 5.11111-3.88446 4.39556-2.14666 4.70223-3.88444.40889-2.24889-3.88445 1.43111-4.90666 1.12445-2.86222-1.12445 1.02222-1.12444 2.65777-2.04444 3.78222-2.04444 1.02222 0 1.84-.51111 1.84-1.02222 0-1.32889-1.94222-1.32889-5.92889.10222-4.08889 1.43111-6.74667.61334-3.27111-1.02222 7.56444-3.57778 8.48444-5.21334 2.86222-5.21334-3.88444 0-3.68-1.63555.51112-2.55555 1.73777-.40889 2.76-.92 2.04444-1.22665-.71556-.20446-.92-1.12446-.61334-1.94224.30667-.92-.20444-1.43111-1.63555-1.43111-1.22667 0-2.14667-.61335-2.14667-1.53335 0-.81776-.40888-1.5333-.81778-1.5333-.40889 0-1.32889-1.3289-1.94222-3.0667-.61333-1.63554-2.04445-3.37332-3.06667-3.68-1.02222-.40888-2.65778-1.4311-3.57778-2.24888-1.02222-.81777-2.65778-1.22666-3.88444-.92-1.32889.30668-2.04445 0-2.04445-.92 0-.81778-1.12444-1.53332-2.76-1.63555-1.63555 0-3.27111-.20445-3.88444-.30667-.51111-.10222-3.78223-.5111-7.15556-.92-3.37334-.4089-8.17778-1.22667-10.63112-1.84-3.98666-1.02222-4.29333-1.22667-2.24888-2.04445 1.32888-.40888 2.76-.61333 3.16889-.30665.51111.30665 4.70222 1.0222 9.40444 1.53332 14.51556 1.73778 18.19556 2.65778 23.00001 6.03111 2.55555 1.84 4.90667 2.96445 5.31556 2.65777 1.22666-1.22665.40888-19.4222-1.12444-26.06666-.92-3.68-1.84001-8.48444-2.14668-10.73334l-.61333-4.0889 1.53333 2.76c2.45334 4.6 3.88445 3.88446 5.00889-2.55554.71556-3.88446.71556-3.88446-2.14666-3.27112l-2.96445.61334 2.86222-1.63556c2.55556-1.43112 2.86223-2.24889 2.65778-5.62222-.20444-2.2489 0-4.29334.4089-4.70222.40888-.40888.71555-3.78223.81777-7.46223 0-5.62222.20444-6.44 1.22667-4.80445.71556 1.02223 2.04444 2.65778 3.06666 3.57778Zm-86.48002.71556c-.30667.30666-1.22667.40889-1.94222.10222-.81778-.30666-.51111-.61333.61333-.61333 1.12445-.10223 1.73778.20444 1.32889.51111Zm169.9956 3.88446c0 .20443-.71555.61332-1.53333 1.0222-.81778.30667-1.53333.10223-1.53333-.40888 0-.61332.71555-1.02222 1.53333-1.02222.81778 0 1.53333.20444 1.53333.4089Zm17.37779.61332c0 .51111-.51112 1.02222-1.12445 1.02222-.51112 0-.71556-.51111-.40889-1.02222.30667-.61332.81777-1.02222 1.12445-1.02222.20444 0 .40889.4089.40889 1.02222Zm-189.00895 8.28c-.92 2.35111-1.02222 2.35111-1.02222.20445-.10222-1.22667.20445-3.06667.61334-4.08889.61333-1.53334.81777-1.53334 1.12444-.20445.10222.81777-.20444 2.65777-.71556 4.08889Zm174.69783-1.12444c0 .51112-.40889 1.02222-1.02222 1.02222-.51111 0-1.02223-.5111-1.02223-1.02222 0-.61334.51112-1.02223 1.02223-1.02223.61333 0 1.02222.40889 1.02222 1.02223Zm-4.08889 8.28c0 6.74667-.10222 7.15556-2.04444 6.54222-1.53334-.5111-2.04445-.20444-2.14667 1.22667-.10222 3.57778-1.73778-2.04445-2.04445-7.46222-.4089-4.70223-.30666-5.0089 1.94223-4.70223 1.73777.30668 2.24889-.20444 2.24889-1.84 0-1.22667.51111-1.84 1.02222-1.53332.61333.30665 1.02222 3.88443 1.02222 7.76888ZM90.89335 283.217c.92 1.53332 3.78222 3.37332 7.25778 4.90666 1.94222.81777 2.24889 1.73777 2.24889 6.64444 0 3.1689.71555 7.2578 1.43111 9.2.92 2.04445 1.12444 3.5778.51111 3.5778-1.32889 0-5.41778-7.05335-5.52-9.6089-.10222-1.22667-.20444-3.68-.30667-5.52-.10222-1.7378-.71555-3.27112-1.32889-3.27112-.61333 0-.92.71555-.51111 1.53332.30667.8178.30667 2.2489 0 3.06668-1.02222 2.65778-2.45333.51112-2.45333-3.68 0-2.24888-.51111-3.98668-1.12445-3.98668-.81778 0-1.02222 1.3289-.61333 3.78223.51111 2.65777.30667 3.37334-.40889 2.65777-1.63556-1.63554-2.45333-10.52888-1.12444-10.52888.61333 0 1.53333.61333 1.94222 1.22668Zm-12.98223.81777c0 .51111-.40889 1.02223-1.02222 1.02223-.51111 0-1.02222-.51112-1.02222-1.02223 0-.61334.51111-1.02223 1.02222-1.02223.61333 0 1.02222.40889 1.02222 1.02223Zm4.08889 2.35111c0 .51112-.40889.51112-1.02222.20444-.51111-.30666-1.02222-1.43112-1.02222-2.35112 0-1.53332.20444-1.53332 1.02222-.20443.51111.81777 1.02222 1.94223 1.02222 2.35111Zm184.51116-.92c2.55556 1.32889 2.65778 1.43112.61333 2.14666-1.22666.30666-3.06666 2.96446-4.6 6.23556-1.73777 3.88445-2.96444 5.41778-3.88444 4.90667-.81778-.51111-.81778-.92-.10222-1.12444.61333-.20445 1.94222-3.37333 2.96444-6.95113 1.02222-3.68 1.94222-6.64443 2.04445-6.64443.10222 0 1.43111.61333 2.96444 1.43111Zm-187.27116 4.39555c1.53334 2.96445 1.63556 3.88445.51111 4.49777-3.06666 2.04446-5.11111.51112-2.65778-1.9422.81778-.8178.81778-1.22668.10223-1.22668-.61334 0-1.32889-1.12444-1.53334-2.55555-.817775-3.78223 1.43111-3.06667 3.57778 1.22666Z"/>
    <path fill="#f3f3f3" d="M126.46669 289.55477c-1.22667 6.44 4.80445 11.85778 13.08445 11.85778h3.47556v5.11111c-.10223 5.72444.5111 6.44 8.58666 10.63112 2.55556 1.43112 5.21334 3.27112 5.9289 4.08889.81777.92 2.04444 1.63555 2.76 1.63555.81777 0 1.43111.40888 1.43111 1.02222 0 1.43112-1.94223 1.22666-3.57778-.40889-.81778-.71555-3.78222-1.63555-6.64445-2.04445-4.39555-.61332-5.52-1.22666-6.95111-3.68-1.84-3.2711-4.70223-4.29333-3.57778-1.32888.30667 1.02222 1.02222 2.45333 1.63555 3.06668.61334.92.61334 1.32888-.10222 1.32888-.51111 0-1.53333-1.43112-2.24888-3.06668-1.53334-3.68-3.57778-4.0889-2.65778-.5111.40888 1.4311.20444 2.55555-.20445 2.55555-1.63555 0-4.29333-3.68-4.90667-6.95111-.40888-1.84-1.12444-3.27111-1.63555-3.27111s-.71555 1.32887-.30667 3.06667c.61333 2.65777.40889 2.96444-1.22667 2.3511-5.11111-1.73777-6.95111-6.8489-6.44-18.09333.20445-6.44-1.43111-7.36-2.55555-1.32889-.92 4.49778 1.32889 17.17332 3.27111 19.32002 2.45333 2.76 1.12444 3.16888-4.49778 1.32887-3.37333-1.12444-5.00889-2.24887-5.00889-3.37333 0-5.41778-.51111-8.38224-1.43111-8.38224-.51111 0-1.02222 1.2267-1.12445 2.76-.20444 5.11113-2.76-4.6-2.86222-10.73332l-.10222-5.31556h4.08889c4.08889 0 4.80444-.20444 10.73333-3.27112 1.73778-.92 3.16889-1.73777 3.37334-1.73777.20444-.10223 0 1.43111-.30667 3.37334Zm36.2889-3.06667c0 .30667-.40889.81778-1.02222 1.12444-.51111.30666-1.02222.10223-1.02222-.40888 0-.61334.51111-1.12446 1.02222-1.12446.61333 0 1.02222.20446 1.02222.4089Zm85.15113 2.86222c1.32888 7.36001 1.12445 15.12888-.40888 16.66223-1.32889 1.32889-1.53334.61335-1.53334-6.13335 0-4.1911-.5111-8.17777-1.12444-8.7911-.81778-.81778-1.12446 1.22667-1.12446 7.46223 0 4.6-.5111 9.81333-1.12443 11.34667-.92 2.3511-.81777 2.96444.51111 3.47555 1.84.71555 10.93778-6.74665 11.44889-9.40445.30667-1.12444 0-1.53333-.71557-1.12444-.61332.40889-1.12443.20444-1.12443-.40889 0-.61333-.51111-.81777-1.22667-.40887-.71555.40887-.81777.30665-.4089-.4089.71557-1.22667 7.7689-1.43112 7.7689-.20445 0 .40889-.71555 1.32889-1.53333 2.04445-.81777.71555-1.53333 1.73777-1.53333 2.2489 0 .5111-1.63556 2.24887-3.57778 3.98665-1.94222 1.73778-3.57778 3.68-3.57778 4.39555-.10222 1.53334-16.45778 9.30223-24.22668 11.4489-3.57777 1.02222-6.44 2.2489-6.44 2.76 0 .61333-.5111.61333-1.22666 0-1.84-1.4311-11.04-1.63556-11.04-.30667 0 .51111-.92 1.02223-2.04444 1.02223-1.12445 0-2.04445-.51112-2.04445-1.02223 0-2.55555-12.88001-.40889-16.56001 2.86223-2.86222 2.45334-.92 3.47554 2.24889 1.22666 4.39556-3.06666 12.67557-3.06666 19.01334.10223 3.98667 1.94222 5.52 3.47555 7.66667 7.76889 1.53333 2.96446 2.96444 5.00889 3.27111 4.70222.92-.81776-.40889-6.84889-1.73778-7.97334-.71555-.61332-1.53333-1.84-1.94222-2.86222-.40889-.92-1.73778-2.2489-2.96445-2.76-1.4311-.5111-1.73777-.92-.81777-.92 2.65777-.10222 6.23555 3.06667 7.76889 6.74667.81778 1.84 1.94222 3.16889 2.45333 2.86223.61333-.4089.10222-2.3511-1.12445-4.80445-2.3511-4.49778-1.94222-6.13335.92-3.57778 2.04445 1.84 3.47556 1.43111 2.65778-.71557-.30666-.92 1.63556-1.9422 5.41778-3.16888 3.27112-.92 7.97334-2.86222 10.42667-4.19112 5.72445-3.16888 6.44-3.06666 10.83557.71557 4.80444 4.19111 5.00888 1.12443.30666-3.37334l-3.37334-3.06667 2.96445.61334c1.63556.4089 3.78223 1.73778 4.80443 2.96444 1.22668 1.53334 1.84002 1.73778 1.94224.81778 0-1.94222-2.96444-5.21332-4.80444-5.21332-.71556 0-1.3289-.51113-1.3289-1.02224 0-2.65776 8.6889.61334 11.65334 4.39556 3.16889 3.98668 4.29333 3.27111 1.73778-.92-1.02222-1.73778-3.88445-4.08889-6.33778-5.21332l-4.49778-2.1467 3.06667-1.22665c3.68-1.53335 7.46222-1.73778 10.01777-.61335 1.12445.51113 1.7378.4089 1.7378-.30665 0-.71555-.71557-1.43111-1.53335-1.63555-5.00889-1.63556-5.21333-1.7378-2.04445-2.6578 1.84-.5111 4.19112-.5111 5.9289.10224 2.14666.71556 2.76.61333 2.76-.51111 0-1.84-6.8489-3.27113-8.48445-1.63556-1.32889 1.32889-3.78222 1.53333-3.78222.30667 0-.51111 1.63555-1.43111 3.68-2.04444 4.70222-1.43112 11.14222.81777 12.06222 4.1911 1.22667 4.70223 0 20.03557-1.73777 21.77334-.30668.30666-2.14668 0-4.08888-.71554-3.06668-1.12446-4.29335-1.02223-8.58668.61332-2.65778 1.02222-6.13334 3.27111-7.76889 4.90668-2.96445 3.1689-3.27113 3.06666-7.66667-1.12445-3.78223-3.47555-7.66666-3.68001-14.31112-.51112-3.57778 1.73777-6.33778 5.92889-6.33778 9.81334 0 4.29333-3.06666 12.88-5.62222 15.74223-2.35111 2.76-2.45334 2.76-2.55556.61333 0-1.22667-.51111-3.47556-1.22666-5.11113-.61334-1.5333-1.02222-3.2711-.92-3.7822.40888-1.7378-3.16889-7.15556-6.33778-9.81334-1.94223-1.53334-4.19112-2.35111-6.03112-2.24889-2.86222.20443-3.98666-1.22667-1.53332-2.14667.61332-.30666.1022-.61333-1.3289-.71555-5.11111-.40889-9.71111.20445-11.55111 1.53333-1.43112 1.02222-2.45334 1.02222-4.29334.10222-3.06667-1.3289-3.16889-2.76-.61333-5.1111 4.49778-4.0889 11.75556-5.72446 25.45334-5.72446 14.41334 0 21.16-1.32889 28.52001-5.72444 4.39555-2.55556 4.6-2.86223 2.55555-3.57778-2.35112-.92002-2.96444-2.45332-1.22666-3.47556 1.22666-.81776 1.32888-2.55556.10222-2.55556-.71556 0-1.94223 2.55556-2.55556 5.31556 0 .30667-.51112 1.02224-1.02222 1.53334-.5111.5111-.71556-.10223-.30667-1.53334.30667-1.22666.10222-2.24889-.30666-2.24889-.51112 0-1.63557 1.02223-2.55557 2.24889-1.12444 1.63556-1.84 1.94224-2.3511 1.12444-.51111-.81777-1.43111-.20444-2.76 1.84-1.84 2.76-6.03112 4.90668-7.25778 3.78223-.20445-.30667 0-1.73778.61333-3.27111 1.22667-3.37332 1.32889-8.07556.10222-7.36002-.51111.3067-1.22667 2.04446-1.53333 3.88446-.71556 3.78224-3.68 8.38224-3.68 5.82667 0-.81778.40889-3.06667 1.02222-4.90667.92-3.37333.30667-11.96-.81778-10.93776-.20444.30665-.61333 2.96443-.71555 5.92887-.40889 7.36001-.51111 7.66667-2.86223 9.71113-2.04444 1.84-2.04444 1.73777-1.32889-.71557 2.45334-8.07556 2.76001-13.08443 1.22667-16.76443-.81778-2.04446-2.04444-3.68002-2.55555-3.68002-1.43112 0-1.43112.10222.51111 3.98667 3.06666 6.23555-.30667 18.50223-5.11112 18.50223-3.27112 0-3.98666-1.02223-2.04444-3.16888.92-1.02224 3.47556-6.44 3.47556-10.0178 0-3.37333-3.98667-9.7111-6.13334-9.91555-.81778-.10222-1.94222-.20445-2.3511-.30667-.4089 0-.30668-1.02222.30666-2.14668 2.04444-3.88443 12.67555-1.53332 19.01334 4.39557 6.84888 6.13333 14.72 5.52 18.19555-1.43111 1.94223-3.88446 2.04445-6.23556.51112-7.76889-1.43112-1.43111-.30667-3.47557 1.43111-2.86223.71555.20446 2.86222 0 4.80444-.40888 5.62223-1.43112 5.82668-1.32889 6.44 2.14666Z"/>
    <path fill="#f3f3f3" d="M87.9289 297.017c5.31556 7.56444 10.01778 12.0622 14.61778 14.00444 1.94223.81776 4.19112 2.24889 5.0089 3.06666.71555.92 2.04444 1.63556 3.06666 1.63556 1.02223 0 2.04445.71556 2.45334 1.53334.92 2.45333-1.43111 1.84-7.87112-2.04445-3.27111-1.94222-6.13333-3.57778-6.44-3.57778-.40889 0-2.96444-2.14667-7.05333-6.13333-2.24889-2.24889-8.17778-2.76-10.73334-.92-1.12444.71556-.61333.81776 2.04445.40889 1.94222-.30667 4.29333-.10223 5.11111.40887 1.32889.92 1.22666 1.2267-.51111 2.55557-1.94223 1.53333-1.84 1.53333 1.53333 1.63556 1.94222 0 4.19111.40887 5.00889.92 1.84 1.12444.51111 3.16887-2.04444 3.16887-1.02223 0-1.94223.4089-1.94223 1.02224 0 .61333 1.94223.71556 4.90667.40889l4.80445-.51111-5.00889 2.86222c-2.76 1.53334-5.52001 3.78223-6.13334 4.90666-.61333 1.12445-1.53333 2.35112-2.14667 2.76-.51111.4089-.61333 1.12446-.10222 1.53334.40889.40889 2.04445-.61334 3.47556-2.45334 2.86222-3.2711 6.23555-5.41777 8.58667-5.41777.81778.10222.61333.61333-.61334 1.53333-2.86222 2.14667-1.22666 3.06667 1.84 1.02224 1.94223-1.3289 3.68001-1.53335 6.95112-1.02224 2.45333.40889 4.90667 1.02224 5.41778 1.43112.61333.40889 2.86222 1.32889 5.11111 2.04444 2.24889.81778 5.21333 1.84 6.44 2.24888l2.45333.92-3.16889 3.5778c-4.29333 5.0089-6.64444 9.7111-5.41777 10.93777.71555.71556 1.22666.20443 1.73777-1.32887 1.22667-3.88446 2.76-5.4178 3.68-3.78224.61334 1.02224 1.73778.30666 3.98667-2.55556 3.57778-4.1911 5.21334-4.90667 4.39556-1.73778-.71556 2.76.10222 2.55556 3.27111-.61332 2.24889-2.2489 3.27111-2.55557 8.68889-2.2489 3.37334.10222 6.13334.5111 6.13334.71556 0 .30666-1.22667 1.73777-2.76 3.37334-1.43111 1.53332-2.35111 3.1689-1.94223 3.57777.40889.51113 1.43112 0 2.14667-1.02222.71556-1.02223 2.45334-2.04445 3.78222-2.14667 1.32889-.20444 3.27112-.61333 4.49778-1.02222 2.65778-.81778 5.00889 1.63554 3.98667 4.19111-.51111 1.22667-.92 1.43113-1.22667.51113-.30666-.61335-1.12444-1.2267-2.04444-1.2267-2.24889 0-7.46222 3.27113-7.46222 4.80446 0 1.43111-3.98668 2.76-6.8489 2.14667-1.02222-.20443-1.84-1.22667-1.84-2.35113 0-5.2133-12.16444-1.9422-19.32 5.21335-2.55556 2.45335-4.80445 4.49778-5.11111 4.49778-.30667 0-.61334-1.32889-.61334-2.96443 0-6.64446-5.11111-14.82224-11.04-17.7867-8.48445-4.08888-13.39112-.30665-13.69778 10.22224 0 1.32889-.61334 2.35111-1.32889 2.35111-.71556 0-1.53333.71555-1.94222 1.53335-1.32889 3.57776-2.24889 1.12443-1.84-5.11113.30666-4.49777.10222-6.64445-.71556-6.64445s-.81778-.51112 0-1.94222c.71556-1.12444.92-2.65778.40889-3.78222-.40889-1.12445-.81778-3.98668-.92-6.44-.10222-2.86223-.81778-4.80445-1.94222-5.72445-.92-.61333-1.43112-1.43113-1.12445-1.84.30667-.30667-.20444-2.04443-1.12444-3.78223-.92-1.84-1.53334-4.39555-1.22667-5.72444.30667-1.53333-.10222-2.45333-.81778-2.45333-.81778 0-1.12444-.81778-.81778-2.14667.40889-1.53333 1.22667-1.94222 3.27112-1.73778 1.53333.20445 2.65777.92 2.65777 1.84 0 1.53332 2.35112 3.98667 3.88445 4.08889 1.22667 0 .81778-3.27111-.71556-5.00889-1.43111-1.63556-3.16889-6.23556-2.35111-6.23556.20445 0 2.24889 2.65778 4.6 5.82668Z"/>
    <path fill="#f3f3f3" d="M106.32891 296.50588c.10222 5.00889.92 8.89332 2.76 13.28889.40889 1.02223.30667 1.84-.10222 1.84-1.43111 0-6.44001-10.42667-6.64445-13.8-.40889-5.31557 0-6.64445 1.94222-6.64445 1.53334 0 1.94223.92 2.04445 5.31556Zm163.55559-2.55556c.20445.81778-.5111 1.32888-1.73777 1.32888s-2.14667-.61332-2.14667-1.63554c0-1.84 3.16889-1.53334 3.88444.30666Zm4.0889 4.90668c1.12444 1.12444-.4089 1.32888-5.21334.81777-3.37333-.40889-4.49776-.92-3.57776-1.53333 1.32887-.92 7.66665-.40889 8.7911.71556Zm-178.6845-.10223c0 .92-3.06666 1.43111-3.57777.61333-.40889-.61333.30666-1.02222 1.43111-1.02222 1.22666 0 2.14666.20445 2.14666.40889Zm49.37335 1.32889c-.71555.20444-2.14667.20444-3.06667 0-1.02222-.30666-.40888-.51111 1.22667-.51111 1.73778 0 2.45334.20445 1.84.51111Zm-17.17334 29.95112c-.30666.51112-1.12444 1.02222-1.63555 1.02222-.61334 0-.71556-.5111-.40889-1.02222.30667-.61333 1.12444-1.02222 1.63555-1.02222.61334 0 .71556.40889.40889 1.02222Zm60.41335 35.26667c-.92 1.43112-1.43111 3.16889-1.02222 3.78225.40889.71553.30666.81776-.40889.40887-1.53333-.92-1.53333-3.98667 0-5.52 2.24889-2.24889 3.16889-1.32889 1.43111 1.32888Zm-5.52 2.04445c-.20444 1.4311-.81778 2.86222-1.32889 3.1689-1.02222.61332-1.12444-.20445-.30667-3.47557.92-3.06666 2.2489-2.86223 1.63556.30667Zm-4.49778 1.84c-1.22666 4.0889-6.44 6.74667-8.68888 4.4978-1.12445-1.12447-.92-1.7378 1.12444-3.68 2.45333-2.35113 2.55556-2.35113 1.94222-.20447-.81778 3.16889.92 2.65777 2.96444-.92 2.35112-4.19113 3.98667-3.98666 2.65778.30667Z"/>
    <path fill="#000" d="M95.18668 161.0614c0 1.02222-.20444 2.55556-.30666 3.37333-.40889 1.84-2.04445 15.23112-2.14667 17.37779 0 .81778-.71556 4.19111-1.43111 7.56444-1.12445 5.00889-1.12445 6.13334.10222 6.84889.92.61334 1.63556-.10222 2.55556-2.96445.61333-2.04444 1.22666-5.1111 1.22666-6.64444.10222-1.94222 1.73778-4.90666 4.80445-8.48445 2.65778-3.06666 4.39556-5.52 3.88444-5.52-.40888 0-2.04444 1.53334-3.57777 3.27112-1.53334 1.84-3.06667 3.06667-3.47556 2.65777-.40889-.40889 1.12444-2.86222 3.47556-5.52 2.24888-2.65778 4.19111-5.21333 4.19111-5.62222 0-1.43111-2.04445-1.02222-2.04445.30667-.10222 1.84-3.68 5.92889-5.11111 5.92889-.71555 0-1.02222-.71556-.61333-1.63556.30666-.92.92-4.08889 1.22666-7.15556.61334-4.70222.40889-5.52-1.02222-5.52-.92 0-1.63556.81778-1.73778 1.73778Zm-15.23111 49.5778c-.71556 2.96444-1.73778 6.0311-2.35111 6.74666-1.22667 1.53334-.30667 2.65778 1.63555 1.94222.81778-.30667 2.04445-2.76 2.76-5.52.61334-2.65778 1.43111-5.72445 1.73778-6.74668.30667-1.0222-.10222-1.73777-1.02222-1.73777-1.02222 0-1.94222 1.94223-2.76 5.31557Zm-18.40001 35.57333c0 .51111.81778 1.02223 1.84 1.02223 1.022226 0 2.351115.51111 3.06667 1.22666.92.92 1.22667.92 1.22667 0 0-.71555-1.22667-1.73778-2.65778-2.24889-3.27111-1.22666-3.47556-1.22666-3.47556 0Zm29.64446 4.29334c-3.98667 1.63555-.81778 2.04443 3.68.40889 3.16889-1.22666 3.47555-1.53334 1.43111-1.53334-1.43111 0-3.68.51111-5.11111 1.12445Zm1.43111 4.80443c-4.29334 1.94224-6.64445 4.19113-4.39556 4.19113.71556 0 2.14667-.81778 3.27111-1.84 1.43111-1.32889 4.19111-1.84 11.14223-2.14667 5.92889-.20446 8.79111-.61334 7.87111-1.22666-2.55556-1.63556-13.49334-1.02223-17.88889 1.0222Zm-37.720014 10.32446c-1.942222.81778-1.942222.92.306664.92 1.22667.10222 4.90667 1.02222 8.07556 2.14667 7.15556 2.55557 7.15556 2.55557 4.90667 0-1.02222-1.12445-3.47556-2.45333-5.52-3.06667-4.29334-1.22666-5.00889-1.22666-7.768894 0ZM282.6623 180.48363c-4.4978 7.05333-5.72446 9.60889-4.80446 10.32444.40889.40889.92.10223 1.12446-.61333.30666-.71556 2.55554-4.19111 5.00888-7.87111 2.76-4.08889 3.98667-6.64445 3.16889-6.64445-.81777 0-2.76 2.14667-4.49777 4.80445Zm-33.5289 31.99557c-.30668.5111.1022 1.02221 1.0222 1.02221 2.55557 0 12.26668 5.52 14.51557 8.17779.71556.81777 1.22667 1.02222 1.32889.5111.10224-4.70222-14.72-13.18667-16.86666-9.7111Zm-9.2 46c-.30668.5111-.20446 1.02223.40888 1.02223.51112 0 1.32889-.51113 1.63555-1.02223.30667-.61333.20445-1.02222-.40888-1.02222-.51112 0-1.32889.40889-1.63555 1.02222Zm-96.60004-134.52448c0 .81778 1.12444 2.14667 2.45334 3.06667 1.4311.81778 4.90666 5.00889 7.87111 9.30222 5.72445 8.07556 8.99556 10.52889 4.80445 3.57779-2.86223-4.90667-12.06223-15.94668-13.80001-16.76446-.71555-.30666-1.32889.10223-1.32889.81778Zm21.46668-.51111c0 .71556 2.24888 5.52 3.88444 8.17778.10222.20445.40889.20445.71556-.10222.71556-.71556-2.24889-7.66667-3.57778-8.48445-.51111-.30666-1.02222-.20444-1.02222.40889Zm-13.2889 1.02222c0 .51111.71556 1.43112 1.43111 2.14667.81778.61333 2.96445 3.47556 4.70223 6.23556 1.84 2.76 3.68 5.00889 4.19111 5.00889 1.32889 0-.61333-3.57778-5.00889-9.50667-3.47556-4.49778-5.31556-5.92889-5.31556-3.88445Z"/>
    <path fill="#000" d="M157.64448 123.95472c0 .20445 1.63555 2.86223 3.57778 5.82667 3.98666 6.13334 9.09778 18.60445 8.38222 20.54667-.40888 1.22667-2.35111-2.35111-4.90667-9.2-.51111-1.22666-1.32889-2.24889-1.94222-2.24889-.71556 0-.71556.61333 0 1.73778.51111 1.02222 1.94222 4.49778 3.16889 7.76889 2.24889 6.33778 5.41778 9.30222 6.44 6.03111 1.22667-3.68-6.54222-22.79556-11.55111-28.62223-1.84-2.04444-3.16889-2.86222-3.16889-1.84Zm30.25778 4.39556c-3.27111 6.74667-4.19111 9.81334-2.65777 9.30222.71555-.20444 1.94221-2.45333 2.76-4.90666.81777-2.55556 2.14666-5.31556 2.96444-6.23556 1.63556-1.84 1.84-2.96445.40889-2.96445-.51112 0-2.04444 2.14667-3.47556 4.80445Zm-6.13333-1.12445c-.61333 2.45334-.20445 4.39556.81777 3.37334 1.12445-1.02222 1.73778-6.03111.81778-6.03111-.51111 0-1.32888 1.22666-1.63555 2.65777Zm28.62223 7.66667c-4.19111 4.6-5.62222 7.05334-4.29334 7.05334.30668 0 3.16889-2.76 6.54223-6.13334 4.39555-4.39555 5.62222-6.13333 4.29333-6.13333-1.02222 0-3.98666 2.35111-6.54222 5.21333Zm-31.28001 15.23112c-1.32889 3.16888-.71555 5.31556.92 3.47555 1.32889-1.43111 2.35111-6.54222 1.22667-6.54222-.51112 0-1.43112 1.43111-2.14667 3.06667Zm-1.22667 6.44c-1.22666 2.96445-1.02222 6.44.30667 5.11111.61333-.61333.92-2.35111.71555-3.98667-.20444-2.45333-.40888-2.65777-1.02222-1.12444Zm.20445 18.09334c0 .51111.51111 1.02222 1.02222 1.02222.61333 0 1.02222-.51111 1.02222-1.02222 0-.61334-.40889-1.02222-1.02222-1.02222-.51111 0-1.02222.40888-1.02222 1.02222Zm-7.66667 3.16889c-.40889.61333-.51111 1.32889-.20445 1.63555.71556.71556 2.76001-.61333 2.76001-1.84 0-1.22666-1.73778-1.22666-2.55556.20445Zm11.75556.40889c-.71556.92-1.02222 1.84-.71556 2.14666 1.02222 1.12445 3.78223-.5111 3.78223-2.14666 0-1.94223-1.43112-1.94223-3.06667 0Zm-24.53334 2.04444c-.71556.81778-1.94223 1.53334-2.65778 1.53334-1.73778 0-1.84 1.12444-.10222 3.47555 1.12444 1.53333 1.53333 1.53333 2.45333.40889 1.22667-1.43111 2.86222-6.95111 2.04445-6.95111-.20445 0-1.02223.71555-1.73778 1.53333Zm41.09334.92c.10222 1.02222.81778 1.73778 1.32888 1.73778 1.53335-.10222 1.22668-2.45333-.30666-2.96444-.92-.30667-1.32888.20444-1.02222 1.22666Zm-22.28445 3.98667c-.92 2.45333.40889 6.84889 1.94223 6.84889.71555 0 2.04444-.61334 2.86222-1.32889 1.43111-1.02222 1.22666-1.63555-1.22667-4.19111-2.45333-2.65778-2.96445-2.76-3.57778-1.32889Zm6.23556.71555c-.30667.51112.30667 1.02223 1.43111 1.02223 1.22666 0 2.14666-.51111 2.14666-1.02223 0-.61333-.61333-1.02222-1.4311-1.02222-.81778 0-1.84.40889-2.14667 1.02222Zm-20.75112 2.55556c-1.32889 1.63556-2.65778 2.35111-3.68 1.94222-2.14667-.81778-2.24889 3.88445-.20444 5.62222 1.43111 1.22668 2.35111.20445 5.62223-6.23555 1.94221-3.78222.81777-4.6-1.73779-1.32889Zm-14.51556 1.02222c-.61333.81778-1.02222 2.04445-.81778 2.65778.20445.61334 1.22667 0 2.14667-1.53333 1.84-2.76.81778-3.78223-1.32889-1.12445Zm35.77779 3.47556c0 1.22666-.51111 2.14666-1.22667 2.14666-.92 0-.92.30668-.10222 1.12445 1.84 1.84 4.6.20445 4.19111-2.35111-.40889-2.86222-2.86222-3.68-2.86222-.92Zm5.41778.81778c-.71556.30667-1.32889.81778-1.32889 1.32888 0 1.22668 2.55556 1.94223 3.98667 1.12445 1.53333-1.02222-.81778-3.16889-2.65778-2.45333Zm-42.93335 3.78222c-2.96444 1.43111-2.96444 2.24889-.10222 2.96445 2.24889.61333 3.88445-.61334 3.88445-3.16889 0-1.43111-.61334-1.43111-3.78223.20444Zm14.72001.92c-2.04445 1.53334-3.78222 6.03112-3.78222 9.60889 0 3.88445-2.76001 6.64445-5.31556 5.31557-2.76-1.53334-3.37334-.51112-1.84 3.16888 1.63555 3.88445 3.68 3.88445 5.92889 0 .92-1.63556 2.55555-3.06667 3.47555-3.06667 1.53334 0 1.53334-.40889.61334-3.06666-1.22667-3.57778-.40889-7.87112 1.94222-10.5289 2.04445-2.14666 1.32889-3.16889-1.02222-1.43111Zm22.79556 1.22666c-.71556.81779-1.94222 1.53334-2.65778 1.53334-.81778 0-1.43111.40889-1.43111 1.02223 0 1.73777 6.13334 1.22666 6.84889-.61334.92-2.35111-1.12444-3.88444-2.76-1.94223Zm-18.91112 3.5778c-.30666.5111.30668 1.0222 1.53334 1.0222 1.22666 0 1.84-.5111 1.53334-1.0222-.30668-.61335-1.02223-1.02223-1.53334-1.02223s-1.22666.40888-1.53334 1.02223Zm4.60001 1.53332c-.71556.81778-1.94223 1.53334-2.65778 1.53334-1.94223 0-1.73778 2.96444.20445 3.78222 1.73777.61333 5.41777-3.06668 5.52-5.62222 0-1.63556-1.53334-1.53334-3.06667.30666Zm-25.2489 3.37334c-2.35111 2.86222-2.96445 4.29334-1.53333 4.29334.92-.10223 5.41777-7.15557 4.49777-7.15557-.40888 0-1.73777 1.32889-2.96444 2.86223Zm.92 3.47555c-1.43111 1.43111-1.63556 7.97334-.30667 7.97334.51111 0 .92-1.32889.92-3.06667-.10222-1.63556.51111-3.68 1.22667-4.6 1.53333-1.84 0-2.14668-1.84-.30667Zm40.78667 4.70223c-.81777 1.84-1.12444 3.57778-.81777 3.88444.81777.92 2.96444-3.57778 2.55556-5.52-.20445-1.22667-.81779-.71556-1.73779 1.63556Zm-39.35556 5.92889c-.51111 1.43111.92 5.52 1.94222 5.52.30667 0 .40889-1.63556.20444-3.57778-.20444-3.78222-1.12444-4.6-2.14666-1.94222Zm4.08889 6.03111c-.30667 1.02222-.30667 2.24889.30667 2.86222 1.22666 1.22667 2.04444-.40889 1.12444-2.76-.61333-1.94222-.71555-1.94222-1.43111-.10222Zm103.3467 58.47113c-.81778 1.32889.51111 6.44 1.43111 5.82667 1.22666-.71556 1.22666-5.21334 0-6.03112-.51111-.30666-1.22667-.20444-1.43111.20445Zm-128.49337 16.45778c0 5.31555 1.22666 9.40445 2.76 9.40445 1.12444 0 1.32889-.5111.71555-1.84-.40888-.92-.92-3.47556-1.22666-5.62223-.51111-4.6-2.24889-6.13333-2.24889-1.94222Zm14.31111 5.21335c0 3.47554 1.32889 6.23554 2.55556 5.00887.71555-.71557-.81778-8.99557-1.63556-8.99557-.51111 0-.92 1.84-.92 3.9867Zm100.28003-11.24446c-.10222 2.76.20444 3.27111 1.12444 2.35111.81778-.81778.81778-1.73778 0-3.47555-1.02222-2.2489-1.12444-2.14668-1.12444 1.12444Zm-.4089 5.52c-1.12443 2.96446-.92 5.41776.4089 4.08889.61333-.61333.92-2.14667.71556-3.47556-.30666-2.14667-.40889-2.24889-1.12446-.61333Zm-5.1111 2.35111c-1.02222 1.02222-.92 5.52.20444 5.52.51111 0 1.12446-.61335 1.43111-1.32889.61335-1.63556-.71555-5.11111-1.63555-4.19111Z"/>
  </g>
</svg>