<?xml version="1.0" encoding="UTF-8" standalone="no"?>
<!DOCTYPE svg PUBLIC "-//W3C//DTD SVG 1.1//EN" "http://www.w3.org/Graphics/SVG/1.1/DTD/svg11.dtd">
<svg xmlns="http://www.w3.org/2000/svg" xmlns:xl="http://www.w3.org/1999/xlink" xmlns:dc="http://purl.org/dc/elements/1.1/" version="1.1" viewBox="54 94.5 310.5 171" width="310.5" height="171">
  <defs>
    <clipPath id="artboard_clip_path">
      <path d="M 54 94.5 L 364.5 94.5 L 364.5 265.5 L 54 265.5 Z"/>
    </clipPath>
  </defs>
  <metadata> Produced by OmniGraffle 7.11.5 
    <dc:date>2021-12-26 07:23:21 +0000</dc:date>
  </metadata>
  <g id="Eye_(3)" stroke="none" fill-opacity="1" stroke-opacity="1" fill="none" stroke-dasharray="none">
    <title>Eye (3)</title>
    <g id="Eye_(3): Art" clip-path="url(#artboard_clip_path)">
      <title>Art</title>
      <g id="Group_127">
        <g id="Graphic_146">
          <path d="M 175.10554 98.73436 C 150.81272 104.75898 125.54819 115.25348 125.54819 119.52901 C 125.54819 120.30638 122.24436 122.05547 118.16317 123.22152 C 109.41775 125.94232 100.478 134.29905 103.39313 137.21419 C 105.72524 139.5463 123.02173 129.24614 124.77082 124.58192 C 125.35384 123.02718 129.62938 120.69507 134.09926 119.52901 C 138.3748 118.36296 146.53718 115.25348 152.17312 112.72702 C 164.80539 107.09109 182.87925 104.17595 181.51885 108.25714 C 181.13016 109.61754 177.632 111.75531 173.93949 112.53268 C 156.05997 117.1969 142.45599 122.44415 137.40308 126.71969 C 134.2936 129.24614 130.79544 131.38391 129.62938 131.38391 C 125.74253 131.38391 112.52723 144.98789 110.00078 151.4012 C 104.75353 165.00518 97.17417 178.02613 94.06469 179.19218 C 92.12126 179.7752 90.56652 181.5243 90.56652 183.07903 C 90.56652 186.96589 84.15322 186.38286 78.517285 182.10732 C 75.99083 179.96955 71.715295 174.33362 68.9945 169.47505 C 63.74725 159.56358 62.19251 158.59187 60.443426 164.42215 C 58.888685 169.28071 65.690675 184.82812 70.937925 188.13194 C 76.37952 191.43576 76.18517 195.12827 70.3549 196.68301 C 62.19251 198.62644 58.69434 204.45672 58.5 215.53424 C 58.5 228.1665 63.16422 230.30428 68.02279 220.00412 C 74.24175 206.98317 90.76087 200.18118 93.676 209.50962 C 94.25903 212.03608 98.92325 218.64372 103.58748 224.27966 C 110.38947 232.05336 116.41409 236.71758 129.62938 243.32523 C 139.15217 247.98945 148.67495 251.8763 150.81272 251.8763 C 153.14483 251.8763 158.0034 253.43104 162.08459 255.5688 C 165.97144 257.51224 173.93949 260.23303 179.57542 261.3991 C 193.95677 264.31423 227.18935 264.1199 241.18202 260.62172 C 247.59532 259.06698 254.786 257.90092 257.1181 257.70658 C 259.64456 257.70658 268.0013 254.5971 275.96934 250.9046 C 283.93738 247.21208 291.3224 244.1026 292.2941 244.1026 C 293.26583 244.1026 296.56965 240.99312 299.67913 237.10627 C 309.2019 225.25137 310.5623 224.27966 314.83785 225.64006 C 325.91538 229.13822 327.4701 228.94388 332.52302 223.5023 C 336.6042 219.0324 339.51936 217.86635 346.5157 217.672 C 356.6215 217.28333 357.78756 216.31161 359.53664 206.59449 C 361.0914 198.62644 358.75927 197.26604 352.15162 202.31895 C 348.07043 205.42843 339.325 206.40014 339.325 203.67935 C 339.325 202.90198 340.6854 200.56987 342.24015 198.62644 C 343.7949 196.48867 345.1553 192.0188 345.1553 188.52063 C 345.1553 185.02246 345.93266 181.71864 346.90437 181.1356 C 347.8761 180.55258 349.62517 177.4431 350.5969 174.13928 C 352.5403 169.08637 352.15162 167.53163 347.8761 162.47872 C 341.26844 154.70502 338.54764 155.0937 339.90804 163.45043 C 340.6854 168.11466 340.1024 171.22414 338.15896 173.16756 C 332.9117 178.22047 328.05315 176.66573 323.7776 168.50334 C 318.14167 157.03713 310.75666 146.73697 303.76032 139.74064 C 300.26216 136.43682 294.0432 130.02351 289.76766 125.74798 C 285.49212 121.2781 279.8562 117.00256 277.1354 116.41953 C 274.4146 115.8365 270.52774 114.08742 268.38998 112.72702 C 266.2522 111.36663 261.00496 109.4232 256.72942 108.25714 C 252.4539 107.28543 245.06887 105.14766 240.2103 103.59292 C 229.91015 100.2891 201.53613 96.2079 190.4586 96.59659 C 186.37741 96.79093 179.38108 97.76265 175.10554 98.73436 Z" fill="black"/>
        </g>
        <g id="Graphic_145">
          <path d="M 240.2103 120.30638 C 248.17835 122.05547 260.03325 126.13666 266.2522 129.44048 C 272.47117 132.54997 278.69013 135.27076 280.05053 135.27076 C 283.74304 135.27076 299.4848 149.84645 307.06415 160.34095 C 315.22654 171.22414 315.42088 172.19585 310.17363 172.19585 C 307.64718 172.19585 306.28678 170.83545 306.28678 168.309 C 306.28678 164.42215 290.54503 146.93132 287.04686 146.93132 C 283.74304 146.93132 284.5204 151.78988 288.79595 157.23147 C 295.79228 166.17123 293.26583 168.69768 282.96567 163.45043 C 277.71842 160.72964 277.1354 160.72964 277.1354 163.45043 C 277.1354 165.00518 279.27316 168.309 281.99396 170.6411 C 284.71475 172.97322 286.46384 176.0827 286.07515 177.4431 C 285.29778 179.19218 287.43555 179.96955 293.84885 179.96955 C 303.37164 179.96955 316.0039 184.43943 316.0039 187.54891 C 316.0039 190.46405 312.7001 190.2697 311.72837 187.54891 C 311.3397 186.18852 304.5377 184.82812 295.79228 184.2451 C 282.38264 183.46772 280.4392 182.8847 278.69013 178.8035 C 275.58065 172.19585 254.786 159.56358 238.26688 154.51068 C 227.18935 151.01251 219.41565 150.0408 205.22864 150.23514 C 184.23964 150.23514 171.2187 154.31633 154.50523 165.5882 C 143.62205 172.77888 143.03902 173.16756 143.03902 170.25242 C 143.03902 169.28071 146.92587 165.78255 151.78443 162.47872 C 156.643 159.1749 160.52985 154.89936 160.3355 153.15028 C 160.3355 151.20685 159.75248 150.81817 159.16945 152.17857 C 158.78077 153.53896 157.22603 154.70502 156.05997 154.70502 C 154.69957 154.70502 148.67495 159.56358 142.65033 165.39386 C 132.35018 175.30533 121.66134 181.91298 121.66134 178.41481 C 121.66134 174.52796 143.81639 154.89936 155.86563 147.90303 C 168.88658 140.32367 169.08092 140.12933 163.0563 139.5463 C 154.31089 138.57459 145.75981 143.6275 131.76715 158.00884 C 121.85568 167.92031 118.94054 170.05808 116.60843 168.11466 C 114.47066 166.36557 113.49895 167.53163 111.55552 174.91665 C 108.83473 185.02246 105.14222 187.16023 107.08564 177.4431 C 109.22341 166.17123 120.30094 146.54263 128.07464 140.32367 C 134.48795 135.27076 137.0144 134.29905 144.98244 134.68773 C 154.50523 135.07642 160.3355 131.7726 157.61471 127.49706 C 156.83734 126.331 158.58642 125.55363 162.08459 125.55363 C 165.58276 125.55363 168.30355 124.38758 169.08092 122.44415 C 169.8583 120.30638 172.38475 119.52901 178.6037 119.9177 C 183.07359 120.30638 188.51518 119.33467 190.65295 118.16862 C 195.70585 115.05913 221.35907 116.22519 240.2103 120.30638 Z" fill="white"/>
        </g>
        <g id="Graphic_144">
          <path d="M 244.68018 167.92031 C 251.28783 171.0298 261.78233 178.02613 267.80695 183.46772 C 278.1071 192.60182 279.27316 192.9905 287.2412 192.21313 C 293.84885 191.43576 296.764 192.0188 299.29044 194.54525 C 302.59427 197.84907 302.59427 198.23775 298.7074 202.1246 C 295.0149 205.81711 294.0432 205.81711 282.77133 203.485 C 270.91643 201.1529 270.91643 201.1529 257.70113 207.95488 C 233.01963 220.97584 209.30983 223.69663 184.0453 216.7003 C 162.27893 210.67568 136.23703 197.65473 136.23703 193.18485 C 136.23703 189.88102 157.61471 172.97322 167.91487 168.11466 C 179.18674 162.47872 192.98506 160.5353 214.55708 161.507 C 229.52146 162.09004 234.57437 163.06175 244.68018 167.92031 Z" fill="white"/>
        </g>
        <g id="Graphic_143">
          <path d="M 334.2721 188.9093 C 337.77027 190.2697 336.6042 193.57353 332.3287 193.57353 C 330.77394 193.57353 329.6079 192.21313 329.6079 190.6584 C 329.6079 187.35457 329.99657 187.16023 334.2721 188.9093 Z" fill="white"/>
        </g>
        <g id="Graphic_142">
          <path d="M 127.10293 203.09632 C 134.87663 208.5379 159.75248 218.25504 174.52251 221.7532 C 192.79072 225.8344 221.16473 227.97217 236.32345 226.02874 C 244.2915 225.05703 254.00863 222.1419 262.75404 217.86635 C 276.7467 210.87002 281.99396 209.8983 286.65818 212.81345 C 288.9903 214.3682 288.9903 215.3399 286.2695 219.61544 C 279.4675 229.9156 242.73676 240.21575 212.61366 240.21575 C 199.78705 240.21575 204.64561 243.71392 219.41565 245.0743 C 231.0762 246.24037 236.71214 245.463 253.0369 241.3818 C 263.9201 238.661 276.94105 234.57982 281.99396 232.44205 C 292.2941 227.97217 292.6828 227.97217 292.6828 230.30428 C 292.6828 233.02507 260.61627 244.1026 243.51413 247.40642 C 200.56442 255.5688 144.20507 242.35352 114.27632 217.28333 C 102.8101 207.76054 101.83839 203.09632 110.9725 201.1529 C 120.49528 199.01512 121.85568 199.20947 127.10293 203.09632 Z" fill="white"/>
        </g>
        <g id="Graphic_141">
          <path d="M 321.4455 205.62277 C 325.5267 209.70397 323.97195 214.56253 316.78128 219.0324 C 309.78494 223.30795 309.5906 223.30795 307.06415 219.80978 C 303.56598 214.95122 303.56598 214.75687 309.2019 208.5379 C 314.6435 202.90198 317.753 201.93026 321.4455 205.62277 Z" fill="white"/>
        </g>
        <g id="Graphic_140">
          <path d="M 176.07726 125.55363 C 176.07726 127.88574 177.632 127.88574 182.87925 125.55363 C 186.37741 123.9989 186.18307 123.80455 181.51885 123.80455 C 178.40937 123.61021 176.07726 124.38758 176.07726 125.55363 Z" fill="black"/>
        </g>
        <g id="Graphic_139">
          <path d="M 175.29988 135.07642 C 172.1904 138.57459 172.1904 138.57459 177.04897 137.79722 C 179.76976 137.21419 181.90753 135.4651 181.90753 134.1047 C 181.90753 130.4122 179.18674 130.80088 175.29988 135.07642 Z" fill="black"/>
        </g>
        <g id="Graphic_138">
          <path d="M 193.56809 138.38024 C 192.01335 138.96327 189.29255 139.93498 187.7378 140.71235 C 186.18307 141.29538 182.29622 142.07275 178.9924 142.46144 C 170.63566 143.43315 168.88658 146.34829 176.07726 147.32 C 179.9641 147.90303 183.26793 147.12566 185.01701 145.57092 C 187.15478 143.43315 191.819 143.04446 204.64561 143.43315 C 221.16473 144.21052 233.4083 147.12566 261.1993 156.84279 C 274.22025 161.507 276.7467 161.11832 273.44288 155.0937 C 271.3051 151.20685 266.83524 149.06908 251.87086 144.98789 C 247.0123 143.6275 240.599 141.68407 237.29516 140.71235 C 230.29883 138.57459 197.64928 136.8255 193.56809 138.38024 Z" fill="black"/>
        </g>
        <g id="Graphic_137">
          <path d="M 133.90492 140.51801 C 132.54452 140.9067 131.37846 143.6275 131.37846 146.54263 L 131.37846 151.4012 L 136.23703 146.93132 C 142.26165 141.29538 140.90125 137.60287 133.90492 140.51801 Z" fill="black"/>
        </g>
        <g id="Graphic_136">
          <path d="M 123.21608 150.23514 C 121.66134 152.17857 119.13488 155.67673 117.96883 158.20319 C 115.83106 162.28438 115.83106 162.67306 119.13488 160.72964 C 127.49161 155.87107 129.82372 153.15028 128.07464 149.84645 C 126.5199 147.12566 125.93687 147.12566 123.21608 150.23514 Z" fill="black"/>
        </g>
        <g id="Graphic_135">
          <path d="M 192.59637 166.36557 C 187.15478 168.50334 178.79805 178.22047 177.43765 183.66206 C 176.07726 189.49234 182.29622 204.06803 189.29255 211.45305 C 193.56809 216.11727 195.9002 216.89464 205.0343 216.89464 C 220.77605 216.89464 227.3837 212.23042 231.27055 198.82078 C 234.96305 185.99417 234.18568 183.46772 224.07987 172.58454 C 216.69485 165.00518 215.33445 164.42215 206.20035 164.61649 C 200.9531 164.61649 194.73414 165.39386 192.59637 166.36557 Z" fill="black"/>
        </g>
        <g id="Graphic_134">
          <path d="M 210.0872 191.6301 C 210.0872 193.3792 207.94944 194.73959 204.83996 195.12827 C 199.5927 195.7113 197.45494 192.40748 200.75876 188.9093 C 203.09087 186.5772 210.0872 188.52063 210.0872 191.6301 Z" fill="white"/>
        </g>
        <g id="Graphic_133">
          <path d="M 174.52251 167.72597 C 172.57909 168.50334 172.57909 169.28071 174.32817 171.41848 C 176.07726 173.55625 177.2433 173.55625 179.18674 172.0015 C 184.43399 167.72597 181.3245 165.00518 174.52251 167.72597 Z" fill="black"/>
        </g>
        <g id="Graphic_132">
          <path d="M 240.79333 171.80717 C 245.06887 176.47139 245.06887 180.55258 240.79333 179.19218 C 237.68385 178.22047 237.29516 179.58087 237.29516 190.46405 C 237.29516 197.26604 235.93477 205.03974 234.57437 207.95488 C 231.27055 213.78516 232.4366 215.72859 237.8782 214.17385 C 240.599 213.20213 241.37636 211.6474 240.79333 209.12094 C 240.01596 205.81711 240.79333 205.23409 245.84624 205.23409 C 249.92743 205.23409 251.87086 204.26237 251.87086 202.31895 C 251.87086 200.7642 254.20297 198.04341 257.31245 196.09999 C 260.2276 194.15656 263.33707 191.43576 264.11444 190.07537 C 265.47484 187.9376 266.6409 188.13194 269.94472 191.04708 C 272.27683 192.79616 270.7221 190.6584 266.44655 185.99417 C 262.171 181.5243 254.59165 175.49967 249.53875 172.97322 C 238.46122 167.33729 236.5178 167.14294 240.79333 171.80717 Z" fill="black"/>
        </g>
        <g id="Graphic_131">
          <path d="M 169.8583 178.60915 C 165.38841 185.41114 164.4167 189.298 165.7771 195.7113 C 166.55447 199.59815 167.91487 201.34724 170.05264 200.95855 C 172.38475 200.56987 173.35646 197.26604 174.13383 187.9376 C 175.29988 174.52796 174.13383 172.0015 169.8583 178.60915 Z" fill="black"/>
        </g>
        <g id="Graphic_130">
          <path d="M 142.0673 189.68668 C 141.28993 190.85274 142.26165 193.57353 144.20507 195.7113 C 147.89758 199.7925 151.97878 200.7642 149.45232 196.87736 C 148.67495 195.7113 147.89758 193.3792 147.89758 191.82445 C 147.89758 188.32628 143.81639 186.77154 142.0673 189.68668 Z" fill="black"/>
        </g>
        <g id="Graphic_129">
          <path d="M 156.05997 189.10365 C 155.47694 189.68668 155.47694 191.24142 156.05997 192.60182 C 157.03168 195.32262 162.47328 194.3509 162.47328 191.6301 C 162.47328 189.68668 157.42037 187.74326 156.05997 189.10365 Z" fill="black"/>
        </g>
        <g id="Graphic_128">
          <path d="M 173.16212 208.9266 C 171.99606 211.06436 179.57542 213.9795 181.51885 212.03608 C 182.29622 211.45305 181.51885 210.09265 179.9641 209.12094 C 176.2716 206.78883 174.71686 206.78883 173.16212 208.9266 Z" fill="black"/>
        </g>
      </g>
    </g>
  </g>
</svg>
