<?xml version="1.0" encoding="UTF-8"?>
<!DOCTYPE svg PUBLIC "-//W3C//DTD SVG 1.1//EN" "http://www.w3.org/Graphics/SVG/1.1/DTD/svg11.dtd">
<svg xmlns="http://www.w3.org/2000/svg" version="1.1" width="1218px" height="1218px" style="shape-rendering:geometricPrecision; text-rendering:geometricPrecision; image-rendering:optimizeQuality; fill-rule:evenodd; clip-rule:evenodd" xmlns:xlink="http://www.w3.org/1999/xlink">
<g><path style="opacity:0.971" fill="#020202" d="M 582.5,18.5 C 614.87,18.0436 647.203,18.8769 679.5,21C 705.924,26.176 732.59,29.5093 759.5,31C 779.31,34.1591 798.644,39.1591 817.5,46C 822.497,49.8339 827.83,53.1672 833.5,56C 879.051,73.1095 922.384,94.4429 963.5,120C 971.453,125.618 979.12,131.618 986.5,138C 1008.36,159.528 1029.86,181.361 1051,203.5C 1062.57,216.982 1073.91,230.649 1085,244.5C 1090.07,251.044 1094.4,258.044 1098,265.5C 1104.06,271.961 1109.39,278.961 1114,286.5C 1122.78,301.729 1130.78,317.396 1138,333.5C 1143.68,340.844 1148.34,348.844 1152,357.5C 1159.44,380.371 1167.44,403.037 1176,425.5C 1184.91,451.141 1192.58,477.141 1199,503.5C 1202.19,528.853 1205.52,554.187 1209,579.5C 1208.42,611.575 1206.42,643.575 1203,675.5C 1195.72,706.64 1189.38,737.973 1184,769.5C 1179.65,783.712 1175.82,798.045 1172.5,812.5C 1173.49,817.591 1172.99,822.591 1171,827.5C 1167.61,837.206 1162.94,846.206 1157,854.5C 1151.18,872.643 1144.18,890.31 1136,907.5C 1101.94,962.596 1060.77,1012.1 1012.5,1056C 993.319,1070.42 974.319,1085.09 955.5,1100C 946.771,1106.03 937.438,1111.03 927.5,1115C 923.217,1117.62 919.217,1120.62 915.5,1124C 895.143,1134.85 874.477,1145.18 853.5,1155C 817.559,1168.52 780.559,1177.86 742.5,1183C 732.321,1185.39 722.321,1188.39 712.5,1192C 707.239,1193.39 701.906,1194.39 696.5,1195C 645.86,1197.51 595.193,1198.85 544.5,1199C 533.845,1196.67 523.178,1194.34 512.5,1192C 495.67,1190.31 479.004,1187.65 462.5,1184C 438.833,1177 415.167,1170 391.5,1163C 370.603,1154.89 349.937,1146.22 329.5,1137C 322.637,1134.27 315.637,1131.93 308.5,1130C 298.284,1122.39 287.284,1116.06 275.5,1111C 255.336,1097.75 235.003,1084.75 214.5,1072C 206.697,1065.2 199.197,1058.03 192,1050.5C 171.667,1027.5 151.333,1004.5 131,981.5C 120.914,962.985 109.581,945.318 97,928.5C 84.6667,905.167 72.3333,881.833 60,858.5C 55.1481,844.595 49.1481,831.262 42,818.5C 40,811.167 38,803.833 36,796.5C 33.4152,778.155 30.7486,759.822 28,741.5C 26.6667,736.833 25.3333,732.167 24,727.5C 18.9156,694.587 14.2489,661.587 10,628.5C 7.43011,588.378 8.76344,548.378 14,508.5C 19.2923,489.997 23.959,471.331 28,452.5C 33.6763,437.137 38.3429,421.471 42,405.5C 43.3333,402.833 44.6667,400.167 46,397.5C 50.4392,393.062 54.1059,388.062 57,382.5C 63.1364,360.416 71.8031,339.416 83,319.5C 92.5429,307.625 100.876,294.958 108,281.5C 114.911,272.678 121.577,263.678 128,254.5C 153.02,223.475 180.187,194.308 209.5,167C 225.202,154.811 240.535,142.144 255.5,129C 267.572,121.269 279.905,113.935 292.5,107C 315.739,89.872 340.739,75.5386 367.5,64C 379.657,59.7255 391.657,55.0589 403.5,50C 428.53,41.327 454.197,35.327 480.5,32C 514.698,27.8884 548.698,23.3884 582.5,18.5 Z"/></g>
<g><path style="opacity:1" fill="#f0f0f0" d="M 579.5,32.5 C 622.186,32.3339 664.852,33.1672 707.5,35C 717.452,35.1828 727.119,36.8495 736.5,40C 754.35,41.0998 772.017,43.4331 789.5,47C 825.596,62.3808 860.929,79.3808 895.5,98C 911.229,107.199 925.896,117.865 939.5,130C 953.144,138.743 965.977,148.576 978,159.5C 980.333,162.5 982.667,165.5 985,168.5C 985.197,173.086 985.697,177.586 986.5,182C 993.286,186.726 1000.62,190.393 1008.5,193C 1017.29,199.454 1025.79,206.287 1034,213.5C 1035.56,215.443 1036.72,217.61 1037.5,220C 1037.36,220.772 1037.02,221.439 1036.5,222C 1035.06,222.219 1033.73,222.719 1032.5,223.5C 1038,231.649 1044.34,239.149 1051.5,246C 1053.21,247.751 1055.21,248.418 1057.5,248C 1060.48,245.086 1063.48,242.086 1066.5,239C 1067.78,238.316 1068.95,238.483 1070,239.5C 1071.28,241.717 1072.28,244.051 1073,246.5C 1074.06,258.417 1077.73,269.417 1084,279.5C 1085.3,283.175 1084.3,285.842 1081,287.5C 1076.3,285.464 1072.13,282.631 1068.5,279C 1059.77,269.599 1050.43,260.932 1040.5,253C 1035.94,249.555 1030.94,246.888 1025.5,245C 1022.8,241.962 1019.8,239.295 1016.5,237C 1003.83,230.667 991.167,224.333 978.5,218C 972.333,216.167 970.167,218.333 972,224.5C 975.458,229.475 980.291,231.642 986.5,231C 995.772,236.608 1004.77,242.608 1013.5,249C 1021.61,252.448 1028.61,257.448 1034.5,264C 1053.76,276.581 1071.26,291.415 1087,308.5C 1097.63,321.462 1108.63,334.129 1120,346.5C 1124.58,357.587 1129.91,368.254 1136,378.5C 1139.42,394.004 1145.08,408.671 1153,422.5C 1156.82,435.144 1161.49,447.477 1167,459.5C 1168.65,464.754 1169.98,470.087 1171,475.5C 1174.58,503.302 1178.91,530.969 1184,558.5C 1184.67,581.5 1184.67,604.5 1184,627.5C 1179.2,648.558 1176.2,669.891 1175,691.5C 1170.71,711.326 1167.38,731.326 1165,751.5C 1160,771.484 1155,791.484 1150,811.5C 1141.61,836.674 1131.28,861.007 1119,884.5C 1107.84,904.165 1096.17,923.499 1084,942.5C 1060.72,972.46 1035.22,1000.63 1007.5,1027C 994.968,1035.19 983.301,1044.53 972.5,1055C 955.562,1065.61 938.896,1076.61 922.5,1088C 908.979,1096.17 894.979,1103.51 880.5,1110C 877.113,1113.05 873.447,1115.72 869.5,1118C 851.772,1126.19 833.772,1133.86 815.5,1141C 785.784,1149.46 756.117,1158.13 726.5,1167C 715.912,1168.81 705.246,1169.81 694.5,1170C 680.467,1174.01 666.134,1176.34 651.5,1177C 614.833,1177.67 578.167,1177.67 541.5,1177C 513.981,1168.5 485.981,1162.16 457.5,1158C 440.828,1153.33 424.162,1148.67 407.5,1144C 391.446,1136.31 374.779,1130.31 357.5,1126C 351.736,1122.78 345.736,1120.12 339.5,1118C 314.821,1102.32 289.488,1087.66 263.5,1074C 245.596,1060.76 228.929,1046.1 213.5,1030C 209.204,1028.19 205.204,1025.85 201.5,1023C 184.993,1007.16 169.16,990.66 154,973.5C 144.333,960.167 134.667,946.833 125,933.5C 115.703,912.904 105.369,892.904 94,873.5C 80.1328,834.898 66.4661,796.231 53,757.5C 49.4497,739.632 45.1164,721.966 40,704.5C 38.5219,692.957 36.1886,681.624 33,670.5C 30.1086,644.751 28.942,618.918 29.5,593C 28.501,562.978 30.3344,533.145 35,503.5C 38.8739,483.131 42.8739,462.797 47,442.5C 52.9943,423.174 60.6609,404.507 70,386.5C 85.2547,358.325 100.255,329.992 115,301.5C 123.587,286.655 132.92,272.321 143,258.5C 158.467,241.365 174.3,224.531 190.5,208C 205.098,196.073 219.098,183.406 232.5,170C 238.221,165.279 244.221,160.946 250.5,157C 255.259,150.239 261.259,144.906 268.5,141C 271.491,138.043 274.491,135.043 277.5,132C 288.996,124.085 300.662,116.418 312.5,109C 324.581,104.195 336.581,99.1952 348.5,94C 352.5,91.3333 356.5,88.6667 360.5,86C 374.357,78.9064 388.024,71.5731 401.5,64C 423.618,58.6431 445.951,54.3098 468.5,51C 485.757,46.6859 503.09,42.6859 520.5,39C 540.27,36.4587 559.937,34.292 579.5,32.5 Z"/></g>
<g><path style="opacity:1" fill="#0a0a0a" d="M 631.5,47.5 C 632.978,47.238 634.311,47.5713 635.5,48.5C 628.852,56.3155 622.019,63.9822 615,71.5C 612.752,74.328 610.752,77.328 609,80.5C 607.378,89.8629 605.711,99.1963 604,108.5C 602.192,110.396 600.025,110.896 597.5,110C 593.294,98.6603 593.794,87.4936 599,76.5C 606.922,63.4029 617.755,53.7362 631.5,47.5 Z"/></g>
<g><path style="opacity:1" fill="#0c0c0c" d="M 692.5,50.5 C 697.14,49.736 701.14,50.9026 704.5,54C 703.833,54.6667 703.167,55.3333 702.5,56C 691.997,60.2571 681.33,63.9238 670.5,67C 658.12,75.0461 648.12,85.3795 640.5,98C 639.551,98.6172 638.718,98.4506 638,97.5C 637.524,86.2732 641.691,77.1065 650.5,70C 664.231,62.6308 678.231,56.1308 692.5,50.5 Z"/></g>
<g><path style="opacity:1" fill="#131313" d="M 729.5,59.5 C 731.5,59.5 733.5,59.5 735.5,59.5C 733.883,64.4507 730.549,67.7841 725.5,69.5C 722.918,69.2534 722.085,67.92 723,65.5C 724.872,63.153 727.039,61.153 729.5,59.5 Z"/></g>
<g><path style="opacity:1" fill="#080808" d="M 534.5,64.5 C 548.563,64.2059 562.563,64.8725 576.5,66.5C 573.53,79.5096 570.363,92.5096 567,105.5C 565.447,109.299 564.114,109.299 563,105.5C 562.833,102 562.667,98.5 562.5,95C 562.985,88.1577 563.152,81.3244 563,74.5C 562.167,73.6667 561.333,72.8333 560.5,72C 544.745,70.9185 530.412,74.9185 517.5,84C 510.688,89.3112 504.021,94.8112 497.5,100.5C 496.353,98.2351 496.186,95.9018 497,93.5C 499.634,87.7279 503.134,82.5612 507.5,78C 516.313,72.9268 525.313,68.4268 534.5,64.5 Z"/></g>
<g><path style="opacity:1" fill="#0a0a0a" d="M 487.5,68.5 C 490.86,68.6159 494.193,68.9492 497.5,69.5C 497.714,71.1439 497.38,72.6439 496.5,74C 480.041,78.7935 468.207,88.9601 461,104.5C 458.966,107.859 456.632,108.192 454,105.5C 451.504,98.6353 452.504,92.302 457,86.5C 466.389,79.0604 476.555,73.0604 487.5,68.5 Z"/></g>
<g><path style="opacity:1" fill="#0b0b0b" d="M 704.5,67.5 C 709.614,66.607 712.114,68.607 712,73.5C 704.904,78.5924 698.404,84.4257 692.5,91C 687.821,93.5135 685.487,92.0135 685.5,86.5C 688.84,77.1596 695.174,70.8262 704.5,67.5 Z"/></g>
<g><path style="opacity:1" fill="#0d0d0d" d="M 434.5,68.5 C 438.195,67.8738 439.029,68.8738 437,71.5C 428.515,80.315 421.182,89.9817 415,100.5C 413.553,102.403 411.886,104.07 410,105.5C 407.272,100.672 406.939,95.6724 409,90.5C 416.279,81.6317 424.779,74.2984 434.5,68.5 Z"/></g>
<g><path style="opacity:1" fill="#0e0e0e" d="M 743.5,69.5 C 745.5,69.5 747.5,69.5 749.5,69.5C 749.256,72.2626 747.923,74.4293 745.5,76C 741.688,79.3362 737.355,81.5028 732.5,82.5C 732.264,79.7743 733.097,77.441 735,75.5C 737.736,73.2481 740.569,71.2481 743.5,69.5 Z"/></g>
<g><path style="opacity:1" fill="#0a0a0a" d="M 774.5,69.5 C 784.542,69.4339 794.209,71.2673 803.5,75C 806.684,76.8064 807.017,78.8064 804.5,81C 792.81,81.8811 782.477,78.5478 773.5,71C 774.056,70.6174 774.389,70.1174 774.5,69.5 Z"/></g>
<g><path style="opacity:1" fill="#0d0d0d" d="M 811.5,82.5 C 813.989,82.2978 816.323,82.7978 818.5,84C 817.333,84.1667 816.167,84.3333 815,84.5C 813.319,84.3917 812.152,83.7251 811.5,82.5 Z"/></g>
<g><path style="opacity:1" fill="#0d0d0d" d="M 383.5,91.5 C 384.833,91.5 386.167,91.5 387.5,91.5C 387.919,94.3245 386.919,96.4912 384.5,98C 377.32,102.59 369.653,106.09 361.5,108.5C 360.5,108.333 359.5,108.167 358.5,108C 366.213,101.482 374.546,95.9825 383.5,91.5 Z"/></g>
<g><path style="opacity:1" fill="#0f0f0f" d="M 747.5,109.5 C 765.663,109.833 783.329,113 800.5,119C 802.717,120.268 804.717,121.768 806.5,123.5C 786.581,120.651 766.581,117.317 746.5,113.5C 746.433,112.041 746.766,110.708 747.5,109.5 Z"/></g>
<g><path style="opacity:1" fill="#090909" d="M 346.5,114.5 C 350.536,114.572 351.37,116.239 349,119.5C 307.293,147.869 273.96,183.869 249,227.5C 242.117,232.611 239.451,230.945 241,222.5C 266.928,177.406 302.094,141.406 346.5,114.5 Z"/></g>
<g><path style="opacity:1" fill="#080808" d="M 871.5,116.5 C 873.262,116.357 874.929,116.691 876.5,117.5C 877.228,119.193 878.228,120.693 879.5,122C 896.837,130.929 912.337,142.429 926,156.5C 938.973,171.784 950.973,187.784 962,204.5C 964.681,210.307 965.181,216.307 963.5,222.5C 960.386,221.909 957.886,220.242 956,217.5C 948.914,203.651 940.581,190.651 931,178.5C 918.628,165.13 906.628,151.463 895,137.5C 888.409,132.454 881.909,127.287 875.5,122C 873.975,120.991 872.308,120.491 870.5,120.5C 870.433,119.041 870.766,117.708 871.5,116.5 Z"/></g>
<g><path style="opacity:1" fill="#222222" d="M 817.5,129.5 C 820.367,127.879 822.7,128.546 824.5,131.5C 824,131.833 823.5,132.167 823,132.5C 821.235,131.368 819.402,130.368 817.5,129.5 Z"/></g>
<g><path style="opacity:1" fill="#090909" d="M 381.5,130.5 C 384.187,130.336 386.854,130.503 389.5,131C 392.61,135.637 391.276,138.637 385.5,140C 382.167,140.333 378.833,140.667 375.5,141C 364.042,146.561 353.042,152.895 342.5,160C 333.13,164.336 323.797,168.669 314.5,173C 310,177.5 305.5,182 301,186.5C 293.76,197.077 285.76,207.077 277,216.5C 266.415,233.333 256.082,250.333 246,267.5C 243.376,271.985 239.542,273.985 234.5,273.5C 233.966,268.099 235.133,263.099 238,258.5C 241.606,252.293 245.939,246.627 251,241.5C 263.627,214.09 282.461,191.923 307.5,175C 312.963,168.208 319.63,162.874 327.5,159C 343.146,145.011 361.146,135.511 381.5,130.5 Z"/></g>
<g><path style="opacity:1" fill="#0e0e0e" d="M 828.5,134.5 C 833.597,134.543 838.264,136.043 842.5,139C 852.471,147.321 863.138,154.654 874.5,161C 878.623,163.934 881.29,167.768 882.5,172.5C 878.526,171.379 874.86,169.546 871.5,167C 857.852,156.509 843.852,146.509 829.5,137C 828.748,136.329 828.414,135.496 828.5,134.5 Z"/></g>
<g><path style="opacity:1" fill="#070707" d="M 766.5,152.5 C 782.398,153.089 798.064,155.256 813.5,159C 830.665,168.748 847.665,178.748 864.5,189C 871.12,193.23 877.287,198.063 883,203.5C 901.936,224.055 918.936,246.055 934,269.5C 942.018,283.882 948.685,298.882 954,314.5C 955.085,324.643 954.418,334.643 952,344.5C 951.333,345.167 950.667,345.833 950,346.5C 947.247,336.003 944.913,325.336 943,314.5C 941.333,309.5 939.667,304.5 938,299.5C 930.612,287.391 924.279,274.724 919,261.5C 907.68,244.175 894.18,228.675 878.5,215C 874.385,213.777 870.718,211.777 867.5,209C 854.458,197.622 841.125,186.622 827.5,176C 811.557,169.465 795.557,163.131 779.5,157C 775.916,155.927 772.25,155.26 768.5,155C 767.244,154.583 766.577,153.75 766.5,152.5 Z"/></g>
<g><path style="opacity:1" fill="#191919" d="M 890.5,179.5 C 894.922,178.979 897.255,180.979 897.5,185.5C 894.247,185.876 891.58,184.542 889.5,181.5C 889.863,180.817 890.196,180.15 890.5,179.5 Z"/></g>
<g><path style="opacity:1" fill="#080808" d="M 903.5,192.5 C 907.856,193.511 911.856,195.344 915.5,198C 925.112,206.606 933.612,216.106 941,226.5C 948.919,239.335 956.585,252.335 964,265.5C 964.793,269.423 964.626,273.256 963.5,277C 960.72,277.269 958.554,276.102 957,273.5C 951.043,258.916 943.043,245.583 933,233.5C 927.183,223.34 920.183,214.007 912,205.5C 909.241,200.932 906.408,196.599 903.5,192.5 Z"/></g>
<g><path style="opacity:1" fill="#0e0e0e" d="M 323.5,197.5 C 324.5,197.5 325.5,197.5 326.5,197.5C 319.534,204.971 312.2,212.471 304.5,220C 301.772,222.865 298.438,224.365 294.5,224.5C 294.963,218.748 297.629,214.248 302.5,211C 307.619,207.107 313.286,204.274 319.5,202.5C 320.857,200.814 322.19,199.148 323.5,197.5 Z"/></g>
<g><path style="opacity:1" fill="#090909" d="M 791.5,207.5 C 809.116,207.479 823.449,214.146 834.5,227.5C 832.926,228.631 831.259,228.798 829.5,228C 817.284,221.558 804.617,216.224 791.5,212C 790.272,210.51 790.272,209.01 791.5,207.5 Z"/></g>
<g><path style="opacity:1" fill="#070707" d="M 415.5,215.5 C 421.262,215.149 426.928,215.649 432.5,217C 438.476,220.745 444.809,223.745 451.5,226C 462.738,234.113 474.405,241.447 486.5,248C 502.968,262.134 518.468,277.301 533,293.5C 538.293,301.003 540.626,309.337 540,318.5C 524.097,302.6 508.93,286.1 494.5,269C 484.833,262 475.167,255 465.5,248C 451.061,240.78 436.395,234.113 421.5,228C 418.257,224.443 416.257,220.277 415.5,215.5 Z"/></g>
<g><path style="opacity:1" fill="#050505" d="M 201.5,228.5 C 204.734,228.237 206.068,229.737 205.5,233C 203.897,253.126 203.064,273.293 203,293.5C 202.798,295.256 202.298,296.922 201.5,298.5C 197.439,295.382 194.606,291.382 193,286.5C 191.019,271.161 191.019,255.828 193,240.5C 194.887,235.787 197.721,231.787 201.5,228.5 Z"/></g>
<g><path style="opacity:1" fill="#080808" d="M 851.5,236.5 C 861.816,241.657 871.483,247.824 880.5,255C 894.413,269.576 907.58,284.742 920,300.5C 922.48,306.949 925.147,313.282 928,319.5C 929.962,324.656 930.795,329.989 930.5,335.5C 927.386,334.909 924.886,333.242 923,330.5C 905.754,296.39 882.088,267.39 852,243.5C 850.336,241.214 850.17,238.881 851.5,236.5 Z"/></g>
<g><path style="opacity:1" fill="#070707" d="M 277.5,239.5 C 278.5,239.5 279.5,239.5 280.5,239.5C 279.005,247.488 275.172,254.154 269,259.5C 259.563,275.044 252.896,291.711 249,309.5C 245.733,311.988 243.733,310.988 243,306.5C 241.912,298.652 242.579,290.985 245,283.5C 250.148,272.698 256.482,262.698 264,253.5C 265.333,250.833 266.667,248.167 268,245.5C 271.147,243.35 274.313,241.35 277.5,239.5 Z"/></g>
<g><path style="opacity:1" fill="#080808" d="M 315.5,254.5 C 316.5,254.5 317.5,254.5 318.5,254.5C 318.392,256.783 317.559,258.783 316,260.5C 308.436,267.975 301.103,275.642 294,283.5C 289.145,292.027 283.145,299.693 276,306.5C 267.143,319.882 260.143,334.215 255,349.5C 253.261,351.741 251.094,353.408 248.5,354.5C 245.359,349.632 244.192,344.298 245,338.5C 247.279,331.276 250.612,324.609 255,318.5C 263.245,307.677 271.245,296.677 279,285.5C 285.833,278.667 292.667,271.833 299.5,265C 304.489,260.82 309.822,257.32 315.5,254.5 Z"/></g>
<g><path style="opacity:1" fill="#080808" d="M 442.5,260.5 C 450.187,260.339 457.187,262.506 463.5,267C 494.859,292.687 522.359,321.854 546,354.5C 547.94,358.943 548.94,363.61 549,368.5C 549.667,377.833 549.667,387.167 549,396.5C 544.667,400.833 540.333,405.167 536,409.5C 535.833,410.833 535.667,412.167 535.5,413.5C 537.127,423.405 537.961,433.405 538,443.5C 539.389,447.944 541.056,452.277 543,456.5C 543.495,458.473 543.662,460.473 543.5,462.5C 541.692,462.509 540.025,462.009 538.5,461C 530.268,452.098 521.434,443.931 512,436.5C 511.312,435.668 511.479,435.002 512.5,434.5C 516.99,432.86 520.99,433.694 524.5,437C 526.473,437.495 528.473,437.662 530.5,437.5C 530.662,435.473 530.495,433.473 530,431.5C 525.333,423.5 520.667,415.5 516,407.5C 508.797,399.299 501.297,391.465 493.5,384C 493.833,383.5 494.167,383 494.5,382.5C 505.848,388.687 516.515,395.854 526.5,404C 528.677,405.202 531.011,405.702 533.5,405.5C 533.395,401.681 532.562,398.014 531,394.5C 525.334,383.161 518.668,372.494 511,362.5C 505.624,357.456 499.958,352.789 494,348.5C 491.293,340.205 493.793,338.039 501.5,342C 506.301,345.799 510.801,349.966 515,354.5C 521.425,360.921 527.091,367.921 532,375.5C 534.871,379.016 538.371,381.683 542.5,383.5C 543.086,383.291 543.586,382.957 544,382.5C 544.667,380.167 544.667,377.833 544,375.5C 541.111,366.835 537.444,358.501 533,350.5C 518.61,332.437 503.11,315.271 486.5,299C 482.783,295.615 478.783,292.615 474.5,290C 464.34,285.09 454.674,279.423 445.5,273C 442.781,270.618 440.447,267.951 438.5,265C 439.344,262.993 440.677,261.493 442.5,260.5 Z"/></g>
<g><path style="opacity:1" fill="#0b0b0b" d="M 795.5,262.5 C 803.354,263.841 810.521,266.841 817,271.5C 817.982,272.759 818.315,274.092 818,275.5C 809.164,277.125 801.164,275.125 794,269.5C 793.167,266.829 793.667,264.496 795.5,262.5 Z"/></g>
<g><path style="opacity:1" fill="#070707" d="M 177.5,267.5 C 178.765,268.514 179.431,270.014 179.5,272C 175.926,292.793 178.093,312.96 186,332.5C 189,337.167 192,341.833 195,346.5C 195.821,349.554 195.655,352.554 194.5,355.5C 193.554,355.987 192.554,356.32 191.5,356.5C 186.504,353.669 182.671,349.669 180,344.5C 168.95,324.528 165.283,303.195 169,280.5C 171.346,275.796 174.18,271.463 177.5,267.5 Z"/></g>
<g><path style="opacity:1" fill="#070707" d="M 692.5,274.5 C 700.012,273.394 706.512,275.394 712,280.5C 710.901,287.422 706.735,291.089 699.5,291.5C 686.596,289.44 674.596,291.94 663.5,299C 660.044,302.451 656.044,305.118 651.5,307C 650.216,307.684 649.049,307.517 648,306.5C 647.743,303.983 648.41,301.65 650,299.5C 656.349,291.489 664.182,285.322 673.5,281C 680.209,279.583 686.542,277.416 692.5,274.5 Z"/></g>
<g><path style="opacity:1" fill="#0b0b0b" d="M 1017.5,279.5 C 1017.74,278.903 1018.24,278.57 1019,278.5C 1030.03,283.265 1040.2,289.432 1049.5,297C 1060.97,306.798 1072.13,316.964 1083,327.5C 1084.01,329.025 1084.51,330.692 1084.5,332.5C 1079.89,332.029 1075.89,330.196 1072.5,327C 1062.87,319.038 1053.54,310.704 1044.5,302C 1034.41,295.736 1025.41,288.236 1017.5,279.5 Z"/></g>
<g><path style="opacity:1" fill="#0f0f0f" d="M 828.5,282.5 C 835.112,282.805 840.779,285.305 845.5,290C 862,305.167 877.833,321 893,337.5C 893.749,338.635 893.583,339.635 892.5,340.5C 877.117,328.623 862.783,315.456 849.5,301C 844.373,295.939 838.707,291.606 832.5,288C 830.536,286.549 829.203,284.716 828.5,282.5 Z"/></g>
<g><path style="opacity:1" fill="#0d0d0d" d="M 787.5,299.5 C 795.576,301.534 803.242,304.7 810.5,309C 824.433,316.272 837.267,325.105 849,335.5C 849.483,336.448 849.649,337.448 849.5,338.5C 848.127,338.657 846.793,338.49 845.5,338C 840.789,333.62 835.789,329.62 830.5,326C 817.334,319.612 804.001,313.612 790.5,308C 786.807,306.042 785.807,303.208 787.5,299.5 Z"/></g>
<g><path style="opacity:1" fill="#060606" d="M 312.5,305.5 C 313.822,305.33 314.989,305.663 316,306.5C 316.755,309.303 316.422,311.97 315,314.5C 302.389,327.781 289.722,341.114 277,354.5C 269.466,364.734 263.632,375.9 259.5,388C 259.934,390.634 260.767,393.134 262,395.5C 263.726,396.576 265.559,396.743 267.5,396C 278.126,387.71 288.459,379.043 298.5,370C 300.025,368.991 301.692,368.491 303.5,368.5C 303.453,371.928 302.287,374.928 300,377.5C 293.301,383.864 286.968,390.531 281,397.5C 278.555,404.271 274.889,410.271 270,415.5C 267.393,420.38 265.06,425.38 263,430.5C 262.333,433.833 262.333,437.167 263,440.5C 263.674,441.578 264.674,442.245 266,442.5C 272.328,439.187 277.828,434.687 282.5,429C 283.793,428.51 285.127,428.343 286.5,428.5C 285.753,441.649 283.92,454.649 281,467.5C 279.93,472.922 276.764,475.089 271.5,474C 268.975,466.689 267.141,459.189 266,451.5C 262.397,449.872 258.563,449.038 254.5,449C 251.898,448.065 250.398,446.232 250,443.5C 249.333,437.833 249.333,432.167 250,426.5C 254.403,419.607 258.57,412.607 262.5,405.5C 261.921,403.539 260.587,402.539 258.5,402.5C 255.226,403.47 252.226,404.97 249.5,407C 241.333,409.5 238.5,406.667 241,398.5C 246.55,387.402 251.55,376.068 256,364.5C 258.667,360.5 261.333,356.5 264,352.5C 273.833,342 283.667,331.5 293.5,321C 299.536,315.336 305.87,310.169 312.5,305.5 Z"/></g>
<g><path style="opacity:1" fill="#050505" d="M 156.5,307.5 C 157.824,311.107 158.491,315.107 158.5,319.5C 154.464,340.093 157.631,359.426 168,377.5C 175,388.167 182,398.833 189,409.5C 192.166,420.448 189.332,422.282 180.5,415C 167.051,404.227 157.551,390.727 152,374.5C 150.093,361.673 148.26,348.839 146.5,336C 147.959,325.786 151.293,316.286 156.5,307.5 Z"/></g>
<g><path style="opacity:1" fill="#080808" d="M 1008.5,310.5 C 1022.36,314.264 1035.03,320.43 1046.5,329C 1087.87,360.698 1120.04,399.865 1143,446.5C 1143.94,449.792 1143.44,452.792 1141.5,455.5C 1123.04,423.773 1101.04,394.607 1075.5,368C 1073.1,365.938 1070.43,364.271 1067.5,363C 1061.53,356.031 1055.2,349.364 1048.5,343C 1037.35,334.588 1025.68,326.921 1013.5,320C 1010.11,317.715 1008.44,314.548 1008.5,310.5 Z"/></g>
<g><path style="opacity:1" fill="#090909" d="M 670.5,315.5 C 674.548,315.395 678.548,315.728 682.5,316.5C 682.863,318.911 681.863,320.411 679.5,321C 673.304,322.836 666.97,323.836 660.5,324C 639.303,335.547 627.469,353.38 625,377.5C 621.013,380.621 618.346,379.621 617,374.5C 615.849,367.821 616.849,361.488 620,355.5C 626.657,342.513 635.823,331.679 647.5,323C 655.574,321.243 663.241,318.743 670.5,315.5 Z"/></g>
<g><path style="opacity:1" fill="#0c0c0c" d="M 667.5,337.5 C 670.907,337.125 671.407,338.125 669,340.5C 660.435,349.739 653.435,360.073 648,371.5C 647.28,373.255 646.113,374.089 644.5,374C 642.215,362.187 645.549,352.187 654.5,344C 658.069,341.477 662.069,340.144 666.5,340C 667.252,339.329 667.586,338.496 667.5,337.5 Z"/></g>
<g><path style="opacity:1" fill="#0a0a0a" d="M 929.5,339.5 C 934.567,340.712 938.4,343.712 941,348.5C 943.136,355.763 942.97,362.93 940.5,370C 937.443,370.554 935.276,369.387 934,366.5C 932.171,357.544 930.671,348.544 929.5,339.5 Z"/></g>
<g><path style="opacity:1" fill="#0b0b0b" d="M 998.5,339.5 C 1000.53,339.338 1002.53,339.505 1004.5,340C 1009,342.416 1013.33,345.083 1017.5,348C 1023.21,353.377 1029.21,358.377 1035.5,363C 1037.61,364.264 1038.61,366.097 1038.5,368.5C 1036.01,368.702 1033.68,368.202 1031.5,367C 1020.39,359.554 1009.55,351.721 999,343.5C 998.51,342.207 998.343,340.873 998.5,339.5 Z"/></g>
<g><path style="opacity:1" fill="#080808" d="M 850.5,341.5 C 851.873,341.343 853.207,341.51 854.5,342C 858.585,347.079 863.585,351.079 869.5,354C 877.245,359.98 882.078,367.813 884,377.5C 887.585,383.002 890.919,388.669 894,394.5C 895.325,399.401 895.825,404.401 895.5,409.5C 894.178,409.67 893.011,409.337 892,408.5C 887.094,400.36 882.427,392.027 878,383.5C 867.569,370.298 858.402,356.298 850.5,341.5 Z"/></g>
<g><path style="opacity:1" fill="#1a1a1a" d="M 1099.5,349.5 C 1100.5,349.414 1101.33,349.748 1102,350.5C 1102.81,352.579 1102.64,354.579 1101.5,356.5C 1100.37,354.293 1099.7,351.96 1099.5,349.5 Z"/></g>
<g><path style="opacity:1" fill="#161616" d="M 957.5,358.5 C 965.063,359.296 971.73,362.13 977.5,367C 976.57,367.991 975.404,368.491 974,368.5C 967.383,367.189 961.55,364.355 956.5,360C 957.056,359.617 957.389,359.117 957.5,358.5 Z"/></g>
<g><path style="opacity:1" fill="#0e0e0e" d="M 813.5,364.5 C 817.967,364.133 822.3,364.633 826.5,366C 834.241,373.07 842.575,379.403 851.5,385C 854.704,387.869 857.537,391.035 860,394.5C 863.737,402.543 867.57,410.543 871.5,418.5C 870.635,419.583 869.635,419.749 868.5,419C 865.705,417.207 863.205,415.04 861,412.5C 854.507,404.182 848.507,395.515 843,386.5C 835.323,377.406 825.823,370.906 814.5,367C 813.748,366.329 813.414,365.496 813.5,364.5 Z"/></g>
<g><path style="opacity:1" fill="#090909" d="M 982.5,368.5 C 995.489,372.661 1007.16,379.161 1017.5,388C 1048.89,414.717 1076.72,444.55 1101,477.5C 1104.8,482.765 1107.8,488.432 1110,494.5C 1124.17,511.841 1133.84,531.508 1139,553.5C 1143.26,563.292 1146.93,573.292 1150,583.5C 1150.74,593.203 1150.41,602.87 1149,612.5C 1148.66,615.187 1147.33,617.187 1145,618.5C 1144.27,624.308 1145.6,629.641 1149,634.5C 1150.59,642 1148.25,648 1142,652.5C 1136.34,645.353 1131.84,637.519 1128.5,629C 1128.83,628.5 1129.17,628 1129.5,627.5C 1134.96,631.158 1137.62,629.825 1137.5,623.5C 1126.22,585.93 1108.38,551.93 1084,521.5C 1062.17,498.333 1040.33,475.167 1018.5,452C 1010.45,445.613 1002.11,439.613 993.5,434C 977.212,425.856 961.212,417.19 945.5,408C 942.143,406.488 940.143,403.988 939.5,400.5C 971.007,408.086 999.007,422.253 1023.5,443C 1035.33,454.833 1047.17,466.667 1059,478.5C 1072.33,495.167 1085.67,511.833 1099,528.5C 1113.89,552.273 1127.22,576.939 1139,602.5C 1140.05,603.517 1141.22,603.684 1142.5,603C 1143.65,593.911 1143.82,584.745 1143,575.5C 1133.89,548.615 1121.56,523.282 1106,499.5C 1094.67,485.5 1083.33,471.5 1072,457.5C 1068,450.833 1064,444.167 1060,437.5C 1051.5,430.333 1043.67,422.5 1036.5,414C 1021.01,402.09 1005.35,390.423 989.5,379C 987,376.5 984.5,374 982,371.5C 981.53,370.423 981.697,369.423 982.5,368.5 Z"/></g>
<g><path style="opacity:1" fill="#070707" d="M 131.5,371.5 C 133.411,371.574 134.578,372.574 135,374.5C 138.957,394.053 146.957,411.72 159,427.5C 158.763,439.135 154.763,440.469 147,431.5C 134.97,414.744 128.97,396.078 129,375.5C 129.662,374.016 130.496,372.683 131.5,371.5 Z"/></g>
<g><path style="opacity:1" fill="#111111" d="M 91.5,373.5 C 92.6491,373.791 93.3158,374.624 93.5,376C 93.6125,377.662 92.9458,378.829 91.5,379.5C 90.3058,377.484 90.3058,375.484 91.5,373.5 Z"/></g>
<g><path style="opacity:1" fill="#151515" d="M 478.5,373.5 C 482.34,374.252 485.34,376.252 487.5,379.5C 484.213,380.942 481.38,380.275 479,377.5C 478.51,376.207 478.343,374.873 478.5,373.5 Z"/></g>
<g><path style="opacity:1" fill="#060606" d="M 910.5,377.5 C 914.817,378.32 917.317,380.987 918,385.5C 918.667,398.833 918.667,412.167 918,425.5C 913.383,435.045 905.883,439.879 895.5,440C 891.111,431.725 893.444,426.391 902.5,424C 904.894,422.048 906.394,419.548 907,416.5C 907.667,413.167 908.333,409.833 909,406.5C 909.217,396.787 909.717,387.12 910.5,377.5 Z"/></g>
<g><path style="opacity:1" fill="#0c0c0c" d="M 70.5,431.5 C 69.5233,428.713 69.19,425.713 69.5,422.5C 69.9704,417.982 71.1371,413.649 73,409.5C 77.5226,402.455 81.5226,395.122 85,387.5C 87.8943,386.385 89.061,387.552 88.5,391C 85.4837,405.903 79.4837,419.403 70.5,431.5 Z"/></g>
<g><path style="opacity:1" fill="#080808" d="M 1058.5,386.5 C 1061.69,386.762 1064.36,388.095 1066.5,390.5C 1077.18,403.351 1089.02,415.018 1102,425.5C 1108.22,436.38 1115.22,446.714 1123,456.5C 1135.01,476.187 1144.01,497.187 1150,519.5C 1150.97,523.118 1150.47,526.451 1148.5,529.5C 1138.73,505.623 1127.56,482.29 1115,459.5C 1110.38,452.541 1104.71,446.541 1098,441.5C 1087.23,424.386 1074.56,408.719 1060,394.5C 1057.57,392.13 1057.07,389.463 1058.5,386.5 Z"/></g>
<g><path style="opacity:1" fill="#050505" d="M 765.5,404.5 C 787.258,404.108 808.591,406.942 829.5,413C 835.391,414.612 840.725,417.279 845.5,421C 853.438,421.78 858.438,425.947 860.5,433.5C 853.975,430.991 847.475,428.324 841,425.5C 838.712,427.374 836.879,429.707 835.5,432.5C 833.591,433.348 831.591,433.682 829.5,433.5C 829.343,434.873 829.51,436.207 830,437.5C 835.008,442.197 833.842,444.697 826.5,445C 822.5,445.333 818.5,445.667 814.5,446C 813.167,446.667 813.167,447.333 814.5,448C 822.504,450.436 830.17,449.77 837.5,446C 839.5,445.833 841.5,445.667 843.5,445.5C 846.454,445.291 849.121,445.958 851.5,447.5C 850.975,448.192 850.308,448.692 849.5,449C 846.167,449.333 842.833,449.667 839.5,450C 835.336,454.482 832.502,459.649 831,465.5C 830.25,466.126 829.416,466.626 828.5,467C 810.336,466.134 792.169,464.968 774,463.5C 748.417,466.407 722.75,468.407 697,469.5C 690.912,469.311 690.079,467.145 694.5,463C 704.658,460.835 714.825,458.668 725,456.5C 732.327,458.447 739.16,457.447 745.5,453.5C 745.291,452.914 744.957,452.414 744.5,452C 731.163,450.026 717.83,450.026 704.5,452C 701.266,454.467 697.599,455.633 693.5,455.5C 693.297,453.61 693.963,452.11 695.5,451C 704.555,444.983 714.555,441.983 725.5,442C 729.616,440.795 733.616,439.295 737.5,437.5C 738.314,435.234 738.814,432.9 739,430.5C 739.75,429.874 740.584,429.374 741.5,429C 746.5,428.333 751.5,428.333 756.5,429C 764.68,431.407 773.013,433.074 781.5,434C 793.263,434.341 804.929,435.508 816.5,437.5C 819.535,437.566 821.702,436.233 823,433.5C 823.72,431.888 823.554,430.388 822.5,429C 801.752,423.147 780.586,420.647 759,421.5C 751.5,421.667 744,421.833 736.5,422C 732.052,421.865 728.385,423.365 725.5,426.5C 720.5,426.833 717.833,429.5 717.5,434.5C 715.869,436.297 713.869,437.464 711.5,438C 703.441,439.786 695.441,439.786 687.5,438C 686.424,436.274 686.257,434.441 687,432.5C 690.886,425.614 696.386,420.447 703.5,417C 723.832,410.567 744.498,406.4 765.5,404.5 Z"/></g>
<g><path style="opacity:1" fill="#0a0a0a" d="M 119.5,416.5 C 121.017,416.511 122.184,417.177 123,418.5C 126.651,433.134 132.984,446.467 142,458.5C 143.128,460.345 143.628,462.345 143.5,464.5C 140.68,464.752 138.014,464.252 135.5,463C 122.576,450.148 117.243,434.648 119.5,416.5 Z"/></g>
<g><path style="opacity:1" fill="#040404" d="M 400.5,422.5 C 413.146,421.581 425.48,423.081 437.5,427C 449.655,432.908 461.322,439.575 472.5,447C 462.985,448.308 453.652,446.975 444.5,443C 439.545,441.782 434.545,441.449 429.5,442C 431.809,444.487 434.476,446.487 437.5,448C 443.77,449.152 450.103,449.818 456.5,450C 458.608,450.36 460.608,451.027 462.5,452C 466.333,455.833 470.167,459.667 474,463.5C 474.456,465.713 473.456,466.713 471,466.5C 463.372,462.29 455.206,459.457 446.5,458C 430.646,457.127 414.813,455.961 399,454.5C 395.431,454.286 392.098,454.953 389,456.5C 388.316,457.784 388.483,458.951 389.5,460C 401.854,461.06 414.187,462.394 426.5,464C 434.402,464.972 441.736,467.472 448.5,471.5C 443.978,472.281 439.978,474.115 436.5,477C 438.923,478.571 440.256,480.737 440.5,483.5C 423.555,485.027 406.555,485.861 389.5,486C 375.7,486.651 362.034,488.318 348.5,491C 345.452,491.606 342.952,493.106 341,495.5C 340.081,498.778 338.914,501.945 337.5,505C 333.759,505.694 330.259,506.861 327,508.5C 326.503,510.81 326.337,513.143 326.5,515.5C 337.514,514.656 348.514,514.656 359.5,515.5C 353.145,517.456 346.811,519.623 340.5,522C 337.913,523.525 337.08,525.692 338,528.5C 346.36,530.146 354.86,530.979 363.5,531C 366.147,532.299 368.814,533.632 371.5,535C 378.883,535.799 386.217,535.632 393.5,534.5C 394.711,533.726 394.711,532.893 393.5,532C 388.054,531.899 382.721,531.232 377.5,530C 377.043,529.586 376.709,529.086 376.5,528.5C 377.665,527.416 378.998,526.583 380.5,526C 393.833,525.889 407.166,526.222 420.5,527C 428.907,528.1 436.907,530.433 444.5,534C 437.941,535.255 431.274,535.922 424.5,536C 417.936,537.603 417.936,539.603 424.5,542C 430.25,542.791 435.083,545.291 439,549.5C 439.483,550.448 439.649,551.448 439.5,552.5C 434.789,551.99 430.122,551.156 425.5,550C 421.5,549.333 417.5,549.333 413.5,550C 415.043,551.878 416.876,553.378 419,554.5C 420.631,556.955 420.797,559.455 419.5,562C 410.204,561.365 400.871,560.865 391.5,560.5C 387.167,560.667 382.833,560.833 378.5,561C 372.922,562.815 367.255,563.815 361.5,564C 360.398,561.599 360.231,559.099 361,556.5C 361.75,555.874 362.584,555.374 363.5,555C 375.139,553.42 386.806,552.087 398.5,551C 391.291,549.021 383.958,547.687 376.5,547C 364.49,546.668 352.49,546.668 340.5,547C 326.507,541.513 318.34,531.346 316,516.5C 313.333,511.833 310.667,507.167 308,502.5C 307.333,500.5 307.333,498.5 308,496.5C 309.677,493.147 311.843,490.147 314.5,487.5C 311.266,486.959 308.433,485.626 306,483.5C 305.08,480.692 305.913,478.525 308.5,477C 311.993,475.209 315.659,473.876 319.5,473C 338.465,472.011 356.465,467.344 373.5,459C 371.913,458.138 370.246,457.471 368.5,457C 363.167,456.667 357.833,456.333 352.5,456C 348.68,455.765 345.013,454.932 341.5,453.5C 346.468,451.683 351.135,449.349 355.5,446.5C 354.91,445.201 353.91,444.368 352.5,444C 347.5,443.333 342.5,443.333 337.5,444C 332.121,445.677 329.621,449.177 330,454.5C 332.168,455.629 332.668,457.129 331.5,459C 326.755,461.438 321.755,462.438 316.5,462C 315.446,460.612 315.28,459.112 316,457.5C 317.333,455.5 318.667,453.5 320,451.5C 323.154,439.013 330.987,431.179 343.5,428C 362.705,426.729 381.705,424.896 400.5,422.5 Z"/></g>
<g><path style="opacity:1" fill="#141414" d="M 622.5,425.5 C 629.204,424.966 635.538,426.133 641.5,429C 639.51,430.751 637.177,431.751 634.5,432C 629.201,433.145 623.868,433.478 618.5,433C 617.446,431.612 617.28,430.112 618,428.5C 619.652,427.601 621.152,426.601 622.5,425.5 Z"/></g>
<g><path style="opacity:1" fill="#636363" d="M 69.5,422.5 C 69.19,425.713 69.5233,428.713 70.5,431.5C 70.6309,432.376 70.2975,433.043 69.5,433.5C 68.1923,429.685 68.1923,426.019 69.5,422.5 Z"/></g>
<g><path style="opacity:1" fill="#0d0d0d" d="M 672.5,430.5 C 673.822,430.33 674.989,430.663 676,431.5C 676.667,436.167 676.667,440.833 676,445.5C 675.64,447.421 674.806,449.088 673.5,450.5C 672.808,449.975 672.308,449.308 672,448.5C 671.212,442.418 671.379,436.418 672.5,430.5 Z"/></g>
<g><path style="opacity:1" fill="#dfdfdf" d="M 781.5,438.5 C 789.507,438.334 797.507,438.5 805.5,439C 806.308,439.308 806.975,439.808 807.5,440.5C 804.442,442.141 801.108,442.974 797.5,443C 792.5,443.667 787.5,443.667 782.5,443C 780.218,441.916 779.884,440.416 781.5,438.5 Z"/></g>
<g><path style="opacity:1" fill="#1e1e1e" d="M 79.5,444.5 C 83.4153,446.198 83.4153,448.198 79.5,450.5C 78.3058,448.484 78.3058,446.484 79.5,444.5 Z"/></g>
<g><path style="opacity:1" fill="#0a0a0a" d="M 622.5,445.5 C 632.381,444.848 640.881,447.848 648,454.5C 650.41,457.418 649.91,459.418 646.5,460.5C 638.608,458.146 630.608,456.312 622.5,455C 618.581,451.84 618.581,448.673 622.5,445.5 Z"/></g>
<g><path style="opacity:1" fill="#cfcfcf" d="M 788.5,452.5 C 791.397,452.125 794.063,452.625 796.5,454C 794.386,455.518 792.053,455.851 789.5,455C 788.748,454.329 788.414,453.496 788.5,452.5 Z"/></g>
<g><path style="opacity:1" fill="#d6d6d6" d="M 813.5,456.5 C 815.857,456.337 818.19,456.503 820.5,457C 821.925,458.714 821.592,460.047 819.5,461C 816.216,461.981 813.549,461.147 811.5,458.5C 812.243,457.818 812.909,457.151 813.5,456.5 Z"/></g>
<g><path style="opacity:1" fill="#0a0a0a" d="M 97.5,463.5 C 98.8333,463.5 100.167,463.5 101.5,463.5C 100.899,469.702 98.3994,475.035 94,479.5C 88.2571,492.65 82.2571,505.65 76,518.5C 71.9071,521.448 69.7404,520.281 69.5,515C 70.1183,510.36 71.2849,505.86 73,501.5C 79.931,487.955 88.0976,475.288 97.5,463.5 Z"/></g>
<g><path style="opacity:1" fill="#121212" d="M 943.5,466.5 C 945.722,466.178 947.556,466.845 949,468.5C 949.731,475.245 948.398,481.578 945,487.5C 943.356,490.311 941.19,492.644 938.5,494.5C 938.167,493.667 937.833,492.833 937.5,492C 939.682,485.687 940.848,479.187 941,472.5C 941.573,470.359 942.406,468.359 943.5,466.5 Z"/></g>
<g><path style="opacity:1" fill="#0c0c0c" d="M 515.5,467.5 C 526.611,468.438 535.444,473.438 542,482.5C 542.706,484.971 542.373,487.305 541,489.5C 539.612,490.554 538.112,490.72 536.5,490C 526.836,484.841 519.836,477.341 515.5,467.5 Z"/></g>
<g><path style="opacity:1" fill="#0d0d0d" d="M 618.5,467.5 C 625.117,467.19 631.45,468.357 637.5,471C 638.687,472.019 639.687,473.186 640.5,474.5C 633.124,475.849 625.791,475.683 618.5,474C 616.048,471.921 616.048,469.754 618.5,467.5 Z"/></g>
<g><path style="opacity:1" fill="#1b1b1b" d="M 742.5,473.5 C 744.665,473.116 746.332,473.783 747.5,475.5C 745.955,476.452 744.288,476.785 742.5,476.5C 742.5,475.5 742.5,474.5 742.5,473.5 Z"/></g>
<g><path style="opacity:1" fill="#888888" d="M 705.5,475.5 C 709.311,474.355 713.311,474.188 717.5,475C 716.956,475.717 716.289,476.217 715.5,476.5C 712.375,475.521 709.042,475.187 705.5,475.5 Z"/></g>
<g><path style="opacity:1" fill="#070707" d="M 766.5,473.5 C 779.504,473.333 792.504,473.5 805.5,474C 814.79,474.652 823.457,477.319 831.5,482C 827.552,483.329 823.552,484.663 819.5,486C 818.549,486.718 818.383,487.551 819,488.5C 824.759,493.129 831.259,496.296 838.5,498C 841.167,500.667 843.833,503.333 846.5,506C 843.5,506.667 840.5,506.667 837.5,506C 818.469,498.927 798.802,495.594 778.5,496C 777.209,498.09 777.876,499.424 780.5,500C 789.556,501.035 798.556,502.368 807.5,504C 808.601,506.292 807.768,507.792 805,508.5C 803.773,514.877 805.939,519.71 811.5,523C 798.159,522.198 784.826,520.865 771.5,519C 769.59,518.592 768.59,517.425 768.5,515.5C 769.223,513.218 769.557,510.884 769.5,508.5C 757.457,508.838 745.457,508.338 733.5,507C 732.09,506.632 731.09,505.799 730.5,504.5C 737.419,502.287 744.419,500.12 751.5,498C 753.317,494.688 754.984,491.354 756.5,488C 760.886,485.594 765.552,484.094 770.5,483.5C 770.703,481.61 770.037,480.11 768.5,479C 765.043,477.257 761.377,476.257 757.5,476C 760.742,475.594 763.742,474.761 766.5,473.5 Z"/></g>
<g><path style="opacity:1" fill="#dddddd" d="M 355.5,474.5 C 357.92,474.292 360.253,474.626 362.5,475.5C 363.273,478.631 361.939,480.798 358.5,482C 355.143,483.141 353.143,481.975 352.5,478.5C 352.787,476.557 353.787,475.223 355.5,474.5 Z"/></g>
<g><path style="opacity:1" fill="#0f0f0f" d="M 705.5,475.5 C 709.042,475.187 712.375,475.521 715.5,476.5C 709.233,482.134 701.9,484.634 693.5,484C 692.483,482.951 692.316,481.784 693,480.5C 696.572,477.365 700.738,475.698 705.5,475.5 Z"/></g>
<g><path style="opacity:1" fill="#0b0b0b" d="M 961.5,475.5 C 962.496,475.414 963.329,475.748 964,476.5C 964.565,489.672 961.565,502.005 955,513.5C 952.295,517.678 948.462,519.678 943.5,519.5C 943.338,517.473 943.505,515.473 944,513.5C 952.264,501.97 958.098,489.304 961.5,475.5 Z"/></g>
<g><path style="opacity:1" fill="#121212" d="M 661.5,476.5 C 666.59,484.369 669.757,493.036 671,502.5C 671.778,505.184 673.111,507.517 675,509.5C 675.781,510.944 675.614,512.277 674.5,513.5C 667.167,505.501 662.5,496.167 660.5,485.5C 660.768,482.483 661.102,479.483 661.5,476.5 Z"/></g>
<g><path style="opacity:1" fill="#dadada" d="M 337.5,478.5 C 340.022,478.128 342.022,478.961 343.5,481C 340.367,482.57 337.033,482.903 333.5,482C 334.731,480.595 336.064,479.429 337.5,478.5 Z"/></g>
<g><path style="opacity:1" fill="#070707" d="M 985.5,482.5 C 989.281,482.887 992.281,484.554 994.5,487.5C 992.53,490.259 990.363,492.926 988,495.5C 985.177,502.032 987.011,506.865 993.5,510C 995.971,510.706 998.305,510.373 1000.5,509C 1003.75,505.324 1006.09,501.158 1007.5,496.5C 1008.09,496.709 1008.59,497.043 1009,497.5C 1009.17,498.833 1009.33,500.167 1009.5,501.5C 1008.6,506.15 1008.43,510.817 1009,515.5C 1010.81,517.396 1012.97,517.896 1015.5,517C 1020.48,512.208 1022.48,506.375 1021.5,499.5C 1037.81,507.43 1052.64,517.763 1066,530.5C 1071.69,540.538 1078.35,549.871 1086,558.5C 1086.92,561.134 1086.09,562.301 1083.5,562C 1074.5,550.333 1064.17,540 1052.5,531C 1050.56,529.445 1048.39,528.278 1046,527.5C 1042.99,530.86 1041.32,534.86 1041,539.5C 1040.33,542.833 1040.33,546.167 1041,549.5C 1042.19,550.563 1042.69,551.897 1042.5,553.5C 1040.8,553.34 1039.13,553.506 1037.5,554C 1031.16,562.99 1029,572.824 1031,583.5C 1035.47,585.433 1039.13,584.433 1042,580.5C 1045.86,573.078 1048.36,565.411 1049.5,557.5C 1060.48,566.646 1071.31,575.98 1082,585.5C 1088.75,596.006 1095.75,606.34 1103,616.5C 1113.27,635.092 1123.93,653.426 1135,671.5C 1141.11,681.365 1143.11,692.032 1141,703.5C 1131.96,688.089 1123.96,672.089 1117,655.5C 1112.9,650.295 1109.56,644.628 1107,638.5C 1102.95,634.12 1099.29,629.454 1096,624.5C 1093.05,615.942 1089.05,607.942 1084,600.5C 1081.67,596.744 1078.51,595.41 1074.5,596.5C 1070.02,602.109 1068.52,608.442 1070,615.5C 1085.25,637.093 1100.92,658.426 1117,679.5C 1120.49,685.488 1123.16,691.821 1125,698.5C 1134.3,712.346 1138.3,727.679 1137,744.5C 1136.78,747.943 1135.78,748.276 1134,745.5C 1122.73,711.63 1106.73,680.297 1086,651.5C 1083.36,647.613 1079.86,645.447 1075.5,645C 1069.76,652.205 1067.26,660.371 1068,669.5C 1074,676.167 1080,682.833 1086,689.5C 1089.52,696.361 1093.86,702.694 1099,708.5C 1107.73,728.286 1116.73,747.953 1126,767.5C 1125.96,774.124 1127.3,780.458 1130,786.5C 1130.67,790.5 1130.67,794.5 1130,798.5C 1128.44,799.345 1127.44,798.679 1127,796.5C 1117.97,765.777 1104.64,737.111 1087,710.5C 1083.68,705.073 1079.18,703.573 1073.5,706C 1070.74,709.361 1068.9,713.195 1068,717.5C 1057.74,722.756 1049.74,730.422 1044,740.5C 1043.33,744.167 1043.33,747.833 1044,751.5C 1047.08,754.293 1050.58,756.46 1054.5,758C 1057.22,762.729 1060.72,766.896 1065,770.5C 1071.83,782.834 1079.16,794.834 1087,806.5C 1092.33,819.501 1096.67,832.834 1100,846.5C 1101.84,855.088 1102.51,863.755 1102,872.5C 1100.24,876.185 1098.57,875.852 1097,871.5C 1093.87,859.528 1090.87,847.528 1088,835.5C 1080.47,821.779 1073.47,807.779 1067,793.5C 1062.95,788.846 1057.79,787.179 1051.5,788.5C 1051.67,784.154 1051.5,779.821 1051,775.5C 1049.17,773.919 1047.17,772.585 1045,771.5C 1045.31,763.616 1042.47,757.116 1036.5,752C 1034.5,751.333 1032.5,751.333 1030.5,752C 1013.37,764.487 1014.7,774.32 1034.5,781.5C 1035.1,784.898 1035.94,788.231 1037,791.5C 1040.52,793.926 1043.85,796.593 1047,799.5C 1052.06,810.903 1058.4,821.569 1066,831.5C 1079.36,856.251 1087.03,882.585 1089,910.5C 1088.26,916.947 1084.92,919.28 1079,917.5C 1077.81,903.124 1076.15,888.791 1074,874.5C 1070.83,862.512 1066.83,850.846 1062,839.5C 1056.77,832.801 1049.94,829.801 1041.5,830.5C 1041.61,828.217 1042.44,826.217 1044,824.5C 1044.67,822.5 1044.67,820.5 1044,818.5C 1042.12,816.047 1039.79,814.047 1037,812.5C 1036,807.833 1035,803.167 1034,798.5C 1030.99,796.059 1027.49,794.893 1023.5,795C 1020.45,790.865 1017.95,786.365 1016,781.5C 1013.62,778.781 1010.95,776.447 1008,774.5C 992.694,784.449 976.861,793.616 960.5,802C 947.213,807.614 933.379,810.78 919,811.5C 916.167,811.167 913.333,810.833 910.5,810.5C 914.209,807.312 918.542,805.145 923.5,804C 936.275,801.075 948.941,797.742 961.5,794C 974.627,785.102 988.627,777.769 1003.5,772C 1008.67,765.5 1013.83,759 1019,752.5C 1019.89,746.451 1020.89,740.451 1022,734.5C 1025.03,733.291 1027.86,733.791 1030.5,736C 1036.66,737.672 1041.49,735.838 1045,730.5C 1050.92,723.761 1050.92,717.094 1045,710.5C 1042.94,709.409 1040.77,709.242 1038.5,710C 1027.97,719.361 1017.31,728.528 1006.5,737.5C 1004.89,742.622 1001.89,746.788 997.5,750C 984.515,755.49 972.849,762.99 962.5,772.5C 954.355,773.651 946.355,775.484 938.5,778C 932.167,778.667 925.833,778.667 919.5,778C 915.453,775.723 915.786,774.056 920.5,773C 928.747,770.817 937.08,769.151 945.5,768C 961.916,762.137 975.916,752.803 987.5,740C 992.907,737.548 998.074,734.714 1003,731.5C 1001.41,724.215 997.077,718.882 990,715.5C 984.234,718.929 978.734,722.762 973.5,727C 960.474,734.567 946.474,738.234 931.5,738C 929.884,737.385 928.551,736.385 927.5,735C 937.342,728.243 947.675,722.243 958.5,717C 963.167,712.667 967.833,708.333 972.5,704C 978.386,704.04 984.053,703.04 989.5,701C 997.337,696.249 1005,691.249 1012.5,686C 1020.33,676.833 1028.17,667.667 1036,658.5C 1039.1,653.301 1039.26,647.967 1036.5,642.5C 1045.46,636.297 1051.79,627.963 1055.5,617.5C 1053.72,610.721 1049.72,605.721 1043.5,602.5C 1038.06,608.533 1032.73,614.7 1027.5,621C 1025.64,622.301 1023.64,622.635 1021.5,622C 1020.48,620.951 1020.32,619.784 1021,618.5C 1024.85,612.8 1029.19,607.467 1034,602.5C 1038.2,590.999 1034.37,586.166 1022.5,588C 1020.04,589.458 1017.87,591.291 1016,593.5C 998.536,620.615 974.37,639.115 943.5,649C 938.5,649.667 933.5,649.667 928.5,649C 946.036,638.733 963.703,628.733 981.5,619C 994.396,608.437 1005.56,596.27 1015,582.5C 1015.72,580.888 1015.55,579.388 1014.5,578C 1010.51,575.335 1006.18,574.335 1001.5,575C 991.73,583.438 981.397,591.104 970.5,598C 967.535,599.498 964.535,599.665 961.5,598.5C 970.766,589.736 979.932,580.736 989,571.5C 990.696,569.44 991.863,567.107 992.5,564.5C 992.101,561.935 990.601,560.601 988,560.5C 985.181,560.993 982.681,562.16 980.5,564C 973.785,571.389 965.951,577.222 957,581.5C 955.5,581.333 954.667,580.5 954.5,579C 961.324,568.165 969.657,558.499 979.5,550C 984.257,551.367 988.923,553.367 993.5,556C 1001.53,556.997 1006.7,553.497 1009,545.5C 1010.46,541.985 1010.62,538.485 1009.5,535C 1007.17,534.333 1004.83,534.333 1002.5,535C 999.547,537.793 996.213,539.96 992.5,541.5C 991.558,541.392 990.725,541.059 990,540.5C 987.345,529.568 982.345,528.568 975,537.5C 974.005,540.77 973.172,544.103 972.5,547.5C 967.073,550.759 962.073,554.592 957.5,559C 952.692,562.703 947.358,563.87 941.5,562.5C 948.625,550.2 957.458,539.2 968,529.5C 971.079,520.6 974.746,511.933 979,503.5C 981.575,497.774 982.909,491.774 983,485.5C 983.698,484.309 984.531,483.309 985.5,482.5 Z"/></g>
<g><path style="opacity:1" fill="#1d1d1d" d="M 840.5,485.5 C 842.842,485.504 844.842,486.337 846.5,488C 844.098,488.814 841.765,488.647 839.5,487.5C 839.863,486.817 840.196,486.15 840.5,485.5 Z"/></g>
<g><path style="opacity:1" fill="#0d0d0d" d="M 618.5,487.5 C 625.241,487.171 631.908,487.671 638.5,489C 642.185,490.283 643.519,492.617 642.5,496C 634.797,496.642 627.131,496.309 619.5,495C 613.242,493.278 612.909,490.778 618.5,487.5 Z"/></g>
<g><path style="opacity:1" fill="#070707" d="M 415.5,489.5 C 422.175,489.334 428.842,489.5 435.5,490C 444.287,493.113 453.287,495.447 462.5,497C 470.285,498.543 476.285,502.543 480.5,509C 479.876,511.291 478.376,512.457 476,512.5C 466.169,509.668 456.336,506.834 446.5,504C 440.881,502.701 435.214,502.368 429.5,503C 426.936,505.276 427.27,507.276 430.5,509C 438.1,512.603 446.1,514.937 454.5,516C 458.464,516.981 461.797,518.981 464.5,522C 462.562,523.872 460.229,524.705 457.5,524.5C 449.045,521.739 440.378,519.906 431.5,519C 420.479,518.424 409.479,517.59 398.5,516.5C 393.695,516.423 389.028,517.089 384.5,518.5C 378.85,518.599 374.184,516.599 370.5,512.5C 374.579,509.71 378.745,507.043 383,504.5C 383.236,502.236 383.736,500.069 384.5,498C 394.995,495.296 405.328,492.463 415.5,489.5 Z"/></g>
<g><path style="opacity:1" fill="#0c0c0c" d="M 715.5,490.5 C 719.828,490.037 723.828,490.87 727.5,493C 722.746,493.961 718.579,496.128 715,499.5C 715.344,501.258 715.844,503.091 716.5,505C 716.415,506.107 716.081,507.107 715.5,508C 711.309,510.814 706.975,511.481 702.5,510C 704.188,508.312 705.855,506.645 707.5,505C 705.79,503.389 703.957,501.889 702,500.5C 701.37,498.097 702.203,496.263 704.5,495C 708.266,493.441 711.932,491.941 715.5,490.5 Z"/></g>
<g><path style="opacity:1" fill="#101010" d="M 528.5,498.5 C 534.11,498.922 536.443,501.756 535.5,507C 529.025,507.545 526.692,504.711 528.5,498.5 Z"/></g>
<g><path style="opacity:1" fill="#dedede" d="M 788.5,508.5 C 793.467,508.584 793.8,509.918 789.5,512.5C 787.358,511.563 787.024,510.23 788.5,508.5 Z"/></g>
<g><path style="opacity:1" fill="#070707" d="M 120.5,510.5 C 121.496,510.414 122.329,510.748 123,511.5C 123.751,516.572 123.418,521.572 122,526.5C 114.762,536.761 108.762,547.761 104,559.5C 99.7219,575.057 95.8886,590.724 92.5,606.5C 93.7054,610.282 95.2054,613.948 97,617.5C 98.1131,618.711 99.2798,618.711 100.5,617.5C 105.463,612.907 108.297,607.24 109,600.5C 114.063,590.041 119.396,579.708 125,569.5C 125.414,569.043 125.914,568.709 126.5,568.5C 127.657,571.784 127.824,575.118 127,578.5C 122.051,588.729 117.384,599.063 113,609.5C 110.174,619.157 107.341,628.824 104.5,638.5C 103.029,637.619 102.196,636.286 102,634.5C 101.857,630.381 101.19,626.381 100,622.5C 96.7944,620.876 94.1277,621.542 92,624.5C 90.0728,627.948 88.7394,631.615 88,635.5C 87.0471,643.179 86.0471,650.845 85,658.5C 81.7437,664.973 79.077,664.973 77,658.5C 75.8784,611.32 86.545,566.987 109,525.5C 112.666,520.339 116.499,515.339 120.5,510.5 Z"/></g>
<g><path style="opacity:1" fill="#151515" d="M 628.5,510.5 C 631.85,510.335 635.183,510.502 638.5,511C 640.64,511.973 642.307,513.473 643.5,515.5C 642.619,516.971 641.286,517.804 639.5,518C 633.833,518.667 628.167,518.667 622.5,518C 620.595,517.174 620.261,516.007 621.5,514.5C 623.904,513.157 626.238,511.823 628.5,510.5 Z"/></g>
<g><path style="opacity:1" fill="#0e0e0e" d="M 97.5,510.5 C 98.5,510.5 99.5,510.5 100.5,510.5C 100.509,512.308 100.009,513.975 99,515.5C 89.6672,527.161 82.6672,540.161 78,554.5C 75.3878,559.732 73.0545,559.732 71,554.5C 70.3333,552.167 70.3333,549.833 71,547.5C 75.9388,538.899 81.2721,530.565 87,522.5C 90.3362,518.332 93.8362,514.332 97.5,510.5 Z"/></g>
<g><path style="opacity:1" fill="#070707" d="M 518.5,513.5 C 523.267,513.526 527.934,514.193 532.5,515.5C 532.678,520.039 532.345,524.539 531.5,529C 531.349,531.644 530.349,533.811 528.5,535.5C 523.017,529.197 519.684,521.863 518.5,513.5 Z"/></g>
<g><path style="opacity:1" fill="#0a0a0a" d="M 496.5,515.5 C 499.47,516.308 501.303,518.308 502,521.5C 502.775,529.548 502.442,537.548 501,545.5C 500.535,546.931 499.701,548.097 498.5,549C 495.243,550.043 491.91,550.543 488.5,550.5C 489.524,538.434 492.191,526.767 496.5,515.5 Z"/></g>
<g><path style="opacity:1" fill="#111111" d="M 661.5,520.5 C 664.576,526.295 668.409,531.629 673,536.5C 675.04,541.382 677.373,546.049 680,550.5C 680.49,551.793 680.657,553.127 680.5,554.5C 676.088,553.93 672.922,551.597 671,547.5C 665.541,539.26 662.374,530.26 661.5,520.5 Z"/></g>
<g><path style="opacity:1" fill="#0d0d0d" d="M 763.5,524.5 C 770.175,524.334 776.842,524.5 783.5,525C 787.51,527.325 788.51,530.659 786.5,535C 782.475,536.548 778.308,537.381 774,537.5C 767.173,535.262 760.173,533.596 753,532.5C 747.572,531.261 745.572,533.261 747,538.5C 748.171,539.893 749.671,540.727 751.5,541C 757.683,541.014 763.683,542.014 769.5,544C 771.303,544.637 772.636,545.803 773.5,547.5C 759.475,548.866 745.475,548.699 731.5,547C 730.549,546.282 730.383,545.449 731,544.5C 733.643,543.024 735.81,541.024 737.5,538.5C 736.086,537.376 734.586,536.376 733,535.5C 732.517,534.552 732.351,533.552 732.5,532.5C 737.013,532.412 741.013,530.912 744.5,528C 750.906,526.438 757.24,525.271 763.5,524.5 Z"/></g>
<g><path style="opacity:1" fill="#121212" d="M 148.5,528.5 C 150.527,528.338 152.527,528.505 154.5,529C 155.86,530.938 155.527,532.604 153.5,534C 151.655,535.128 149.655,535.628 147.5,535.5C 147.298,533.05 147.631,530.717 148.5,528.5 Z"/></g>
<g><path style="opacity:1" fill="#0a0a0a" d="M 635.5,530.5 C 638.187,530.336 640.854,530.503 643.5,531C 644.517,532.049 644.684,533.216 644,534.5C 639.395,537.779 634.228,539.446 628.5,539.5C 628.986,535.019 631.319,532.019 635.5,530.5 Z"/></g>
<g><path style="opacity:1" fill="#1a1a1a" d="M 797.5,536.5 C 799.346,536.222 800.68,536.889 801.5,538.5C 799.167,539.941 797.834,539.275 797.5,536.5 Z"/></g>
<g><path style="opacity:1" fill="#ececec" d="M 1018.5,542.5 C 1025.91,540.761 1029.58,543.594 1029.5,551C 1029.57,560.706 1025.07,567.206 1016,570.5C 1012.17,569.333 1009.67,566.833 1008.5,563C 1011.7,556.091 1015.04,549.258 1018.5,542.5 Z"/></g>
<g><path style="opacity:1" fill="#0c0c0c" d="M 656.5,547.5 C 659.769,547.884 662.603,549.218 665,551.5C 671.765,566.579 679.765,580.912 689,594.5C 698,602.833 707,611.167 716,619.5C 716.617,620.449 716.451,621.282 715.5,622C 713.402,621.968 711.402,621.301 709.5,620C 687.578,602.756 670.078,581.923 657,557.5C 655.384,554.176 655.217,550.843 656.5,547.5 Z"/></g>
<g><path style="opacity:1" fill="#090909" d="M 501.5,551.5 C 504.112,552.277 505.945,553.944 507,556.5C 507.428,566.885 504.428,576.218 498,584.5C 494.5,588 491,591.5 487.5,595C 485.182,596.993 482.516,598.159 479.5,598.5C 480.66,593.184 483.16,588.517 487,584.5C 491.848,573.474 496.681,562.474 501.5,551.5 Z"/></g>
<g><path style="opacity:1" fill="#090909" d="M 376.5,565.5 C 379.765,565.299 382.431,566.466 384.5,569C 391.155,568.78 397.822,568.78 404.5,569C 407.823,569.483 410.49,570.983 412.5,573.5C 411.619,574.971 410.286,575.804 408.5,576C 398.167,576.667 387.833,576.667 377.5,576C 372.539,573.008 372.205,569.508 376.5,565.5 Z"/></g>
<g><path style="opacity:1" fill="#0e0e0e" d="M 689.5,567.5 C 694.349,569.836 698.516,573.169 702,577.5C 703.009,579.025 703.509,580.692 703.5,582.5C 695.377,580.711 690.71,575.711 689.5,567.5 Z"/></g>
<g><path style="opacity:1" fill="#101010" d="M 1094.5,574.5 C 1103.25,579.339 1108.59,586.672 1110.5,596.5C 1109.45,596.649 1108.45,596.483 1107.5,596C 1101.49,589.814 1097.16,582.647 1094.5,574.5 Z"/></g>
<g><path style="opacity:1" fill="#eaeaea" d="M 1055.5,577.5 C 1062.17,576.005 1066.5,578.505 1068.5,585C 1067.06,588.721 1065.22,592.221 1063,595.5C 1055.79,603.159 1051.62,601.826 1050.5,591.5C 1050.59,586.228 1052.26,581.561 1055.5,577.5 Z"/></g>
<g><path style="opacity:1" fill="#090909" d="M 657.5,580.5 C 659.582,580.472 661.416,581.139 663,582.5C 666.922,590.016 671.589,597.016 677,603.5C 695.135,623.969 714.302,643.469 734.5,662C 740.677,664.919 746.344,668.586 751.5,673C 745.145,673.771 739.478,672.105 734.5,668C 721.593,659.096 709.26,649.43 697.5,639C 686.959,627.461 676.792,615.628 667,603.5C 662.179,596.541 659.012,588.874 657.5,580.5 Z"/></g>
<g><path style="opacity:1" fill="#070707" d="M 161.5,581.5 C 166.494,581.329 168.328,583.662 167,588.5C 166,591.5 165,594.5 164,597.5C 158.806,606.554 154.139,615.888 150,625.5C 144.451,642.148 138.118,658.481 131,674.5C 127.791,683.215 125.624,692.215 124.5,701.5C 127.958,711.684 129.291,722.184 128.5,733C 128.598,740.893 128.098,748.726 127,756.5C 125.056,760.11 122.723,763.443 120,766.5C 118.308,788.987 120.142,811.153 125.5,833C 123.05,836.292 120.55,836.125 118,832.5C 112.667,822.166 110,811.166 110,799.5C 109.264,769.105 110.264,738.771 113,708.5C 115.502,700.493 118.836,692.826 123,685.5C 125.477,669.783 129.477,654.45 135,639.5C 142.511,619.483 151.345,600.15 161.5,581.5 Z"/></g>
<g><path style="opacity:1" fill="#0d0d0d" d="M 715.5,593.5 C 719.605,593.234 723.605,593.734 727.5,595C 728.591,597.064 728.758,599.231 728,601.5C 722.594,601.718 718.094,599.551 714.5,595C 715.056,594.617 715.389,594.117 715.5,593.5 Z"/></g>
<g><path style="opacity:1" fill="#131313" d="M 949.5,601.5 C 951.857,601.337 954.19,601.503 956.5,602C 952.66,604.421 948.66,606.588 944.5,608.5C 943.386,607.277 943.219,605.944 944,604.5C 945.876,603.391 947.709,602.391 949.5,601.5 Z"/></g>
<g><path style="opacity:1" fill="#eaeaea" d="M 1061.5,623.5 C 1064.04,623.104 1066.21,623.771 1068,625.5C 1067.24,638.361 1062.58,649.694 1054,659.5C 1053.32,667.888 1050.66,675.555 1046,682.5C 1040.72,686.699 1035.72,686.366 1031,681.5C 1030.33,679.833 1030.33,678.167 1031,676.5C 1034.85,667.324 1040.85,659.99 1049,654.5C 1049.26,650.623 1050.26,646.957 1052,643.5C 1055.48,636.851 1058.65,630.184 1061.5,623.5 Z"/></g>
<g><path style="opacity:1" fill="#090909" d="M 1012.5,629.5 C 1015.58,629.418 1017.25,630.918 1017.5,634C 1016.49,636.517 1015.33,639.017 1014,641.5C 998.311,661.203 979.144,676.37 956.5,687C 952.5,687.333 948.5,687.667 944.5,688C 938.549,691.436 932.216,692.27 925.5,690.5C 924.167,689.167 924.167,687.833 925.5,686.5C 927.167,685.667 928.833,684.833 930.5,684C 935.304,683.632 939.97,682.632 944.5,681C 958.612,674.445 972.279,667.111 985.5,659C 988.965,656.537 992.131,653.704 995,650.5C 1000.36,643.1 1006.2,636.1 1012.5,629.5 Z"/></g>
<g><path style="opacity:1" fill="#060606" d="M 181.5,636.5 C 182.5,636.5 183.5,636.5 184.5,636.5C 184.216,643.968 181.049,649.968 175,654.5C 173.392,657.382 172.059,660.382 171,663.5C 169.664,677.846 165.998,691.512 160,704.5C 158.909,716.198 156.242,727.532 152,738.5C 151.003,766.832 149.836,795.166 148.5,823.5C 147.298,819.264 145.132,818.597 142,821.5C 141.333,826.167 141.333,830.833 142,835.5C 152.47,863.911 163.137,892.244 174,920.5C 174.781,921.944 174.614,923.277 173.5,924.5C 167.809,920.976 163.309,916.309 160,910.5C 155.139,902.112 150.806,893.446 147,884.5C 143.374,869.992 140.374,855.326 138,840.5C 133.256,826.857 130.089,812.857 128.5,798.5C 128.667,796.167 128.833,793.833 129,791.5C 131.295,788.203 133.962,785.203 137,782.5C 137.973,780.608 138.64,778.608 139,776.5C 139.333,766.167 139.667,755.833 140,745.5C 143.726,705.132 157.56,668.799 181.5,636.5 Z"/></g>
<g><path style="opacity:1" fill="#0a0a0a" d="M 97.5,645.5 C 98.8221,645.33 99.9887,645.663 101,646.5C 101.527,656.569 100.86,666.569 99,676.5C 96.9806,704.185 97.1473,731.851 99.5,759.5C 99.3333,762.833 99.1667,766.167 99,769.5C 96.4598,770.876 94.4598,770.21 93,767.5C 91.3953,764.352 90.3953,761.019 90,757.5C 88.8182,744.869 88.1515,732.203 88,719.5C 87.5831,715.079 86.7498,710.746 85.5,706.5C 89.2561,686.116 93.2561,665.783 97.5,645.5 Z"/></g>
<g><path style="opacity:1" fill="#080808" d="M 482.5,646.5 C 485.862,646.07 488.695,647.07 491,649.5C 494.922,656.342 498.588,663.342 502,670.5C 502.667,673.5 502.667,676.5 502,679.5C 500.455,682.302 499.622,685.302 499.5,688.5C 503.137,697.094 501.803,704.761 495.5,711.5C 494.668,701.183 494.168,690.849 494,680.5C 490.536,672.773 487.869,664.773 486,656.5C 484.667,654.5 483.333,652.5 482,650.5C 481.421,649.072 481.588,647.738 482.5,646.5 Z"/></g>
<g><path style="opacity:1" fill="#151515" d="M 637.5,646.5 C 641.394,646.186 644.727,647.353 647.5,650C 642.987,653.355 638.654,653.188 634.5,649.5C 635.34,648.265 636.34,647.265 637.5,646.5 Z"/></g>
<g><path style="opacity:1" fill="#0e0e0e" d="M 754.5,646.5 C 756.308,646.491 757.975,646.991 759.5,648C 760.451,648.718 760.617,649.551 760,650.5C 755.417,652.321 753.584,650.988 754.5,646.5 Z"/></g>
<g><path style="opacity:1" fill="#090909" d="M 583.5,648.5 C 591.528,648.169 599.528,648.502 607.5,649.5C 604.25,651.984 600.583,653.818 596.5,655C 584.937,655.978 573.937,658.978 563.5,664C 550.824,665.696 538.324,668.196 526,671.5C 523.41,670.313 522.91,668.48 524.5,666C 543.235,656.572 562.902,650.739 583.5,648.5 Z"/></g>
<g><path style="opacity:1" fill="#040404" d="M 602.5,663.5 C 623.954,662.823 645.287,663.989 666.5,667C 670.918,667.238 672.751,669.405 672,673.5C 670.779,674.774 669.946,676.274 669.5,678C 672.214,679.867 673.881,682.367 674.5,685.5C 646.84,686.174 619.173,686.674 591.5,687C 579.349,687.685 567.349,689.352 555.5,692C 549.167,692.667 542.833,692.667 536.5,692C 529.847,689.902 530.18,688.235 537.5,687C 559.454,685.381 581.121,682.048 602.5,677C 597.712,674.4 594.712,670.567 593.5,665.5C 596.727,665.324 599.727,664.657 602.5,663.5 Z"/></g>
<g><path style="opacity:1" fill="#111111" d="M 205.5,668.5 C 210.068,668.083 211.568,670.083 210,674.5C 208.861,678.112 207.194,681.446 205,684.5C 203.736,686.607 201.903,687.607 199.5,687.5C 199.49,680.531 201.49,674.197 205.5,668.5 Z"/></g>
<g><path style="opacity:1" fill="#1f1f1f" d="M 1010.5,669.5 C 1013.56,669.603 1014.56,670.936 1013.5,673.5C 1011.71,672.717 1010.71,671.384 1010.5,669.5 Z"/></g>
<g><path style="opacity:1" fill="#0f0f0f" d="M 709.5,671.5 C 711.189,672.931 713.189,673.764 715.5,674C 720.573,679.744 726.24,684.744 732.5,689C 735.545,691.584 737.045,694.75 737,698.5C 735.612,699.554 734.112,699.72 732.5,699C 724.382,694.549 717.882,688.383 713,680.5C 711.259,677.691 710.092,674.691 709.5,671.5 Z"/></g>
<g><path style="opacity:1" fill="#050505" d="M 458.5,674.5 C 459.873,674.343 461.207,674.51 462.5,675C 475.437,686.121 481.604,700.288 481,717.5C 481.667,725.5 481.667,733.5 481,741.5C 468.749,767.088 452.582,789.921 432.5,810C 427.625,812.897 422.292,814.23 416.5,814C 411.99,816.516 407.49,819.016 403,821.5C 401.739,821.241 400.739,820.574 400,819.5C 399.667,815.5 399.333,811.5 399,807.5C 395.613,804.956 392.613,801.956 390,798.5C 389.333,794.167 389.333,789.833 390,785.5C 391.826,781.963 394.16,781.629 397,784.5C 398.852,790.36 400.018,796.36 400.5,802.5C 401.365,803.583 402.365,803.749 403.5,803C 408.855,794.788 413.021,785.954 416,776.5C 415.177,766.194 414.51,755.861 414,745.5C 415.073,744.72 416.24,744.887 417.5,746C 427.426,754.901 431.592,766.068 430,779.5C 430.45,781.519 431.283,783.352 432.5,785C 433.5,785.667 434.5,785.667 435.5,785C 441.486,779.862 444.986,773.362 446,765.5C 446.667,755.833 446.667,746.167 446,736.5C 441.44,727.657 438.607,718.324 437.5,708.5C 442.638,708.49 446.805,710.49 450,714.5C 452.27,719.644 453.937,724.978 455,730.5C 455.123,739.227 455.79,747.894 457,756.5C 458.215,761.958 460.548,762.625 464,758.5C 471.353,743.263 472.353,727.596 467,711.5C 464.41,701.727 461.41,692.061 458,682.5C 457.278,679.739 457.445,677.073 458.5,674.5 Z"/></g>
<g><path style="opacity:1" fill="#eaeaea" d="M 1058.5,676.5 C 1062.17,676.327 1064.67,677.993 1066,681.5C 1067.69,694.143 1062.19,699.976 1049.5,699C 1047.72,697.933 1047.22,696.433 1048,694.5C 1051.33,688.353 1054.83,682.353 1058.5,676.5 Z"/></g>
<g><path style="opacity:1" fill="#ebebeb" d="M 1022.5,687.5 C 1025.81,686.974 1027.97,688.307 1029,691.5C 1029.75,694.303 1029.42,696.97 1028,699.5C 1025.15,701.257 1022.49,703.257 1020,705.5C 1018.14,710.048 1015.64,714.215 1012.5,718C 1005.49,719.324 1002.99,716.49 1005,709.5C 1008.83,700.514 1014.66,693.181 1022.5,687.5 Z"/></g>
<g><path style="opacity:1" fill="#080808" d="M 608.5,693.5 C 612.846,693.334 617.179,693.501 621.5,694C 623.779,694.473 625.779,695.473 627.5,697C 617.816,698.012 608.816,701.012 600.5,706C 601.167,706.667 601.833,707.333 602.5,708C 621.223,710.747 639.889,713.747 658.5,717C 651.346,718.516 644.012,719.349 636.5,719.5C 619.636,717.136 602.636,715.969 585.5,716C 582.975,712.842 583.475,710.008 587,707.5C 587.749,706.365 587.583,705.365 586.5,704.5C 581.607,703.083 576.607,702.083 571.5,701.5C 571.709,700.914 572.043,700.414 572.5,700C 579.833,699.667 587.167,699.333 594.5,699C 599.789,698.411 604.455,696.577 608.5,693.5 Z"/></g>
<g><path style="opacity:1" fill="#111111" d="M 194.5,696.5 C 201.439,695.578 203.439,698.078 200.5,704C 191.034,708.016 189.034,705.516 194.5,696.5 Z"/></g>
<g><path style="opacity:1" fill="#121212" d="M 638.5,697.5 C 645.75,696.498 653.084,696.998 660.5,699C 661.833,700 661.833,701 660.5,702C 652.505,703.56 645.172,702.06 638.5,697.5 Z"/></g>
<g><path style="opacity:1" fill="#0b0b0b" d="M 764.5,709.5 C 773.042,712.436 781.375,715.936 789.5,720C 791.037,721.11 791.703,722.61 791.5,724.5C 782.836,725.5 774.836,723.667 767.5,719C 764.971,716.358 763.971,713.192 764.5,709.5 Z"/></g>
<g><path style="opacity:1" fill="#080808" d="M 726.5,711.5 C 730.024,711.929 733.024,713.429 735.5,716C 742.5,724.333 750.167,732 758.5,739C 774.129,744.4 789.462,750.4 804.5,757C 801.702,758.453 798.702,759.453 795.5,760C 788.5,760.667 781.5,760.667 774.5,760C 771.868,759.551 769.368,758.717 767,757.5C 765.743,757.85 765.409,758.517 766,759.5C 771.728,767.901 779.228,774.068 788.5,778C 803.479,778.658 816.646,783.824 828,793.5C 828.163,795.387 827.329,796.887 825.5,798C 816.369,798.993 807.369,798.326 798.5,796C 787.865,790.348 777.198,784.681 766.5,779C 758.436,773.221 755.436,765.554 757.5,756C 757.091,753.679 756.257,751.513 755,749.5C 747.364,742.865 740.03,735.865 733,728.5C 728.598,723.694 726.431,718.027 726.5,711.5 Z"/></g>
<g><path style="opacity:1" fill="#090909" d="M 184.5,719.5 C 185.5,719.5 186.5,719.5 187.5,719.5C 187.666,725.509 187.499,731.509 187,737.5C 179.425,775.186 177.425,813.186 181,851.5C 182.453,866.332 187.119,879.999 195,892.5C 198.764,901.888 201.098,911.555 202,921.5C 199.341,917.764 195.841,915.431 191.5,914.5C 191.151,922.404 192.317,930.071 195,937.5C 202.619,952.066 209.119,967.066 214.5,982.5C 211.984,982.245 209.65,981.411 207.5,980C 201.01,974.502 195.843,968.002 192,960.5C 188.071,951.047 184.738,941.38 182,931.5C 174.783,883.111 171.116,834.445 171,785.5C 173.46,771.227 175.46,756.893 177,742.5C 178.807,734.581 181.307,726.914 184.5,719.5 Z"/></g>
<g><path style="opacity:1" fill="#0a0a0a" d="M 1068.5,725.5 C 1069.55,725.351 1070.55,725.517 1071.5,726C 1083.55,739.381 1094.05,753.881 1103,769.5C 1109.23,783.283 1114.89,797.283 1120,811.5C 1120.67,816.167 1120.67,820.833 1120,825.5C 1119.77,827.78 1118.93,829.78 1117.5,831.5C 1114.63,828.425 1112.8,824.759 1112,820.5C 1109.67,810.159 1107.33,799.826 1105,789.5C 1097.67,778.167 1090.33,766.833 1083,755.5C 1077.64,749.145 1071.98,743.145 1066,737.5C 1065.03,733.067 1065.87,729.067 1068.5,725.5 Z"/></g>
<g><path style="opacity:1" fill="#0c0c0c" d="M 604.5,727.5 C 616.838,727.333 629.171,727.5 641.5,728C 642.833,728.333 644.167,728.667 645.5,729C 646.833,730 646.833,731 645.5,732C 628.167,732.333 610.833,732.667 593.5,733C 588.784,734.541 586.117,737.708 585.5,742.5C 601.353,742.78 617.187,742.447 633,741.5C 640.304,742.361 647.471,743.861 654.5,746C 656.792,747.29 658.792,748.957 660.5,751C 624.651,751.253 588.818,752.086 553,753.5C 550.5,753.167 548,752.833 545.5,752.5C 545.709,751.914 546.043,751.414 546.5,751C 551.833,750.667 557.167,750.333 562.5,750C 566.813,748.694 570.313,746.194 573,742.5C 573.543,739.83 573.043,737.33 571.5,735C 572.154,733.013 573.487,731.68 575.5,731C 585.24,729.246 594.906,728.079 604.5,727.5 Z"/></g>
<g><path style="opacity:1" fill="#070707" d="M 236.5,730.5 C 237.496,730.414 238.329,730.748 239,731.5C 239.667,734.167 239.667,736.833 239,739.5C 236.135,752.093 232.468,764.427 228,776.5C 225.568,814.802 224.568,853.135 225,891.5C 231.461,916.217 239.128,940.551 248,964.5C 249.015,968.44 249.515,972.44 249.5,976.5C 248.448,976.649 247.448,976.483 246.5,976C 235.003,958.847 227.837,940.014 225,919.5C 223.133,914.898 221.466,910.232 220,905.5C 217.438,889.795 214.771,874.128 212,858.5C 211.333,838.5 211.333,818.5 212,798.5C 217.738,781.288 223.071,763.954 228,746.5C 230.067,740.695 232.901,735.362 236.5,730.5 Z"/></g>
<g><path style="opacity:1" fill="#050505" d="M 271.5,803.5 C 273.39,803.297 274.89,803.963 276,805.5C 276.866,819.537 276.532,833.537 275,847.5C 271.91,851.682 269.91,856.349 269,861.5C 268.333,876.833 268.333,892.167 269,907.5C 272.177,927.095 274.844,946.761 277,966.5C 283.146,983.125 291.146,998.791 301,1013.5C 307.333,1026.17 313.667,1038.83 320,1051.5C 324.573,1058.74 329.907,1065.41 336,1071.5C 338.62,1076.55 337.12,1078.39 331.5,1077C 326.011,1073.17 321.511,1068.34 318,1062.5C 312.479,1058.07 307.146,1053.4 302,1048.5C 298,1041.83 294,1035.17 290,1028.5C 283,1010.17 276,991.833 269,973.5C 262.373,950.078 256.706,926.411 252,902.5C 249.414,869.916 254.414,838.583 267,808.5C 268.707,806.963 270.207,805.296 271.5,803.5 Z"/></g>
<g><path style="opacity:1" fill="#070707" d="M 995.5,808.5 C 996.552,808.351 997.552,808.517 998.5,809C 1001.87,812.703 1005.53,816.036 1009.5,819C 1013.93,821.04 1018.6,822.206 1023.5,822.5C 1023.05,825.14 1021.88,827.473 1020,829.5C 1012.3,836.873 1004.3,843.873 996,850.5C 993.152,855.677 994.485,859.01 1000,860.5C 1002.18,860.079 1004.35,859.579 1006.5,859C 1012.87,854.484 1019.53,850.484 1026.5,847C 1029.19,844.306 1031.86,841.64 1034.5,839C 1035.5,838.333 1036.5,838.333 1037.5,839C 1033.79,841.602 1032.62,845.102 1034,849.5C 1036.65,854.802 1039.32,860.136 1042,865.5C 1043.75,874.756 1047.41,883.089 1053,890.5C 1056.67,903.064 1058.17,915.898 1057.5,929C 1057.61,936.242 1057.11,943.409 1056,950.5C 1055.12,953.346 1053.45,954.013 1051,952.5C 1050.85,947.431 1051.51,942.431 1053,937.5C 1053.67,930.5 1053.67,923.5 1053,916.5C 1051.2,910.902 1048.87,905.569 1046,900.5C 1045.96,891.539 1043.79,883.206 1039.5,875.5C 1037.9,874.515 1036.24,874.349 1034.5,875C 1026.77,881.634 1021.44,889.8 1018.5,899.5C 1022.51,917.214 1026.68,934.881 1031,952.5C 1031.67,959.167 1031.67,965.833 1031,972.5C 1030.15,977.252 1027.65,980.585 1023.5,982.5C 1022.56,982.392 1021.72,982.059 1021,981.5C 1022.12,965.773 1021.45,950.106 1019,934.5C 1018.47,930.695 1017.47,927.029 1016,923.5C 1014.49,922.465 1012.99,922.632 1011.5,924C 1005.92,928.907 1001.09,934.407 997,940.5C 996.333,942.5 996.333,944.5 997,946.5C 1002.93,966.2 1002.93,985.866 997,1005.5C 996,1007.17 995,1008.83 994,1010.5C 993.163,1012.01 991.996,1012.51 990.5,1012C 989.975,1000.55 990.475,989.047 992,977.5C 992.667,969.833 992.667,962.167 992,954.5C 991.003,951.005 988.836,948.672 985.5,947.5C 981.226,948.97 977.226,950.97 973.5,953.5C 972.222,972.826 971.056,992.16 970,1011.5C 968.574,1022.69 963.741,1032.02 955.5,1039.5C 954.054,1038.83 953.388,1037.66 953.5,1036C 955.442,1030.95 956.942,1025.79 958,1020.5C 958.667,1009.83 958.667,999.167 958,988.5C 957.439,987.978 956.772,987.645 956,987.5C 948.113,989.129 940.28,990.963 932.5,993C 930.926,994.826 930.093,996.993 930,999.5C 928.945,1016.11 926.279,1032.44 922,1048.5C 919.113,1055.94 915.446,1062.94 911,1069.5C 908.772,1071.11 906.272,1071.78 903.5,1071.5C 905.696,1066.77 908.196,1062.1 911,1057.5C 916.069,1044.9 919.069,1031.9 920,1018.5C 918.736,1016.39 916.903,1015.39 914.5,1015.5C 915.188,1012.28 916.188,1009.12 917.5,1006C 917.561,1004.29 916.894,1002.96 915.5,1002C 908.826,1001.79 902.159,1002.12 895.5,1003C 890.931,1005.54 889.431,1009.37 891,1014.5C 892.326,1016.98 893.493,1019.48 894.5,1022C 891.993,1026.53 890.159,1031.36 889,1036.5C 887.815,1047.57 886.149,1058.57 884,1069.5C 881.653,1076.37 878.153,1082.53 873.5,1088C 872.552,1088.48 871.552,1088.65 870.5,1088.5C 871.008,1085.82 871.175,1083.16 871,1080.5C 868.473,1079.27 866.306,1077.61 864.5,1075.5C 867.142,1071.69 869.975,1068.02 873,1064.5C 876.492,1059.73 877.659,1054.56 876.5,1049C 868.41,1047.13 862.577,1049.96 859,1057.5C 853.604,1072.96 846.604,1087.62 838,1101.5C 835.353,1105.35 831.853,1107.68 827.5,1108.5C 827.523,1106.07 828.023,1103.74 829,1101.5C 834.217,1091.07 838.883,1080.4 843,1069.5C 843.978,1066.33 843.478,1063.5 841.5,1061C 837.833,1060.33 834.167,1060.33 830.5,1061C 825.646,1065.36 820.646,1069.52 815.5,1073.5C 814.201,1072.91 813.368,1071.91 813,1070.5C 812.667,1067.83 812.333,1065.17 812,1062.5C 808.096,1060.48 803.929,1058.98 799.5,1058C 796.674,1055.48 797.007,1053.48 800.5,1052C 804.5,1051.67 808.5,1051.33 812.5,1051C 819.096,1049.75 821.596,1045.92 820,1039.5C 817.872,1036.37 815.372,1033.54 812.5,1031C 821.667,1027.16 827.167,1020.33 829,1010.5C 831.697,1007.13 835.197,1005.8 839.5,1006.5C 838.077,1012.22 838.243,1017.88 840,1023.5C 845.089,1027.56 849.755,1026.89 854,1021.5C 855.696,1019.44 856.863,1017.11 857.5,1014.5C 857.124,1012.62 856.124,1011.12 854.5,1010C 851.167,1009 847.833,1008 844.5,1007C 855.569,1002.97 857.235,996.634 849.5,988C 849.833,987.5 850.167,987 850.5,986.5C 856.115,985.711 861.782,985.211 867.5,985C 870.215,983.092 873.215,981.759 876.5,981C 881.833,980.333 887.167,980.333 892.5,981C 893.308,981.308 893.975,981.808 894.5,982.5C 887.505,986.953 886.838,992.12 892.5,998C 900.998,998.501 908.665,996.168 915.5,991C 917.211,989.867 917.711,988.367 917,986.5C 913.916,982.909 910.416,979.909 906.5,977.5C 908.5,975.673 910.667,974.006 913,972.5C 915.517,968.53 916.017,964.364 914.5,960C 903.827,960.738 893.16,961.904 882.5,963.5C 880.167,963.333 877.833,963.167 875.5,963C 872.774,959.55 873.774,957.55 878.5,957C 884.965,956.235 891.299,954.901 897.5,953C 899.96,951.542 902.127,949.709 904,947.5C 904.65,942.699 904.15,938.032 902.5,933.5C 901.851,929.313 903.518,927.813 907.5,929C 910.491,931.99 912.657,935.49 914,939.5C 915.562,941.91 917.729,943.244 920.5,943.5C 929.897,941.469 938.897,938.302 947.5,934C 948.848,932.426 949.514,930.593 949.5,928.5C 948.62,925.198 947.954,921.865 947.5,918.5C 950.967,918.446 953.634,919.946 955.5,923C 962.018,923.581 967.685,921.581 972.5,917C 974.211,915.867 974.711,914.367 974,912.5C 971.399,908.445 968.232,904.945 964.5,902C 961.167,901.333 957.833,901.333 954.5,902C 940.905,907.865 926.905,912.532 912.5,916C 907.601,917.125 903.101,916.291 899,913.5C 898.318,909.82 899.818,907.32 903.5,906C 909.038,904.949 914.372,903.283 919.5,901C 922.833,896.333 926.167,891.667 929.5,887C 931.833,886.333 934.167,886.333 936.5,887C 939.412,888.24 942.079,889.906 944.5,892C 946.833,892.667 949.167,892.667 951.5,892C 963.833,887.443 975.833,882.11 987.5,876C 991.67,871.145 991.003,866.812 985.5,863C 971.265,865.3 957.598,869.633 944.5,876C 933.011,879.305 921.344,880.972 909.5,881C 905.124,879.444 901.458,876.944 898.5,873.5C 899.09,872.201 900.09,871.368 901.5,871C 917.691,872.061 933.358,869.728 948.5,864C 959.916,859.194 971.25,854.194 982.5,849C 988.379,843.455 995.045,839.122 1002.5,836C 1007.31,832.645 1007.64,828.979 1003.5,825C 997.053,820.961 990.053,818.294 982.5,817C 986.898,814.143 991.232,811.309 995.5,808.5 Z"/></g>
<g><path style="opacity:1" fill="#0d0d0d" d="M 949.5,817.5 C 952.274,818.723 954.941,820.223 957.5,822C 959,822.167 960.5,822.333 962,822.5C 967,821.5 972,820.5 977,819.5C 978.5,819.833 980,820.167 981.5,820.5C 979.731,822.557 977.731,824.39 975.5,826C 969.166,829.165 963.166,832.831 957.5,837C 953.317,838.796 948.984,840.129 944.5,841C 933.5,841.667 922.5,841.667 911.5,841C 910.833,840.333 910.167,839.667 909.5,839C 911.49,837.249 913.823,836.249 916.5,836C 925.289,835.325 933.955,833.991 942.5,832C 944,831.167 945.167,830 946,828.5C 945.799,824.271 946.966,820.604 949.5,817.5 Z"/></g>
<g><path style="opacity:1" fill="#090909" d="M 595.5,820.5 C 623.885,819.945 652.218,820.778 680.5,823C 683.21,824.015 685.543,825.515 687.5,827.5C 687.291,828.086 686.957,828.586 686.5,829C 653.5,829.333 620.5,829.667 587.5,830C 566.652,832.53 545.985,836.03 525.5,840.5C 523.5,840.167 521.5,839.833 519.5,839.5C 526.466,834.893 534.133,831.726 542.5,830C 560.003,825.1 577.669,821.933 595.5,820.5 Z"/></g>
<g><path style="opacity:1" fill="#0f0f0f" d="M 824.5,821.5 C 829.62,821.476 833.787,823.476 837,827.5C 837.835,831.706 836.002,833.706 831.5,833.5C 826.869,832.699 823.535,830.199 821.5,826C 822.315,824.357 823.315,822.857 824.5,821.5 Z"/></g>
<g><path style="opacity:1" fill="#060606" d="M 563.5,841.5 C 596.177,841.339 628.843,841.839 661.5,843C 676.166,844.762 690.833,846.429 705.5,848C 713.03,849.041 714.363,852.374 709.5,858C 703.285,857.935 697.285,856.602 691.5,854C 684.5,853.667 677.5,853.333 670.5,853C 663.394,849.29 656.227,848.79 649,851.5C 647.539,854.679 646.705,858.012 646.5,861.5C 629.177,862.456 611.843,863.289 594.5,864C 589.784,863.957 585.451,865.124 581.5,867.5C 581.709,868.086 582.043,868.586 582.5,869C 603.112,870.29 623.779,871.29 644.5,872C 649.21,872.375 653.877,873.042 658.5,874C 660.44,877.412 661.773,881.079 662.5,885C 670.763,886.863 679.096,888.529 687.5,890C 693.954,894.613 700.954,895.613 708.5,893C 709.729,890.381 709.396,887.881 707.5,885.5C 713.41,884.083 718.576,885.416 723,889.5C 723.667,893.833 723.667,898.167 723,902.5C 721.475,903.72 719.641,904.387 717.5,904.5C 709.344,903.394 701.344,901.56 693.5,899C 675.285,895.913 656.951,894.58 638.5,895C 637.328,895.419 636.328,896.085 635.5,897C 656.179,900.586 676.512,905.586 696.5,912C 703.096,915.933 709.096,920.6 714.5,926C 707.466,924.826 700.466,923.159 693.5,921C 681.722,919.204 670.055,916.87 658.5,914C 625.134,910.567 591.801,910.901 558.5,915C 543.906,917.209 529.573,920.209 515.5,924C 512.735,921.034 513.068,918.367 516.5,916C 523.083,912.806 529.75,909.806 536.5,907C 539.192,904.368 538.859,902.034 535.5,900C 534,899.833 532.5,899.667 531,899.5C 524.482,900.904 517.982,902.071 511.5,903C 510.695,900.866 511.362,899.033 513.5,897.5C 514.7,896.469 516.034,895.635 517.5,895C 523.204,894.633 528.87,893.966 534.5,893C 542.631,890.217 550.964,888.217 559.5,887C 561.002,886.417 562.335,885.584 563.5,884.5C 558.774,882.994 553.941,881.994 549,881.5C 548.312,880.668 548.479,880.002 549.5,879.5C 553.054,878.021 556.72,876.854 560.5,876C 563.228,873.565 562.894,871.565 559.5,870C 556.883,869.178 554.216,868.678 551.5,868.5C 551.372,866.345 551.872,864.345 553,862.5C 556.729,860.751 560.563,859.084 564.5,857.5C 565.833,856.5 565.833,855.5 564.5,854.5C 556.215,853.696 547.882,853.196 539.5,853C 539.043,852.586 538.709,852.086 538.5,851.5C 546.46,846.964 554.793,843.631 563.5,841.5 Z"/></g>
<g><path style="opacity:1" fill="#eaeaea" d="M 609.5,849.5 C 614.361,849.063 619.028,849.563 623.5,851C 619.354,852.595 615.02,852.928 610.5,852C 609.748,851.329 609.414,850.496 609.5,849.5 Z"/></g>
<g><path style="opacity:1" fill="#e3e3e3" d="M 630.5,849.5 C 632.167,849.5 633.833,849.5 635.5,849.5C 635.5,850.5 635.5,851.5 635.5,852.5C 633.801,852.66 632.134,852.494 630.5,852C 629.402,851.23 629.402,850.397 630.5,849.5 Z"/></g>
<g><path style="opacity:1" fill="#e6e6e6" d="M 579.5,851.5 C 582.518,851.335 585.518,851.502 588.5,852C 589.5,854.091 588.833,855.757 586.5,857C 583.167,857.667 579.833,857.667 576.5,857C 575.549,856.282 575.383,855.449 576,854.5C 577.145,853.364 578.312,852.364 579.5,851.5 Z"/></g>
<g><path style="opacity:1" fill="#141414" d="M 516.5,853.5 C 520.846,853.334 525.179,853.501 529.5,854C 530.428,854.388 531.095,855.055 531.5,856C 527.155,859.556 522.155,860.889 516.5,860C 513.939,857.844 513.939,855.677 516.5,853.5 Z"/></g>
<g><path style="opacity:1" fill="#e8e8e8" d="M 1024.5,853.5 C 1028,854.785 1029.84,857.452 1030,861.5C 1030.84,865.12 1030.17,868.454 1028,871.5C 1024.1,874.398 1019.93,876.898 1015.5,879C 1006.37,880.881 1003.87,877.714 1008,869.5C 1012.73,863.264 1018.23,857.931 1024.5,853.5 Z"/></g>
<g><path style="opacity:1" fill="#161616" d="M 725.5,855.5 C 727.722,855.559 728.722,856.725 728.5,859C 727.167,863.667 725.833,863.667 724.5,859C 724.648,857.744 724.982,856.577 725.5,855.5 Z"/></g>
<g><path style="opacity:1" fill="#090909" d="M 670.5,859.5 C 675.37,859.032 680.036,859.698 684.5,861.5C 685.386,862.325 685.719,863.325 685.5,864.5C 681.154,864.666 676.821,864.499 672.5,864C 669.715,863.274 669.048,861.774 670.5,859.5 Z"/></g>
<g><path style="opacity:1" fill="#848484" d="M 603.5,878.5 C 605.288,878.215 606.955,878.548 608.5,879.5C 607.667,879.833 606.833,880.167 606,880.5C 604.624,880.316 603.791,879.649 603.5,878.5 Z"/></g>
<g><path style="opacity:1" fill="#535353" d="M 690.5,879.5 C 686.629,879.185 682.962,879.518 679.5,880.5C 678.957,880.44 678.624,880.107 678.5,879.5C 682.649,878.191 686.649,878.191 690.5,879.5 Z"/></g>
<g><path style="opacity:1" fill="#171717" d="M 679.5,880.5 C 682.962,879.518 686.629,879.185 690.5,879.5C 692.028,879.517 692.528,880.184 692,881.5C 687.727,882.863 683.56,882.53 679.5,880.5 Z"/></g>
<g><path style="opacity:1" fill="#ebebeb" d="M 990.5,881.5 C 998,880.166 1000.83,883.166 999,890.5C 995.516,898.365 989.683,902.531 981.5,903C 976.777,899.746 975.277,895.246 977,889.5C 981.183,886.164 985.683,883.497 990.5,881.5 Z"/></g>
<g><path style="opacity:1" fill="#070707" d="M 321.5,884.5 C 322.117,884.611 322.617,884.944 323,885.5C 323.941,912.519 325.274,939.519 327,966.5C 332.119,984.641 336.452,1002.97 340,1021.5C 343.51,1031.52 347.843,1041.19 353,1050.5C 360.354,1060.54 366.687,1071.21 372,1082.5C 377.709,1088.54 383.043,1094.87 388,1101.5C 392.163,1110.76 389.663,1112.93 380.5,1108C 376.631,1104.47 373.131,1100.63 370,1096.5C 357.817,1077.47 346.151,1058.13 335,1038.5C 329.672,1026.51 324.339,1014.51 319,1002.5C 317.872,997.861 316.872,993.195 316,988.5C 314.673,962.845 314.34,937.178 315,911.5C 315.867,906.232 317.534,901.232 320,896.5C 320.304,892.452 320.804,888.452 321.5,884.5 Z"/></g>
<g><path style="opacity:1" fill="#e9e9e9" d="M 582.5,891.5 C 589.508,892.167 596.508,893 603.5,894C 606.668,894.582 607.001,895.582 604.5,897C 589.621,898.875 574.787,901.042 560,903.5C 555.873,903.712 553.039,901.878 551.5,898C 552.101,896.395 553.101,895.062 554.5,894C 563.167,893.667 571.833,893.333 580.5,893C 581.416,892.722 582.082,892.222 582.5,891.5 Z"/></g>
<g><path style="opacity:1" fill="#ebebeb" d="M 1001.5,906.5 C 1003.53,906.338 1005.53,906.505 1007.5,907C 1008.57,907.739 1009.24,908.739 1009.5,910C 1007.23,917.595 1002.73,923.428 996,927.5C 991.555,925.426 989.221,922.093 989,917.5C 992.767,913.224 996.934,909.557 1001.5,906.5 Z"/></g>
<g><path style="opacity:1" fill="#ededed" d="M 975.5,924.5 C 979.73,923.563 982.23,925.229 983,929.5C 984.375,941.125 979.209,946.625 967.5,946C 962.847,942.212 961.347,937.378 963,931.5C 965.624,929.965 968.457,928.798 971.5,928C 973.093,927.051 974.426,925.885 975.5,924.5 Z"/></g>
<g><path style="opacity:1" fill="#1c1c1c" d="M 207.5,929.5 C 211.931,931.595 214.931,934.929 216.5,939.5C 210.789,938.782 207.789,935.449 207.5,929.5 Z"/></g>
<g><path style="opacity:1" fill="#ececec" d="M 944.5,944.5 C 952.505,943.342 955.339,946.675 953,954.5C 951.878,956.624 950.378,958.457 948.5,960C 944.263,962.277 940.263,964.777 936.5,967.5C 937.833,967.833 939.167,968.167 940.5,968.5C 945.73,966.863 951.064,966.363 956.5,967C 959.338,971.153 958.672,974.82 954.5,978C 947.052,983.595 938.719,985.928 929.5,985C 927.59,984.592 926.59,983.425 926.5,981.5C 928.278,977.885 930.278,974.385 932.5,971C 927.903,968.103 923.736,964.603 920,960.5C 919.731,957.72 920.898,955.554 923.5,954C 927.284,952.053 931.284,950.72 935.5,950C 938.672,948.303 941.672,946.47 944.5,944.5 Z"/></g>
<g><path style="opacity:1" fill="#060606" d="M 368.5,945.5 C 374.967,946.698 378.467,950.698 379,957.5C 379.63,981.864 379.297,1006.2 378,1030.5C 388.298,1058.1 401.965,1083.77 419,1107.5C 424.055,1112.05 428.555,1117.05 432.5,1122.5C 432.291,1123.09 431.957,1123.59 431.5,1124C 423.185,1125.59 416.352,1123.09 411,1116.5C 397.843,1096.52 386.509,1075.52 377,1053.5C 372.263,1040.22 369.263,1026.55 368,1012.5C 365.92,991.875 365.254,971.208 366,950.5C 366.366,948.548 367.199,946.882 368.5,945.5 Z"/></g>
<g><path style="opacity:1" fill="#050505" d="M 617.5,950.5 C 626.219,950.203 634.886,950.703 643.5,952C 645.405,952.826 645.739,953.993 644.5,955.5C 641.204,956.765 637.871,957.932 634.5,959C 632.993,959.837 632.493,961.004 633,962.5C 639.117,963.276 645.283,963.943 651.5,964.5C 651.657,965.873 651.49,967.207 651,968.5C 647.166,973.497 643.833,978.83 641,984.5C 638.621,982.116 635.787,980.616 632.5,980C 623.5,979.333 614.5,979.333 605.5,980C 603.5,982 601.5,984 599.5,986C 596.833,986.667 594.167,986.667 591.5,986C 585.333,981.167 579.167,976.333 573,971.5C 569.77,965.81 567.77,959.81 567,953.5C 581.425,952.675 595.925,952.175 610.5,952C 613.036,951.814 615.369,951.314 617.5,950.5 Z"/></g>
<g><path style="opacity:1" fill="#121212" d="M 251.5,983.5 C 254.428,984.591 256.594,986.591 258,989.5C 261.939,995.812 264.106,1002.48 264.5,1009.5C 256.445,1002.72 252.111,994.056 251.5,983.5 Z"/></g>
<g><path style="opacity:1" fill="#e8e8e8" d="M 868.5,987.5 C 872.792,987.035 876.792,987.868 880.5,990C 882.036,991.599 882.536,993.433 882,995.5C 877.818,999.865 872.985,1001.03 867.5,999C 863.223,994.601 863.556,990.768 868.5,987.5 Z"/></g>
<g><path style="opacity:1" fill="#090909" d="M 409.5,989.5 C 412.833,989.027 415,990.36 416,993.5C 418.075,1013.91 420.741,1034.25 424,1054.5C 429.195,1066.42 434.195,1078.42 439,1090.5C 444.835,1098.83 450.168,1107.5 455,1116.5C 459.24,1121.32 463.24,1126.32 467,1131.5C 467.711,1133.37 467.211,1134.87 465.5,1136C 463.029,1136.71 460.695,1136.37 458.5,1135C 450.882,1128.71 444.715,1121.21 440,1112.5C 420.785,1075.2 409.952,1035.7 407.5,994C 407.519,992.167 408.185,990.667 409.5,989.5 Z"/></g>
<g><path style="opacity:1" fill="#ebebeb" d="M 867.5,1008.5 C 871.514,1008.33 875.514,1008.5 879.5,1009C 880.894,1009.96 881.561,1011.29 881.5,1013C 879.976,1017.22 878.309,1021.38 876.5,1025.5C 876.988,1028.47 878.488,1030.81 881,1032.5C 880.906,1040.27 876.906,1044.6 869,1045.5C 863.482,1044.48 861.482,1041.15 863,1035.5C 866.376,1032.89 869.876,1030.56 873.5,1028.5C 869.761,1025.87 866.261,1022.87 863,1019.5C 861.85,1017.25 861.516,1014.91 862,1012.5C 864.015,1011.3 865.849,1009.97 867.5,1008.5 Z"/></g>
<g><path style="opacity:1" fill="#353535" d="M 904.5,1017.5 C 905.708,1016.22 907.042,1016.22 908.5,1017.5C 907.192,1018.63 905.858,1018.63 904.5,1017.5 Z"/></g>
<g><path style="opacity:1" fill="#050505" d="M 793.5,1020.5 C 796.243,1020.08 797.576,1021.24 797.5,1024C 796.527,1027.65 794.694,1030.81 792,1033.5C 792.724,1041.47 793.057,1049.47 793,1057.5C 788.361,1063.28 785.694,1069.95 785,1077.5C 783.607,1081.29 781.941,1084.95 780,1088.5C 774.615,1094.88 769.615,1101.55 765,1108.5C 764.044,1109.89 762.711,1110.56 761,1110.5C 757.75,1109.21 754.416,1108.21 751,1107.5C 745.769,1109.75 740.269,1110.92 734.5,1111C 730.835,1112.5 727.502,1114.5 724.5,1117C 719.5,1122.67 714.5,1128.33 709.5,1134C 705.401,1137.61 700.734,1140.11 695.5,1141.5C 695.259,1138.21 696.092,1135.21 698,1132.5C 700.261,1128.44 703.094,1124.94 706.5,1122C 705.846,1120.01 704.513,1118.68 702.5,1118C 694.428,1117.57 686.428,1118.23 678.5,1120C 677.328,1120.42 676.328,1121.09 675.5,1122C 685.3,1122.63 686.634,1125.97 679.5,1132C 665.533,1135.93 651.866,1140.77 638.5,1146.5C 637.833,1146.17 637.167,1145.83 636.5,1145.5C 640.293,1141.92 641.793,1137.59 641,1132.5C 639.667,1130.17 637.667,1129.17 635,1129.5C 632.337,1129.83 629.837,1130.66 627.5,1132C 619.795,1132.86 612.128,1133.86 604.5,1135C 600.802,1137.19 597.468,1139.85 594.5,1143C 590.475,1145.85 586.141,1146.69 581.5,1145.5C 583.77,1143.4 585.437,1140.9 586.5,1138C 585.846,1136.01 584.513,1134.68 582.5,1134C 565.768,1131.85 549.102,1129.19 532.5,1126C 514.292,1121.78 496.292,1116.95 478.5,1111.5C 479.06,1116.62 481.227,1120.95 485,1124.5C 485.781,1125.94 485.614,1127.28 484.5,1128.5C 479.104,1125.71 475.604,1121.38 474,1115.5C 472.333,1113.83 470.667,1112.17 469,1110.5C 459.578,1089.41 453.745,1067.41 451.5,1044.5C 451.667,1041.17 451.833,1037.83 452,1034.5C 452.687,1032.45 453.854,1030.78 455.5,1029.5C 456.799,1030.09 457.632,1031.09 458,1032.5C 456.842,1059.99 469.675,1076.16 496.5,1081C 497.089,1075.73 498.255,1070.56 500,1065.5C 503.883,1061.54 507.549,1061.87 511,1066.5C 510.854,1071.82 510.854,1077.16 511,1082.5C 511.346,1084.85 512.513,1086.68 514.5,1088C 527.398,1090.85 539.398,1095.85 550.5,1103C 555.245,1105.44 560.245,1106.44 565.5,1106C 566.833,1104.67 566.833,1103.33 565.5,1102C 561.245,1102.22 558.578,1100.38 557.5,1096.5C 569.171,1099.56 580.838,1102.72 592.5,1106C 599.554,1107.06 606.554,1108.39 613.5,1110C 614,1110.5 614.5,1111 615,1111.5C 615.333,1115.17 615.667,1118.83 616,1122.5C 618.042,1124.6 620.542,1125.77 623.5,1126C 635.695,1127.02 647.362,1125.02 658.5,1120C 660.919,1118.49 661.919,1116.32 661.5,1113.5C 652.533,1112.75 643.533,1112.25 634.5,1112C 633.939,1110.43 634.606,1109.1 636.5,1108C 639.089,1106.8 641.756,1105.8 644.5,1105C 642.089,1103.42 639.422,1102.42 636.5,1102C 621.755,1100.89 607.088,1099.23 592.5,1097C 588.888,1095.86 585.554,1094.19 582.5,1092C 580.393,1090.74 579.393,1088.9 579.5,1086.5C 605.658,1092.57 631.992,1093.07 658.5,1088C 665.906,1084.98 673.573,1082.98 681.5,1082C 689.291,1079.02 697.125,1076.19 705,1073.5C 707.662,1074.95 707.495,1076.78 704.5,1079C 696.191,1084.99 687.191,1089.65 677.5,1093C 675.549,1094.73 674.549,1096.9 674.5,1099.5C 686.227,1099.22 697.227,1096.38 707.5,1091C 710.266,1087.48 713.266,1084.14 716.5,1081C 721.833,1080.67 727.167,1080.33 732.5,1080C 740.635,1075.93 748.969,1072.43 757.5,1069.5C 757.657,1070.87 757.49,1072.21 757,1073.5C 753.667,1077.5 750.333,1081.5 747,1085.5C 746.066,1090.08 747.9,1091.58 752.5,1090C 758.573,1087.21 764.406,1084.05 770,1080.5C 771.92,1077.66 773.587,1074.66 775,1071.5C 775.972,1064.87 776.639,1058.2 777,1051.5C 783.361,1044.78 787.027,1036.78 788,1027.5C 789.666,1025 791.5,1022.67 793.5,1020.5 Z"/></g>
<g><path style="opacity:1" fill="#ebebeb" d="M 840.5,1034.5 C 848.563,1033.4 851.397,1036.73 849,1044.5C 844.947,1049.46 839.78,1051.13 833.5,1049.5C 832.456,1047.23 832.289,1044.9 833,1042.5C 835.028,1039.31 837.528,1036.64 840.5,1034.5 Z"/></g>
<g><path style="opacity:1" fill="#090909" d="M 810.5,1078.5 C 811.496,1078.41 812.329,1078.75 813,1079.5C 813.667,1082.5 813.667,1085.5 813,1088.5C 808.699,1103.28 801.199,1116.11 790.5,1127C 783.194,1131.36 781.028,1129.53 784,1121.5C 791.913,1110.67 799.58,1099.67 807,1088.5C 809.035,1085.44 810.201,1082.11 810.5,1078.5 Z"/></g>
<g><path style="opacity:1" fill="#e6e6e6" d="M 476.5,1083.5 C 484.647,1086.16 491.814,1090.49 498,1096.5C 498.865,1098.89 498.032,1100.39 495.5,1101C 489.299,1101.38 483.632,1099.71 478.5,1096C 475.716,1093.89 473.716,1091.22 472.5,1088C 473.344,1085.99 474.677,1084.49 476.5,1083.5 Z"/></g>
<g><path style="opacity:1" fill="#e3e3e3" d="M 759.5,1089.5 C 762.271,1089.42 764.937,1089.92 767.5,1091C 768.022,1091.56 768.355,1092.23 768.5,1093C 765.813,1096.68 762.146,1098.85 757.5,1099.5C 757.034,1095.84 757.701,1092.5 759.5,1089.5 Z"/></g>
<g><path style="opacity:1" fill="#e7e7e7" d="M 694.5,1101.5 C 699.126,1100.7 702.96,1102.03 706,1105.5C 706.667,1106.5 706.667,1107.5 706,1108.5C 699.495,1113.26 692.329,1114.59 684.5,1112.5C 683.417,1111.64 683.251,1110.64 684,1109.5C 687.4,1106.59 690.9,1103.92 694.5,1101.5 Z"/></g>
<g><path style="opacity:1" fill="#e2e2e2" d="M 523.5,1106.5 C 529.364,1106.84 534.697,1108.68 539.5,1112C 535.074,1112.79 530.741,1112.46 526.5,1111C 524.561,1110.09 523.561,1108.59 523.5,1106.5 Z"/></g>
<g><path style="opacity:1" fill="#1b1b1b" d="M 754.5,1113.5 C 755.497,1113.47 756.164,1113.97 756.5,1115C 753.43,1120.08 749.597,1124.58 745,1128.5C 747.606,1123.32 750.773,1118.32 754.5,1113.5 Z"/></g>
<g><path style="opacity:1" fill="#0d0d0d" d="M 678.5,1143.5 C 682.534,1143.67 686.534,1144.17 690.5,1145C 686.236,1147.46 681.903,1149.63 677.5,1151.5C 674.972,1151.24 672.639,1150.4 670.5,1149C 673.621,1147.69 676.287,1145.86 678.5,1143.5 Z"/></g>
<g><path style="opacity:1" fill="#1d1d1d" d="M 569.5,1148.5 C 570.5,1148.5 571.5,1148.5 572.5,1148.5C 572.114,1152.74 570.448,1153.4 567.5,1150.5C 568.243,1149.82 568.909,1149.15 569.5,1148.5 Z"/></g>
<g><path style="opacity:1" fill="#191919" d="M 598.5,1148.5 C 608.001,1148.03 617.334,1148.53 626.5,1150C 617.26,1152.8 607.927,1153.13 598.5,1151C 597.402,1150.23 597.402,1149.4 598.5,1148.5 Z"/></g>
</svg>
