<svg id="svg" version="1.1" xmlns="http://www.w3.org/2000/svg" xmlns:xlink="http://www.w3.org/1999/xlink" width="400" height="505.99135268684375" viewBox="0, 0, 400,505.99135268684375"><g id="svgg"><path id="path0" d="M67.078 15.936 C 58.639 17.263,53.105 19.455,47.039 23.873 C 34.540 32.977,27.870 48.275,32.316 57.639 C 34.410 62.050,38.074 62.573,39.855 58.716 C 40.084 58.220,40.454 57.419,40.676 56.938 C 41.359 55.458,43.540 54.901,46.572 55.435 C 46.980 55.506,49.203 55.846,51.513 56.189 C 61.598 57.688,63.349 58.260,66.142 60.963 C 74.076 68.641,73.379 83.445,64.410 97.762 C 53.217 115.630,49.116 128.217,49.089 144.781 C 49.058 164.754,54.811 179.187,73.467 205.930 C 74.794 207.832,77.997 212.446,80.584 216.183 C 90.554 230.583,96.346 238.388,106.250 250.772 C 118.786 266.446,124.377 276.083,127.250 286.967 C 127.357 287.375,127.678 288.487,127.963 289.438 C 128.593 291.543,129.473 295.366,130.465 300.309 C 132.818 312.028,138.136 325.630,148.796 347.188 L 154.506 358.736 153.336 364.976 C 150.256 381.413,145.767 394.065,138.543 406.671 C 128.046 424.989,123.282 427.034,102.656 422.070 C 99.829 421.390,97.111 420.890,95.822 420.814 L 93.682 420.688 91.804 422.465 C 89.402 424.738,87.980 425.401,84.812 425.725 C 73.021 426.930,62.859 439.738,66.918 448.277 C 68.805 452.246,72.285 454.095,74.136 452.113 C 74.855 451.343,74.969 450.951,75.238 448.301 C 75.735 443.405,77.350 442.300,81.161 444.249 L 83.138 445.260 87.461 445.129 C 89.839 445.057,93.453 444.769,95.491 444.489 C 97.529 444.209,99.268 443.979,99.355 443.979 C 99.576 443.977,99.073 447.504,96.961 460.778 C 95.563 469.560,98.321 474.505,104.789 474.816 C 109.855 475.060,113.210 470.812,108.551 470.052 C 106.449 469.710,105.545 467.519,106.376 464.783 C 106.693 463.741,107.770 463.451,112.652 463.095 C 116.953 462.782,121.833 462.174,126.365 461.388 C 128.740 460.976,128.506 460.427,127.948 465.102 C 125.873 482.503,128.101 488.289,137.015 488.642 C 143.112 488.883,144.068 487.249,140.274 483.073 C 136.788 479.234,136.116 477.497,137.588 476.123 L 138.364 475.398 142.375 475.315 C 147.903 475.200,148.322 474.927,152.051 469.010 C 159.064 457.884,170.898 454.312,203.459 453.496 C 217.403 453.147,216.560 453.342,216.946 450.363 C 217.076 449.365,217.238 448.296,217.306 447.986 C 217.941 445.120,222.488 446.566,222.961 449.784 C 223.021 450.191,223.191 451.342,223.339 452.341 C 224.077 457.330,226.938 458.607,231.201 455.851 C 237.370 451.864,238.207 446.232,233.395 441.087 C 229.872 437.321,224.974 435.097,216.553 433.441 C 208.347 431.826,207.443 430.730,210.427 426.014 C 213.422 421.280,214.079 418.551,213.097 414.923 C 211.665 409.631,207.197 406.569,200.142 406.044 C 195.028 405.663,194.441 404.832,195.821 399.925 C 198.778 389.404,200.340 388.675,207.543 394.455 C 215.186 400.589,222.123 400.720,228.042 394.841 C 233.374 389.545,235.397 383.289,235.936 370.430 C 236.427 358.691,237.290 359.420,249.165 381.594 C 268.942 418.523,279.490 434.721,291.642 446.819 C 302.391 457.522,308.739 459.675,318.221 455.837 C 321.983 454.314,322.771 454.151,326.310 454.169 C 334.477 454.209,342.232 448.751,349.282 437.999 C 355.578 428.400,355.316 422.547,347.931 407.788 C 341.093 394.119,341.298 394.051,362.569 402.901 C 368.538 405.384,371.885 406.671,372.377 406.671 C 373.390 406.671,372.111 400.566,370.768 398.998 C 369.930 398.019,369.622 397.253,369.097 394.848 C 368.642 392.763,366.833 390.347,362.756 386.376 C 350.907 374.838,350.893 375.366,363.064 374.930 C 383.121 374.213,383.530 373.224,369.352 359.740 C 366.573 357.097,362.242 352.854,359.728 350.312 C 347.337 337.780,334.049 326.902,328.695 324.905 C 326.967 324.260,326.400 323.774,325.078 321.804 C 323.671 319.706,322.471 318.516,321.188 317.947 C 317.530 316.324,306.775 307.878,298.085 299.803 C 296.590 298.414,291.699 294.025,287.214 290.049 C 280.793 284.355,271.633 276.179,269.647 274.368 C 254.494 260.549,240.800 246.008,239.382 242.232 C 239.169 241.663,232.271 231.110,230.709 228.961 C 228.601 226.062,225.875 222.150,225.077 220.877 C 224.737 220.336,223.077 217.640,221.386 214.887 C 214.367 203.456,212.909 201.209,195.055 174.305 C 190.817 167.918,185.035 159.469,182.207 155.528 C 176.207 147.166,173.193 142.640,170.775 138.357 C 167.281 132.168,165.978 130.030,164.153 127.486 C 159.123 120.477,151.009 104.349,148.026 95.433 C 147.607 94.177,147.096 92.036,146.893 90.674 C 144.349 73.658,120.794 33.628,108.586 25.573 C 97.296 18.124,79.473 13.986,67.078 15.936 M81.161 20.004 C 97.684 24.479,107.813 31.038,116.776 43.067 C 122.329 50.520,129.795 64.503,132.452 72.427 C 133.517 75.603,133.456 76.011,131.726 77.290 C 129.717 78.776,134.267 95.056,137.179 96.801 C 138.343 97.499,138.544 96.970,138.041 94.527 C 137.807 93.391,137.620 92.087,137.625 91.629 L 137.634 90.797 138.245 91.538 C 139.656 93.249,143.023 100.863,144.394 105.443 C 146.653 112.991,146.191 120.213,143.262 123.114 C 141.960 124.404,141.948 124.433,142.307 125.377 C 143.506 128.533,147.013 130.084,149.335 128.486 C 154.552 124.896,159.358 130.279,159.358 139.713 C 159.358 144.729,158.122 145.992,155.246 143.913 C 152.122 141.654,152.081 141.647,152.265 143.429 C 152.653 147.197,153.429 147.582,160.964 147.746 L 166.646 147.869 166.804 153.552 C 167.069 163.129,168.359 166.128,170.731 162.680 C 173.236 159.040,175.742 161.312,175.609 167.101 C 175.483 172.598,177.858 174.770,183.001 173.860 C 189.615 172.689,190.443 176.467,184.827 182.197 C 181.351 185.743,181.061 186.329,182.081 187.761 C 183.526 189.790,188.517 189.177,191.159 186.646 C 192.304 185.549,192.419 185.072,191.855 183.755 C 191.542 183.022,192.593 183.234,193.272 184.041 C 194.120 185.049,194.271 186.425,193.820 189.024 C 193.337 191.807,193.583 193.035,194.747 193.658 C 196.925 194.823,198.238 196.537,199.859 200.330 C 201.166 203.387,202.179 204.753,203.377 205.076 C 205.560 205.664,205.663 209.760,203.526 210.978 C 202.648 211.478,201.090 210.846,199.268 209.252 C 196.971 207.242,195.606 206.768,195.208 207.843 C 194.502 209.753,198.151 212.980,202.685 214.455 C 208.834 216.456,226.736 235.523,231.795 245.460 C 233.765 249.329,234.843 250.892,237.462 253.673 C 242.415 258.935,242.097 263.417,236.794 263.079 C 228.322 262.540,188.017 228.628,188.017 222.039 C 188.017 219.081,192.474 218.693,197.005 221.257 C 200.067 222.990,202.133 223.364,202.297 222.214 C 202.531 220.578,191.819 213.327,187.499 212.198 C 185.411 211.651,184.814 212.485,185.421 215.100 C 186.641 220.360,180.731 220.111,171.958 214.533 C 166.761 211.229,165.064 211.022,166.134 213.823 C 167.365 217.047,172.551 220.955,177.899 222.688 C 183.377 224.464,185.518 226.088,196.171 236.556 C 206.038 246.251,210.640 250.479,218.777 257.320 C 221.359 259.491,224.582 262.260,225.940 263.474 C 230.107 267.200,237.282 269.569,243.390 269.235 C 247.234 269.025,250.487 270.845,256.259 276.433 C 263.599 283.539,264.813 287.499,259.739 287.786 C 248.057 288.446,206.478 259.041,182.088 232.871 C 176.314 226.676,172.788 224.274,166.315 222.126 C 161.259 220.447,157.928 218.469,156.179 216.106 C 154.158 213.377,152.781 212.399,150.198 211.855 C 145.409 210.848,140.769 206.322,141.158 203.037 C 141.451 200.564,139.324 199.699,131.828 199.240 C 127.955 199.003,127.620 199.601,129.943 202.599 C 135.416 209.660,126.054 205.206,117.727 196.788 C 111.565 190.558,109.009 188.500,106.827 188.011 C 105.064 187.616,103.515 186.673,101.239 184.609 C 98.452 182.081,96.993 181.449,95.510 182.124 C 91.656 183.880,80.436 168.018,77.297 156.373 C 76.561 153.645,76.489 148.018,77.157 145.522 C 80.262 133.924,92.187 132.391,106.982 141.688 C 121.180 150.610,139.756 151.574,137.270 143.260 C 135.836 138.465,134.742 138.248,123.286 140.494 C 115.151 142.089,113.400 141.654,108.709 136.873 C 103.608 131.675,99.333 129.948,92.338 130.259 C 88.032 130.450,85.831 131.327,81.310 134.651 C 79.172 136.223,77.778 136.628,74.500 136.628 C 69.601 136.628,69.540 136.772,69.570 148.487 C 69.601 160.757,69.998 162.390,74.018 166.776 C 83.312 176.917,93.295 193.333,94.108 199.812 C 94.584 203.604,96.228 205.331,99.938 205.935 C 102.207 206.305,112.969 219.227,116.038 225.267 C 117.492 228.129,117.092 228.107,112.872 225.096 C 111.516 224.128,111.180 224.242,111.180 225.672 C 111.180 228.320,115.528 231.830,118.843 231.858 C 120.369 231.871,120.549 231.937,122.180 233.091 C 126.335 236.032,136.845 247.411,140.335 252.749 C 143.687 257.875,144.294 258.668,145.646 259.689 C 146.572 260.388,147.573 260.870,148.750 261.186 C 151.740 261.988,153.689 263.536,156.648 267.460 C 158.757 270.256,163.162 274.540,166.399 276.942 C 167.758 277.951,169.693 279.396,170.699 280.154 C 180.705 287.692,194.194 302.080,194.194 305.215 C 194.194 307.259,197.362 311.553,203.972 318.468 C 215.519 330.548,217.960 334.425,215.442 336.686 C 213.839 338.125,214.130 339.120,217.319 343.097 C 222.400 349.436,223.570 353.799,220.189 353.799 C 218.021 353.799,210.779 346.431,205.683 339.039 C 203.145 335.358,201.635 334.287,200.535 335.387 C 199.328 336.594,200.581 338.373,208.890 347.247 C 217.230 356.155,219.516 359.899,218.401 362.830 L 218.149 363.494 217.398 362.457 C 216.271 360.902,213.763 360.133,212.963 361.097 C 212.611 361.521,212.722 361.976,213.809 364.565 C 214.692 366.671,215.175 369.803,215.411 374.956 C 215.790 383.236,216.841 382.348,219.397 371.587 L 220.072 368.746 220.219 370.352 C 220.300 371.235,220.433 373.330,220.514 375.006 C 220.732 379.496,220.914 379.705,222.106 376.838 C 223.437 373.634,223.440 371.305,222.118 367.387 C 220.452 362.451,220.565 360.337,222.469 360.814 C 225.514 361.579,226.239 378.582,223.484 384.600 C 222.912 385.848,219.508 390.364,219.139 390.364 C 219.052 390.364,218.026 389.280,216.860 387.956 C 212.887 383.441,212.094 382.894,212.675 385.064 C 213.248 387.207,213.117 387.724,212.044 387.553 C 209.178 387.095,209.127 387.094,208.787 387.504 C 208.531 387.812,208.515 388.049,208.718 388.495 C 208.984 389.077,209.329 389.373,210.993 390.444 C 212.000 391.092,212.175 391.619,211.581 392.213 C 207.461 396.333,179.845 360.628,173.462 342.928 C 173.045 341.773,171.914 338.604,170.947 335.886 C 169.980 333.169,166.597 323.996,163.429 315.503 C 154.790 292.345,151.934 283.874,151.101 278.938 C 150.378 274.652,148.235 271.384,145.217 269.967 C 144.502 269.630,143.385 269.110,142.736 268.809 C 141.236 268.116,140.366 266.978,140.114 265.383 C 139.650 262.448,137.702 262.742,135.463 266.085 C 133.871 268.461,133.181 268.720,131.069 267.730 C 127.546 266.080,123.633 260.364,123.138 256.146 C 122.608 251.627,126.677 249.510,129.119 253.034 C 129.804 254.023,131.343 254.920,131.716 254.548 C 132.205 254.058,128.984 249.572,127.166 248.210 C 125.620 247.053,125.390 247.098,123.669 248.897 C 120.546 252.161,118.565 251.762,117.341 247.620 C 116.822 245.864,114.681 243.757,112.909 243.258 C 109.786 242.379,109.438 241.661,110.081 237.431 C 110.340 235.732,110.554 233.675,110.557 232.860 L 110.562 231.377 109.450 231.422 C 108.839 231.446,107.666 231.541,106.844 231.633 C 105.349 231.800,103.768 231.074,103.768 230.220 C 103.768 229.032,101.707 227.702,99.938 227.748 C 96.499 227.838,94.320 224.362,97.468 223.806 C 98.453 223.632,99.112 221.753,99.026 219.359 C 98.926 216.546,98.593 216.119,96.678 216.344 C 95.048 216.535,94.267 216.179,93.640 214.956 C 92.669 213.064,91.733 212.667,89.191 213.069 C 86.496 213.495,84.904 210.328,86.799 208.311 C 90.205 204.685,89.239 202.728,82.644 199.889 C 79.238 198.423,76.484 196.778,74.904 195.265 C 72.950 193.395,73.443 193.054,76.808 193.949 C 78.887 194.502,79.739 194.392,80.067 193.529 C 81.739 189.132,75.313 184.578,71.986 187.803 C 70.679 189.070,69.217 187.531,67.932 183.534 C 67.270 181.477,67.463 181.029,69.473 179.945 C 73.580 177.733,72.280 173.214,67.093 171.672 C 63.001 170.455,60.918 168.691,59.582 165.310 C 55.482 154.935,53.886 132.897,57.110 131.172 C 57.508 130.959,57.825 131.150,59.118 132.381 C 61.516 134.664,62.499 134.944,63.742 133.702 C 65.622 131.821,64.759 127.689,62.359 127.087 C 57.183 125.788,60.841 113.300,69.973 101.092 C 74.049 95.642,77.199 93.212,79.797 93.514 C 81.377 93.697,82.026 93.341,82.026 92.292 C 82.026 91.304,81.441 91.051,80.255 91.526 C 77.244 92.730,76.707 88.321,79.174 82.654 C 81.063 78.317,81.172 77.025,79.887 74.239 C 79.140 72.621,78.968 69.868,79.401 66.461 C 79.677 64.283,79.181 63.563,76.349 62.033 C 73.450 60.467,71.529 58.509,70.138 55.705 C 68.393 52.188,67.903 52.026,60.561 52.536 C 55.137 52.913,52.222 52.722,51.143 51.920 C 48.779 50.164,53.216 48.975,60.972 49.287 C 65.790 49.481,66.191 49.378,66.861 47.775 C 68.047 44.936,65.324 41.351,60.959 40.004 C 55.628 38.359,56.590 36.044,62.631 35.979 C 67.559 35.926,73.488 42.410,73.824 48.221 L 73.936 50.154 74.955 50.154 C 76.361 50.154,80.491 49.121,83.014 48.138 C 85.793 47.056,86.941 45.908,88.535 42.619 C 90.367 38.837,91.490 37.871,94.434 37.548 C 97.982 37.159,98.404 35.383,95.244 34.136 C 92.915 33.216,87.916 32.788,74.737 32.378 C 65.015 32.076,63.613 31.795,62.663 29.957 C 62.084 28.837,61.458 28.921,59.444 30.389 C 57.360 31.908,56.662 31.975,55.556 30.760 C 54.361 29.446,54.166 29.502,50.312 32.250 C 47.253 34.431,44.604 31.665,47.103 28.899 C 50.937 24.654,59.984 20.960,70.290 19.428 C 72.383 19.117,79.225 19.479,81.161 20.004 M48.115 36.912 C 48.761 37.244,50.390 38.304,51.735 39.269 C 55.224 41.771,56.849 42.490,59.597 42.748 C 68.960 43.626,56.338 47.054,39.858 48.109 C 35.812 48.368,35.477 45.939,38.897 41.145 C 42.178 36.549,44.937 35.281,48.115 36.912 M83.371 36.297 C 83.448 36.420,82.489 36.945,81.241 37.462 C 77.278 39.105,76.974 39.632,78.684 41.896 C 80.255 43.977,80.145 44.475,78.114 44.469 C 72.936 44.456,72.048 38.196,76.975 36.440 C 78.075 36.049,83.147 35.935,83.371 36.297 M109.962 62.418 C 108.633 64.107,109.820 66.965,111.514 66.157 C 113.363 65.276,113.518 63.269,111.817 62.232 C 110.813 61.620,110.571 61.644,109.962 62.418 M84.247 74.429 C 83.665 75.383,83.625 76.295,84.115 77.467 C 84.747 78.980,86.238 78.943,86.884 77.396 C 87.955 74.835,85.609 72.195,84.247 74.429 M124.114 77.344 C 122.545 77.936,122.953 81.779,124.584 81.779 C 125.263 81.779,126.745 80.224,126.745 79.511 C 126.745 78.268,125.149 76.954,124.114 77.344 M112.600 91.681 C 111.411 92.374,111.048 94.614,112.021 95.251 C 113.075 95.942,115.627 94.263,115.627 92.878 C 115.627 91.728,113.777 90.996,112.600 91.681 M124.361 101.808 C 121.386 103.368,120.917 104.421,122.495 106.000 C 124.930 108.435,128.471 106.541,128.157 102.973 C 127.969 100.837,126.862 100.497,124.361 101.808 M109.041 109.809 C 107.103 110.652,108.635 113.646,111.007 113.649 C 112.436 113.651,114.145 112.219,114.145 111.019 C 114.145 109.692,111.016 108.950,109.041 109.809 M65.842 113.506 C 63.448 115.899,66.686 119.409,69.208 117.155 C 70.920 115.625,69.785 112.909,67.434 112.909 C 66.711 112.909,66.275 113.072,65.842 113.506 M135.941 113.294 C 135.212 113.804,135.246 114.675,136.032 115.608 C 136.904 116.644,138.104 116.659,139.117 115.646 C 140.512 114.252,139.775 112.909,137.616 112.909 C 136.997 112.909,136.243 113.082,135.941 113.294 M126.819 117.841 C 124.112 119.491,125.244 124.768,128.305 124.768 C 130.690 124.768,132.309 119.776,130.509 117.976 C 129.720 117.187,127.994 117.124,126.819 117.841 M132.402 132.206 C 131.171 133.436,133.188 136.380,135.261 136.380 C 136.366 136.380,137.065 134.200,136.373 132.908 C 135.732 131.710,133.323 131.285,132.402 132.206 M61.865 145.154 C 61.363 145.922,61.552 147.115,62.304 147.915 C 63.947 149.664,67.671 148.174,66.295 146.318 C 65.069 144.664,62.610 144.018,61.865 145.154 M142.152 168.129 C 141.584 169.609,144.052 171.834,144.959 170.661 C 145.577 169.862,145.520 169.436,144.683 168.599 C 143.767 167.683,142.419 167.432,142.152 168.129 M108.091 192.063 C 112.478 194.129,118.176 202.960,115.335 203.288 C 114.593 203.374,113.463 202.862,112.168 201.853 C 109.807 200.014,107.968 199.879,107.968 201.544 C 107.968 203.716,111.511 206.323,115.069 206.770 C 118.158 207.158,120.060 208.425,122.475 211.704 C 125.252 215.473,127.647 218.148,135.894 226.693 C 140.380 231.340,140.791 232.489,137.971 232.489 C 135.411 232.489,128.290 226.407,113.260 211.382 C 104.454 202.580,103.951 201.944,102.895 198.288 C 101.546 193.617,104.324 190.288,108.091 192.063 M165.931 199.032 C 164.819 201.930,168.971 206.068,173.609 206.684 C 176.788 207.105,176.987 203.995,173.823 203.338 C 172.317 203.025,170.324 201.824,168.152 199.920 C 166.611 198.570,166.176 198.396,165.931 199.032 M184.647 201.237 C 183.941 203.078,191.138 206.178,192.530 204.632 C 193.659 203.381,193.208 201.584,191.931 202.244 C 190.988 202.732,189.982 202.571,187.808 201.585 C 186.056 200.791,184.868 200.660,184.647 201.237 M153.922 205.264 C 153.922 207.551,159.462 211.241,161.758 210.483 C 163.652 209.858,163.339 208.756,160.847 207.275 C 157.432 205.247,153.922 204.227,153.922 205.264 M139.189 208.632 C 146.109 213.258,156.173 221.900,156.828 223.778 C 157.950 226.998,152.013 225.080,144.452 219.780 C 142.981 218.749,141.436 217.729,141.019 217.513 L 140.262 217.121 140.411 218.073 C 140.493 218.596,140.787 219.852,141.065 220.864 C 142.110 224.666,140.622 224.542,133.827 220.262 C 126.542 215.674,123.510 211.728,125.597 209.550 C 126.488 208.620,127.437 208.361,132.107 207.772 C 134.254 207.502,136.121 207.235,136.257 207.180 C 136.393 207.125,136.573 207.072,136.657 207.061 C 136.741 207.050,137.881 207.757,139.189 208.632 M212.930 212.456 C 215.708 213.873,217.846 218.133,215.893 218.359 C 214.080 218.569,210.253 215.235,210.253 213.446 C 210.253 212.038,211.330 211.640,212.930 212.456 M146.894 228.701 C 150.644 231.762,154.013 234.896,166.770 247.191 C 182.779 262.621,188.025 267.499,195.312 273.733 C 199.662 277.455,200.129 277.836,207.193 283.450 C 220.297 293.865,218.603 294.993,204.941 284.950 C 172.532 261.126,140.629 231.057,144.089 227.597 C 144.618 227.068,145.149 227.277,146.894 228.701 M161.499 229.099 C 164.129 230.848,167.952 234.417,180.482 246.817 C 194.920 261.106,196.137 262.265,200.865 266.217 C 202.971 267.978,207.307 271.643,210.500 274.363 C 227.525 288.863,242.626 299.722,260.037 309.984 C 275.102 318.864,283.962 322.576,287.252 321.386 C 292.024 319.660,320.964 341.855,319.367 346.016 C 318.291 348.821,293.415 337.239,266.955 321.613 C 234.148 302.239,193.038 269.959,165.525 241.967 C 157.474 233.777,155.554 231.135,156.424 229.446 C 157.478 227.399,158.806 227.309,161.499 229.099 M173.223 230.160 C 176.464 232.129,181.203 236.217,190.373 244.955 C 207.847 261.607,219.788 271.562,232.983 280.478 C 247.132 290.037,255.090 293.554,263.620 294.016 C 269.844 294.352,270.505 294.692,275.981 300.359 C 282.103 306.695,285.728 311.074,287.100 313.792 C 293.504 326.478,256.190 306.180,216.143 275.193 C 204.862 266.465,174.402 237.717,169.863 231.515 C 168.086 229.086,170.110 228.269,173.223 230.160 M142.080 238.319 C 147.450 239.898,157.381 247.836,157.381 250.549 C 157.381 253.288,141.642 244.634,139.078 240.487 C 137.701 238.258,138.908 237.386,142.080 238.319 M157.762 255.833 C 163.639 256.560,166.107 257.750,170.229 261.842 C 173.482 265.072,173.493 265.026,169.586 264.605 C 164.186 264.023,160.798 262.349,156.516 258.146 C 154.510 256.176,153.930 255.476,154.300 255.472 C 154.576 255.469,156.134 255.631,157.762 255.833 M177.455 269.853 C 182.236 272.235,184.316 273.712,201.770 287.119 C 205.417 289.920,211.347 294.386,214.947 297.043 C 218.548 299.700,222.996 303.114,224.830 304.631 C 232.321 310.824,243.270 318.407,282.158 344.335 C 302.663 358.006,305.850 359.965,317.303 365.936 C 323.884 369.367,327.733 371.593,329.084 372.749 C 330.371 373.851,331.006 374.050,334.101 374.322 C 336.947 374.572,338.224 374.964,339.222 375.897 C 340.175 376.788,341.722 377.472,344.352 378.163 C 353.120 380.469,367.724 394.538,364.755 397.819 C 360.689 402.311,299.714 370.443,278.567 352.774 C 274.994 349.789,269.056 345.560,254.849 335.884 C 237.671 324.185,216.150 308.920,207.536 302.324 C 191.975 290.409,170.970 271.676,170.970 269.713 C 170.970 267.766,173.369 267.818,177.455 269.853 M140.554 274.100 C 144.226 276.809,149.853 288.582,147.798 289.257 C 146.597 289.652,137.122 276.492,137.122 274.429 C 137.122 273.316,139.218 273.114,140.554 274.100 M222.016 294.781 C 227.630 297.759,240.668 308.148,239.836 308.980 C 239.052 309.764,219.148 295.695,219.148 294.356 C 219.148 293.764,220.468 293.959,222.016 294.781 M143.131 296.953 C 145.040 298.993,153.263 312.245,161.308 326.245 C 168.766 339.224,157.753 325.657,148.377 310.315 C 142.461 300.635,139.486 293.055,143.131 296.953 M292.943 303.848 C 297.331 307.356,301.931 311.235,305.744 314.644 C 310.679 319.055,317.070 323.930,327.116 330.944 C 338.266 338.730,342.681 342.351,342.681 343.710 C 342.681 344.650,344.148 346.232,346.785 348.136 C 351.775 351.738,350.635 352.705,344.776 349.839 C 341.670 348.320,339.298 346.681,338.488 345.495 C 337.727 344.379,336.650 343.798,333.975 343.062 C 324.413 340.430,307.773 328.478,306.209 323.118 C 305.998 322.395,305.565 321.352,305.246 320.801 C 304.699 319.853,304.255 319.416,301.114 316.739 C 299.449 315.319,297.148 312.741,295.160 310.068 C 292.732 306.801,288.181 300.017,288.713 300.455 C 288.976 300.672,290.879 302.199,292.943 303.848 M207.133 308.102 C 209.134 309.043,213.690 313.325,214.667 315.184 C 215.263 316.317,212.646 316.598,210.699 315.610 C 205.632 313.039,202.182 305.775,207.133 308.102 M141.971 314.330 C 143.578 316.058,145.527 319.059,150.435 327.363 C 153.404 332.384,155.279 334.674,156.721 335.037 C 162.997 336.617,179.370 360.984,179.370 368.744 C 179.370 370.789,178.973 370.623,177.791 368.085 C 176.130 364.520,175.464 364.165,171.711 364.849 C 168.332 365.465,166.369 365.444,166.495 364.793 C 167.370 360.277,163.732 353.589,158.526 350.144 C 156.736 348.960,155.901 347.916,155.900 346.860 C 155.899 346.153,154.455 343.964,152.737 342.063 C 148.064 336.894,140.334 319.926,140.334 314.839 C 140.334 313.239,140.817 313.089,141.971 314.330 M196.665 319.140 C 196.665 320.380,199.079 322.748,204.447 326.774 C 209.390 330.481,209.536 330.558,207.387 328.323 C 206.422 327.319,204.271 325.053,202.608 323.286 C 197.824 318.206,196.665 317.397,196.665 319.140 M227.449 325.607 C 232.042 329.014,235.468 334.601,249.657 361.828 C 261.440 384.439,268.354 396.722,273.230 403.706 C 277.210 409.408,282.114 416.748,283.876 419.642 C 287.614 425.780,290.976 430.433,295.478 435.701 C 301.020 442.184,301.706 443.883,298.971 444.345 C 295.320 444.962,282.598 430.283,274.241 415.812 C 272.711 413.162,269.656 407.937,267.451 404.200 C 254.651 382.502,244.348 362.650,244.348 359.684 C 244.348 358.507,242.867 356.126,239.636 352.111 C 237.634 349.623,235.957 346.474,235.074 343.545 C 233.812 339.358,232.217 336.790,228.307 332.646 C 224.584 328.700,223.362 326.436,224.329 325.271 C 224.855 324.637,226.361 324.799,227.449 325.607 M270.060 327.761 C 273.298 328.721,275.069 330.183,274.936 331.782 C 274.825 333.102,273.921 333.103,271.287 331.784 C 266.146 329.211,265.271 326.340,270.060 327.761 M237.059 329.073 C 238.034 329.621,238.954 331.014,238.862 331.801 C 238.649 333.635,234.219 331.398,234.219 329.456 C 234.219 328.336,235.452 328.170,237.059 329.073 M284.980 337.331 C 287.024 338.356,290.587 340.271,292.897 341.586 C 301.860 346.688,309.891 350.473,316.986 352.939 C 329.099 357.151,341.160 366.775,338.641 370.220 C 336.741 372.818,318.480 364.580,307.721 356.271 C 304.213 353.562,302.038 352.147,297.445 349.586 C 288.605 344.657,278.691 337.550,278.691 336.143 C 278.691 334.696,280.353 335.010,284.980 337.331 M255.765 343.084 C 257.202 343.991,259.926 346.413,264.482 350.838 C 274.903 360.957,278.079 363.557,277.528 361.519 C 277.206 360.328,277.296 359.129,277.714 359.046 C 279.190 358.753,300.207 374.019,300.925 375.906 C 301.227 376.700,304.464 380.669,308.588 385.300 C 318.162 396.050,325.628 406.008,331.755 416.199 C 339.349 428.829,341.775 437.554,337.693 437.554 C 336.228 437.554,335.026 439.511,335.023 441.903 C 335.018 445.778,329.834 449.029,325.789 447.694 C 321.722 446.352,309.786 433.889,302.001 422.854 C 300.391 420.573,299.506 419.137,295.662 412.570 C 293.819 409.421,291.644 406.529,290.203 405.312 C 287.294 402.855,285.472 400.503,279.868 391.970 C 266.930 372.274,253.878 349.302,253.243 345.113 C 252.796 342.165,253.461 341.630,255.765 343.084 M246.612 344.595 C 248.476 346.555,250.688 350.326,256.576 361.581 C 263.601 375.008,269.242 385.259,274.318 393.821 C 279.159 401.983,281.972 407.425,281.564 407.833 C 278.840 410.557,243.893 349.459,245.199 344.255 C 245.397 343.467,245.580 343.511,246.612 344.595 M343.804 358.101 C 345.486 358.864,346.881 360.117,346.881 360.866 C 346.881 362.100,344.584 361.452,342.248 359.558 C 339.679 357.475,340.575 356.637,343.804 358.101 M228.753 361.348 C 230.341 363.085,231.132 365.388,230.610 366.749 C 230.251 367.683,229.161 366.665,227.094 363.466 C 224.698 359.760,225.900 358.226,228.753 361.348 M165.745 370.977 C 167.997 372.872,168.026 380.403,165.784 381.185 C 164.812 381.524,164.297 382.640,164.069 384.902 C 163.841 387.162,163.566 387.757,162.589 388.097 C 161.488 388.481,160.623 389.868,156.993 397.069 C 152.800 405.388,150.385 407.971,148.034 406.651 C 146.142 405.589,147.052 402.213,152.324 390.735 C 155.167 384.547,156.314 381.731,157.123 378.949 C 159.002 372.487,163.070 368.726,165.745 370.977 M190.429 383.581 C 197.662 388.647,189.653 410.382,182.026 406.386 C 181.176 405.941,182.116 401.440,185.569 389.416 C 187.054 384.242,188.645 382.332,190.429 383.581 M316.065 385.533 C 319.962 388.940,323.901 393.813,326.035 397.869 C 328.300 402.171,327.910 402.070,323.637 397.243 C 313.443 385.730,309.740 380.003,316.065 385.533 M179.766 387.315 C 180.978 388.796,180.030 394.528,177.220 402.718 C 175.017 409.140,174.695 409.301,169.374 406.640 C 161.926 402.915,161.468 401.967,164.291 396.113 C 166.925 390.650,168.779 388.635,171.174 388.634 C 172.617 388.633,173.116 388.493,175.170 387.517 C 177.899 386.219,178.836 386.178,179.766 387.315 M329.008 391.069 C 339.423 399.361,352.602 421.775,349.290 425.562 L 348.734 426.197 347.993 425.733 C 347.024 425.127,346.035 423.438,343.816 418.597 C 340.723 411.851,337.654 406.727,332.693 400.023 C 327.973 393.644,326.324 391.067,326.552 390.426 C 326.761 389.843,327.814 390.119,329.008 391.069 M163.422 407.429 C 168.659 409.388,170.321 413.509,167.152 416.678 C 164.168 419.662,161.661 418.916,157.474 413.798 C 155.783 411.731,155.621 411.890,156.375 414.870 C 157.146 417.921,156.747 418.777,154.551 418.777 C 152.417 418.777,152.037 417.712,152.929 414.227 C 154.461 408.234,158.530 405.598,163.422 407.429 M183.152 409.399 C 191.346 413.670,188.733 420.383,178.876 420.383 C 171.577 420.383,170.848 417.908,176.416 412.025 C 179.634 408.624,180.796 408.171,183.152 409.399 M147.184 410.774 C 148.186 411.408,148.598 412.553,148.604 414.723 C 148.614 418.142,148.091 418.568,143.691 418.726 C 138.956 418.896,138.157 418.438,139.203 416.154 C 141.409 411.337,144.636 409.161,147.184 410.774 M203.991 410.992 C 206.842 411.839,208.096 413.477,208.417 416.771 C 208.644 419.109,208.458 419.060,206.137 416.166 C 203.760 413.201,203.696 413.208,203.499 416.433 C 203.260 420.333,202.996 420.576,199.714 419.906 C 195.516 419.049,193.453 418.190,193.453 417.298 C 193.453 412.804,198.972 409.502,203.991 410.992 M286.992 414.288 C 290.785 417.039,301.013 432.119,299.086 432.119 C 298.562 432.119,294.587 428.255,291.461 424.707 C 285.598 418.050,283.543 414.500,285.176 413.843 C 285.965 413.526,285.931 413.518,286.992 414.288 M194.352 421.459 C 196.656 423.128,197.014 425.899,194.854 425.357 C 193.070 424.909,190.998 421.808,191.888 420.918 C 192.265 420.541,193.442 420.800,194.352 421.459 M139.541 421.635 C 140.923 422.603,141.729 425.858,141.489 429.509 C 141.115 435.216,139.180 436.642,134.775 434.458 C 132.283 433.222,129.942 433.140,126.498 434.169 C 119.885 436.144,114.188 437.005,104.138 437.547 C 95.107 438.035,92.710 438.639,89.236 441.302 C 86.355 443.510,85.849 442.669,86.659 437.017 C 87.536 430.899,87.773 430.704,92.816 431.983 C 106.215 435.381,115.906 433.687,128.080 425.820 C 134.735 421.519,137.785 420.405,139.541 421.635 M179.074 422.285 C 179.565 422.777,179.416 424.292,178.451 428.617 C 177.332 433.638,177.121 438.545,177.983 439.499 C 180.909 442.735,198.376 442.055,203.877 438.490 C 209.528 434.827,211.184 435.174,211.516 440.087 C 211.713 443.005,211.956 444.382,212.589 446.171 C 214.150 450.586,210.555 450.857,206.481 446.631 C 204.765 444.852,204.344 444.846,202.048 446.571 C 199.348 448.601,197.860 448.761,191.970 447.653 C 187.443 446.802,176.119 446.791,172.260 447.635 C 167.334 448.712,165.250 449.830,164.017 452.059 C 162.753 454.345,158.799 458.089,155.034 460.566 C 148.943 464.573,146.944 466.725,146.004 470.280 C 145.330 472.832,145.453 472.825,143.819 470.422 C 141.560 467.102,139.088 464.978,137.481 464.978 C 136.474 464.978,135.153 464.516,135.116 464.151 C 134.963 462.669,136.516 461.614,140.406 460.556 C 147.681 458.578,155.126 451.572,156.272 445.624 C 156.966 442.020,157.897 440.321,160.034 438.754 C 162.724 436.781,163.860 435.699,166.222 432.862 C 172.605 425.193,177.748 420.960,179.074 422.285 M100.342 426.430 C 101.627 426.698,104.063 427.038,105.755 427.186 C 110.078 427.563,111.711 428.234,111.027 429.354 C 109.358 432.088,95.862 430.023,95.862 427.033 C 95.862 425.876,96.975 425.726,100.342 426.430 M192.035 429.747 C 197.847 432.355,199.629 433.693,199.629 435.451 C 199.629 439.440,184.510 439.664,182.606 435.703 C 181.730 433.881,186.037 427.065,187.621 427.767 C 187.771 427.834,189.757 428.724,192.035 429.747 M160.078 433.200 C 159.241 433.959,154.323 438.033,153.251 438.856 C 149.785 441.516,148.734 441.387,148.734 438.299 C 148.734 436.118,148.144 435.735,146.865 437.085 C 144.635 439.439,141.558 439.972,142.676 437.810 C 144.155 434.950,149.397 433.156,156.372 433.124 C 158.467 433.115,160.135 433.149,160.078 433.200 M81.285 434.885 C 81.285 435.909,76.564 439.769,74.215 440.666 C 72.151 441.455,71.069 439.904,72.390 438.049 C 74.084 435.669,81.285 433.108,81.285 434.885 M222.854 438.304 C 227.231 439.570,230.925 443.297,230.714 446.234 C 230.606 447.724,230.210 447.693,228.166 446.038 C 225.574 443.940,222.556 442.742,219.863 442.742 C 215.413 442.742,213.455 438.612,217.576 437.921 C 218.101 437.833,218.641 437.726,218.777 437.684 C 219.250 437.537,221.258 437.843,222.854 438.304 M306.806 438.023 C 307.865 438.563,310.067 440.805,310.655 441.942 C 312.140 444.813,308.572 443.415,306.204 440.198 C 304.539 437.937,304.799 436.999,306.806 438.023 M112.603 442.063 C 112.971 442.519,112.569 443.342,111.630 444.056 C 108.798 446.210,105.483 446.689,107.155 444.703 C 108.641 442.936,111.997 441.310,112.603 442.063 M134.157 442.251 C 138.981 442.611,144.456 443.746,144.910 444.481 C 146.879 447.668,127.204 449.120,122.747 446.117 C 119.874 444.181,121.558 442.770,127.363 442.250 C 130.335 441.983,130.560 441.983,134.157 442.251 M117.123 446.451 C 117.727 446.860,118.597 447.471,119.057 447.807 C 122.723 450.494,139.707 450.345,152.440 447.516 C 152.905 447.412,152.418 448.028,150.463 450.011 C 146.049 454.491,145.111 454.805,134.157 455.471 C 124.283 456.071,121.686 456.420,119.270 457.470 C 117.524 458.230,117.675 458.330,115.955 455.272 C 112.118 448.447,112.773 443.505,117.123 446.451 M110.824 453.725 C 111.683 455.035,109.626 457.108,105.411 459.182 C 101.322 461.194,100.195 460.987,101.764 458.513 C 104.355 454.429,109.503 451.708,110.824 453.725 M136.150 468.693 C 136.460 468.859,136.628 469.210,136.628 469.694 C 136.628 472.063,132.583 475.301,131.695 473.642 C 130.410 471.241,133.824 467.448,136.150 468.693 " stroke="none" fill="#050505" fill-rule="evenodd"></path><path id="path1" d="M70.290 19.428 C 59.984 20.960,50.937 24.654,47.103 28.899 C 44.604 31.665,47.253 34.431,50.312 32.250 C 54.166 29.502,54.361 29.446,55.556 30.760 C 56.662 31.975,57.360 31.908,59.444 30.389 C 61.458 28.921,62.084 28.837,62.663 29.957 C 63.613 31.795,65.015 32.076,74.737 32.378 C 87.916 32.788,92.915 33.216,95.244 34.136 C 98.404 35.383,97.982 37.159,94.434 37.548 C 91.490 37.871,90.367 38.837,88.535 42.619 C 86.941 45.908,85.793 47.056,83.014 48.138 C 80.491 49.121,76.361 50.154,74.955 50.154 L 73.936 50.154 73.824 48.221 C 73.488 42.410,67.559 35.926,62.631 35.979 C 56.590 36.044,55.628 38.359,60.959 40.004 C 65.324 41.351,68.047 44.936,66.861 47.775 C 66.191 49.378,65.790 49.481,60.972 49.287 C 53.216 48.975,48.779 50.164,51.143 51.920 C 52.222 52.722,55.137 52.913,60.561 52.536 C 67.903 52.026,68.393 52.188,70.138 55.705 C 71.529 58.509,73.450 60.467,76.349 62.033 C 79.181 63.563,79.677 64.283,79.401 66.461 C 78.968 69.868,79.140 72.621,79.887 74.239 C 81.172 77.025,81.063 78.317,79.174 82.654 C 76.707 88.321,77.244 92.730,80.255 91.526 C 81.441 91.051,82.026 91.304,82.026 92.292 C 82.026 93.341,81.377 93.697,79.797 93.514 C 77.199 93.212,74.049 95.642,69.973 101.092 C 60.841 113.300,57.183 125.788,62.359 127.087 C 64.759 127.689,65.622 131.821,63.742 133.702 C 62.499 134.944,61.516 134.664,59.118 132.381 C 57.825 131.150,57.508 130.959,57.110 131.172 C 53.886 132.897,55.482 154.935,59.582 165.310 C 60.918 168.691,63.001 170.455,67.093 171.672 C 72.280 173.214,73.580 177.733,69.473 179.945 C 67.463 181.029,67.270 181.477,67.932 183.534 C 69.217 187.531,70.679 189.070,71.986 187.803 C 75.313 184.578,81.739 189.132,80.067 193.529 C 79.739 194.392,78.887 194.502,76.808 193.949 C 73.443 193.054,72.950 193.395,74.904 195.265 C 76.484 196.778,79.238 198.423,82.644 199.889 C 89.239 202.728,90.205 204.685,86.799 208.311 C 84.904 210.328,86.496 213.495,89.191 213.069 C 91.733 212.667,92.669 213.064,93.640 214.956 C 94.267 216.179,95.048 216.535,96.678 216.344 C 98.593 216.119,98.926 216.546,99.026 219.359 C 99.112 221.753,98.453 223.632,97.468 223.806 C 94.320 224.362,96.499 227.838,99.938 227.748 C 101.707 227.702,103.768 229.032,103.768 230.220 C 103.768 231.074,105.349 231.800,106.844 231.633 C 107.666 231.541,108.839 231.446,109.450 231.422 L 110.562 231.377 110.557 232.860 C 110.554 233.675,110.340 235.732,110.081 237.431 C 109.438 241.661,109.786 242.379,112.909 243.258 C 114.681 243.757,116.822 245.864,117.341 247.620 C 118.565 251.762,120.546 252.161,123.669 248.897 C 125.390 247.098,125.620 247.053,127.166 248.210 C 128.984 249.572,132.205 254.058,131.716 254.548 C 131.343 254.920,129.804 254.023,129.119 253.034 C 126.677 249.510,122.608 251.627,123.138 256.146 C 123.633 260.364,127.546 266.080,131.069 267.730 C 133.181 268.720,133.871 268.461,135.463 266.085 C 137.702 262.742,139.650 262.448,140.114 265.383 C 140.366 266.978,141.236 268.116,142.736 268.809 C 143.385 269.110,144.502 269.630,145.217 269.967 C 148.235 271.384,150.378 274.652,151.101 278.938 C 151.934 283.874,154.790 292.345,163.429 315.503 C 166.597 323.996,169.980 333.169,170.947 335.886 C 171.914 338.604,173.045 341.773,173.462 342.928 C 179.845 360.628,207.461 396.333,211.581 392.213 C 212.175 391.619,212.000 391.092,210.993 390.444 C 209.329 389.373,208.984 389.077,208.718 388.495 C 208.515 388.049,208.531 387.812,208.787 387.504 C 209.127 387.094,209.178 387.095,212.044 387.553 C 213.117 387.724,213.248 387.207,212.675 385.064 C 212.094 382.894,212.887 383.441,216.860 387.956 C 218.026 389.280,219.052 390.364,219.139 390.364 C 219.508 390.364,222.912 385.848,223.484 384.600 C 226.239 378.582,225.514 361.579,222.469 360.814 C 220.565 360.337,220.452 362.451,222.118 367.387 C 223.440 371.305,223.437 373.634,222.106 376.838 C 220.914 379.705,220.732 379.496,220.514 375.006 C 220.433 373.330,220.300 371.235,220.219 370.352 L 220.072 368.746 219.397 371.587 C 216.841 382.348,215.790 383.236,215.411 374.956 C 215.175 369.803,214.692 366.671,213.809 364.565 C 212.722 361.976,212.611 361.521,212.963 361.097 C 213.763 360.133,216.271 360.902,217.398 362.457 L 218.149 363.494 218.401 362.830 C 219.516 359.899,217.230 356.155,208.890 347.247 C 200.581 338.373,199.328 336.594,200.535 335.387 C 201.635 334.287,203.145 335.358,205.683 339.039 C 210.779 346.431,218.021 353.799,220.189 353.799 C 223.570 353.799,222.400 349.436,217.319 343.097 C 214.130 339.120,213.839 338.125,215.442 336.686 C 217.960 334.425,215.519 330.548,203.972 318.468 C 197.362 311.553,194.194 307.259,194.194 305.215 C 194.194 302.080,180.705 287.692,170.699 280.154 C 169.693 279.396,167.758 277.951,166.399 276.942 C 163.162 274.540,158.757 270.256,156.648 267.460 C 153.689 263.536,151.740 261.988,148.750 261.186 C 147.573 260.870,146.572 260.388,145.646 259.689 C 144.294 258.668,143.687 257.875,140.335 252.749 C 136.845 247.411,126.335 236.032,122.180 233.091 C 120.549 231.937,120.369 231.871,118.843 231.858 C 115.528 231.830,111.180 228.320,111.180 225.672 C 111.180 224.242,111.516 224.128,112.872 225.096 C 117.092 228.107,117.492 228.129,116.038 225.267 C 112.969 219.227,102.207 206.305,99.938 205.935 C 96.228 205.331,94.584 203.604,94.108 199.812 C 93.295 193.333,83.312 176.917,74.018 166.776 C 69.998 162.390,69.601 160.757,69.570 148.487 C 69.540 136.772,69.601 136.628,74.500 136.628 C 77.778 136.628,79.172 136.223,81.310 134.651 C 85.831 131.327,88.032 130.450,92.338 130.259 C 99.333 129.948,103.608 131.675,108.709 136.873 C 113.400 141.654,115.151 142.089,123.286 140.494 C 134.742 138.248,135.836 138.465,137.270 143.260 C 139.756 151.574,121.180 150.610,106.982 141.688 C 79.126 124.184,65.642 148.197,87.566 176.266 C 90.849 180.469,94.016 182.805,95.510 182.124 C 96.993 181.449,98.452 182.081,101.239 184.609 C 103.515 186.673,105.064 187.616,106.827 188.011 C 109.009 188.500,111.565 190.558,117.727 196.788 C 126.054 205.206,135.416 209.660,129.943 202.599 C 127.620 199.601,127.955 199.003,131.828 199.240 C 139.324 199.699,141.451 200.564,141.158 203.037 C 140.769 206.322,145.409 210.848,150.198 211.855 C 152.781 212.399,154.158 213.377,156.179 216.106 C 157.928 218.469,161.259 220.447,166.315 222.126 C 172.788 224.274,176.314 226.676,182.088 232.871 C 206.478 259.041,248.057 288.446,259.739 287.786 C 264.813 287.499,263.599 283.539,256.259 276.433 C 250.487 270.845,247.234 269.025,243.390 269.235 C 237.282 269.569,230.107 267.200,225.940 263.474 C 224.582 262.260,221.359 259.491,218.777 257.320 C 210.640 250.479,206.038 246.251,196.171 236.556 C 185.518 226.088,183.377 224.464,177.899 222.688 C 172.551 220.955,167.365 217.047,166.134 213.823 C 165.064 211.022,166.761 211.229,171.958 214.533 C 180.731 220.111,186.641 220.360,185.421 215.100 C 184.814 212.485,185.411 211.651,187.499 212.198 C 191.819 213.327,202.531 220.578,202.297 222.214 C 202.133 223.364,200.067 222.990,197.005 221.257 C 192.474 218.693,188.017 219.081,188.017 222.039 C 188.017 228.628,228.322 262.540,236.794 263.079 C 242.097 263.417,242.415 258.935,237.462 253.673 C 234.843 250.892,233.765 249.329,231.795 245.460 C 226.736 235.523,208.834 216.456,202.685 214.455 C 198.151 212.980,194.502 209.753,195.208 207.843 C 195.606 206.768,196.971 207.242,199.268 209.252 C 201.090 210.846,202.648 211.478,203.526 210.978 C 205.663 209.760,205.560 205.664,203.377 205.076 C 202.179 204.753,201.166 203.387,199.859 200.330 C 198.238 196.537,196.925 194.823,194.747 193.658 C 193.583 193.035,193.337 191.807,193.820 189.024 C 194.271 186.425,194.120 185.049,193.272 184.041 C 192.593 183.234,191.542 183.022,191.855 183.755 C 193.414 187.400,184.442 191.077,182.081 187.761 C 181.061 186.329,181.351 185.743,184.827 182.197 C 190.443 176.467,189.615 172.689,183.001 173.860 C 177.858 174.770,175.483 172.598,175.609 167.101 C 175.742 161.312,173.236 159.040,170.731 162.680 C 168.359 166.128,167.069 163.129,166.804 153.552 L 166.646 147.869 160.964 147.746 C 153.429 147.582,152.653 147.197,152.265 143.429 C 152.081 141.647,152.122 141.654,155.246 143.913 C 158.122 145.992,159.358 144.729,159.358 139.713 C 159.358 130.279,154.552 124.896,149.335 128.486 C 147.013 130.084,143.506 128.533,142.307 125.377 C 141.948 124.433,141.960 124.404,143.262 123.114 C 146.191 120.213,146.653 112.991,144.394 105.443 C 143.023 100.863,139.656 93.249,138.245 91.538 L 137.634 90.797 137.625 91.629 C 137.620 92.087,137.807 93.391,138.041 94.527 C 138.544 96.970,138.343 97.499,137.179 96.801 C 134.267 95.056,129.717 78.776,131.726 77.290 C 133.456 76.011,133.517 75.603,132.452 72.427 C 129.795 64.503,122.329 50.520,116.776 43.067 C 107.813 31.038,97.684 24.479,81.161 20.004 C 79.225 19.479,72.383 19.117,70.290 19.428 M44.042 36.335 C 43.013 36.648,40.288 39.197,38.897 41.145 C 35.477 45.939,35.812 48.368,39.858 48.109 C 47.282 47.634,57.877 46.139,60.332 45.220 C 63.409 44.069,63.114 43.077,59.597 42.748 C 56.849 42.490,55.224 41.771,51.735 39.269 C 47.765 36.422,45.985 35.743,44.042 36.335 M76.975 36.440 C 72.048 38.196,72.936 44.456,78.114 44.469 C 80.145 44.475,80.255 43.977,78.684 41.896 C 76.974 39.632,77.278 39.105,81.241 37.462 C 82.489 36.945,83.448 36.420,83.371 36.297 C 83.147 35.935,78.075 36.049,76.975 36.440 M111.817 62.232 C 113.518 63.269,113.363 65.276,111.514 66.157 C 109.820 66.965,108.633 64.107,109.962 62.418 C 110.571 61.644,110.813 61.620,111.817 62.232 M71.469 74.120 C 71.469 74.731,71.518 74.981,71.576 74.676 C 71.635 74.370,71.635 73.870,71.576 73.564 C 71.518 73.258,71.469 73.508,71.469 74.120 M86.602 74.217 C 87.893 76.187,86.670 79.170,84.857 78.474 C 84.381 78.291,83.755 76.837,83.756 75.919 C 83.759 74.020,85.709 72.854,86.602 74.217 M71.481 76.838 C 71.481 77.721,71.526 78.082,71.581 77.641 C 71.636 77.199,71.636 76.476,71.581 76.035 C 71.526 75.593,71.481 75.954,71.481 76.838 M126.359 78.374 C 127.500 80.001,125.004 82.774,123.698 81.330 C 122.760 80.294,123.025 77.755,124.114 77.344 C 124.755 77.103,125.807 77.585,126.359 78.374 M115.133 91.909 C 115.802 92.578,115.754 93.202,114.959 94.147 C 112.953 96.531,110.412 95.328,111.797 92.650 C 112.471 91.348,114.190 90.966,115.133 91.909 M127.740 101.429 C 128.842 102.757,127.910 105.974,126.178 106.820 C 123.625 108.067,120.317 105.040,122.236 103.213 C 123.975 101.557,127.026 100.568,127.740 101.429 M113.342 109.942 C 115.056 110.987,113.377 113.653,111.007 113.649 C 109.507 113.647,107.733 111.816,108.102 110.651 C 108.475 109.476,111.832 109.021,113.342 109.942 M69.208 113.605 C 69.857 114.185,69.987 114.481,69.987 115.380 C 69.987 118.264,65.786 118.811,65.085 116.019 C 64.467 113.557,67.299 111.899,69.208 113.605 M139.290 113.294 C 140.058 113.831,139.988 114.775,139.117 115.646 C 138.104 116.659,136.904 116.644,136.032 115.608 C 134.786 114.127,135.500 112.909,137.616 112.909 C 138.235 112.909,138.988 113.082,139.290 113.294 M130.509 117.976 C 132.309 119.776,130.690 124.768,128.305 124.768 C 126.074 124.768,124.472 121.331,125.645 119.063 C 126.523 117.366,129.282 116.749,130.509 117.976 M135.397 132.059 C 136.712 132.739,137.126 134.894,136.133 135.886 C 134.946 137.074,132.457 135.604,132.029 133.462 C 131.728 131.959,133.653 131.157,135.397 132.059 M64.832 145.094 C 66.977 146.320,67.214 147.871,65.349 148.487 C 63.581 149.070,61.950 148.230,61.616 146.563 C 61.248 144.719,62.876 143.975,64.832 145.094 M144.683 168.599 C 145.520 169.436,145.577 169.862,144.959 170.661 C 144.052 171.834,141.584 169.609,142.152 168.129 C 142.419 167.432,143.767 167.683,144.683 168.599 M104.506 192.032 C 101.992 193.743,101.889 196.958,104.202 201.482 C 104.982 203.007,106.056 204.181,113.260 211.382 C 128.290 226.407,135.411 232.489,137.971 232.489 C 140.791 232.489,140.380 231.340,135.894 226.693 C 127.647 218.148,125.252 215.473,122.475 211.704 C 120.060 208.425,118.158 207.158,115.069 206.770 C 111.511 206.323,107.968 203.716,107.968 201.544 C 107.968 199.879,109.807 200.014,112.168 201.853 C 116.895 205.535,117.455 201.823,112.995 196.372 C 109.558 192.171,106.557 190.636,104.506 192.032 M168.152 199.920 C 170.324 201.824,172.317 203.025,173.823 203.338 C 176.987 203.995,176.788 207.105,173.609 206.684 C 169.663 206.160,165.806 202.965,165.787 200.206 C 165.773 198.277,166.216 198.223,168.152 199.920 M187.808 201.585 C 189.982 202.571,190.988 202.732,191.931 202.244 C 193.208 201.584,193.659 203.381,192.530 204.632 C 191.138 206.178,183.941 203.078,184.647 201.237 C 184.868 200.660,186.056 200.791,187.808 201.585 M157.330 205.546 C 162.435 207.560,164.304 209.643,161.758 210.483 C 159.462 211.241,153.922 207.551,153.922 205.264 C 153.922 204.597,155.192 204.702,157.330 205.546 M136.257 207.180 C 136.121 207.235,134.254 207.502,132.107 207.772 C 127.437 208.361,126.488 208.620,125.597 209.550 C 123.510 211.728,126.542 215.674,133.827 220.262 C 140.622 224.542,142.110 224.666,141.065 220.864 C 140.787 219.852,140.493 218.596,140.411 218.073 L 140.262 217.121 141.019 217.513 C 141.436 217.729,142.981 218.749,144.452 219.780 C 156.989 228.568,161.701 226.737,150.587 217.396 C 145.522 213.140,137.231 206.988,136.657 207.061 C 136.573 207.072,136.393 207.125,136.257 207.180 M210.641 212.371 C 209.462 213.551,211.348 216.454,214.258 217.939 C 217.164 219.421,217.556 216.941,214.876 214.034 C 213.226 212.244,211.461 211.551,210.641 212.371 M144.089 227.597 C 140.629 231.057,172.532 261.126,204.941 284.950 C 218.603 294.993,220.297 293.865,207.193 283.450 C 200.129 277.836,199.662 277.455,195.312 273.733 C 188.025 267.499,182.779 262.621,166.770 247.191 C 147.950 229.052,145.098 226.588,144.089 227.597 M157.227 228.327 C 155.097 230.677,156.184 232.464,165.525 241.967 C 193.038 269.959,234.148 302.239,266.955 321.613 C 293.415 337.239,318.291 348.821,319.367 346.016 C 320.964 341.855,292.024 319.660,287.252 321.386 C 283.962 322.576,275.102 318.864,260.037 309.984 C 242.626 299.722,227.525 288.863,210.500 274.363 C 207.307 271.643,202.971 267.978,200.865 266.217 C 196.137 262.265,194.920 261.106,180.482 246.817 C 162.044 228.570,159.116 226.242,157.227 228.327 M169.549 229.307 C 168.667 230.211,169.146 230.934,174.248 236.386 C 184.213 247.035,206.845 267.999,216.143 275.193 C 256.190 306.180,293.504 326.478,287.100 313.792 C 285.728 311.074,282.103 306.695,275.981 300.359 C 270.505 294.692,269.844 294.352,263.620 294.016 C 248.120 293.177,224.075 277.072,190.373 244.955 C 176.770 231.993,171.091 227.725,169.549 229.307 M138.882 238.147 C 136.407 239.715,145.128 246.838,153.716 250.264 C 157.366 251.719,158.209 251.181,156.286 248.623 C 151.843 242.712,141.502 236.488,138.882 238.147 M156.516 258.146 C 160.798 262.349,164.186 264.023,169.586 264.605 C 173.493 265.026,173.482 265.072,170.229 261.842 C 165.810 257.455,160.671 255.400,154.300 255.472 C 153.930 255.476,154.510 256.176,156.516 258.146 M171.384 268.676 C 170.489 269.571,170.830 270.192,173.996 273.427 C 189.240 289.002,213.291 307.581,254.849 335.884 C 269.056 345.560,274.994 349.789,278.567 352.774 C 299.714 370.443,360.689 402.311,364.755 397.819 C 367.724 394.538,353.120 380.469,344.352 378.163 C 341.722 377.472,340.175 376.788,339.222 375.897 C 338.224 374.964,336.947 374.572,334.101 374.322 C 331.006 374.050,330.371 373.851,329.084 372.749 C 327.733 371.593,323.884 369.367,317.303 365.936 C 305.850 359.965,302.663 358.006,282.158 344.335 C 243.270 318.407,232.321 310.824,224.830 304.631 C 222.996 303.114,218.548 299.700,214.947 297.043 C 211.347 294.386,205.417 289.920,201.770 287.119 C 188.572 276.981,186.115 275.141,183.200 273.206 C 177.201 269.225,172.599 267.461,171.384 268.676 M137.431 273.666 C 136.460 274.058,137.278 275.750,141.412 281.899 C 147.762 291.343,150.586 291.419,146.117 282.026 C 143.053 275.585,139.987 272.634,137.431 273.666 M219.148 294.356 C 219.148 295.695,239.052 309.764,239.836 308.980 C 240.668 308.148,227.630 297.759,222.016 294.781 C 220.468 293.959,219.148 293.764,219.148 294.356 M141.569 296.350 C 141.569 300.409,162.141 333.062,163.710 331.493 C 164.156 331.047,162.661 328.347,153.420 312.909 C 144.678 298.307,141.569 293.962,141.569 296.350 M290.917 304.015 C 295.665 311.013,298.396 314.422,301.114 316.739 C 304.255 319.416,304.699 319.853,305.246 320.801 C 305.565 321.352,305.998 322.395,306.209 323.118 C 307.773 328.478,324.413 340.430,333.975 343.062 C 336.650 343.798,337.727 344.379,338.488 345.495 C 339.298 346.681,341.670 348.320,344.776 349.839 C 350.635 352.705,351.775 351.738,346.785 348.136 C 344.148 346.232,342.681 344.650,342.681 343.710 C 342.681 342.351,338.266 338.730,327.116 330.944 C 317.070 323.930,310.679 319.055,305.744 314.644 C 301.931 311.235,297.331 307.356,292.943 303.848 C 290.879 302.199,288.976 300.672,288.713 300.455 C 288.451 300.239,289.443 301.841,290.917 304.015 M204.816 307.971 C 203.381 309.699,209.203 315.750,212.698 316.164 C 215.353 316.479,215.391 315.786,212.873 312.927 C 209.464 309.058,205.789 306.797,204.816 307.971 M140.334 314.839 C 140.334 319.926,148.064 336.894,152.737 342.063 C 154.455 343.964,155.899 346.153,155.900 346.860 C 155.901 347.916,156.736 348.960,158.526 350.144 C 163.732 353.589,167.370 360.277,166.495 364.793 C 166.369 365.444,168.332 365.465,171.711 364.849 C 175.464 364.165,176.130 364.520,177.791 368.085 C 178.973 370.623,179.370 370.789,179.370 368.744 C 179.370 360.984,162.997 336.617,156.721 335.037 C 155.279 334.674,153.404 332.384,150.435 327.363 C 142.672 314.229,140.334 311.330,140.334 314.839 M198.468 319.148 C 199.081 319.657,200.944 321.519,202.608 323.286 C 204.271 325.053,206.422 327.319,207.387 328.323 C 209.536 330.558,209.390 330.481,204.447 326.774 C 199.079 322.748,196.665 320.380,196.665 319.140 C 196.665 317.956,197.034 317.957,198.468 319.148 M224.329 325.271 C 223.362 326.436,224.584 328.700,228.307 332.646 C 232.217 336.790,233.812 339.358,235.074 343.545 C 235.957 346.474,237.634 349.623,239.636 352.111 C 242.867 356.126,244.348 358.507,244.348 359.684 C 244.348 362.650,254.651 382.502,267.451 404.200 C 269.656 407.937,272.711 413.162,274.241 415.812 C 282.598 430.283,295.320 444.962,298.971 444.345 C 301.706 443.883,301.020 442.184,295.478 435.701 C 290.976 430.433,287.614 425.780,283.876 419.642 C 282.114 416.748,277.210 409.408,273.230 403.706 C 268.354 396.722,261.440 384.439,249.657 361.828 C 235.468 334.601,232.042 329.014,227.449 325.607 C 226.361 324.799,224.855 324.637,224.329 325.271 M266.823 327.743 C 266.028 328.701,272.194 332.936,274.110 332.748 C 275.186 332.643,275.311 331.248,274.348 330.102 C 272.803 328.267,267.713 326.671,266.823 327.743 M234.651 328.624 C 233.606 329.217,234.624 331.129,236.492 332.082 C 237.797 332.748,238.765 332.633,238.862 331.801 C 239.055 330.149,236.010 327.852,234.651 328.624 M278.876 335.410 C 277.590 336.716,286.328 343.387,297.445 349.586 C 302.038 352.147,304.213 353.562,307.721 356.271 C 318.480 364.580,336.741 372.818,338.641 370.220 C 341.160 366.775,329.099 357.151,316.986 352.939 C 309.891 350.473,301.860 346.688,292.897 341.586 C 284.385 336.741,279.628 334.645,278.876 335.410 M253.595 342.377 C 251.287 343.942,257.701 356.688,273.702 382.335 C 282.744 396.829,286.729 402.377,290.203 405.312 C 291.644 406.529,293.819 409.421,295.662 412.570 C 299.506 419.137,300.391 420.573,302.001 422.854 C 308.201 431.641,318.250 442.721,323.122 446.140 C 328.184 449.692,335.016 447.260,335.023 441.903 C 335.026 439.511,336.228 437.554,337.693 437.554 C 341.775 437.554,339.349 428.829,331.755 416.199 C 325.628 406.008,318.162 396.050,308.588 385.300 C 304.464 380.669,301.227 376.700,300.925 375.906 C 300.207 374.019,279.190 358.753,277.714 359.046 C 277.296 359.129,277.206 360.328,277.528 361.519 C 278.079 363.557,274.903 360.957,264.482 350.838 C 257.402 343.963,254.539 341.738,253.595 342.377 M245.199 344.255 C 243.893 349.459,278.840 410.557,281.564 407.833 C 281.972 407.425,279.159 401.983,274.318 393.821 C 269.242 385.259,263.601 375.008,256.576 361.581 C 248.878 346.866,245.742 342.091,245.199 344.255 M362.322 353.057 C 363.266 354.009,364.094 354.787,364.162 354.787 C 364.230 354.787,363.513 354.009,362.569 353.057 C 361.626 352.106,360.798 351.328,360.730 351.328 C 360.662 351.328,361.379 352.106,362.322 353.057 M340.987 357.471 C 340.512 357.781,340.950 358.505,342.248 359.558 C 344.584 361.452,346.881 362.100,346.881 360.866 C 346.881 359.493,342.105 356.742,340.987 357.471 M225.904 359.863 C 225.517 360.869,226.760 363.391,228.971 366.090 C 230.560 368.030,231.353 366.747,230.363 363.840 C 229.633 361.697,226.330 358.751,225.904 359.863 M162.184 370.815 C 160.251 371.994,158.175 375.330,157.123 378.949 C 156.314 381.731,155.167 384.547,152.324 390.735 C 147.052 402.213,146.142 405.589,148.034 406.651 C 150.385 407.971,152.800 405.388,156.993 397.069 C 160.623 389.868,161.488 388.481,162.589 388.097 C 163.566 387.757,163.841 387.162,164.069 384.902 C 164.297 382.640,164.812 381.524,165.784 381.185 C 168.026 380.403,167.997 372.872,165.745 370.977 C 164.832 370.209,163.292 370.139,162.184 370.815 M188.150 383.786 C 186.774 385.162,186.197 386.833,183.214 398.083 C 181.105 406.041,181.107 406.322,183.286 406.790 C 188.808 407.976,195.346 394.677,192.748 387.543 C 191.344 383.689,189.639 382.296,188.150 383.786 M313.033 383.653 C 313.033 384.629,317.225 390.001,323.637 397.243 C 327.910 402.070,328.300 402.171,326.035 397.869 C 323.095 392.282,313.033 381.281,313.033 383.653 M326.552 390.426 C 326.324 391.067,327.973 393.644,332.693 400.023 C 337.654 406.727,340.723 411.851,343.816 418.597 C 346.035 423.438,347.024 425.127,347.993 425.733 L 348.734 426.197 349.290 425.562 C 351.373 423.180,347.913 414.554,341.035 404.979 C 334.131 395.368,327.255 388.459,326.552 390.426 M157.712 407.396 C 155.010 408.622,152.440 413.287,152.440 416.964 C 152.440 418.736,154.932 419.519,156.281 418.171 C 157.015 417.436,157.016 417.404,156.375 414.870 C 155.621 411.890,155.783 411.731,157.474 413.798 C 161.661 418.916,164.168 419.662,167.152 416.678 C 168.387 415.443,168.845 414.213,168.687 412.562 C 168.324 408.793,161.603 405.629,157.712 407.396 M179.678 409.158 C 177.311 410.352,172.699 416.127,172.699 417.897 C 172.699 421.784,184.392 421.240,187.377 417.215 C 189.837 413.896,183.478 407.240,179.678 409.158 M144.224 410.479 C 142.287 411.177,140.619 413.062,139.203 416.154 C 138.157 418.438,138.956 418.896,143.691 418.726 C 148.091 418.568,148.614 418.142,148.604 414.723 C 148.594 411.199,146.869 409.527,144.224 410.479 M198.473 411.082 C 195.586 412.080,193.453 414.721,193.453 417.298 C 193.453 418.190,195.516 419.049,199.714 419.906 C 202.996 420.576,203.260 420.333,203.499 416.433 C 203.696 413.208,203.760 413.201,206.137 416.166 C 208.458 419.060,208.644 419.109,208.417 416.771 C 207.938 411.847,203.541 409.331,198.473 411.082 M285.176 413.843 C 283.543 414.500,285.598 418.050,291.461 424.707 C 294.587 428.255,298.562 432.119,299.086 432.119 C 301.013 432.119,290.785 417.039,286.992 414.288 C 285.931 413.518,285.965 413.526,285.176 413.843 M191.888 420.918 C 190.998 421.808,193.070 424.909,194.854 425.357 C 196.231 425.703,196.740 424.322,195.777 422.853 C 194.838 421.420,192.533 420.273,191.888 420.918 M135.637 421.602 C 133.945 422.226,131.716 423.470,128.080 425.820 C 115.906 433.687,106.215 435.381,92.816 431.983 C 87.773 430.704,87.536 430.899,86.659 437.017 C 85.849 442.669,86.355 443.510,89.236 441.302 C 92.710 438.639,95.107 438.035,104.138 437.547 C 114.188 437.005,119.885 436.144,126.498 434.169 C 129.942 433.140,132.283 433.222,134.775 434.458 C 139.180 436.642,141.115 435.216,141.489 429.509 C 141.915 423.022,139.743 420.088,135.637 421.602 M177.201 422.360 C 175.137 423.257,170.619 427.578,166.222 432.862 C 163.860 435.699,162.724 436.781,160.034 438.754 C 157.897 440.321,156.966 442.020,156.272 445.624 C 155.126 451.572,147.681 458.578,140.406 460.556 C 136.516 461.614,134.963 462.669,135.116 464.151 C 135.153 464.516,136.474 464.978,137.481 464.978 C 139.088 464.978,141.560 467.102,143.819 470.422 C 145.453 472.825,145.330 472.832,146.004 470.280 C 146.944 466.725,148.943 464.573,155.034 460.566 C 158.799 458.089,162.753 454.345,164.017 452.059 C 165.250 449.830,167.334 448.712,172.260 447.635 C 176.119 446.791,187.443 446.802,191.970 447.653 C 197.860 448.761,199.348 448.601,202.048 446.571 C 204.344 444.846,204.765 444.852,206.481 446.631 C 210.555 450.857,214.150 450.586,212.589 446.171 C 211.956 444.382,211.713 443.005,211.516 440.087 C 211.184 435.174,209.528 434.827,203.877 438.490 C 198.376 442.055,180.909 442.735,177.983 439.499 C 177.121 438.545,177.332 433.638,178.451 428.617 C 179.861 422.296,179.660 421.292,177.201 422.360 M96.418 426.197 C 96.050 426.344,95.862 426.628,95.862 427.033 C 95.862 430.023,109.358 432.088,111.027 429.354 C 111.711 428.234,110.078 427.563,105.755 427.186 C 104.063 427.038,101.627 426.698,100.342 426.430 C 97.781 425.895,97.247 425.863,96.418 426.197 M186.282 428.462 C 183.884 430.296,181.892 434.219,182.606 435.703 C 184.510 439.664,199.629 439.440,199.629 435.451 C 199.629 433.403,198.045 432.390,187.621 427.767 C 187.471 427.701,186.868 428.013,186.282 428.462 M150.463 433.590 C 145.699 434.606,141.806 437.188,142.462 438.897 C 142.792 439.757,145.320 438.716,146.865 437.085 C 148.144 435.735,148.734 436.118,148.734 438.299 C 148.734 441.387,149.785 441.516,153.251 438.856 C 154.323 438.033,159.241 433.959,160.078 433.200 C 160.446 432.866,152.308 433.196,150.463 433.590 M77.304 434.929 C 74.055 436.076,71.896 437.955,71.896 439.636 C 71.896 441.551,73.759 441.341,77.002 439.059 C 82.406 435.256,82.566 433.072,77.304 434.929 M218.777 437.684 C 218.641 437.726,218.101 437.833,217.576 437.921 C 213.455 438.612,215.413 442.742,219.863 442.742 C 222.556 442.742,225.574 443.940,228.166 446.038 C 230.210 447.693,230.606 447.724,230.714 446.234 C 230.994 442.335,222.770 436.444,218.777 437.684 M305.127 438.145 C 305.127 439.608,308.962 443.484,310.410 443.484 C 311.611 443.484,311.028 441.984,308.989 439.828 C 307.066 437.795,305.127 436.950,305.127 438.145 M111.056 442.058 C 109.186 442.726,106.262 445.146,106.622 445.728 C 107.222 446.699,112.074 444.424,112.651 442.902 C 113.030 441.904,112.408 441.575,111.056 442.058 M127.363 442.250 C 121.558 442.770,119.874 444.181,122.747 446.117 C 127.204 449.120,146.879 447.668,144.910 444.481 C 144.456 443.746,138.981 442.611,134.157 442.251 C 130.560 441.983,130.335 441.983,127.363 442.250 M113.915 446.358 C 112.757 447.831,113.434 450.787,115.955 455.272 C 117.675 458.330,117.524 458.230,119.270 457.470 C 121.686 456.420,124.283 456.071,134.157 455.471 C 145.111 454.805,146.049 454.491,150.463 450.011 C 152.418 448.028,152.905 447.412,152.440 447.516 C 139.707 450.345,122.723 450.494,119.057 447.807 C 115.842 445.452,114.848 445.172,113.915 446.358 M106.719 453.784 C 104.581 454.839,101.050 458.765,101.050 460.085 C 101.050 461.951,110.354 457.062,111.064 454.823 C 111.596 453.147,109.179 452.569,106.719 453.784 M133.350 469.063 C 131.174 470.542,130.710 474.120,132.694 474.120 C 133.518 474.120,135.647 472.334,136.279 471.113 C 137.434 468.879,135.556 467.564,133.350 469.063 " stroke="none" fill="#ebebeb" fill-rule="evenodd"></path></g></svg>