<?xml version="1.0" encoding="UTF-8"?>
<!DOCTYPE svg PUBLIC "-//W3C//DTD SVG 1.1//EN" "http://www.w3.org/Graphics/SVG/1.1/DTD/svg11.dtd">
<svg xmlns="http://www.w3.org/2000/svg" version="1.1" width="1812px" height="2048px" style="shape-rendering:geometricPrecision; text-rendering:geometricPrecision; image-rendering:optimizeQuality; fill-rule:evenodd; clip-rule:evenodd" xmlns:xlink="http://www.w3.org/1999/xlink">
<g><path style="opacity:0.078" fill="#ebebeb" d="M 1304.5,-0.5 C 1306.5,-0.5 1308.5,-0.5 1310.5,-0.5C 1308.5,0.833333 1306.5,0.833333 1304.5,-0.5 Z"/></g>
<g><path style="opacity:0.988" fill="#030303" d="M 777.5,29.5 C 826.419,24.5631 867.586,39.8964 901,75.5C 912.135,89.1002 920.135,104.434 925,121.5C 930.772,151.816 941.105,180.483 956,207.5C 969.804,240.958 974.304,275.625 969.5,311.5C 968.49,326.001 974.49,336.168 987.5,342C 1004.61,342.591 1020.27,347.591 1034.5,357C 1049,365.843 1058.84,378.343 1064,394.5C 1073.33,401.833 1082.67,409.167 1092,416.5C 1111.61,441.377 1126.28,469.044 1136,499.5C 1144.6,529.181 1151.94,559.181 1158,589.5C 1169.53,629.228 1183.87,667.895 1201,705.5C 1219.76,744.36 1237.43,783.693 1254,823.5C 1270.33,870.784 1279.33,919.451 1281,969.5C 1287.86,1111.44 1290.2,1253.44 1288,1395.5C 1280.66,1427.37 1263.16,1451.87 1235.5,1469C 1224.79,1475.93 1213.12,1478.6 1200.5,1477C 1195.64,1475.47 1192.47,1472.31 1191,1467.5C 1189.99,1461.74 1188.65,1456.07 1187,1450.5C 1186.5,1450 1186,1449.5 1185.5,1449C 1167.32,1450.82 1160.82,1442.99 1166,1425.5C 1167.14,1421.76 1168.47,1418.09 1170,1414.5C 1178.27,1398.29 1186.27,1381.96 1194,1365.5C 1195.8,1361.31 1196.47,1356.98 1196,1352.5C 1194.19,1350.6 1192.03,1350.1 1189.5,1351C 1182.17,1354.67 1174.83,1358.33 1167.5,1362C 1156.21,1365.21 1150.88,1361.04 1151.5,1349.5C 1156.63,1327.65 1161.13,1305.65 1165,1283.5C 1172.81,1267.22 1181.14,1251.22 1190,1235.5C 1193.43,1226.79 1195.76,1217.79 1197,1208.5C 1200.31,1172.88 1198.31,1137.54 1191,1102.5C 1188.59,1089.78 1185.92,1077.11 1183,1064.5C 1174.67,1033.16 1166.33,1001.83 1158,970.5C 1153.29,940.888 1148.96,911.222 1145,881.5C 1140.8,862.431 1133.8,844.431 1124,827.5C 1102.14,791.127 1081.81,753.793 1063,715.5C 1061,712.167 1058.33,709.5 1055,707.5C 1052.56,709.274 1050.89,711.608 1050,714.5C 1048.11,736.833 1046.11,759.166 1044,781.5C 1038.5,803.529 1034.83,825.862 1033,848.5C 1027.88,905.145 1023.38,961.812 1019.5,1018.5C 1034.01,1040.84 1047.51,1063.84 1060,1087.5C 1075.39,1118.86 1080.73,1151.86 1076,1186.5C 1073.91,1226.09 1069.57,1265.42 1063,1304.5C 1044.05,1367.39 1038.72,1431.39 1047,1496.5C 1048.04,1498.75 1049.21,1500.91 1050.5,1503C 1053.94,1502.87 1056.77,1504.03 1059,1506.5C 1060.5,1513.8 1061.83,1521.13 1063,1528.5C 1064.53,1532.27 1067.19,1534.94 1071,1536.5C 1071.84,1540.35 1070.67,1543.52 1067.5,1546C 1062.33,1550.04 1056.66,1551.04 1050.5,1549C 1039,1542.83 1030.17,1534 1024,1522.5C 1014.16,1504.81 1004.82,1486.81 996,1468.5C 995.439,1467.98 994.772,1467.64 994,1467.5C 986.429,1471.37 979.262,1475.87 972.5,1481C 968.886,1481.94 965.219,1482.61 961.5,1483C 960.299,1483.9 959.465,1485.07 959,1486.5C 956.944,1505.29 957.944,1523.96 962,1542.5C 970.898,1591.2 986.565,1637.53 1009,1681.5C 1025.22,1704.72 1046.05,1722.55 1071.5,1735C 1118.71,1757.54 1168.04,1764.2 1219.5,1755C 1243.74,1747.21 1267.07,1737.21 1289.5,1725C 1306.77,1713.74 1322.27,1700.24 1336,1684.5C 1406.21,1604.67 1445.88,1511.34 1455,1404.5C 1458.18,1362.55 1450.85,1322.55 1433,1284.5C 1418.76,1255.69 1403.76,1227.36 1388,1199.5C 1348.05,1114.18 1335.05,1024.84 1349,931.5C 1355.11,899.628 1360.44,867.628 1365,835.5C 1370.14,789.301 1371.81,742.968 1370,696.5C 1368.5,660.808 1361.83,626.141 1350,592.5C 1344.67,578.664 1336.5,566.831 1325.5,557C 1319.54,553.235 1313.21,550.235 1306.5,548C 1299.46,543.745 1296.96,537.578 1299,529.5C 1302.54,523.817 1307.7,520.817 1314.5,520.5C 1326.08,523.122 1336.08,528.622 1344.5,537C 1363.06,556.292 1378.56,577.792 1391,601.5C 1410.65,638.454 1425.98,677.12 1437,717.5C 1443.97,748.98 1449.97,780.646 1455,812.5C 1457.78,827.861 1463.12,842.194 1471,855.5C 1474.42,859.458 1478.59,862.292 1483.5,864C 1489.16,864.74 1494.82,865.406 1500.5,866C 1502.33,866.273 1503.83,867.107 1505,868.5C 1505.67,872.5 1505.67,876.5 1505,880.5C 1499.74,905.905 1498.07,931.571 1500,957.5C 1502.65,980.113 1509.32,1001.45 1520,1021.5C 1526.45,1033.29 1535.95,1041.45 1548.5,1046C 1552.17,1046.67 1555.83,1046.67 1559.5,1046C 1567.45,1042.69 1575.11,1038.86 1582.5,1034.5C 1578.06,1086.12 1596.4,1127.62 1637.5,1159C 1650.04,1166.94 1663.38,1173.27 1677.5,1178C 1678.67,1179.17 1679.83,1180.33 1681,1181.5C 1682.43,1186.12 1684.43,1190.46 1687,1194.5C 1717.06,1224.92 1740.4,1259.92 1757,1299.5C 1769.08,1336.17 1771.75,1373.5 1765,1411.5C 1755.72,1446.92 1734.55,1472.42 1701.5,1488C 1698.5,1488.67 1695.5,1488.67 1692.5,1488C 1691.41,1485.94 1691.24,1483.77 1692,1481.5C 1696.28,1474.62 1701.28,1468.29 1707,1462.5C 1714.54,1447.66 1715.54,1432.33 1710,1416.5C 1701.54,1391.04 1684.71,1373.88 1659.5,1365C 1643.39,1360.15 1630.22,1364.31 1620,1377.5C 1606.5,1398.17 1596.5,1420.51 1590,1444.5C 1580.75,1479.09 1573.41,1514.09 1568,1549.5C 1547.98,1630.19 1513.98,1704.19 1466,1771.5C 1452.91,1789.35 1439.58,1807.01 1426,1824.5C 1378.83,1880.51 1320.33,1919.67 1250.5,1942C 1212.52,1950.83 1175.19,1961.83 1138.5,1975C 1111.56,1981.34 1084.22,1984.18 1056.5,1983.5C 1016.69,1984.28 977.688,1979.11 939.5,1968C 881.381,1951.3 826.381,1927.64 774.5,1897C 721.795,1861.96 677.295,1818.46 641,1766.5C 568.584,1660.6 525.584,1543.6 512,1415.5C 509.588,1387.75 510.254,1360.09 514,1332.5C 517.395,1317.42 520.229,1302.26 522.5,1287C 522.203,1275.43 518.036,1273.6 510,1281.5C 504.757,1290.64 501.924,1300.47 501.5,1311C 506.08,1333.67 503.58,1355.5 494,1376.5C 485.029,1396.81 472.196,1414.31 455.5,1429C 444.643,1438.59 431.976,1444.09 417.5,1445.5C 411.651,1445.37 406.318,1443.71 401.5,1440.5C 400.369,1438.93 400.202,1437.26 401,1435.5C 407.475,1428.94 414.142,1422.6 421,1416.5C 424.379,1410.61 426.379,1404.28 427,1397.5C 428.421,1386.2 429.421,1374.87 430,1363.5C 432.219,1306.15 434.552,1248.82 437,1191.5C 447.667,1169.5 458.333,1147.5 469,1125.5C 478.878,1103.73 492.212,1084.4 509,1067.5C 518.182,1054.47 527.848,1041.81 538,1029.5C 561.703,1004.13 585.036,978.466 608,952.5C 622.886,934.403 633.886,914.07 641,891.5C 648.127,862.39 643.793,835.057 628,809.5C 622.958,801.249 617.792,793.082 612.5,785C 611.668,784.312 611.002,784.479 610.5,785.5C 607.175,792.974 604.342,800.641 602,808.5C 589.022,852.41 576.356,896.41 564,940.5C 553.801,968.082 539.635,993.248 521.5,1016C 517.247,1018.71 513.08,1021.54 509,1024.5C 506.526,1030.25 503.86,1035.92 501,1041.5C 485.929,1054.57 472.262,1068.9 460,1084.5C 426.329,1120.51 390.495,1154.01 352.5,1185C 328.468,1208.03 304.134,1230.7 279.5,1253C 261.877,1268.15 242.543,1280.82 221.5,1291C 194.499,1303.19 167.166,1304.19 139.5,1294C 124.48,1284.97 109.48,1275.97 94.5,1267C 90.1667,1266.33 85.8333,1266.33 81.5,1267C 66.7104,1271.77 51.7104,1275.6 36.5,1278.5C 29.1071,1278.26 26.6071,1274.6 29,1267.5C 30,1265.5 31,1263.5 32,1261.5C 63.5125,1217.98 102.012,1182.15 147.5,1154C 169.197,1141.66 192.53,1134.99 217.5,1134C 234.426,1129.04 249.426,1120.71 262.5,1109C 276.529,1096.05 289.029,1081.89 300,1066.5C 336.036,1011.76 374.036,958.426 414,906.5C 438.163,861.687 455.83,814.354 467,764.5C 483.722,690.056 494.056,614.723 498,538.5C 499.463,524.106 504.463,511.106 513,499.5C 528.815,480.531 544.148,461.197 559,441.5C 561.277,436.613 563.277,431.613 565,426.5C 566.718,416.224 568.051,405.89 569,395.5C 569.557,391.825 570.89,388.492 573,385.5C 586.265,372.567 600.432,360.733 615.5,350C 619.667,345.833 623.833,341.667 628,337.5C 630.804,333.557 632.804,329.223 634,324.5C 637.357,294.805 635.357,265.472 628,236.5C 627.333,229.833 627.333,223.167 628,216.5C 631.019,203.757 634.353,191.09 638,178.5C 639.34,154.117 646.674,131.783 660,111.5C 675.037,88.128 693.87,68.2947 716.5,52C 735.513,40.6104 755.846,33.1104 777.5,29.5 Z"/></g>
<g><path style="opacity:1" fill="#f0f0f0" d="M 780.5,45.5 C 801.907,43.99 822.907,46.1566 843.5,52C 849.282,53.3694 854.615,55.7027 859.5,59C 885.238,81.6128 903.071,109.446 913,142.5C 917.485,171.295 927.485,197.962 943,222.5C 945.156,226.262 945.823,230.262 945,234.5C 943.951,235.517 942.784,235.684 941.5,235C 925.703,222.871 911.537,209.037 899,193.5C 895.279,188.725 892.612,183.391 891,177.5C 894.964,151.95 889.297,128.95 874,108.5C 866.784,99.1512 857.617,92.6512 846.5,89C 841.25,88.8071 836.083,88.3071 831,87.5C 829.878,79.0233 829.045,70.5233 828.5,62C 827.5,61.3333 826.5,61.3333 825.5,62C 823.5,63.3333 821.5,64.6667 819.5,66C 810.137,75.6971 800.47,85.0304 790.5,94C 785.207,97.729 779.374,100.229 773,101.5C 769.112,101.277 766.779,99.2771 766,95.5C 765.333,91.8333 765.333,88.1667 766,84.5C 767.317,79.5687 768.15,74.5687 768.5,69.5C 758.625,73.0418 753.291,80.0418 752.5,90.5C 753.4,97.4888 753.566,104.489 753,111.5C 749.974,114.864 746.474,115.364 742.5,113C 737.833,109.667 733.833,105.667 730.5,101C 724.878,97.3847 719.545,97.7181 714.5,102C 705.73,110.031 699.897,119.865 697,131.5C 694.43,143.719 693.43,156.052 694,168.5C 696.174,176.368 701.341,181.201 709.5,183C 718.496,185.081 727.162,188.081 735.5,192C 737.019,193.351 738.352,194.851 739.5,196.5C 737.561,198.122 737.228,199.956 738.5,202C 748.469,201.791 757.803,199.124 766.5,194C 773.523,188.098 776.023,180.598 774,171.5C 765.619,154.23 752.119,148.23 733.5,153.5C 727.485,152.332 722.985,148.999 720,143.5C 715.411,134.897 711.911,125.897 709.5,116.5C 711.655,116.372 713.655,116.872 715.5,118C 720.928,123.431 726.928,128.098 733.5,132C 735.833,132.667 738.167,132.667 740.5,132C 752.706,125.563 765.373,120.23 778.5,116C 785.63,115.255 792.63,113.922 799.5,112C 803.829,108.197 805.662,103.364 805,97.5C 806.182,95.6431 807.849,94.6431 810,94.5C 815.533,95.6837 820.033,98.5171 823.5,103C 834.893,109.548 847.226,112.548 860.5,112C 870.011,114.471 872.511,119.971 868,128.5C 865.5,131 863,133.5 860.5,136C 848.5,142.667 836.5,149.333 824.5,156C 819.887,158.776 816.554,162.609 814.5,167.5C 814.529,169.029 815.196,170.196 816.5,171C 818.5,171.167 820.5,171.333 822.5,171.5C 831.462,169.938 840.462,169.105 849.5,169C 850.535,170.507 850.368,172.007 849,173.5C 844.227,177.887 841.894,183.221 842,189.5C 844.593,192.933 847.76,193.433 851.5,191C 854.328,188.752 857.328,186.752 860.5,185C 871.013,182.504 876.846,186.67 878,197.5C 878.826,202.589 878.492,207.589 877,212.5C 875.066,215.688 872.232,217.188 868.5,217C 862.298,223.424 860.798,230.924 864,239.5C 865.279,244.725 867.612,249.391 871,253.5C 884.962,263.795 897.295,275.795 908,289.5C 913.503,300.024 913.836,310.691 909,321.5C 905.155,325.675 902.155,325.008 900,319.5C 897.347,307.508 892.014,296.841 884,287.5C 877.865,280.364 871.365,273.531 864.5,267C 861.928,264.713 858.928,263.547 855.5,263.5C 855.421,266.271 855.921,268.937 857,271.5C 861.773,278.044 865.773,285.044 869,292.5C 873.887,305.906 870.721,317.073 859.5,326C 856.286,328.402 853.786,327.902 852,324.5C 851.667,317.167 851.333,309.833 851,302.5C 850.081,298.482 848.414,294.815 846,291.5C 839.452,288.142 832.952,284.642 826.5,281C 819.833,275 813.167,269 806.5,263C 804.5,262.333 802.5,262.333 800.5,263C 789.5,272.667 778.5,282.333 767.5,292C 763.79,294.358 759.79,295.858 755.5,296.5C 751.503,296.526 749.836,294.526 750.5,290.5C 751.083,285.394 753.583,281.394 758,278.5C 760.121,272.042 759.788,265.709 757,259.5C 749.575,252.47 741.409,251.636 732.5,257C 728.908,259.921 726.075,263.421 724,267.5C 723.124,273.942 721.79,280.275 720,286.5C 717.552,289.473 714.386,290.973 710.5,291C 707.129,294.236 704.629,298.069 703,302.5C 698.006,320.151 693.006,337.818 688,355.5C 676.128,386.604 654.462,397.271 623,387.5C 622.254,384.211 623.42,381.711 626.5,380C 636.106,376.514 645.773,373.181 655.5,370C 670.103,360.986 678.269,347.819 680,330.5C 681.11,317.193 681.777,303.859 682,290.5C 682.711,285.012 683.711,279.679 685,274.5C 677.627,282.204 670.627,290.204 664,298.5C 647.646,253.929 645.313,208.595 657,162.5C 670.103,116.751 697.27,82.251 738.5,59C 752.052,52.6715 766.052,48.1715 780.5,45.5 Z"/></g>
<g><path style="opacity:1" fill="#ebebeb" d="M 885.5,204.5 C 896.918,209.408 905.752,217.408 912,228.5C 912.684,229.784 912.517,230.951 911.5,232C 899.051,232.019 890.551,226.185 886,214.5C 885.502,211.183 885.335,207.85 885.5,204.5 Z"/></g>
<g><path style="opacity:1" fill="#050505" d="M 804.5,210.5 C 807.614,211.091 810.114,212.758 812,215.5C 816.169,221.166 819.835,227.166 823,233.5C 824.685,241.826 821.185,245.993 812.5,246C 798.373,247.76 785.54,244.593 774,236.5C 773.03,233.173 774.197,231.007 777.5,230C 785.041,230.129 792.374,229.129 799.5,227C 804.096,222.516 805.763,217.016 804.5,210.5 Z"/></g>
<g><path style="opacity:1" fill="#090909" d="M 719.5,216.5 C 729.926,219.072 738.759,224.405 746,232.5C 747.885,234.914 748.552,237.581 748,240.5C 746.274,241.576 744.441,241.743 742.5,241C 734.848,237.355 728.348,232.189 723,225.5C 720.713,222.928 719.547,219.928 719.5,216.5 Z"/></g>
<g><path style="opacity:1" fill="#ebebeb" d="M 880.5,229.5 C 885.013,229.588 889.013,231.088 892.5,234C 903.252,243.072 911.252,254.072 916.5,267C 915.941,269.188 914.607,269.854 912.5,269C 898.762,261.262 887.595,250.762 879,237.5C 878.109,234.502 878.609,231.836 880.5,229.5 Z"/></g>
<g><path style="opacity:1" fill="#ebebeb" d="M 744.5,268.5 C 745.833,268.5 747.167,268.5 748.5,268.5C 748.665,271.85 748.498,275.183 748,278.5C 745.064,285.2 742.564,292.033 740.5,299C 740.559,300.436 740.892,301.769 741.5,303C 745.419,304.862 749.419,306.529 753.5,308C 750.691,309.122 747.691,309.622 744.5,309.5C 735.574,310.737 730.574,306.904 729.5,298C 731.471,286.558 736.471,276.725 744.5,268.5 Z"/></g>
<g><path style="opacity:1" fill="#f0f0f0" d="M 830.5,303.5 C 833.292,303.452 835.125,304.785 836,307.5C 835.146,333.627 831.146,359.293 824,384.5C 819.604,393.289 815.77,402.289 812.5,411.5C 812.883,415.053 814.883,417.22 818.5,418C 824.488,423.047 825.988,429.214 823,436.5C 820.716,438.984 818.216,439.151 815.5,437C 811.908,434.079 809.075,430.579 807,426.5C 804.452,417.691 801.619,409.024 798.5,400.5C 795.067,407.267 791.9,414.267 789,421.5C 784.333,426.833 779.667,426.833 775,421.5C 771.255,415.002 768.922,408.002 768,400.5C 765.328,370.855 773.328,344.522 792,321.5C 794.5,319.667 797,317.833 799.5,316C 802.257,315.218 804.757,315.718 807,317.5C 808.787,321.577 810.954,325.41 813.5,329C 819.359,331.199 822.859,329.032 824,322.5C 824.189,317.749 824.855,313.083 826,308.5C 827.059,306.341 828.559,304.674 830.5,303.5 Z"/></g>
<g><path style="opacity:1" fill="#eaeaea" d="M 706.5,308.5 C 708.199,308.34 709.866,308.506 711.5,309C 718.967,319.834 721.301,331.501 718.5,344C 712.839,344.244 708.673,341.744 706,336.5C 701.234,327.004 701.401,317.671 706.5,308.5 Z"/></g>
<g><path style="opacity:1" fill="#ececec" d="M 664.5,311.5 C 666.411,311.574 667.578,312.574 668,314.5C 668.667,323.5 668.667,332.5 668,341.5C 664.974,349.194 659.808,355.028 652.5,359C 638.057,365.631 624.891,374.131 613,384.5C 610.806,390.074 607.306,394.574 602.5,398C 597.8,399.135 595.134,397.301 594.5,392.5C 594.967,389.852 596.134,387.519 598,385.5C 608.967,374.861 620.8,365.361 633.5,357C 642.038,350.129 649.538,342.296 656,333.5C 659.141,326.257 661.974,318.924 664.5,311.5 Z"/></g>
<g><path style="opacity:1" fill="#eaeaea" d="M 913.5,331.5 C 914.117,331.611 914.617,331.944 915,332.5C 915.418,346.882 914.752,361.216 913,375.5C 912.991,382.854 909.491,385.687 902.5,384C 898.339,376.223 897.506,368.056 900,359.5C 902.649,349.203 907.149,339.87 913.5,331.5 Z"/></g>
<g><path style="opacity:1" fill="#ececec" d="M 757.5,334.5 C 764.214,347.62 764.047,360.953 757,374.5C 750.018,382.994 741.185,385.994 730.5,383.5C 734.16,380.009 737.994,376.676 742,373.5C 742.667,370.833 742.667,368.167 742,365.5C 739.079,360.659 736.412,355.659 734,350.5C 733.202,348.741 733.369,347.074 734.5,345.5C 739.842,344.816 745.176,343.983 750.5,343C 754.877,341.795 757.21,338.961 757.5,334.5 Z"/></g>
<g><path style="opacity:1" fill="#ededed" d="M 866.5,337.5 C 869.488,337.155 870.821,338.488 870.5,341.5C 869.98,344.912 869.147,348.245 868,351.5C 867.333,355.167 867.333,358.833 868,362.5C 869.789,364.229 871.956,364.896 874.5,364.5C 874.657,365.873 874.49,367.207 874,368.5C 868.365,373.133 863.032,378.133 858,383.5C 857.333,384.833 856.667,386.167 856,387.5C 858.129,398.719 854.629,407.553 845.5,414C 838.685,416.564 834.852,414.064 834,406.5C 833.306,395.668 835.306,385.334 840,375.5C 846.159,360.807 854.992,348.14 866.5,337.5 Z"/></g>
<g><path style="opacity:1" fill="#eeeeee" d="M 950.5,344.5 C 955.698,344.731 960.698,345.897 965.5,348C 973.172,353.171 981.172,357.838 989.5,362C 996.428,363.696 1003.43,365.029 1010.5,366C 1026.99,370.982 1036.99,381.815 1040.5,398.5C 1039.67,409.839 1033.83,413.839 1023,410.5C 1022.33,409.5 1022.33,408.5 1023,407.5C 1025.58,404.003 1027.92,400.336 1030,396.5C 1030.67,394.5 1030.67,392.5 1030,390.5C 1024.03,381.362 1015.86,375.029 1005.5,371.5C 1003.73,371.434 1002.73,372.268 1002.5,374C 1004.37,378.243 1006.87,382.077 1010,385.5C 1010.5,387.473 1010.66,389.473 1010.5,391.5C 1008.47,391.662 1006.47,391.495 1004.5,391C 999.882,388.05 995.548,384.716 991.5,381C 987.218,380.035 983.218,380.702 979.5,383C 974.403,388.1 968.736,392.433 962.5,396C 944.749,397.586 932.583,390.086 926,373.5C 924.347,367.622 925.847,362.788 930.5,359C 934.903,358.075 939.236,356.909 943.5,355.5C 944.964,352.997 946.131,350.33 947,347.5C 948.145,346.364 949.312,345.364 950.5,344.5 Z"/></g>
<g><path style="opacity:1" fill="#eeeeee" d="M 700.5,365.5 C 709.389,364.887 714.055,369.053 714.5,378C 713.734,387.196 709.067,393.529 700.5,397C 693.916,398.544 687.249,398.877 680.5,398C 679.426,397.261 678.759,396.261 678.5,395C 684.034,383.738 691.367,373.905 700.5,365.5 Z"/></g>
<g><path style="opacity:1" fill="#f2f2f2" d="M 735.5,391.5 C 738.325,391.162 740.492,392.162 742,394.5C 746.448,406.729 751.448,418.729 757,430.5C 761.443,436.972 767.609,440.138 775.5,440C 786.567,445.067 796.567,451.734 805.5,460C 814.043,464.397 822.71,468.397 831.5,472C 833.667,474.167 835.833,476.333 838,478.5C 841.596,485.365 845.429,492.032 849.5,498.5C 860.317,490.663 870.484,481.996 880,472.5C 882.467,469.266 883.633,465.599 883.5,461.5C 876.416,461.371 870.083,463.537 864.5,468C 854.649,472.802 844.983,472.635 835.5,467.5C 833.037,464.665 832.87,461.665 835,458.5C 838.137,456.014 841.637,454.181 845.5,453C 856.952,449.972 868.285,446.638 879.5,443C 884.322,438.184 886.488,432.351 886,425.5C 890.881,420.057 896.881,416.39 904,414.5C 927.394,407.898 951.228,405.731 975.5,408C 991.286,409.588 1006.95,411.922 1022.5,415C 1032.57,415.551 1042.57,415.217 1052.5,414C 1062.33,416.5 1070.5,421.667 1077,429.5C 1092.01,448.5 1103.67,469.5 1112,492.5C 1116.4,504.363 1120.4,516.363 1124,528.5C 1138.54,591.788 1158.87,653.121 1185,712.5C 1202.94,751.381 1220.61,790.381 1238,829.5C 1244.56,845.281 1250.56,861.281 1256,877.5C 1257.97,883.696 1259.31,890.029 1260,896.5C 1269.95,1020.63 1273.95,1144.97 1272,1269.5C 1269.36,1285.39 1267.86,1301.39 1267.5,1317.5C 1269.02,1336.65 1270.35,1355.81 1271.5,1375C 1272.65,1397.99 1267.15,1419.16 1255,1438.5C 1245.92,1450.12 1234.09,1455.96 1219.5,1456C 1208.26,1450.03 1205.1,1441.2 1210,1429.5C 1212.33,1425.83 1215.33,1422.83 1219,1420.5C 1223,1413.02 1224.17,1405.19 1222.5,1397C 1221.17,1396.33 1219.83,1396.33 1218.5,1397C 1209.45,1406.05 1200.45,1415.05 1191.5,1424C 1188,1427.29 1184,1428.12 1179.5,1426.5C 1178.16,1421.69 1178.66,1417.02 1181,1412.5C 1184.99,1403.18 1189.99,1394.51 1196,1386.5C 1209.24,1363.13 1212.58,1338.47 1206,1312.5C 1201.44,1307.2 1197.11,1307.54 1193,1313.5C 1188.75,1320.34 1184.75,1327.34 1181,1334.5C 1177.88,1339.29 1174.38,1343.79 1170.5,1348C 1168.38,1349.58 1166.21,1349.75 1164,1348.5C 1167,1323.5 1173,1299.17 1182,1275.5C 1188.69,1261.44 1197.36,1248.78 1208,1237.5C 1219.06,1223.04 1227.23,1207.04 1232.5,1189.5C 1232.05,1184.95 1229.72,1183.45 1225.5,1185C 1224,1184.17 1222.83,1183 1222,1181.5C 1219.07,1175.05 1216.74,1168.38 1215,1161.5C 1203.67,1099.18 1189.67,1037.52 1173,976.5C 1170.02,961.263 1167.68,945.93 1166,930.5C 1165.33,921.833 1165.33,913.167 1166,904.5C 1166.67,901.156 1168.33,898.489 1171,896.5C 1171.78,889.7 1171.11,883.033 1169,876.5C 1164.1,862.693 1158.1,849.359 1151,836.5C 1141.42,819.66 1131.08,803.327 1120,787.5C 1099.49,752.146 1082.49,715.146 1069,676.5C 1068.04,671.877 1067.38,667.21 1067,662.5C 1064.26,658.288 1061.43,654.288 1058.5,650.5C 1073.58,651.317 1087.92,648.483 1101.5,642C 1104.51,639.365 1104.17,637.365 1100.5,636C 1097.83,635.667 1095.17,635.333 1092.5,635C 1091.9,633.938 1091.57,632.772 1091.5,631.5C 1095.63,622.734 1099.63,613.901 1103.5,605C 1103.21,602.141 1101.54,600.808 1098.5,601C 1097.54,599.581 1096.71,598.081 1096,596.5C 1096.75,590.217 1097.09,583.884 1097,577.5C 1095.27,574.107 1092.61,571.774 1089,570.5C 1088.83,569.667 1088.67,568.833 1088.5,568C 1090.34,563.158 1092.84,558.658 1096,554.5C 1096.76,545.852 1093.59,539.019 1086.5,534C 1079.99,532.126 1074.82,533.959 1071,539.5C 1066.64,548.315 1063.97,557.649 1063,567.5C 1056.02,591.112 1046.68,613.779 1035,635.5C 1030.78,642.772 1025.95,649.605 1020.5,656C 1018.55,657.496 1016.55,657.663 1014.5,656.5C 1013.73,652.555 1013.23,648.555 1013,644.5C 1012.59,644.043 1012.09,643.709 1011.5,643.5C 1006.65,650.433 999.982,654.6 991.5,656C 975.938,658.803 960.271,660.803 944.5,662C 939.03,667.432 936.863,673.932 938,681.5C 938.833,682.333 939.667,683.167 940.5,684C 953.16,683.534 965.827,683.201 978.5,683C 985.709,684.634 988.543,689.134 987,696.5C 989.955,700.277 993.788,701.443 998.5,700C 1005.02,697.391 1011.69,696.557 1018.5,697.5C 1019.61,698.723 1019.78,700.056 1019,701.5C 1018,703.167 1017,704.833 1016,706.5C 1007.66,715.677 999.155,724.677 990.5,733.5C 990.667,733.833 990.833,734.167 991,734.5C 997.131,730.685 1000.3,732.351 1000.5,739.5C 1002.56,739.313 1004.56,738.813 1006.5,738C 1012.46,733.711 1018.12,729.044 1023.5,724C 1026.48,721.676 1029.81,720.176 1033.5,719.5C 1033.65,722.607 1033.15,725.607 1032,728.5C 1028.83,733.343 1026.33,738.509 1024.5,744C 1025.47,747.645 1027.31,750.812 1030,753.5C 1030.67,757.833 1030.67,762.167 1030,766.5C 1023.93,786.902 1018.93,807.568 1015,828.5C 1012.73,836.095 1008.23,841.928 1001.5,846C 999.833,846.667 998.167,846.667 996.5,846C 994.229,842.925 993.063,839.425 993,835.5C 991.612,834.446 990.112,834.28 988.5,835C 980.134,839.697 974.301,846.531 971,855.5C 970.893,870.1 976.06,872.267 986.5,862C 993.184,858.859 1000.18,857.859 1007.5,859C 1012.71,860.179 1014.38,863.179 1012.5,868C 1007.82,868.164 1003.15,868.164 998.5,868C 989.169,871.665 982.002,877.832 977,886.5C 976.333,888.167 976.333,889.833 977,891.5C 981.048,894.349 985.548,895.683 990.5,895.5C 990.167,893.5 989.833,891.5 989.5,889.5C 999.29,891.489 1006.79,896.823 1012,905.5C 1014.21,910.357 1013.88,915.024 1011,919.5C 1000.5,928.135 992.671,938.802 987.5,951.5C 988.002,952.521 988.668,952.688 989.5,952C 994.5,947.667 999.5,943.333 1004.5,939C 1007.21,937.092 1010.21,936.259 1013.5,936.5C 1012.05,944.151 1008.22,950.484 1002,955.5C 1001.51,956.793 1001.34,958.127 1001.5,959.5C 1004.25,959.274 1006.92,959.607 1009.5,960.5C 1012.25,966.32 1010.25,969.653 1003.5,970.5C 995.679,967.09 988.512,968.09 982,973.5C 976.774,979.914 977.441,985.581 984,990.5C 984.667,992.5 984.667,994.5 984,996.5C 982.333,998.833 980.667,1001.17 979,1003.5C 972,1009.17 965.667,1015.5 960,1022.5C 959.506,1024.13 959.34,1025.8 959.5,1027.5C 964.817,1027.12 969.817,1025.62 974.5,1023C 980.5,1018.33 986.5,1013.67 992.5,1009C 994.701,1008.18 996.534,1008.68 998,1010.5C 1007,1033 1001.5,1051.17 981.5,1065C 967.143,1075.34 951.143,1080.01 933.5,1079C 926.65,1076.82 921.65,1072.48 918.5,1066C 909.193,1065.4 901.36,1068.57 895,1075.5C 894.333,1076.5 894.333,1077.5 895,1078.5C 898,1080.83 901,1083.17 904,1085.5C 904.667,1087.5 904.667,1089.5 904,1091.5C 899.5,1097.33 894.333,1102.5 888.5,1107C 886.5,1107.67 884.5,1107.67 882.5,1107C 880.402,1104.15 878.069,1101.48 875.5,1099C 873.966,1098.08 872.299,1097.58 870.5,1097.5C 860.413,1101.14 850.246,1104.47 840,1107.5C 835.334,1107.42 831.5,1105.58 828.5,1102C 824.943,1100.59 821.276,1099.59 817.5,1099C 807.467,1099.34 797.467,1100.01 787.5,1101C 785.376,1099.88 783.543,1098.38 782,1096.5C 780.36,1092.61 779.027,1088.61 778,1084.5C 775.916,1075.69 771.083,1073.53 763.5,1078C 761.129,1080.71 758.463,1083.04 755.5,1085C 751.705,1085.84 748.039,1085.5 744.5,1084C 740.248,1080.42 736.748,1076.25 734,1071.5C 730.893,1063.4 728.893,1055.07 728,1046.5C 726.833,1045.33 725.667,1044.17 724.5,1043C 709.193,1043.68 696.693,1038.18 687,1026.5C 679.819,1014.32 670.819,1003.65 660,994.5C 656.115,987.629 654.782,980.295 656,972.5C 657.116,968.384 659.782,966.051 664,965.5C 664.167,964 664.333,962.5 664.5,961C 662.543,952.127 660.377,943.294 658,934.5C 655.772,918.564 655.106,902.564 656,886.5C 656.375,882.332 657.375,878.332 659,874.5C 661.71,872.498 664.377,870.498 667,868.5C 669.27,859.5 668.27,850.833 664,842.5C 649.892,821.614 639.559,798.947 633,774.5C 625.593,747.982 621.926,720.982 622,693.5C 621.836,685.635 624.336,678.802 629.5,673C 637.418,672.612 644.751,674.612 651.5,679C 657.779,682.946 663.779,687.279 669.5,692C 673.729,695.128 678.396,696.462 683.5,696C 684.591,693.936 684.758,691.769 684,689.5C 677.153,681.644 671.487,672.977 667,663.5C 665.927,659.916 665.26,656.25 665,652.5C 661.252,647.275 656.086,645.109 649.5,646C 645.084,643.588 641.251,640.422 638,636.5C 629.731,621.627 621.731,606.627 614,591.5C 604.691,576.186 593.191,562.686 579.5,551C 574.846,547.458 570.012,546.958 565,549.5C 560.992,562.381 562.325,574.714 569,586.5C 572.236,589.871 576.069,592.371 580.5,594C 586.628,599.753 591.128,606.587 594,614.5C 599.228,631.095 602.228,648.095 603,665.5C 605.557,715.153 598.89,763.486 583,810.5C 579.78,818.608 575.78,826.274 571,833.5C 564.387,840.113 557.721,846.779 551,853.5C 550.28,855.112 550.446,856.612 551.5,858C 553.5,858.333 555.5,858.667 557.5,859C 559.333,859.5 560.5,860.667 561,862.5C 562.563,870.087 562.896,877.754 562,885.5C 551.945,938.269 529.612,984.935 495,1025.5C 490.94,1030.95 487.94,1036.95 486,1043.5C 427.02,1103.51 364.187,1158.67 297.5,1209C 288.109,1216.71 280.609,1225.88 275,1236.5C 261.229,1251.8 244.395,1262.14 224.5,1267.5C 221.107,1267.11 219.274,1265.11 219,1261.5C 216.568,1241.03 223.901,1225.03 241,1213.5C 241.483,1212.55 241.649,1211.55 241.5,1210.5C 234.89,1211.41 228.89,1209.91 223.5,1206C 217.523,1200.35 211.857,1194.35 206.5,1188C 204.5,1187.33 202.5,1187.33 200.5,1188C 193.705,1195.55 185.539,1197.39 176,1193.5C 162.053,1196.11 155.72,1204.44 157,1218.5C 158.059,1221.62 159.392,1224.62 161,1227.5C 162.388,1228.55 163.888,1228.72 165.5,1228C 171.792,1223.38 177.792,1218.38 183.5,1213C 184.759,1212.02 186.092,1211.68 187.5,1212C 188.312,1218.09 188.812,1224.25 189,1230.5C 189.133,1238.29 192.967,1242.46 200.5,1243C 207.048,1250.27 209.215,1258.77 207,1268.5C 205.998,1272.16 204.164,1275.33 201.5,1278C 181.955,1288.71 162.955,1287.71 144.5,1275C 138.387,1270.89 133.721,1265.56 130.5,1259C 131.167,1257.67 131.833,1256.33 132.5,1255C 130.75,1250.92 128.583,1247.09 126,1243.5C 124.771,1235.08 126.105,1227.08 130,1219.5C 136.393,1205.05 143.06,1190.71 150,1176.5C 155.4,1167.1 163.233,1160.6 173.5,1157C 197.805,1149.27 222.472,1142.94 247.5,1138C 252.098,1135.73 256.431,1133.06 260.5,1130C 303.4,1090.11 341.567,1046.28 375,998.5C 383.023,987.124 390.023,975.124 396,962.5C 397.737,958.339 398.737,954.005 399,949.5C 405.214,945.962 410.881,941.628 416,936.5C 428.061,922.718 438.395,907.718 447,891.5C 446.337,884.737 449.004,880.07 455,877.5C 462.225,863.835 467.891,849.501 472,834.5C 474.823,824.209 477.489,813.876 480,803.5C 488.616,758.752 497.616,714.085 507,669.5C 512.552,635.322 516.886,600.989 520,566.5C 525.249,531.023 538.915,499.356 561,471.5C 570.498,461.165 581.998,453.999 595.5,450C 601.5,449.333 607.5,449.333 613.5,450C 623.715,453.44 633.715,457.44 643.5,462C 633.709,469.456 624.209,477.289 615,485.5C 611.777,488.941 609.944,492.941 609.5,497.5C 613.813,497.452 617.813,496.285 621.5,494C 646.467,476.701 666.967,455.201 683,429.5C 697.65,412.652 715.15,399.986 735.5,391.5 Z"/></g>
<g><path style="opacity:1" fill="#eeeeee" d="M 642.5,398.5 C 647.179,398.334 651.845,398.501 656.5,399C 657.578,399.674 658.245,400.674 658.5,402C 657.365,406.772 655.532,411.272 653,415.5C 649.967,420.372 647.133,425.372 644.5,430.5C 643.667,430.833 642.833,431.167 642,431.5C 633.674,428.845 628.508,423.345 626.5,415C 626.672,409.809 629.005,405.809 633.5,403C 636.437,401.199 639.437,399.699 642.5,398.5 Z"/></g>
<g><path style="opacity:0.004" fill="#fefffe" d="M 1377.5,462.5 C 1413.66,461.336 1450,461.169 1486.5,462C 1450.17,462.5 1413.83,462.667 1377.5,462.5 Z"/></g>
<g><path style="opacity:1" fill="#030303" d="M 1027.5,477.5 C 1035.11,477.759 1042.11,479.926 1048.5,484C 1052.21,490.264 1052.37,496.764 1049,503.5C 1047.07,507.759 1044.73,511.759 1042,515.5C 1037.39,521.171 1033.39,520.838 1030,514.5C 1025.39,502.236 1024.56,489.903 1027.5,477.5 Z"/></g>
<g><path style="opacity:1" fill="#060606" d="M 1059.5,513.5 C 1061.92,513.292 1064.25,513.626 1066.5,514.5C 1067.63,516.074 1067.8,517.741 1067,519.5C 1063.25,531.003 1057.91,541.67 1051,551.5C 1046.59,554.457 1044.26,553.124 1044,547.5C 1043.05,538.451 1044.38,529.785 1048,521.5C 1051.46,518.195 1055.3,515.528 1059.5,513.5 Z"/></g>
<g><path style="opacity:1" fill="#080808" d="M 835.5,520.5 C 840.238,520.397 843.072,522.73 844,527.5C 845.037,533.394 844.371,539.061 842,544.5C 839.333,548.5 836.667,548.5 834,544.5C 830.248,536.13 830.748,528.13 835.5,520.5 Z"/></g>
<g><path style="opacity:1" fill="#f1f1f1" d="M 1391.5,646.5 C 1393.02,646.511 1394.18,647.177 1395,648.5C 1409.34,683.92 1413.67,720.587 1408,758.5C 1402,798.489 1396,838.489 1390,878.5C 1389,883.813 1388.67,889.146 1389,894.5C 1393.12,881.834 1397.62,869.334 1402.5,857C 1403.45,856.383 1404.28,856.549 1405,857.5C 1406.67,864.519 1408.34,871.519 1410,878.5C 1412.75,868.995 1414.09,859.329 1414,849.5C 1408.3,850.306 1405.46,847.64 1405.5,841.5C 1405.32,835.165 1408.15,832.832 1414,834.5C 1415.71,834.561 1417.04,833.894 1418,832.5C 1421.83,820.662 1423.33,808.495 1422.5,796C 1422.29,785.996 1421.96,775.996 1421.5,766C 1421.36,761.656 1421.86,757.489 1423,753.5C 1426.59,761.865 1429.26,770.532 1431,779.5C 1435.19,803.437 1440.52,827.104 1447,850.5C 1451.47,863.443 1458.47,874.776 1468,884.5C 1471.27,889.702 1472.27,895.369 1471,901.5C 1466.74,911.953 1463.07,922.62 1460,933.5C 1452.38,964.25 1446.05,995.25 1441,1026.5C 1439.28,1060.14 1442.62,1060.81 1451,1028.5C 1453.72,1004.54 1458.05,980.875 1464,957.5C 1467.28,948.306 1470.95,939.306 1475,930.5C 1479.16,949.941 1483.82,969.274 1489,988.5C 1495.83,1007.83 1505.5,1025.5 1518,1041.5C 1525.65,1051.23 1535.15,1058.4 1546.5,1063C 1551.36,1063.69 1556.2,1063.53 1561,1062.5C 1565.05,1063.56 1567.39,1066.22 1568,1070.5C 1571.58,1108.48 1587.08,1140.65 1614.5,1167C 1624,1172.92 1633.67,1178.59 1643.5,1184C 1647.13,1187.05 1648.3,1190.88 1647,1195.5C 1645.53,1199.78 1643.53,1203.78 1641,1207.5C 1628.91,1223.35 1616.57,1239.01 1604,1254.5C 1603.33,1255.17 1603.33,1255.83 1604,1256.5C 1621.83,1239.33 1639.67,1222.17 1657.5,1205C 1705.05,1233.47 1735.55,1274.97 1749,1329.5C 1756.63,1356.49 1758.3,1383.82 1754,1411.5C 1750.57,1427.45 1744.24,1442.12 1735,1455.5C 1731.9,1441.27 1728.9,1426.93 1726,1412.5C 1721.47,1396.1 1713.8,1381.43 1703,1368.5C 1678.05,1344.92 1650.21,1341.09 1619.5,1357C 1599.19,1367.97 1582.69,1383.14 1570,1402.5C 1568.17,1408.67 1570.33,1410.83 1576.5,1409C 1580.06,1407.07 1583.73,1406.57 1587.5,1407.5C 1583.57,1413.01 1579.41,1418.35 1575,1423.5C 1570.89,1429.14 1569.73,1435.31 1571.5,1442C 1571.08,1445.27 1570.24,1448.44 1569,1451.5C 1561.33,1464.17 1553.67,1476.83 1546,1489.5C 1545.08,1493.78 1546.92,1495.61 1551.5,1495C 1554.96,1497.99 1555.46,1501.49 1553,1505.5C 1548.09,1513.08 1542.42,1520.08 1536,1526.5C 1534.99,1528.02 1534.49,1529.69 1534.5,1531.5C 1538.96,1531.58 1543.3,1530.91 1547.5,1529.5C 1547.12,1535.28 1545.29,1540.61 1542,1545.5C 1532.2,1558.77 1524.2,1573.1 1518,1588.5C 1517.42,1592.19 1517.59,1595.86 1518.5,1599.5C 1518.31,1601.58 1517.81,1603.58 1517,1605.5C 1512.54,1612.95 1507.71,1620.12 1502.5,1627C 1502.64,1627.77 1502.98,1628.44 1503.5,1629C 1518.48,1628.18 1521.48,1633.68 1512.5,1645.5C 1505.91,1645.38 1500.74,1648.05 1497,1653.5C 1494.75,1657.01 1492.75,1660.67 1491,1664.5C 1490.28,1666.11 1490.45,1667.61 1491.5,1669C 1494.17,1669.33 1496.83,1669.67 1499.5,1670C 1503.29,1672.05 1504.46,1675.22 1503,1679.5C 1501.11,1683.44 1498.61,1686.94 1495.5,1690C 1487.5,1694.67 1479.5,1699.33 1471.5,1704C 1464.45,1710.38 1458.95,1717.88 1455,1726.5C 1454.25,1727.64 1454.42,1728.64 1455.5,1729.5C 1460.66,1725.75 1466,1722.25 1471.5,1719C 1473.47,1718.5 1475.47,1718.34 1477.5,1718.5C 1477.45,1723.06 1475.45,1726.56 1471.5,1729C 1464.38,1733.78 1457.55,1738.95 1451,1744.5C 1450.33,1745.83 1450.33,1747.17 1451,1748.5C 1455.19,1751.93 1459.19,1755.6 1463,1759.5C 1463.67,1760.5 1463.67,1761.5 1463,1762.5C 1461.13,1764.71 1458.96,1766.54 1456.5,1768C 1440.45,1774.9 1424.78,1782.57 1409.5,1791C 1405.62,1793.46 1405.79,1794.96 1410,1795.5C 1417.41,1793.61 1424.91,1792.78 1432.5,1793C 1422.5,1804.67 1409.83,1811 1394.5,1812C 1389.07,1813.46 1384.57,1816.29 1381,1820.5C 1380.51,1821.79 1380.34,1823.13 1380.5,1824.5C 1386.73,1822.83 1393.06,1822.33 1399.5,1823C 1403.38,1825.13 1403.38,1827.46 1399.5,1830C 1389.85,1834.16 1379.85,1837.16 1369.5,1839C 1351.83,1845.33 1335.5,1854 1320.5,1865C 1316.46,1868.7 1312.8,1872.7 1309.5,1877C 1303.68,1878.99 1297.68,1879.99 1291.5,1880C 1287.19,1881.3 1284.69,1884.14 1284,1888.5C 1280.72,1891.32 1276.88,1892.65 1272.5,1892.5C 1263.34,1890.5 1255,1892.33 1247.5,1898C 1242.48,1903.09 1237.48,1908.09 1232.5,1913C 1231.5,1913.67 1230.5,1913.67 1229.5,1913C 1224.6,1907.85 1219.93,1902.52 1215.5,1897C 1211.01,1894.42 1207.85,1895.58 1206,1900.5C 1204.29,1903.42 1204.12,1906.42 1205.5,1909.5C 1209.67,1911.33 1213.17,1914 1216,1917.5C 1217.17,1921.68 1215.67,1924.52 1211.5,1926C 1206.89,1927.01 1202.56,1926.34 1198.5,1924C 1192.17,1919 1186.5,1913.33 1181.5,1907C 1168.7,1901.15 1160.2,1904.98 1156,1918.5C 1155.67,1922.17 1155.33,1925.83 1155,1929.5C 1154.27,1931.74 1152.77,1933.07 1150.5,1933.5C 1147.34,1932.85 1144.84,1931.18 1143,1928.5C 1139.82,1920.11 1136.49,1911.78 1133,1903.5C 1129.69,1899.16 1127.03,1899.5 1125,1904.5C 1125.07,1910.83 1125.07,1917.16 1125,1923.5C 1124.57,1926.76 1122.74,1928.43 1119.5,1928.5C 1114.26,1927.1 1109.59,1924.6 1105.5,1921C 1096.3,1912.14 1087.47,1902.97 1079,1893.5C 1070.63,1903.53 1061.97,1913.19 1053,1922.5C 1010.48,1909.82 971.317,1890.66 935.5,1865C 866.466,1813.31 813.633,1748.47 777,1670.5C 757.463,1623.02 745.796,1573.68 742,1522.5C 743.111,1518.06 745.111,1514.06 748,1510.5C 748.92,1507.9 749.587,1505.23 750,1502.5C 750.127,1487.8 750.794,1473.13 752,1458.5C 754.189,1448.12 758.523,1438.79 765,1430.5C 776.507,1420.15 786.507,1421.48 795,1434.5C 798.182,1443.71 803.016,1451.87 809.5,1459C 813.493,1459.75 816.326,1458.25 818,1454.5C 823.953,1443.14 823.953,1431.81 818,1420.5C 812.524,1414.01 805.691,1410.68 797.5,1410.5C 803.089,1406.42 808.256,1401.75 813,1396.5C 815.977,1391.91 817.977,1386.91 819,1381.5C 821.841,1379.5 825.007,1379 828.5,1380C 832.729,1381.11 836.729,1382.78 840.5,1385C 846.835,1389.5 853.502,1393.5 860.5,1397C 862.112,1397.72 863.612,1397.55 865,1396.5C 870.857,1382.13 876.69,1367.79 882.5,1353.5C 880.605,1345.76 876.771,1339.09 871,1333.5C 864.763,1321.94 862.763,1309.61 865,1296.5C 874.27,1269.6 888.77,1266.44 908.5,1287C 911.308,1287.92 913.475,1287.09 915,1284.5C 923.403,1269.93 926.403,1254.27 924,1237.5C 922.527,1225.6 919.193,1214.27 914,1203.5C 910.221,1195.54 904.055,1190.87 895.5,1189.5C 892.316,1189.51 889.483,1190.51 887,1192.5C 886.304,1196.91 886.637,1201.24 888,1205.5C 894.492,1218.15 900.158,1231.15 905,1244.5C 906.01,1249.56 905.51,1254.39 903.5,1259C 902.167,1259.17 900.833,1259.33 899.5,1259.5C 892.758,1257.63 886.092,1255.47 879.5,1253C 866.937,1252.04 858.437,1257.54 854,1269.5C 850.825,1277.71 849.325,1286.21 849.5,1295C 851.309,1313.83 852.975,1332.66 854.5,1351.5C 854.333,1356.17 854.167,1360.83 854,1365.5C 853.392,1369.46 851.226,1370.96 847.5,1370C 844.872,1368.37 842.539,1366.37 840.5,1364C 827.282,1356.05 816.449,1358.55 808,1371.5C 804.457,1380.77 799.291,1388.93 792.5,1396C 788.26,1398.78 783.593,1400.12 778.5,1400C 769.137,1405.03 761.303,1411.86 755,1420.5C 748.043,1430.25 741.21,1440.08 734.5,1450C 733.5,1450.67 732.5,1450.67 731.5,1450C 730.206,1447.91 729.039,1445.75 728,1443.5C 721.393,1415.68 712.393,1388.68 701,1362.5C 698.193,1357.7 694.693,1353.53 690.5,1350C 688.419,1349.13 686.253,1348.63 684,1348.5C 670.324,1351.49 665.99,1346.49 671,1333.5C 673.542,1330.38 676.542,1327.72 680,1325.5C 681.92,1322.66 683.587,1319.66 685,1316.5C 695.292,1283.46 700.459,1249.62 700.5,1215C 699.043,1196.18 698.209,1177.35 698,1158.5C 698.704,1152.43 701.038,1147.09 705,1142.5C 707.472,1136.41 706.805,1130.74 703,1125.5C 688.968,1112.38 672.468,1106.88 653.5,1109C 645.058,1113.44 639.558,1120.28 637,1129.5C 635.11,1136.73 633.777,1144.06 633,1151.5C 630.867,1159.3 626.701,1165.8 620.5,1171C 589.562,1189.03 567.062,1214.53 553,1247.5C 550.275,1254.07 549.941,1260.74 552,1267.5C 554.674,1269.87 557.841,1271.04 561.5,1271C 562.667,1272.17 563.833,1273.33 565,1274.5C 568.047,1280.3 570.714,1286.3 573,1292.5C 575.633,1297.07 579.467,1298.57 584.5,1297C 589.342,1289.94 587.842,1284.44 580,1280.5C 579.333,1279.17 578.667,1277.83 578,1276.5C 578.036,1270.79 578.369,1265.12 579,1259.5C 564.508,1255.35 563.675,1248.85 576.5,1240C 594.409,1233.31 609.576,1222.81 622,1208.5C 622.97,1206.73 623.804,1204.89 624.5,1203C 623.351,1201.27 623.351,1199.6 624.5,1198C 629.711,1199.13 635.044,1199.46 640.5,1199C 648.756,1192.82 652.756,1184.49 652.5,1174C 652.376,1166.59 649.876,1160.09 645,1154.5C 644.28,1152.89 644.446,1151.39 645.5,1150C 649.5,1149.33 653.5,1149.33 657.5,1150C 669.991,1160.16 675.491,1173.33 674,1189.5C 673.333,1190.83 672.667,1192.17 672,1193.5C 668.403,1195.1 665.403,1197.43 663,1200.5C 662.333,1202.5 662.333,1204.5 663,1206.5C 668.44,1207.31 673.94,1207.48 679.5,1207C 684.125,1212.42 686.125,1218.75 685.5,1226C 682.49,1255.21 675.324,1283.37 664,1310.5C 657.342,1332.41 655.009,1354.74 657,1377.5C 657.803,1380.24 658.803,1382.91 660,1385.5C 661.938,1387.98 664.105,1388.15 666.5,1386C 670.263,1381.15 674.263,1376.48 678.5,1372C 683.242,1369.77 687.075,1370.94 690,1375.5C 696.969,1389.02 701.635,1403.36 704,1418.5C 709.359,1476.32 719.359,1533.32 734,1589.5C 741.09,1617.77 750.757,1645.11 763,1671.5C 773.326,1682.82 779.326,1696.16 781,1711.5C 788.141,1727.12 796.808,1741.79 807,1755.5C 832.52,1790.37 861.02,1822.87 892.5,1853C 902.587,1862.42 913.253,1871.09 924.5,1879C 936.5,1885.33 948.5,1891.67 960.5,1898C 965.563,1901.87 966.73,1906.7 964,1912.5C 961.611,1917.55 958.445,1922.05 954.5,1926C 953.167,1926.67 951.833,1926.67 950.5,1926C 946.132,1921.97 942.132,1917.63 938.5,1913C 935.661,1911.08 932.661,1909.41 929.5,1908C 911.052,1905.18 893.719,1899.18 877.5,1890C 876.643,1889.31 875.977,1888.48 875.5,1887.5C 878.593,1886.64 881.427,1885.31 884,1883.5C 885.466,1878.27 883.966,1874.1 879.5,1871C 873.053,1866.37 866.387,1865.7 859.5,1869C 854.85,1873.57 853.35,1879.07 855,1885.5C 857.456,1892.53 859.29,1899.7 860.5,1907C 861.633,1912.88 859.633,1914.55 854.5,1912C 847.519,1900.91 844.519,1888.74 845.5,1875.5C 845.651,1870.65 845.984,1865.82 846.5,1861C 845.526,1849.44 839.693,1845.61 829,1849.5C 829.521,1857.82 829.854,1866.15 830,1874.5C 828.742,1879.52 825.909,1880.69 821.5,1878C 817.204,1872.91 814.371,1867.07 813,1860.5C 812.294,1855.69 811.794,1850.85 811.5,1846C 812.12,1840.05 812.954,1834.22 814,1828.5C 812.181,1823.66 808.681,1820.83 803.5,1820C 795.029,1817.15 791.529,1819.99 793,1828.5C 795.084,1832.34 797.417,1836 800,1839.5C 801.432,1847.74 798.265,1850.57 790.5,1848C 785.917,1844.09 782.083,1839.59 779,1834.5C 779.148,1845.16 779.148,1855.83 779,1866.5C 777.862,1873.1 774.862,1874.1 770,1869.5C 765.927,1861.86 760.76,1855.03 754.5,1849C 750.119,1846.49 745.453,1844.83 740.5,1844C 748.85,1840.77 756.85,1836.77 764.5,1832C 768.01,1828.14 769.51,1823.64 769,1818.5C 767.833,1816.67 766.333,1815.17 764.5,1814C 757.425,1813.08 750.425,1811.75 743.5,1810C 740.333,1808.17 737.833,1805.67 736,1802.5C 731.926,1793.21 730.259,1783.55 731,1773.5C 731.414,1773.04 731.914,1772.71 732.5,1772.5C 736.223,1775.6 740.223,1776.1 744.5,1774C 748.711,1768.37 747.711,1763.7 741.5,1760C 738.217,1759.26 735.217,1759.92 732.5,1762C 729.405,1766.18 726.072,1770.18 722.5,1774C 706.008,1782.67 696.842,1777.84 695,1759.5C 690.488,1749.31 682.655,1745.15 671.5,1747C 670.17,1749.88 670.336,1752.71 672,1755.5C 674.282,1759.72 677.282,1763.38 681,1766.5C 684.111,1770.39 686.444,1774.72 688,1779.5C 688.752,1782.89 688.585,1786.23 687.5,1789.5C 682.85,1792.73 679.35,1791.73 677,1786.5C 675.928,1781.19 674.928,1775.86 674,1770.5C 670.811,1765.82 666.311,1763.66 660.5,1764C 658.667,1763.5 657.5,1762.33 657,1760.5C 657.606,1745.73 660.606,1731.4 666,1717.5C 666.997,1714.2 667.33,1710.87 667,1707.5C 665.992,1705.74 664.492,1704.57 662.5,1704C 656.283,1704.06 650.283,1703.06 644.5,1701C 642.081,1699.49 641.081,1697.32 641.5,1694.5C 638.393,1694.35 635.393,1694.85 632.5,1696C 625.788,1701.39 618.288,1703.22 610,1701.5C 608.699,1699.64 608.365,1697.64 609,1695.5C 611.869,1692.3 615.035,1689.46 618.5,1687C 625.634,1682.7 632.634,1678.2 639.5,1673.5C 641.256,1671.81 641.756,1669.81 641,1667.5C 636.612,1661.44 631.278,1656.44 625,1652.5C 623.779,1653.27 622.779,1654.27 622,1655.5C 620.585,1662.5 618.252,1669.16 615,1675.5C 611.645,1680.31 607.979,1680.64 604,1676.5C 603.665,1660.83 597.665,1647.83 586,1637.5C 584,1634.5 584,1631.5 586,1628.5C 599.932,1613.04 596.765,1607.54 576.5,1612C 573.11,1601.07 576.11,1592.07 585.5,1585C 590.72,1582.7 596.053,1580.7 601.5,1579C 603.211,1577.87 603.711,1576.37 603,1574.5C 599.491,1567.78 594.824,1562.11 589,1557.5C 587.739,1557.76 586.739,1558.43 586,1559.5C 583.21,1564.92 580.043,1570.08 576.5,1575C 567.35,1581.38 563.016,1578.88 563.5,1567.5C 564.661,1553.5 571.161,1542.83 583,1535.5C 582.69,1526.12 579.024,1518.12 572,1511.5C 569.377,1520.25 566.377,1528.91 563,1537.5C 559.066,1541.84 555.733,1541.51 553,1536.5C 552.857,1528.77 552.19,1521.1 551,1513.5C 547.87,1508.96 544.536,1504.62 541,1500.5C 540.222,1490.11 545.055,1484.44 555.5,1483.5C 574.436,1487.2 578.936,1480.53 569,1463.5C 566.955,1460.58 564.788,1457.74 562.5,1455C 561.167,1454.33 559.833,1454.33 558.5,1455C 556.807,1458.22 554.973,1461.38 553,1464.5C 548.333,1468.5 543.667,1468.5 539,1464.5C 532.879,1454.05 531.879,1443.05 536,1431.5C 537.483,1427.33 540.316,1425.83 544.5,1427C 546.712,1429.92 548.545,1433.09 550,1436.5C 557.524,1440.51 561.691,1438.17 562.5,1429.5C 561.53,1423.89 559.696,1418.55 557,1413.5C 555.533,1410.73 553.7,1408.23 551.5,1406C 550.167,1405.33 548.833,1405.33 547.5,1406C 544.988,1409.85 541.821,1413.01 538,1415.5C 536.265,1414.32 535.265,1412.65 535,1410.5C 533.485,1392.53 533.152,1374.53 534,1356.5C 534.35,1349.73 535.35,1343.07 537,1336.5C 537.608,1332.54 539.774,1331.04 543.5,1332C 545.51,1336.61 546.01,1341.44 545,1346.5C 542.698,1353.03 541.365,1359.7 541,1366.5C 549.333,1358.17 557.667,1349.83 566,1341.5C 567.885,1339.09 568.552,1336.42 568,1333.5C 565.075,1331.29 562.241,1328.95 559.5,1326.5C 558.066,1324.78 557.233,1322.78 557,1320.5C 557.228,1307.14 557.895,1293.8 559,1280.5C 558.215,1278.71 557.049,1277.21 555.5,1276C 550.155,1274 544.822,1272 539.5,1270C 537.951,1268.79 536.785,1267.29 536,1265.5C 536.055,1257.32 536.555,1249.16 537.5,1241C 537.333,1237.5 537.167,1234 537,1230.5C 530.038,1198.86 531.371,1167.52 541,1136.5C 551.297,1098.58 567.964,1063.91 591,1032.5C 596.351,1026.58 602.517,1021.75 609.5,1018C 616.184,1016.48 622.184,1017.81 627.5,1022C 631.097,1022.97 634.764,1023.47 638.5,1023.5C 646.195,1022.63 653.862,1021.63 661.5,1020.5C 661.649,1021.55 661.483,1022.55 661,1023.5C 657.257,1027.99 653.757,1032.65 650.5,1037.5C 651.167,1037.83 651.833,1038.17 652.5,1038.5C 660.331,1035.77 667.998,1036.27 675.5,1040C 689.622,1046.12 702.122,1054.62 713,1065.5C 716.445,1070.06 719.112,1075.06 721,1080.5C 723.5,1084.33 726.667,1087.5 730.5,1090C 749.632,1099.05 768.965,1107.71 788.5,1116C 794.122,1117.26 799.789,1118.26 805.5,1119C 831.419,1120.85 857.086,1119.19 882.5,1114C 889.002,1112.41 895.002,1109.75 900.5,1106C 921.803,1099.8 943.469,1095.8 965.5,1094C 971.564,1116.09 977.398,1138.26 983,1160.5C 984.306,1143.59 984.972,1126.59 985,1109.5C 985.562,1104.92 986.895,1100.58 989,1096.5C 990.388,1095.45 991.888,1095.28 993.5,1096C 995.359,1097.56 996.859,1099.39 998,1101.5C 1002.6,1113.64 1006.6,1125.97 1010,1138.5C 1010.47,1119.16 1013.14,1100.16 1018,1081.5C 1023.41,1068.22 1030.41,1067.22 1039,1078.5C 1048.47,1098.12 1054.47,1118.79 1057,1140.5C 1060.68,1179.6 1059.68,1218.6 1054,1257.5C 1046.84,1305.17 1039.5,1352.84 1032,1400.5C 1028.63,1425.06 1026.63,1449.73 1026,1474.5C 1025.65,1476.18 1024.65,1477.18 1023,1477.5C 1019.44,1475.95 1016.44,1473.61 1014,1470.5C 1006.35,1456.65 1005.02,1442.32 1010,1427.5C 1011.67,1426.83 1013.33,1426.17 1015,1425.5C 1017.31,1417.98 1016.48,1410.81 1012.5,1404C 1010.63,1403.29 1009.13,1403.79 1008,1405.5C 1002.75,1414.34 997.746,1423.34 993,1432.5C 991.595,1434.65 989.761,1436.32 987.5,1437.5C 984.3,1432.95 980.967,1428.45 977.5,1424C 971.572,1420.64 965.239,1418.64 958.5,1418C 951.461,1410.98 950.628,1403.15 956,1394.5C 956.804,1393.2 957.971,1392.53 959.5,1392.5C 962.441,1393.61 964.608,1395.61 966,1398.5C 966.113,1403.32 966.947,1407.98 968.5,1412.5C 970.187,1413.57 971.854,1413.4 973.5,1412C 979.48,1404.54 984.314,1396.38 988,1387.5C 994.287,1366.3 1001.95,1345.64 1011,1325.5C 1013.67,1322.17 1016.33,1318.83 1019,1315.5C 1019.9,1312.53 1019.4,1309.87 1017.5,1307.5C 1012.17,1304.58 1006.5,1302.41 1000.5,1301C 998,1299.83 996.167,1298 995,1295.5C 995.056,1283.82 995.556,1272.16 996.5,1260.5C 991.237,1262.29 987.404,1260.62 985,1255.5C 980.727,1242.86 978.727,1229.86 979,1216.5C 977.117,1210.16 973.617,1208.99 968.5,1213C 960.987,1220.53 954.821,1229.03 950,1238.5C 949.333,1240.17 949.333,1241.83 950,1243.5C 955.823,1248.08 961.823,1252.41 968,1256.5C 973.041,1261.53 974.708,1267.53 973,1274.5C 970.816,1279.51 966.983,1281.84 961.5,1281.5C 954.906,1279.89 948.239,1279.39 941.5,1280C 938.941,1282.93 938.941,1285.93 941.5,1289C 949.857,1290.45 957.857,1293.12 965.5,1297C 970.739,1301.72 972.572,1307.55 971,1314.5C 969.341,1321.01 965.841,1326.17 960.5,1330C 941.714,1333.79 931.88,1345.29 931,1364.5C 931.561,1365.02 932.228,1365.36 933,1365.5C 935.281,1364.22 937.281,1362.56 939,1360.5C 941,1356.5 943,1352.5 945,1348.5C 946.584,1347.14 948.418,1346.47 950.5,1346.5C 950.605,1350.69 949.772,1354.69 948,1358.5C 943.667,1366.17 939.333,1373.83 935,1381.5C 934.333,1385.5 934.333,1389.5 935,1393.5C 937.079,1397.99 939.412,1402.33 942,1406.5C 942.798,1408.26 942.631,1409.93 941.5,1411.5C 936.553,1412.28 931.553,1412.78 926.5,1413C 921.112,1414.04 918.945,1417.21 920,1422.5C 921.569,1426.07 923.902,1429.07 927,1431.5C 931.306,1443.1 929.473,1453.6 921.5,1463C 919.966,1463.92 918.299,1464.42 916.5,1464.5C 906.857,1462.43 903.69,1466.1 907,1475.5C 914.833,1480.76 923.333,1481.92 932.5,1479C 934.624,1477.88 936.457,1476.38 938,1474.5C 937.791,1464.12 941.291,1455.28 948.5,1448C 952.021,1445.57 954.855,1446.07 957,1449.5C 958.321,1461.88 955.988,1473.55 950,1484.5C 948.542,1486.96 946.709,1489.13 944.5,1491C 941.189,1490.79 937.856,1490.79 934.5,1491C 933.069,1491.47 931.903,1492.3 931,1493.5C 929.001,1500.86 925.168,1507.03 919.5,1512C 918.167,1512.67 916.833,1513.33 915.5,1514C 911.106,1514.3 906.773,1514.97 902.5,1516C 897.74,1519.22 897.24,1523.06 901,1527.5C 902.497,1529.68 904.497,1531.01 907,1531.5C 912.591,1529.87 917.591,1527.21 922,1523.5C 923.653,1523.82 924.653,1524.82 925,1526.5C 927.182,1537.42 925.182,1547.42 919,1556.5C 913.711,1560.12 908.711,1564.12 904,1568.5C 901.843,1571.86 902.009,1575.03 904.5,1578C 909.457,1578.75 914.29,1578.25 919,1576.5C 921.881,1577.04 923.881,1578.71 925,1581.5C 925.667,1587.83 925.667,1594.17 925,1600.5C 922.602,1607.29 917.769,1610.45 910.5,1610C 905.93,1615.57 906.93,1619.91 913.5,1623C 918.282,1623.12 922.949,1623.79 927.5,1625C 929.43,1627.26 930.93,1629.76 932,1632.5C 933.526,1641.32 932.192,1649.65 928,1657.5C 924.947,1660.89 922.28,1664.55 920,1668.5C 919.175,1670.7 919.675,1672.53 921.5,1674C 924.167,1674.67 926.833,1674.67 929.5,1674C 932.852,1671.47 936.519,1669.63 940.5,1668.5C 944.151,1668.74 946.984,1670.41 949,1673.5C 962.81,1694.78 974.81,1717.12 985,1740.5C 985.912,1744.45 985.245,1748.12 983,1751.5C 973.451,1756.36 964.285,1761.86 955.5,1768C 953.887,1770.23 953.22,1772.73 953.5,1775.5C 971.49,1775.84 985.156,1768.34 994.5,1753C 999.324,1750.55 1003.49,1751.39 1007,1755.5C 1008.33,1757.5 1009.67,1759.5 1011,1761.5C 1013.6,1768.31 1016.77,1774.81 1020.5,1781C 1021.61,1781.64 1022.78,1782.14 1024,1782.5C 1033.92,1774.72 1044.09,1774.55 1054.5,1782C 1059.24,1786.08 1060.57,1791.08 1058.5,1797C 1058.61,1798.9 1059.28,1800.56 1060.5,1802C 1071.16,1807.69 1082.16,1808.69 1093.5,1805C 1094.75,1801.42 1097.25,1799.92 1101,1800.5C 1108.37,1802.51 1115.87,1804.01 1123.5,1805C 1161.58,1807.12 1198.58,1801.78 1234.5,1789C 1241.9,1786.22 1248.4,1782.05 1254,1776.5C 1255.17,1772.95 1255.84,1769.29 1256,1765.5C 1261.33,1760.17 1266.67,1760.17 1272,1765.5C 1270.8,1775.3 1274.97,1779.14 1284.5,1777C 1285.96,1774.92 1286.62,1772.59 1286.5,1770C 1285.58,1764.52 1285.42,1759.02 1286,1753.5C 1289.62,1750.66 1292.95,1750.99 1296,1754.5C 1297.18,1758.77 1298.18,1763.1 1299,1767.5C 1301.49,1771.87 1304.99,1772.7 1309.5,1770C 1312.88,1767.98 1314.22,1764.98 1313.5,1761C 1313.33,1759.17 1313.17,1757.33 1313,1755.5C 1311.02,1751.04 1309.19,1746.54 1307.5,1742C 1307.44,1740.29 1308.11,1738.96 1309.5,1738C 1314.04,1737.27 1318.37,1737.93 1322.5,1740C 1324.83,1743 1327.17,1746 1329.5,1749C 1341.34,1749.67 1351.17,1745.5 1359,1736.5C 1360.59,1734.33 1361.92,1732 1363,1729.5C 1363,1724.17 1363,1718.83 1363,1713.5C 1367.89,1704.23 1375.06,1702.06 1384.5,1707C 1388.17,1710 1391.83,1713 1395.5,1716C 1399.18,1717.03 1402.35,1716.19 1405,1713.5C 1407.98,1709.24 1409.31,1704.57 1409,1699.5C 1407.94,1698.9 1406.77,1698.57 1405.5,1698.5C 1399.93,1700.42 1394.26,1701.59 1388.5,1702C 1384.29,1692.06 1387.29,1685.06 1397.5,1681C 1405.48,1679.91 1413.48,1678.91 1421.5,1678C 1425.57,1677.38 1428.91,1675.54 1431.5,1672.5C 1431.17,1672.17 1430.83,1671.83 1430.5,1671.5C 1420.61,1675.45 1417.11,1672.12 1420,1661.5C 1425.37,1650.02 1432.37,1648.69 1441,1657.5C 1442.04,1656.38 1442.71,1655.04 1443,1653.5C 1443.67,1645.5 1443.67,1637.5 1443,1629.5C 1442.53,1628.07 1441.7,1626.9 1440.5,1626C 1435.74,1625.71 1431.08,1626.04 1426.5,1627C 1428.28,1624.76 1428.78,1622.26 1428,1619.5C 1424.97,1614.48 1421.97,1609.48 1419,1604.5C 1416.65,1591.4 1419.81,1579.9 1428.5,1570C 1433.41,1568.77 1437.57,1566.27 1441,1562.5C 1447.07,1555.43 1451.9,1547.6 1455.5,1539C 1455.17,1538.5 1454.83,1538 1454.5,1537.5C 1446.92,1539.99 1444.42,1537.33 1447,1529.5C 1448.06,1526.38 1449.39,1523.38 1451,1520.5C 1455.38,1515.79 1459.38,1510.79 1463,1505.5C 1463.86,1502.73 1464.36,1499.9 1464.5,1497C 1463.71,1492.84 1463.54,1488.68 1464,1484.5C 1466.91,1480.72 1470.74,1479.56 1475.5,1481C 1484.43,1485.06 1485.93,1491.23 1480,1499.5C 1476.67,1503.5 1473.33,1507.5 1470,1511.5C 1469.09,1515.45 1469.76,1519.12 1472,1522.5C 1475.74,1525.64 1477.57,1529.64 1477.5,1534.5C 1472.43,1535.71 1468.6,1538.71 1466,1543.5C 1456.48,1564.28 1455.14,1585.61 1462,1607.5C 1492.51,1553.78 1505.85,1496.11 1502,1434.5C 1500.83,1426.99 1497.66,1420.49 1492.5,1415C 1488.04,1412.83 1483.87,1413.33 1480,1416.5C 1478.42,1414.09 1477.42,1411.42 1477,1408.5C 1474.15,1386.53 1473.82,1364.53 1476,1342.5C 1476.33,1341.17 1476.67,1339.83 1477,1338.5C 1477.72,1337.55 1478.55,1337.38 1479.5,1338C 1481.76,1340.77 1483.26,1343.94 1484,1347.5C 1485.89,1362.44 1487.22,1377.44 1488,1392.5C 1488.25,1397.16 1489.75,1401.32 1492.5,1405C 1495.79,1405.75 1498.29,1404.58 1500,1401.5C 1503.97,1391.25 1508.14,1381.09 1512.5,1371C 1511.96,1369.05 1510.62,1368.22 1508.5,1368.5C 1505.19,1369.38 1501.85,1369.55 1498.5,1369C 1496.96,1367.42 1495.79,1365.59 1495,1363.5C 1491.25,1348.77 1487.25,1334.1 1483,1319.5C 1478.2,1311.56 1474.2,1303.23 1471,1294.5C 1459.79,1262.87 1449.79,1230.87 1441,1198.5C 1441.14,1185.06 1438.14,1172.4 1432,1160.5C 1430.74,1158.39 1428.9,1157.39 1426.5,1157.5C 1426.67,1160.85 1426.5,1164.18 1426,1167.5C 1425.69,1168.31 1425.19,1168.97 1424.5,1169.5C 1421.19,1165.02 1417.69,1160.69 1414,1156.5C 1410.76,1168.53 1414.93,1177.03 1426.5,1182C 1427.9,1183.06 1428.9,1184.39 1429.5,1186C 1428.26,1188.38 1426.42,1190.22 1424,1191.5C 1422.99,1193.53 1422.49,1195.7 1422.5,1198C 1424.18,1207.05 1426.68,1215.88 1430,1224.5C 1430.5,1227.82 1430.67,1231.15 1430.5,1234.5C 1424.64,1231.49 1419.81,1227.15 1416,1221.5C 1404.47,1205.77 1396.14,1188.44 1391,1169.5C 1389.57,1146.64 1383.23,1125.31 1372,1105.5C 1359.5,1067.85 1354.17,1029.18 1356,989.5C 1363.26,929.772 1370.92,870.106 1379,810.5C 1383.66,764.287 1386,717.953 1386,671.5C 1386.37,665.796 1387.03,660.13 1388,654.5C 1388.37,651.435 1389.53,648.768 1391.5,646.5 Z"/></g>
<g><path style="opacity:1" fill="#060606" d="M 828.5,664.5 C 838.172,664.334 847.839,664.5 857.5,665C 864.691,665.252 871.191,667.419 877,671.5C 879.186,677.304 877.353,681.471 871.5,684C 855.997,689.276 842.664,685.942 831.5,674C 828.97,672.578 826.303,672.245 823.5,673C 815.658,681.401 805.992,686.401 794.5,688C 784.023,691.067 773.356,692.067 762.5,691C 761.643,690.311 760.977,689.478 760.5,688.5C 761.924,686.282 763.924,684.782 766.5,684C 781.791,682.348 796.124,677.681 809.5,670C 815.97,668.216 822.303,666.383 828.5,664.5 Z"/></g>
<g><path style="opacity:1" fill="#090909" d="M 643.5,686.5 C 650.333,702.532 654.666,719.366 656.5,737C 657.377,743.629 654.711,747.795 648.5,749.5C 646.088,749.594 644.255,748.594 643,746.5C 639.646,736.09 638.646,725.423 640,714.5C 641.756,705.226 642.923,695.893 643.5,686.5 Z"/></g>
<g><path style="opacity:1" fill="#090909" d="M 833.5,736.5 C 835.178,740.635 836.678,744.968 838,749.5C 838.785,751.286 839.951,752.786 841.5,754C 846.505,754.082 851.505,754.082 856.5,754C 861.748,755.153 863.082,757.82 860.5,762C 852.257,762.302 844.924,764.969 838.5,770C 826.493,780.185 819.326,793.019 817,808.5C 809.217,822.617 798.383,833.784 784.5,842C 782.866,842.494 781.199,842.66 779.5,842.5C 779.491,840.692 779.991,839.025 781,837.5C 786.563,832.637 792.396,828.137 798.5,824C 805.783,817.892 808.617,810.058 807,800.5C 809.921,794.585 813.921,789.585 819,785.5C 820,783.5 821,781.5 822,779.5C 823.821,769.154 825.821,758.821 828,748.5C 829.574,744.354 831.407,740.354 833.5,736.5 Z"/></g>
<g><path style="opacity:1" fill="#0b0b0b" d="M 1002.5,764.5 C 1003.5,764.5 1004.5,764.5 1005.5,764.5C 1004.94,767.462 1003.94,770.295 1002.5,773C 1004,776.071 1006,778.738 1008.5,781C 1007.8,782.893 1006.97,784.726 1006,786.5C 998.333,795.5 990,803.833 981,811.5C 985.085,803.355 989.751,795.355 995,787.5C 999.966,779.505 997.8,776.005 988.5,777C 988.043,776.586 987.709,776.086 987.5,775.5C 992.238,771.422 997.238,767.756 1002.5,764.5 Z"/></g>
<g><path style="opacity:1" fill="#030303" d="M 699.5,874.5 C 704.454,875.957 707.62,879.291 709,884.5C 709.285,900.785 717.452,908.952 733.5,909C 738.3,906.431 742.967,903.598 747.5,900.5C 748.884,903.582 750.217,906.749 751.5,910C 755.715,908.579 760.048,907.079 764.5,905.5C 769.373,906.528 773.706,908.695 777.5,912C 780.631,916.133 784.131,919.966 788,923.5C 788.432,924.6 787.932,925.267 786.5,925.5C 776.228,921.086 766.228,921.586 756.5,927C 751.833,930.333 747.167,933.667 742.5,937C 739.691,938.741 736.691,939.908 733.5,940.5C 734.116,935.95 732.949,931.95 730,928.5C 723.452,922.476 716.285,917.309 708.5,913C 696.081,902.357 693.081,889.524 699.5,874.5 Z"/></g>
<g><path style="opacity:1" fill="#0b0b0b" d="M 1401.5,893.5 C 1402.12,893.611 1402.62,893.944 1403,894.5C 1404.02,915.86 1401.69,936.86 1396,957.5C 1395.34,961.005 1393.84,964.005 1391.5,966.5C 1390.2,965.91 1389.37,964.91 1389,963.5C 1391.23,943.775 1394.23,924.108 1398,904.5C 1398.87,900.712 1400.04,897.046 1401.5,893.5 Z"/></g>
<g><path style="opacity:1" fill="#eaeaea" d="M 645.5,939.5 C 651.499,939.002 653.666,941.669 652,947.5C 650.592,951.831 648.092,955.331 644.5,958C 635.921,961.406 633.087,958.572 636,949.5C 638.022,944.98 641.189,941.647 645.5,939.5 Z"/></g>
<g><path style="opacity:1" fill="#070707" d="M 933.5,974.5 C 934.496,974.414 935.329,974.748 936,975.5C 939.972,984.613 938.639,992.947 932,1000.5C 927.686,1003.65 923.852,1007.31 920.5,1011.5C 920.709,1012.09 921.043,1012.59 921.5,1013C 923.833,1013.33 926.167,1013.67 928.5,1014C 929.517,1015.05 929.684,1016.22 929,1017.5C 923.48,1022.02 918.313,1026.86 913.5,1032C 916.017,1034.25 919.017,1035.08 922.5,1034.5C 922.628,1036.65 922.128,1038.65 921,1040.5C 914.138,1047.87 906.304,1053.87 897.5,1058.5C 896.558,1058.39 895.725,1058.06 895,1057.5C 893.356,1045.52 886.523,1039.69 874.5,1040C 873.978,1039.44 873.645,1038.77 873.5,1038C 874.439,1036.06 875.773,1034.39 877.5,1033C 885.829,1028 894.829,1025 904.5,1024C 908.644,1022.73 912.477,1020.9 916,1018.5C 916.333,1015.17 916.667,1011.83 917,1008.5C 920.946,1002.22 925.279,996.221 930,990.5C 929.26,987.251 928.927,983.918 929,980.5C 930.332,978.34 931.832,976.34 933.5,974.5 Z"/></g>
<g><path style="opacity:1" fill="#efefef" d="M 611.5,993.5 C 616.267,993.191 620.934,993.691 625.5,995C 628.6,996.668 629.1,998.835 627,1001.5C 624.749,1003.38 622.249,1004.88 619.5,1006C 610.603,1008.39 601.936,1011.39 593.5,1015C 588.583,1018.59 586.416,1023.42 587,1029.5C 586.167,1030.33 585.333,1031.17 584.5,1032C 579.833,1032 575.167,1032 570.5,1032C 559,1039.15 551.5,1049.31 548,1062.5C 547.73,1079.54 541.563,1094.04 529.5,1106C 528.216,1106.68 527.049,1106.52 526,1105.5C 525.667,1106.17 525.333,1106.83 525,1107.5C 519.936,1141.31 517.603,1175.31 518,1209.5C 519.165,1220.66 521.165,1231.66 524,1242.5C 525.175,1249.31 523.008,1254.81 517.5,1259C 508.027,1263.82 499.527,1269.99 492,1277.5C 490.059,1281.05 488.393,1284.71 487,1288.5C 485.906,1298.53 484.573,1308.53 483,1318.5C 481.973,1322.61 480.64,1326.61 479,1330.5C 477,1333.17 475,1333.17 473,1330.5C 468.221,1317.62 465.555,1304.29 465,1290.5C 464.933,1275.78 464.266,1261.11 463,1246.5C 461.421,1256.13 460.088,1265.8 459,1275.5C 457.928,1280.38 456.261,1285.05 454,1289.5C 452.186,1290.76 450.353,1290.76 448.5,1289.5C 443.258,1276.92 442.092,1263.92 445,1250.5C 447.4,1233.83 452.066,1217.83 459,1202.5C 460.5,1201 462,1199.5 463.5,1198C 464.6,1197.57 465.267,1198.07 465.5,1199.5C 463.664,1204 462.664,1208.67 462.5,1213.5C 464.722,1213.82 466.556,1213.16 468,1211.5C 469.275,1209.28 470.275,1206.95 471,1204.5C 474.914,1168.09 484.914,1133.42 501,1100.5C 507.504,1092.02 512.171,1082.69 515,1072.5C 530.82,1051.01 549.653,1032.51 571.5,1017C 573.92,1017.99 576.253,1017.65 578.5,1016C 588.213,1006.49 599.213,998.987 611.5,993.5 Z"/></g>
<g><path style="opacity:1" fill="#0d0d0d" d="M 784.5,1038.5 C 786.927,1038.52 789.26,1039.02 791.5,1040C 797.5,1043.33 803.5,1046.67 809.5,1050C 819.921,1053.31 830.588,1054.31 841.5,1053C 847.506,1052.16 853.506,1051.33 859.5,1050.5C 861.5,1050.83 863.5,1051.17 865.5,1051.5C 858.432,1055.69 850.765,1058.19 842.5,1059C 823.76,1061.12 806.093,1057.79 789.5,1049C 785.808,1046.45 784.142,1042.95 784.5,1038.5 Z"/></g>
<g><path style="opacity:1" fill="#0a0a0a" d="M 1444.5,1072.5 C 1446.61,1073.36 1447.78,1075.03 1448,1077.5C 1455.14,1113.93 1457.48,1150.6 1455,1187.5C 1453.08,1183.95 1451.92,1180.11 1451.5,1176C 1445.49,1141.68 1443.15,1107.18 1444.5,1072.5 Z"/></g>
<g><path style="opacity:1" fill="#0a0a0a" d="M 1544.5,1080.5 C 1545.64,1083.64 1545.81,1086.97 1545,1090.5C 1540.6,1119.79 1532.93,1148.12 1522,1175.5C 1521.35,1170.81 1521.52,1166.14 1522.5,1161.5C 1526.53,1141.73 1531.03,1122.06 1536,1102.5C 1538.15,1094.86 1540.99,1087.53 1544.5,1080.5 Z"/></g>
<g><path style="opacity:1" fill="#070707" d="M 1556.5,1116.5 C 1557.81,1118.74 1558.48,1121.41 1558.5,1124.5C 1556.16,1147.7 1551.33,1170.37 1544,1192.5C 1543.38,1194.12 1542.38,1195.45 1541,1196.5C 1539.93,1193.62 1539.43,1190.62 1539.5,1187.5C 1540.83,1169.19 1544,1151.19 1549,1133.5C 1550.97,1127.57 1553.47,1121.91 1556.5,1116.5 Z"/></g>
<g><path style="opacity:1" fill="#080808" d="M 1036.5,1117.5 C 1038.93,1117.58 1040.93,1118.58 1042.5,1120.5C 1043.94,1123.05 1045.11,1125.72 1046,1128.5C 1046.67,1134.83 1046.67,1141.17 1046,1147.5C 1044.45,1150 1042.78,1150 1041,1147.5C 1035.66,1137.84 1034.16,1127.84 1036.5,1117.5 Z"/></g>
<g><path style="opacity:1" fill="#ebebeb" d="M 683.5,1132.5 C 689.132,1133.82 691.799,1137.49 691.5,1143.5C 691.86,1150.13 688.86,1154.13 682.5,1155.5C 678.682,1154.91 677.016,1152.57 677.5,1148.5C 678.13,1142.6 680.13,1137.27 683.5,1132.5 Z"/></g>
<g><path style="opacity:1" fill="#070707" d="M 780.5,1329.5 C 779.833,1329.5 779.167,1329.5 778.5,1329.5C 778.542,1302.47 777.709,1275.47 776,1248.5C 775.737,1243.98 774.737,1239.65 773,1235.5C 770.995,1233.2 768.828,1233.2 766.5,1235.5C 766.167,1234.83 765.833,1234.17 765.5,1233.5C 768.976,1225.56 771.143,1217.23 772,1208.5C 772.578,1186.03 774.578,1163.7 778,1141.5C 778.756,1136.28 781.589,1132.95 786.5,1131.5C 791.289,1133.79 795.956,1136.29 800.5,1139C 802.92,1139.69 805.087,1139.19 807,1137.5C 808.453,1140.3 809.453,1143.3 810,1146.5C 809.659,1171.92 811.826,1197.09 816.5,1222C 816.853,1225.2 815.853,1227.87 813.5,1230C 810.702,1230.56 808.869,1229.39 808,1226.5C 807.106,1222.14 806.106,1217.8 805,1213.5C 804.792,1193.81 804.126,1174.15 803,1154.5C 802.867,1151.47 801.867,1148.81 800,1146.5C 798.615,1147.55 797.615,1148.88 797,1150.5C 791.899,1171.2 788.566,1192.2 787,1213.5C 784.606,1252.16 782.439,1290.82 780.5,1329.5 Z"/></g>
<g><path style="opacity:1" fill="#030303" d="M 906.5,1142.5 C 923.454,1141.56 936.621,1148.23 946,1162.5C 952.054,1171.43 953.721,1181.1 951,1191.5C 947.667,1196.83 944.333,1202.17 941,1207.5C 939.939,1212.1 939.273,1216.77 939,1221.5C 938.851,1226.17 936.685,1227.84 932.5,1226.5C 931.902,1225.21 931.402,1223.87 931,1222.5C 930.422,1214.66 930.589,1206.82 931.5,1199C 931.507,1195.74 931.007,1192.58 930,1189.5C 925.336,1183.01 920.169,1177.01 914.5,1171.5C 917.492,1170.01 920.659,1168.67 924,1167.5C 926.583,1158.49 923.083,1154.66 913.5,1156C 909.759,1157.74 906.592,1160.24 904,1163.5C 901.981,1172.54 896.481,1176.37 887.5,1175C 885.571,1171.74 885.071,1168.24 886,1164.5C 889.935,1154.4 896.769,1147.07 906.5,1142.5 Z"/></g>
<g><path style="opacity:1" fill="#0b0b0b" d="M 1009.5,1151.5 C 1010.93,1151.88 1011.76,1152.88 1012,1154.5C 1012.17,1159.5 1012.33,1164.5 1012.5,1169.5C 1012.7,1176.61 1012.03,1183.61 1010.5,1190.5C 1009.5,1177.52 1009.17,1164.52 1009.5,1151.5 Z"/></g>
<g><path style="opacity:1" fill="#0d0d0d" d="M 495.5,1164.5 C 496.814,1166.92 497.481,1169.75 497.5,1173C 496.896,1196.84 493.896,1220.34 488.5,1243.5C 486.467,1216.76 488.801,1190.43 495.5,1164.5 Z"/></g>
<g><path style="opacity:1" fill="#eeeeee" d="M 121.5,1183.5 C 130.926,1185.02 133.426,1190.02 129,1198.5C 112.418,1221.08 92.5843,1240.25 69.5,1256C 67.26,1256.98 64.9267,1257.48 62.5,1257.5C 62.4207,1254.73 62.9207,1252.06 64,1249.5C 78.1878,1226.96 95.0212,1206.46 114.5,1188C 116.898,1186.48 119.231,1184.98 121.5,1183.5 Z"/></g>
<g><path style="opacity:1" fill="#070707" d="M 1516.5,1190.5 C 1517.12,1190.61 1517.62,1190.94 1518,1191.5C 1518.33,1194.5 1518.67,1197.5 1519,1200.5C 1519.67,1238.83 1519.67,1277.17 1519,1315.5C 1518.9,1323.58 1518.24,1331.58 1517,1339.5C 1513.51,1318.99 1511.68,1298.33 1511.5,1277.5C 1512.37,1252.83 1513.2,1228.17 1514,1203.5C 1514.27,1199.01 1515.1,1194.68 1516.5,1190.5 Z"/></g>
<g><path style="opacity:1" fill="#ededed" d="M 597.5,1196.5 C 607.102,1197.02 610.269,1202.02 607,1211.5C 601.553,1217.29 595.553,1217.96 589,1213.5C 587.033,1210 587.367,1206.67 590,1203.5C 592.396,1200.93 594.896,1198.6 597.5,1196.5 Z"/></g>
<g><path style="opacity:1" fill="#050505" d="M 1661.5,1248.5 C 1686.46,1248.29 1703.96,1259.62 1714,1282.5C 1716.52,1288.55 1717.02,1294.72 1715.5,1301C 1711.89,1301.21 1708.55,1300.21 1705.5,1298C 1694.45,1289.91 1687.12,1279.25 1683.5,1266C 1681.83,1265.33 1680.17,1265.33 1678.5,1266C 1673.66,1271.68 1667.66,1275.51 1660.5,1277.5C 1658.73,1277.57 1657.73,1276.73 1657.5,1275C 1659.95,1271.54 1659.95,1268.21 1657.5,1265C 1652.93,1263.69 1648.27,1263.19 1643.5,1263.5C 1643.39,1261.1 1644.39,1259.26 1646.5,1258C 1651.16,1254.15 1656.16,1250.98 1661.5,1248.5 Z"/></g>
<g><path style="opacity:1" fill="#050505" d="M 602.5,1251.5 C 610.545,1251.05 614.378,1254.71 614,1262.5C 608.852,1265.74 605.185,1264.41 603,1258.5C 602.503,1256.19 602.337,1253.86 602.5,1251.5 Z"/></g>
<g><path style="opacity:1" fill="#080808" d="M 1630.5,1267.5 C 1631.83,1267.5 1633.17,1267.5 1634.5,1267.5C 1634.63,1269.65 1634.13,1271.65 1633,1273.5C 1617.99,1287.5 1605.65,1303.5 1596,1321.5C 1594.11,1324.24 1591.61,1325.91 1588.5,1326.5C 1588.42,1323.73 1588.92,1321.06 1590,1318.5C 1600.16,1298.84 1613.66,1281.84 1630.5,1267.5 Z"/></g>
<g><path style="opacity:1" fill="#ededed" d="M 455.5,1312.5 C 461.201,1325.89 468.035,1338.89 476,1351.5C 480.648,1366.59 478.981,1380.92 471,1394.5C 466.544,1400.62 461.711,1406.46 456.5,1412C 447.567,1418.43 443.234,1416.26 443.5,1405.5C 445.661,1393.52 447.828,1381.52 450,1369.5C 451.711,1350.42 453.544,1331.42 455.5,1312.5 Z"/></g>
<g><path style="opacity:1" fill="#7b7b7b" d="M 778.5,1329.5 C 779.167,1329.5 779.833,1329.5 780.5,1329.5C 779.833,1338.83 779.167,1338.83 778.5,1329.5 Z"/></g>
<g><path style="opacity:1" fill="#0a0a0a" d="M 1557.5,1347.5 C 1558.22,1347.92 1558.72,1348.58 1559,1349.5C 1559.58,1369.69 1556.58,1389.36 1550,1408.5C 1548.03,1394.13 1548.37,1379.8 1551,1365.5C 1552.09,1359.05 1554.26,1353.05 1557.5,1347.5 Z"/></g>
<g><path style="opacity:1" fill="#ebebeb" d="M 1486.5,1439.5 C 1488.94,1439.32 1491.1,1439.98 1493,1441.5C 1493.07,1451.53 1489.23,1459.7 1481.5,1466C 1478.69,1466.92 1476.53,1466.09 1475,1463.5C 1472.72,1452.4 1476.55,1444.4 1486.5,1439.5 Z"/></g>
<g><path style="opacity:0.011" fill="#e6e6e6" d="M 1811.5,1367.5 C 1811.5,1478.83 1811.5,1590.17 1811.5,1701.5C 1810.17,1590.17 1810.17,1478.83 1811.5,1367.5 Z"/></g>
<g><path style="opacity:1" fill="#131313" d="M 860.5,1548.5 C 865.212,1548.77 869.045,1550.77 872,1554.5C 872.944,1560.55 870.444,1562.72 864.5,1561C 859.166,1557.89 857.833,1553.72 860.5,1548.5 Z"/></g>
<g><path style="opacity:1" fill="#ececec" d="M 1538.5,1568.5 C 1541.69,1568.02 1544.52,1568.69 1547,1570.5C 1548.18,1578.98 1545.35,1585.81 1538.5,1591C 1533.96,1592.61 1531.12,1591.11 1530,1586.5C 1527.76,1577.98 1530.59,1571.98 1538.5,1568.5 Z"/></g>
<g><path style="opacity:1" fill="#090909" d="M 846.5,1589.5 C 851.102,1589.38 854.935,1591.05 858,1594.5C 859.336,1598.83 857.836,1601.5 853.5,1602.5C 847.212,1600.26 844.879,1595.92 846.5,1589.5 Z"/></g>
<g><path style="opacity:1" fill="#0a0a0a" d="M 604.5,1609.5 C 610.677,1609.49 614.844,1612.49 617,1618.5C 617.867,1622.96 617.534,1627.29 616,1631.5C 613.581,1633.58 610.747,1634.58 607.5,1634.5C 606.563,1627.52 604.897,1620.68 602.5,1614C 602.519,1612.17 603.185,1610.67 604.5,1609.5 Z"/></g>
<g><path style="opacity:1" fill="#0c0c0c" d="M 817.5,1615.5 C 821.694,1615.18 825.527,1616.18 829,1618.5C 829.987,1626.51 826.487,1630.34 818.5,1630C 813.574,1627.65 811.74,1623.81 813,1618.5C 814.652,1617.6 816.152,1616.6 817.5,1615.5 Z"/></g>
<g><path style="opacity:1" fill="#ececec" d="M 1397.5,1629.5 C 1404.81,1628.21 1410.98,1630.21 1416,1635.5C 1416.07,1640.71 1414.41,1645.37 1411,1649.5C 1401.87,1659.8 1391.37,1668.3 1379.5,1675C 1377.87,1675.49 1376.2,1675.66 1374.5,1675.5C 1374.84,1672.48 1376.01,1669.82 1378,1667.5C 1385.38,1660.46 1390.71,1652.13 1394,1642.5C 1394.13,1639.49 1394.13,1636.49 1394,1633.5C 1395.38,1632.29 1396.54,1630.96 1397.5,1629.5 Z"/></g>
<g><path style="opacity:1" fill="#090909" d="M 842.5,1670.5 C 846.967,1670.13 851.3,1670.63 855.5,1672C 858.758,1676.77 857.758,1680.43 852.5,1683C 847.243,1684.43 842.743,1683.26 839,1679.5C 837.665,1675.39 838.832,1672.39 842.5,1670.5 Z"/></g>
<g><path style="opacity:1" fill="#070707" d="M 674.5,1683.5 C 679.765,1682.57 684.265,1683.9 688,1687.5C 689.615,1692.04 688.115,1694.88 683.5,1696C 678.816,1697.1 674.483,1696.44 670.5,1694C 668.439,1689.19 669.772,1685.69 674.5,1683.5 Z"/></g>
<g><path style="opacity:1" fill="#090909" d="M 891.5,1690.5 C 894.85,1690.33 898.183,1690.5 901.5,1691C 903.044,1691.29 904.377,1691.96 905.5,1693C 900.894,1699.61 895.061,1704.78 888,1708.5C 887.228,1708.36 886.561,1708.02 886,1707.5C 883.959,1700.35 885.792,1694.68 891.5,1690.5 Z"/></g>
<g><path style="opacity:1" fill="#070707" d="M 942.5,1707.5 C 956.32,1705.45 960.154,1710.79 954,1723.5C 948.559,1732.8 943.226,1732.8 938,1723.5C 934.949,1716.73 936.449,1711.39 942.5,1707.5 Z"/></g>
<g><path style="opacity:1" fill="#090909" d="M 697.5,1719.5 C 703.764,1721.72 708.597,1725.72 712,1731.5C 713.356,1740.48 709.523,1744.64 700.5,1744C 698.959,1742.42 697.792,1740.59 697,1738.5C 696.21,1732.09 696.376,1725.75 697.5,1719.5 Z"/></g>
<g><path style="opacity:1" fill="#050505" d="M 891.5,1741.5 C 896.742,1741.02 901.742,1741.86 906.5,1744C 908.988,1746.63 909.155,1749.46 907,1752.5C 902.11,1755.78 896.944,1756.28 891.5,1754C 886.181,1749.66 886.181,1745.49 891.5,1741.5 Z"/></g>
<g><path style="opacity:1" fill="#eaeaea" d="M 1126.5,1778.5 C 1134.42,1777.19 1140.92,1779.53 1146,1785.5C 1146.67,1786.5 1146.67,1787.5 1146,1788.5C 1138.97,1792.32 1131.81,1792.49 1124.5,1789C 1120.64,1784.83 1121.3,1781.33 1126.5,1778.5 Z"/></g>
<g><path style="opacity:1" fill="#ececec" d="M 1158.5,1778.5 C 1167.13,1776.69 1174.29,1779.03 1180,1785.5C 1182.09,1791.39 1180.09,1794.39 1174,1794.5C 1167,1792.85 1161.67,1788.85 1158,1782.5C 1157.42,1781.07 1157.59,1779.74 1158.5,1778.5 Z"/></g>
<g><path style="opacity:1" fill="#060606" d="M 1045.5,1819.5 C 1049.52,1818.9 1053.02,1819.9 1056,1822.5C 1056.39,1826.17 1054.89,1829 1051.5,1831C 1041.1,1838.86 1029.44,1843.69 1016.5,1845.5C 1017.43,1841.16 1019.76,1837.66 1023.5,1835C 1030.72,1829.57 1038.06,1824.4 1045.5,1819.5 Z"/></g>
<g><path style="opacity:1" fill="#ececec" d="M 794.5,1870.5 C 797.978,1870.18 801.312,1870.68 804.5,1872C 810.478,1878.31 816.812,1884.31 823.5,1890C 825.332,1890.75 826.999,1891.75 828.5,1893C 835.289,1892.78 838.123,1895.95 837,1902.5C 833.744,1904.43 830.244,1904.93 826.5,1904C 812.665,1900.18 801.832,1892.35 794,1880.5C 791.899,1876.94 792.066,1873.61 794.5,1870.5 Z"/></g>
<g><path style="opacity:1" fill="#040404" d="M 1039.5,1880.5 C 1045.84,1879.76 1050.01,1882.42 1052,1888.5C 1053.86,1895.62 1051.36,1900.45 1044.5,1903C 1037.79,1904.43 1031.62,1903.27 1026,1899.5C 1025.33,1897.5 1025.33,1895.5 1026,1893.5C 1029.74,1888.26 1034.24,1883.93 1039.5,1880.5 Z"/></g>
<g><path style="opacity:1" fill="#e8e8e8" d="M 984.5,1947.5 C 988.936,1947.21 993.27,1947.71 997.5,1949C 1000.55,1951.45 1001.05,1954.28 999,1957.5C 993.287,1961.28 987.454,1961.45 981.5,1958C 978.808,1953.53 979.808,1950.03 984.5,1947.5 Z"/></g>
</svg>
