<svg id="svg" version="1.1" xmlns="http://www.w3.org/2000/svg" xmlns:xlink="http://www.w3.org/1999/xlink" width="400" height="488.96" viewBox="0, 0, 400,488.96"><g id="svgg"><path id="path0" d="M161.408 8.968 C 159.776 10.257,157.964 11.145,156.681 11.284 C 152.866 11.696,151.567 12.756,148.658 17.830 C 147.517 19.818,146.579 20.889,145.511 21.420 C 141.995 23.168,140.737 24.280,139.473 26.756 C 138.947 27.786,138.286 29.025,138.004 29.508 L 137.491 30.386 136.883 29.304 C 136.548 28.709,136.056 27.988,135.790 27.703 C 135.523 27.417,135.166 26.713,134.995 26.138 C 134.097 23.115,129.879 21.780,126.078 23.315 L 124.699 23.872 123.226 23.168 C 118.218 20.774,116.046 20.996,112.679 24.249 C 110.780 26.083,109.446 26.632,106.470 26.802 C 100.260 27.156,98.002 31.113,102.802 33.229 C 104.862 34.137,105.266 34.353,106.568 35.245 C 111.233 38.441,116.019 44.559,118.276 50.215 C 119.073 52.211,121.857 58.543,122.046 58.787 C 122.132 58.900,122.255 59.175,122.317 59.399 C 122.380 59.623,122.677 60.448,122.978 61.233 C 124.459 65.107,124.308 65.690,121.012 68.825 C 119.100 70.643,118.593 70.955,117.779 70.818 C 113.853 70.157,112.217 70.878,110.125 74.192 C 108.829 76.245,107.460 76.588,104.126 75.693 C 99.072 74.336,93.997 75.751,92.351 78.977 C 91.705 80.244,91.375 80.420,88.742 80.902 C 81.940 82.146,77.781 85.278,78.101 88.912 L 78.212 90.168 79.948 91.798 C 81.697 93.440,82.892 95.278,83.551 97.341 C 83.687 97.767,83.879 98.202,83.978 98.309 C 84.076 98.415,84.157 98.855,84.157 99.286 C 84.157 100.479,83.555 100.660,80.746 100.310 C 79.540 100.159,78.095 100.071,77.534 100.114 C 74.947 100.311,72.602 99.142,72.249 97.479 C 71.952 96.081,75.960 87.735,77.147 87.280 C 77.290 87.224,77.470 86.889,77.547 86.534 C 77.742 85.629,78.325 84.534,79.678 82.527 C 80.321 81.574,80.998 80.520,81.183 80.183 C 81.368 79.847,81.684 79.297,81.885 78.961 C 82.323 78.229,83.424 76.199,84.809 73.575 C 86.171 70.992,86.633 70.433,87.922 69.802 C 88.533 69.503,89.817 68.513,90.817 67.569 C 93.666 64.879,93.894 64.726,96.485 63.761 C 98.154 63.139,100.298 61.878,104.733 58.908 C 108.442 56.425,107.904 53.696,103.583 53.072 C 101.482 52.768,101.068 52.148,102.218 51.031 C 102.885 50.383,103.323 50.096,105.121 49.126 C 110.948 45.985,111.458 44.566,108.228 40.472 L 107.121 39.069 104.961 39.180 C 102.897 39.286,100.662 39.802,100.662 40.174 C 100.662 40.269,100.532 40.346,100.373 40.346 C 99.434 40.346,93.077 44.333,89.717 47.030 C 88.963 47.635,87.745 49.218,87.099 50.433 C 86.894 50.820,85.510 53.232,85.074 53.963 C 84.204 55.421,83.143 56.786,82.091 57.799 C 80.512 59.319,80.668 59.182,78.757 60.719 C 74.545 64.106,73.033 66.286,70.627 72.440 C 70.101 73.785,69.515 75.171,69.323 75.521 C 69.132 75.870,68.765 76.541,68.506 77.012 C 67.901 78.115,65.891 80.437,63.181 83.163 C 59.786 86.579,58.074 88.580,58.074 89.134 C 58.074 89.217,57.737 89.969,56.332 93.021 C 55.815 94.142,55.116 96.314,54.593 98.421 C 54.128 100.296,54.600 102.807,55.807 104.881 C 56.102 105.386,56.561 106.180,56.828 106.644 C 57.765 108.271,57.417 110.281,55.852 112.277 C 54.905 113.486,54.890 113.494,53.591 113.492 C 51.175 113.488,50.605 113.145,48.700 110.545 C 44.978 105.465,44.054 105.139,33.348 105.131 C 29.072 105.127,25.010 105.117,24.322 105.107 C 21.643 105.071,16.836 106.459,16.434 107.384 C 16.312 107.666,15.659 108.618,14.983 109.499 C 14.308 110.381,13.663 111.247,13.551 111.424 C 13.439 111.601,13.190 111.925,12.998 112.144 C 10.438 115.063,8.600 122.928,9.553 126.885 C 10.911 132.518,11.817 133.916,15.123 135.480 C 18.769 137.204,20.375 137.295,24.536 136.018 C 26.513 135.411,29.765 135.636,35.252 136.759 C 40.840 137.903,44.073 137.549,47.097 135.462 C 50.270 133.272,51.939 132.654,54.677 132.654 C 57.391 132.654,58.059 133.566,57.139 136.016 C 55.601 140.114,55.649 141.279,57.504 144.982 C 59.775 149.513,62.203 152.318,64.563 153.138 C 70.210 155.100,70.085 155.467,60.418 165.353 C 55.872 170.001,53.410 171.274,47.615 171.975 C 39.675 172.934,37.697 173.636,37.697 175.498 C 37.697 177.424,38.880 178.617,41.096 178.927 C 43.598 179.276,45.442 180.028,45.440 180.698 C 45.436 181.937,43.463 184.745,40.155 188.218 C 36.746 191.796,36.645 193.302,39.724 194.647 C 45.636 197.229,57.613 190.637,60.669 183.119 C 60.949 182.429,61.328 181.500,61.511 181.055 C 62.054 179.734,64.260 177.182,66.017 175.841 C 67.495 174.713,68.055 174.297,68.471 174.019 C 69.393 173.405,74.930 169.056,75.191 168.742 C 75.293 168.619,75.515 168.487,77.256 167.516 C 79.494 166.267,81.315 164.473,83.788 161.080 C 87.838 155.523,87.635 154.613,81.184 149.437 C 80.746 149.086,79.665 148.221,78.782 147.515 C 75.753 145.093,75.409 144.025,77.580 143.774 C 78.227 143.699,79.582 143.504,80.591 143.340 C 81.600 143.177,83.250 142.910,84.259 142.746 C 87.644 142.197,90.170 142.148,91.149 142.611 C 94.584 144.237,98.045 143.693,103.599 140.655 C 104.320 140.260,104.637 140.214,105.960 140.309 C 107.780 140.438,108.666 140.272,111.332 139.298 C 112.791 138.765,113.671 138.563,114.544 138.563 C 116.484 138.563,122.153 137.039,124.208 135.965 C 124.773 135.669,126.736 134.887,129.088 134.019 C 130.221 133.601,132.742 132.774,134.080 132.381 C 137.739 131.306,139.601 130.784,142.231 130.093 C 145.048 129.353,149.252 127.945,151.197 127.091 C 152.541 126.500,158.161 124.503,158.478 124.503 C 158.591 124.503,159.130 124.328,159.677 124.115 C 160.225 123.901,161.406 123.494,162.303 123.210 C 163.199 122.927,164.575 122.456,165.359 122.165 C 166.144 121.873,167.152 121.514,167.601 121.368 C 168.475 121.082,170.692 120.235,172.185 119.616 C 172.690 119.406,173.974 118.901,175.038 118.492 C 176.803 117.815,177.655 117.478,179.419 116.761 C 179.755 116.624,180.397 116.392,180.846 116.245 C 181.294 116.099,182.303 115.740,183.087 115.448 C 187.545 113.788,191.602 112.709,195.313 112.194 C 197.573 111.881,203.849 111.162,206.113 110.957 C 206.786 110.896,208.299 110.753,209.475 110.639 C 210.652 110.525,213.907 110.349,216.709 110.247 C 223.099 110.014,225.628 109.824,240.041 108.497 C 241.890 108.327,245.871 108.099,248.888 107.991 C 251.904 107.883,255.802 107.644,257.548 107.460 C 261.565 107.037,262.495 107.025,266.123 107.349 C 267.748 107.494,272.287 107.739,276.210 107.893 C 280.132 108.048,283.525 108.215,283.749 108.265 C 283.974 108.315,284.982 108.463,285.991 108.595 C 286.999 108.727,288.879 109.006,290.168 109.215 C 291.457 109.424,293.474 109.747,294.651 109.933 C 295.828 110.119,297.799 110.441,299.032 110.649 C 300.265 110.857,302.032 111.086,302.960 111.157 C 304.752 111.295,304.908 111.317,307.285 111.765 C 309.190 112.124,312.448 113.240,313.269 113.815 C 313.502 113.978,313.805 114.111,313.942 114.111 C 314.252 114.111,316.307 115.290,318.164 116.533 C 318.937 117.050,319.716 117.565,319.896 117.677 C 321.032 118.383,323.953 121.663,324.570 122.925 C 327.403 128.720,327.626 141.508,324.978 146.307 C 324.416 147.325,323.600 148.513,323.069 149.084 C 322.771 149.406,322.176 150.050,321.746 150.515 C 319.145 153.335,316.338 154.928,311.768 156.181 C 311.039 156.380,309.893 156.704,309.221 156.901 C 306.821 157.601,304.919 158.099,303.406 158.423 C 299.005 159.363,288.191 158.841,282.221 157.399 C 280.596 157.007,278.579 156.605,277.738 156.507 C 274.005 156.070,269.517 155.135,261.997 153.228 C 259.339 152.554,257.327 152.058,255.833 151.710 C 254.219 151.334,251.871 150.747,249.618 150.157 C 248.114 149.762,247.454 149.593,244.218 148.767 C 242.019 148.207,238.680 147.624,235.354 147.221 C 233.841 147.037,231.732 146.758,230.667 146.601 C 229.603 146.444,228.181 146.261,227.509 146.194 C 226.836 146.128,225.094 145.903,223.637 145.696 C 222.180 145.488,219.842 145.170,218.441 144.989 C 217.040 144.808,215.341 144.573,214.664 144.467 C 211.986 144.049,209.390 143.877,205.298 143.849 C 202.669 143.831,200.390 143.710,199.389 143.534 C 189.919 141.872,156.499 142.746,143.963 144.983 C 140.782 145.551,138.439 145.888,136.729 146.022 C 135.777 146.098,134.539 146.317,133.979 146.511 C 132.023 147.186,127.912 148.344,127.471 148.344 C 127.289 148.344,126.615 148.515,125.974 148.723 C 125.333 148.931,124.083 149.266,123.196 149.468 C 121.783 149.789,119.550 150.676,116.047 152.309 C 113.971 153.276,111.657 154.254,111.444 154.254 C 111.350 154.254,110.238 154.744,108.973 155.342 C 107.708 155.941,106.123 156.639,105.451 156.894 C 104.778 157.148,103.540 157.704,102.700 158.128 C 101.859 158.552,100.897 159.037,100.560 159.207 C 99.965 159.507,99.089 159.869,96.791 160.768 C 95.809 161.152,95.059 161.475,93.938 161.995 C 93.770 162.073,93.449 162.235,93.225 162.355 C 93.001 162.475,91.878 162.968,90.730 163.450 C 89.232 164.081,88.169 164.707,86.961 165.670 C 86.035 166.408,84.911 167.234,84.463 167.506 C 84.014 167.778,82.781 168.621,81.721 169.380 C 80.661 170.138,79.667 170.759,79.511 170.759 C 79.355 170.759,78.984 170.929,78.687 171.138 C 78.389 171.346,78.039 171.552,77.909 171.596 C 77.111 171.866,72.797 175.953,71.158 177.993 C 69.749 179.745,65.793 183.715,64.730 184.444 C 60.902 187.066,55.735 193.930,50.795 202.955 C 47.071 209.758,47.037 209.833,45.840 213.958 C 45.629 214.687,45.234 216.016,44.962 216.913 C 44.475 218.521,44.335 219.097,43.701 222.109 C 41.950 230.418,42.236 235.739,44.816 242.892 C 45.160 243.844,45.441 244.813,45.441 245.047 C 45.441 246.205,48.286 252.386,50.714 256.504 C 51.064 257.097,51.350 257.622,51.350 257.669 C 51.350 257.925,54.117 261.987,55.120 263.202 C 55.232 263.338,55.599 263.797,55.935 264.222 C 58.187 267.072,64.379 273.505,67.180 275.904 C 68.030 276.633,68.874 277.372,69.055 277.547 C 70.277 278.732,75.983 283.012,78.859 284.901 C 85.760 289.434,97.467 294.228,104.840 295.540 C 111.087 296.652,113.786 296.887,120.224 296.879 C 128.021 296.868,134.569 296.410,138.971 295.567 C 139.812 295.406,141.645 295.083,143.046 294.849 C 150.095 293.673,154.635 292.599,158.940 291.091 C 161.524 290.186,164.919 289.300,170.250 288.140 C 172.563 287.636,175.311 286.944,177.993 286.192 C 179.002 285.908,180.102 285.625,180.438 285.562 C 181.861 285.295,187.062 284.023,188.283 283.644 C 190.667 282.902,195.820 281.497,199.083 280.698 C 200.130 280.441,200.907 280.247,205.094 279.194 C 208.893 278.239,210.885 277.716,212.226 277.322 C 213.011 277.091,214.615 276.669,215.792 276.384 C 216.969 276.100,219.170 275.516,220.683 275.087 C 222.196 274.659,223.984 274.172,224.656 274.005 C 225.329 273.838,226.587 273.510,227.454 273.275 C 228.320 273.040,229.176 272.848,229.356 272.848 C 229.536 272.848,230.341 272.671,231.143 272.454 C 232.558 272.072,233.062 271.952,237.188 271.011 C 238.253 270.769,239.857 270.402,240.754 270.198 C 241.651 269.993,243.118 269.678,244.014 269.497 C 246.499 268.995,249.328 268.398,251.248 267.970 C 252.201 267.758,253.760 267.428,254.712 267.237 C 256.419 266.894,258.234 266.475,261.233 265.731 C 273.032 262.802,296.968 262.797,309.526 265.721 C 310.479 265.943,311.385 266.124,311.540 266.124 C 312.390 266.122,316.096 267.707,317.482 268.666 C 318.328 269.251,319.111 269.766,319.223 269.811 C 320.750 270.427,325.279 274.236,326.467 275.904 C 327.376 277.180,328.562 279.798,329.420 282.425 C 330.041 284.325,330.950 286.739,331.145 287.010 C 332.593 289.016,332.477 296.455,330.930 300.806 C 329.875 303.775,328.237 305.575,324.198 308.203 C 323.693 308.531,322.731 309.225,322.058 309.746 C 319.163 311.989,314.083 313.596,308.915 313.904 C 307.738 313.975,305.904 314.169,304.840 314.337 C 303.098 314.612,298.871 314.607,296.689 314.328 C 296.409 314.292,294.254 314.158,291.900 314.029 C 280.871 313.426,272.850 312.781,266.225 311.963 C 262.937 311.557,261.167 311.311,256.139 310.556 C 253.576 310.172,249.186 309.685,245.848 309.416 C 245.064 309.353,243.551 309.172,242.486 309.015 C 237.656 308.302,229.578 307.315,226.670 307.082 C 219.349 306.495,208.078 305.884,201.528 305.720 C 193.899 305.528,178.765 306.381,171.268 307.426 C 170.036 307.598,168.385 307.809,167.601 307.895 C 166.816 307.981,165.257 308.204,164.137 308.390 C 163.016 308.576,161.228 308.872,160.163 309.048 C 156.380 309.671,151.729 310.565,148.650 311.262 C 146.098 311.840,142.925 312.644,142.435 312.837 C 142.155 312.948,141.651 313.113,141.314 313.205 C 140.396 313.455,136.550 314.796,135.831 315.117 C 135.485 315.272,134.972 315.445,134.692 315.503 C 134.142 315.615,130.988 316.703,128.681 317.575 C 127.896 317.872,127.025 318.190,126.745 318.283 C 125.756 318.609,121.866 320.440,120.321 321.305 C 119.197 321.935,116.931 323.276,116.467 323.586 C 116.216 323.754,115.606 324.159,115.111 324.484 C 114.282 325.031,111.596 327.154,110.833 327.866 C 110.653 328.034,109.285 329.317,107.794 330.718 C 106.303 332.119,104.341 333.832,103.433 334.524 C 102.525 335.216,101.110 336.546,100.288 337.479 C 99.466 338.411,98.591 339.404,98.343 339.684 C 98.096 339.964,97.441 340.790,96.889 341.518 C 96.336 342.247,95.812 342.934,95.724 343.046 C 94.455 344.665,93.938 345.370,93.938 345.482 C 93.938 345.556,93.669 345.956,93.340 346.370 C 87.878 353.238,85.008 367.986,85.619 386.042 C 85.791 391.106,86.222 393.560,87.516 396.842 C 88.342 398.936,88.640 399.758,88.640 399.941 C 88.640 400.899,90.883 405.358,92.821 408.253 C 96.474 413.711,104.847 422.618,106.325 422.618 C 106.433 422.618,106.617 422.733,106.734 422.874 C 106.850 423.014,107.526 423.433,108.236 423.804 C 109.666 424.553,109.964 424.725,111.153 425.485 C 119.730 430.973,130.406 434.509,144.269 436.456 C 159.443 438.586,175.585 437.857,193.276 434.243 C 194.284 434.037,195.889 433.710,196.842 433.518 C 200.983 432.680,207.791 430.993,212.022 429.755 C 213.583 429.298,215.045 428.894,217.219 428.320 C 218.171 428.069,219.501 427.702,220.173 427.506 C 220.846 427.310,221.992 426.995,222.720 426.806 C 223.449 426.617,224.687 426.292,225.471 426.085 C 226.256 425.878,227.677 425.507,228.630 425.260 C 230.858 424.684,232.302 424.244,234.947 423.339 C 240.869 421.312,244.380 420.516,252.267 419.414 C 258.869 418.492,267.097 419.155,269.995 420.843 C 275.682 424.155,271.457 433.138,262.557 436.660 C 262.045 436.862,259.681 437.580,258.074 438.020 C 257.402 438.205,256.439 438.472,255.935 438.615 C 254.830 438.928,250.325 439.785,247.376 440.243 C 246.200 440.425,244.228 440.753,242.995 440.971 C 241.763 441.189,240.525 441.366,240.245 441.366 C 239.964 441.365,238.772 441.541,237.596 441.757 C 234.033 442.410,228.411 443.015,216.607 444.018 C 198.947 445.518,188.424 448.560,180.789 454.372 C 170.005 462.581,172.114 474.749,185.305 480.426 C 191.698 483.178,202.978 483.448,218.034 481.211 C 219.098 481.053,221.299 480.727,222.924 480.486 C 227.054 479.876,229.285 479.285,232.909 477.841 C 233.913 477.440,237.708 476.050,239.022 475.601 C 245.518 473.380,246.154 473.015,246.154 471.507 C 246.154 470.325,245.471 469.520,244.090 469.078 C 243.600 468.921,242.603 468.524,241.875 468.196 C 238.677 466.754,230.639 466.164,225.568 467.000 C 222.004 467.587,212.047 467.934,210.357 467.529 C 208.477 467.080,209.043 465.560,211.615 464.154 C 216.881 461.277,217.154 461.197,219.358 461.901 C 222.985 463.060,228.738 461.914,232.752 459.233 C 234.213 458.258,236.554 458.036,237.919 458.744 C 240.596 460.131,246.682 459.639,250.874 457.696 C 254.345 456.087,255.014 455.941,255.940 456.597 C 256.761 457.178,264.242 457.121,266.250 456.518 C 267.735 456.073,269.606 455.006,270.703 453.980 C 273.139 451.702,272.999 451.758,276.301 451.758 L 278.914 451.758 280.618 450.904 C 282.361 450.032,285.278 447.437,285.278 446.758 C 285.278 446.594,285.359 446.460,285.458 446.460 C 285.557 446.460,285.789 446.161,285.973 445.797 C 286.157 445.433,286.393 444.997,286.498 444.829 C 287.052 443.939,288.334 441.720,288.334 441.652 C 288.334 441.364,289.228 440.647,290.269 440.103 C 292.170 439.107,292.239 439.067,293.428 438.269 C 297.876 435.284,299.958 430.507,298.844 425.847 C 298.416 424.058,297.725 422.987,295.049 419.969 L 293.693 418.441 293.561 415.996 C 293.097 407.456,288.071 402.671,279.548 402.654 L 277.180 402.649 275.982 401.363 C 275.323 400.656,274.409 399.666,273.952 399.164 C 270.177 395.015,265.958 394.198,259.501 396.367 C 257.232 397.129,256.440 397.090,254.839 396.141 C 250.923 393.818,246.818 393.148,242.282 394.092 C 239.085 394.758,237.229 395.622,233.206 398.319 C 232.110 399.053,231.420 399.130,230.158 398.658 C 226.984 397.472,226.873 397.453,223.026 397.455 C 218.517 397.458,215.618 398.001,212.532 399.422 C 211.439 399.925,209.272 401.413,209.272 401.660 C 209.272 401.756,209.134 401.834,208.966 401.834 C 208.798 401.834,208.660 401.911,208.660 402.005 C 208.660 402.946,204.092 403.774,202.779 403.072 C 198.533 400.799,189.864 402.407,183.481 406.650 C 181.493 407.972,180.998 408.015,179.014 407.045 C 172.873 404.040,160.649 405.798,155.345 410.448 C 154.908 410.830,154.905 410.828,153.794 409.440 C 152.831 408.236,152.135 407.509,150.608 406.113 C 150.281 405.814,149.465 405.246,148.650 404.749 C 147.990 404.347,144.497 402.649,144.329 402.649 C 144.244 402.649,143.715 402.472,143.152 402.255 C 142.590 402.038,141.488 401.681,140.703 401.461 C 139.488 401.120,138.538 400.904,135.595 400.301 C 134.163 400.008,134.083 399.459,134.984 396.131 C 136.326 391.171,135.099 385.534,131.997 382.414 C 130.692 381.100,130.710 380.686,132.144 379.002 C 134.542 376.185,135.365 373.838,135.710 368.823 C 136.142 362.555,135.993 362.759,140.399 362.398 C 142.328 362.240,143.592 362.038,144.011 361.821 C 144.366 361.638,144.741 361.488,144.845 361.488 C 145.313 361.488,147.499 360.335,148.956 359.320 C 151.544 357.517,154.852 352.706,154.863 350.729 C 154.865 350.213,155.350 349.156,155.838 348.599 C 156.516 347.826,158.362 348.108,160.854 349.365 L 163.074 350.484 165.032 350.484 C 166.999 350.484,170.049 349.892,171.829 349.166 C 172.249 348.994,172.983 348.698,173.459 348.507 C 174.197 348.212,175.093 347.736,176.839 346.714 C 177.030 346.602,178.000 345.874,178.994 345.096 C 181.198 343.370,181.944 343.254,183.778 344.349 C 184.850 344.990,188.159 346.612,188.392 346.612 C 188.457 346.612,188.894 346.782,189.364 346.990 C 189.834 347.198,190.769 347.576,191.442 347.829 C 192.114 348.083,192.802 348.357,192.970 348.439 C 193.138 348.521,195.935 348.503,199.185 348.399 L 205.094 348.210 206.724 347.266 C 207.621 346.747,208.967 345.929,209.715 345.448 C 211.656 344.201,211.629 344.194,215.283 346.967 C 220.366 350.825,227.407 352.039,233.011 350.024 C 234.293 349.562,237.291 347.958,237.499 347.623 C 237.862 347.034,238.823 347.473,240.881 349.168 C 246.930 354.147,251.811 355.633,257.972 354.371 C 262.056 353.535,262.696 353.225,265.465 350.748 C 267.711 348.737,267.709 348.738,268.808 350.229 C 273.195 356.181,282.435 358.830,288.145 355.774 C 288.346 355.666,288.678 355.578,288.881 355.577 C 289.671 355.576,293.428 353.856,293.428 353.497 C 293.428 353.409,293.561 353.337,293.724 353.337 C 293.886 353.337,294.093 353.217,294.182 353.071 C 294.479 352.587,295.810 351.910,296.465 351.910 C 297.200 351.910,297.676 352.182,299.542 353.666 C 305.910 358.733,315.942 358.392,321.787 352.911 C 323.591 351.219,324.055 351.180,327.571 352.420 L 330.171 353.337 333.348 353.333 C 339.243 353.326,344.158 351.409,347.733 347.723 C 348.860 346.562,350.913 343.106,350.897 342.399 C 350.881 341.684,352.236 340.794,354.050 340.328 C 358.709 339.131,359.317 338.920,361.335 337.799 C 362.974 336.889,365.642 334.413,366.770 332.756 C 369.193 329.196,370.181 325.723,370.479 319.715 C 370.548 318.329,370.902 317.822,372.953 316.166 C 374.537 314.888,375.365 314.032,377.280 311.694 C 377.823 311.030,379.637 307.816,379.998 306.877 C 381.602 302.708,382.068 300.290,382.068 296.143 C 382.068 291.726,381.499 289.354,379.267 284.479 C 378.692 283.223,378.619 283.475,380.336 280.795 C 381.091 279.616,381.430 279.008,382.378 277.127 C 383.902 274.106,383.911 269.233,382.401 264.493 C 382.240 263.989,381.900 262.888,381.644 262.048 C 381.389 261.207,381.112 260.382,381.030 260.214 C 380.947 260.046,380.630 259.404,380.326 258.788 C 379.409 256.931,378.419 255.860,375.867 253.968 C 372.383 251.384,372.168 251.061,371.690 247.679 C 370.231 237.373,364.664 232.473,353.642 231.792 C 349.620 231.543,349.545 231.508,347.362 228.827 C 345.974 227.122,343.828 225.150,342.715 224.557 C 338.332 222.221,330.210 220.895,325.681 221.777 C 322.121 222.470,322.061 222.466,320.980 221.462 C 316.328 217.141,312.217 215.767,304.840 216.067 C 300.780 216.232,298.663 216.940,294.089 219.663 C 292.605 220.546,291.222 221.063,290.714 220.923 C 290.622 220.897,290.026 220.794,289.390 220.694 C 288.217 220.508,284.320 219.578,281.712 218.861 C 280.927 218.646,279.727 218.315,279.044 218.127 C 277.676 217.750,278.202 217.671,272.955 219.042 C 269.204 220.022,267.097 220.820,263.329 222.685 C 261.240 223.720,261.013 223.790,260.680 223.504 C 260.204 223.097,257.361 221.679,255.935 221.138 C 250.466 219.065,239.913 219.762,235.446 222.490 C 232.466 224.311,232.423 224.325,230.011 224.338 C 227.913 224.350,226.980 224.215,222.899 223.313 C 217.582 222.137,209.676 223.224,206.184 225.611 C 205.886 225.814,205.588 225.981,205.522 225.981 C 205.372 225.981,203.572 227.246,202.346 228.214 C 201.843 228.611,200.309 229.955,198.937 231.202 C 195.594 234.241,194.376 234.694,191.926 233.809 C 187.372 232.165,183.836 232.203,176.872 233.972 C 173.054 234.941,171.806 235.543,166.887 238.787 C 165.935 239.415,164.972 240.031,164.748 240.157 C 164.524 240.283,164.019 240.579,163.627 240.815 C 161.279 242.230,160.493 242.322,158.522 241.412 C 155.973 240.235,155.446 240.143,151.299 240.143 C 147.354 240.143,146.840 240.209,143.148 241.203 C 141.066 241.764,137.577 243.278,136.224 244.208 C 135.492 244.711,132.797 246.795,132.654 246.969 C 131.504 248.364,129.664 248.388,128.542 247.023 C 128.105 246.492,125.516 244.645,124.208 243.932 C 119.807 241.531,115.121 241.661,109.449 244.340 C 106.931 245.529,106.529 245.556,105.451 244.602 C 104.791 244.019,102.290 241.996,101.375 241.306 C 101.263 241.221,100.484 240.725,99.643 240.204 C 97.012 238.570,97.160 238.804,97.411 236.679 C 97.731 233.972,97.326 230.947,96.237 227.916 C 95.955 227.132,95.544 225.990,95.324 225.378 C 94.712 223.680,96.124 222.116,98.273 222.110 C 98.929 222.108,101.972 221.248,102.700 220.859 C 104.687 219.796,109.424 214.300,109.424 213.056 C 109.424 211.779,112.030 208.969,113.039 209.157 C 116.780 209.857,124.093 209.692,127.144 208.839 C 130.931 207.782,136.146 203.899,137.662 201.010 C 139.150 198.174,139.333 198.073,141.824 198.729 C 145.757 199.763,145.974 199.795,149.058 199.783 C 150.818 199.776,152.460 199.667,152.929 199.526 C 153.377 199.391,154.432 199.137,155.273 198.963 C 157.435 198.514,158.037 198.089,161.589 194.517 C 165.174 190.909,164.818 191.124,165.703 192.033 C 171.350 197.834,177.042 199.544,182.694 197.141 C 184.127 196.531,186.109 195.527,186.804 195.059 C 189.118 193.501,190.133 193.277,191.055 194.122 C 191.380 194.419,192.471 195.420,193.479 196.345 C 194.488 197.271,195.574 198.261,195.892 198.545 C 197.598 200.069,201.142 201.127,205.909 201.538 C 210.835 201.963,213.408 201.269,217.932 198.296 C 219.052 197.559,220.153 196.855,220.377 196.732 C 220.601 196.608,220.968 196.390,221.193 196.248 C 221.554 196.021,221.802 196.123,223.313 197.123 C 229.877 201.466,237.258 202.904,242.205 200.803 C 243.727 200.157,245.621 199.179,246.647 198.509 C 249.591 196.585,249.721 196.587,251.514 198.566 C 253.557 200.823,255.381 201.899,259.093 203.038 C 261.130 203.663,261.831 203.915,263.474 204.615 C 265.150 205.329,271.319 205.324,273.765 204.608 C 275.846 203.997,278.191 203.155,278.441 202.927 C 278.548 202.830,278.738 202.751,278.864 202.751 C 279.096 202.751,281.723 201.361,283.036 200.544 C 285.111 199.252,285.697 199.246,287.352 200.500 C 293.160 204.899,304.595 205.062,313.602 200.873 C 317.212 199.194,318.496 198.428,321.039 196.433 C 323.147 194.780,323.379 194.744,326.044 195.650 C 327.976 196.307,334.941 196.328,337.239 195.683 C 346.418 193.108,353.348 187.938,356.721 181.152 C 357.213 180.161,357.616 179.244,357.616 179.116 C 357.616 176.827,360.711 173.612,362.914 173.612 C 365.577 173.612,371.236 169.194,373.223 165.563 C 373.346 165.339,373.657 164.789,373.914 164.340 C 374.172 163.892,374.612 163.113,374.892 162.608 C 375.173 162.104,375.556 161.462,375.744 161.182 C 376.856 159.526,377.123 157.656,377.362 149.873 C 377.549 143.744,377.673 144.557,376.153 141.926 C 373.892 138.010,373.772 136.646,375.522 134.794 C 379.044 131.068,380.654 125.578,380.024 119.439 C 379.510 114.434,376.422 108.930,372.694 106.374 C 370.120 104.610,370.010 104.314,370.461 100.373 C 370.832 97.137,370.095 91.894,368.962 89.707 C 368.803 89.400,368.460 88.737,368.200 88.232 C 366.815 85.543,362.738 81.304,361.538 81.304 C 361.425 81.304,361.234 81.184,361.111 81.036 C 360.920 80.806,358.349 79.717,355.986 78.866 C 353.439 77.948,350.649 77.578,349.040 77.946 C 345.351 78.789,342.902 77.665,342.030 74.729 C 340.727 70.340,337.293 67.049,332.145 65.255 C 329.970 64.497,324.593 64.459,322.669 65.187 C 321.536 65.616,318.041 67.304,317.575 67.646 C 316.574 68.383,315.466 68.018,313.646 66.353 C 310.530 63.501,309.810 62.907,308.150 61.815 C 301.286 57.299,294.061 57.709,285.259 63.113 C 282.880 64.574,283.240 64.662,280.082 61.839 C 277.928 59.914,275.669 58.204,273.968 57.212 C 272.903 56.590,270.013 55.222,269.765 55.222 C 269.634 55.222,269.014 55.048,268.386 54.836 C 266.783 54.295,264.616 53.998,262.299 54.003 C 258.209 54.010,254.957 54.898,250.433 57.243 C 245.231 59.940,245.603 59.872,243.984 58.431 C 239.315 54.276,235.287 52.946,229.179 53.544 C 221.961 54.252,217.646 56.157,213.309 60.552 C 210.318 63.582,210.429 63.569,207.854 61.171 C 204.547 58.091,199.930 56.053,195.823 55.860 L 193.072 55.731 193.008 54.956 C 192.958 54.349,193.190 53.682,194.082 51.868 C 197.962 43.978,203.149 37.174,208.883 32.449 C 213.835 28.369,212.577 27.125,204.585 28.200 C 201.102 28.668,198.319 29.428,195.873 30.578 C 194.318 31.309,194.506 31.312,192.949 30.539 C 187.166 27.670,182.330 29.664,180.769 35.562 C 179.942 38.682,179.197 37.411,179.281 33.025 C 179.410 26.328,177.838 23.203,173.312 21.160 C 171.848 20.499,170.896 19.770,170.502 19.007 C 169.713 17.478,168.732 15.795,167.466 13.800 C 166.699 12.592,166.072 11.554,166.072 11.493 C 166.072 11.282,164.847 9.603,164.164 8.879 C 163.263 7.924,162.705 7.942,161.408 8.968 M162.226 14.791 C 162.840 15.103,164.035 16.489,165.155 18.188 C 166.118 19.648,166.258 20.749,165.764 22.958 C 164.768 27.407,165.650 28.432,168.716 26.392 C 173.425 23.258,175.977 24.933,176.213 31.313 C 176.396 36.245,175.512 36.967,168.530 37.594 C 163.295 38.064,162.978 38.286,162.848 41.563 C 162.541 49.295,166.824 52.793,172.866 49.746 C 175.714 48.309,176.179 48.414,177.859 50.872 C 178.623 51.989,178.327 52.826,177.449 52.032 C 176.863 51.502,175.932 51.663,174.461 52.552 C 169.929 55.288,163.346 53.274,160.021 48.134 C 158.362 45.568,157.695 45.501,156.553 47.784 C 154.877 51.132,152.166 52.980,148.932 52.980 C 147.618 52.980,146.768 52.723,146.395 52.214 C 146.198 51.945,145.803 51.871,144.540 51.866 C 143.017 51.860,142.861 51.815,141.501 50.993 C 139.772 49.949,139.382 49.932,137.374 50.811 C 136.515 51.187,134.885 51.782,133.751 52.133 C 129.836 53.345,130.440 53.786,136.331 54.018 C 140.606 54.187,141.064 54.237,145.390 55.025 C 149.373 55.750,151.630 55.360,154.301 53.482 C 157.294 51.380,157.349 51.350,158.269 51.350 C 159.239 51.350,159.739 51.607,161.284 52.903 C 164.726 55.789,169.273 56.847,172.491 55.509 C 174.445 54.696,176.203 54.722,178.986 55.603 C 182.364 56.673,183.676 56.391,182.832 54.776 C 182.200 53.566,182.164 53.632,184.157 52.276 C 186.353 50.781,186.882 50.197,188.064 47.959 C 189.232 45.749,189.414 45.623,190.609 46.204 C 192.755 47.247,192.623 48.156,189.240 55.629 C 188.504 57.254,187.466 59.868,186.933 61.437 C 185.397 65.959,184.910 66.131,178.234 64.509 C 169.106 62.293,150.459 61.570,133.775 62.786 C 128.827 63.147,128.265 62.889,126.945 59.655 C 126.500 58.563,125.162 55.583,123.972 53.033 C 120.309 45.181,120.217 44.757,121.656 42.375 C 122.385 41.169,122.545 40.698,122.712 39.274 C 123.009 36.730,122.992 36.770,124.479 35.197 C 126.206 33.369,126.337 33.119,126.338 31.649 C 126.342 27.650,127.471 25.664,129.731 25.683 C 134.172 25.720,136.642 30.399,134.508 34.733 C 133.786 36.200,133.730 36.231,131.451 36.461 C 123.252 37.288,123.710 49.312,131.940 49.312 C 134.538 49.312,136.969 48.550,137.201 47.664 C 137.404 46.888,138.950 47.219,140.108 48.287 C 143.019 50.970,147.527 51.054,149.575 48.463 C 152.668 44.550,151.350 38.723,147.259 38.226 C 146.791 38.169,145.643 38.036,144.708 37.929 C 142.619 37.692,142.133 37.303,141.312 35.210 C 140.647 33.516,140.625 33.627,142.392 30.001 C 144.407 25.867,145.599 25.093,147.798 26.487 C 149.694 27.690,150.440 27.981,151.627 27.983 C 154.411 27.987,155.531 25.441,153.942 22.720 C 151.084 17.827,151.940 15.752,157.015 15.272 C 158.079 15.171,159.148 14.982,159.391 14.852 C 160.517 14.250,161.135 14.236,162.226 14.791 M119.263 25.547 C 120.659 26.142,120.939 26.704,120.927 28.901 C 120.911 31.928,120.157 33.333,117.944 34.454 C 117.306 34.778,116.348 35.319,115.815 35.657 C 114.170 36.700,113.633 36.487,110.271 33.453 C 107.488 30.942,107.455 30.700,109.795 29.954 C 111.343 29.459,112.231 28.923,114.044 27.385 C 116.313 25.460,117.817 24.931,119.263 25.547 M159.461 28.880 C 156.824 29.550,154.437 33.676,155.635 35.492 C 157.714 38.644,163.193 37.299,164.249 33.377 C 164.954 30.761,162.207 28.181,159.461 28.880 M203.047 31.413 C 204.115 31.900,203.475 33.267,201.087 35.592 C 199.529 37.110,198.272 37.823,197.697 37.515 C 197.067 37.178,196.026 35.885,196.026 35.439 C 196.026 33.334,201.002 30.481,203.047 31.413 M160.693 32.148 C 161.608 32.759,161.359 34.279,160.324 34.399 C 158.883 34.566,158.372 33.148,159.603 32.397 C 160.343 31.946,160.378 31.938,160.693 32.148 M189.656 32.650 C 192.696 34.070,192.738 37.929,189.742 40.571 C 184.733 44.986,181.221 39.482,185.461 33.864 C 186.910 31.943,187.673 31.723,189.656 32.650 M119.293 37.686 C 120.476 38.466,120.745 39.640,119.928 40.458 C 118.325 42.061,115.774 39.617,117.182 37.827 C 117.692 37.179,118.448 37.129,119.293 37.686 M138.729 39.319 C 140.982 42.367,133.074 47.423,130.336 44.685 C 128.882 43.230,129.835 41.956,133.877 39.951 C 134.605 39.590,135.430 39.167,135.711 39.011 C 136.679 38.472,138.219 38.629,138.729 39.319 M194.602 39.838 C 196.530 40.835,195.343 43.810,193.018 43.810 C 190.675 43.810,190.859 40.969,193.276 39.834 C 194.036 39.477,193.904 39.477,194.602 39.838 M180.671 41.710 C 181.204 42.765,181.954 43.627,183.977 45.512 C 185.269 46.716,185.085 47.837,183.457 48.676 C 182.529 49.154,181.454 48.867,180.685 47.936 C 180.476 47.683,180.194 47.362,180.058 47.223 C 179.923 47.083,179.507 46.419,179.135 45.746 C 177.657 43.078,177.281 42.963,175.208 44.542 C 172.461 46.634,170.385 47.418,169.211 46.804 C 166.637 45.461,166.894 42.890,169.740 41.506 C 170.589 41.093,170.915 41.063,174.121 41.109 L 177.585 41.159 178.494 40.556 C 179.583 39.835,179.773 39.936,180.671 41.710 M146.016 42.114 C 147.702 43.933,146.212 47.500,144.213 46.430 C 142.838 45.693,141.720 42.858,142.538 42.179 C 143.423 41.445,145.362 41.409,146.016 42.114 M103.413 41.998 C 105.015 42.401,106.572 44.084,106.572 45.413 C 106.572 46.339,104.694 47.673,102.496 48.310 C 101.381 48.633,98.514 51.375,97.294 53.286 C 96.865 53.958,96.198 54.984,95.812 55.565 C 95.109 56.625,95.000 57.825,95.575 58.180 C 95.764 58.297,97.377 57.671,100.812 56.145 C 102.640 55.333,103.805 55.243,104.205 55.881 C 104.572 56.467,103.878 56.912,100.153 58.477 C 90.627 62.480,87.699 64.649,83.552 70.772 C 82.390 72.487,79.674 77.642,79.674 78.131 C 79.674 78.295,78.730 79.436,77.576 80.667 C 75.508 82.874,75.458 82.951,74.030 86.129 C 73.233 87.902,71.926 90.750,71.125 92.457 C 68.789 97.437,68.784 98.385,71.079 100.483 C 73.208 102.428,75.491 103.231,78.342 103.035 C 81.385 102.827,83.614 103.584,87.217 106.052 C 89.420 107.561,89.789 107.586,90.909 106.301 C 91.956 105.098,93.705 105.073,96.040 106.227 C 97.467 106.933,97.906 107.319,99.200 109.009 C 100.193 110.305,100.369 109.203,99.512 107.063 C 98.727 105.102,98.184 105.169,110.138 105.757 C 118.875 106.186,129.285 105.981,137.850 105.212 C 149.274 104.186,152.319 104.786,152.317 108.064 C 152.315 111.524,148.588 114.274,139.134 117.789 C 130.141 121.133,126.505 122.699,122.976 124.747 C 120.084 126.426,119.996 126.414,117.687 124.008 C 115.417 121.641,114.921 121.370,112.787 121.331 C 110.734 121.293,108.633 120.583,106.761 119.296 C 105.268 118.268,104.738 118.252,104.738 119.236 C 104.738 120.791,107.605 122.148,111.534 122.452 L 113.594 122.612 114.777 123.914 C 118.035 127.502,117.868 129.286,113.839 133.933 C 111.323 136.834,110.822 136.573,110.227 132.051 C 109.637 127.565,109.333 127.215,109.157 130.817 L 109.063 132.749 107.962 133.771 C 106.854 134.800,104.199 136.662,102.496 137.604 C 101.259 138.289,96.320 139.829,95.620 139.749 C 95.066 139.685,95.057 139.662,94.957 137.952 C 94.812 135.485,94.637 135.498,90.349 138.299 L 88.697 139.379 85.255 139.382 C 83.362 139.383,79.499 139.274,76.671 139.138 C 70.608 138.846,70.432 138.875,70.338 140.176 C 70.177 142.424,73.599 146.867,78.670 150.997 C 80.825 152.752,82.217 154.205,82.827 155.338 L 83.228 156.083 82.623 157.219 C 80.593 161.027,76.120 165.572,72.004 168.009 C 70.339 168.995,68.787 169.916,68.557 170.055 C 68.169 170.290,65.639 172.532,61.299 176.484 C 59.638 177.997,59.449 178.257,58.163 180.794 C 54.725 187.579,51.401 190.884,46.643 192.247 C 43.726 193.082,44.068 191.916,47.905 187.949 C 52.640 183.053,52.977 181.644,50.050 178.986 C 48.282 177.381,48.041 177.287,45.801 177.324 C 40.937 177.405,41.742 175.252,46.738 174.818 C 47.909 174.717,49.816 174.404,50.975 174.123 C 52.134 173.842,53.320 173.612,53.610 173.612 C 55.189 173.611,58.751 170.949,62.458 166.997 C 63.802 165.565,65.955 163.512,67.244 162.434 C 74.105 156.700,74.280 155.864,69.277 152.743 C 59.893 146.889,57.823 143.896,59.257 138.251 C 59.859 135.882,60.342 133.123,60.630 130.413 C 60.708 129.684,60.942 128.538,61.152 127.866 C 62.035 125.032,61.227 121.465,59.661 121.282 C 58.879 121.190,58.694 121.709,58.723 123.918 C 58.771 127.471,57.590 128.819,54.031 129.274 C 51.539 129.592,51.066 128.932,51.763 126.112 C 52.513 123.075,52.255 121.651,50.954 121.651 C 49.544 121.651,49.001 122.548,48.786 125.233 C 48.612 127.404,48.166 128.801,47.168 130.305 C 44.105 134.919,35.528 136.541,37.476 132.137 C 38.321 130.228,38.060 129.439,36.029 127.748 C 34.424 126.412,33.661 126.953,33.206 129.751 C 32.700 132.859,28.792 133.989,24.962 132.135 C 22.863 131.119,22.169 131.108,20.977 132.071 C 18.856 133.787,16.350 133.675,14.768 131.795 C 13.603 130.411,14.466 129.939,17.145 130.493 C 18.974 130.872,19.689 130.649,19.623 129.723 C 19.567 128.945,18.639 127.783,17.789 127.428 C 16.585 126.925,17.064 126.644,19.143 126.635 C 21.178 126.627,21.600 126.416,21.600 125.406 C 21.600 124.779,21.282 124.580,19.695 124.212 C 15.161 123.161,12.957 118.822,17.338 119.574 C 19.566 119.956,20.063 119.901,20.879 119.184 C 22.077 118.132,21.890 117.847,19.810 117.552 C 18.278 117.335,17.010 116.634,16.707 115.837 C 16.305 114.780,16.853 114.418,18.334 114.760 C 19.642 115.062,19.747 114.967,20.968 112.395 C 22.369 109.442,22.775 109.239,27.305 109.221 C 28.370 109.217,29.883 109.078,30.667 108.911 C 32.862 108.447,33.353 108.507,34.845 109.424 C 36.723 110.580,37.201 110.535,38.473 109.084 L 39.487 107.928 40.681 108.298 C 43.235 109.088,44.773 110.345,46.168 112.781 C 47.549 115.194,49.224 115.945,53.222 115.945 C 60.428 115.945,63.305 110.879,59.792 104.376 C 57.038 99.276,58.381 91.567,62.559 88.494 C 64.465 87.093,65.154 86.396,65.903 85.114 C 66.965 83.299,68.909 80.758,71.001 78.451 C 73.557 75.633,74.030 74.846,75.375 71.174 C 77.745 64.706,79.308 62.765,83.636 60.917 C 87.214 59.390,88.157 58.367,88.863 55.244 C 89.568 52.126,90.095 51.363,95.044 46.292 C 99.293 41.939,100.572 41.282,103.413 41.998 M233.259 56.140 C 234.880 56.622,236.556 57.882,240.042 61.240 C 244.445 65.482,244.589 65.515,247.338 62.904 C 254.409 56.191,263.131 55.445,271.465 60.840 C 272.664 61.616,274.015 62.476,274.467 62.750 C 274.920 63.024,276.230 64.200,277.380 65.363 C 281.534 69.564,282.255 69.708,285.601 67.006 C 294.606 59.736,302.062 60.502,309.739 69.486 C 314.006 74.481,314.801 74.682,318.338 71.667 C 320.370 69.935,321.281 69.317,323.284 68.311 L 324.917 67.491 327.409 68.256 C 334.539 70.444,337.493 73.553,338.247 79.660 C 338.600 82.519,339.435 82.863,343.474 81.814 C 351.005 79.857,360.626 83.727,364.240 90.168 C 366.857 94.831,366.574 101.362,363.728 101.987 C 361.028 102.580,362.328 104.866,366.684 107.185 C 371.682 109.847,373.943 112.590,374.356 116.494 C 374.460 117.481,374.733 118.863,374.963 119.566 C 376.749 125.037,372.420 133.462,367.820 133.468 C 365.417 133.471,365.561 135.868,368.096 138.033 C 369.350 139.104,370.700 140.913,371.882 143.103 C 374.631 148.201,374.222 151.845,369.918 160.601 C 365.918 168.738,364.509 169.933,358.540 170.248 L 355.695 170.398 355.041 171.051 C 354.620 171.472,354.343 171.990,354.261 172.506 C 353.012 180.397,345.783 187.842,336.118 191.192 C 330.491 193.142,328.678 192.909,324.256 189.671 C 321.987 188.009,321.642 188.126,320.202 191.046 C 319.098 193.287,318.747 193.613,316.134 194.826 C 302.179 201.304,288.554 200.696,287.211 193.537 C 286.826 191.484,285.767 191.565,284.275 193.761 C 282.031 197.065,278.294 199.046,272.542 199.981 C 271.421 200.163,269.943 200.417,269.257 200.545 C 268.304 200.723,267.631 200.719,266.404 200.528 C 257.310 199.116,253.357 196.214,252.876 190.597 C 252.553 186.832,250.805 186.752,248.992 190.418 C 246.975 194.495,241.520 196.857,234.110 196.862 C 227.878 196.867,224.444 194.406,224.026 189.636 C 223.826 187.349,223.563 186.857,222.542 186.857 C 221.725 186.857,220.878 187.871,219.801 190.137 C 217.619 194.728,211.860 197.318,205.103 196.749 C 197.427 196.101,193.620 192.925,192.452 186.198 C 191.643 181.535,190.583 181.415,189.015 185.809 C 185.643 195.255,170.599 195.221,166.082 185.756 C 164.750 182.965,164.009 182.946,163.128 185.681 C 159.798 196.021,145.812 199.093,137.593 191.289 C 135.312 189.123,134.635 188.834,133.990 189.755 C 133.386 190.617,133.740 192.670,134.660 193.646 C 136.872 195.993,133.630 201.037,128.579 203.105 C 121.726 205.912,116.120 205.961,112.073 203.251 C 107.608 200.261,106.764 200.630,106.686 205.604 C 106.624 209.538,105.896 211.186,103.006 213.932 C 99.456 217.304,96.604 218.408,90.853 218.637 C 83.739 218.920,82.473 220.463,87.213 223.074 C 94.576 227.128,94.905 235.575,87.878 240.152 C 83.740 242.847,85.113 243.942,91.187 242.791 C 97.483 241.598,100.304 243.515,101.915 250.081 C 103.101 254.918,104.107 255.300,106.948 251.997 C 113.959 243.847,123.950 244.210,126.808 252.719 C 128.173 256.783,130.244 256.980,132.372 253.248 C 137.139 244.888,151.164 241.107,157.741 246.409 C 161.041 249.068,161.607 249.045,163.129 246.191 C 164.700 243.245,171.433 238.786,176.261 237.495 C 181.375 236.126,185.607 235.826,187.468 236.699 C 188.085 236.989,189.231 237.457,190.015 237.740 C 190.800 238.024,191.979 238.569,192.636 238.951 C 195.455 240.594,196.295 240.366,198.059 237.483 C 199.359 235.356,203.255 231.299,204.890 230.367 C 205.451 230.048,206.457 229.283,207.127 228.667 C 211.676 224.484,220.460 224.565,225.748 228.839 C 228.420 230.999,229.826 230.938,233.457 228.503 C 238.452 225.155,243.547 223.463,248.701 223.443 C 252.838 223.427,254.449 224.056,257.274 226.789 C 260.286 229.702,260.139 229.685,262.809 227.443 C 270.985 220.573,278.272 220.192,287.493 226.152 C 289.540 227.475,290.533 227.457,291.798 226.074 C 292.542 225.261,294.902 223.552,296.919 222.365 C 305.348 217.405,311.815 218.267,317.410 225.097 C 320.041 228.308,320.411 228.465,322.398 227.211 C 325.335 225.358,324.862 225.479,329.455 225.402 C 336.838 225.279,339.255 226.378,343.187 231.651 C 346.756 236.437,347.234 236.710,350.222 235.666 C 355.545 233.807,360.824 235.642,364.096 240.490 C 366.663 244.294,366.948 245.617,366.296 250.679 C 366.117 252.066,365.970 253.300,365.970 253.421 C 365.970 253.631,368.288 254.724,371.741 256.144 C 374.813 257.408,377.876 260.067,378.986 262.435 C 380.400 265.451,379.332 273.100,376.974 276.842 C 376.544 277.525,376.089 278.465,375.963 278.930 C 375.838 279.395,375.418 280.597,375.030 281.602 C 374.027 284.200,374.066 284.617,375.423 285.777 C 377.263 287.349,377.955 289.739,378.138 295.160 C 378.407 303.085,376.216 307.624,369.768 312.509 C 365.501 315.741,365.268 316.179,366.276 319.064 C 368.687 325.966,357.284 339.494,352.142 335.832 C 350.209 334.456,348.253 336.189,348.240 339.290 C 348.225 343.134,340.727 347.983,335.526 347.511 C 334.270 347.398,333.922 347.443,333.070 347.831 C 330.945 348.799,327.740 347.284,326.675 344.808 C 325.800 342.773,325.312 342.903,321.989 346.058 C 313.200 354.401,304.829 354.945,300.704 347.441 C 298.667 343.736,297.821 343.599,294.699 346.466 C 288.711 351.965,278.546 353.446,273.299 349.583 C 272.061 348.671,270.816 346.741,270.806 345.714 C 270.771 342.393,268.024 342.197,264.743 345.280 C 256.899 352.649,243.674 351.490,240.737 343.176 C 239.832 340.613,236.660 340.599,235.750 343.154 C 235.463 343.960,235.279 344.138,234.164 344.694 C 227.072 348.229,216.623 345.235,214.257 338.990 C 213.162 336.098,211.399 336.061,209.710 338.895 C 206.894 343.617,197.005 345.223,189.062 342.248 C 185.795 341.024,184.892 340.325,180.523 335.637 C 178.347 333.301,177.847 333.384,177.629 336.121 C 177.269 340.639,174.565 343.160,168.925 344.235 C 163.389 345.291,158.888 344.671,155.820 342.430 C 151.931 339.590,151.148 339.974,150.978 344.811 C 150.733 351.747,147.067 356.411,140.031 358.737 C 138.037 359.396,137.842 359.386,132.085 358.304 C 126.786 357.308,126.541 357.282,126.541 357.701 C 126.541 358.625,127.776 360.013,129.453 360.976 C 134.873 364.086,131.001 374.308,122.466 379.419 C 118.135 382.013,118.012 383.910,122.218 383.237 C 125.025 382.788,126.880 382.898,128.135 383.590 C 132.112 385.780,132.808 392.285,129.671 397.962 C 128.409 400.247,128.335 400.414,128.241 401.184 C 127.945 403.620,130.569 404.932,134.072 404.099 C 135.480 403.765,136.014 403.716,136.451 403.882 C 136.791 404.011,137.629 404.043,138.563 403.961 C 140.110 403.826,140.113 403.827,142.012 404.781 C 143.057 405.305,144.588 405.995,145.414 406.313 C 148.787 407.612,150.864 409.987,152.012 413.856 C 153.338 418.330,155.644 418.872,158.079 415.283 C 159.826 412.707,161.592 411.238,165.408 409.183 C 168.720 407.399,169.547 407.374,174.936 408.888 C 177.711 409.667,179.929 411.503,179.929 413.021 C 179.929 413.110,180.254 413.518,180.652 413.927 C 181.925 415.238,183.032 414.767,184.798 412.164 C 186.319 409.922,189.741 406.735,191.805 405.637 C 194.868 404.009,201.975 405.426,205.285 408.325 C 207.235 410.033,208.130 409.992,209.213 408.146 C 213.361 401.080,224.255 398.022,229.852 402.353 C 233.340 405.050,234.264 404.992,235.456 401.999 C 236.875 398.437,240.093 397.058,246.698 397.182 C 251.287 397.268,251.659 397.407,253.500 399.724 C 255.393 402.106,255.834 402.288,257.282 401.284 C 259.916 399.457,260.716 398.975,261.780 398.575 C 267.260 396.517,271.355 398.776,274.057 405.348 C 274.661 406.817,275.056 406.915,277.698 406.252 C 281.937 405.189,285.011 406.020,288.011 409.041 C 290.938 411.987,291.659 414.630,290.553 418.358 C 289.986 420.268,290.400 421.110,292.104 421.513 C 298.828 423.103,296.316 433.984,288.575 436.798 C 285.137 438.049,284.946 438.234,284.813 440.448 C 284.519 445.345,280.137 448.293,273.152 448.293 C 269.556 448.293,269.416 448.350,268.771 450.078 C 267.366 453.839,260.261 454.843,254.814 452.052 C 252.453 450.842,251.856 450.859,250.898 452.165 C 248.910 454.876,247.948 455.554,245.255 456.146 C 241.730 456.920,237.920 456.169,235.473 454.218 C 233.961 453.013,233.765 453.064,231.295 455.296 C 227.089 459.099,221.231 460.461,220.440 457.821 C 220.161 456.890,219.048 455.644,218.019 455.112 C 216.822 454.493,214.406 456.005,212.219 458.741 C 209.543 462.090,202.018 463.016,198.613 460.416 C 194.920 457.596,191.816 458.401,194.191 461.562 C 195.972 463.931,195.824 465.232,193.281 469.587 C 191.488 472.659,192.653 473.251,198.454 472.215 C 200.878 471.782,201.765 471.709,203.261 471.816 C 205.114 471.949,207.309 471.805,212.788 471.188 C 215.633 470.868,215.917 470.869,218.058 471.212 C 220.929 471.673,221.746 471.578,225.267 470.378 L 228.120 469.405 231.584 469.395 C 235.412 469.384,236.352 469.628,236.978 470.798 C 237.363 471.518,237.013 471.859,235.617 472.123 C 235.037 472.233,233.992 472.563,233.296 472.856 C 232.600 473.149,231.196 473.569,230.177 473.788 C 229.158 474.008,226.994 474.639,225.369 475.192 C 221.726 476.430,218.331 477.126,213.953 477.532 C 208.889 478.002,206.962 478.232,204.279 478.691 C 198.258 479.720,189.278 478.650,184.717 476.360 C 179.403 473.691,176.687 466.807,179.038 461.968 C 181.260 457.395,193.089 451.253,201.073 450.526 C 202.388 450.406,204.335 450.127,205.400 449.906 C 210.169 448.913,211.636 448.668,215.079 448.289 C 217.096 448.067,219.829 447.700,221.151 447.473 C 222.622 447.221,225.364 446.984,228.213 446.863 C 230.775 446.754,232.994 446.622,233.145 446.569 C 233.295 446.516,235.665 446.193,238.411 445.852 C 250.186 444.388,262.664 441.453,266.698 439.197 C 270.033 437.332,274.933 433.089,275.206 431.829 C 275.272 431.526,275.606 430.591,275.948 429.750 C 278.385 423.771,274.908 417.645,268.088 415.902 C 263.767 414.797,251.738 414.416,247.580 415.252 C 238.618 417.055,226.799 420.050,222.007 421.734 C 215.872 423.890,215.914 423.878,209.373 425.349 C 207.132 425.853,203.647 426.642,201.630 427.102 C 199.613 427.561,195.762 428.387,193.072 428.937 C 190.382 429.487,187.264 430.210,186.144 430.543 C 181.418 431.948,159.730 433.589,153.439 433.017 C 136.157 431.446,121.110 427.080,111.666 420.895 C 103.873 415.791,95.274 406.690,92.895 401.027 C 91.070 396.683,89.917 378.383,90.973 370.506 C 91.134 369.300,91.457 366.709,91.689 364.748 C 92.610 356.985,93.670 353.894,97.336 348.270 C 103.746 338.437,111.816 330.928,119.839 327.332 C 121.141 326.749,123.428 325.561,124.923 324.692 C 131.869 320.655,139.476 317.664,146.918 316.046 C 148.879 315.620,152.501 314.790,154.967 314.202 C 170.164 310.581,173.210 310.216,190.015 310.009 C 196.872 309.924,200.734 309.958,202.343 310.118 C 203.632 310.246,208.355 310.441,212.837 310.551 C 223.679 310.818,225.457 310.984,233.520 312.484 C 240.654 313.811,241.663 313.965,245.441 314.308 C 247.346 314.480,249.913 314.754,251.146 314.917 C 270.664 317.490,272.829 317.738,280.387 318.278 C 302.619 319.866,311.802 319.633,317.983 317.327 C 321.748 315.922,322.258 315.667,325.205 313.719 C 335.777 306.731,339.059 296.450,334.767 283.763 C 331.675 274.621,326.473 267.157,321.447 264.648 C 317.019 262.438,312.022 261.119,301.172 259.293 C 290.981 257.579,268.988 257.944,262.058 259.943 C 258.425 260.991,251.052 262.452,249.385 262.454 C 248.977 262.455,247.602 262.724,246.329 263.053 C 245.056 263.382,242.318 263.985,240.245 264.393 C 235.467 265.334,233.457 265.839,232.451 266.353 C 232.011 266.577,230.261 267.119,228.561 267.557 C 223.951 268.746,215.501 270.864,211.921 271.727 C 210.183 272.146,207.026 272.986,204.904 273.592 C 202.782 274.199,198.931 275.247,196.346 275.922 C 193.760 276.597,190.774 277.411,189.710 277.731 C 188.645 278.051,186.673 278.561,185.329 278.865 C 183.984 279.169,181.004 279.919,178.706 280.532 C 172.512 282.185,162.211 284.810,159.654 285.388 C 157.497 285.876,154.603 286.790,151.039 288.110 C 149.771 288.580,148.380 288.863,145.435 289.252 C 143.281 289.536,139.172 290.225,136.304 290.782 C 129.179 292.166,128.505 292.217,120.252 292.000 C 103.243 291.553,98.978 290.132,77.102 277.629 C 76.192 277.109,74.633 276.037,73.638 275.248 C 72.643 274.459,70.618 272.952,69.139 271.901 C 66.066 269.716,64.953 268.686,63.332 266.531 C 62.701 265.690,61.113 263.719,59.805 262.150 C 49.310 249.565,44.730 231.116,49.012 218.675 C 49.500 217.257,50.134 215.192,50.421 214.087 C 52.120 207.546,58.914 195.913,64.537 189.913 C 65.535 188.849,66.687 187.468,67.097 186.845 C 68.267 185.069,74.108 179.475,77.229 177.143 C 84.237 171.907,95.336 165.535,103.006 162.344 C 105.023 161.505,107.881 160.264,109.358 159.586 C 116.021 156.528,130.648 151.755,136.933 150.587 C 138.222 150.348,140.515 149.841,142.028 149.460 C 145.849 148.499,155.193 147.251,162.812 146.685 C 167.253 146.355,189.373 146.579,192.834 146.990 C 194.384 147.174,197.460 147.366,199.669 147.417 C 201.879 147.468,203.820 147.558,203.983 147.616 C 204.318 147.735,213.708 148.663,216.505 148.853 C 221.072 149.162,227.165 149.849,230.056 150.380 C 231.793 150.699,234.452 151.155,235.965 151.395 C 242.558 152.437,245.180 152.927,250.841 154.175 C 257.508 155.646,266.227 157.830,271.523 159.355 C 289.681 164.585,304.327 164.457,316.819 158.959 C 331.188 152.636,336.841 133.778,328.347 120.500 C 326.660 117.863,322.659 114.425,320.315 113.598 C 319.826 113.425,318.643 112.867,317.685 112.357 C 315.004 110.929,312.463 109.909,309.384 109.025 C 307.837 108.581,305.907 107.990,305.095 107.713 C 303.115 107.035,301.197 106.699,295.160 105.970 C 292.359 105.631,289.058 105.218,287.825 105.052 C 277.211 103.619,261.493 103.169,250.229 103.974 C 247.483 104.170,242.669 104.423,239.531 104.535 C 236.393 104.648,233.367 104.834,232.807 104.948 C 232.247 105.062,228.488 105.477,224.455 105.869 C 220.421 106.262,216.478 106.685,215.692 106.811 C 214.800 106.953,210.586 107.046,204.464 107.060 C 192.677 107.085,192.967 107.157,195.083 104.732 C 197.799 101.618,198.446 97.799,196.593 95.826 C 195.469 94.629,195.022 95.237,194.809 98.253 C 194.463 103.171,191.815 104.952,190.770 100.971 C 189.780 97.198,188.076 94.874,186.391 94.996 C 185.149 95.086,185.147 95.622,186.382 97.575 C 188.256 100.543,187.119 107.303,184.448 109.070 C 181.710 110.883,170.964 115.929,166.512 117.494 C 164.793 118.098,162.501 118.948,161.418 119.383 C 159.386 120.199,158.255 120.495,153.868 121.360 C 150.671 121.989,149.322 122.430,146.442 123.783 C 141.802 125.963,136.634 127.900,132.503 129.006 C 130.131 129.641,128.356 130.320,126.208 131.414 C 121.504 133.810,118.409 133.756,120.192 131.309 C 122.620 127.978,127.121 125.553,138.767 121.302 C 154.846 115.433,155.344 114.999,155.013 107.149 C 154.790 101.859,153.264 100.555,147.020 100.317 C 144.204 100.210,143.293 100.260,133.481 101.062 C 120.670 102.110,113.428 102.114,104.168 101.080 C 101.109 100.738,96.704 100.376,94.378 100.275 C 89.740 100.074,89.063 99.917,87.851 98.767 C 86.059 97.065,86.142 95.338,88.132 92.993 C 90.129 90.638,89.672 89.944,85.938 89.662 C 80.137 89.225,80.490 86.950,86.680 84.872 C 89.730 83.848,90.858 84.185,93.870 87.021 C 96.927 89.899,100.228 91.301,101.528 90.275 C 102.621 89.413,102.003 88.346,99.847 87.375 C 94.645 85.034,95.951 79.609,101.953 78.631 C 105.156 78.109,108.424 79.805,111.175 83.417 C 112.362 84.975,112.904 85.393,113.919 85.529 C 115.656 85.762,116.225 84.640,115.037 83.325 C 111.979 79.940,113.200 74.971,117.102 74.914 C 118.385 74.896,118.741 75.174,120.353 77.462 C 123.872 82.456,129.288 84.641,134.391 83.123 C 136.896 82.377,136.796 82.367,138.180 83.501 C 142.061 86.680,145.392 86.669,146.612 83.473 C 147.203 81.924,146.578 81.588,144.325 82.243 C 141.642 83.023,139.379 82.206,139.379 80.458 C 139.379 79.281,139.756 79.176,142.505 79.589 C 145.896 80.099,147.007 79.357,147.560 76.215 C 148.126 73.001,149.793 73.367,151.357 77.049 C 153.555 82.222,156.848 84.939,159.860 84.063 C 162.218 83.378,161.944 81.872,159.292 80.945 C 157.651 80.372,156.668 79.340,155.476 76.941 C 154.080 74.133,152.392 72.074,149.361 69.485 C 146.597 67.125,146.289 66.773,146.660 66.402 C 147.408 65.653,153.511 65.185,157.087 65.601 C 158.253 65.737,160.958 65.929,163.098 66.027 C 165.728 66.148,167.914 66.376,169.842 66.732 C 176.010 67.870,183.451 68.723,185.055 68.475 C 186.714 68.218,187.315 67.545,188.345 64.792 C 191.570 56.168,197.931 56.309,205.355 65.167 C 209.042 69.566,209.970 69.668,212.499 65.954 C 215.418 61.665,220.139 58.187,224.596 57.042 C 229.248 55.847,231.486 55.614,233.259 56.140 M140.604 66.390 C 141.112 66.802,140.897 67.544,140.044 68.316 C 139.826 68.513,139.256 69.521,138.776 70.557 C 135.619 77.378,134.804 78.590,132.700 79.596 C 128.111 81.790,121.785 77.331,123.537 73.137 C 125.155 69.267,128.230 67.331,133.995 66.552 C 138.689 65.918,139.982 65.887,140.604 66.390 M144.342 70.478 C 145.453 70.915,145.342 72.542,144.201 72.542 C 143.040 72.542,142.456 71.474,143.180 70.673 C 143.540 70.276,143.741 70.242,144.342 70.478 M146.816 93.124 C 146.368 93.213,144.030 93.389,141.620 93.516 C 136.115 93.807,133.261 94.126,125.726 95.289 C 122.420 95.800,118.935 96.261,117.983 96.312 C 112.966 96.586,115.721 97.400,121.651 97.397 C 125.084 97.395,126.015 97.322,132.247 96.573 C 136.693 96.039,146.092 95.813,149.606 96.156 C 157.016 96.879,160.175 99.633,160.767 105.883 C 161.030 108.663,161.369 108.832,162.217 106.604 C 163.843 102.333,161.183 96.142,156.867 94.151 C 154.817 93.206,149.275 92.640,146.816 93.124 M78.854 112.189 C 78.562 112.956,78.612 113.700,78.963 113.835 C 79.691 114.114,80.149 112.960,79.667 112.060 C 79.378 111.520,79.091 111.566,78.854 112.189 M36.000 115.181 C 34.525 117.151,33.567 120.495,34.274 121.202 C 35.350 122.278,39.124 119.424,39.124 117.534 C 39.124 116.243,37.883 114.519,36.955 114.519 C 36.674 114.519,36.303 114.776,36.000 115.181 M118.070 114.789 C 117.936 115.139,118.318 116.149,118.585 116.149 C 118.698 116.149,118.848 115.918,118.919 115.637 C 119.110 114.872,118.335 114.098,118.070 114.789 M44.122 122.530 C 43.365 123.685,42.761 127.243,43.240 127.723 C 44.271 128.754,46.257 126.373,46.255 124.110 C 46.253 122.468,44.846 121.425,44.122 122.530 M77.447 133.395 C 76.899 134.092,76.872 135.509,77.398 135.985 C 78.426 136.915,79.878 135.926,79.878 134.294 C 79.878 132.951,78.266 132.354,77.447 133.395 M85.181 134.272 C 84.756 135.297,84.802 136.220,85.277 136.220 C 85.571 136.220,85.757 135.995,85.949 135.409 C 86.420 133.972,85.729 132.949,85.181 134.272 M203.688 466.177 C 204.468 466.698,204.429 467.792,203.605 468.535 C 202.382 469.636,201.664 467.958,202.761 466.564 C 203.214 465.988,203.332 465.939,203.688 466.177 " stroke="none" fill="#000000" fill-rule="evenodd"></path><path id="path1" d="M160.355 14.459 C 160.068 14.545,159.635 14.722,159.391 14.852 C 159.148 14.982,158.079 15.171,157.015 15.272 C 151.940 15.752,151.084 17.827,153.942 22.720 C 155.531 25.441,154.411 27.987,151.627 27.983 C 150.440 27.981,149.694 27.690,147.798 26.487 C 145.599 25.093,144.407 25.867,142.392 30.001 C 140.625 33.627,140.647 33.516,141.312 35.210 C 142.133 37.303,142.619 37.692,144.708 37.929 C 145.643 38.036,146.791 38.169,147.259 38.226 C 151.350 38.723,152.668 44.550,149.575 48.463 C 147.527 51.054,143.019 50.970,140.108 48.287 C 138.950 47.219,137.404 46.888,137.201 47.664 C 136.969 48.550,134.538 49.312,131.940 49.312 C 123.710 49.312,123.252 37.288,131.451 36.461 C 133.730 36.231,133.786 36.200,134.508 34.733 C 136.642 30.399,134.172 25.720,129.731 25.683 C 127.471 25.664,126.342 27.650,126.338 31.649 C 126.337 33.119,126.206 33.369,124.479 35.197 C 122.992 36.770,123.009 36.730,122.712 39.274 C 122.545 40.698,122.385 41.169,121.656 42.375 C 120.217 44.757,120.309 45.181,123.972 53.033 C 125.162 55.583,126.500 58.563,126.945 59.655 C 128.265 62.889,128.827 63.147,133.775 62.786 C 150.459 61.570,169.106 62.293,178.234 64.509 C 184.910 66.131,185.397 65.959,186.933 61.437 C 187.466 59.868,188.504 57.254,189.240 55.629 C 192.623 48.156,192.755 47.247,190.609 46.204 C 189.414 45.623,189.232 45.749,188.064 47.959 C 186.882 50.197,186.353 50.781,184.157 52.276 C 182.164 53.632,182.200 53.566,182.832 54.776 C 183.676 56.391,182.364 56.673,178.986 55.603 C 176.203 54.722,174.445 54.696,172.491 55.509 C 169.273 56.847,164.726 55.789,161.284 52.903 C 159.739 51.607,159.239 51.350,158.269 51.350 C 157.349 51.350,157.294 51.380,154.301 53.482 C 151.630 55.360,149.373 55.750,145.390 55.025 C 141.064 54.237,140.606 54.187,136.331 54.018 C 130.440 53.786,129.836 53.345,133.751 52.133 C 134.885 51.782,136.515 51.187,137.374 50.811 C 139.382 49.932,139.772 49.949,141.501 50.993 C 142.861 51.815,143.017 51.860,144.540 51.866 C 145.803 51.871,146.198 51.945,146.395 52.214 C 146.768 52.723,147.618 52.980,148.932 52.980 C 152.166 52.980,154.877 51.132,156.553 47.784 C 157.695 45.501,158.362 45.568,160.021 48.134 C 163.346 53.274,169.929 55.288,174.461 52.552 C 175.932 51.663,176.863 51.502,177.449 52.032 C 178.327 52.826,178.623 51.989,177.859 50.872 C 176.179 48.414,175.714 48.309,172.866 49.746 C 166.824 52.793,162.541 49.295,162.848 41.563 C 162.978 38.286,163.295 38.064,168.530 37.594 C 175.512 36.967,176.396 36.245,176.213 31.313 C 175.977 24.933,173.425 23.258,168.716 26.392 C 165.650 28.432,164.768 27.407,165.764 22.958 C 166.258 20.749,166.118 19.648,165.155 18.188 C 163.137 15.126,161.743 14.044,160.355 14.459 M117.166 25.458 C 116.222 25.745,115.324 26.299,114.044 27.385 C 112.231 28.923,111.343 29.459,109.795 29.954 C 107.455 30.700,107.488 30.942,110.271 33.453 C 113.633 36.487,114.170 36.700,115.815 35.657 C 116.348 35.319,117.306 34.778,117.944 34.454 C 122.573 32.108,121.875 24.026,117.166 25.458 M162.215 29.292 C 164.603 30.502,165.067 32.848,163.360 35.086 C 160.221 39.202,153.626 36.962,155.664 32.473 C 157.031 29.463,159.850 28.094,162.215 29.292 M200.509 31.559 C 196.180 32.951,194.766 35.946,197.697 37.515 C 198.801 38.106,203.566 33.742,203.566 32.141 C 203.566 31.191,202.364 30.963,200.509 31.559 M159.603 32.397 C 158.372 33.148,158.883 34.566,160.324 34.399 C 161.359 34.279,161.608 32.759,160.693 32.148 C 160.378 31.938,160.343 31.946,159.603 32.397 M186.924 32.384 C 184.624 33.797,182.999 38.113,183.890 40.446 C 185.582 44.876,192.792 40.102,191.865 35.165 C 191.502 33.225,188.398 31.479,186.924 32.384 M179.165 35.150 C 179.167 35.599,179.209 35.758,179.258 35.505 C 179.306 35.251,179.305 34.884,179.254 34.689 C 179.203 34.495,179.163 34.702,179.165 35.150 M117.182 37.827 C 115.774 39.617,118.325 42.061,119.928 40.458 C 120.745 39.640,120.476 38.466,119.293 37.686 C 118.448 37.129,117.692 37.179,117.182 37.827 M193.276 39.834 C 190.859 40.969,190.675 43.810,193.018 43.810 C 195.343 43.810,196.530 40.835,194.602 39.838 C 193.904 39.477,194.036 39.477,193.276 39.834 M100.076 41.992 C 98.370 42.675,91.016 50.071,89.833 52.293 C 89.543 52.839,89.106 54.167,88.863 55.244 C 88.157 58.367,87.214 59.390,83.636 60.917 C 79.308 62.765,77.745 64.706,75.375 71.174 C 74.030 74.846,73.557 75.633,71.001 78.451 C 68.909 80.758,66.965 83.299,65.903 85.114 C 65.154 86.396,64.465 87.093,62.559 88.494 C 58.381 91.567,57.038 99.276,59.792 104.376 C 63.305 110.879,60.428 115.945,53.222 115.945 C 49.224 115.945,47.549 115.194,46.168 112.781 C 44.773 110.345,43.235 109.088,40.681 108.298 L 39.487 107.928 38.473 109.084 C 37.201 110.535,36.723 110.580,34.845 109.424 C 33.353 108.507,32.862 108.447,30.667 108.911 C 29.883 109.078,28.370 109.217,27.305 109.221 C 22.775 109.239,22.369 109.442,20.968 112.395 C 19.747 114.967,19.642 115.062,18.334 114.760 C 16.853 114.418,16.305 114.780,16.707 115.837 C 17.010 116.634,18.278 117.335,19.810 117.552 C 21.890 117.847,22.077 118.132,20.879 119.184 C 20.063 119.901,19.566 119.956,17.338 119.574 C 12.957 118.822,15.161 123.161,19.695 124.212 C 21.282 124.580,21.600 124.779,21.600 125.406 C 21.600 126.416,21.178 126.627,19.143 126.635 C 17.064 126.644,16.585 126.925,17.789 127.428 C 18.639 127.783,19.567 128.945,19.623 129.723 C 19.689 130.649,18.974 130.872,17.145 130.493 C 14.466 129.939,13.603 130.411,14.768 131.795 C 16.350 133.675,18.856 133.787,20.977 132.071 C 22.169 131.108,22.863 131.119,24.962 132.135 C 28.792 133.989,32.700 132.859,33.206 129.751 C 33.661 126.953,34.424 126.412,36.029 127.748 C 38.060 129.439,38.321 130.228,37.476 132.137 C 35.528 136.541,44.105 134.919,47.168 130.305 C 48.166 128.801,48.612 127.404,48.786 125.233 C 49.001 122.548,49.544 121.651,50.954 121.651 C 52.255 121.651,52.513 123.075,51.763 126.112 C 51.066 128.932,51.539 129.592,54.031 129.274 C 57.590 128.819,58.771 127.471,58.723 123.918 C 58.694 121.709,58.879 121.190,59.661 121.282 C 61.227 121.465,62.035 125.032,61.152 127.866 C 60.942 128.538,60.708 129.684,60.630 130.413 C 60.342 133.123,59.859 135.882,59.257 138.251 C 57.823 143.896,59.893 146.889,69.277 152.743 C 74.280 155.864,74.105 156.700,67.244 162.434 C 65.955 163.512,63.802 165.565,62.458 166.997 C 58.751 170.949,55.189 173.611,53.610 173.612 C 53.320 173.612,52.134 173.842,50.975 174.123 C 49.816 174.404,47.909 174.717,46.738 174.818 C 41.742 175.252,40.937 177.405,45.801 177.324 C 48.041 177.287,48.282 177.381,50.050 178.986 C 52.977 181.644,52.640 183.053,47.905 187.949 C 44.068 191.916,43.726 193.082,46.643 192.247 C 51.401 190.884,54.725 187.579,58.163 180.794 C 59.449 178.257,59.638 177.997,61.299 176.484 C 65.639 172.532,68.169 170.290,68.557 170.055 C 68.787 169.916,70.339 168.995,72.004 168.009 C 76.120 165.572,80.593 161.027,82.623 157.219 L 83.228 156.083 82.827 155.338 C 82.217 154.205,80.825 152.752,78.670 150.997 C 73.599 146.867,70.177 142.424,70.338 140.176 C 70.432 138.875,70.608 138.846,76.671 139.138 C 79.499 139.274,83.362 139.383,85.255 139.382 L 88.697 139.379 90.349 138.299 C 94.637 135.498,94.812 135.485,94.957 137.952 C 95.057 139.662,95.066 139.685,95.620 139.749 C 96.320 139.829,101.259 138.289,102.496 137.604 C 104.199 136.662,106.854 134.800,107.962 133.771 L 109.063 132.749 109.157 130.817 C 109.333 127.215,109.637 127.565,110.227 132.051 C 110.822 136.573,111.323 136.834,113.839 133.933 C 117.868 129.286,118.035 127.502,114.777 123.914 L 113.594 122.612 111.534 122.452 C 107.605 122.148,104.738 120.791,104.738 119.236 C 104.738 118.252,105.268 118.268,106.761 119.296 C 108.633 120.583,110.734 121.293,112.787 121.331 C 114.921 121.370,115.417 121.641,117.687 124.008 C 119.996 126.414,120.084 126.426,122.976 124.747 C 126.505 122.699,130.141 121.133,139.134 117.789 C 148.588 114.274,152.315 111.524,152.317 108.064 C 152.319 104.786,149.274 104.186,137.850 105.212 C 129.285 105.981,118.875 106.186,110.138 105.757 C 98.184 105.169,98.727 105.102,99.512 107.063 C 100.369 109.203,100.193 110.305,99.200 109.009 C 97.906 107.319,97.467 106.933,96.040 106.227 C 93.705 105.073,91.956 105.098,90.909 106.301 C 89.789 107.586,89.420 107.561,87.217 106.052 C 83.614 103.584,81.385 102.827,78.342 103.035 C 75.491 103.231,73.208 102.428,71.079 100.483 C 68.784 98.385,68.789 97.437,71.125 92.457 C 71.926 90.750,73.233 87.902,74.030 86.129 C 75.458 82.951,75.508 82.874,77.576 80.667 C 78.730 79.436,79.674 78.295,79.674 78.131 C 79.674 77.642,82.390 72.487,83.552 70.772 C 87.699 64.649,90.627 62.480,100.153 58.477 C 103.878 56.912,104.572 56.467,104.205 55.881 C 103.805 55.243,102.640 55.333,100.812 56.145 C 97.377 57.671,95.764 58.297,95.575 58.180 C 95.000 57.825,95.109 56.625,95.812 55.565 C 96.198 54.984,96.865 53.958,97.294 53.286 C 98.514 51.375,101.381 48.633,102.496 48.310 C 104.694 47.673,106.572 46.339,106.572 45.413 C 106.572 43.034,102.643 40.965,100.076 41.992 M228.120 56.238 C 220.695 57.737,216.181 60.544,212.499 65.954 C 209.970 69.668,209.042 69.566,205.355 65.167 C 197.931 56.309,191.570 56.168,188.345 64.792 C 187.315 67.545,186.714 68.218,185.055 68.475 C 183.451 68.723,176.010 67.870,169.842 66.732 C 167.914 66.376,165.728 66.148,163.098 66.027 C 160.958 65.929,158.253 65.737,157.087 65.601 C 153.511 65.185,147.408 65.653,146.660 66.402 C 146.289 66.773,146.597 67.125,149.361 69.485 C 152.392 72.074,154.080 74.133,155.476 76.941 C 156.668 79.340,157.651 80.372,159.292 80.945 C 161.944 81.872,162.218 83.378,159.860 84.063 C 156.848 84.939,153.555 82.222,151.357 77.049 C 149.793 73.367,148.126 73.001,147.560 76.215 C 147.007 79.357,145.896 80.099,142.505 79.589 C 139.756 79.176,139.379 79.281,139.379 80.458 C 139.379 82.206,141.642 83.023,144.325 82.243 C 146.578 81.588,147.203 81.924,146.612 83.473 C 145.392 86.669,142.061 86.680,138.180 83.501 C 136.796 82.367,136.896 82.377,134.391 83.123 C 129.288 84.641,123.872 82.456,120.353 77.462 C 118.741 75.174,118.385 74.896,117.102 74.914 C 113.200 74.971,111.979 79.940,115.037 83.325 C 116.225 84.640,115.656 85.762,113.919 85.529 C 112.904 85.393,112.362 84.975,111.175 83.417 C 108.424 79.805,105.156 78.109,101.953 78.631 C 95.951 79.609,94.645 85.034,99.847 87.375 C 101.220 87.993,102.089 88.769,102.089 89.376 C 102.089 91.812,97.589 90.522,93.870 87.021 C 90.858 84.185,89.730 83.848,86.680 84.872 C 80.490 86.950,80.137 89.225,85.938 89.662 C 89.672 89.944,90.129 90.638,88.132 92.993 C 86.142 95.338,86.059 97.065,87.851 98.767 C 89.063 99.917,89.740 100.074,94.378 100.275 C 96.704 100.376,101.109 100.738,104.168 101.080 C 113.428 102.114,120.670 102.110,133.481 101.062 C 143.293 100.260,144.204 100.210,147.020 100.317 C 153.264 100.555,154.790 101.859,155.013 107.149 C 155.344 114.999,154.846 115.433,138.767 121.302 C 127.121 125.553,122.620 127.978,120.192 131.309 C 118.409 133.756,121.504 133.810,126.208 131.414 C 128.356 130.320,130.131 129.641,132.503 129.006 C 136.634 127.900,141.802 125.963,146.442 123.783 C 149.322 122.430,150.671 121.989,153.868 121.360 C 158.255 120.495,159.386 120.199,161.418 119.383 C 162.501 118.948,164.793 118.098,166.512 117.494 C 170.964 115.929,181.710 110.883,184.448 109.070 C 187.119 107.303,188.256 100.543,186.382 97.575 C 185.147 95.622,185.149 95.086,186.391 94.996 C 188.076 94.874,189.780 97.198,190.770 100.971 C 191.815 104.952,194.463 103.171,194.809 98.253 C 195.022 95.237,195.469 94.629,196.593 95.826 C 198.446 97.799,197.799 101.618,195.083 104.732 C 192.967 107.157,192.677 107.085,204.464 107.060 C 210.586 107.046,214.800 106.953,215.692 106.811 C 216.478 106.685,220.421 106.262,224.455 105.869 C 228.488 105.477,232.247 105.062,232.807 104.948 C 233.367 104.834,236.393 104.648,239.531 104.535 C 242.669 104.423,247.483 104.170,250.229 103.974 C 261.493 103.169,277.211 103.619,287.825 105.052 C 289.058 105.218,292.359 105.631,295.160 105.970 C 301.197 106.699,303.115 107.035,305.095 107.713 C 305.907 107.990,307.837 108.581,309.384 109.025 C 312.463 109.909,315.004 110.929,317.685 112.357 C 318.643 112.867,319.826 113.425,320.315 113.598 C 322.659 114.425,326.660 117.863,328.347 120.500 C 336.841 133.778,331.188 152.636,316.819 158.959 C 304.327 164.457,289.681 164.585,271.523 159.355 C 266.227 157.830,257.508 155.646,250.841 154.175 C 245.180 152.927,242.558 152.437,235.965 151.395 C 234.452 151.155,231.793 150.699,230.056 150.380 C 227.165 149.849,221.072 149.162,216.505 148.853 C 213.708 148.663,204.318 147.735,203.983 147.616 C 203.820 147.558,201.879 147.468,199.669 147.417 C 197.460 147.366,194.384 147.174,192.834 146.990 C 189.373 146.579,167.253 146.355,162.812 146.685 C 155.193 147.251,145.849 148.499,142.028 149.460 C 140.515 149.841,138.222 150.348,136.933 150.587 C 130.648 151.755,116.021 156.528,109.358 159.586 C 107.881 160.264,105.023 161.505,103.006 162.344 C 95.336 165.535,84.237 171.907,77.229 177.143 C 74.108 179.475,68.267 185.069,67.097 186.845 C 66.687 187.468,65.535 188.849,64.537 189.913 C 58.914 195.913,52.120 207.546,50.421 214.087 C 50.134 215.192,49.500 217.257,49.012 218.675 C 44.730 231.116,49.310 249.565,59.805 262.150 C 61.113 263.719,62.701 265.690,63.332 266.531 C 64.953 268.686,66.066 269.716,69.139 271.901 C 70.618 272.952,72.643 274.459,73.638 275.248 C 74.633 276.037,76.192 277.109,77.102 277.629 C 98.978 290.132,103.243 291.553,120.252 292.000 C 128.505 292.217,129.179 292.166,136.304 290.782 C 139.172 290.225,143.281 289.536,145.435 289.252 C 148.380 288.863,149.771 288.580,151.039 288.110 C 154.603 286.790,157.497 285.876,159.654 285.388 C 162.211 284.810,172.512 282.185,178.706 280.532 C 181.004 279.919,183.984 279.169,185.329 278.865 C 186.673 278.561,188.645 278.051,189.710 277.731 C 190.774 277.411,193.760 276.597,196.346 275.922 C 198.931 275.247,202.782 274.199,204.904 273.592 C 207.026 272.986,210.183 272.146,211.921 271.727 C 215.501 270.864,223.951 268.746,228.561 267.557 C 230.261 267.119,232.011 266.577,232.451 266.353 C 233.457 265.839,235.467 265.334,240.245 264.393 C 242.318 263.985,245.056 263.382,246.329 263.053 C 247.602 262.724,248.977 262.455,249.385 262.454 C 251.052 262.452,258.425 260.991,262.058 259.943 C 268.988 257.944,290.981 257.579,301.172 259.293 C 316.891 261.938,322.335 263.940,326.262 268.522 C 334.433 278.055,338.316 290.951,335.786 300.153 C 334.074 306.379,327.912 313.175,321.441 315.976 C 314.781 318.859,312.744 319.206,302.496 319.203 C 287.163 319.199,277.536 318.395,251.146 314.917 C 249.913 314.754,247.346 314.480,245.441 314.308 C 241.663 313.965,240.654 313.811,233.520 312.484 C 225.457 310.984,223.679 310.818,212.837 310.551 C 208.355 310.441,203.632 310.246,202.343 310.118 C 200.734 309.958,196.872 309.924,190.015 310.009 C 173.210 310.216,170.164 310.581,154.967 314.202 C 152.501 314.790,148.879 315.620,146.918 316.046 C 139.476 317.664,131.869 320.655,124.923 324.692 C 123.428 325.561,121.141 326.749,119.839 327.332 C 111.816 330.928,103.746 338.437,97.336 348.270 C 93.670 353.894,92.610 356.985,91.689 364.748 C 91.457 366.709,91.134 369.300,90.973 370.506 C 89.917 378.383,91.070 396.683,92.895 401.027 C 95.274 406.690,103.873 415.791,111.666 420.895 C 121.110 427.080,136.157 431.446,153.439 433.017 C 159.730 433.589,181.418 431.948,186.144 430.543 C 187.264 430.210,190.382 429.487,193.072 428.937 C 195.762 428.387,199.613 427.561,201.630 427.102 C 203.647 426.642,207.132 425.853,209.373 425.349 C 215.914 423.878,215.872 423.890,222.007 421.734 C 226.799 420.050,238.618 417.055,247.580 415.252 C 251.738 414.416,263.767 414.797,268.088 415.902 C 274.908 417.645,278.385 423.771,275.948 429.750 C 275.606 430.591,275.272 431.526,275.206 431.829 C 274.933 433.089,270.033 437.332,266.698 439.197 C 262.664 441.453,250.186 444.388,238.411 445.852 C 235.665 446.193,233.295 446.516,233.145 446.569 C 232.994 446.622,230.775 446.754,228.213 446.863 C 225.364 446.984,222.622 447.221,221.151 447.473 C 219.829 447.700,217.096 448.067,215.079 448.289 C 211.636 448.668,210.169 448.913,205.400 449.906 C 204.335 450.127,202.388 450.406,201.073 450.526 C 193.089 451.253,181.260 457.395,179.038 461.968 C 176.687 466.807,179.403 473.691,184.717 476.360 C 189.278 478.650,198.258 479.720,204.279 478.691 C 206.962 478.232,208.889 478.002,213.953 477.532 C 218.331 477.126,221.726 476.430,225.369 475.192 C 226.994 474.639,229.158 474.008,230.177 473.788 C 231.196 473.569,232.600 473.149,233.296 472.856 C 233.992 472.563,235.037 472.233,235.617 472.123 C 237.013 471.859,237.363 471.518,236.978 470.798 C 236.352 469.628,235.412 469.384,231.584 469.395 L 228.120 469.405 225.267 470.378 C 221.746 471.578,220.929 471.673,218.058 471.212 C 215.917 470.869,215.633 470.868,212.788 471.188 C 207.309 471.805,205.114 471.949,203.261 471.816 C 201.765 471.709,200.878 471.782,198.454 472.215 C 192.653 473.251,191.488 472.659,193.281 469.587 C 195.824 465.232,195.972 463.931,194.191 461.562 C 191.816 458.401,194.920 457.596,198.613 460.416 C 202.018 463.016,209.543 462.090,212.219 458.741 C 214.406 456.005,216.822 454.493,218.019 455.112 C 219.048 455.644,220.161 456.890,220.440 457.821 C 221.231 460.461,227.089 459.099,231.295 455.296 C 233.765 453.064,233.961 453.013,235.473 454.218 C 237.920 456.169,241.730 456.920,245.255 456.146 C 247.948 455.554,248.910 454.876,250.898 452.165 C 251.856 450.859,252.453 450.842,254.814 452.052 C 260.261 454.843,267.366 453.839,268.771 450.078 C 269.416 448.350,269.556 448.293,273.152 448.293 C 280.137 448.293,284.519 445.345,284.813 440.448 C 284.946 438.234,285.137 438.049,288.575 436.798 C 296.316 433.984,298.828 423.103,292.104 421.513 C 290.400 421.110,289.986 420.268,290.553 418.358 C 291.659 414.630,290.938 411.987,288.011 409.041 C 285.011 406.020,281.937 405.189,277.698 406.252 C 275.056 406.915,274.661 406.817,274.057 405.348 C 271.355 398.776,267.260 396.517,261.780 398.575 C 260.716 398.975,259.916 399.457,257.282 401.284 C 255.834 402.288,255.393 402.106,253.500 399.724 C 251.659 397.407,251.287 397.268,246.698 397.182 C 240.093 397.058,236.875 398.437,235.456 401.999 C 234.264 404.992,233.340 405.050,229.852 402.353 C 224.255 398.022,213.361 401.080,209.213 408.146 C 208.130 409.992,207.235 410.033,205.285 408.325 C 201.975 405.426,194.868 404.009,191.805 405.637 C 189.741 406.735,186.319 409.922,184.798 412.164 C 183.032 414.767,181.925 415.238,180.652 413.927 C 180.254 413.518,179.929 413.110,179.929 413.021 C 179.929 411.503,177.711 409.667,174.936 408.888 C 169.547 407.374,168.720 407.399,165.408 409.183 C 161.592 411.238,159.826 412.707,158.079 415.283 C 155.644 418.872,153.338 418.330,152.012 413.856 C 150.864 409.987,148.787 407.612,145.414 406.313 C 144.588 405.995,143.057 405.305,142.012 404.781 C 140.113 403.827,140.110 403.826,138.563 403.961 C 137.629 404.043,136.791 404.011,136.451 403.882 C 136.014 403.716,135.480 403.765,134.072 404.099 C 130.569 404.932,127.945 403.620,128.241 401.184 C 128.335 400.414,128.409 400.247,129.671 397.962 C 132.808 392.285,132.112 385.780,128.135 383.590 C 126.880 382.898,125.025 382.788,122.218 383.237 C 118.012 383.910,118.135 382.013,122.466 379.419 C 131.001 374.308,134.873 364.086,129.453 360.976 C 127.776 360.013,126.541 358.625,126.541 357.701 C 126.541 357.282,126.786 357.308,132.085 358.304 C 137.842 359.386,138.037 359.396,140.031 358.737 C 147.067 356.411,150.733 351.747,150.978 344.811 C 151.148 339.974,151.931 339.590,155.820 342.430 C 158.888 344.671,163.389 345.291,168.925 344.235 C 174.565 343.160,177.269 340.639,177.629 336.121 C 177.847 333.384,178.347 333.301,180.523 335.637 C 184.892 340.325,185.795 341.024,189.062 342.248 C 197.005 345.223,206.894 343.617,209.710 338.895 C 211.399 336.061,213.162 336.098,214.257 338.990 C 216.623 345.235,227.072 348.229,234.164 344.694 C 235.279 344.138,235.463 343.960,235.750 343.154 C 236.660 340.599,239.832 340.613,240.737 343.176 C 243.674 351.490,256.899 352.649,264.743 345.280 C 268.024 342.197,270.771 342.393,270.806 345.714 C 270.816 346.741,272.061 348.671,273.299 349.583 C 278.546 353.446,288.711 351.965,294.699 346.466 C 297.821 343.599,298.667 343.736,300.704 347.441 C 304.829 354.945,313.200 354.401,321.989 346.058 C 325.312 342.903,325.800 342.773,326.675 344.808 C 327.740 347.284,330.945 348.799,333.070 347.831 C 333.922 347.443,334.270 347.398,335.526 347.511 C 340.727 347.983,348.225 343.134,348.240 339.290 C 348.253 336.189,350.209 334.456,352.142 335.832 C 357.284 339.494,368.687 325.966,366.276 319.064 C 365.268 316.179,365.501 315.741,369.768 312.509 C 376.216 307.624,378.407 303.085,378.138 295.160 C 377.955 289.739,377.263 287.349,375.423 285.777 C 374.066 284.617,374.027 284.200,375.030 281.602 C 375.418 280.597,375.838 279.395,375.963 278.930 C 376.089 278.465,376.544 277.525,376.974 276.842 C 379.332 273.100,380.400 265.451,378.986 262.435 C 377.876 260.067,374.813 257.408,371.741 256.144 C 368.288 254.724,365.970 253.631,365.970 253.421 C 365.970 253.300,366.117 252.066,366.296 250.679 C 366.948 245.617,366.663 244.294,364.096 240.490 C 360.824 235.642,355.545 233.807,350.222 235.666 C 347.234 236.710,346.756 236.437,343.187 231.651 C 339.255 226.378,336.838 225.279,329.455 225.402 C 324.862 225.479,325.335 225.358,322.398 227.211 C 320.411 228.465,320.041 228.308,317.410 225.097 C 311.815 218.267,305.348 217.405,296.919 222.365 C 294.902 223.552,292.542 225.261,291.798 226.074 C 290.533 227.457,289.540 227.475,287.493 226.152 C 278.272 220.192,270.985 220.573,262.809 227.443 C 260.139 229.685,260.286 229.702,257.274 226.789 C 254.449 224.056,252.838 223.427,248.701 223.443 C 243.547 223.463,238.452 225.155,233.457 228.503 C 229.826 230.938,228.420 230.999,225.748 228.839 C 220.460 224.565,211.676 224.484,207.127 228.667 C 206.457 229.283,205.451 230.048,204.890 230.367 C 203.255 231.299,199.359 235.356,198.059 237.483 C 196.295 240.366,195.455 240.594,192.636 238.951 C 191.979 238.569,190.800 238.024,190.015 237.740 C 189.231 237.457,188.085 236.989,187.468 236.699 C 185.607 235.826,181.375 236.126,176.261 237.495 C 171.433 238.786,164.700 243.245,163.129 246.191 C 161.607 249.045,161.041 249.068,157.741 246.409 C 151.164 241.107,137.139 244.888,132.372 253.248 C 130.244 256.980,128.173 256.783,126.808 252.719 C 123.950 244.210,113.959 243.847,106.948 251.997 C 104.107 255.300,103.101 254.918,101.915 250.081 C 100.304 243.515,97.483 241.598,91.187 242.791 C 85.113 243.942,83.740 242.847,87.878 240.152 C 94.905 235.575,94.576 227.128,87.213 223.074 C 82.473 220.463,83.739 218.920,90.853 218.637 C 96.604 218.408,99.456 217.304,103.006 213.932 C 105.896 211.186,106.624 209.538,106.686 205.604 C 106.764 200.630,107.608 200.261,112.073 203.251 C 116.120 205.961,121.726 205.912,128.579 203.105 C 133.630 201.037,136.872 195.993,134.660 193.646 C 133.740 192.670,133.386 190.617,133.990 189.755 C 134.635 188.834,135.312 189.123,137.593 191.289 C 145.812 199.093,159.798 196.021,163.128 185.681 C 164.009 182.946,164.750 182.965,166.082 185.756 C 170.599 195.221,185.643 195.255,189.015 185.809 C 190.583 181.415,191.643 181.535,192.452 186.198 C 193.620 192.925,197.427 196.101,205.103 196.749 C 211.860 197.318,217.619 194.728,219.801 190.137 C 220.878 187.871,221.725 186.857,222.542 186.857 C 223.563 186.857,223.826 187.349,224.026 189.636 C 224.444 194.406,227.878 196.867,234.110 196.862 C 241.520 196.857,246.975 194.495,248.992 190.418 C 250.805 186.752,252.553 186.832,252.876 190.597 C 253.357 196.214,257.310 199.116,266.404 200.528 C 267.631 200.719,268.304 200.723,269.257 200.545 C 269.943 200.417,271.421 200.163,272.542 199.981 C 278.294 199.046,282.031 197.065,284.275 193.761 C 285.767 191.565,286.826 191.484,287.211 193.537 C 288.554 200.696,302.179 201.304,316.134 194.826 C 318.747 193.613,319.098 193.287,320.202 191.046 C 321.642 188.126,321.987 188.009,324.256 189.671 C 328.678 192.909,330.491 193.142,336.118 191.192 C 345.783 187.842,353.012 180.397,354.261 172.506 C 354.343 171.990,354.620 171.472,355.041 171.051 L 355.695 170.398 358.540 170.248 C 364.509 169.933,365.918 168.738,369.918 160.601 C 374.222 151.845,374.631 148.201,371.882 143.103 C 370.700 140.913,369.350 139.104,368.096 138.033 C 365.561 135.868,365.417 133.471,367.820 133.468 C 372.420 133.462,376.749 125.037,374.963 119.566 C 374.733 118.863,374.460 117.481,374.356 116.494 C 373.943 112.590,371.682 109.847,366.684 107.185 C 362.328 104.866,361.028 102.580,363.728 101.987 C 366.574 101.362,366.857 94.831,364.240 90.168 C 360.626 83.727,351.005 79.857,343.474 81.814 C 339.435 82.863,338.600 82.519,338.247 79.660 C 337.493 73.553,334.539 70.444,327.409 68.256 L 324.917 67.491 323.284 68.311 C 321.281 69.317,320.370 69.935,318.338 71.667 C 314.801 74.682,314.006 74.481,309.739 69.486 C 302.062 60.502,294.606 59.736,285.601 67.006 C 282.255 69.708,281.534 69.564,277.380 65.363 C 276.230 64.200,274.920 63.024,274.467 62.750 C 274.015 62.476,272.664 61.616,271.465 60.840 C 263.131 55.445,254.409 56.191,247.338 62.904 C 244.589 65.515,244.445 65.482,240.042 61.240 C 234.465 55.868,232.999 55.252,228.120 56.238 M137.137 66.155 C 128.812 66.958,125.384 68.718,123.537 73.137 C 121.785 77.331,128.111 81.790,132.700 79.596 C 134.804 78.590,135.619 77.378,138.776 70.557 C 139.256 69.521,139.826 68.513,140.044 68.316 C 141.935 66.604,140.850 65.797,137.137 66.155 M143.180 70.673 C 142.456 71.474,143.040 72.542,144.201 72.542 C 145.698 72.542,145.257 70.412,143.740 70.315 C 143.617 70.307,143.365 70.468,143.180 70.673 M153.063 93.238 C 156.288 93.647,157.656 94.246,159.440 96.030 C 162.265 98.854,163.449 103.366,162.217 106.604 C 161.369 108.832,161.030 108.663,160.767 105.883 C 160.175 99.633,157.016 96.879,149.606 96.156 C 146.092 95.813,136.693 96.039,132.247 96.573 C 126.015 97.322,125.084 97.395,121.651 97.397 C 115.721 97.400,112.966 96.586,117.983 96.312 C 118.935 96.261,122.420 95.800,125.726 95.289 C 133.261 94.126,136.115 93.807,141.620 93.516 C 144.030 93.389,146.368 93.213,146.816 93.124 C 148.160 92.859,150.400 92.900,153.063 93.238 M79.667 112.060 C 80.149 112.960,79.691 114.114,78.963 113.835 C 78.612 113.700,78.562 112.956,78.854 112.189 C 79.091 111.566,79.378 111.520,79.667 112.060 M38.041 115.181 C 39.947 117.195,39.383 119.071,36.295 120.987 C 35.483 121.491,34.652 121.580,34.274 121.202 C 33.291 120.219,35.577 114.519,36.955 114.519 C 37.208 114.519,37.694 114.815,38.041 115.181 M118.796 114.822 C 119.073 115.156,118.916 116.149,118.585 116.149 C 118.472 116.149,118.287 115.904,118.173 115.604 C 117.829 114.700,118.253 114.168,118.796 114.822 M45.850 122.720 C 47.078 124.733,44.736 129.219,43.240 127.723 C 42.761 127.243,43.365 123.685,44.122 122.530 C 44.584 121.825,45.357 121.910,45.850 122.720 M79.470 133.265 C 80.161 133.956,79.824 135.861,78.952 136.195 C 77.834 136.624,77.025 136.034,77.025 134.790 C 77.025 133.151,78.461 132.256,79.470 133.265 M86.099 134.135 C 86.286 134.878,85.756 136.220,85.277 136.220 C 84.946 136.220,84.876 136.094,84.902 135.545 C 84.970 134.071,85.829 133.059,86.099 134.135 M281.763 263.626 C 283.023 263.662,285.087 263.662,286.347 263.626 C 287.608 263.591,286.577 263.561,284.055 263.561 C 281.533 263.561,280.502 263.591,281.763 263.626 M299.902 314.564 C 300.268 314.610,300.818 314.609,301.124 314.562 C 301.431 314.516,301.131 314.479,300.458 314.480 C 299.786 314.481,299.536 314.519,299.902 314.564 M302.244 314.563 C 302.554 314.610,303.012 314.609,303.263 314.560 C 303.514 314.512,303.260 314.473,302.700 314.475 C 302.140 314.477,301.935 314.516,302.244 314.563 M202.761 466.564 C 202.218 467.254,202.022 468.030,202.284 468.447 C 202.972 469.539,204.758 467.933,204.147 466.772 C 203.680 465.886,203.335 465.834,202.761 466.564 " stroke="none" fill="#ebebeb" fill-rule="evenodd"></path></g></svg>