<?xml version="1.0" encoding="UTF-8" standalone="no"?>
<svg xmlns="http://www.w3.org/2000/svg" width="300" height="300">
  <g fill="#e9e9e9" stroke="#000" stroke-linecap="round" stroke-linejoin="round" stroke-width="1.43730986" transform="rotate(-45 -7.4849161 353.74072362) scale(2.08723)">
    <path d="M48.16125 153.8166036c-3.4746-5.55765327-6.9514-11.10553843-11.011-14.04411453.40047-1.0823891.26457-2.40735317 1.9101-2.92677295 2.7361.23463838 5.0668 2.28451906 7.528 3.74989986.24846-1.40644648 1.3621-2.5568054 3.2584-3.4754971 1.8357-.08823868 4.0674 2.40238772 6.1797 4.11571597.23655-.86806027.04044-1.87702566 1.6854-2.2865541.74905.66761845 1.4981 1.00782579 2.2472 1.18902441.72168-.92316874.28042-2.21044415 2.2472-2.7437835 1.8616 1.40962111 4.1185 2.01475615 6.1797 3.01818628.039104-.85796654.01559-1.72863164 1.218-2.34980267 1.02.00082483 2.0932.19674622 2.8268-.85129166 2.0557-.65718283 4.9402 2.0587127 7.4156 3.109681.19858-1.42638972-.14812-3.1660919 2.4719-3.20109432.9347.53199623 1.8678 1.06456227 3.8259 1.23949302l.95339-.6467228c6.0809 4.7946003 12.331 10.27687625 15.665 16.10355983z"/>
    <path d="M46.58125 140.5889411c4.1203 4.1440435 6.9444 8.58943352 8.9701 13.22033641"/>
    <path d="M56.02125 141.232009c3.4831 3.39572412 6.9662 7.99610163 10.449 12.58052455"/>
    <path d="M59.95125 140.1330955c4.8494 2.9220517 8.4451 8.39569914 12.135 13.67781003"/>
    <path d="M68.38125 140.4098589c4.855 2.64854434 9.2306 8.80921622 13.82 13.40348866"/>
    <path d="M79.84125 140.3203178c5.6679 4.3061943 6.5054 8.96957619 9.2134 13.49547179"/>
    <path d="M86.14125 138.3585537c4.6586 4.50741757 7.8031 10.00092686 11.005 15.45642188"/>
    <path d="M48.16125 153.8113964c-3.4746 5.55765327-6.9514 11.10553843-11.011 14.04411453.40047 1.0823891.26457 2.40735317 1.9101 2.92677295 2.7361-.23463838 5.0668-2.28451906 7.528-3.74989986.24846 1.40644648 1.3621 2.5568054 3.2584 3.4754971 1.8357.08823868 4.0674-2.40238772 6.1797-4.11571597.23655.86806027.04044 1.87702566 1.6854 2.2865541.74905-.66761845 1.4981-1.00782579 2.2472-1.18902441.72168.92316874.28042 2.21044415 2.2472 2.7437835 1.8616-1.40962111 4.1185-2.01475615 6.1797-3.01818628.039104.85796655.01559 1.72863164 1.218 2.34980267 1.02-.00082483 2.0932-.19674621 2.8268.85129166 2.0557.65718283 4.9402-2.0587127 7.4156-3.109681.19858 1.42638972-.14812 3.1660919 2.4719 3.20109432.9347-.53199623 1.8678-1.06456227 3.8259-1.23949302l.95339.6467228c6.0809-4.7946003 12.331-10.27687625 15.665-16.10355983z"/>
    <path d="M46.58125 167.0390589c4.1203-4.1440435 6.9444-8.58943352 8.9701-13.22033641"/>
    <path d="M56.02125 166.395991c3.4831-3.39572412 6.9662-7.99610163 10.449-12.58052455"/>
    <path d="M59.95125 167.4949045c4.8494-2.9220517 8.4451-8.39569914 12.135-13.67781003"/>
    <path d="M68.38125 167.2181411c4.855-2.64854434 9.2306-8.80921622 13.82-13.40348866"/>
    <path d="M79.84125 167.3076822c5.6679-4.3061943 6.5054-8.96957619 9.2134-13.49547179"/>
    <path d="M86.14125 169.2694463c4.6586-4.50741757 7.8031-10.00092686 11.005-15.45642188"/>
    <rect width="145.1499939" height="3.36290002" x="44.27325058" y="152.13000488" ry="2.44199991"/>
    <path d="M180.53125 142.94c-.69619 4.2179 3.2805 7.6733 8.9062 10.862-5.6257 3.1886-9.6024 6.6695-8.9062 10.887 7.5514-5.835 21.324-9.8668 35.594-10.887-14.269-1.0205-28.042-5.0269-35.594-10.862z"/>
  </g>
</svg>