<?xml version="1.0" encoding="UTF-8"?>
<!DOCTYPE svg PUBLIC "-//W3C//DTD SVG 1.1//EN" "http://www.w3.org/Graphics/SVG/1.1/DTD/svg11.dtd">
<svg xmlns="http://www.w3.org/2000/svg" version="1.1" width="1143px" height="1274px" style="shape-rendering:geometricPrecision; text-rendering:geometricPrecision; image-rendering:optimizeQuality; fill-rule:evenodd; clip-rule:evenodd" xmlns:xlink="http://www.w3.org/1999/xlink">
<g><path style="opacity:0.969" fill="#030303" d="M 606.5,7.5 C 744.827,2.21838 866.827,43.7184 972.5,132C 1044.72,195.665 1091.22,274.832 1112,369.5C 1122.42,414.072 1126.59,459.239 1124.5,505C 1126.2,555.726 1121.7,605.892 1111,655.5C 1105.42,680.989 1099.92,706.489 1094.5,732C 1100.91,758.208 1105.58,784.708 1108.5,811.5C 1106.05,834.688 1100.22,857.021 1091,878.5C 1068.87,930.458 1041.87,979.458 1010,1025.5C 1002.83,1035 993.992,1042.5 983.5,1048C 964.907,1058.09 945.574,1066.42 925.5,1073C 914.673,1076.58 903.673,1077.58 892.5,1076C 889.382,1074.94 886.382,1073.61 883.5,1072C 874.833,1065.33 866.167,1058.67 857.5,1052C 852.277,1048.22 846.61,1045.22 840.5,1043C 834.732,1041.78 829.399,1042.78 824.5,1046C 821.667,1048.83 818.833,1051.67 816,1054.5C 814.061,1059.47 814.061,1064.47 816,1069.5C 824.667,1086.83 833.333,1104.17 842,1121.5C 844.124,1126.66 845.624,1132 846.5,1137.5C 844.934,1143.37 843.267,1149.2 841.5,1155C 849.021,1177.42 853.688,1200.42 855.5,1224C 855.798,1233.51 853.632,1242.34 849,1250.5C 847.59,1251.79 846.09,1252.95 844.5,1254C 827.225,1255.76 809.892,1256.76 792.5,1257C 702.457,1258.33 612.457,1261 522.5,1265C 486.168,1265.58 449.834,1266.08 413.5,1266.5C 397.134,1266.61 380.8,1266.11 364.5,1265C 353.959,1263.79 348.125,1257.96 347,1247.5C 345.439,1216.27 348.272,1185.44 355.5,1155C 354.313,1151.46 352.98,1147.96 351.5,1144.5C 353.376,1136.08 356.876,1128.41 362,1121.5C 372.572,1108.03 382.405,1094.03 391.5,1079.5C 386.23,1070.4 378.897,1063.56 369.5,1059C 362.931,1058.41 356.931,1060.08 351.5,1064C 332.167,1078 312.833,1092 293.5,1106C 279.957,1114.77 265.29,1120.77 249.5,1124C 224.447,1127.06 205.28,1117.89 192,1096.5C 186.825,1088.15 182.158,1079.49 178,1070.5C 171.493,1053.15 164.159,1036.15 156,1019.5C 150.039,1011.21 143.039,1003.87 135,997.5C 118.433,977.052 105.433,954.386 96,929.5C 89.7911,913.54 84.7911,897.206 81,880.5C 77.0833,857.915 73.75,835.249 71,812.5C 49.995,747.146 34.6616,680.479 25,612.5C 14.3475,542.365 15.0142,472.365 27,402.5C 37.9195,346.014 60.2528,294.681 94,248.5C 161.216,152.292 249.382,82.4584 358.5,39C 380.127,30.6766 402.46,25.3433 425.5,23C 459.495,21.2446 493.495,19.5779 527.5,18C 553.885,13.7769 580.219,10.2769 606.5,7.5 Z"/></g>
<g><path style="opacity:1" fill="#f1f1f1" d="M 634.5,22.5 C 722.654,20.6082 804.654,42.1082 880.5,87C 931.303,116.785 975.803,154.285 1014,199.5C 1058.91,257.698 1087.25,323.365 1099,396.5C 1102.31,413.686 1104.31,431.019 1105,448.5C 1105.67,480.833 1105.67,513.167 1105,545.5C 1102.18,585.092 1097.18,624.426 1090,663.5C 1089.3,668.683 1087.96,673.683 1086,678.5C 1084.05,662.831 1082.05,647.164 1080,631.5C 1079.56,629.321 1078.56,628.655 1077,629.5C 1075.01,658.168 1075.01,686.835 1077,715.5C 1081.84,738.543 1086.84,761.543 1092,784.5C 1096.09,798.759 1096.42,813.092 1093,827.5C 1086.34,854.148 1076.34,879.481 1063,903.5C 1044,938.183 1023,971.516 1000,1003.5C 988.964,1019.1 975.13,1031.6 958.5,1041C 941.234,1050.97 922.901,1058.14 903.5,1062.5C 898.104,1061.8 893.104,1059.97 888.5,1057C 877.833,1049.67 867.167,1042.33 856.5,1035C 848.433,1029.6 839.766,1028.27 830.5,1031C 818.428,1035.74 809.595,1043.91 804,1055.5C 803.741,1064.48 805.408,1073.15 809,1081.5C 817.575,1096.65 825.075,1112.32 831.5,1128.5C 831.167,1128.83 830.833,1129.17 830.5,1129.5C 825.923,1126.79 821.09,1124.79 816,1123.5C 810.253,1124.62 805.753,1127.62 802.5,1132.5C 799.454,1129.61 796.954,1126.28 795,1122.5C 786.895,1114.24 778.061,1113.41 768.5,1120C 761.959,1126.87 755.793,1134.04 750,1141.5C 731.473,1111.73 708.307,1107.23 680.5,1128C 676.018,1133.65 671.018,1138.82 665.5,1143.5C 658.372,1132.54 648.705,1124.71 636.5,1120C 625.848,1116.65 616.182,1118.32 607.5,1125C 598.144,1133.84 590.144,1143.68 583.5,1154.5C 574.699,1146.93 565.366,1140.1 555.5,1134C 538.571,1126.67 524.071,1129.84 512,1143.5C 508.489,1147.87 504.989,1152.21 501.5,1156.5C 495.958,1148.46 488.958,1141.96 480.5,1137C 465.196,1135.65 452.196,1140.49 441.5,1151.5C 430.65,1140.16 417.65,1132.33 402.5,1128C 392.326,1125.65 382.326,1126.15 372.5,1129.5C 371.833,1129.17 371.167,1128.83 370.5,1128.5C 378.752,1115.66 387.252,1102.99 396,1090.5C 401.822,1081.45 401.822,1072.45 396,1063.5C 385.917,1048.7 372.084,1042.54 354.5,1045C 347.379,1048.06 340.379,1051.39 333.5,1055C 315.616,1066.22 298.282,1078.22 281.5,1091C 270.484,1098.51 258.484,1103.84 245.5,1107C 234.507,1108.34 224.841,1105.34 216.5,1098C 202.203,1083.69 191.036,1067.19 183,1048.5C 176.667,1032.83 170.333,1017.17 164,1001.5C 161.203,997.701 158.036,994.201 154.5,991C 149.748,988.252 145.581,984.752 142,980.5C 118.505,950.17 102.505,916.17 94,878.5C 92.0091,866.573 90.6757,854.573 90,842.5C 89.3333,800.833 89.3333,759.167 90,717.5C 91.8908,696.479 94.0574,675.479 96.5,654.5C 96.1667,652.833 95.8333,651.167 95.5,649.5C 94.2011,650.09 93.3678,651.09 93,652.5C 86.7987,674.84 82.132,697.506 79,720.5C 76.8204,736.807 74.8204,753.141 73,769.5C 56.756,697.554 44.756,624.887 37,551.5C 23.4713,439.816 50.138,339.15 117,249.5C 164.958,184.203 223.125,130.036 291.5,87C 328.973,64.601 368.973,48.2676 411.5,38C 420.435,36.4248 429.435,35.4248 438.5,35C 464.168,34.5694 489.835,34.7361 515.5,35.5C 530.518,35.4825 545.518,34.9825 560.5,34C 585.17,29.2631 609.837,25.4298 634.5,22.5 Z"/></g>
<g><path style="opacity:1" fill="#090909" d="M 740.5,472.5 C 814.356,468.32 887.022,475.487 958.5,494C 958.957,494.414 959.291,494.914 959.5,495.5C 952.846,496.337 946.179,496.171 939.5,495C 873.963,483.369 807.963,479.035 741.5,482C 717.099,483.515 694.099,489.848 672.5,501C 660.132,509.042 650.965,519.875 645,533.5C 643.736,535.607 641.903,536.607 639.5,536.5C 643.053,513.923 655.386,498.09 676.5,489C 697.144,480.34 718.478,474.84 740.5,472.5 Z"/></g>
<g><path style="opacity:1" fill="#0b0b0b" d="M 324.5,474.5 C 380.364,473.423 435.697,478.256 490.5,489C 503.68,492.056 516.014,497.056 527.5,504C 538.823,514.052 539.323,524.552 529,535.5C 528.667,530.167 528.333,524.833 528,519.5C 527.3,515.934 525.467,513.1 522.5,511C 506.292,502.931 489.292,497.264 471.5,494C 417.534,484.407 363.201,481.407 308.5,485C 266.949,488.85 228.615,501.85 193.5,524C 181.833,533.5 170.167,543 158.5,552.5C 158.167,552.167 157.833,551.833 157.5,551.5C 169.492,535.019 184.159,521.519 201.5,511C 224.858,497.157 249.858,487.49 276.5,482C 292.541,478.833 308.541,476.333 324.5,474.5 Z"/></g>
<g><path style="opacity:1" fill="#050505" d="M 751.5,567.5 C 781.212,566.942 810.879,567.776 840.5,570C 903.92,576.083 941.087,610.583 952,673.5C 958.382,711.294 955.382,748.294 943,784.5C 936.795,799.032 927.295,810.865 914.5,820C 908.188,823.326 901.521,825.66 894.5,827C 843.428,835.38 792.761,833.38 742.5,821C 731.218,817.859 720.885,812.859 711.5,806C 699.555,793.623 691.055,779.123 686,762.5C 664.071,707.03 667.071,653.03 695,600.5C 700.5,591 708,583.5 717.5,578C 728.835,574.047 740.168,570.547 751.5,567.5 Z"/></g>
<g><path style="opacity:1" fill="#040404" d="M 302.5,575.5 C 340.612,573.728 378.278,576.894 415.5,585C 427.608,588.147 439.274,592.48 450.5,598C 460.668,605.139 467.835,614.639 472,626.5C 478.575,645.281 482.575,664.614 484,684.5C 484.845,707.521 484.512,730.521 483,753.5C 478.655,789.827 459.822,815.327 426.5,830C 377.479,848.271 326.812,857.937 274.5,859C 248.036,855.521 228.536,842.021 216,818.5C 205.654,798.443 199.987,777.11 199,754.5C 196.376,709.913 203.376,666.913 220,625.5C 231.052,602.045 249.218,587.211 274.5,581C 283.816,578.303 293.149,576.47 302.5,575.5 Z"/></g>
<g><path style="opacity:1" fill="#f1f1f1" d="M 762.5,579.5 C 786.212,579.102 809.879,579.935 833.5,582C 851.729,583.579 869.395,587.579 886.5,594C 915.054,609.576 932.554,633.409 939,665.5C 940.862,690.154 940.862,714.821 939,739.5C 937.131,761.108 930.464,781.108 919,799.5C 913.249,806.964 905.749,811.798 896.5,814C 849.309,821.96 802.309,820.96 755.5,811C 743.523,808.345 732.19,804.011 721.5,798C 712.29,789.088 705.456,778.588 701,766.5C 689.957,738.197 684.957,708.863 686,678.5C 688.96,651.953 697.293,627.287 711,604.5C 717.191,595.986 725.358,590.153 735.5,587C 744.497,584.004 753.497,581.504 762.5,579.5 Z"/></g>
<g><path style="opacity:1" fill="#f1f1f1" d="M 307.5,587.5 C 335.63,587.425 363.63,589.258 391.5,593C 402.694,594.882 413.694,597.548 424.5,601C 440.756,604.358 452.256,613.524 459,628.5C 465.211,645.249 468.544,662.582 469,680.5C 469.823,701.188 469.489,721.855 468,742.5C 463.115,783.376 441.282,810.542 402.5,824C 361.372,838.426 319.039,845.759 275.5,846C 257.209,843.374 242.709,834.54 232,819.5C 220.785,802.522 214.785,783.855 214,763.5C 207.999,714.501 216.332,668.168 239,624.5C 250.185,608.979 265.018,598.479 283.5,593C 291.563,590.825 299.563,588.991 307.5,587.5 Z"/></g>
<g><path style="opacity:1" fill="#050505" d="M 627.5,775.5 C 631.025,775.346 633.859,776.679 636,779.5C 647.895,798.621 658.228,818.621 667,839.5C 675.906,858.776 677.906,878.776 673,899.5C 668.596,918.046 662.596,936.046 655,953.5C 651.592,957.483 648.592,957.15 646,952.5C 637.595,921.545 628.262,890.878 618,860.5C 615.463,834.218 617.13,808.218 623,782.5C 624.511,780.138 626.011,777.805 627.5,775.5 Z"/></g>
<g><path style="opacity:1" fill="#070707" d="M 563.5,781.5 C 574.346,783.177 580.846,789.511 583,800.5C 589.692,832.496 592.359,864.83 591,897.5C 587.747,915.668 581.414,932.668 572,948.5C 565.824,955.241 558.99,956.074 551.5,951C 548.371,947.248 545.871,943.081 544,938.5C 532.066,899.735 531.4,860.735 542,821.5C 545.414,811.591 549.414,801.924 554,792.5C 556.314,788.025 559.48,784.358 563.5,781.5 Z"/></g>
<g><path style="opacity:1" fill="#eeeeee" d="M 563.5,791.5 C 567.935,797.724 570.769,804.724 572,812.5C 575.441,835.732 577.941,859.065 579.5,882.5C 578.565,903.971 572.231,923.638 560.5,941.5C 558.196,939.569 556.362,937.236 555,934.5C 550.423,923.285 547.757,911.618 547,899.5C 544.702,877.114 545.036,854.781 548,832.5C 551.299,818.099 556.466,804.432 563.5,791.5 Z"/></g>
<g><path style="opacity:1" fill="#eeeeee" d="M 631.5,792.5 C 643.006,812.176 653.506,832.509 663,853.5C 663.667,864.5 663.667,875.5 663,886.5C 659.942,900.006 656.276,913.339 652,926.5C 642.944,902.002 634.278,877.335 626,852.5C 625.023,836.096 625.69,819.762 628,803.5C 628.474,799.578 629.641,795.912 631.5,792.5 Z"/></g>
<g><path style="opacity:1" fill="#090909" d="M 955.5,793.5 C 956.649,793.791 957.316,794.624 957.5,796C 955.937,801.291 953.437,806.125 950,810.5C 923.496,838.998 890.663,854.498 851.5,857C 836.753,857.986 822.086,857.319 807.5,855C 804.461,854.647 801.795,853.48 799.5,851.5C 800.376,850.749 801.376,850.249 802.5,850C 828.399,850.802 854.066,848.802 879.5,844C 907.206,838.071 930.373,824.571 949,803.5C 951.426,800.309 953.593,796.975 955.5,793.5 Z"/></g>
<g><path style="opacity:1" fill="#0a0a0a" d="M 214.5,839.5 C 223.205,845.696 231.205,852.862 238.5,861C 257.924,876.024 279.924,881.69 304.5,878C 334.93,874.309 364.596,867.309 393.5,857C 396.554,856.179 399.554,856.345 402.5,857.5C 372.816,871.116 341.816,880.616 309.5,886C 269.104,893.004 237.938,879.504 216,845.5C 215.187,843.564 214.687,841.564 214.5,839.5 Z"/></g>
<g><path style="opacity:1" fill="#090909" d="M 826.5,961.5 C 847.718,960.127 865.718,966.961 880.5,982C 889.803,992.304 899.47,1002.3 909.5,1012C 914.167,1015.33 918.833,1018.67 923.5,1022C 927.889,1024.3 932.556,1025.46 937.5,1025.5C 944.816,1024.55 951.983,1022.88 959,1020.5C 959.833,1020.83 960.667,1021.17 961.5,1021.5C 959.423,1024.37 956.756,1026.54 953.5,1028C 945.934,1031.97 937.934,1033.64 929.5,1033C 920.847,1030.33 913.181,1026 906.5,1020C 892.159,1004.99 877.159,990.659 861.5,977C 843.158,967.771 825.158,968.437 807.5,979C 799.741,985.523 796.408,993.857 797.5,1004C 797.57,1011.55 798.903,1018.88 801.5,1026C 801.491,1027.4 800.991,1028.57 800,1029.5C 794.679,1023.55 791.679,1016.55 791,1008.5C 786.777,990.465 792.61,976.965 808.5,968C 814.299,964.918 820.299,962.752 826.5,961.5 Z"/></g>
<g><path style="opacity:1" fill="#090909" d="M 377.5,992.5 C 389.518,992.534 401.518,993.034 413.5,994C 431.473,996.393 443.973,1005.89 451,1022.5C 451.667,1029.17 451.667,1035.83 451,1042.5C 450.867,1045.41 449.7,1047.75 447.5,1049.5C 446.749,1048.62 446.249,1047.62 446,1046.5C 447.65,1022.62 436.817,1008.12 413.5,1003C 380.86,996.195 350.86,1002.19 323.5,1021C 311.21,1031.48 298.21,1040.98 284.5,1049.5C 284.167,1049.17 283.833,1048.83 283.5,1048.5C 298.588,1031.32 315.588,1016.48 334.5,1004C 348.104,996.851 362.437,993.018 377.5,992.5 Z"/></g>
<g><path style="opacity:1" fill="#efefef" d="M 699.5,1126.5 C 710.106,1125.42 719.272,1128.42 727,1135.5C 736.575,1147.19 742.908,1160.52 746,1175.5C 751.883,1197.8 755.05,1220.46 755.5,1243.5C 732.932,1246.16 710.266,1247.16 687.5,1246.5C 685.472,1217.66 680.639,1189.33 673,1161.5C 672.333,1157.83 672.333,1154.17 673,1150.5C 675.448,1146.39 678.281,1142.55 681.5,1139C 684.463,1137.04 687.129,1134.71 689.5,1132C 692.767,1129.87 696.1,1128.04 699.5,1126.5 Z"/></g>
<g><path style="opacity:1" fill="#f0f0f0" d="M 617.5,1128.5 C 626.539,1128.46 634.539,1131.29 641.5,1137C 650.417,1145 657.25,1154.5 662,1165.5C 672.032,1191.89 676.532,1219.22 675.5,1247.5C 647.844,1248.54 620.177,1249.21 592.5,1249.5C 591.512,1219.51 591.345,1189.51 592,1159.5C 597.494,1146.52 605.994,1136.19 617.5,1128.5 Z"/></g>
<g><path style="opacity:1" fill="#efefef" d="M 804.5,1212.5 C 804.5,1222.83 804.5,1233.17 804.5,1243.5C 794.167,1243.5 783.833,1243.5 773.5,1243.5C 771.983,1243.49 770.816,1242.82 770,1241.5C 766.203,1214.28 760.036,1187.61 751.5,1161.5C 756.302,1150.05 762.968,1139.88 771.5,1131C 778.555,1127.42 784.055,1129.25 788,1136.5C 797.774,1160.87 803.274,1186.2 804.5,1212.5 Z"/></g>
<g><path style="opacity:1" fill="#ededed" d="M 812.5,1136.5 C 816.548,1136.44 819.715,1138.11 822,1141.5C 830.646,1157.1 836.313,1173.77 839,1191.5C 841.789,1205.72 842.789,1220.05 842,1234.5C 841.614,1239.88 838.781,1243.05 833.5,1244C 828.249,1244.8 823.082,1244.64 818,1243.5C 814.869,1212.42 811.036,1181.42 806.5,1150.5C 806.667,1148.17 806.833,1145.83 807,1143.5C 808.666,1141 810.5,1138.67 812.5,1136.5 Z"/></g>
<g><path style="opacity:1" fill="#f0f0f0" d="M 378.5,1138.5 C 393.499,1136.85 406.832,1140.68 418.5,1150C 423.034,1154.2 427.201,1158.7 431,1163.5C 430.9,1194.51 430.066,1225.51 428.5,1256.5C 406.831,1256.67 385.164,1256.5 363.5,1256C 361.383,1254.27 359.883,1252.1 359,1249.5C 357.014,1220.66 358.681,1191.99 364,1163.5C 364.9,1155.71 367.4,1148.54 371.5,1142C 373.925,1140.79 376.259,1139.62 378.5,1138.5 Z"/></g>
<g><path style="opacity:1" fill="#f0f0f0" d="M 529.5,1140.5 C 537.798,1140.99 545.465,1143.49 552.5,1148C 562.31,1154.66 571.476,1162.16 580,1170.5C 580.667,1195.83 580.667,1221.17 580,1246.5C 579.691,1247.77 579.191,1248.93 578.5,1250C 556.257,1253.02 533.924,1254.02 511.5,1253C 510.333,1252.5 509.5,1251.67 509,1250.5C 505.609,1224.25 504.942,1197.92 507,1171.5C 509.456,1157.25 516.956,1146.92 529.5,1140.5 Z"/></g>
<g><path style="opacity:1" fill="#efefef" d="M 461.5,1147.5 C 471.465,1145.26 479.632,1147.93 486,1155.5C 487.92,1158.34 489.587,1161.34 491,1164.5C 493.654,1175.67 495.321,1187 496,1198.5C 497.609,1217.13 498.443,1235.8 498.5,1254.5C 479.515,1255.56 460.515,1256.22 441.5,1256.5C 438.668,1228.14 438.834,1199.81 442,1171.5C 445.002,1160.66 451.502,1152.66 461.5,1147.5 Z"/></g>
<g><path style="opacity:1" fill="#868686" d="M 804.5,1212.5 C 805.494,1222.99 805.828,1233.65 805.5,1244.5C 794.654,1244.83 783.987,1244.49 773.5,1243.5C 783.833,1243.5 794.167,1243.5 804.5,1243.5C 804.5,1233.17 804.5,1222.83 804.5,1212.5 Z"/></g>
</svg>
