<?xml version="1.0" encoding="UTF-8" standalone="no"?>
<svg xmlns="http://www.w3.org/2000/svg" width="81" height="351" viewBox="72 63 81 351">
  <defs>
    <clipPath id="a">
      <path d="M72 63h81v351H72Z"/>
    </clipPath>
  </defs>
  <g fill="none" clip-path="url(#a)">
    <path fill="#000" d="M147.66588 390.95735c-.61804-4.85605-2.64875-8.21111-6.44528-10.59498-4.238-2.56047-10.50669-1.0595-16.77539 4.1497-1.41266 1.14779-2.82533 2.119-3.17849 2.119-.35317 0-1.14779-1.58927-1.76583-3.44337-.52975-1.9424-1.58925-4.59116-2.29558-5.91553-1.0595-2.119-1.0595-2.82533.17658-5.56237 3.97312-9.3589 3.61995-13.06714-1.76583-16.6871-2.0307-1.41265-2.20729-5.9155-2.64874-9.1823-.52975-4.94433 2.47216-20.8368 5.20919-27.54695 1.14779-2.91362 2.119-5.73895 2.119-6.2687 0-.61805.52975-1.58925 1.23608-2.119 2.03071-1.76583 3.26679-8.2994 2.119-11.56618-.79463-2.47217-.70633-3.09021.52975-3.97312 2.20728-1.58925 2.91362-9.44719 1.0595-10.94815-1.94242-1.58925-1.76584-3.2668.79462-11.3013 2.56045-7.76966 3.88482-19.15927 3.97312-32.93274 0-11.3896-1.41267-29.1362-2.82533-34.43369-1.32437-5.56237-4.94433-13.06714-7.94624-17.04026l-2.64874-3.26678 3.79653-4.23799c4.50287-5.03262 8.74086-13.95006 9.27061-19.51243.17659-2.20728.79462-6.44528 1.41266-9.3589 1.85413-9.62377 2.119-39.11313.35317-53.85781-1.14779-9.97694-1.58924-12.27252-3.17849-15.36272-.97121-1.76583-2.47217-5.03262-3.44337-7.3282-1.41267-3.355075-2.64875-4.67945-6.44528-6.79844-3.97312-2.29558-5.56237-2.73704-10.85986-2.73704-6.00382 0-6.26869.08829-10.3301 3.796535-2.38387 2.030705-4.23799 4.061405-4.23799 4.502865 0 .44146-1.32438 2.29558-3.00192 4.1497-1.85412 1.942415-3.35507 4.76774-3.70824 6.71016-.35316 1.85412-.97121 3.79653-1.41266 4.41457-1.0595 1.32437-3.1785 9.27061-3.88483 14.39152-.26487 2.20728-.79462 5.20919-1.23608 6.62186-1.41266 4.76774-2.91362 26.75232-2.29558 32.40298.35317 3.09021.79462 6.97503.97121 8.65257.9712 8.47598 1.67754 11.65448 4.59116 19.15925 3.0902 7.76966 3.26678 8.12282 6.97502 9.53549 2.119.79462 4.67945 2.56045 5.65066 3.97311.97121 1.32438 3.26679 3.09021 5.03262 3.88483 8.91744 3.97312 10.85985 6.35699 13.06714 15.62759 2.73703 11.74277.79462 36.90585-4.23799 53.32807-1.23608 4.0614-1.41267 12.4491-.35317 17.92318.70633 3.53166.70633 3.70824-1.32437 3.70824-1.14779 0-3.00191.88292-4.1497 1.85412-1.67754 1.58926-1.94242 2.47216-1.41267 5.12091.35317 1.76583.88292 3.61995 1.23608 4.06141 1.23609 1.50094 1.76583 6.35699.88292 7.2399-2.20729 2.20729-3.00191 29.93082-.97121 34.69856.26488.70633.61804 3.53168.79463 6.18041.08829 2.64874.44145 8.74087.70633 13.5086.35316 5.65067.26487 8.56427-.35317 8.56427-.52975 0-1.32437 1.50096-1.85412 3.3551-.70633 2.8253-.61804 3.9731.79462 6.8867 1.0595 2.119 1.85413 6.2687 2.119 10.5067.26487 3.88483.88292 7.1516 1.41267 7.3282.52974.1766.9712 1.32437.9712 2.47216 0 7.3282 9.80036 17.30514 20.57192 21.01338 3.79654 1.23606 4.50287 1.23606 7.68136 0 6.71016-2.64874 12.36082-12.53739 11.4779-19.86559Z"/>
    <path fill="#f3f3f3" d="M140.86743 397.31434c-.26487 1.32436-1.41266 3.0902-2.64874 3.88483-1.14779.79463-2.03071 2.11899-1.94242 2.91363.35317 3.70823-.08829 4.1497-3.79653 4.32627-2.119 0-4.32629-.35317-5.03262-.88292-1.67754-1.41265-4.59116-3.0902-7.15161-4.1497-2.91362-1.23608-5.82724-6.1804-4.23799-7.15161.88291-.61804.88291-.97121 0-1.85414-.79462-.7946-1.0595-.7946-1.0595.4415 0 2.0307-1.50095 1.9424-2.64874-.1766-1.23608-2.2956-1.14779-2.73704.52974-2.73704.97121 0 1.23608-.44146.79463-1.50096-.70633-1.76583-2.119-9.62377-2.73704-14.83297-.26487-1.94243-.08829-4.06143.35317-4.76773 1.58924-2.2073 2.82532 0 2.82532 4.856 0 5.2092 1.50096 9.8004 3.79654 11.7428.88292.61803 1.50096 1.9424 1.50096 2.9136 0 2.56046 2.64874 3.0902 4.41457.70634l1.50096-2.0307 1.50095 2.11899c.79462 1.14779 1.41267 2.73704 1.41267 3.61997 0 1.9424 1.67753 2.9136 2.91362 1.67752 1.41266-1.41266 2.38387-1.23608 2.38387.44148 0 2.20727 1.58924.52973 2.20728-2.2956.35317-1.50095 1.14779-2.64874 1.85413-2.64874.79462 0 1.23608-1.0595 1.23608-3.1785 0-2.11899.35317-3.00191 1.05949-2.82532 1.41267.52976 2.47217 4.1497 1.94242 6.79846-.26488 1.14777-.70634 3.17848-.97121 4.59114Zm-2.0307 8.74086c-.44146 0-.88292-.35317-.88292-.8829 0-.44147.44146-.88293.88292-.88293.52975 0 .88291.44146.88291.88293 0 .52973-.35316.8829-.88291.8829Z"/>
    <path fill="#f3f3f3" d="M135.30507 392.89976c-1.41267 2.47217-2.91362 2.03071-4.59116-1.50096-1.32437-2.47215-1.41267-3.35507-.52975-4.76773 1.41266-2.119 2.29558-2.20727 4.41457-.26487 1.76583 1.58924 2.03071 3.9731.70634 6.53356Zm-7.06332-242.88992c-1.41267 11.38961-4.94433 21.808-8.29941 24.63333-.79462.61804-1.41266 1.94241-1.41266 2.82533 0 .9712-.44146 1.67754-1.0595 1.67754-1.76583 0-5.91553 4.50286-5.38578 5.82724.26488.70632 1.23608 1.23608 2.119 1.23608.9712 0 1.67754.61804 1.67754 1.50095 0 .79463 1.76583 5.12091 3.97311 9.53549 3.44337 7.06332 4.06141 9.1823 4.67945 16.42222.44146 4.59115.70634 11.91935.70634 16.42221-.0883 4.41457.17658 7.85795.52974 7.68137 1.14779-.70634 1.67754 9.00573.70634 12.89055-.52975 2.20729-1.23608 4.94433-1.50096 6.18041-.88291 4.50287-1.14779 4.76774-2.47216 3.00191-1.23608-1.58925-1.23608-1.58925-1.32437.52975-.0883 4.23798-3.53166 6.62186-3.53166 2.47216 0-.88291-.35317-1.58925-.88292-1.58925-.79462 0-1.41266 5.03262-1.0595 9.09403.08829.79462-.26487 1.50094-.70633 1.50094-.52975 0-.88292-1.50094-.97121-3.26677-.08829-3.53166-.17658-4.32628-1.23608-8.56428-.61804-2.11899-.44145-2.47215.70634-2.0307.79462.26487 1.58924-.08829 1.85412-.79462.88291-2.20729.61804-3.00193-.79463-2.47217-1.50095.61804-1.67754-.61804-.44146-4.41456 2.03071-6.62187 4.32629-16.7754 3.88483-17.39344-.26487-.44146 0-1.50096.52975-2.29558.97121-1.58924.79462 4.76774-.44146 13.42032-.35316 2.38386-.26487 3.0902.26488 2.20728.44146-.70633 1.50095-5.29748 2.29558-10.15352 1.23608-7.23991 1.32437-10.85986.61804-19.86559-.79462-9.97694-1.14779-11.56619-3.79654-16.77539-4.32628-8.2994-6.00382-10.59498-7.85794-10.59498-.88292 0-2.119-.79462-2.82533-1.76583-.70633-.9712-3.53166-3.26678-6.44528-5.1209-5.47407-3.53167-8.38769-6.35699-6.62186-6.35699 1.58925 0 1.14779-1.76583-1.23608-4.59116-1.23608-1.41266-2.20729-3.17849-2.20729-3.88482 0-.70634-.35317-1.23609-.79462-1.23609-1.76583 0-4.59116-8.38769-5.03262-14.92126-.26487-3.70825-.88291-7.94624-1.32437-9.53548-1.23608-3.97312-1.23608-25.16308 0-32.49127 1.0595-6.00383 4.41457-18.09976 4.94432-18.09976.44146 0-.44145 9.44719-1.50095 15.89246-1.41267 8.82916-1.0595 37.25902.61804 42.02676.70633 2.20729 1.32437 5.03262 1.32437 6.35699 0 4.41457 1.94241 9.3589 5.12091 13.24372 1.67754 2.03071 3.61995 3.61996 4.23799 3.35508.61804-.26487 1.76583 1.23608 2.91362 3.70825 1.85412 4.23799 5.47407 7.68136 7.41649 6.97502.61804-.26487-.44146-1.85412-2.64875-3.88482-2.119-1.94242-3.79653-3.70825-3.79653-3.88483 0-.26487 2.91362-.44146 6.53357-.52975 8.2994-.08829 10.85985-1.67754 13.24372-8.2994 2.03071-5.73895 2.119-6.35699 2.73704-19.7773.35317-8.03452.17658-9.97694-.52975-7.94623-.44146 1.50095-1.0595 5.82724-1.23608 9.71206-.17658 3.88483-.79462 8.82915-1.32437 11.03645-.52975 2.20728-1.23609 5.0326-1.50096 6.35698-.26487 1.32437-1.0595 2.91362-1.76583 3.44337-1.0595.97121-1.14779.44145-.61804-3.26679.26487-2.38386.9712-5.1209 1.50096-6.09211.52974-.97121 1.05949-6.09211 1.14778-11.4779l.26488-9.71206-1.32437 7.94623c-1.94242 11.56619-3.79654 19.24755-4.85604 20.30705-.79462.61804-.88291.08829-.44145-2.20729 2.56045-12.71398 4.1497-31.69665 3.26678-37.96534-.61804-3.79654-.61804-3.79654-1.14779-1.32438-.35316 1.50096-.61804 6.44528-.61804 11.03644s-.35316 9.53548-.88291 10.85986c-.52975 1.41266-.97121 4.06141-.97121 6.00382 0 3.97312-1.85412 10.50669-3.00191 10.50669-.35317 0-.44146-.70633-.08829-1.50096 1.0595-2.73703 1.67754-19.42413.70633-19.95388-.52975-.35316-1.0595 2.38387-1.41266 7.15161-.61804 8.3877-2.73704 16.95197-4.238 16.95197-.61804 0-.70633-.61804-.26487-1.50095 1.41266-3.35508 3.17849-35.75806 1.94241-36.99414-.79462-.79462-1.41266 3.88482-2.0307 15.5393-.79463 14.5681-1.23608 18.98268-2.20729 21.71971-1.50095 3.88483-2.119 1.58925-.97121-3.44337.70634-2.73703.97121-7.06332.70634-10.77156-.35317-3.44337-.52975-13.24373-.61804-21.808 0-9.88865-.35317-15.71589-.88292-15.71589s-.88291 6.97503-.88291 19.24755c0 18.01147-1.0595 33.37419-2.47217 34.78685-.35316.35317-.70633-8.03453-.70633-18.54121-.26487-36.81756-.52975-44.85209-1.23608-41.85018-.97121 4.32628-1.76583 4.50287-1.76583.35317 0-1.94241-.44146-3.88483-.97121-4.1497-.52975-.35317-.70633-1.23608-.44145-1.94241.35316-.70634.70633-4.14971.9712-7.59307 1.0595-14.12664 2.82533-18.18805 9.3589-22.33775 2.47216-1.50096 4.67945-2.119 7.76965-2.119 7.76965 0 12.36081 5.65066 15.53931 19.15926.79462 3.26678 1.67754 6.97502 1.94241 8.21111.79463 3.26678 1.76583 28.25327 1.41267 37.96534-.17659 4.59116-.70634 11.74277-1.14779 15.89247Zm-6.62187 118.31061c-.79462 0 .17659-4.50285 1.0595-4.76775.79462-.35315.79462.2649.08829 2.2073-.44145 1.41267-.9712 2.56045-1.14779 2.56045Zm-1.14778 23.83871c-.88292 0-3.09021-3.61996-2.47217-4.1497.70633-.79462 3.1785 1.50094 3.1785 2.91362 0 .70632-.26488 1.23608-.70633 1.23608Z"/>
    <path fill="#f3f3f3" d="M117.99993 268.9385c-.26487-.26488-.35316-1.0595-.08829-1.67754.26487-.70634.52975-.44146.52975.52974.08829.9712-.17659 1.50096-.44146 1.1478Zm-1.41266 93.14753c-1.14779 0-2.64875.08827-3.35508.17657-.70633.0883-1.67754 1.41268-2.11899 3.00192-.70634 2.56046-1.0595 2.91362-3.09021 2.38388-3.26678-.79463-3.79653-1.58925-2.56045-4.1497 1.14779-2.47217 4.94432-5.1209 7.2399-5.1209 1.85412 0 5.82724 1.8541 5.82724 2.8253 0 .3532-.88291.79464-1.94241.88293Zm-2.119-49.97299c-1.0595 1.94241-2.11899 5.82724-2.38387 8.56426-.17658 2.73705-.88291 5.56238-1.41266 6.2687-.52975.70634-1.14779 4.06142-1.23608 7.4165-.17659 5.65065-.88292 8.2111-1.85413 7.1516-.70633-.61803-2.0307-27.45865-1.58924-31.87322.17658-2.56046.79462-4.23798 1.41266-4.23798 1.32437 0 3.1785-3.70826 3.1785-6.18042 0-.97121.44145-1.76583.88291-1.76583 1.23608 0 1.0595 6.88675-.35316 10.68327-1.32438 3.79654-.88292 6.00382.88291 3.70825.61804-.88292 1.23608-2.20729 1.23608-2.91362 0-.70635.61804-2.47215 1.32437-3.88483.79463-1.41266 1.23608-3.09022.97121-3.61995-.17658-.61804 0-2.38387.44146-4.06141.52975-2.29558.70633-1.32436.52975 4.06141-.17658 5.2092-.70634 8.03453-2.03071 10.68327Z"/>
    <path fill="#f3f3f3" d="M115.1746 367.91327c-.61804.17658-1.0595-.52977-1.0595-1.50097 0-1.8541.97121-2.38386 2.119-1.23607.79463.79463.17658 2.29557-1.0595 2.73704Zm-2.82532-80.16867c-1.76583 0-2.64875-.44147-2.64875-1.3244 0-1.58923 2.119-2.64873 3.97312-1.8541 2.47216.8829 1.50095 3.1785-1.32437 3.1785Zm-1.50096-16.51053c-.17658-1.14777-.17658-3.0902 0-4.41457.17658-1.41266.35317-.44146.35317 1.9424 0 2.47217-.17659 3.53167-.35317 2.47217Zm-3.44337 73.63513c-.26487-.2649-.35316-1.0595-.08829-1.67755.26487-.70635.52975-.44145.52975.52975.08829.9712-.17658 1.50095-.44146 1.1478Zm-3.88482-174.55231c-.44146 0-.88292-.35317-.88292-.88292 0-.44146.44146-.88291.88292-.88291.52974 0 .88291.44145.88291.88291 0 .52975-.35317.88292-.88291.88292Zm-9.80036-12.09594c-1.23608-1.23608-1.32437-44.23404 0-45.55841.61804-.61804.88291 6.35698.88291 22.7792.0883 16.95197-.17658 23.48554-.88291 22.77921Zm-1.67754 16.51051c-.44146 0-.88291-.44146-.88291-.9712 0-.44146.44145-.61804.88291-.35316.52975.26486.88292.70632.88292.9712 0 .17658-.35317.35316-.88292.35316Zm-1.58925-41.497-.61804 5.73894-.44145-6.1804c-.61805-9.00573.26487-25.78112 1.50095-27.0172 1.0595-1.0595.79462 14.39151-.44146 27.45866Zm-7.2399 26.04599c-.44146-.26487-.88291-1.58925-.79462-2.91362l.08829-2.38387.70633 2.20729c.97121 3.0902.97121 3.70824 0 3.0902Z"/>
    <path fill="#000" d="M126.74079 393.4295c-1.32437-1.41265-3.00191-.52974-2.73704 1.3244.35317 2.56044 3.35508 3.35506 3.35508.8829 0-.8829-.26487-1.9424-.61804-2.2073Zm-2.64874-292.42144c-.44146-7.2399-3.26679-17.21684-4.76775-17.21684-1.23608 0-.9712 2.47216.61804 5.47407.79463 1.50095 1.76584 6.71015 2.20729 11.56619.44146 4.85603 1.23608 9.44719 1.67754 10.24181.88292 1.50096.88292-.35317.26488-10.06523Zm-.26488 18.54121c-.52975-.35316-.88291 1.76583-.88291 5.65066 0 3.35507.44145 6.44528.88291 6.71015.52975.35317.88292-1.76583.88292-5.65065 0-3.35508-.35317-6.44528-.88292-6.71016Zm.26488 125.63881c-.17659 1.0595-.17659 2.82532 0 3.97312.17658 1.0595.35316.17658.35316-2.0307 0-2.2073-.17658-3.0902-.35316-1.94242Zm-.88292 8.82915c-.17658.52975-.17658 1.58925 0 2.20729.26487.52975.44146.08828.44146-1.14779 0-1.23608-.17659-1.67753-.44146-1.0595ZM111.55465 79.90639c-.61804-.35317-1.32437-.44146-1.58925-.17658-.79462.79462.35317 1.677535 1.58925 1.23608.97121-.35317.97121-.52975 0-1.0595Zm-.17658 38.31851c-.61804-4.85603-.70633-4.32628-1.32437 10.06523-.44146 9.27061-.26488 11.21302.70633 10.94815 1.23608-.44146 1.67754-13.33202.61804-21.01338Zm-4.67945.97121c-.79462.88291-1.23608 6.97503-.44146 6.53357.44146-.35317.79463-1.94241.79463-3.70824 0-1.76584-.17659-3.00192-.35317-2.82533Z"/>
    <path fill="#f3f3f3" d="M111.24329 350.03496c.08202-1.38276-1.1487-1.13226-.83643-2.69361.17659-1.32437 0-2.20729-.61804-2.20729-1.67754 0-1.14779 6.18041.61804 6.79844.19035.0846.7544-.51477.83643-1.89754Z"/>
  </g>
</svg>