<?xml version="1.0" encoding="UTF-8" standalone="no"?>
<!DOCTYPE svg PUBLIC "-//W3C//DTD SVG 1.1//EN" "http://www.w3.org/Graphics/SVG/1.1/DTD/svg11.dtd">
<svg xmlns="http://www.w3.org/2000/svg" xmlns:dc="http://purl.org/dc/elements/1.1/" xmlns:xl="http://www.w3.org/1999/xlink" version="1.1" viewBox="34.875 60.70705 294.75 324.5292" width="294.75" height="324.5292">
  <defs>
    <clipPath id="artboard_clip_path">
      <path d="M 34.875 60.70705 L 329.625 60.70705 L 329.625 385.23625 L 34.875 385.23625 Z"/>
    </clipPath>
  </defs>
  <g id="Broad-arrow_(1)" stroke-opacity="1" stroke="none" fill="none" fill-opacity="1" stroke-dasharray="none">
    <title>Broad-arrow (1)</title>
    <g id="Broad-arrow_(1)_Layer_2" clip-path="url(#artboard_clip_path)">
      <title>Layer 2</title>
      <g id="Group_699">
        <g id="Graphic_756">
          <path d="M 164.76695 63.61006 C 151.25145 65.77764 139.64852 74.06545 135.05835 84.90335 C 132.50825 90.89607 132.76326 97.39881 135.95088 103.64655 C 136.84341 105.55912 138.88349 115.24948 140.28604 125.32235 C 141.6886 135.26772 142.96364 144.57556 143.21865 145.97812 C 144.3662 151.58832 145.76874 162.55373 145.51374 163.44626 C 145.38623 163.95628 146.40627 170.45902 147.68132 178.1093 C 148.95636 185.63209 150.74143 196.46999 151.50646 202.0802 C 152.39899 207.6904 153.54653 215.4682 154.18406 219.29333 C 154.94909 223.11848 156.35164 232.29882 157.37168 239.6941 C 161.96185 271.9528 164.25693 284.95827 165.65948 285.3408 C 166.55202 285.7233 166.67952 286.36082 165.78699 287.38086 C 165.02196 288.2734 165.02196 291.0785 165.65948 294.52113 C 168.46459 309.6942 169.48462 317.8545 168.8471 318.492 C 168.46459 318.87453 167.82706 317.982 167.31704 316.45194 C 166.93453 314.9219 166.042 313.64683 165.40447 313.64683 C 164.63944 313.64683 164.38444 312.7543 164.89445 311.73426 C 165.27697 310.71423 163.2369 302.55392 160.43179 293.5011 C 151.50646 265.45005 149.33888 258.4373 147.0438 250.14948 C 145.89625 245.81432 144.3662 241.86167 143.85617 241.47916 C 143.21865 241.09664 142.70863 239.6941 142.70863 238.16403 C 142.70863 234.97642 135.05835 210.2405 133.52829 208.45543 C 133.01827 207.8179 132.50825 206.16035 132.50825 204.7578 C 132.50825 201.06016 127.66307 185.37708 121.54285 168.92897 C 121.03283 167.52641 120.3953 165.23133 120.1403 163.82878 C 119.88528 162.42623 118.73774 158.8561 117.5902 155.79598 L 115.55012 150.44078 L 107.77234 150.44078 C 103.56468 150.44078 85.84152 150.31328 68.373374 150.18577 C 40.322334 149.80326 36.7522 150.05827 36.242183 151.84333 C 35.477154 154.26592 36.624697 158.09106 38.28226 158.09106 C 38.91978 158.09106 40.577343 160.51365 42.1074 163.44626 C 43.637457 166.37887 47.845113 173.39163 51.54275 179.00184 C 55.24039 184.73955 61.87063 195.32245 66.4608 202.71772 C 75.76865 217.89078 91.70674 243.77424 93.61931 247.08937 C 94.38434 248.2369 97.69946 253.4646 101.14209 258.6923 C 104.45721 263.92 107.51733 269.02018 108.02735 270.16772 C 108.40986 271.31526 111.46997 276.16044 114.7851 281.13313 C 120.3953 289.54844 149.46638 335.57765 154.05655 343.35544 C 155.2041 345.268 159.66676 352.40827 164.00192 359.0385 C 168.20958 365.79627 173.18226 373.82907 174.71232 376.8892 C 178.66497 384.15695 180.45003 384.66697 183.38264 379.5668 C 187.8453 372.1715 198.04568 355.5959 205.69597 343.86546 C 209.90362 337.3627 215.89635 328.05487 218.95646 323.2097 C 222.14408 318.237 228.2643 308.80165 232.47196 302.1714 C 236.80712 295.54116 240.88727 289.03842 241.5248 287.89088 C 242.28982 286.74334 244.3299 283.55572 246.11497 280.87812 C 247.90003 278.20052 252.6177 271.06025 256.57035 264.94003 C 260.523 258.8198 264.34814 253.5921 264.98567 253.0821 C 266.1332 252.44456 274.54852 238.67405 282.4538 224.64853 C 285.0039 220.05836 304.38463 190.09475 310.88737 180.6594 C 314.7125 175.0492 324.02036 160.38615 327.08047 155.03095 C 331.0331 148.01819 329.24805 147.63568 288.06402 148.4007 C 268.04578 148.78322 251.59767 149.03823 251.47017 149.16573 C 249.9401 149.42074 244.3299 164.2113 230.5594 205.26781 C 225.84171 219.67585 221.25154 232.55383 220.61402 233.95638 C 219.9765 235.35893 217.0439 243.64674 214.11128 252.44456 C 211.17867 261.2424 207.99105 270.04022 207.09852 272.2078 C 206.20599 274.24787 201.87083 286.61583 197.53566 299.6213 C 193.073 312.6268 189.24786 323.4647 188.99285 323.7197 C 187.7178 325.50477 187.33529 322.06215 188.48283 317.34447 C 189.12035 314.28436 190.3954 306.50657 191.16043 300.25884 C 192.43548 290.44097 197.02565 258.4373 201.3608 229.4937 C 201.99833 224.90354 203.14587 215.7232 204.0384 209.09296 C 204.80343 202.4627 205.95098 193.7924 206.5885 189.96725 C 207.35353 186.1421 208.11856 179.76687 208.50107 175.94173 C 208.88359 172.11658 209.3936 168.16394 209.77612 167.1439 C 210.41364 165.23133 213.21875 145.3406 216.66137 118.6921 C 217.4264 112.82689 218.82895 105.94163 219.849 103.39154 C 225.84171 87.58095 220.74153 75.595505 204.80343 67.81772 C 197.40816 64.12008 194.85807 63.61006 183.89266 63.10004 C 177.0074 62.84503 168.46459 63.10004 164.76695 63.61006 Z" fill="black"/>
        </g>
        <g id="Graphic_755">
          <path d="M 194.09304 69.47528 C 203.52839 71.38785 207.86355 74.19295 212.58122 81.07821 C 216.66137 87.19844 216.27886 98.03634 211.6887 104.28407 C 205.82347 112.31687 190.2679 117.28955 173.9473 116.52452 C 161.70684 116.0145 157.24417 114.73946 149.46638 109.89428 C 142.58113 105.43161 139.64852 100.33142 139.90353 92.68114 C 140.41355 74.83048 166.55202 63.61006 194.09304 69.47528 Z" fill="white"/>
        </g>
        <g id="Graphic_754">
          <path d="M 211.05117 116.90704 C 210.66865 118.18208 208.62858 132.97263 206.461 149.80326 C 204.29342 166.63388 202.38084 181.80694 201.99833 183.592 C 201.2333 187.41715 196.77064 220.44088 195.6231 231.40628 C 195.11308 235.61394 194.47555 239.43908 194.22054 239.8216 C 194.09304 240.2041 193.2005 245.0493 192.56298 250.6595 C 191.79795 256.1422 190.01289 269.6577 188.61033 280.4956 C 187.08028 291.3335 185.42272 304.2115 184.7852 309.18417 C 184.14767 314.02935 183.00013 321.80714 182.2351 326.3973 C 181.47007 330.98748 180.83255 336.9802 180.83255 339.7853 C 180.83255 347.3081 179.94001 349.60317 177.77243 347.6906 C 176.8799 346.92557 176.49738 345.523 177.1349 344.8855 C 178.28245 343.35544 176.62489 328.5649 174.71232 323.5922 C 174.0748 321.80714 173.69228 320.02207 173.9473 319.76706 C 174.3298 319.51205 173.30977 311.86177 171.90721 302.68143 C 170.50466 293.6286 169.10211 284.32075 168.8471 281.89816 C 168.46459 279.47557 168.08207 275.77793 167.69956 273.61035 C 167.31704 271.44277 164.51194 251.042 161.32432 228.21867 C 158.1367 205.39532 154.94909 183.84702 154.18406 180.4044 C 153.41903 176.83426 151.50646 162.80874 149.7214 149.16573 C 147.93633 135.52273 146.15126 122.38974 145.64124 120.09466 C 145.13122 116.90704 145.38623 116.0145 146.91629 116.0145 C 148.06383 116.0145 149.21137 116.52452 149.59389 117.16205 C 151.50646 120.22216 178.79247 122.51725 190.5229 120.47717 C 196.77064 119.45713 204.1659 117.16205 205.82347 115.7595 C 206.461 115.24948 207.99105 114.73946 209.3936 114.73946 C 211.05117 114.73946 211.56119 115.37698 211.05117 116.90704 Z" fill="white"/>
        </g>
        <g id="Graphic_753">
          <path d="M 311.01487 170.0765 C 306.0422 177.47178 302.34455 183.592 302.72707 183.592 C 303.10958 183.592 302.21705 184.86706 300.8145 186.39711 C 295.2043 193.02736 274.0385 226.94362 274.0385 229.4937 C 274.0385 230.13124 273.52848 230.76876 272.89096 230.76876 C 272.25344 230.76876 269.83085 233.95638 267.53576 237.90903 C 265.11317 241.73417 258.48293 252.06205 252.7452 260.85988 C 246.88 269.5302 242.16232 277.308 242.16232 277.9455 C 242.16232 278.71054 241.7798 279.22056 241.14228 279.22056 C 240.63226 279.22056 237.69965 283.4282 234.51204 288.4009 C 229.28434 297.07122 223.29162 306.50657 209.64861 327.67235 C 206.716 332.26252 199.83075 343.10043 194.34805 351.89825 C 188.86534 360.6961 183.51014 368.8564 182.4901 370.00392 C 180.45003 372.554 177.1349 373.06404 177.1349 371.02396 C 177.1349 370.25893 173.69228 364.1387 169.48462 357.50846 C 165.14946 350.7507 160.6868 343.10043 159.28425 340.55033 C 158.0092 337.87273 155.2041 333.9201 153.03651 331.625 C 150.99644 329.45742 149.21137 327.41735 149.33888 327.28984 C 149.8489 326.2698 147.4263 321.2971 146.40627 321.2971 C 145.76874 321.2971 145.25873 320.6596 145.25873 320.02207 C 145.25873 318.74702 142.32612 314.15685 133.52829 301.02387 C 132.25324 299.2388 130.59568 296.3062 129.95816 294.52113 C 129.19313 292.86356 126.64304 288.7834 124.22045 285.4683 C 121.92536 282.15317 118.73774 277.05298 117.20769 274.24787 C 115.80513 271.31526 113.51005 268.25515 112.1075 267.49012 C 110.70494 266.5976 109.5574 265.06753 109.5574 264.175 C 109.5574 261.8799 105.47725 254.61214 103.56468 253.3371 C 102.67215 252.82708 101.90712 251.42453 101.90712 250.4045 C 101.90712 249.38445 101.01458 248.2369 99.99455 247.8544 C 98.97451 247.34438 98.08198 246.19683 98.08198 245.1768 C 98.08198 244.15676 94.25683 237.2715 89.66666 229.74872 C 85.07649 222.22594 80.61383 214.95817 79.8488 213.55562 C 78.95627 212.15307 76.15116 207.6904 73.60107 203.61025 C 70.92347 199.5301 68.75589 195.70496 68.75589 195.19494 C 68.75589 194.68492 66.84332 191.6248 64.67574 188.5647 C 60.08557 182.31696 53.327816 171.60657 49.12016 163.95628 C 47.71761 161.27868 45.29502 158.60108 43.892466 157.96356 C 41.214867 156.94352 44.912504 156.68851 87.49908 156.05099 L 111.97999 155.66847 L 113.25504 159.74863 C 113.89256 162.04371 116.31515 169.5665 118.61024 176.57925 C 120.77782 183.592 123.32791 191.87982 124.22045 195.06744 C 127.66307 207.18039 139.266 245.0493 145.76874 265.19504 C 152.39899 285.7233 164.63944 324.10222 171.2697 345.268 C 173.05476 351.13322 174.58481 356.61593 174.58481 357.50846 C 174.58481 360.05856 177.77243 362.22614 180.06752 361.3336 C 181.59757 360.8236 190.77791 336.9802 191.67045 331.115 C 191.79795 330.22245 192.30797 328.9474 192.69049 328.18237 C 193.2005 327.41735 194.47555 323.9747 195.7506 320.5321 C 196.89814 317.08946 199.06572 310.84173 200.72328 306.63407 C 202.38084 302.42642 206.461 291.206 209.64861 281.77065 C 218.57395 256.0147 226.86175 234.08388 228.2643 232.68133 C 228.90183 232.0438 229.41185 230.38625 229.41185 228.8562 C 229.53935 226.4336 233.10948 214.83067 234.76705 212.28057 C 235.14956 211.51555 235.9146 208.96545 236.4246 206.54286 C 237.31714 202.0802 243.81988 182.69948 250.57763 164.2113 L 254.27527 154.26592 L 286.78898 154.01091 C 311.14238 153.7559 319.4302 154.01091 319.6852 155.15846 C 319.9402 155.92348 315.98756 162.68123 311.01487 170.0765 Z" fill="white"/>
        </g>
        <g id="Graphic_752">
          <path d="M 169.22962 77.763085 C 156.09663 81.07821 147.1713 90.51356 150.23141 97.90883 C 152.90901 104.41157 159.02924 106.45165 176.36988 106.45165 C 193.96553 106.45165 197.91818 105.0491 202.76336 97.39881 C 209.2661 86.81592 200.08576 77.50808 182.2351 76.87055 C 177.64493 76.74305 171.90721 77.12556 169.22962 77.763085 Z" fill="black"/>
        </g>
        <g id="Graphic_751">
          <path d="M 174.58481 82.86327 C 174.58481 83.5008 174.0748 84.13832 173.30977 84.13832 C 172.67224 84.13832 172.03472 83.5008 172.03472 82.86327 C 172.03472 82.09825 172.67224 81.58823 173.30977 81.58823 C 174.0748 81.58823 174.58481 82.09825 174.58481 82.86327 Z" fill="white"/>
        </g>
        <g id="Graphic_750">
          <path d="M 184.7852 82.86327 C 182.3626 84.52084 180.96005 84.52084 180.96005 82.86327 C 180.96005 82.09825 182.2351 81.58823 183.89266 81.58823 C 186.18774 81.58823 186.31525 81.84324 184.7852 82.86327 Z" fill="white"/>
        </g>
        <g id="Graphic_749">
          <path d="M 165.65948 89.36602 C 165.65948 90.00354 164.76695 90.51356 163.74691 90.51356 C 162.72687 90.51356 161.83434 89.62103 161.83434 88.60099 C 161.83434 87.45344 162.59937 87.07093 163.74691 87.45344 C 164.76695 87.96346 165.65948 88.72849 165.65948 89.36602 Z" fill="white"/>
        </g>
        <g id="Graphic_748">
          <path d="M 175.34984 88.60099 C 172.67224 90.64106 171.2697 90.25855 172.67224 88.09097 C 173.05476 87.32594 174.4573 86.68842 175.60485 86.68842 C 177.51742 86.81592 177.51742 86.94343 175.34984 88.60099 Z" fill="white"/>
        </g>
        <g id="Graphic_747">
          <path d="M 184.7852 87.96346 C 182.2351 89.62103 180.57754 89.62103 181.59757 87.96346 C 181.98009 87.19844 183.38264 86.68842 184.53018 86.68842 C 186.44275 86.68842 186.44275 86.94343 184.7852 87.96346 Z" fill="white"/>
        </g>
        <g id="Graphic_746">
          <path d="M 196.89814 87.96346 C 197.40816 88.72849 196.26062 89.23851 194.47555 89.23851 C 192.69049 89.23851 191.16043 88.60099 191.16043 87.96346 C 191.16043 87.19844 192.30797 86.68842 193.58302 86.68842 C 194.98557 86.68842 196.51563 87.19844 196.89814 87.96346 Z" fill="white"/>
        </g>
        <g id="Graphic_745">
          <path d="M 187.9728 94.4662 C 187.5903 94.97622 186.44275 95.23123 185.42272 94.84872 C 184.40268 94.3387 183.76515 93.57367 184.14767 92.93615 C 184.53018 92.42613 185.67773 92.17112 186.69776 92.55363 C 187.7178 93.06365 188.35532 93.82868 187.9728 94.4662 Z" fill="white"/>
        </g>
        <g id="Graphic_744">
          <path d="M 178.40996 94.3387 C 178.40996 94.97622 177.51742 95.61375 176.49738 95.61375 C 175.47735 95.61375 174.58481 94.97622 174.58481 94.3387 C 174.58481 93.57367 175.47735 93.06365 176.49738 93.06365 C 177.51742 93.06365 178.40996 93.57367 178.40996 94.3387 Z" fill="white"/>
        </g>
        <g id="Graphic_743">
          <path d="M 167.57205 95.61375 C 167.18954 96.25127 166.297 96.8888 165.53198 96.8888 C 164.89445 96.8888 164.38444 96.25127 164.38444 95.61375 C 164.38444 94.84872 165.27697 94.3387 166.42451 94.3387 C 167.44455 94.3387 167.95457 94.84872 167.57205 95.61375 Z" fill="white"/>
        </g>
        <g id="Graphic_742">
          <path d="M 183.51014 99.43889 C 183.51014 100.07641 182.3626 100.71394 180.83255 100.71394 C 179.43 100.71394 178.66497 100.07641 179.04748 99.43889 C 179.43 98.67386 180.70504 98.16384 181.72508 98.16384 C 182.74512 98.16384 183.51014 98.67386 183.51014 99.43889 Z" fill="white"/>
        </g>
        <g id="Graphic_741">
          <path d="M 173.30977 100.71394 C 173.30977 101.35146 172.41723 101.98898 171.3972 101.98898 C 170.37716 101.98898 169.48462 101.35146 169.48462 100.71394 C 169.48462 99.94891 170.37716 99.43889 171.3972 99.43889 C 172.41723 99.43889 173.30977 99.94891 173.30977 100.71394 Z" fill="white"/>
        </g>
        <g id="Graphic_740">
          <path d="M 178.40996 104.53908 C 178.40996 105.1766 177.89994 105.81413 177.26241 105.81413 C 176.49738 105.81413 175.60485 105.1766 175.22234 104.53908 C 174.83982 103.77405 175.34984 103.26403 176.36988 103.26403 C 177.51742 103.26403 178.40996 103.77405 178.40996 104.53908 Z" fill="white"/>
        </g>
        <g id="Graphic_739">
          <path d="M 201.99833 122.26224 C 200.08576 123.9198 185.0402 126.21488 175.85986 126.21488 C 170.50466 126.21488 168.08207 126.5974 168.9746 127.48993 C 170.24965 128.76498 183.51014 129.14749 193.71052 128.25496 C 201.2333 127.61743 206.461 125.44985 206.461 123.02726 C 206.461 120.98719 203.9109 120.47717 201.99833 122.26224 Z" fill="black"/>
        </g>
        <g id="Graphic_738">
          <path d="M 195.6231 131.9526 C 192.818 132.97263 186.69776 133.86517 181.98009 133.86517 C 172.79975 133.86517 170.37716 135.77774 177.51742 137.05278 C 181.72508 137.94532 187.7178 137.4353 198.5557 135.65023 C 202.63585 135.01271 203.9109 134.24768 203.9109 132.46261 C 203.9109 129.65751 202.50835 129.53 195.6231 131.9526 Z" fill="black"/>
        </g>
        <g id="Graphic_737">
          <path d="M 200.08576 140.49541 C 196.38812 142.02547 190.90542 142.663 181.08755 142.7905 C 176.24238 142.918 174.58481 143.30052 175.60485 144.32055 C 178.40996 147.12566 202.38084 144.95808 203.52839 141.89796 C 204.54843 139.34787 203.7834 139.09286 200.08576 140.49541 Z" fill="black"/>
        </g>
        <g id="Graphic_736">
          <path d="M 193.71052 149.93076 C 190.5229 150.8233 185.2952 151.58832 181.98009 151.58832 C 178.28245 151.71583 175.85986 152.35335 175.85986 153.11838 C 175.85986 154.13842 179.17498 154.39343 187.4628 153.6284 C 200.72328 152.60836 202.63585 152.09834 202.63585 149.67575 C 202.63585 147.63568 201.4883 147.63568 193.71052 149.93076 Z" fill="black"/>
        </g>
        <g id="Graphic_735">
          <path d="M 197.15315 156.94352 C 195.8781 157.70855 190.5229 158.60108 185.2952 158.9836 C 180.06752 159.36611 175.85986 160.25865 175.85986 160.76866 C 175.85986 162.93624 196.77064 162.04371 199.83075 159.87613 C 204.1659 156.81602 201.87083 154.26592 197.15315 156.94352 Z" fill="black"/>
        </g>
        <g id="Graphic_734">
          <path d="M 197.28066 165.86885 C 196.0056 166.50638 190.77791 167.1439 185.42272 167.2714 C 179.30249 167.3989 175.98737 168.03643 176.24238 168.80146 C 176.8799 170.45902 197.53566 170.0765 199.19323 168.41895 C 201.2333 166.37887 199.70325 164.4663 197.28066 165.86885 Z" fill="black"/>
        </g>
        <g id="Graphic_733">
          <path d="M 191.79795 174.66668 C 190.3954 175.3042 186.18774 175.81422 182.61761 175.81422 C 178.91997 175.94173 175.85986 176.45175 175.85986 177.21677 C 175.85986 179.12935 195.36808 178.87434 197.28066 176.96176 C 200.59578 173.64664 197.40816 172.24409 191.79795 174.66668 Z" fill="black"/>
        </g>
        <g id="Graphic_732">
          <path d="M 192.43548 183.082 C 190.6504 183.97452 186.57026 184.86706 183.25514 184.86706 C 179.94001 184.86706 176.8799 185.37708 176.49738 186.1421 C 175.34984 188.05468 194.09304 187.79967 196.0056 185.8871 C 197.66317 184.22953 198.04568 180.91441 196.64313 181.16942 C 196.0056 181.29693 194.22054 182.06195 192.43548 183.082 Z" fill="black"/>
        </g>
        <g id="Graphic_731">
          <path d="M 193.2005 192.00732 C 191.67045 193.02736 187.7178 193.7924 183.25514 193.7924 C 179.17498 193.7924 175.85986 194.3024 175.85986 195.06744 C 175.85986 197.23502 194.47555 196.5975 196.26062 194.42991 C 198.6832 191.6248 196.26062 189.71224 193.2005 192.00732 Z" fill="black"/>
        </g>
        <g id="Graphic_730">
          <path d="M 190.5229 200.16763 C 189.12035 200.80515 185.2952 201.31517 181.98009 201.31517 C 178.53746 201.44267 175.85986 202.0802 175.85986 202.71772 C 175.85986 203.61025 179.30249 203.99277 185.0402 203.73776 C 192.69049 203.48275 194.34805 202.97273 194.73056 201.06016 C 195.24058 198.63757 194.34805 198.51006 190.5229 200.16763 Z" fill="black"/>
        </g>
        <g id="Graphic_729">
          <path d="M 189.24786 209.09296 C 187.8453 209.73048 184.27517 210.2405 181.34256 210.2405 C 178.28245 210.368 175.85986 210.87802 175.85986 211.64305 C 175.85986 213.0456 187.4628 213.3006 192.18047 212.15307 C 193.71052 211.64305 194.98557 210.4955 194.98557 209.60298 C 194.98557 207.5629 193.073 207.4354 189.24786 209.09296 Z" fill="black"/>
        </g>
        <g id="Graphic_728">
          <path d="M 187.33529 218.0183 C 185.55022 218.5283 182.2351 219.03833 179.94001 219.16583 C 173.56478 219.29333 176.36988 221.84343 182.87262 221.84343 C 189.63037 221.84343 192.43548 220.8234 192.43548 218.5283 C 192.43548 216.61574 192.05296 216.48823 187.33529 218.0183 Z" fill="black"/>
        </g>
        <g id="Graphic_727">
          <path d="M 187.9728 225.66857 C 187.5903 226.3061 184.53018 226.94362 181.47007 226.94362 C 177.38992 226.94362 175.85986 227.45364 176.24238 228.47368 C 176.62489 229.62122 178.79247 230.00373 183.00013 229.74872 C 189.37536 229.2387 192.9455 227.58114 191.67045 225.54107 C 190.77791 224.011 188.99285 224.13851 187.9728 225.66857 Z" fill="black"/>
        </g>
        <g id="Graphic_726">
          <path d="M 180.57754 234.2114 C 173.05476 234.97642 175.34984 237.90903 183.00013 237.2715 C 189.75788 236.889 191.16043 236.37897 191.16043 234.4664 C 191.16043 233.31885 189.75788 233.31885 180.57754 234.2114 Z" fill="black"/>
        </g>
        <g id="Graphic_725">
          <path d="M 180.70504 241.86167 C 175.98737 242.3717 174.3298 244.02925 177.51742 245.0493 C 180.70504 246.19683 189.88538 244.53927 189.88538 242.7542 C 189.88538 241.73417 188.86534 241.09664 187.7178 241.22415 C 186.44275 241.35165 183.25514 241.60666 180.70504 241.86167 Z" fill="black"/>
        </g>
        <g id="Graphic_724">
          <path d="M 183.12763 249.38445 C 182.61761 249.89447 181.08755 250.27698 179.685 250.4045 C 175.85986 250.6595 175.98737 253.0821 179.94001 253.4646 C 183.89266 253.97462 188.99285 251.55203 187.9728 249.76697 C 187.08028 248.49192 184.27517 248.2369 183.12763 249.38445 Z" fill="black"/>
        </g>
        <g id="Graphic_723">
          <path d="M 180.70504 257.16224 C 174.96733 258.05477 176.62489 260.22235 182.61761 259.83984 C 185.55022 259.58483 187.8453 258.8198 187.7178 258.18228 C 187.4628 256.65222 185.55022 256.3972 180.70504 257.16224 Z" fill="black"/>
        </g>
        <g id="Graphic_722">
          <path d="M 175.22234 266.4701 C 174.83982 267.1076 175.85986 268.00014 177.64493 268.51016 C 181.21506 269.4027 186.06024 268.12765 186.06024 266.34258 C 186.06024 264.81252 176.24238 264.81252 175.22234 266.4701 Z" fill="black"/>
        </g>
        <g id="Graphic_721">
          <path d="M 180.96005 272.4628 C 175.22234 274.37538 175.22234 274.37538 178.15495 275.52292 C 181.59757 276.79797 184.7852 275.77793 184.7852 273.35534 C 184.7852 271.44277 184.14767 271.31526 180.96005 272.4628 Z" fill="black"/>
        </g>
        <g id="Graphic_720">
          <path d="M 177.1349 281.77065 C 177.1349 282.40818 178.53746 283.0457 180.19502 283.0457 C 181.98009 283.0457 183.76515 282.40818 184.14767 281.77065 C 184.65769 281.00562 183.25514 280.4956 181.08755 280.4956 C 178.91997 280.4956 177.1349 281.00562 177.1349 281.77065 Z" fill="black"/>
        </g>
        <g id="Graphic_719">
          <path d="M 178.40996 288.0184 L 175.22234 288.9109 L 178.40996 289.80345 C 183.00013 291.0785 183.51014 290.951 183.51014 288.7834 C 183.51014 286.74334 183.25514 286.61583 178.40996 288.0184 Z" fill="black"/>
        </g>
        <g id="Graphic_718">
          <path d="M 177.77243 297.07122 C 178.15495 297.70874 179.30249 297.96375 180.32253 297.45373 C 183.00013 296.5612 182.74512 295.79617 179.5575 295.79617 C 178.15495 295.79617 177.26241 296.3062 177.77243 297.07122 Z" fill="black"/>
        </g>
        <g id="Graphic_717">
          <path d="M 177.1349 304.7215 C 177.1349 305.35903 178.02744 305.99655 179.04748 305.99655 C 180.06752 305.99655 180.96005 305.35903 180.96005 304.7215 C 180.96005 303.95647 180.06752 303.44646 179.04748 303.44646 C 178.02744 303.44646 177.1349 303.95647 177.1349 304.7215 Z" fill="black"/>
        </g>
        <g id="Graphic_716">
          <path d="M 177.38992 310.0767 C 178.02744 311.98927 180.96005 313.0093 180.96005 311.35175 C 180.96005 310.71423 180.06752 309.6942 178.91997 309.31167 C 177.64493 308.80165 177.1349 309.18417 177.38992 310.0767 Z" fill="black"/>
        </g>
        <g id="Graphic_715">
          <path d="M 295.9693 162.80874 C 292.27168 170.45902 286.27896 180.91441 279.2662 191.87982 C 264.73066 214.83067 254.14776 234.2114 255.2953 235.48644 C 256.18784 236.25146 258.35542 233.06385 264.47565 221.2059 C 267.91828 214.83067 271.3609 208.83795 272.38094 207.6904 C 273.27347 206.67037 274.0385 205.26781 274.0385 204.6303 C 274.0385 204.12027 275.44105 201.82519 276.9711 199.6576 C 282.1988 192.89986 300.8145 161.27868 300.8145 159.2386 C 300.8145 156.4335 298.1369 158.47358 295.9693 162.80874 Z" fill="black"/>
        </g>
        <g id="Graphic_714">
          <path d="M 307.69975 160.89617 C 306.2972 162.55373 303.7471 166.12386 302.08954 168.92897 C 300.43198 171.73407 298.5194 174.53917 297.75438 175.3042 C 296.47933 176.45175 291.12414 184.86706 281.6888 200.80515 C 271.99843 217.25326 262.9456 232.1713 259.37546 237.78152 C 250.32262 252.06205 239.35722 271.69778 240.12224 272.4628 C 241.2698 273.61035 242.54483 271.9528 246.7525 263.92 C 248.79257 260.09485 250.70514 256.65222 251.08765 256.2697 C 252.3627 255.12216 263.3281 237.90903 266.77073 231.6613 C 270.8509 224.52103 274.2935 218.91082 275.44105 218.0183 C 275.82357 217.63577 277.73614 214.06564 279.6487 210.113 C 281.56128 206.16035 283.98387 202.2077 285.0039 201.31517 C 286.02395 200.55014 286.78898 199.4026 286.78898 198.89258 C 286.78898 198.38256 290.3591 192.64485 294.69427 186.0146 C 306.2972 168.67396 311.14238 160.38615 310.75986 159.1111 C 310.50486 158.47358 309.1023 159.2386 307.69975 160.89617 Z" fill="black"/>
        </g>
        <g id="Graphic_713">
          <path d="M 260.1405 177.47178 C 255.80533 187.54466 251.85268 196.46999 251.47017 197.23502 C 251.08765 198.12755 251.47017 198.89258 252.2352 198.89258 C 253.12773 198.89258 254.9128 196.21498 256.44285 192.77235 C 257.8454 189.45723 261.54304 181.16942 264.60315 174.41167 C 270.34087 161.7887 271.1059 159.36611 269.06582 159.36611 C 268.5558 159.36611 264.47565 167.52641 260.1405 177.47178 Z" fill="black"/>
        </g>
        <g id="Graphic_712">
          <path d="M 276.3336 163.44626 C 260.1405 195.44995 256.44285 203.99277 258.48293 203.99277 C 259.63047 203.99277 280.41374 162.93624 280.41374 160.64116 C 280.41374 158.09106 278.37366 159.49362 276.3336 163.44626 Z" fill="black"/>
        </g>
        <g id="Graphic_711">
          <path d="M 287.044 160.89617 C 286.40646 161.7887 283.09134 168.03643 279.90372 174.66668 C 274.166 186.65212 266.64323 200.67764 263.0731 206.16035 C 261.03302 209.47547 260.9055 210.368 262.43557 210.368 C 263.96563 210.368 270.46837 199.14759 280.28623 179.76687 C 284.7489 170.96904 288.82905 163.31876 289.46657 162.55373 C 290.1041 161.9162 290.61412 160.89617 290.61412 160.38615 C 290.61412 158.8561 288.57404 159.1111 287.044 160.89617 Z" fill="black"/>
        </g>
        <g id="Graphic_710">
          <path d="M 256.69786 164.08379 C 256.31535 166.12386 254.65778 171.86158 253.00022 176.96176 C 251.21516 182.69948 250.57763 186.1421 251.47017 185.7596 C 253.00022 185.37708 259.75797 167.0164 259.88548 162.80874 C 260.1405 159.2386 257.5904 160.25865 256.69786 164.08379 Z" fill="black"/>
        </g>
        <g id="Graphic_709">
          <path d="M 53.45532 163.57377 C 53.45532 166.37887 62.50816 179.76687 64.42073 179.76687 C 66.07829 179.76687 66.07829 179.25685 64.42073 176.19674 C 63.40069 174.15666 61.74313 171.86158 60.72309 170.96904 C 59.70305 170.20401 58.172996 167.78142 57.28046 165.74135 C 55.6229 161.7887 53.45532 160.64116 53.45532 163.57377 Z" fill="black"/>
        </g>
        <g id="Graphic_708">
          <path d="M 61.105605 162.68123 C 61.105605 163.06375 62.50816 165.23133 64.29322 167.52641 C 66.07829 169.8215 67.48084 172.11658 67.48084 172.4991 C 67.48084 172.88161 70.41345 177.59929 73.85608 182.82698 C 77.42621 188.18218 80.23131 192.77235 80.23131 193.15487 C 80.23131 193.53738 81.63387 196.08747 83.29143 198.63757 C 84.94899 201.31517 89.41165 209.22046 92.98179 216.23322 C 96.67942 223.11848 101.01458 230.51375 102.41714 232.68133 C 103.94719 234.7214 107.51733 240.45912 110.19493 245.4318 C 113.00003 250.27698 115.93264 255.50468 116.82517 256.90723 C 117.7177 258.30978 118.86525 260.47736 119.24776 261.6249 C 119.63028 262.89995 120.52281 263.92 121.16033 263.92 C 121.67035 263.92 124.22045 268.25515 126.77054 273.48284 C 129.32063 278.71054 131.99823 283.0457 132.63576 283.0457 C 134.54833 283.0457 133.9108 280.87812 130.9782 276.16044 C 129.32063 273.73785 125.7505 267.61763 122.9454 262.64494 C 120.1403 257.54475 117.33519 252.44456 116.57016 251.29702 C 115.93264 250.14948 111.59748 242.6267 107.13481 234.5939 C 102.67215 226.5611 97.06194 217.12575 94.63935 213.55562 C 92.34426 210.113 90.43169 206.79787 90.43169 206.41536 C 90.43169 205.65033 78.82876 185.37708 69.39341 169.8215 C 66.71581 165.48634 63.783204 161.9162 62.763166 161.9162 C 61.87063 161.9162 61.105605 162.29872 61.105605 162.68123 Z" fill="black"/>
        </g>
        <g id="Graphic_707">
          <path d="M 72.07101 162.93624 C 71.816 163.44626 73.21855 166.50638 75.25863 169.5665 C 77.42621 172.7541 83.41893 183.2095 88.77413 192.77235 C 94.00182 202.4627 98.847 210.75052 99.48453 211.13303 C 101.65211 212.40808 101.90712 211.00553 100.12205 207.8179 C 89.41165 187.54466 85.204 180.14938 79.8488 171.73407 C 73.34606 161.5337 73.09105 161.27868 72.07101 162.93624 Z" fill="black"/>
        </g>
        <g id="Graphic_706">
          <path d="M 82.78141 164.84882 C 82.78141 166.12386 84.82148 170.20401 87.24407 174.02916 C 89.66666 177.8543 93.74682 185.12207 96.1694 190.22226 C 101.01458 199.91262 102.67215 202.3352 103.81969 201.18766 C 104.71222 200.29513 89.79417 171.47906 85.3315 165.74135 C 83.29143 163.06375 82.78141 162.93624 82.78141 164.84882 Z" fill="black"/>
        </g>
        <g id="Graphic_705">
          <path d="M 92.98179 163.82878 C 92.98179 166.25137 108.53736 196.34248 109.5574 195.70496 C 110.83245 194.93993 95.53188 163.19125 94.00182 163.19125 C 93.3643 163.19125 92.98179 163.44626 92.98179 163.82878 Z" fill="black"/>
        </g>
        <g id="Graphic_704">
          <path d="M 103.18217 164.5938 C 103.18217 167.0164 111.08746 184.86706 112.1075 184.86706 C 112.74502 184.86706 111.72498 181.04192 109.93992 176.19674 C 108.15485 171.47906 106.49729 166.63388 106.11477 165.35883 C 105.34975 162.93624 103.18217 162.29872 103.18217 164.5938 Z" fill="black"/>
        </g>
        <g id="Graphic_703">
          <path d="M 65.82328 183.082 C 65.440766 183.592 66.58831 186.2696 68.62838 189.20222 C 80.23131 206.28785 85.45901 214.44816 88.26411 220.05836 C 91.57923 226.6886 95.02186 230.38625 96.42441 229.1112 C 97.06194 228.34617 90.94171 217.89078 83.92895 207.5629 C 82.5264 205.65033 81.50636 203.61025 81.50636 203.10023 C 81.50636 201.82519 68.373374 182.44447 67.35334 182.31696 C 66.97082 182.31696 66.20579 182.69948 65.82328 183.082 Z" fill="black"/>
        </g>
        <g id="Graphic_702">
          <path d="M 108.28235 208.96545 C 108.28235 210.87802 118.73774 228.21867 119.88528 228.21867 C 121.28784 228.21867 110.57744 207.8179 109.30239 207.8179 C 108.66487 207.8179 108.28235 208.32793 108.28235 208.96545 Z" fill="black"/>
        </g>
        <g id="Graphic_701">
          <path d="M 104.58472 217.89078 C 104.45721 218.78332 107.77234 225.15855 111.85249 231.9163 C 115.80513 238.67405 120.01279 245.81432 121.16033 247.8544 C 122.30787 250.02197 123.96544 251.93455 124.85797 252.18955 C 125.7505 252.57207 124.34795 248.87443 121.67035 244.02925 C 117.4627 236.50647 114.40258 231.5338 106.11477 218.5283 C 105.09474 216.87074 104.58472 216.74324 104.58472 217.89078 Z" fill="black"/>
        </g>
        <g id="Graphic_700">
          <path d="M 96.80693 232.42632 C 96.80693 233.31885 98.33699 236.25146 100.24956 239.05657 C 103.43717 243.64674 126.77054 282.9182 134.80334 297.07122 C 136.5884 300.25884 139.011 304.2115 140.15854 305.99655 C 141.43358 307.7816 143.47366 310.96924 144.7487 313.26432 C 158.77423 337.2352 166.93453 349.47566 168.33708 348.58313 C 168.9746 348.3281 167.57205 345.1405 165.27697 341.57037 C 162.98188 338.00024 160.04927 333.28256 158.77423 331.115 C 157.37168 328.8199 151.25145 319.00203 145.25873 309.18417 C 139.1385 299.3663 132.50825 288.4009 130.72319 284.95827 C 125.623 275.3954 121.54285 268.25515 113.51005 255.63218 C 109.4299 249.25695 104.58472 241.09664 102.54464 237.399 C 99.10201 231.02377 96.80693 228.9837 96.80693 232.42632 Z" fill="black"/>
        </g>
      </g>
    </g>
  </g>
</svg>
