<?xml version="1.0" encoding="UTF-8" standalone="no"?>
<!DOCTYPE svg PUBLIC "-//W3C//DTD SVG 1.1//EN" "http://www.w3.org/Graphics/SVG/1.1/DTD/svg11.dtd">
<svg xmlns:dc="http://purl.org/dc/elements/1.1/" xmlns:xl="http://www.w3.org/1999/xlink" version="1.1" xmlns="http://www.w3.org/2000/svg" viewBox="35 149.89528 295 171" width="295" height="171">
  <defs>
    <clipPath id="artboard_clip_path">
      <path d="M 35 149.89528 L 330 149.89528 L 330 320.89528 L 35 320.89528 Z"/>
    </clipPath>
  </defs>
  <g id="Book,_Open_(1)" stroke="none" stroke-opacity="1" stroke-dasharray="none" fill="none" fill-opacity="1">
    <title>Book, Open (1)</title>
    <g id="Book,_Open_(1)_Layer_2" clip-path="url(#artboard_clip_path)">
      <title>Layer 2</title>
      <g id="Group_3">
        <g id="Graphic_89">
          <path d="M 146.33484 153.19047 C 146.01938 153.50594 139.3947 154.55747 131.61333 155.609 C 117.52274 157.50177 104.37853 157.92239 94.38893 156.976 C 89.34156 156.45024 89.13125 156.5554 89.0261 159.07908 C 88.92094 160.55123 88.81579 162.23369 88.71064 162.75946 C 88.50033 164.2316 82.82203 166.9656 76.51281 168.64806 C 73.67366 169.38414 70.51905 170.96144 69.46752 172.11813 C 67.995365 174.11605 67.4696 174.11605 64.20983 172.95936 C 62.211914 172.32844 59.89853 171.69752 59.057304 171.69752 C 58.11092 171.69752 56.113 170.22537 54.43054 168.5429 C 51.906855 165.91407 50.64501 165.3883 46.33371 165.3883 C 39.60388 165.3883 37.08019 167.80683 37.08019 174.32636 C 37.08019 181.4768 39.814185 183.68503 47.38525 182.73865 C 50.64501 182.31804 54.220236 181.58196 55.48208 181.16135 C 56.743924 180.63558 58.42638 180.74073 59.26761 181.2665 C 60.10884 181.79227 63.1583 181.89742 66.20775 181.58196 L 71.57059 180.95104 L 71.67574 187.1551 C 71.67574 195.25194 71.149974 196.09317 66.20775 194.72617 C 64.10468 194.2004 62.10676 193.25402 61.7913 192.72825 C 61.370684 192.09733 60.213994 191.67671 58.95215 191.67671 C 57.79546 191.67671 55.587233 190.83548 54.11508 189.78395 C 49.17286 186.31388 47.595556 186.20872 42.23272 189.25818 C 34.346195 193.46432 33.92558 198.722 41.07603 203.66423 C 45.807943 206.924 48.01617 207.02915 54.32539 204.29515 C 59.372765 202.19208 68.62629 202.29723 71.57059 204.6106 C 72.306665 205.13638 72.83243 208.08068 72.83243 211.76106 C 72.83243 217.5445 72.622126 217.96513 70.09844 218.59605 C 66.41806 219.54243 59.372765 217.1239 55.16662 213.54867 C 52.32747 211.13014 50.750165 210.60437 46.01825 210.60437 C 41.39149 210.60437 40.02449 211.02498 38.76265 212.91775 C 36.23896 216.49297 36.659575 221.54035 39.814185 225.32588 C 42.54818 228.58565 42.758487 228.58565 49.067707 227.95472 C 57.374846 227.00834 62.63253 227.00834 69.152055 228.16503 C 74.40974 229.00626 74.40974 229.00626 74.7252 233.31756 C 75.04066 238.25978 73.04274 241.09893 69.36236 241.09893 C 66.52321 241.09893 58.11092 238.04947 55.902694 236.1567 C 55.061465 235.42063 51.906855 234.7897 49.067707 234.7897 C 42.337873 234.89486 39.183263 237.20825 38.447187 242.9917 C 37.92142 246.77723 38.23688 247.7236 40.970875 250.4576 C 45.597636 254.9792 48.54194 255.39983 55.16662 252.45553 C 59.89853 250.35245 61.89645 249.93184 68.41598 250.35245 L 75.98704 250.77307 L 75.98704 254.7689 C 75.98704 260.6575 75.14581 262.12966 71.7809 262.12966 C 70.09844 262.12966 68.41598 262.55028 68.10052 263.1812 C 67.4696 264.23273 69.46752 264.65335 73.04274 264.3379 C 75.35612 264.02243 76.617965 266.3358 74.83035 267.4925 C 72.41182 268.96465 61.05522 268.6492 61.47584 267.07188 C 61.7913 266.44096 62.94799 265.28427 64.20983 264.65335 C 66.73352 263.3915 66.20775 262.12966 63.26345 262.12966 C 62.211914 262.12966 59.688226 261.07813 57.58515 259.92143 C 53.27385 257.39775 47.595556 257.7132 44.33579 260.6575 C 41.812104 262.9709 39.70903 270.4368 40.970875 272.53987 C 43.494563 276.5357 58.63669 277.2718 62.94799 273.5914 C 65.05106 271.90895 76.19735 271.48834 77.24889 273.06564 C 78.19527 274.43264 78.30042 279.2697 77.45919 281.47793 C 76.40766 284.3171 63.05314 283.7913 58.847 280.847 C 54.11508 277.4821 48.54194 277.6924 44.5461 281.47793 C 37.71111 288.1026 40.2348 295.67368 49.908936 297.35614 C 52.95839 297.8819 55.16662 297.4613 59.58307 295.25306 C 63.999526 293.15 73.77882 290.73146 79.14165 290.52115 C 79.45711 290.52115 79.45711 292.72938 79.14165 295.46337 C 78.72104 299.4592 78.09012 300.72105 75.98704 301.7726 C 72.20151 303.66536 65.47168 303.45505 63.1583 301.35198 C 61.89645 300.1953 59.26761 299.6695 54.746004 299.56436 L 48.22648 299.4592 L 45.17702 304.40143 C 42.653334 308.50242 42.337873 309.6591 43.38941 311.55188 C 46.754326 317.75595 57.79546 319.859 63.78922 315.44257 C 69.0469 311.44673 79.56227 310.92096 89.34156 314.18072 C 99.96208 317.75595 105.32491 317.54564 117.73304 313.02403 C 136.13493 306.39935 140.44623 305.1375 152.74921 303.03443 C 166.8398 300.72105 172.93871 300.6159 181.77162 302.50867 C 189.13238 304.08597 192.18183 303.24474 191.1303 299.87982 C 190.70968 298.72313 191.02514 296.3046 191.65606 294.62214 C 192.7076 292.30876 193.65398 291.5727 195.8622 291.5727 C 199.64774 291.5727 201.22505 293.67576 201.96112 299.4592 C 202.38174 303.7705 202.6972 304.19112 205.74665 304.61174 C 207.53427 304.82205 209.9528 305.03235 211.1095 305.03235 C 214.68471 304.9272 234.97937 307.24058 240.5525 308.39727 C 259.26987 312.1828 279.3542 312.70857 296.28395 309.97458 C 302.2777 309.0282 310.9003 308.39727 316.47345 308.60758 C 322.15175 308.71273 326.5682 308.50242 327.19913 307.8715 C 328.3558 306.7148 328.98674 288.20777 328.04036 286.63046 C 327.7249 286.1047 327.19913 258.02867 326.88367 224.27435 L 326.25274 162.75946 L 320.57445 162.444 C 315.63222 162.12853 314.68584 162.444 313.6343 164.33676 C 312.68792 166.12437 311.8467 166.43983 309.63847 165.91407 C 305.74778 164.96768 303.11894 162.33884 303.11894 159.39454 C 303.11894 156.5554 302.38286 156.5554 292.81388 158.02754 C 283.35005 159.60485 265.68424 159.60485 251.59365 158.02754 C 244.96897 157.39662 239.18552 156.5554 238.7649 156.34508 C 238.44944 156.13478 233.40207 155.81932 227.72377 155.81932 C 218.3651 155.71416 215.52594 156.23993 203.22297 159.71 C 201.75082 160.13062 199.01682 161.39246 197.12405 162.444 C 192.81275 164.86253 192.7076 164.86253 188.186 161.81307 C 181.45616 157.18631 169.7841 153.92655 157.90174 153.29563 C 151.80283 152.98017 146.6503 152.87501 146.33484 153.19047 Z" fill="black"/>
        </g>
        <g id="Graphic_88">
          <path d="M 90.37012 205.26522 C 90.48914 205.04911 90.55849 204.96268 90.55849 205.05396 C 90.64082 205.33527 90.97015 212.64927 91.21714 221.3698 C 91.26314 222.58208 91.30493 223.7012 91.34199 224.73414 C 91.68488 225.24082 91.73472 225.94098 91.40601 226.57806 C 91.57429 231.62986 91.5919 234.25676 91.37099 235.59032 C 92.17535 235.55414 92.35673 236.97744 92.60132 241.6247 C 92.81163 245.41023 92.39101 249.30092 91.86524 250.4576 C 91.02402 251.92976 91.12917 252.56068 92.28586 253.08645 C 94.38893 253.82252 94.28378 256.87198 92.28586 256.87198 C 91.44463 256.87198 90.6034 257.7132 90.6034 258.6596 C 90.28794 262.65543 88.71064 250.6679 88.71064 244.04323 C 88.63143 239.76635 88.79085 237.816 89.54833 236.75435 C 88.42493 236.36262 88.09501 234.88472 87.97362 228.19005 C 87.68519 227.91533 87.55394 227.3548 87.55394 226.48257 C 87.55394 226.00863 87.69517 225.55235 87.93423 225.16435 C 87.93049 224.75784 87.92705 224.33708 87.92387 223.90158 C 87.92387 215.46234 88.33553 210.1175 89.15885 207.86704 C 89.45334 207.19622 89.73483 206.56984 89.96714 206.0762 C 89.75253 206.3032 89.47752 206.39822 89.13125 206.39822 C 88.29002 206.39822 87.55394 207.02915 87.44879 207.66007 C 87.34364 209.23737 85.66118 205.45184 85.55603 203.45392 C 85.45087 202.823 86.08179 202.19208 86.92302 202.19208 C 88.50033 202.19208 89.97248 199.35293 89.13125 197.98593 C 88.81579 197.46016 87.86941 197.24986 87.13333 197.56532 C 85.76633 198.09109 84.39934 190.0994 84.39934 181.58196 C 84.39934 179.58404 83.87357 178.00674 83.24264 178.00674 C 82.50657 178.00674 82.40142 180.95104 82.92718 186.9448 L 83.66326 195.98801 L 79.98288 199.35293 C 75.776735 203.24361 74.30458 206.60853 75.88189 209.23737 C 76.82827 210.81468 76.93343 210.60437 77.03858 207.76522 C 77.03858 205.34669 77.87981 203.87454 80.08804 202.19208 C 81.77049 201.03539 83.45295 200.50962 83.76841 201.03539 C 84.08387 201.56116 84.50449 208.08068 84.7148 215.44144 C 84.9251 228.6908 84.9251 229.00626 82.40142 230.16295 C 79.35196 231.74026 78.09012 233.52787 78.19527 236.36702 C 78.19527 238.36494 78.30042 238.36494 79.35196 236.1567 C 80.50865 233.73817 85.34572 232.26602 85.97664 234.1588 C 86.18695 234.7897 86.81787 243.09685 87.44879 252.66583 C 88.07971 262.2348 88.92094 274.22233 89.2364 279.37486 C 89.65702 285.36862 90.49825 289.36446 91.44463 290.31084 C 93.12709 291.9933 93.12709 291.9933 94.80955 288.6284 C 96.492 285.47377 95.33532 284.21193 93.44255 286.94592 C 91.9704 288.8387 91.86524 288.8387 91.33948 286.315 C 90.70855 283.05524 89.76217 259.81628 90.39309 262.44512 C 90.70855 263.49666 91.54978 264.12758 92.28586 263.91727 C 93.65286 263.28635 94.9147 270.0162 94.9147 278.11302 C 94.9147 280.32124 95.33532 282.10886 95.75593 282.10886 C 97.12293 282.10886 98.91054 273.3811 98.38477 269.17496 C 98.06931 266.75642 98.27962 265.28427 99.01569 265.28427 C 99.64662 265.28427 100.17238 265.59973 100.27754 266.02035 C 100.27754 266.5461 100.593 270.12134 100.8033 274.22233 C 101.32907 282.9501 102.90638 284.7377 108.58468 283.581 C 110.5826 283.05524 114.68359 282.63462 117.52274 282.52947 C 123.09588 282.31916 124.56803 282.0037 143.28538 276.85117 C 153.80075 274.01202 156.6399 273.5914 165.05219 274.01202 C 171.67687 274.3275 175.56755 274.9584 177.35517 276.22025 C 178.82732 277.16663 180.72008 277.9027 181.66647 277.9027 C 184.19015 277.9027 183.55923 275.79964 180.61493 274.7481 C 178.23234 273.8258 177.47885 272.0047 178.51871 271.0914 L 178.51872 271.0914 C 178.98108 271.40346 179.40588 271.62798 179.78821 271.75542 C 187.8188 274.4323 183.35737 262.83254 186.92652 262.83254 C 190.49568 262.83254 188.7111 250.3405 189.60339 246.77134 C 190.49568 243.20218 188.7111 225.3564 189.60339 220.89496 C 190.49568 216.43352 187.8188 204.83377 186.92652 195.0186 C 186.03423 185.20341 187.8188 182.52655 189.60339 178.9574 C 190.88094 176.4023 191.2439 173.3899 190.36494 171.22968 C 191.07282 170.99943 191.39682 170.23426 190.92 169.06868 C 190.60453 168.01714 188.92207 167.49137 186.29323 167.49137 C 183.34893 167.49137 182.19224 167.07076 182.19224 165.91407 C 182.19224 164.75738 181.45616 164.44192 179.66855 164.96768 C 178.30155 165.28314 176.8294 165.07284 176.51394 164.44192 C 176.09332 163.811 176.51394 163.28523 177.67063 163.28523 C 178.72216 163.28523 177.88094 162.444 175.4624 161.077 C 172.09748 159.28939 169.15318 158.86877 155.58836 158.55331 C 138.13285 158.23785 135.50401 158.343 122.3598 160.76154 C 116.15574 161.91823 110.7929 162.12853 103.74761 161.60277 L 93.86316 160.8667 L 93.86316 166.65014 C 93.86316 169.80475 94.49409 178.74281 95.33532 186.52418 C 98.59508 216.70328 99.12085 225.43104 99.01569 242.9917 C 98.80539 259.2905 98.17446 263.6018 96.2817 261.70905 C 95.65078 261.07813 94.38893 242.0453 93.23224 217.96513 C 91.76009 185.26234 90.49825 171.69752 88.92094 171.69752 C 87.86941 171.69752 87.55394 172.32844 87.97456 173.48513 C 89.55186 177.48097 89.97248 184.52626 88.71064 185.26234 C 87.23848 186.20872 86.60756 191.57156 88.07971 191.57156 C 89.65702 191.4664 90.6034 194.83132 90.6034 200.82508 C 90.65674 203.012 90.60185 204.41427 90.37012 205.26523 Z" fill="#f3f3f3"/>
        </g>
        <g id="Graphic_87">
          <path d="M 245.8102 161.2873 C 261.2678 163.39038 280.5109 163.60069 294.28603 161.60277 L 298.59733 160.97184 L 298.59733 220.2785 C 298.59733 254.45344 298.28187 280.00578 297.65095 280.74186 C 294.28603 284.948 243.2865 283.581 231.08869 278.95425 C 229.61653 278.32332 224.14854 277.79756 219.20632 277.6924 C 211.84557 277.58725 209.42703 277.16663 207.0085 275.37902 C 204.58996 273.80172 202.17143 273.27595 196.70344 273.27595 C 189.9736 273.27595 187.55507 272.2244 191.1303 270.96257 C 193.23337 270.12134 193.12822 268.54403 190.92 266.1255 C 189.34268 264.3379 189.34268 264.23273 190.92 264.23273 C 191.97153 264.23273 192.7076 264.65335 192.7076 265.28427 C 192.7076 265.81004 193.44368 266.3358 194.39006 266.3358 C 195.54675 266.3358 195.75706 265.7049 195.33644 264.3379 C 195.02098 263.1812 195.12613 262.0245 195.6519 261.70905 C 196.17767 261.3936 196.49313 255.9256 196.38798 249.51122 C 196.28283 243.09685 196.59829 237.62886 197.12405 237.3134 C 197.54467 236.99794 197.75498 236.26186 197.33436 235.7361 C 196.8086 234.7897 195.75706 219.01666 195.75706 212.18168 C 195.75706 211.02498 195.75706 206.29307 195.75706 201.77146 C 195.8622 197.1447 195.4416 192.93856 194.91583 192.30763 C 194.39006 191.67671 194.17975 188.7324 194.49521 185.89326 C 194.81067 182.94896 195.12613 177.79643 195.2313 174.32636 C 195.33644 168.96352 195.6519 168.01714 197.43952 167.70168 C 198.5962 167.38622 199.9632 166.65014 200.59412 165.91407 C 202.06628 164.12645 219.52178 159.81515 227.93408 159.18423 C 229.19592 159.18423 237.1876 160.02546 245.8102 161.2873 Z" fill="#f3f3f3"/>
        </g>
        <g id="Graphic_86">
          <path d="M 51.17078 170.96144 C 52.11716 172.53875 51.906855 173.16967 49.80378 174.74697 C 47.38525 176.63974 43.91518 176.63974 42.86364 174.74697 C 42.54818 174.32636 42.54818 172.6439 42.968795 171.17175 C 43.494563 168.85837 44.125485 168.43775 46.85948 168.75322 C 48.54194 168.96352 50.53986 169.9099 51.17078 170.96144 Z" fill="#f3f3f3"/>
        </g>
        <g id="Graphic_85">
          <path d="M 304.27563 186.20872 C 304.17048 196.51378 304.48594 202.29723 305.222 202.71785 C 305.9581 203.13846 305.9581 203.87454 305.43232 204.6106 C 304.06532 206.39822 304.17048 263.3915 305.43232 264.9688 C 306.1684 265.9152 306.1684 266.86158 305.222 267.9131 C 304.3808 268.96465 304.06532 271.5935 304.3808 275.27387 C 304.69624 278.53363 304.48594 280.74186 304.06532 280.32124 C 303.6447 279.90063 303.2241 262.2348 303.11894 241.09893 C 302.90863 186.7345 303.0138 169.17383 303.74986 169.9099 C 304.06532 170.22537 304.27563 177.58612 304.27563 186.20872 Z" fill="#f3f3f3"/>
        </g>
        <g id="Graphic_84">
          <path d="M 311.1106 171.2769 C 310.79516 172.22329 310.37454 197.1447 310.2694 226.69288 C 310.2694 256.3462 309.95393 279.0594 309.74362 277.37694 C 309.5333 275.58933 309.323 250.6679 309.1127 221.8558 C 308.9024 178.42735 309.1127 169.59444 310.37454 169.59444 C 311.21577 169.59444 311.53123 170.22537 311.1106 171.2769 Z" fill="#f3f3f3"/>
        </g>
        <g id="Graphic_83">
          <path d="M 321.626 192.8334 C 321.94144 204.08484 322.15175 215.86205 322.0466 219.01666 C 321.94144 222.17127 321.8363 237.94432 321.626 253.92768 C 321.52083 270.0162 321.1002 283.47585 320.6796 283.7913 C 319.94352 284.5274 319.5229 241.09893 319.7332 194.30555 C 319.83837 169.06868 319.7332 171.17175 320.4693 171.90782 C 320.78475 172.22329 321.31052 181.68711 321.626 192.8334 Z" fill="#f3f3f3"/>
        </g>
        <g id="Graphic_82">
          <path d="M 69.67782 176.85005 C 69.67782 178.00674 63.47376 178.95312 62.73768 177.90158 C 62.527375 177.48097 62.94799 176.85005 63.57891 176.63974 C 65.89229 175.69336 69.67782 175.7985 69.67782 176.85005 Z" fill="#f3f3f3"/>
        </g>
        <g id="Graphic_81">
          <path d="M 181.56131 177.48097 C 182.718 178.3222 183.24377 179.37373 182.82316 179.79435 C 182.5077 180.21496 181.1407 179.47889 179.87885 178.21704 C 177.25001 175.5882 178.51186 175.16759 181.56131 177.48097 Z" fill="#f3f3f3"/>
        </g>
        <g id="Graphic_80">
          <path d="M 189.13238 180.95104 C 188.29115 181.89742 187.2396 182.31804 186.819 182.00258 C 186.50354 181.58196 187.13446 180.42527 188.186 179.37373 C 189.23753 178.3222 190.28907 177.79643 190.49937 178.3222 C 190.70968 178.84797 190.07876 180.00466 189.13238 180.95104 Z" fill="#f3f3f3"/>
        </g>
        <g id="Graphic_79">
          <path d="M 315.84253 237.41855 C 315.84253 267.2822 315.52707 292.09845 315.2116 292.4139 C 314.5807 293.15 314.5807 293.67576 314.5807 238.99586 C 314.5807 182.73865 314.5807 181.79227 315.2116 182.4232 C 315.52707 182.73865 315.73738 207.44976 315.84253 237.41855 Z" fill="#f3f3f3"/>
        </g>
        <g id="Graphic_78">
          <path d="M 52.11716 191.88702 C 53.79962 194.4107 51.38109 199.03747 48.54194 199.03747 C 45.913097 199.03747 42.337873 196.19832 42.337873 194.2004 C 42.337873 192.30763 46.64917 189.46849 49.067707 189.78395 C 50.119243 189.99425 51.591394 190.94064 52.11716 191.88702 Z" fill="#f3f3f3"/>
        </g>
        <g id="Graphic_77">
          <path d="M 75.88189 196.30347 C 74.93551 197.1447 74.83035 197.03955 75.35612 195.5674 C 75.67158 194.51586 76.0922 192.6231 76.0922 191.36125 C 76.3025 189.6788 76.40766 189.8891 76.72312 192.09733 C 77.03858 193.77979 76.617965 195.67255 75.88189 196.30347 Z" fill="#f3f3f3"/>
        </g>
        <g id="Graphic_76">
          <path d="M 67.89021 196.61893 C 73.88397 197.24986 74.30458 198.5117 68.73144 199.45808 C 65.78714 199.8787 63.684065 199.56324 61.370684 198.19624 C 57.58515 196.09317 57.059385 194.2004 60.529455 195.3571 C 61.7913 195.7777 65.05106 196.40863 67.89021 196.61893 Z" fill="#f3f3f3"/>
        </g>
        <g id="Graphic_75">
          <path d="M 48.64709 203.24361 C 48.64709 203.76938 48.22648 204.29515 47.595556 204.29515 C 47.06979 204.29515 46.54402 203.76938 46.54402 203.24361 C 46.54402 202.6127 47.06979 202.19208 47.595556 202.19208 C 48.22648 202.19208 48.64709 202.6127 48.64709 203.24361 Z" fill="#f3f3f3"/>
        </g>
        <g id="Graphic_74">
          <path d="M 184.2953 205.45184 C 184.2953 205.9776 183.8747 206.39822 183.24377 206.39822 C 182.718 206.39822 182.19224 205.66215 182.19224 204.71577 C 182.19224 203.87454 182.718 203.45392 183.24377 203.76938 C 183.8747 204.08484 184.2953 204.82092 184.2953 205.45184 Z" fill="#f3f3f3"/>
        </g>
        <g id="Graphic_73">
          <path d="M 187.2396 210.39406 C 187.55507 211.34045 186.92415 211.76106 185.2417 211.4456 C 183.97985 211.34045 182.718 210.49922 182.40254 209.76314 C 182.08708 208.81676 182.718 208.39614 184.40046 208.7116 C 185.6623 208.81676 186.92415 209.65799 187.2396 210.39406 Z" fill="#f3f3f3"/>
        </g>
        <g id="Graphic_72">
          <path d="M 50.53986 214.49506 C 51.17078 215.44144 51.8017 216.80844 51.8017 217.5445 C 51.8017 219.01666 47.805863 222.17127 46.01825 222.17127 C 44.02033 222.17127 42.23272 217.85997 42.86364 214.6002 C 43.494563 211.86621 43.91518 211.55075 46.33371 212.18168 C 47.911017 212.49714 49.80378 213.54867 50.53986 214.49506 Z" fill="#f3f3f3"/>
        </g>
        <g id="Graphic_71">
          <path d="M 183.76954 214.81052 C 184.19015 215.44144 183.03346 215.86205 181.24585 215.86205 C 179.45824 215.86205 177.98609 215.33628 177.98609 214.81052 C 177.98609 214.1796 179.14278 213.75898 180.50978 213.75898 C 181.98193 213.75898 183.45408 214.1796 183.76954 214.81052 Z" fill="#f3f3f3"/>
        </g>
        <g id="Graphic_70">
          <path d="M 78.931345 220.38366 C 79.66742 222.48673 79.77257 225.01042 79.35196 226.9032 L 78.51073 230.0578 L 77.56435 226.37742 C 75.56643 217.64967 76.51281 213.54867 78.931345 220.38366 Z" fill="#f3f3f3"/>
        </g>
        <g id="Graphic_69">
          <path d="M 69.152055 221.01458 C 71.465435 221.33004 73.25305 222.06612 73.04274 222.69704 C 72.72728 223.85373 62.527375 223.95888 59.688226 222.8022 C 56.84908 221.75066 59.79338 218.7012 62.73768 219.75274 C 63.999526 220.0682 66.838675 220.69912 69.152055 221.01458 Z" fill="#f3f3f3"/>
        </g>
        <g id="Graphic_68">
          <path d="M 184.2953 220.0682 C 184.2953 220.59397 185.87261 221.11974 187.76538 221.2249 L 191.1303 221.33004 L 187.97569 222.27643 C 185.97777 222.8022 184.71592 222.8022 184.50562 222.17127 C 184.2953 221.54035 183.24377 221.11974 182.19224 221.11974 C 181.1407 221.11974 179.87885 220.59397 179.5634 220.0682 C 179.14278 219.43728 180.08916 219.01666 181.56131 219.01666 C 183.03346 219.01666 184.2953 219.43728 184.2953 220.0682 Z" fill="#f3f3f3"/>
        </g>
        <g id="Graphic_67">
          <path d="M 52.95839 238.15463 C 55.48208 241.20408 55.48208 242.46593 52.85324 244.7793 C 51.065626 246.3566 50.32955 246.46177 47.70071 245.30508 C 43.494563 243.62262 42.968795 241.4144 46.01825 238.36494 C 49.17286 235.21033 50.434704 235.21033 52.95839 238.15463 Z" fill="#f3f3f3"/>
        </g>
        <g id="Graphic_66">
          <path d="M 187.0293 236.99794 C 188.186 238.8907 185.6623 240.57316 183.76954 238.99586 C 182.9283 238.25978 182.19224 237.3134 182.19224 236.78763 C 182.19224 235.42063 186.18807 235.63094 187.0293 236.99794 Z" fill="#f3f3f3"/>
        </g>
        <g id="Graphic_65">
          <path d="M 79.98288 242.7814 C 79.77257 243.93808 78.931345 244.7793 78.09012 244.7793 C 77.24889 244.88446 74.620045 245.41023 72.20151 246.1463 C 68.83659 247.0927 67.04898 247.0927 64.10468 246.04115 C 57.900614 243.93808 59.58307 242.67624 68.62629 242.67624 C 75.98704 242.7814 77.14373 242.46593 77.6695 240.78347 C 78.51073 238.25978 80.50865 240.0474 79.98288 242.7814 Z" fill="#f3f3f3"/>
        </g>
        <g id="Graphic_64">
          <path d="M 189.7633 245.19992 C 192.28699 247.19784 190.39422 249.40607 186.819 248.67 C 184.61077 248.24938 184.19015 247.7236 184.82108 245.62054 C 185.2417 243.93808 185.03138 243.30716 184.2953 243.72777 C 183.13862 244.46385 182.82316 242.88654 183.97985 241.835 C 184.61077 241.09893 185.76746 241.835 189.7633 245.19992 Z" fill="#f3f3f3"/>
        </g>
        <g id="Graphic_63">
          <path d="M 81.56019 255.18952 C 81.24473 256.55652 81.56019 260.2369 82.19111 263.28635 C 83.45295 269.2801 83.13749 270.4368 80.82411 268.54403 C 79.77257 267.7028 79.35196 265.49458 79.56227 261.8142 C 79.66742 258.76474 79.45711 255.50498 78.931345 254.45344 C 77.6695 252.0349 78.82619 250.037 80.6138 251.6143 C 81.34988 252.14006 81.77049 253.82252 81.56019 255.18952 Z" fill="#f3f3f3"/>
        </g>
        <g id="Graphic_62">
          <path d="M 193.23337 255.82044 C 193.54883 256.3462 193.12822 256.87198 192.28699 256.87198 C 191.3406 256.87198 190.60453 256.3462 190.60453 255.82044 C 190.60453 255.18952 191.02514 254.7689 191.5509 254.7689 C 192.18183 254.7689 192.9179 255.18952 193.23337 255.82044 Z" fill="#f3f3f3"/>
        </g>
        <g id="Graphic_61">
          <path d="M 54.43054 262.76058 C 55.376926 263.70697 56.00785 265.17912 55.79754 266.1255 C 55.48208 268.01827 50.32955 270.0162 48.121324 269.0698 C 45.913097 268.33373 46.123404 264.23273 48.436785 262.55028 C 50.85532 260.6575 52.32747 260.76266 54.43054 262.76058 Z" fill="#f3f3f3"/>
        </g>
        <g id="Graphic_60">
          <path d="M 52.85324 272.64503 C 52.85324 273.1708 52.32747 273.69656 51.69655 273.69656 C 51.17078 273.69656 50.96047 273.1708 51.275934 272.64503 C 51.591394 272.0141 52.11716 271.5935 52.432624 271.5935 C 52.64293 271.5935 52.85324 272.0141 52.85324 272.64503 Z" fill="#f3f3f3"/>
        </g>
        <g id="Graphic_59">
          <path d="M 84.9251 280.847 C 84.9251 282.73978 82.82203 282.42432 82.50657 280.4264 C 82.19111 279.37486 82.61172 278.8491 83.55811 279.16455 C 84.29418 279.48 84.9251 280.2161 84.9251 280.847 Z" fill="#f3f3f3"/>
        </g>
        <g id="Graphic_58">
          <path d="M 159.05843 282.10886 C 160.21512 282.10886 161.1615 282.52947 161.1615 283.1604 C 161.1615 283.68616 159.47905 284.21193 157.37597 284.21193 C 154.85228 284.21193 153.80075 284.63254 154.1162 285.47377 C 154.32652 286.42016 156.00897 286.73562 158.74297 286.5253 C 162.94912 286.20985 165.4728 287.682 163.6852 289.4696 C 162.7388 290.31084 149.27914 291.5727 150.12037 290.6263 C 150.9616 289.89023 145.073 286.63046 141.39262 285.78923 C 137.08132 284.84285 137.08132 283.581 141.39262 282.9501 C 143.60084 282.63462 145.91422 283.05524 148.0173 284.3171 C 151.80283 286.73562 152.74921 286.84077 152.74921 284.84285 C 152.74921 284.10678 151.1719 283.05524 149.3843 282.73978 C 146.12453 282.10886 146.01938 281.89855 147.80699 280.53155 C 149.48945 279.37486 150.33068 279.37486 153.27498 280.6367 C 155.2729 281.47793 157.90174 282.10886 159.05843 282.10886 Z" fill="#f3f3f3"/>
        </g>
        <g id="Graphic_57">
          <path d="M 205.95696 282.9501 C 205.6415 283.1604 204.4848 283.05524 203.22297 282.63462 C 201.43535 282.0037 201.22505 281.68824 202.27658 280.32124 C 203.43327 278.95425 203.74873 278.95425 205.01058 280.6367 C 205.74665 281.68824 206.16727 282.63462 205.95696 282.9501 Z" fill="#f3f3f3"/>
        </g>
        <g id="Graphic_56">
          <path d="M 55.376926 282.42432 C 57.79546 284.21193 57.26969 288.73354 54.64085 289.2593 C 48.436785 290.416 45.282175 285.99954 49.908936 282.73978 C 52.748085 280.74186 52.95839 280.74186 55.376926 282.42432 Z" fill="#f3f3f3"/>
        </g>
        <g id="Graphic_55">
          <path d="M 170.41503 285.26347 C 171.57172 287.57685 172.09748 289.67992 171.67687 289.99538 C 170.30987 290.8366 167.36557 289.36446 167.78618 287.99746 C 167.9965 287.36654 167.0501 285.99954 165.57796 284.84285 C 163.6852 283.26555 163.36973 282.63462 164.52642 282.0037 C 167.0501 280.32124 168.31195 281.05732 170.41503 285.26347 Z" fill="#f3f3f3"/>
        </g>
        <g id="Graphic_54">
          <path d="M 74.40974 287.36654 C 74.09428 287.8923 71.465435 288.20777 68.52113 288.20777 C 62.527375 287.99746 62.94799 286.63046 69.152055 286.1047 C 73.88397 285.68408 75.25097 285.99954 74.40974 287.36654 Z" fill="#f3f3f3"/>
        </g>
        <g id="Graphic_53">
          <path d="M 189.13238 288.94384 C 187.55507 290.6263 186.39838 291.46753 186.39838 291.0469 C 186.39838 289.89023 190.81483 285.1583 191.3406 285.68408 C 191.5509 285.8944 190.60453 287.36654 189.13238 288.94384 Z" fill="#f3f3f3"/>
        </g>
        <g id="Graphic_52">
          <path d="M 202.27658 286.315 C 202.80235 286.315 203.22297 287.05108 203.22297 287.8923 C 203.22297 290.10053 201.75082 289.89023 199.43743 287.15623 C 197.54467 285.05316 197.54467 284.948 199.33228 285.57893 C 200.38382 285.99954 201.75082 286.315 202.27658 286.315 Z" fill="#f3f3f3"/>
        </g>
        <g id="Graphic_51">
          <path d="M 125.19895 287.2614 C 126.14534 287.78715 127.93295 288.6284 129.08964 289.049 L 131.19271 289.78507 L 129.08964 290.31084 C 127.93295 290.52115 126.04018 291.46753 124.8835 292.2036 C 123.7268 293.04484 122.04434 293.67576 120.99281 293.67576 C 120.04642 293.67576 118.78458 294.30668 118.36397 295.1479 C 117.73304 296.3046 116.26089 296.40975 111.21352 295.67368 C 101.53938 294.20153 100.17238 293.7809 100.17238 292.09845 C 100.17238 290.10053 101.64453 290.10053 103.32699 292.2036 C 104.37853 293.3603 105.74553 293.67576 109.00529 293.15 C 111.42382 292.72938 113.7372 291.9933 114.36813 291.46753 C 114.8939 290.94176 117.10212 290.52115 119.4155 290.52115 C 121.83404 290.52115 123.20103 290.10053 122.78042 289.4696 C 121.83404 287.99746 114.57843 288.1026 113.00113 289.67992 C 111.31867 291.36238 104.58884 290.94176 102.69607 289.049 C 101.32907 287.682 102.06515 287.36654 109.32075 287.05108 C 113.84236 286.94592 118.78458 286.63046 120.46704 286.5253 C 122.04434 286.42016 124.14742 286.73562 125.19895 287.2614 Z" fill="#f3f3f3"/>
        </g>
        <g id="Graphic_50">
          <path d="M 140.02562 291.15207 C 138.238 293.3603 137.29162 292.9397 136.76586 289.57477 C 136.34524 286.63046 136.34524 286.5253 138.76378 288.1026 C 140.65654 289.36446 140.972 290.10053 140.02562 291.15207 Z" fill="#f3f3f3"/>
        </g>
        <g id="Graphic_49">
          <path d="M 135.39886 292.62422 C 135.0834 293.15 134.03186 293.67576 133.19063 293.67576 C 132.3494 293.67576 131.71848 293.15 131.71848 292.62422 C 131.71848 291.9933 132.66486 291.5727 133.9267 291.5727 C 135.0834 291.5727 135.71432 291.9933 135.39886 292.62422 Z" fill="#f3f3f3"/>
        </g>
        <g id="Graphic_48">
          <path d="M 230.56292 293.67576 C 230.56292 294.20153 230.1423 294.7273 229.51138 294.7273 C 228.9856 294.7273 228.45984 294.20153 228.45984 293.67576 C 228.45984 293.04484 228.9856 292.62422 229.51138 292.62422 C 230.1423 292.62422 230.56292 293.04484 230.56292 293.67576 Z" fill="#f3f3f3"/>
        </g>
        <g id="Graphic_47">
          <path d="M 261.58325 293.67576 C 261.8987 294.20153 261.6884 294.7273 261.16263 294.7273 C 260.5317 294.7273 260.00594 294.20153 260.00594 293.67576 C 260.00594 293.04484 260.21625 292.62422 260.42656 292.62422 C 260.74202 292.62422 261.2678 293.04484 261.58325 293.67576 Z" fill="#f3f3f3"/>
        </g>
        <g id="Graphic_46">
          <path d="M 53.904775 294.7273 C 53.904775 295.25306 52.95839 295.77883 51.8017 295.77883 C 50.64501 295.77883 49.69863 295.25306 49.69863 294.7273 C 49.69863 294.09637 50.64501 293.67576 51.8017 293.67576 C 52.95839 293.67576 53.904775 294.09637 53.904775 294.7273 Z" fill="#f3f3f3"/>
        </g>
        <g id="Graphic_45">
          <path d="M 130.14118 294.7273 C 129.82571 295.25306 128.77418 295.77883 127.93295 295.77883 C 127.09172 295.77883 126.4608 295.25306 126.4608 294.7273 C 126.4608 294.09637 127.40718 293.67576 128.66902 293.67576 C 129.82571 293.67576 130.45664 294.09637 130.14118 294.7273 Z" fill="#f3f3f3"/>
        </g>
        <g id="Graphic_44">
          <path d="M 172.7284 294.7273 C 173.56964 295.25306 173.99025 295.98914 173.56964 296.3046 C 172.5181 297.35614 168.4171 295.77883 169.04803 294.62214 C 169.88926 293.46545 170.73049 293.46545 172.7284 294.7273 Z" fill="#f3f3f3"/>
        </g>
        <g id="Graphic_43">
          <path d="M 124.8835 296.83037 C 124.56803 297.35614 123.20103 297.8819 121.93919 297.8819 C 120.04642 297.8819 119.94127 297.6716 121.20311 296.83037 C 123.30619 295.46337 125.72472 295.46337 124.8835 296.83037 Z" fill="#f3f3f3"/>
        </g>
        <g id="Graphic_42">
          <path d="M 133.82155 296.83037 C 133.82155 297.35614 133.40094 297.8819 132.77002 297.8819 C 132.24425 297.8819 131.71848 297.35614 131.71848 296.83037 C 131.71848 296.19945 132.24425 295.77883 132.77002 295.77883 C 133.40094 295.77883 133.82155 296.19945 133.82155 296.83037 Z" fill="#f3f3f3"/>
        </g>
        <g id="Graphic_41">
          <path d="M 156.6399 296.5149 C 156.21928 296.83037 153.9059 297.56644 151.48737 297.98706 C 148.96368 298.40767 145.59876 299.14375 143.9163 299.56436 C 141.70808 300.09013 141.07716 299.98498 141.60292 299.0386 C 142.02354 298.40767 143.39054 297.8819 144.65238 297.8819 C 145.91422 297.8819 147.70184 297.35614 148.54307 296.83037 C 150.33068 295.67368 157.69143 295.3582 156.6399 296.5149 Z" fill="#f3f3f3"/>
        </g>
        <g id="Graphic_40">
          <path d="M 108.90014 297.8819 C 115.41966 297.8819 117.10212 298.19737 116.15574 299.14375 C 115.52482 299.77467 112.26505 300.51075 109.00529 300.8262 C 102.69607 301.35198 103.11669 303.03443 109.63621 303.1396 C 113.21144 303.24474 113.21144 303.24474 111.21352 304.82205 C 107.53314 307.76635 89.65702 304.61174 89.65702 301.0365 C 89.65702 299.35406 91.65494 298.8283 92.49617 300.4056 C 93.44255 302.1932 100.48784 303.1396 101.22392 301.5623 C 101.53938 300.93136 100.17238 300.4056 98.38477 300.1953 C 94.9147 299.87982 93.86316 298.51283 96.2817 297.56644 C 96.91262 297.251 98.17446 297.14583 98.91054 297.4613 C 99.75177 297.6716 104.16822 297.8819 108.90014 297.8819 Z" fill="#f3f3f3"/>
        </g>
        <g id="Graphic_39">
          <path d="M 227.51346 300.30044 C 226.14646 301.66744 224.77947 300.6159 225.831 299.0386 C 226.14646 298.40767 226.9877 298.19737 227.61861 298.51283 C 228.24954 298.93344 228.24954 299.56436 227.51346 300.30044 Z" fill="#f3f3f3"/>
        </g>
        <g id="Graphic_38">
          <path d="M 235.29483 299.98498 C 235.6103 300.51075 235.39999 301.0365 234.87422 301.0365 C 234.2433 301.0365 233.71753 300.51075 233.71753 299.98498 C 233.71753 299.35406 233.92783 298.93344 234.13814 298.93344 C 234.4536 298.93344 234.97937 299.35406 235.29483 299.98498 Z" fill="#f3f3f3"/>
        </g>
        <g id="Graphic_37">
          <path d="M 138.55347 301.0365 C 138.238 301.5623 136.97616 302.08805 135.81947 302.08805 C 134.66278 302.08805 134.03186 301.5623 134.34732 301.0365 C 134.66278 300.4056 135.92463 299.98498 137.08132 299.98498 C 138.238 299.98498 138.86893 300.4056 138.55347 301.0365 Z" fill="#f3f3f3"/>
        </g>
        <g id="Graphic_36">
          <path d="M 306.7993 301.0365 C 306.48386 301.5623 305.0117 302.08805 303.53955 302.08805 C 302.0674 302.08805 301.22617 301.66744 301.54163 301.0365 C 301.8571 300.4056 303.32925 299.98498 304.8014 299.98498 C 306.27355 299.98498 307.11478 300.4056 306.7993 301.0365 Z" fill="#f3f3f3"/>
        </g>
        <g id="Graphic_35">
          <path d="M 59.16246 303.03443 C 61.370684 307.34573 56.533616 310.92096 51.906855 308.39727 C 49.278014 307.03027 49.067707 305.55812 51.48624 302.92928 C 53.69447 300.4056 57.79546 300.51075 59.16246 303.03443 Z" fill="#f3f3f3"/>
        </g>
        <g id="Graphic_34">
          <path d="M 243.70712 302.08805 C 244.02258 302.61382 243.91743 303.1396 243.2865 303.1396 C 242.76074 303.1396 241.9195 302.61382 241.60405 302.08805 C 241.2886 301.45713 241.39374 301.0365 242.02467 301.0365 C 242.55043 301.0365 243.39166 301.45713 243.70712 302.08805 Z" fill="#f3f3f3"/>
        </g>
        <g id="Graphic_33">
          <path d="M 298.38703 302.08805 C 298.7025 302.61382 298.28187 303.1396 297.3355 303.1396 C 296.3891 303.1396 295.9685 302.61382 296.28395 302.08805 C 296.5994 301.45713 297.12518 301.0365 297.3355 301.0365 C 297.5458 301.0365 298.07156 301.45713 298.38703 302.08805 Z" fill="#f3f3f3"/>
        </g>
        <g id="Graphic_32">
          <path d="M 79.45711 303.87566 C 81.03442 305.45297 77.56435 307.34573 73.04274 307.34573 C 67.89021 307.34573 67.89021 306.5045 73.14789 304.61174 C 77.24889 303.1396 78.61588 302.92928 79.45711 303.87566 Z" fill="#f3f3f3"/>
        </g>
        <g id="Graphic_31">
          <path d="M 130.87725 304.40143 C 129.93087 305.3478 129.29995 305.3478 128.35356 304.40143 C 127.40718 303.45505 127.61749 303.1396 129.6154 303.1396 C 131.61333 303.1396 131.82363 303.45505 130.87725 304.40143 Z" fill="#f3f3f3"/>
        </g>
        <g id="Graphic_30">
          <path d="M 286.71497 304.08597 C 287.45104 305.24266 282.61398 306.18904 280.93152 305.1375 C 280.0903 304.61174 280.5109 304.19112 282.19336 303.87566 C 283.56036 303.66536 285.0325 303.3499 285.45313 303.24474 C 285.87374 303.24474 286.3995 303.5602 286.71497 304.08597 Z" fill="#f3f3f3"/>
        </g>
        <g id="Graphic_29">
          <path d="M 123.83196 306.2942 C 123.5165 306.81997 122.67527 307.34573 122.1495 307.34573 C 121.51858 307.34573 121.41342 306.81997 121.72888 306.2942 C 122.04434 305.66328 122.88557 305.24266 123.41134 305.24266 C 124.04226 305.24266 124.14742 305.66328 123.83196 306.2942 Z" fill="#f3f3f3"/>
        </g>
        <g id="Graphic_28">
          <path d="M 102.80122 311.34157 C 96.2817 311.65703 91.76009 311.0261 91.76009 309.6591 C 91.76009 309.2385 95.65078 309.34365 100.48784 309.97458 L 109.11044 311.0261 L 102.80122 311.34157 Z" fill="#f3f3f3"/>
        </g>
        <g id="Graphic_27">
          <path d="M 115.62997 309.0282 C 115.31451 309.34365 114.36813 309.4488 113.63205 309.13335 C 112.79082 308.8179 113.10628 308.50242 114.26297 308.50242 C 115.41966 308.39727 116.05059 308.71273 115.62997 309.0282 Z" fill="#f3f3f3"/>
        </g>
        <g id="Graphic_26">
          <path d="M 151.69767 176.53459 C 151.69767 177.37581 150.9616 178.00674 150.12037 178.00674 C 148.54307 178.00674 147.91214 175.7985 149.17399 174.53667 C 150.22552 173.59028 151.69767 174.74697 151.69767 176.53459 Z" fill="#f3f3f3"/>
        </g>
        <g id="Graphic_25">
          <path d="M 125.93503 241.94016 C 125.93503 243.83293 123.83196 243.51746 123.5165 241.51955 C 123.20103 240.468 123.62165 239.94224 124.56803 240.2577 C 125.3041 240.57316 125.93503 241.30924 125.93503 241.94016 Z" fill="#f3f3f3"/>
        </g>
        <g id="Graphic_24">
          <path d="M 129.85546 299.66472 C 129.54 300.1905 128.48846 300.71626 127.64723 300.71626 C 126.806 300.71626 126.17508 300.1905 126.17508 299.66472 C 126.17508 299.0338 127.12146 298.6132 128.3833 298.6132 C 129.54 298.6132 130.17092 299.0338 129.85546 299.66472 Z" fill="#f3f3f3"/>
        </g>
        <g id="Graphic_23">
          <path d="M 124.59777 301.7678 C 124.28231 302.29356 123.23078 302.81933 122.38955 302.81933 C 121.54832 302.81933 120.9174 302.29356 120.9174 301.7678 C 120.9174 301.13687 121.86378 300.71626 123.12562 300.71626 C 124.28231 300.71626 124.91323 301.13687 124.59777 301.7678 Z" fill="#f3f3f3"/>
        </g>
        <g id="Graphic_22">
          <path d="M 119.34009 303.87087 C 119.02463 304.39664 117.65763 304.9224 116.39579 304.9224 C 114.50302 304.9224 114.39787 304.7121 115.65971 303.87087 C 117.76279 302.50387 120.18132 302.50387 119.34009 303.87087 Z" fill="#f3f3f3"/>
        </g>
        <g id="Graphic_21">
          <path d="M 154.40134 290.34085 C 154.08588 290.86662 152.82403 291.3924 151.66734 291.3924 C 150.51065 291.3924 149.87973 290.86662 150.19519 290.34085 C 150.51065 289.70993 151.7725 289.2893 152.92919 289.2893 C 154.08588 289.2893 154.7168 289.70993 154.40134 290.34085 Z" fill="#f3f3f3"/>
        </g>
        <g id="Graphic_20">
          <path d="M 146.72512 293.70577 C 145.77874 294.65215 145.14782 294.65215 144.20143 293.70577 C 143.25505 292.7594 143.46536 292.44392 145.46328 292.44392 C 147.4612 292.44392 147.6715 292.7594 146.72512 293.70577 Z" fill="#f3f3f3"/>
        </g>
        <g id="Graphic_19">
          <path d="M 139.67983 295.59853 C 139.36436 296.1243 138.52313 296.65007 137.99737 296.65007 C 137.36644 296.65007 137.26129 296.1243 137.57675 295.59853 C 137.89221 294.9676 138.73344 294.547 139.25921 294.547 C 139.89013 294.547 139.99529 294.9676 139.67983 295.59853 Z" fill="#f3f3f3"/>
        </g>
        <g id="Graphic_18">
          <path d="M 143.45764 282.2173 C 143.14218 282.74308 141.88034 283.26885 140.72365 283.26885 C 139.56696 283.26885 138.93603 282.74308 139.2515 282.2173 C 139.56696 281.5864 140.8288 281.16578 141.98549 281.16578 C 143.14218 281.16578 143.7731 281.5864 143.45764 282.2173 Z" fill="#f3f3f3"/>
        </g>
        <g id="Graphic_17">
          <path d="M 135.78142 285.58223 C 134.83504 286.5286 134.20412 286.5286 133.25774 285.58223 C 132.31135 284.63585 132.52166 284.3204 134.51958 284.3204 C 136.5175 284.3204 136.7278 284.63585 135.78142 285.58223 Z" fill="#f3f3f3"/>
        </g>
        <g id="Graphic_16">
          <path d="M 128.73613 287.475 C 128.42067 288.00076 127.57944 288.52653 127.05367 288.52653 C 126.42275 288.52653 126.3176 288.00076 126.63306 287.475 C 126.94852 286.84407 127.78975 286.42346 128.31551 286.42346 C 128.94644 286.42346 129.05159 286.84407 128.73613 287.475 Z" fill="#f3f3f3"/>
        </g>
        <g id="Graphic_15">
          <path d="M 220.52703 293.314 C 219.16003 294.681 217.79303 293.62947 218.84457 292.05216 C 219.16003 291.42124 220.00126 291.21093 220.63218 291.5264 C 221.2631 291.947 221.2631 292.57793 220.52703 293.314 Z" fill="#f3f3f3"/>
        </g>
        <g id="Graphic_14">
          <path d="M 228.3084 292.99855 C 228.62386 293.5243 228.41355 294.0501 227.88779 294.0501 C 227.25686 294.0501 226.7311 293.5243 226.7311 292.99855 C 226.7311 292.36762 226.9414 291.947 227.1517 291.947 C 227.46717 291.947 227.99294 292.36762 228.3084 292.99855 Z" fill="#f3f3f3"/>
        </g>
        <g id="Graphic_13">
          <path d="M 301.33168 294.6576 C 301.0162 295.18337 299.54406 295.70914 298.0719 295.70914 C 296.59976 295.70914 295.75853 295.28852 296.074 294.6576 C 296.38945 294.02668 297.8616 293.60606 299.33376 293.60606 C 300.8059 293.60606 301.64714 294.02668 301.33168 294.6576 Z" fill="#f3f3f3"/>
        </g>
        <g id="Graphic_12">
          <path d="M 236.7207 295.10162 C 237.03615 295.6274 236.931 296.15316 236.30008 296.15316 C 235.7743 296.15316 234.93308 295.6274 234.61762 295.10162 C 234.30216 294.4707 234.4073 294.0501 235.03823 294.0501 C 235.564 294.0501 236.40523 294.4707 236.7207 295.10162 Z" fill="#f3f3f3"/>
        </g>
        <g id="Graphic_11">
          <path d="M 292.9194 295.70914 C 293.23484 296.2349 292.81423 296.76067 291.86785 296.76067 C 290.92146 296.76067 290.50085 296.2349 290.8163 295.70914 C 291.13177 295.0782 291.65754 294.6576 291.86785 294.6576 C 292.07815 294.6576 292.60392 295.0782 292.9194 295.70914 Z" fill="#f3f3f3"/>
        </g>
        <g id="Graphic_10">
          <path d="M 281.24733 297.70705 C 281.9834 298.86375 277.14633 299.81013 275.46388 298.7586 C 274.62265 298.23282 275.04326 297.8122 276.72572 297.49675 C 278.09272 297.28644 279.56487 296.97098 279.9855 296.86583 C 280.4061 296.86583 280.93187 297.1813 281.24733 297.70705 Z" fill="#f3f3f3"/>
        </g>
        <g id="Graphic_9">
          <path d="M 217.64133 286.7832 C 216.27433 288.1502 214.90733 287.09867 215.95887 285.52137 C 216.27433 284.89045 217.11556 284.68014 217.74648 284.9956 C 218.3774 285.4162 218.3774 286.04714 217.64133 286.7832 Z" fill="#f3f3f3"/>
        </g>
        <g id="Graphic_8">
          <path d="M 225.4227 286.46775 C 225.73816 286.99352 225.52785 287.5193 225.00209 287.5193 C 224.37116 287.5193 223.8454 286.99352 223.8454 286.46775 C 223.8454 285.83683 224.0557 285.4162 224.266 285.4162 C 224.58147 285.4162 225.10724 285.83683 225.4227 286.46775 Z" fill="#f3f3f3"/>
        </g>
        <g id="Graphic_7">
          <path d="M 296.9272 287.5193 C 296.61173 288.04506 295.13957 288.57083 293.66742 288.57083 C 292.19527 288.57083 291.35404 288.1502 291.6695 287.5193 C 291.98496 286.88837 293.4571 286.46775 294.92927 286.46775 C 296.40142 286.46775 297.24265 286.88837 296.9272 287.5193 Z" fill="#f3f3f3"/>
        </g>
        <g id="Graphic_6">
          <path d="M 233.835 288.57083 C 234.15045 289.0966 234.0453 289.62236 233.41438 289.62236 C 232.8886 289.62236 232.04738 289.0966 231.73192 288.57083 C 231.41646 287.9399 231.5216 287.5193 232.15253 287.5193 C 232.6783 287.5193 233.51953 287.9399 233.835 288.57083 Z" fill="#f3f3f3"/>
        </g>
        <g id="Graphic_5">
          <path d="M 288.5149 288.57083 C 288.83035 289.0966 288.40974 289.62236 287.46336 289.62236 C 286.51697 289.62236 286.09636 289.0966 286.41182 288.57083 C 286.72728 287.9399 287.25305 287.5193 287.46336 287.5193 C 287.67366 287.5193 288.19943 287.9399 288.5149 288.57083 Z" fill="#f3f3f3"/>
        </g>
        <g id="Graphic_4">
          <path d="M 276.84284 290.56874 C 277.5789 291.72543 272.74185 292.67182 271.0594 291.62028 C 270.21816 291.0945 270.63877 290.6739 272.32123 290.35844 C 273.68823 290.14813 275.16038 289.83267 275.581 289.7275 C 276.0016 289.7275 276.52738 290.04298 276.84284 290.56874 Z" fill="#f3f3f3"/>
        </g>
      </g>
    </g>
  </g>
</svg>
