<?xml version="1.0" encoding="UTF-8"?>
<!DOCTYPE svg PUBLIC "-//W3C//DTD SVG 1.1//EN" "http://www.w3.org/Graphics/SVG/1.1/DTD/svg11.dtd">
<svg xmlns="http://www.w3.org/2000/svg" version="1.1" width="2208px" height="2048px" style="shape-rendering:geometricPrecision; text-rendering:geometricPrecision; image-rendering:optimizeQuality; fill-rule:evenodd; clip-rule:evenodd" xmlns:xlink="http://www.w3.org/1999/xlink">
<g><path style="opacity:0.989" fill="#020202" d="M 1883.5,794.5 C 1881.21,795.301 1881.54,795.968 1884.5,796.5C 1915.17,812.493 1944.17,830.993 1971.5,852C 1985.07,863.67 1996.9,876.836 2007,891.5C 2023.25,921.006 2016.41,943.172 1986.5,958C 1973.03,963.534 1959.03,966.867 1944.5,968C 1900.43,970.215 1857.1,965.548 1814.5,954C 1811.18,953.502 1807.85,953.335 1804.5,953.5C 1804.34,954.873 1804.51,956.207 1805,957.5C 1807,960.167 1809,962.833 1811,965.5C 1842.33,997.5 1873.67,1029.5 1905,1061.5C 1923.4,1082.24 1939.06,1104.91 1952,1129.5C 1977,1184.34 1959.5,1209.17 1899.5,1204C 1873.69,1200.4 1848.69,1193.73 1824.5,1184C 1790.05,1168.94 1755.72,1153.61 1721.5,1138C 1712.95,1133.76 1703.95,1131.26 1694.5,1130.5C 1694.5,1134.51 1695.67,1138.18 1698,1141.5C 1711.84,1159.01 1724.5,1177.34 1736,1196.5C 1742.78,1209.17 1747.78,1222.51 1751,1236.5C 1754.35,1273.49 1737.35,1291.49 1700,1290.5C 1681.55,1290.21 1663.72,1286.71 1646.5,1280C 1625.17,1271.5 1604.84,1261.17 1585.5,1249C 1560.14,1230.99 1535.14,1212.49 1510.5,1193.5C 1510.17,1194.17 1509.83,1194.83 1509.5,1195.5C 1514.5,1216.29 1516,1237.29 1514,1258.5C 1511.18,1268.66 1504.84,1275.66 1495,1279.5C 1482.91,1281.56 1470.75,1283.06 1458.5,1284C 1469.92,1294.75 1481.92,1304.75 1494.5,1314C 1509.6,1322.48 1525.6,1328.82 1542.5,1333C 1556.99,1338.47 1559.16,1346.97 1549,1358.5C 1541.98,1364.52 1535.31,1370.86 1529,1377.5C 1528.29,1379.97 1528.63,1382.3 1530,1384.5C 1560.03,1410.18 1592.53,1432.35 1627.5,1451C 1659.89,1465 1689.55,1460.66 1716.5,1438C 1729.5,1426.33 1742.5,1414.67 1755.5,1403C 1771.39,1392.55 1788.89,1388.05 1808,1389.5C 1833.84,1389.17 1857.34,1396.33 1878.5,1411C 1887.81,1418.63 1894.31,1428.13 1898,1439.5C 1899.27,1449.75 1898.27,1459.75 1895,1469.5C 1888.31,1481.06 1879.14,1483.56 1867.5,1477C 1858.38,1469.61 1851.54,1460.44 1847,1449.5C 1844.11,1446.92 1841.27,1447.08 1838.5,1450C 1831.1,1458.07 1823.1,1465.4 1814.5,1472C 1804.91,1475.83 1794.91,1477.83 1784.5,1478C 1772.12,1481.19 1760.78,1486.53 1750.5,1494C 1744.65,1498.43 1738.98,1503.09 1733.5,1508C 1750.82,1509.04 1768.15,1509.7 1785.5,1510C 1822.04,1511.68 1851.87,1526.52 1875,1554.5C 1892.09,1585.66 1886.59,1612.16 1858.5,1634C 1850.65,1639.82 1842.31,1640.82 1833.5,1637C 1832.54,1635.58 1831.71,1634.08 1831,1632.5C 1830.33,1627.83 1830.33,1623.17 1831,1618.5C 1833.66,1607.88 1834,1597.21 1832,1586.5C 1827.97,1583.02 1823.47,1582.52 1818.5,1585C 1809.02,1593.24 1799.35,1601.24 1789.5,1609C 1781.49,1614.06 1773.16,1614.73 1764.5,1611C 1752.53,1601.34 1739.86,1592.68 1726.5,1585C 1714.46,1579.19 1701.8,1576.86 1688.5,1578C 1687.07,1578.47 1685.9,1579.3 1685,1580.5C 1687.07,1593.66 1686.07,1606.66 1682,1619.5C 1673.82,1645.89 1665.49,1672.23 1657,1698.5C 1651.91,1711.87 1642.24,1718.87 1628,1719.5C 1617.52,1718.78 1607.35,1716.61 1597.5,1713C 1594.22,1710.71 1593.72,1707.88 1596,1704.5C 1602.5,1697.66 1607.84,1689.99 1612,1681.5C 1615.48,1667.93 1611.64,1656.76 1600.5,1648C 1589.17,1640.33 1577.83,1632.67 1566.5,1625C 1564.27,1622.44 1562.44,1619.6 1561,1616.5C 1560.33,1608.5 1560.33,1600.5 1561,1592.5C 1563.41,1579.59 1564.41,1566.59 1564,1553.5C 1563.5,1553 1563,1552.5 1562.5,1552C 1516.99,1561.86 1470.99,1569.03 1424.5,1573.5C 1415.46,1574.88 1408.3,1571.88 1403,1564.5C 1400.67,1559.5 1398.33,1554.5 1396,1549.5C 1391.78,1545.47 1387.78,1545.8 1384,1550.5C 1380.58,1556.01 1380.91,1561.35 1385,1566.5C 1389.13,1570.77 1391.63,1575.77 1392.5,1581.5C 1385.15,1583.16 1378.48,1581.66 1372.5,1577C 1357.63,1565.1 1346.8,1550.27 1340,1532.5C 1337.52,1510.67 1346.35,1495.5 1366.5,1487C 1387.21,1480.84 1408.21,1479.84 1429.5,1484C 1444.05,1487.22 1458.39,1490.89 1472.5,1495C 1460.47,1481.3 1447.47,1468.63 1433.5,1457C 1420.26,1449.25 1406.59,1442.25 1392.5,1436C 1380.5,1428.67 1368.5,1421.33 1356.5,1414C 1351.91,1412.14 1347.24,1410.47 1342.5,1409C 1324.83,1408.93 1307.17,1408.93 1289.5,1409C 1283.73,1408.04 1279.23,1405.2 1276,1400.5C 1275.33,1398.17 1275.33,1395.83 1276,1393.5C 1280.4,1387.43 1284.4,1381.1 1288,1374.5C 1292.63,1356.18 1288.13,1340.35 1274.5,1327C 1265.74,1321.4 1256.74,1321.07 1247.5,1326C 1245.62,1328.25 1244.12,1330.75 1243,1333.5C 1239.99,1353.53 1241.66,1373.2 1248,1392.5C 1258.42,1425.77 1270.42,1458.44 1284,1490.5C 1330.13,1622.93 1352.13,1759.27 1350,1899.5C 1349.13,1919.09 1346.47,1938.42 1342,1957.5C 1339.42,1970.16 1333.59,1980.99 1324.5,1990C 1319.64,1993.05 1314.31,1994.55 1308.5,1994.5C 1294.64,1994.05 1282.3,1989.55 1271.5,1981C 1266.46,1975.62 1261.79,1969.96 1257.5,1964C 1256.17,1963.33 1254.83,1963.33 1253.5,1964C 1250.73,1966.38 1248.56,1969.22 1247,1972.5C 1239.85,1988.16 1231.18,2002.82 1221,2016.5C 1208.83,2029.72 1195.67,2030.89 1181.5,2020C 1174.48,2012.12 1168.31,2003.62 1163,1994.5C 1160.8,1991.45 1157.97,1989.45 1154.5,1988.5C 1152.21,1988.62 1150.21,1989.46 1148.5,1991C 1141.12,1997.38 1133.45,2003.38 1125.5,2009C 1118,2012.52 1110.67,2012.18 1103.5,2008C 1095.65,2001.91 1087.98,1995.57 1080.5,1989C 1076.21,1987.8 1072.71,1988.97 1070,1992.5C 1063.32,2003.52 1055.48,2013.69 1046.5,2023C 1036.25,2029.26 1026.25,2028.93 1016.5,2022C 1011.97,2017.8 1007.8,2013.3 1004,2008.5C 996.213,1993.76 988.047,1979.26 979.5,1965C 977.635,1963.7 975.635,1963.37 973.5,1964C 960.527,1985.32 941.527,1995.32 916.5,1994C 905.362,1990.29 897.862,1982.79 894,1971.5C 887.097,1951.75 883.097,1931.42 882,1910.5C 878.111,1768.72 899.111,1630.72 945,1496.5C 954.863,1471.91 964.529,1447.25 974,1422.5C 982.898,1398.74 988.398,1374.24 990.5,1349C 990.942,1341.2 989.109,1334.03 985,1327.5C 972.977,1319.84 961.977,1321.17 952,1331.5C 937.099,1352.74 938.099,1373.07 955,1392.5C 956.023,1402.83 951.19,1408.33 940.5,1409C 923.501,1408.93 906.501,1408.93 889.5,1409C 886.107,1409.8 882.774,1410.8 879.5,1412C 863.5,1421.33 847.5,1430.67 831.5,1440C 815.777,1445.69 801.444,1453.69 788.5,1464C 778.433,1473.4 769.1,1483.4 760.5,1494C 774.039,1490.53 787.706,1487.2 801.5,1484C 820.928,1480.34 840.262,1480.67 859.5,1485C 889.253,1496.01 898.087,1516.17 886,1545.5C 877.549,1560.28 866.049,1572.12 851.5,1581C 847.197,1582.66 842.864,1582.83 838.5,1581.5C 839.66,1576.18 842.16,1571.52 846,1567.5C 852.081,1558.09 850.248,1550.76 840.5,1545.5C 838.742,1546.13 837.242,1547.13 836,1548.5C 833.372,1555.92 829.538,1562.58 824.5,1568.5C 819.712,1572.9 814.045,1574.57 807.5,1573.5C 761.602,1569.63 716.268,1562.29 671.5,1551.5C 670.446,1551.68 669.446,1552.01 668.5,1552.5C 667.335,1559.81 667.169,1567.14 668,1574.5C 669.619,1584.95 670.786,1595.45 671.5,1606C 672.268,1612.7 670.434,1618.53 666,1623.5C 655.602,1631.62 644.769,1639.12 633.5,1646C 626.384,1651.44 621.217,1658.27 618,1666.5C 616.717,1675.32 618.717,1683.32 624,1690.5C 629.361,1696.06 633.861,1702.23 637.5,1709C 636.846,1710.99 635.513,1712.32 633.5,1713C 621.619,1717.92 609.286,1719.92 596.5,1719C 590.988,1717.82 586.155,1715.32 582,1711.5C 578.828,1707.16 576.161,1702.49 574,1697.5C 565.135,1669.91 556.469,1642.24 548,1614.5C 546.407,1608.61 545.573,1602.61 545.5,1596.5C 546.076,1590.83 546.243,1585.16 546,1579.5C 545.25,1578.87 544.416,1578.37 543.5,1578C 527.509,1576.75 512.509,1580.08 498.5,1588C 488.145,1594.84 478.145,1602.18 468.5,1610C 460.167,1614.67 451.833,1614.67 443.5,1610C 433.542,1602.38 423.875,1594.38 414.5,1586C 401.816,1580.16 396.149,1584.33 397.5,1598.5C 398.212,1606.23 399.379,1613.9 401,1621.5C 403.472,1634.35 398.306,1640.19 385.5,1639C 365.686,1631.57 352.519,1617.74 346,1597.5C 343.603,1579.69 348.27,1564.03 360,1550.5C 382.623,1525.72 410.789,1512.22 444.5,1510C 462.175,1509.56 479.842,1508.9 497.5,1508C 486.947,1498.11 475.28,1489.78 462.5,1483C 458.637,1481.27 454.637,1479.93 450.5,1479C 440.768,1477.7 431.101,1476.04 421.5,1474C 418.833,1472.67 416.167,1471.33 413.5,1470C 406.197,1463.7 399.197,1457.03 392.5,1450C 390.294,1447.65 387.794,1447.15 385,1448.5C 380.343,1458.98 373.843,1468.15 365.5,1476C 349.494,1484.58 338.994,1480.08 334,1462.5C 330.792,1449.79 332.459,1437.79 339,1426.5C 353.849,1407.98 373.016,1396.48 396.5,1392C 413.101,1389.07 429.768,1388.73 446.5,1391C 457.687,1393.39 468.021,1397.73 477.5,1404C 487.833,1413.67 498.167,1423.33 508.5,1433C 517.141,1440.32 526.474,1446.66 536.5,1452C 558.124,1460.64 579.79,1460.64 601.5,1452C 622.998,1441.43 643.331,1429.09 662.5,1415C 675.909,1405.59 688.742,1395.43 701,1384.5C 701.833,1382.83 702.667,1381.17 703.5,1379.5C 702.559,1377.23 701.226,1375.23 699.5,1373.5C 690.813,1366.98 683.313,1359.31 677,1350.5C 675.389,1342.41 678.556,1336.91 686.5,1334C 700.858,1329.99 714.858,1324.99 728.5,1319C 744.644,1308.86 759.644,1297.2 773.5,1284C 760.403,1283.04 747.403,1281.37 734.5,1279C 725.197,1274.24 719.364,1266.74 717,1256.5C 716.086,1251.88 715.586,1247.21 715.5,1242.5C 717.293,1226.12 719.127,1209.79 721,1193.5C 695.632,1213.77 669.466,1232.93 642.5,1251C 619.581,1265.29 595.248,1276.62 569.5,1285C 552.165,1290.06 534.498,1291.73 516.5,1290C 492.87,1285.54 480.536,1271.38 479.5,1247.5C 481.012,1228.13 486.845,1210.13 497,1193.5C 508.554,1175.28 520.888,1157.61 534,1140.5C 536.006,1137.46 536.84,1134.13 536.5,1130.5C 532.753,1130.39 529.086,1130.89 525.5,1132C 519.5,1134.33 513.5,1136.67 507.5,1139C 474.167,1154.78 440.5,1169.78 406.5,1184C 382.975,1193.63 358.642,1200.3 333.5,1204C 320.791,1204.87 308.124,1204.54 295.5,1203C 278.091,1198.44 269.091,1187.27 268.5,1169.5C 268.948,1158.04 271.448,1147.04 276,1136.5C 290.039,1106.81 308.372,1080.14 331,1056.5C 357.972,1028.53 385.305,1000.86 413,973.5C 417,968.833 421,964.167 425,959.5C 426.009,957.975 426.509,956.308 426.5,954.5C 427.043,954.44 427.376,954.107 427.5,953.5C 425.027,952.203 422.693,952.203 420.5,953.5C 373.605,966.19 325.938,970.69 277.5,967C 257.476,965.064 239.976,957.564 225,944.5C 214.054,930.112 212.72,914.779 221,898.5C 230.539,880.955 243.039,865.788 258.5,853C 286.97,830.921 317.304,811.587 349.5,795C 324.167,781.667 298.833,768.333 273.5,755C 253.266,742.775 235.433,727.608 220,709.5C 197.499,676.676 203.665,650.842 238.5,632C 253.816,625.171 269.816,620.838 286.5,619C 307.138,617.244 327.804,615.91 348.5,615C 361.245,613.589 362.578,608.923 352.5,601C 333.985,589.573 314.985,578.907 295.5,569C 262.287,548.12 235.453,520.953 215,487.5C 203.809,468.878 199.809,448.878 203,427.5C 206.923,417.91 213.756,411.41 223.5,408C 230.438,406.414 237.438,405.247 244.5,404.5C 244.649,401.393 244.149,398.393 243,395.5C 235.973,385.449 229.973,374.782 225,363.5C 213.914,327.316 207.247,290.316 205,252.5C 203.519,229.519 203.186,206.519 204,183.5C 204.207,176.922 206.707,171.422 211.5,167C 223.575,160.963 235.909,155.463 248.5,150.5C 240.066,136.883 232.232,122.883 225,108.5C 215.204,82.8503 220.038,60.3503 239.5,41C 247.254,34.3097 256.254,31.4764 266.5,32.5C 277.137,32.5939 287.47,34.4272 297.5,38C 325.166,49.664 351.499,63.664 376.5,80C 414.865,106.018 454.032,130.852 494,154.5C 495.02,138.85 495.687,123.183 496,107.5C 496.404,100.154 499.904,97.9873 506.5,101C 511.667,106.167 516.833,111.333 522,116.5C 544.28,145.458 568.78,172.625 595.5,198C 622.167,221 648.833,244 675.5,267C 691.396,282.227 706.562,298.06 721,314.5C 730.546,326.068 737.546,339.068 742,353.5C 751.51,384.204 757.843,415.538 761,447.5C 762.836,488.326 761.17,528.993 756,569.5C 751.841,589.137 747.841,608.803 744,628.5C 739.6,670.436 757.1,698.936 796.5,714C 804.784,717.906 813.451,719.239 822.5,718C 828.855,714.094 830.021,708.927 826,702.5C 821.163,694.156 815.83,686.156 810,678.5C 800.697,663.348 803.197,650.515 817.5,640C 825.777,634.027 834.777,629.361 844.5,626C 848.449,624.816 852.449,624.482 856.5,625C 857.554,626.388 857.72,627.888 857,629.5C 844.468,646.653 848.635,658.153 869.5,664C 886.639,667.519 901.139,663.019 913,650.5C 918.049,640.569 915.882,632.736 906.5,627C 898.898,624.06 892.398,619.56 887,613.5C 885.067,608.284 886.234,603.784 890.5,600C 900.896,592.607 911.563,585.607 922.5,579C 927.671,575.347 931.004,570.513 932.5,564.5C 932.444,561.889 931.444,559.722 929.5,558C 920.328,557.519 911.161,557.685 902,558.5C 893.809,558.774 885.976,557.274 878.5,554C 869.691,548.414 868.191,541.248 874,532.5C 884.083,526.208 894.25,520.041 904.5,514C 917.48,503.502 919.98,491.002 912,476.5C 886.264,451.555 857.764,430.389 826.5,413C 810.169,407 794.503,399.667 779.5,391C 770.953,385.453 764.12,378.287 759,369.5C 754.457,359.859 753.457,349.859 756,339.5C 757.251,332.411 761.418,328.744 768.5,328.5C 773.451,329.095 778.118,330.595 782.5,333C 796.335,342.421 810.668,351.087 825.5,359C 829.305,360.38 833.138,361.547 837,362.5C 838.299,361.91 839.132,360.91 839.5,359.5C 838.946,357.39 838.112,355.39 837,353.5C 834.333,350.167 831.667,346.833 829,343.5C 812,327.833 795.667,311.5 780,294.5C 775.355,289.043 772.189,282.877 770.5,276C 772.654,267.393 777.321,265.726 784.5,271C 816.647,301.822 849.98,331.155 884.5,359C 899.555,370.388 914.888,381.388 930.5,392C 934.462,394.564 938.629,396.731 943,398.5C 943.833,397.667 944.667,396.833 945.5,396C 942.541,389.923 938.707,384.423 934,379.5C 909.115,354.822 881.615,333.656 851.5,316C 841.667,308.833 833.167,300.333 826,290.5C 816.374,273.408 805.874,256.908 794.5,241C 790.925,237.484 786.925,236.817 782.5,239C 776.531,243.967 770.865,249.301 765.5,255C 747.738,266.876 736.238,262.376 731,241.5C 728.249,206.52 743.749,184.02 777.5,174C 813.138,165.873 848.471,167.206 883.5,178C 909.031,185.066 933.365,195.066 956.5,208C 974.764,218.603 992.764,229.603 1010.5,241C 1025.94,250.054 1041.94,258.054 1058.5,265C 1065.42,266.74 1072.42,268.074 1079.5,269C 1091.07,271.867 1094.57,278.7 1090,289.5C 1085.72,296.115 1081.05,302.448 1076,308.5C 1074.56,311.05 1073.39,313.716 1072.5,316.5C 1073.19,319.088 1074.36,321.421 1076,323.5C 1082.33,331.167 1088.67,338.833 1095,346.5C 1097.22,350.281 1098.89,354.281 1100,358.5C 1098.79,378.131 1098.13,397.798 1098,417.5C 1100.72,434.365 1104.38,451.032 1109,467.5C 1109.67,472.5 1109.67,477.5 1109,482.5C 1106.4,483.68 1104.74,485.68 1104,488.5C 1103.83,492.833 1103.67,497.167 1103.5,501.5C 1106.04,526.311 1108.37,551.145 1110.5,576C 1110.52,582.546 1110.02,589.046 1109,595.5C 1105.76,606.558 1102.93,617.725 1100.5,629C 1101.31,633.15 1103.65,636.15 1107.5,638C 1116.55,641.215 1124.39,639.382 1131,632.5C 1133.3,628.782 1133.97,624.782 1133,620.5C 1125.66,611.143 1121.66,600.476 1121,588.5C 1120.33,578.5 1120.33,568.5 1121,558.5C 1123.62,538.123 1126.45,517.79 1129.5,497.5C 1129.33,494.5 1129.17,491.5 1129,488.5C 1126.39,485.887 1123.72,483.221 1121,480.5C 1120.34,475.442 1120.67,470.442 1122,465.5C 1129.12,446.534 1133.62,427.034 1135.5,407C 1134.82,401.188 1133.99,395.354 1133,389.5C 1130.14,380.784 1126.47,372.451 1122,364.5C 1120.87,358.547 1122.21,353.214 1126,348.5C 1133.29,339.536 1140.96,330.87 1149,322.5C 1154.85,316.881 1155.85,310.548 1152,303.5C 1147.23,298.732 1143.23,293.399 1140,287.5C 1137.76,280.155 1139.93,274.655 1146.5,271C 1155.06,268.573 1163.73,266.573 1172.5,265C 1187.51,259.329 1201.84,252.329 1215.5,244C 1236.33,231.082 1257.33,218.415 1278.5,206C 1312.36,187.603 1348.36,175.603 1386.5,170C 1413.23,165.976 1439.23,168.643 1464.5,178C 1497.67,194.493 1507.84,219.993 1495,254.5C 1487.03,262.952 1478.2,263.785 1468.5,257C 1462.15,249.984 1455.15,243.651 1447.5,238C 1444.7,237.245 1442.03,237.578 1439.5,239C 1435.96,242.201 1432.8,245.701 1430,249.5C 1420.5,265.836 1410.5,281.836 1400,297.5C 1394.47,303.366 1388.64,308.866 1382.5,314C 1359.6,327.613 1337.94,342.946 1317.5,360C 1305.54,369.619 1295.38,380.785 1287,393.5C 1286.51,394.793 1286.34,396.127 1286.5,397.5C 1292.36,396.737 1297.7,394.571 1302.5,391C 1353.83,355.289 1401.83,315.289 1446.5,271C 1456.49,265.448 1460.99,268.281 1460,279.5C 1458.44,284.28 1456.11,288.613 1453,292.5C 1434.75,311.751 1416.08,330.751 1397,349.5C 1394.68,352.797 1392.85,356.297 1391.5,360C 1392.05,360.925 1392.71,361.758 1393.5,362.5C 1396.85,361.774 1400.19,360.941 1403.5,360C 1421.16,350.505 1438.49,340.505 1455.5,330C 1467.38,325.876 1474.21,330.043 1476,342.5C 1478.58,360.422 1472.75,374.922 1458.5,386C 1443.23,396.969 1426.56,405.303 1408.5,411C 1375.23,429.264 1345.06,451.764 1318,478.5C 1313.38,487.102 1313.38,495.769 1318,504.5C 1321.17,509 1325,512.833 1329.5,516C 1338.66,521.081 1347.66,526.415 1356.5,532C 1362.31,539.573 1361.64,546.573 1354.5,553C 1347.22,557.123 1339.39,558.957 1331,558.5C 1321.51,557.667 1312.01,557.5 1302.5,558C 1299.8,558.865 1298.46,560.699 1298.5,563.5C 1299.57,569.469 1302.57,574.303 1307.5,578C 1317.16,584.833 1327.16,591.166 1337.5,597C 1340.37,599.537 1342.87,602.37 1345,605.5C 1346.1,609.505 1345.26,613.005 1342.5,616C 1334,622.089 1325,627.422 1315.5,632C 1310.74,635.224 1310.24,639.057 1314,643.5C 1328.08,661.415 1346.24,667.581 1368.5,662C 1384.43,655.38 1386.93,645.213 1376,631.5C 1373.47,627.024 1374.8,624.69 1380,624.5C 1397.68,628.207 1412.35,636.873 1424,650.5C 1426.88,657.027 1427.21,663.693 1425,670.5C 1419.67,681.176 1413.33,691.176 1406,700.5C 1400.49,716 1405.99,721.834 1422.5,718C 1443.65,712.811 1461.15,701.977 1475,685.5C 1487.05,667.251 1491.05,647.251 1487,625.5C 1471.14,564.078 1465.81,501.745 1471,438.5C 1475.25,409.813 1481.25,381.48 1489,353.5C 1493.84,338.149 1501.5,324.483 1512,312.5C 1523.77,298.728 1536.27,285.562 1549.5,273C 1576.87,248.627 1604.54,224.627 1632.5,201C 1647.67,185.833 1662.83,170.667 1678,155.5C 1689.24,142.016 1700.24,128.35 1711,114.5C 1715.5,110 1720,105.5 1724.5,101C 1730.14,97.8922 1733.64,99.3922 1735,105.5C 1737.59,121.081 1739.59,136.748 1741,152.5C 1791.64,121.516 1841.47,89.3489 1890.5,56C 1904.62,46.6054 1919.96,39.9388 1936.5,36C 1948.84,34.0252 1961.17,34.0252 1973.5,36C 1993.77,42.0218 2005.61,55.5218 2009,76.5C 2009.67,82.5 2009.67,88.5 2009,94.5C 2004.5,112.011 2000,129.511 1995.5,147C 1995.3,149.352 1995.97,151.352 1997.5,153C 2005.35,154.342 2011.18,158.508 2015,165.5C 2020.69,178.576 2024.02,192.243 2025,206.5C 2029.36,252.089 2026.03,297.089 2015,341.5C 2010.19,358.954 2002.53,374.954 1992,389.5C 1989.61,393.613 1987.78,397.946 1986.5,402.5C 1987.09,403.799 1988.09,404.632 1989.5,405C 2022.39,407.585 2035.23,425.085 2028,457.5C 2020.92,481.993 2008.92,503.659 1992,522.5C 1978.09,538.006 1962.59,551.506 1945.5,563C 1922.51,575.494 1899.84,588.494 1877.5,602C 1869.71,609.644 1871.38,613.978 1882.5,615C 1905.55,615.969 1928.55,617.636 1951.5,620C 1972.48,622.435 1991.48,629.768 2008.5,642C 2024.5,655.83 2028.67,672.663 2021,692.5C 2012.47,709.034 2000.97,723.201 1986.5,735C 1977.11,742.057 1967.44,748.724 1957.5,755C 1932.97,768.434 1908.3,781.6 1883.5,794.5 Z"/></g>
<g><path style="opacity:1" fill="#e8e8e8" d="M 1957.5,49.5 C 1962.12,48.9927 1966.45,49.826 1970.5,52C 1982.79,63.2059 1987.29,77.0392 1984,93.5C 1981.41,105.011 1977.41,116.011 1972,126.5C 1951.7,160.159 1926.87,190.325 1897.5,217C 1859.23,252.58 1816.56,281.913 1769.5,305C 1751.22,313.319 1732.22,319.319 1712.5,323C 1702.44,323.895 1692.44,323.562 1682.5,322C 1664.72,314.94 1658.22,302.107 1663,283.5C 1665.72,276.119 1670.55,270.619 1677.5,267C 1740.45,235.537 1801.12,200.537 1859.5,162C 1879.43,148.749 1897.6,133.249 1914,115.5C 1916.57,113.024 1918.07,110.024 1918.5,106.5C 1913.13,107.178 1908.13,109.012 1903.5,112C 1834.2,164.177 1759.86,208.51 1680.5,245C 1677.88,245.822 1675.22,246.322 1672.5,246.5C 1672.14,243.436 1672.98,240.769 1675,238.5C 1687.21,225.286 1700.38,213.12 1714.5,202C 1785.11,150.35 1858.44,102.683 1934.5,59C 1942.05,55.2136 1949.72,52.047 1957.5,49.5 Z"/></g>
<g><path style="opacity:1" fill="#e8e8e8" d="M 259.5,52.5 C 273.921,52.3549 287.587,55.5216 300.5,62C 386.017,107.735 466.017,161.402 540.5,223C 546.644,228.135 551.644,234.135 555.5,241C 554.663,242.587 553.33,243.42 551.5,243.5C 531.128,236.316 511.461,227.482 492.5,217C 435.22,186.675 380.887,152.008 329.5,113C 325.469,110.984 321.469,108.984 317.5,107C 315.741,106.202 314.074,106.369 312.5,107.5C 321.235,120.071 331.568,131.238 343.5,141C 412.371,192.459 486.371,235.793 565.5,271C 570.067,273.633 571.567,277.467 570,282.5C 565.054,295.058 559.054,307.058 552,318.5C 546.164,325.779 538.664,328.279 529.5,326C 479.742,309.287 432.076,287.953 386.5,262C 319.776,221.935 273.609,165.102 248,91.5C 246.733,85.8955 245.899,80.2288 245.5,74.5C 245.161,63.8195 249.827,56.4862 259.5,52.5 Z"/></g>
<g><path style="opacity:1" fill="#e8e8e8" d="M 512.5,153.5 C 514.655,153.372 516.655,153.872 518.5,155C 539.741,173.238 560.075,192.571 579.5,213C 603.904,236.075 628.904,258.408 654.5,280C 732.929,354.812 761.429,445.645 740,552.5C 734.496,571.524 730.496,590.857 728,610.5C 725.032,639.755 728.698,668.088 739,695.5C 747.45,716.953 762.617,731.12 784.5,738C 795.387,739.2 806.053,738.2 816.5,735C 823.294,731.601 830.294,728.768 837.5,726.5C 843.805,726.947 845.639,729.947 843,735.5C 840.297,738.538 837.297,741.205 834,743.5C 832.725,745.717 831.725,748.051 831,750.5C 831.832,771.158 832.499,791.825 833,812.5C 832.797,818.264 830.13,822.264 825,824.5C 822.679,823.513 821.013,821.846 820,819.5C 819.667,814.833 819.333,810.167 819,805.5C 818.612,804.572 817.945,803.905 817,803.5C 811.74,809.139 806.573,814.973 801.5,821C 797.824,824.088 793.657,826.255 789,827.5C 787.105,827.385 785.438,826.718 784,825.5C 783.036,818.772 783.869,812.272 786.5,806C 786.167,805.167 785.833,804.333 785.5,803.5C 779.97,807.529 774.303,811.362 768.5,815C 763.457,816.861 758.457,816.861 753.5,815C 750.735,812.005 749.902,808.505 751,804.5C 754.394,800.102 757.394,795.435 760,790.5C 762.341,782.512 759.508,779.345 751.5,781C 748.228,782.608 745.228,784.608 742.5,787C 729.468,793.908 723.302,790.074 724,775.5C 728,770.167 732,764.833 736,759.5C 737.252,756.986 737.752,754.32 737.5,751.5C 731.18,752.217 725.18,754.051 719.5,757C 689.215,770.639 662.215,788.973 638.5,812C 606.573,827.305 575.573,825.638 545.5,807C 523.324,791.635 522.99,775.968 544.5,760C 555.667,752.915 567.001,746.082 578.5,739.5C 588.833,747.333 599.167,755.167 609.5,763C 620.108,769.637 631.441,774.637 643.5,778C 649.749,778.809 655.916,778.642 662,777.5C 662.507,776.004 662.007,774.837 660.5,774C 641.84,764.341 623.84,753.674 606.5,742C 602.964,738.799 599.797,735.299 597,731.5C 594.508,725.083 595.174,719.083 599,713.5C 602.5,710 606,706.5 609.5,703C 625.742,693.437 640.242,681.604 653,667.5C 658.746,660.51 661.413,652.51 661,643.5C 660.196,642.196 659.029,641.529 657.5,641.5C 655.203,642.649 652.87,643.815 650.5,645C 643.452,651.049 636.119,656.716 628.5,662C 625.594,663.318 622.594,663.652 619.5,663C 618.017,658.012 618.517,653.179 621,648.5C 633.412,624.674 646.079,601.008 659,577.5C 660.145,574.568 660.978,571.568 661.5,568.5C 658.774,568.264 656.441,569.097 654.5,571C 631.373,595.074 614.206,622.907 603,654.5C 608.198,680.954 597.698,697.12 571.5,703C 549.125,705.204 528.792,699.871 510.5,687C 495.879,672.927 495.879,658.927 510.5,645C 522.699,637.267 536.033,632.934 550.5,632C 565.167,631.667 579.833,631.333 594.5,631C 573.868,626.759 553.535,621.426 533.5,615C 532,613.5 530.5,612 529,610.5C 530.469,599.397 535.302,589.897 543.5,582C 559.829,572.546 573.829,575.212 585.5,590C 595.997,598.608 607.997,601.942 621.5,600C 622.956,599.577 623.456,598.744 623,597.5C 618.786,593.618 614.286,590.118 609.5,587C 597.815,570.359 601.149,557.359 619.5,548C 626.974,546.041 634.308,543.707 641.5,541C 651.612,535.009 655.778,526.176 654,514.5C 652.519,511.92 650.352,511.087 647.5,512C 645.833,513 644.167,514 642.5,515C 636.302,523.868 628.302,530.534 618.5,535C 612.79,534.892 607.456,536.225 602.5,539C 596.574,542.921 591.241,547.588 586.5,553C 573.831,559.521 560.831,560.187 547.5,555C 528.101,546.942 515.935,532.775 511,512.5C 509.876,506.576 511.709,501.742 516.5,498C 520.271,495.781 524.271,494.115 528.5,493C 538.321,491.885 547.988,492.552 557.5,495C 563.5,498.333 569.5,501.667 575.5,505C 585.518,508.242 593.351,505.409 599,496.5C 600.176,492.74 599.01,489.907 595.5,488C 584.616,483.058 573.616,478.391 562.5,474C 550.306,468.477 539.806,460.644 531,450.5C 527.63,446.394 526.297,441.727 527,436.5C 528.167,434 530,432.167 532.5,431C 551.547,429.458 569.547,433.125 586.5,442C 589.939,444.139 593.106,446.639 596,449.5C 601.197,462.756 606.197,476.089 611,489.5C 613.493,496.349 617.327,502.183 622.5,507C 624.5,507.667 626.5,507.667 628.5,507C 634.906,501.384 639.739,494.55 643,486.5C 643.667,484.167 643.667,481.833 643,479.5C 639.41,476.954 635.577,474.787 631.5,473C 625.78,468.116 623.947,461.95 626,454.5C 628.319,448.527 631.653,443.193 636,438.5C 644.333,432.833 651.333,425.833 657,417.5C 657.934,414.864 658.768,412.197 659.5,409.5C 657.847,404.419 658.68,399.752 662,395.5C 668.038,393.175 669.705,389.175 667,383.5C 662,379.167 657,374.833 652,370.5C 649.279,367.362 648.946,364.029 651,360.5C 654,356.5 657,352.5 660,348.5C 661.15,346.246 661.484,343.913 661,341.5C 651.552,341.55 643.552,345.217 637,352.5C 636.333,353.833 635.667,355.167 635,356.5C 634.333,363.833 634.333,371.167 635,378.5C 639.113,392.925 638.113,406.925 632,420.5C 622.368,430.893 610.868,433.393 597.5,428C 573.424,416.93 557.591,398.763 550,373.5C 546.844,349.491 557.344,336.824 581.5,335.5C 593.495,337.831 605.495,340.164 617.5,342.5C 616.221,338.698 613.888,335.531 610.5,333C 600.085,326.042 589.585,319.209 579,312.5C 574.369,304.215 576.202,297.715 584.5,293C 593.867,287.808 603.867,286.142 614.5,288C 624.525,293.4 635.192,296.233 646.5,296.5C 646.256,293.737 644.923,291.571 642.5,290C 627.455,281.814 613.455,272.147 600.5,261C 569.81,234.055 541.977,204.555 517,172.5C 514.746,168.993 512.746,165.327 511,161.5C 510.109,158.502 510.609,155.836 512.5,153.5 Z"/></g>
<g><path style="opacity:1" fill="#e8e8e8" d="M 1715.5,155.5 C 1716.83,155.5 1718.17,155.5 1719.5,155.5C 1719.32,162.201 1717.15,168.201 1713,173.5C 1705.48,185.362 1696.81,196.362 1687,206.5C 1654.88,239.974 1620.38,270.474 1583.5,298C 1597.41,294.036 1611.41,290.036 1625.5,286C 1638.06,283.889 1644.73,289.223 1645.5,302C 1645.68,305.746 1644.84,309.246 1643,312.5C 1639.62,316.759 1636.12,320.926 1632.5,325C 1623.21,331.955 1614.21,339.288 1605.5,347C 1616.47,343.901 1627.47,340.568 1638.5,337C 1655.76,333.185 1668.92,338.685 1678,353.5C 1682.75,370.316 1679.75,385.649 1669,399.5C 1660.6,410.906 1650.1,419.739 1637.5,426C 1626.92,431.36 1616.25,431.693 1605.5,427C 1599.85,423.213 1596.02,418.046 1594,411.5C 1593.33,399.278 1593.83,387.111 1595.5,375C 1595.95,363.447 1592.28,353.447 1584.5,345C 1580.35,341.797 1575.69,340.464 1570.5,341C 1569.68,343.925 1570.18,346.758 1572,349.5C 1575.74,353.311 1578.74,357.644 1581,362.5C 1581.67,364.167 1581.67,365.833 1581,367.5C 1576.85,373.076 1571.85,377.743 1566,381.5C 1564.44,383.443 1563.28,385.61 1562.5,388C 1565.97,391.824 1569.14,395.99 1572,400.5C 1572.33,405.167 1572.67,409.833 1573,414.5C 1573.67,415.833 1574.33,417.167 1575,418.5C 1582,426.833 1589.67,434.5 1598,441.5C 1604.05,447.998 1606.72,455.665 1606,464.5C 1602.94,470.555 1598.28,474.888 1592,477.5C 1588.68,490.873 1592.51,501.707 1603.5,510C 1605.17,510.667 1606.83,510.667 1608.5,510C 1620.65,492.193 1628.82,472.693 1633,451.5C 1647.22,438.192 1664.05,430.025 1683.5,427C 1699.61,425.101 1705.77,431.935 1702,447.5C 1693.12,460.366 1681.29,469.533 1666.5,475C 1656.72,478.724 1647.05,482.724 1637.5,487C 1634.61,488.392 1632.61,490.559 1631.5,493.5C 1636.05,504.61 1644.05,508.443 1655.5,505C 1662.94,499.946 1670.94,495.946 1679.5,493C 1687.17,492.333 1694.83,492.333 1702.5,493C 1720.68,497.204 1725.52,507.704 1717,524.5C 1703.93,548.291 1683.76,559.457 1656.5,558C 1651.78,556.804 1647.44,554.804 1643.5,552C 1639.47,547.632 1635.13,543.632 1630.5,540C 1621.79,537.091 1613.12,534.091 1604.5,531C 1598.17,526 1592.5,520.333 1587.5,514C 1581.57,509.721 1577.91,511.054 1576.5,518C 1578.69,535.52 1588.69,544.854 1606.5,546C 1616.45,548.949 1623.61,555.116 1628,564.5C 1629.33,571.249 1628.33,577.582 1625,583.5C 1619.98,588.021 1614.81,592.355 1609.5,596.5C 1608.27,597.651 1608.27,598.817 1609.5,600C 1627.54,602.21 1642.2,596.21 1653.5,582C 1670.56,572.114 1684.72,575.281 1696,591.5C 1699.01,596.514 1701.18,601.847 1702.5,607.5C 1702.44,610.111 1701.44,612.278 1699.5,614C 1695.31,616.062 1690.98,617.729 1686.5,619C 1669.74,622.69 1653.07,626.69 1636.5,631C 1650.83,631.333 1665.17,631.667 1679.5,632C 1693.73,633.123 1707.07,637.123 1719.5,644C 1727.05,649.263 1731.38,656.429 1732.5,665.5C 1730.68,677.496 1724.35,686.329 1713.5,692C 1696.55,700.874 1678.55,704.541 1659.5,703C 1636.21,698.369 1625.87,684.369 1628.5,661C 1628.41,657.112 1627.91,653.279 1627,649.5C 1615.21,619.404 1598.05,592.904 1575.5,570C 1573.98,568.991 1572.31,568.491 1570.5,568.5C 1570.74,573.067 1571.91,577.401 1574,581.5C 1584,599.5 1594,617.5 1604,635.5C 1608.05,642.826 1611.22,650.493 1613.5,658.5C 1613.61,660.374 1612.94,661.874 1611.5,663C 1609.17,663.667 1606.83,663.667 1604.5,663C 1596.65,658.817 1589.65,653.484 1583.5,647C 1580.29,644.896 1576.96,643.063 1573.5,641.5C 1572.56,641.608 1571.72,641.941 1571,642.5C 1569.65,652.441 1572.32,661.108 1579,668.5C 1593.62,683.379 1609.79,696.213 1627.5,707C 1632.67,710.653 1636,715.487 1637.5,721.5C 1637.31,723.577 1636.81,725.577 1636,727.5C 1628.14,737.357 1618.97,745.857 1608.5,753C 1602.59,758.239 1597.42,764.072 1593,770.5C 1591.42,775.1 1592.92,776.934 1597.5,776C 1603.29,773.606 1608.95,770.94 1614.5,768C 1627.34,758.486 1640.18,748.986 1653,739.5C 1664.07,745.616 1674.9,752.116 1685.5,759C 1692.1,763.594 1697.26,769.427 1701,776.5C 1702.3,782.922 1701.3,788.922 1698,794.5C 1670.35,820.824 1637.85,829.658 1600.5,821C 1586.1,816.595 1573.77,808.929 1563.5,798C 1548.12,786.139 1531.12,777.139 1512.5,771C 1509.18,770.502 1505.85,770.335 1502.5,770.5C 1502.3,772.989 1502.8,775.323 1504,777.5C 1508.05,781.88 1511.71,786.546 1515,791.5C 1517.67,803.16 1513.17,807.993 1501.5,806C 1496.96,802.232 1491.96,799.232 1486.5,797C 1478.78,796.753 1476.62,800.253 1480,807.5C 1482.92,811.666 1485.58,815.999 1488,820.5C 1489.02,824.317 1488.52,827.817 1486.5,831C 1481.95,832.545 1477.29,832.879 1472.5,832C 1465.76,828.423 1459.43,824.256 1453.5,819.5C 1453.17,820.167 1452.83,820.833 1452.5,821.5C 1455.26,827.586 1456.42,833.919 1456,840.5C 1453.79,843.29 1450.96,844.123 1447.5,843C 1445.5,842 1443.5,841 1441.5,840C 1434.59,833.592 1428.25,826.758 1422.5,819.5C 1421.91,819.709 1421.41,820.043 1421,820.5C 1420.79,826.231 1420.12,831.897 1419,837.5C 1415.75,841.367 1412.42,841.367 1409,837.5C 1407.53,833.971 1406.53,830.305 1406,826.5C 1406.76,807.466 1407.76,788.466 1409,769.5C 1408.15,766.44 1407.15,763.44 1406,760.5C 1396.55,755.282 1393.55,747.615 1397,737.5C 1400.74,733.741 1405.24,732.574 1410.5,734C 1443.61,743.856 1469.44,734.356 1488,705.5C 1501.93,677.777 1507.26,648.444 1504,617.5C 1503.15,609.813 1502.15,602.146 1501,594.5C 1491,558.16 1485.5,521.16 1484.5,483.5C 1485.95,411.305 1511.12,348.971 1560,296.5C 1587.17,272 1614.33,247.5 1641.5,223C 1659.86,205.641 1677.86,187.974 1695.5,170C 1701.79,164.529 1708.46,159.696 1715.5,155.5 Z"/></g>
<g><path style="opacity:1" fill="#e8e8e8" d="M 1986.5,171.5 C 1999,172.163 2007.84,178.163 2013,189.5C 2015.09,201.541 2014.76,213.541 2012,225.5C 1999.32,264.849 1976.49,297.016 1943.5,322C 1887.52,364.15 1825.19,393.15 1756.5,409C 1739.53,412.966 1722.53,413.299 1705.5,410C 1698.85,408.26 1693.02,405.093 1688,400.5C 1685.82,396.075 1686.48,392.075 1690,388.5C 1697.22,382.139 1705.05,376.639 1713.5,372C 1745.93,356.636 1778.93,342.636 1812.5,330C 1861.19,308.835 1906.86,282.835 1949.5,252C 1958.09,245.417 1965.25,237.584 1971,228.5C 1972.07,221.945 1969.57,220.112 1963.5,223C 1958.33,225.748 1953.33,228.748 1948.5,232C 1907.62,263.961 1863.29,290.627 1815.5,312C 1783.51,326.661 1750.84,339.661 1717.5,351C 1714.23,352.213 1710.9,352.546 1707.5,352C 1715.32,345.918 1723.66,340.585 1732.5,336C 1763.17,321 1793.83,306 1824.5,291C 1854.39,275.42 1882.39,257.086 1908.5,236C 1928.54,217.628 1948.87,199.628 1969.5,182C 1974.93,177.96 1980.6,174.46 1986.5,171.5 Z"/></g>
<g><path style="opacity:1" fill="#e8e8e8" d="M 229.5,180.5 C 234.58,180.25 239.58,180.75 244.5,182C 251.446,184.806 258.112,188.139 264.5,192C 289.786,210.951 314.786,230.284 339.5,250C 367.678,270.457 397.678,288.123 429.5,303C 450.833,312.333 472.167,321.667 493.5,331C 503.421,335.932 513.087,341.265 522.5,347C 524.019,348.351 525.352,349.851 526.5,351.5C 525.333,351.833 524.167,352.167 523,352.5C 517.065,351.411 511.232,349.911 505.5,348C 444.484,325.664 385.817,298.33 329.5,266C 309.616,253.447 290.283,240.114 271.5,226C 268.11,223.755 264.443,222.755 260.5,223C 259.402,225.498 259.568,227.998 261,230.5C 264.754,236.258 269.254,241.425 274.5,246C 297.81,264.297 322.477,280.63 348.5,295C 394.837,320.335 442.837,342.002 492.5,360C 504.112,365.139 515.446,370.806 526.5,377C 532.307,380.327 537.474,384.494 542,389.5C 546.096,396.835 544.263,402.335 536.5,406C 520.401,412.263 503.734,414.596 486.5,413C 452.592,408.586 420.259,398.919 389.5,384C 341.124,361.612 298.291,331.445 261,293.5C 251.508,283.01 243.175,271.677 236,259.5C 225.509,238.029 220.843,215.362 222,191.5C 223.043,186.721 225.543,183.054 229.5,180.5 Z"/></g>
<g><path style="opacity:1" fill="#e8e8e8" d="M 1379.5,182.5 C 1383.18,182.335 1386.85,182.501 1390.5,183C 1392.18,183.347 1393.18,184.347 1393.5,186C 1389.64,192.865 1384.64,198.865 1378.5,204C 1369.36,211.734 1359.7,218.734 1349.5,225C 1336.69,229.406 1324.69,235.406 1313.5,243C 1289.47,258.348 1266.13,274.682 1243.5,292C 1236.19,297.582 1229.36,303.748 1223,310.5C 1219.1,323.262 1223.27,326.762 1235.5,321C 1238.63,318.872 1241.46,316.372 1244,313.5C 1247.06,307.77 1250.9,302.603 1255.5,298C 1259.14,296.101 1262.8,296.101 1266.5,298C 1276.88,304.359 1287.88,309.359 1299.5,313C 1321.68,315.664 1337.84,307.164 1348,287.5C 1351.72,275.336 1354.72,263.003 1357,250.5C 1369.47,225.382 1389.3,208.882 1416.5,201C 1430.67,197.201 1445.01,196.534 1459.5,199C 1479.21,205.92 1487.55,219.754 1484.5,240.5C 1482.8,240.66 1481.13,240.494 1479.5,240C 1460.96,221.344 1440.96,219.677 1419.5,235C 1408.44,244.279 1402.61,256.112 1402,270.5C 1399.72,274.447 1397.05,278.113 1394,281.5C 1372.16,300.512 1348.32,316.679 1322.5,330C 1302.19,342.647 1286.35,359.481 1275,380.5C 1269.57,391.414 1269.24,402.414 1274,413.5C 1279.32,419.912 1286.16,423.245 1294.5,423.5C 1306.31,422.548 1317.64,419.715 1328.5,415C 1369.13,394.184 1410.13,374.184 1451.5,355C 1454.48,354.502 1457.48,354.335 1460.5,354.5C 1459.91,361.604 1456.58,367.104 1450.5,371C 1442.82,375.842 1434.82,380.175 1426.5,384C 1393.82,393.838 1364.15,409.171 1337.5,430C 1321.79,443.03 1309.95,458.864 1302,477.5C 1294.82,496.935 1298.98,513.435 1314.5,527C 1322.37,530.877 1329.7,535.544 1336.5,541C 1333.45,542.762 1330.12,543.596 1326.5,543.5C 1315.77,542.646 1305.77,539.479 1296.5,534C 1292.43,530.937 1288.1,528.27 1283.5,526C 1281.63,525.289 1280.13,525.789 1279,527.5C 1276.39,547.915 1279.72,567.248 1289,585.5C 1295.3,595.732 1304.46,600.898 1316.5,601C 1323.53,604.479 1324.2,608.813 1318.5,614C 1303.34,619.611 1291,615.944 1281.5,603C 1276.07,599.204 1271.24,599.704 1267,604.5C 1265.72,616.313 1269.05,626.647 1277,635.5C 1302.79,662.319 1334.29,675.485 1371.5,675C 1381.13,673.687 1388.3,668.853 1393,660.5C 1396.14,656.017 1400.3,653.85 1405.5,654C 1409.84,659.206 1410.68,665.04 1408,671.5C 1397.93,685.198 1384.43,693.698 1367.5,697C 1356.74,697.641 1346.07,698.808 1335.5,700.5C 1342.26,704.052 1348.93,707.885 1355.5,712C 1369.28,723.1 1376.94,737.433 1378.5,755C 1378.88,759.898 1377.54,764.231 1374.5,768C 1372.21,768.418 1370.21,767.751 1368.5,766C 1359.2,755.696 1349.53,745.696 1339.5,736C 1336.12,732.769 1332.12,731.269 1327.5,731.5C 1327.74,736.067 1328.91,740.401 1331,744.5C 1345.85,766.374 1354.35,790.541 1356.5,817C 1356.51,820.258 1356.01,823.425 1355,826.5C 1354.59,828.41 1353.43,829.41 1351.5,829.5C 1349.73,828.909 1348.07,828.076 1346.5,827C 1343.4,822.815 1340.07,818.815 1336.5,815C 1332.98,812.145 1329.48,811.979 1326,814.5C 1325.3,818.905 1325.64,823.239 1327,827.5C 1332.18,837.044 1336.18,847.044 1339,857.5C 1339.85,861.996 1339.35,866.33 1337.5,870.5C 1335.24,871.647 1332.9,871.814 1330.5,871C 1325.52,866.695 1320.02,863.195 1314,860.5C 1312.74,860.759 1311.74,861.426 1311,862.5C 1310.33,866.833 1310.33,871.167 1311,875.5C 1314.79,894.14 1318.46,912.806 1322,931.5C 1322.67,937.833 1322.67,944.167 1322,950.5C 1320.94,951.899 1319.61,952.899 1318,953.5C 1311.9,949.866 1305.73,946.366 1299.5,943C 1296.47,941.86 1294.31,942.694 1293,945.5C 1292.33,947.833 1292.33,950.167 1293,952.5C 1296.06,960.283 1299.39,967.95 1303,975.5C 1306.14,983.224 1306.14,990.891 1303,998.5C 1298.44,1002.46 1293.94,1002.3 1289.5,998C 1283.48,990.978 1277.14,984.311 1270.5,978C 1267.46,975.994 1264.13,975.16 1260.5,975.5C 1260.23,979.605 1260.73,983.605 1262,987.5C 1270.25,1001 1278.25,1014.67 1286,1028.5C 1289.05,1041.21 1292.38,1053.88 1296,1066.5C 1308.68,1095.54 1323.68,1123.21 1341,1149.5C 1375.54,1203.55 1414.21,1254.55 1457,1302.5C 1473,1320.51 1491.84,1334.68 1513.5,1345C 1519.6,1348.68 1519.93,1352.68 1514.5,1357C 1505.72,1361.41 1496.88,1361.58 1488,1357.5C 1481.3,1359.53 1475.63,1363.2 1471,1368.5C 1466.06,1375.39 1460.9,1382.05 1455.5,1388.5C 1442.87,1375.25 1430.71,1361.58 1419,1347.5C 1414.47,1342.63 1409.63,1338.13 1404.5,1334C 1402.98,1332.99 1401.31,1332.49 1399.5,1332.5C 1405.33,1354.65 1416.66,1373.49 1433.5,1389C 1445.27,1399.15 1458.27,1401.15 1472.5,1395C 1478.28,1389.89 1484.62,1385.55 1491.5,1382C 1493.5,1381.33 1495.5,1381.33 1497.5,1382C 1514.01,1401.85 1533.01,1418.85 1554.5,1433C 1609.84,1470.67 1669.84,1498.67 1734.5,1517C 1754.63,1520.36 1774.63,1524.36 1794.5,1529C 1796.75,1530.04 1798.91,1531.21 1801,1532.5C 1801.67,1534.83 1801.67,1537.17 1801,1539.5C 1794.78,1547.27 1790.11,1555.94 1787,1565.5C 1786.27,1573.64 1784.94,1581.64 1783,1589.5C 1780.4,1593.21 1776.9,1594.38 1772.5,1593C 1769.04,1590.54 1765.87,1587.7 1763,1584.5C 1758.75,1577.66 1754.75,1570.66 1751,1563.5C 1748.22,1557.68 1743.72,1554.85 1737.5,1555C 1732.29,1559.85 1726.13,1562.69 1719,1563.5C 1712.92,1562.05 1707.09,1559.88 1701.5,1557C 1692.58,1555.29 1683.58,1554.29 1674.5,1554C 1665.45,1551.94 1658.28,1547.11 1653,1539.5C 1647.13,1528.25 1640.63,1517.42 1633.5,1507C 1630.2,1505.96 1628.03,1507.12 1627,1510.5C 1626.21,1520.24 1627.88,1529.58 1632,1538.5C 1640.47,1556.12 1649.47,1573.45 1659,1590.5C 1661.76,1595.87 1662.76,1601.54 1662,1607.5C 1661.17,1608.33 1660.33,1609.17 1659.5,1610C 1653.24,1610.59 1647.08,1610.09 1641,1608.5C 1632.44,1608.05 1629.77,1611.71 1633,1619.5C 1635.19,1622.18 1638.03,1623.68 1641.5,1624C 1642.7,1624.9 1643.53,1626.07 1644,1627.5C 1648.47,1645.19 1648.13,1662.86 1643,1680.5C 1641.29,1685.28 1638.63,1689.28 1635,1692.5C 1634.23,1692.36 1633.56,1692.02 1633,1691.5C 1632.25,1676.07 1630.58,1660.74 1628,1645.5C 1625.64,1634.59 1620.14,1625.76 1611.5,1619C 1604.67,1615.26 1597.33,1613.59 1589.5,1614C 1587.33,1613.17 1585.83,1611.67 1585,1609.5C 1584.25,1599.99 1585.25,1590.65 1588,1581.5C 1589.96,1565.95 1587.29,1551.29 1580,1537.5C 1575.47,1530.99 1569.3,1528.16 1561.5,1529C 1536.98,1539.92 1511.31,1544.92 1484.5,1544C 1478.62,1542.59 1472.95,1540.59 1467.5,1538C 1463.83,1537.33 1460.17,1537.33 1456.5,1538C 1448.98,1541.85 1442.32,1546.85 1436.5,1553C 1433.89,1554.89 1431.06,1556.39 1428,1557.5C 1426.01,1556.85 1424.68,1555.51 1424,1553.5C 1423.67,1546.17 1423.33,1538.83 1423,1531.5C 1416.45,1512.64 1404.28,1507.81 1386.5,1517C 1380.47,1523.37 1374.14,1529.37 1367.5,1535C 1360.33,1536.51 1356.66,1533.51 1356.5,1526C 1359.06,1515.76 1365.06,1508.09 1374.5,1503C 1384.44,1497.18 1395.11,1495.18 1406.5,1497C 1440.46,1504.64 1474.8,1507.31 1509.5,1505C 1518.33,1504.38 1526.66,1502.04 1534.5,1498C 1540.76,1493.05 1541.09,1487.71 1535.5,1482C 1532.5,1481.33 1529.5,1481.33 1526.5,1482C 1521.51,1486.08 1516.01,1489.24 1510,1491.5C 1500.38,1487.55 1492.88,1481.05 1487.5,1472C 1491.69,1473.11 1496.02,1473.94 1500.5,1474.5C 1510.83,1475.33 1513.66,1471.33 1509,1462.5C 1501.9,1454.4 1493.4,1448.23 1483.5,1444C 1462.72,1439.6 1444.05,1430.94 1427.5,1418C 1421.15,1411.58 1414.82,1405.25 1408.5,1399C 1407.22,1398.32 1406.05,1398.48 1405,1399.5C 1404.86,1403.03 1404.02,1406.36 1402.5,1409.5C 1400.86,1410.68 1399.2,1410.68 1397.5,1409.5C 1392.47,1403.76 1389.3,1397.1 1388,1389.5C 1387.3,1373.73 1384.3,1358.39 1379,1343.5C 1374.33,1333.5 1369.67,1323.5 1365,1313.5C 1364.83,1331.51 1364.33,1349.51 1363.5,1367.5C 1360.57,1366.07 1358.07,1364.07 1356,1361.5C 1340.48,1341.8 1327.48,1320.47 1317,1297.5C 1313.08,1291.29 1307.58,1289.12 1300.5,1291C 1299.41,1293.06 1299.24,1295.23 1300,1297.5C 1308.4,1313.96 1317.06,1330.29 1326,1346.5C 1329.87,1364.58 1325.37,1380.42 1312.5,1394C 1310.83,1394.67 1309.17,1394.67 1307.5,1394C 1306.04,1391.73 1305.21,1389.23 1305,1386.5C 1304.53,1374.16 1304.69,1361.83 1305.5,1349.5C 1306.56,1338.08 1303.73,1327.74 1297,1318.5C 1290.58,1312.08 1284.91,1305.08 1280,1297.5C 1279.33,1295.17 1279.33,1292.83 1280,1290.5C 1288.8,1287.28 1290.8,1281.61 1286,1273.5C 1284.28,1271.44 1282.28,1269.78 1280,1268.5C 1276.65,1271.02 1273.48,1273.69 1270.5,1276.5C 1265.24,1274.08 1261.08,1270.41 1258,1265.5C 1251.74,1254.65 1244.74,1244.31 1237,1234.5C 1233.45,1231.28 1229.61,1228.45 1225.5,1226C 1219.93,1224.25 1217.26,1226.25 1217.5,1232C 1219.47,1240.79 1222.97,1248.95 1228,1256.5C 1236.13,1266.42 1242.46,1277.42 1247,1289.5C 1247.99,1298.36 1245.49,1306.02 1239.5,1312.5C 1236.48,1302.95 1233.65,1293.28 1231,1283.5C 1223.67,1270.83 1216.33,1258.17 1209,1245.5C 1196.06,1211.4 1186.39,1176.4 1180,1140.5C 1177,1119.81 1174,1099.14 1171,1078.5C 1166.79,1098.53 1162.46,1118.53 1158,1138.5C 1152.58,1159.76 1144.25,1179.76 1133,1198.5C 1126.99,1205.34 1120.82,1212.01 1114.5,1218.5C 1100.22,1204.35 1089.72,1187.68 1083,1168.5C 1073.18,1138.4 1065.51,1107.74 1060,1076.5C 1055.53,1133.19 1043.53,1188.19 1024,1241.5C 1021.94,1246.62 1019.61,1251.62 1017,1256.5C 1004.85,1270.6 997.515,1286.94 995,1305.5C 994.484,1308.25 993.317,1310.58 991.5,1312.5C 983.156,1301.53 982.323,1289.86 989,1277.5C 997.459,1265.7 1005.13,1253.36 1012,1240.5C 1015.39,1235.44 1015.22,1230.6 1011.5,1226C 1007.88,1225.16 1004.55,1225.83 1001.5,1228C 990.411,1238.75 981.245,1250.92 974,1264.5C 971.537,1267.96 968.704,1271.13 965.5,1274C 960.375,1276.77 956.708,1275.44 954.5,1270C 950.881,1267.76 948.048,1268.59 946,1272.5C 943.495,1275.82 942.495,1279.49 943,1283.5C 945.542,1286.62 948.542,1289.28 952,1291.5C 952.208,1295.11 951.208,1298.45 949,1301.5C 940.452,1310.05 933.452,1319.71 928,1330.5C 926.218,1335.68 925.385,1341.01 925.5,1346.5C 926.014,1354.99 926.347,1363.49 926.5,1372C 926.609,1378.91 926.109,1385.74 925,1392.5C 922.716,1394.98 920.216,1395.15 917.5,1393C 906.959,1380.71 902.459,1366.55 904,1350.5C 905.783,1344.93 908.117,1339.6 911,1334.5C 918.507,1322.16 925.507,1309.49 932,1296.5C 932.825,1294.3 932.325,1292.47 930.5,1291C 924.622,1289.35 919.788,1290.85 916,1295.5C 905.048,1318.11 892.048,1339.44 877,1359.5C 874.318,1362.35 871.484,1365.02 868.5,1367.5C 867.914,1367.29 867.414,1366.96 867,1366.5C 866.434,1348.48 866.434,1330.48 867,1312.5C 856.302,1330.93 848.969,1350.59 845,1371.5C 845.124,1384.34 842.124,1396.34 836,1407.5C 833.633,1410.93 830.966,1411.27 828,1408.5C 827.744,1405.44 827.244,1402.44 826.5,1399.5C 825.635,1398.42 824.635,1398.25 823.5,1399C 815.864,1405.64 808.53,1412.64 801.5,1420C 786.035,1431.72 768.702,1439.38 749.5,1443C 737.262,1447.91 727.429,1455.75 720,1466.5C 719.043,1470.41 720.543,1472.91 724.5,1474C 730.596,1474.97 736.43,1474.14 742,1471.5C 742.5,1471.83 743,1472.17 743.5,1472.5C 738.686,1479.15 733.02,1484.98 726.5,1490C 723.923,1491.25 721.257,1491.58 718.5,1491C 714.89,1489.06 711.557,1486.72 708.5,1484C 697.801,1478.02 692.635,1481.19 693,1493.5C 696.905,1498.54 702.072,1501.71 708.5,1503C 724.681,1506.2 741.014,1507.2 757.5,1506C 779.736,1504.74 801.736,1501.74 823.5,1497C 842.748,1494.6 858.581,1500.76 871,1515.5C 875.225,1521.63 875.558,1527.96 872,1534.5C 869.336,1536.96 866.502,1537.12 863.5,1535C 857.5,1530.33 852.167,1525 847.5,1519C 828.457,1506.61 815.29,1511.11 808,1532.5C 807.667,1539.83 807.333,1547.17 807,1554.5C 806.592,1556.41 805.425,1557.41 803.5,1557.5C 795.54,1553.72 788.54,1548.55 782.5,1542C 776.46,1537.82 769.794,1536.49 762.5,1538C 749.864,1544.2 736.531,1546.2 722.5,1544C 704.132,1541.43 686.465,1536.43 669.5,1529C 659.858,1528.41 653.024,1532.58 649,1541.5C 646.584,1546.25 644.917,1551.25 644,1556.5C 643.461,1574.24 644.128,1591.91 646,1609.5C 645.167,1611.67 643.667,1613.17 641.5,1614C 627.851,1612.91 617.351,1618.07 610,1629.5C 604.842,1638.13 601.842,1647.46 601,1657.5C 600.709,1668.52 600.042,1679.52 599,1690.5C 598.275,1692.16 597.108,1692.66 595.5,1692C 590.966,1687.41 588.132,1681.91 587,1675.5C 584.737,1662.25 584.07,1648.92 585,1635.5C 585.483,1631.53 586.816,1627.87 589,1624.5C 592,1623.17 595,1621.83 598,1620.5C 602.422,1612.4 599.922,1608.4 590.5,1608.5C 584.216,1609.86 577.883,1610.36 571.5,1610C 569.167,1608.67 568.167,1606.67 568.5,1604C 568.967,1599.63 570.133,1595.47 572,1591.5C 581.015,1574.14 590.015,1556.8 599,1539.5C 601.984,1531.88 604.151,1524.05 605.5,1516C 605.256,1512.51 603.923,1509.51 601.5,1507C 599.299,1506.18 597.466,1506.68 596,1508.5C 589.827,1518.18 584.16,1528.18 579,1538.5C 573.398,1547.05 565.565,1552.22 555.5,1554C 546.719,1554.09 538.052,1555.09 529.5,1557C 523.91,1559.88 518.077,1562.05 512,1563.5C 505.588,1562.92 500.088,1560.42 495.5,1556C 493.246,1554.85 490.913,1554.52 488.5,1555C 485.333,1556.83 482.833,1559.33 481,1562.5C 476.755,1571.33 471.755,1579.66 466,1587.5C 462.258,1592.29 457.424,1594.12 451.5,1593C 449.951,1591.79 448.785,1590.29 448,1588.5C 446.189,1580.58 444.856,1572.58 444,1564.5C 440.365,1555.23 435.699,1546.56 430,1538.5C 429.333,1536.83 429.333,1535.17 430,1533.5C 432.626,1530.77 435.793,1528.94 439.5,1528C 490.803,1520.93 539.803,1506.26 586.5,1484C 631.697,1463.26 673.364,1437.26 711.5,1406C 719.57,1398.6 726.904,1390.6 733.5,1382C 736.257,1381.42 738.923,1381.75 741.5,1383C 749.255,1388.43 757.255,1393.43 765.5,1398C 777.045,1399.86 787.379,1397.2 796.5,1390C 813.933,1374.29 825.599,1355.13 831.5,1332.5C 829.217,1332.61 827.217,1333.44 825.5,1335C 808.255,1352.41 791.589,1370.24 775.5,1388.5C 769.001,1379.02 761.668,1370.19 753.5,1362C 750.162,1360.08 746.662,1358.58 743,1357.5C 733.59,1361.84 724.423,1361.34 715.5,1356C 711.402,1352.35 711.735,1349.02 716.5,1346C 725.833,1340.67 735.167,1335.33 744.5,1330C 750.167,1325 755.833,1320 761.5,1315C 825.1,1245.62 880.267,1170.12 927,1088.5C 939.641,1066.57 948.308,1043.24 953,1018.5C 955.909,1011.68 959.576,1005.34 964,999.5C 968.167,992.67 970.5,985.336 971,977.5C 967.458,973.784 963.625,973.618 959.5,977C 956.443,979.723 953.11,982.056 949.5,984C 943.944,985.778 940.11,983.945 938,978.5C 936.473,972.585 936.139,966.585 937,960.5C 939.717,952.732 942.717,945.065 946,937.5C 947.023,933.683 946.523,930.183 944.5,927C 942.5,926.333 940.5,926.333 938.5,927C 932.919,930.914 927.085,934.414 921,937.5C 918.697,936.249 917.364,934.249 917,931.5C 916.547,924.808 916.881,918.141 918,911.5C 922.284,891.916 926.117,872.249 929.5,852.5C 930.211,848.724 928.877,846.057 925.5,844.5C 922.721,845.389 920.055,846.556 917.5,848C 914.113,851.053 910.447,853.72 906.5,856C 904.633,856.711 903.133,856.211 902,854.5C 902.665,838.838 906.332,823.838 913,809.5C 914.325,805.572 914.658,801.572 914,797.5C 911.032,795.009 907.865,794.843 904.5,797C 898.33,801.996 893.33,807.996 889.5,815C 888.216,815.684 887.049,815.517 886,814.5C 880.94,786.115 886.94,760.448 904,737.5C 904.991,735.553 905.325,733.553 905,731.5C 900.252,730.365 895.419,730.198 890.5,731C 885.927,732.968 883.427,736.468 883,741.5C 876.979,748.885 869.646,751.218 861,748.5C 860.246,734.167 865.412,722.334 876.5,713C 883.003,708.914 889.67,705.081 896.5,701.5C 897.386,700.675 897.719,699.675 897.5,698.5C 886.52,697.786 875.52,697.286 864.5,697C 848.668,694.006 835.502,686.506 825,674.5C 821.452,669.118 820.785,663.452 823,657.5C 825.376,653.448 828.543,652.615 832.5,655C 837.167,660 841.833,665 846.5,670C 855.834,675.127 865.834,676.793 876.5,675C 910.929,670.379 938.762,654.546 960,627.5C 964.196,620.716 965.863,613.383 965,605.5C 960.145,599.503 954.645,599.003 948.5,604C 944.759,610.706 939.092,614.706 931.5,616C 924.946,617.081 918.612,616.414 912.5,614C 907.299,610.088 907.299,606.088 912.5,602C 929.5,600.919 941,592.419 947,576.5C 952.623,560.492 954.29,544.159 952,527.5C 950.867,525.789 949.367,525.289 947.5,526C 937.439,533.197 926.439,538.53 914.5,542C 908.19,543.711 901.857,543.878 895.5,542.5C 895.33,541.178 895.663,540.011 896.5,539C 904.766,534.396 912.766,529.396 920.5,524C 932.959,510.025 935.793,494.192 929,476.5C 917.502,453.004 901.002,433.837 879.5,419C 857.794,404.754 834.46,393.754 809.5,386C 795.608,381.145 783.441,373.645 773,363.5C 768.269,355.558 770.436,352.724 779.5,355C 820.868,374.184 861.868,394.184 902.5,415C 915.868,421.61 929.868,423.943 944.5,422C 955.408,418.576 960.741,411.076 960.5,399.5C 960.466,392.497 958.966,385.831 956,379.5C 946.033,360.198 931.866,344.698 913.5,333C 889.978,320.413 867.645,306.079 846.5,290C 840.634,284.469 835.134,278.635 830,272.5C 828.448,250.219 817.281,235.053 796.5,227C 781.125,221.276 767.791,224.276 756.5,236C 753.464,238.006 750.131,238.84 746.5,238.5C 745.593,231.89 747.093,225.89 751,220.5C 765.046,198.475 784.88,190.975 810.5,198C 839.478,205.654 860.644,222.821 874,249.5C 876.849,257.591 878.515,265.924 879,274.5C 888.63,308.231 910.13,319.731 943.5,309C 950.658,305.588 957.658,301.922 964.5,298C 969.101,295.708 973.434,296.042 977.5,299C 982.208,306.733 987.874,313.733 994.5,320C 998.722,323.111 1003.39,324.111 1008.5,323C 1010.98,319.315 1011.14,315.482 1009,311.5C 1002.1,303.928 994.599,297.095 986.5,291C 960.207,270.85 932.874,252.184 904.5,235C 881.088,226.238 860.921,212.738 844,194.5C 841.428,190.338 842.262,187.172 846.5,185C 868.746,186.857 889.746,193.19 909.5,204C 939.165,221.164 968.499,238.83 997.5,257C 1017.86,268.348 1038.86,278.348 1060.5,287C 1062.44,287.908 1063.44,289.408 1063.5,291.5C 1055.28,290.428 1050.62,293.928 1049.5,302C 1051.13,313.226 1055.3,323.392 1062,332.5C 1069.15,340.806 1075.82,349.473 1082,358.5C 1082.67,360.167 1082.67,361.833 1082,363.5C 1078.59,364.622 1075.09,364.789 1071.5,364C 1063.93,361.586 1056.59,358.586 1049.5,355C 1047.55,354.009 1045.55,353.675 1043.5,354C 1050.07,361.239 1057.24,367.739 1065,373.5C 1069.44,377.938 1073.11,382.938 1076,388.5C 1077.02,391.743 1077.52,395.076 1077.5,398.5C 1074.22,413.788 1075.39,428.788 1081,443.5C 1084.61,451.05 1087.94,458.717 1091,466.5C 1093.44,477.058 1089.61,480.558 1079.5,477C 1073.29,473.397 1066.96,470.064 1060.5,467C 1057.76,465.92 1056.1,466.754 1055.5,469.5C 1056.04,471.942 1056.87,474.275 1058,476.5C 1062.63,482.135 1067.63,487.468 1073,492.5C 1080.33,503.136 1085.33,514.803 1088,527.5C 1094.08,554.629 1095.08,581.962 1091,609.5C 1089.89,613.719 1088.22,617.719 1086,621.5C 1079.37,627.426 1076.7,634.759 1078,643.5C 1083.35,650.597 1090.51,654.764 1099.5,656C 1109.17,656.667 1118.83,656.667 1128.5,656C 1137.24,655.538 1144.74,652.371 1151,646.5C 1153.9,640.998 1154.23,635.331 1152,629.5C 1140.9,611.771 1136.4,592.438 1138.5,571.5C 1137.89,546.696 1142.73,523.029 1153,500.5C 1154.75,497.328 1156.75,494.328 1159,491.5C 1164,487.833 1168.33,483.5 1172,478.5C 1175.02,475.377 1176.02,471.71 1175,467.5C 1174.28,466.941 1173.44,466.608 1172.5,466.5C 1164.38,470.125 1156.38,473.958 1148.5,478C 1145.04,479.123 1142.21,478.29 1140,475.5C 1139.33,471.833 1139.33,468.167 1140,464.5C 1144.62,453.602 1148.95,442.602 1153,431.5C 1156.03,420.493 1156.19,409.493 1153.5,398.5C 1153.69,391.793 1155.85,385.793 1160,380.5C 1169.35,371.764 1178.51,362.931 1187.5,354C 1186.5,353.333 1185.5,353.333 1184.5,354C 1175.65,358.061 1166.65,361.727 1157.5,365C 1143.75,367.709 1140.59,362.876 1148,350.5C 1157.67,338.5 1167.33,326.5 1177,314.5C 1179.53,310.779 1181.53,306.779 1183,302.5C 1183.98,299.331 1183.48,296.497 1181.5,294C 1176.93,292.518 1172.26,291.351 1167.5,290.5C 1170.44,287.024 1174.1,284.524 1178.5,283C 1195.79,276.681 1212.46,269.014 1228.5,260C 1255.57,243.269 1282.91,226.935 1310.5,211C 1332.7,199.226 1355.7,189.726 1379.5,182.5 Z"/></g>
<g><path style="opacity:1" fill="#e4e4e4" d="M 1323.5,253.5 C 1333.25,255.444 1337.42,261.444 1336,271.5C 1332.86,283.293 1326.03,292.126 1315.5,298C 1309.66,300.248 1303.99,299.915 1298.5,297C 1293.8,293.219 1293.47,289.219 1297.5,285C 1302.75,282.472 1308.08,280.139 1313.5,278C 1320.83,271.514 1324.16,263.348 1323.5,253.5 Z"/></g>
<g><path style="opacity:1" fill="#e4e4e4" d="M 899.5,254.5 C 901.722,254.178 903.556,254.845 905,256.5C 908.044,261.623 910.711,266.956 913,272.5C 917.512,279.674 924.012,283.507 932.5,284C 936.914,284.748 938.414,287.248 937,291.5C 932.351,298.499 925.851,300.999 917.5,299C 901.915,291.006 894.748,278.173 896,260.5C 896.926,258.308 898.093,256.308 899.5,254.5 Z"/></g>
<g><path style="opacity:1" fill="#e8e8e8" d="M 1991.5,310.5 C 1993.14,310.286 1994.64,310.62 1996,311.5C 1994.96,346.08 1980.79,373.914 1953.5,395C 1920.26,419.296 1884.26,438.963 1845.5,454C 1816.37,466.397 1786.7,477.397 1756.5,487C 1746.35,490.173 1737.35,488.173 1729.5,481C 1714,468.574 1713.67,455.907 1728.5,443C 1737.49,437.003 1747.16,432.337 1757.5,429C 1829.09,415.857 1893.76,387.523 1951.5,344C 1964.72,332.577 1978.05,321.41 1991.5,310.5 Z"/></g>
<g><path style="opacity:1" fill="#e8e8e8" d="M 237.5,314.5 C 242.525,315.845 247.192,318.012 251.5,321C 317.112,375.632 392.112,411.299 476.5,428C 490.579,432.114 502.412,439.614 512,450.5C 517.841,461.7 515.674,471.2 505.5,479C 494.105,488.039 481.439,490.039 467.5,485C 414.037,467.098 362.37,445.098 312.5,419C 291.494,407.245 273.327,392.078 258,373.5C 246.126,356.205 238.793,337.205 236,316.5C 236.717,315.956 237.217,315.289 237.5,314.5 Z"/></g>
<g><path style="opacity:1" fill="#e8e8e8" d="M 254.5,420.5 C 260.221,420.369 265.888,420.869 271.5,422C 276.833,424 282.167,426 287.5,428C 341.872,455.688 397.538,480.355 454.5,502C 467.94,507.127 479.773,514.627 490,524.5C 491.631,526.955 491.797,529.455 490.5,532C 481.752,535.775 472.752,536.442 463.5,534C 401.514,517.996 342.181,495.329 285.5,466C 267.395,463.095 265.728,467.428 280.5,479C 335.155,509.154 392.821,531.821 453.5,547C 471.982,550.635 490.649,552.635 509.5,553C 520.607,555.047 524.774,561.547 522,572.5C 517.595,586.176 510.095,597.676 499.5,607C 487.813,614.54 474.98,618.04 461,617.5C 449.348,617.189 437.848,615.689 426.5,613C 407.207,608.123 388.207,602.456 369.5,596C 387.498,593 405.498,590 423.5,587C 384.203,580.429 346.536,568.762 310.5,552C 285.104,539.051 262.27,522.551 242,502.5C 232.436,492.044 225.436,480.044 221,466.5C 217.603,452.025 221.77,440.192 233.5,431C 240.323,426.922 247.323,423.422 254.5,420.5 Z"/></g>
<g><path style="opacity:1" fill="#e8e8e8" d="M 1965.5,423.5 C 1973.51,423.334 1981.51,423.5 1989.5,424C 2007.89,428.758 2015.39,440.591 2012,459.5C 2008.94,473.283 2002.94,485.616 1994,496.5C 1976.56,516.128 1956.39,532.295 1933.5,545C 1893.46,565.928 1851.12,579.928 1806.5,587C 1824.75,590.319 1843.08,593.319 1861.5,596C 1842.69,602.121 1823.69,607.787 1804.5,613C 1793.04,614.97 1781.54,616.47 1770,617.5C 1749.11,618.717 1732.44,611.05 1720,594.5C 1715.53,587.229 1711.86,579.562 1709,571.5C 1707.29,565.306 1708.79,560.14 1713.5,556C 1717.93,553.855 1722.6,552.522 1727.5,552C 1745.42,552.218 1763.09,550.218 1780.5,546C 1837.72,531.485 1892.38,510.485 1944.5,483C 1950.91,479.555 1956.41,475.055 1961,469.5C 1961.71,467.633 1961.21,466.133 1959.5,465C 1951.78,464.096 1944.45,465.429 1937.5,469C 1914.79,481.911 1891.12,492.911 1866.5,502C 1832.54,515.208 1797.87,526.208 1762.5,535C 1754.52,536.474 1747.02,535.307 1740,531.5C 1739.33,529.833 1739.33,528.167 1740,526.5C 1742.5,522.667 1745.67,519.5 1749.5,517C 1757,512.413 1764.67,508.08 1772.5,504C 1824.55,484.141 1875.55,461.808 1925.5,437C 1938.57,431.365 1951.91,426.865 1965.5,423.5 Z"/></g>
<g><path style="opacity:1" fill="#040404" d="M 963.5,438.5 C 967.514,438.334 971.514,438.501 975.5,439C 978.306,440.305 979.14,442.472 978,445.5C 971.291,453.181 963.124,455.348 953.5,452C 952.424,450.274 952.257,448.441 953,446.5C 955.94,442.963 959.44,440.297 963.5,438.5 Z"/></g>
<g><path style="opacity:1" fill="#050505" d="M 1255.5,438.5 C 1263.61,437.375 1270.78,439.375 1277,444.5C 1279.96,451.657 1277.46,454.657 1269.5,453.5C 1261.57,453.542 1255.91,450.042 1252.5,443C 1253.31,441.357 1254.31,439.857 1255.5,438.5 Z"/></g>
<g><path style="opacity:1" fill="#e8e8e8" d="M 1736.5,628.5 C 1793.01,628.894 1849.68,630.394 1906.5,633C 1928.29,634.16 1949.62,637.826 1970.5,644C 2008.5,662.676 2011.5,686.009 1979.5,714C 1935.9,748.983 1885.9,766.983 1829.5,768C 1792.29,770.709 1755.79,766.875 1720,756.5C 1699.95,748.394 1680.45,739.06 1661.5,728.5C 1675.43,723.245 1689.43,718.078 1703.5,713C 1718.87,706.61 1733.54,698.944 1747.5,690C 1760.54,684.16 1774.21,681.994 1788.5,683.5C 1812.15,684.799 1835.82,685.799 1859.5,686.5C 1878.8,687.769 1897.13,684.269 1914.5,676C 1926.04,669.729 1937.71,663.729 1949.5,658C 1933.88,660.548 1918.21,663.215 1902.5,666C 1864.64,671.504 1826.97,670.504 1789.5,663C 1778.31,660.568 1767.98,656.235 1758.5,650C 1751.3,642.631 1743.96,635.464 1736.5,628.5 Z"/></g>
<g><path style="opacity:1" fill="#e8e8e8" d="M 388.5,628.5 C 423.506,628.167 458.506,628.5 493.5,629.5C 484.423,641.086 473.423,650.253 460.5,657C 445.999,662.501 430.999,665.834 415.5,667C 388.842,670.264 362.175,670.264 335.5,667C 317.374,664.373 299.374,661.373 281.5,658C 295.5,665 309.5,672 323.5,679C 331.541,682.342 339.874,684.676 348.5,686C 363.5,686.667 378.5,686.667 393.5,686C 418.807,683.234 444.14,682.901 469.5,685C 473.489,686.331 477.489,687.665 481.5,689C 509.212,705.687 538.545,718.854 569.5,728.5C 551.076,739.545 531.743,748.711 511.5,756C 449.509,772.618 387.509,772.618 325.5,756C 291.816,743.636 262.316,724.802 237,699.5C 231.196,692.723 227.696,684.89 226.5,676C 228.008,667.493 232.341,660.826 239.5,656C 252.859,648.158 267.193,642.825 282.5,640C 297.359,636.768 312.359,634.434 327.5,633C 347.99,631.529 368.323,630.029 388.5,628.5 Z"/></g>
<g><path style="opacity:1" fill="#060606" d="M 978.5,657.5 C 981.978,657.184 985.312,657.684 988.5,659C 989.749,661.21 989.582,663.376 988,665.5C 977.809,675.011 966.643,683.178 954.5,690C 948.634,695.531 943.134,701.365 938,707.5C 935.714,713.701 933.047,719.701 930,725.5C 928.093,729.01 925.26,730.176 921.5,729C 920.409,726.936 920.242,724.769 921,722.5C 932.111,702.043 946.278,683.876 963.5,668C 968.403,664.248 973.403,660.748 978.5,657.5 Z"/></g>
<g><path style="opacity:1" fill="#060606" d="M 1243.5,657.5 C 1250.58,657.371 1256.92,659.537 1262.5,664C 1282.05,680.204 1297.88,699.371 1310,721.5C 1310.5,724.146 1310.66,726.813 1310.5,729.5C 1307.03,730.125 1304.2,729.125 1302,726.5C 1298.47,719.586 1295.14,712.586 1292,705.5C 1288.87,701.367 1285.37,697.534 1281.5,694C 1268.74,685.535 1256.24,676.702 1244,667.5C 1240.97,664.23 1240.8,660.897 1243.5,657.5 Z"/></g>
<g><path style="opacity:1" fill="#040404" d="M 662.5,689.5 C 667.713,688.762 670.713,690.928 671.5,696C 667.01,704.55 667.51,712.717 673,720.5C 677.673,725.506 682.673,730.172 688,734.5C 688.688,735.332 688.521,735.998 687.5,736.5C 680.55,737.63 673.55,737.797 666.5,737C 651.557,730.551 646.391,719.384 651,703.5C 653.595,697.746 657.428,693.079 662.5,689.5 Z"/></g>
<g><path style="opacity:1" fill="#050505" d="M 1560.5,690.5 C 1570.26,690.459 1576.43,695.126 1579,704.5C 1579.7,728.625 1567.87,739.625 1543.5,737.5C 1543.35,736.448 1543.52,735.448 1544,734.5C 1550,729.833 1555.33,724.5 1560,718.5C 1561.35,715.289 1562.18,711.956 1562.5,708.5C 1561.6,703.979 1560.6,699.479 1559.5,695C 1559.61,693.408 1559.94,691.908 1560.5,690.5 Z"/></g>
<g><path style="opacity:1" fill="#040404" d="M 960.5,699.5 C 961.496,699.414 962.329,699.748 963,700.5C 962.37,715.251 960.703,729.917 958,744.5C 957.501,749.823 957.334,755.156 957.5,760.5C 959.199,760.66 960.866,760.494 962.5,760C 967.657,755.922 972.99,752.088 978.5,748.5C 979.478,748.977 980.311,749.643 981,750.5C 980.789,758.325 980.289,766.158 979.5,774C 978.189,786.023 983.523,791.356 995.5,790C 999.635,793.091 1002.14,797.258 1003,802.5C 1004.09,810.348 1003.42,818.015 1001,825.5C 1000.26,826.574 999.261,827.241 998,827.5C 991.808,824.317 986.475,819.984 982,814.5C 977.504,808.844 973.504,802.844 970,796.5C 966.809,789.057 964.476,781.391 963,773.5C 959.29,771.423 955.457,769.59 951.5,768C 947.762,762.79 945.595,756.956 945,750.5C 943.731,740.25 944.731,730.25 948,720.5C 951.675,713.142 955.841,706.142 960.5,699.5 Z"/></g>
<g><path style="opacity:1" fill="#040404" d="M 1268.5,701.5 C 1279.99,714.397 1286.99,729.564 1289.5,747C 1290.05,758.78 1284.72,766.447 1273.5,770C 1272,771.5 1270.5,773 1269,774.5C 1264.61,794.779 1254.44,811.612 1238.5,825C 1233.32,829.163 1230.15,827.996 1229,821.5C 1227.61,813.542 1227.28,805.542 1228,797.5C 1229.02,792.476 1232.02,789.476 1237,788.5C 1240.14,789.426 1243.31,789.592 1246.5,789C 1248.67,788.167 1250.17,786.667 1251,784.5C 1251.27,772.825 1251.27,761.158 1251,749.5C 1252.05,748.483 1253.22,748.316 1254.5,749C 1259.78,753.456 1265.45,757.289 1271.5,760.5C 1272.65,760.182 1273.48,759.516 1274,758.5C 1272.69,739.462 1270.85,720.462 1268.5,701.5 Z"/></g>
<g><path style="opacity:1" fill="#040404" d="M 796.5,755.5 C 804.482,759.983 810.649,766.317 815,774.5C 817.562,780.295 816.728,785.462 812.5,790C 805.451,790.708 800.951,787.541 799,780.5C 795.695,772.351 794.862,764.017 796.5,755.5 Z"/></g>
<g><path style="opacity:1" fill="#e6e6e6" d="M 858.5,770.5 C 860.39,770.297 861.89,770.963 863,772.5C 864,774.5 865,776.5 866,778.5C 866.926,804.314 871.926,829.314 881,853.5C 894.132,881.027 901.465,910.027 903,940.5C 904.274,944.99 905.941,949.323 908,953.5C 914.159,960.291 917.826,968.291 919,977.5C 921.969,995.443 919.969,1012.78 913,1029.5C 904.603,1036.37 896.603,1035.71 889,1027.5C 885.891,1023.31 884.891,1018.65 886,1013.5C 886.5,1012.33 887.333,1011.5 888.5,1011C 897.598,1010.76 906.598,1011.42 915.5,1013C 911.186,1009.18 906.519,1005.84 901.5,1003C 898.707,999.919 896.54,996.419 895,992.5C 894.706,983.963 895.206,975.463 896.5,967C 896.832,962.56 895.999,958.394 894,954.5C 888.852,951.579 885.852,953.245 885,959.5C 884.667,965.167 884.333,970.833 884,976.5C 883.275,978.158 882.108,978.658 880.5,978C 873.333,968.167 866.167,958.333 859,948.5C 848.729,936.946 836.229,928.779 821.5,924C 811.419,915.716 808.585,905.549 813,893.5C 815.251,889.874 818.418,888.707 822.5,890C 839.012,898.502 853.178,910.002 865,924.5C 867.564,928.462 869.731,932.629 871.5,937C 873.167,937.667 874.833,937.667 876.5,937C 880.752,933.419 884.252,929.252 887,924.5C 887.79,921.366 887.457,918.366 886,915.5C 883.833,913.333 881.667,911.167 879.5,909C 869.223,902.389 859.223,895.389 849.5,888C 841.14,881.315 835.64,872.815 833,862.5C 832.304,858.095 832.637,853.761 834,849.5C 839.503,838.161 844.17,826.495 848,814.5C 850.421,803.264 852.087,791.931 853,780.5C 854.07,776.689 855.903,773.356 858.5,770.5 Z"/></g>
<g><path style="opacity:1" fill="#070707" d="M 1438.5,773.5 C 1440.91,773.137 1442.41,774.137 1443,776.5C 1443.07,785.912 1441.07,794.912 1437,803.5C 1431.92,808.991 1427.59,808.324 1424,801.5C 1422.52,798.298 1422.18,794.964 1423,791.5C 1426.56,784.001 1431.73,778.001 1438.5,773.5 Z"/></g>
<g><path style="opacity:1" fill="#e8e8e8" d="M 465.5,780.5 C 488.966,775.482 505.466,783.815 515,805.5C 516.974,813.051 514.474,818.551 507.5,822C 504.167,823.667 500.833,825.333 497.5,827C 470.564,836.534 443.564,845.868 416.5,855C 409.027,857.902 402.027,861.569 395.5,866C 398.833,866.667 402.167,866.667 405.5,866C 414.828,863.668 424.162,861.335 433.5,859C 462.047,849.929 490.713,841.262 519.5,833C 531.498,829.667 543.498,829.667 555.5,833C 567.489,836.996 579.489,840.996 591.5,845C 591.957,845.414 592.291,845.914 592.5,846.5C 583.317,855.849 574.317,865.349 565.5,875C 548.107,889.373 528.774,900.706 507.5,909C 439.486,936.447 368.819,948.78 295.5,946C 277.244,945.276 260.577,939.943 245.5,930C 237.494,921.947 235.327,912.447 239,901.5C 243.908,890.922 250.741,881.755 259.5,874C 268.218,866.948 277.218,860.281 286.5,854C 317.57,838.476 346.237,819.476 372.5,797C 380.262,792.413 388.595,789.413 397.5,788C 420.231,784.721 442.898,782.221 465.5,780.5 Z"/></g>
<g><path style="opacity:1" fill="#e6e6e6" d="M 692.5,780.5 C 698.208,779.69 703.208,781.19 707.5,785C 716.802,791.965 724.302,800.465 730,810.5C 733.652,821.869 729.486,828.369 717.5,830C 711.833,830.667 706.167,830.667 700.5,830C 685.284,826.779 670.284,822.779 655.5,818C 667.421,804.914 679.754,792.414 692.5,780.5 Z"/></g>
<g><path style="opacity:1" fill="#e8e8e8" d="M 1756.5,781.5 C 1786.19,779.667 1815.19,783.167 1843.5,792C 1849.74,794.117 1855.74,796.784 1861.5,800C 1887.68,821.485 1916.01,839.818 1946.5,855C 1961,864.181 1973.84,875.347 1985,888.5C 2000.36,908.894 1996.86,925.06 1974.5,937C 1961.97,942.033 1948.97,945.033 1935.5,946C 1859.46,949.258 1786.46,935.924 1716.5,906C 1700.18,898.513 1684.85,889.513 1670.5,879C 1659.29,868.288 1648.62,857.121 1638.5,845.5C 1653.76,839.358 1669.43,834.525 1685.5,831C 1694.26,830.347 1702.92,831.014 1711.5,833C 1740.03,841.066 1768.36,849.733 1796.5,859C 1806.21,861.177 1815.87,863.51 1825.5,866C 1828.88,866.824 1832.22,866.657 1835.5,865.5C 1828.96,861.15 1821.96,857.65 1814.5,855C 1787.43,845.864 1760.43,836.531 1733.5,827C 1712.19,818.833 1709.85,806.833 1726.5,791C 1729.55,788.806 1732.89,787.139 1736.5,786C 1743.3,784.464 1749.97,782.964 1756.5,781.5 Z"/></g>
<g><path style="opacity:1" fill="#e6e6e6" d="M 1378.5,786.5 C 1382.12,787.962 1384.62,790.628 1386,794.5C 1386.75,811.681 1390.09,828.347 1396,844.5C 1400.16,851.816 1403.49,859.483 1406,867.5C 1408.01,878.471 1405.34,888.138 1398,896.5C 1386.68,906.82 1374.52,915.987 1361.5,924C 1358.67,926.833 1355.83,929.667 1353,932.5C 1351.63,934.695 1351.29,937.029 1352,939.5C 1354.35,944.858 1357.85,949.358 1362.5,953C 1364.04,954.187 1365.71,954.52 1367.5,954C 1378.86,932.973 1395.19,916.973 1416.5,906C 1418.5,905.333 1420.5,905.333 1422.5,906C 1428.22,910.884 1430.05,917.05 1428,924.5C 1426.84,930.326 1424,935.159 1419.5,939C 1403.56,944.556 1390.06,953.722 1379,966.5C 1372.29,976.088 1365.46,985.588 1358.5,995C 1357.26,995.456 1356.42,994.956 1356,993.5C 1355.77,986.782 1355.11,980.115 1354,973.5C 1351.81,969.128 1348.81,968.461 1345,971.5C 1343.3,975.135 1342.47,978.968 1342.5,983C 1344.64,992.829 1344.81,1002.66 1343,1012.5C 1340.87,1015.63 1338.37,1018.46 1335.5,1021C 1331.55,1023.28 1327.89,1025.95 1324.5,1029C 1333.08,1027.55 1341.74,1026.89 1350.5,1027C 1351.42,1027.37 1352.25,1027.87 1353,1028.5C 1354.24,1043.93 1347.07,1051.1 1331.5,1050C 1329.71,1049.22 1328.21,1048.05 1327,1046.5C 1321.05,1035.09 1318.55,1022.92 1319.5,1010C 1318.91,999.059 1320.74,988.559 1325,978.5C 1333.37,968.4 1338.04,956.733 1339,943.5C 1339.31,925.926 1342.64,908.926 1349,892.5C 1363.76,861.121 1372.09,828.121 1374,793.5C 1375.01,790.798 1376.51,788.465 1378.5,786.5 Z"/></g>
<g><path style="opacity:0.02" fill="#a2a2a2" d="M 1883.5,794.5 C 1883.83,795.167 1884.17,795.833 1884.5,796.5C 1881.54,795.968 1881.21,795.301 1883.5,794.5 Z"/></g>
<g><path style="opacity:1" fill="#e7e7e7" d="M 1537.5,796.5 C 1544.24,795.87 1549.91,798.036 1554.5,803C 1564.17,813.333 1573.83,823.667 1583.5,834C 1569.96,838.737 1556.29,843.07 1542.5,847C 1535.21,848.353 1527.87,848.686 1520.5,848C 1509.56,844.509 1506.4,837.342 1511,826.5C 1517.55,814.448 1526.39,804.448 1537.5,796.5 Z"/></g>
<g><path style="opacity:1" fill="#060606" d="M 1024.5,820.5 C 1025.5,820.414 1026.33,820.748 1027,821.5C 1030.2,834.833 1028.53,847.5 1022,859.5C 1020.97,862.033 1019.13,863.699 1016.5,864.5C 1015.91,864.291 1015.41,863.957 1015,863.5C 1013.59,848.15 1016.75,833.817 1024.5,820.5 Z"/></g>
<g><path style="opacity:1" fill="#040404" d="M 1202.5,820.5 C 1208.07,825.28 1211.9,831.28 1214,838.5C 1216.33,847.369 1216.99,856.369 1216,865.5C 1215.59,865.957 1215.09,866.291 1214.5,866.5C 1207.69,858.869 1203.52,849.869 1202,839.5C 1201.21,833.085 1201.38,826.752 1202.5,820.5 Z"/></g>
<g><path style="opacity:1" fill="#e8e8e8" d="M 649.5,831.5 C 665.743,835.142 682.076,838.642 698.5,842C 704.522,843.007 710.189,845.007 715.5,848C 719.188,850.542 720.854,854.042 720.5,858.5C 720.449,862.821 719.282,866.821 717,870.5C 691.792,907.02 656.958,924.187 612.5,922C 591.744,917.308 584.244,904.808 590,884.5C 604.115,860.207 623.949,842.541 649.5,831.5 Z"/></g>
<g><path style="opacity:1" fill="#090909" d="M 1169.5,837.5 C 1172.96,838.436 1175.79,840.436 1178,843.5C 1183.86,850.376 1188.52,858.043 1192,866.5C 1192.76,868.769 1192.59,870.936 1191.5,873C 1183.82,871.685 1177.99,867.519 1174,860.5C 1169.45,853.333 1167.95,845.666 1169.5,837.5 Z"/></g>
<g><path style="opacity:1" fill="#080808" d="M 1056.5,838.5 C 1058.59,838.561 1060.09,839.561 1061,841.5C 1060.94,854.129 1056.1,864.629 1046.5,873C 1044.53,873.495 1042.53,873.662 1040.5,873.5C 1041.79,859.925 1047.12,848.259 1056.5,838.5 Z"/></g>
<g><path style="opacity:1" fill="#e7e7e7" d="M 767.5,843.5 C 776.839,843.334 786.173,843.5 795.5,844C 800.713,844.253 805.213,846.086 809,849.5C 808.524,854.951 807.191,860.284 805,865.5C 805.417,874.056 802.584,881.222 796.5,887C 780.455,897.913 763.455,899.913 745.5,893C 731.871,883.01 730.038,871.176 740,857.5C 747.814,850.01 756.981,845.344 767.5,843.5 Z"/></g>
<g><path style="opacity:1" fill="#e8e8e8" d="M 1579.5,846.5 C 1601.23,844.575 1620.06,850.908 1636,865.5C 1637.86,867.888 1639.19,870.554 1640,873.5C 1641.35,881.647 1642.52,889.813 1643.5,898C 1642.56,910.288 1636.23,918.622 1624.5,923C 1577.27,936.63 1542.1,921.796 1519,878.5C 1516.3,870.209 1518.8,864.376 1526.5,861C 1545.33,860.044 1563,855.211 1579.5,846.5 Z"/></g>
<g><path style="opacity:1" fill="#e8e8e8" d="M 1438.5,860.5 C 1455.17,860.333 1471.84,860.5 1488.5,861C 1495.18,861.58 1499.35,865.08 1501,871.5C 1505.59,907.92 1490.42,920.753 1455.5,910C 1447.88,907.368 1441.72,902.868 1437,896.5C 1435.6,886.825 1433.43,877.325 1430.5,868C 1430.56,866.564 1430.89,865.231 1431.5,864C 1433.93,862.787 1436.26,861.621 1438.5,860.5 Z"/></g>
<g><path style="opacity:1" fill="#050505" d="M 1137.5,863.5 C 1139.65,863.372 1141.65,863.872 1143.5,865C 1151.86,872.691 1158.7,881.524 1164,891.5C 1164.5,893.81 1164.66,896.143 1164.5,898.5C 1153.36,897.208 1144.19,892.208 1137,883.5C 1132.22,876.605 1132.38,869.939 1137.5,863.5 Z"/></g>
<g><path style="opacity:1" fill="#040404" d="M 1087.5,864.5 C 1092.45,864.267 1095.62,866.601 1097,871.5C 1097.74,875.402 1097.07,879.068 1095,882.5C 1088.95,889.216 1081.78,894.383 1073.5,898C 1071.5,898.667 1069.5,898.667 1067.5,898C 1066.45,896.612 1066.28,895.112 1067,893.5C 1071.79,882.241 1078.62,872.575 1087.5,864.5 Z"/></g>
<g><path style="opacity:1" fill="#e8e8e8" d="M 723.5,904.5 C 741.967,909.95 760.634,914.784 779.5,919C 785.6,922.699 787.1,927.866 784,934.5C 771.345,956.155 753.845,972.655 731.5,984C 718.508,989.895 705.175,990.895 691.5,987C 677.062,979.959 671.229,968.459 674,952.5C 684.826,930.505 701.326,914.505 723.5,904.5 Z"/></g>
<g><path style="opacity:1" fill="#e9e9e9" d="M 558.5,906.5 C 561.972,906.126 564.972,907.126 567.5,909.5C 576.951,924.12 589.618,934.953 605.5,942C 607.984,944.284 608.151,946.784 606,949.5C 600.429,955.742 594.262,961.242 587.5,966C 556.712,986.12 527.045,1007.79 498.5,1031C 494.132,1035.03 490.132,1039.37 486.5,1044C 488.167,1044.67 489.833,1044.67 491.5,1044C 499.819,1040.18 507.819,1035.84 515.5,1031C 550.167,1008.33 584.833,985.667 619.5,963C 625.675,959.412 632.009,956.078 638.5,953C 641.923,951.096 645.59,950.263 649.5,950.5C 649.715,956.029 650.882,961.362 653,966.5C 656.667,975.167 660.333,983.833 664,992.5C 665.025,1000.73 663.359,1008.4 659,1015.5C 652.583,1025.25 644.749,1033.75 635.5,1041C 614.57,1056.58 592.57,1070.58 569.5,1083C 508.303,1115.27 445.636,1144.27 381.5,1170C 370.258,1173.64 358.924,1176.98 347.5,1180C 339.221,1181.36 330.888,1182.19 322.5,1182.5C 303.128,1183.13 293.128,1173.79 292.5,1154.5C 292.869,1142.56 296.702,1131.89 304,1122.5C 357.171,1056.99 417.671,999.488 485.5,950C 510.889,936.984 535.222,922.484 558.5,906.5 Z"/></g>
<g><path style="opacity:1" fill="#e9e9e9" d="M 1663.5,912.5 C 1673.2,912.34 1682.53,914.173 1691.5,918C 1706.15,924.988 1720.15,932.988 1733.5,942C 1796.28,986.869 1854.11,1037.7 1907,1094.5C 1919.84,1109.03 1929.84,1125.36 1937,1143.5C 1940.27,1160.8 1933.77,1172.63 1917.5,1179C 1904.34,1184.51 1891.01,1184.84 1877.5,1180C 1837.7,1165.93 1798.7,1149.93 1760.5,1132C 1712.76,1110.89 1666.43,1087.23 1621.5,1061C 1607.97,1052.4 1594.97,1043.07 1582.5,1033C 1577.1,1028.1 1573.1,1022.27 1570.5,1015.5C 1571.73,1012.76 1573.56,1010.43 1576,1008.5C 1577.93,1005.05 1579.26,1001.39 1580,997.5C 1581.97,984.248 1582.97,970.915 1583,957.5C 1583.56,954.001 1585.56,952.334 1589,952.5C 1598,955.083 1606.5,958.916 1614.5,964C 1648.32,986.748 1682.66,1008.75 1717.5,1030C 1753.32,1049.77 1755.32,1047.1 1723.5,1022C 1698.11,1003.61 1672.44,985.611 1646.5,968C 1639.04,962.207 1631.87,956.041 1625,949.5C 1622.85,946.784 1623.02,944.284 1625.5,942C 1639.5,936.33 1650.83,927.33 1659.5,915C 1661.07,914.392 1662.4,913.558 1663.5,912.5 Z"/></g>
<g><path style="opacity:1" fill="#e8e8e8" d="M 1511.5,918.5 C 1514.52,918.335 1517.52,918.502 1520.5,919C 1532.56,928.059 1543.73,938.226 1554,949.5C 1558.09,954.673 1561.42,960.34 1564,966.5C 1567.99,984.35 1561.49,996.85 1544.5,1004C 1533.31,1006.42 1522.31,1005.76 1511.5,1002C 1502.64,997.795 1494.31,992.795 1486.5,987C 1479.67,980.167 1472.83,973.333 1466,966.5C 1461.25,960.673 1457.25,954.34 1454,947.5C 1452.35,942.063 1453.85,937.897 1458.5,935C 1468.46,933.181 1478.46,931.515 1488.5,930C 1497.06,927.718 1504.73,923.884 1511.5,918.5 Z"/></g>
<g><path style="opacity:1" fill="#e7e7e7" d="M 818.5,947.5 C 823.971,947.491 828.971,948.991 833.5,952C 838.948,958.395 843.781,965.228 848,972.5C 853.051,979.241 859.718,982.908 868,983.5C 868.667,985.5 868.667,987.5 868,989.5C 857.426,999.539 844.926,1006.04 830.5,1009C 822.548,1010.44 814.548,1010.78 806.5,1010C 788.26,1006.02 782.093,995.186 788,977.5C 794.769,963.897 804.935,953.897 818.5,947.5 Z"/></g>
<g><path style="opacity:0.016" fill="#b0b0b0" d="M 420.5,953.5 C 422.693,952.203 425.027,952.203 427.5,953.5C 427.376,954.107 427.043,954.44 426.5,954.5C 424.735,953.539 422.735,953.205 420.5,953.5 Z"/></g>
<g><path style="opacity:1" fill="#e7e7e7" d="M 1409.5,963.5 C 1422.57,962.948 1433.07,967.948 1441,978.5C 1446.02,984.536 1450.02,991.203 1453,998.5C 1455.24,1013.86 1448.74,1023.02 1433.5,1026C 1410.19,1028.12 1389.69,1021.62 1372,1006.5C 1370.7,1004.64 1370.37,1002.64 1371,1000.5C 1380.13,999.76 1387.13,995.426 1392,987.5C 1395.4,981.035 1399.07,974.702 1403,968.5C 1405.35,966.97 1407.52,965.303 1409.5,963.5 Z"/></g>
<g><path style="opacity:1" fill="#e8e8e8" d="M 740.5,1001.5 C 743.518,1001.34 746.518,1001.5 749.5,1002C 754.949,1005.24 755.782,1009.41 752,1014.5C 716.042,1057.46 679.708,1100.13 643,1142.5C 634.333,1153.83 625.667,1165.17 617,1176.5C 615.519,1179.11 614.352,1181.78 613.5,1184.5C 616.223,1183.65 618.89,1182.48 621.5,1181C 630.637,1172.86 639.47,1164.36 648,1155.5C 682.365,1115.8 718.198,1077.3 755.5,1040C 762.011,1033.83 769.344,1028.83 777.5,1025C 790.701,1023.77 797.701,1029.77 798.5,1043C 797.628,1052.29 795.128,1061.12 791,1069.5C 778.46,1092.58 763.46,1113.92 746,1133.5C 706.676,1177.52 662.176,1215.02 612.5,1246C 593.318,1258.06 572.651,1266.39 550.5,1271C 519.496,1274.99 504.996,1261.49 507,1230.5C 509.135,1220.09 512.468,1210.09 517,1200.5C 524.215,1187.96 532.215,1175.96 541,1164.5C 578.656,1120.84 620.156,1081.34 665.5,1046C 681.287,1034.22 697.621,1023.22 714.5,1013C 722.914,1008.29 731.581,1004.45 740.5,1001.5 Z"/></g>
<g><path style="opacity:1" fill="#e7e7e7" d="M 858.5,1018.5 C 862.182,1017.73 864.682,1019.06 866,1022.5C 868.43,1036.13 873.763,1048.47 882,1059.5C 883.227,1065.88 881.061,1070.71 875.5,1074C 861.205,1081.33 846.205,1083.33 830.5,1080C 822.085,1075.65 819.252,1068.82 822,1059.5C 825.337,1052.15 829.671,1045.48 835,1039.5C 842.73,1032.26 850.563,1025.26 858.5,1018.5 Z"/></g>
<g><path style="opacity:1" fill="#e8e8e8" d="M 1492.5,1018.5 C 1503.68,1018.06 1514.34,1020.22 1524.5,1025C 1558.86,1042.38 1590.2,1064.04 1618.5,1090C 1650.62,1117.78 1678.79,1148.94 1703,1183.5C 1712.45,1198.06 1719.45,1213.73 1724,1230.5C 1728.24,1252.22 1719.74,1265.72 1698.5,1271C 1683.45,1272.32 1669.12,1269.66 1655.5,1263C 1632.23,1252.37 1610.23,1239.7 1589.5,1225C 1549.02,1196.2 1511.85,1163.37 1478,1126.5C 1463.66,1110.82 1451.66,1093.49 1442,1074.5C 1438.75,1066.8 1437.75,1058.8 1439,1050.5C 1445.5,1040.68 1454.33,1037.84 1465.5,1042C 1474.4,1047.57 1482.73,1053.9 1490.5,1061C 1527.86,1098.69 1565.53,1136.03 1603.5,1173C 1608.07,1177.41 1613.07,1181.24 1618.5,1184.5C 1618.83,1184.17 1619.17,1183.83 1619.5,1183.5C 1614.92,1175.42 1609.75,1167.76 1604,1160.5C 1573.82,1123.65 1541.48,1088.65 1507,1055.5C 1503.67,1051.5 1500.33,1047.5 1497,1043.5C 1493.55,1038.94 1490.89,1033.94 1489,1028.5C 1487.58,1024.08 1488.75,1020.75 1492.5,1018.5 Z"/></g>
<g><path style="opacity:1" fill="#e6e6e6" d="M 1375.5,1039.5 C 1394.16,1040.31 1407.33,1049.31 1415,1066.5C 1417.02,1076.49 1412.86,1081.99 1402.5,1083C 1383.66,1084.17 1364.99,1082.83 1346.5,1079C 1342.82,1078.72 1339.49,1077.55 1336.5,1075.5C 1344.62,1072.51 1352.62,1069.01 1360.5,1065C 1365.91,1060.01 1369.08,1053.85 1370,1046.5C 1370.97,1043.38 1372.8,1041.05 1375.5,1039.5 Z"/></g>
<g><path style="opacity:1" fill="#050505" d="M 967.5,1080.5 C 971.24,1079.74 972.907,1081.24 972.5,1085C 971.89,1091.27 970.723,1097.44 969,1103.5C 968.333,1107.17 968.333,1110.83 969,1114.5C 970.231,1115.11 971.564,1115.44 973,1115.5C 976.647,1115.01 980.147,1114.01 983.5,1112.5C 985.5,1112.5 986.5,1113.5 986.5,1115.5C 982.969,1129.74 975.969,1141.9 965.5,1152C 962.094,1153.24 960.427,1152.07 960.5,1148.5C 962.377,1142.98 962.877,1137.31 962,1131.5C 959.73,1126.9 957.063,1122.57 954,1118.5C 952,1113.17 952,1107.83 954,1102.5C 957.257,1094.3 961.757,1086.97 967.5,1080.5 Z"/></g>
<g><path style="opacity:1" fill="#060606" d="M 1259.5,1080.5 C 1263.15,1080.62 1265.98,1082.29 1268,1085.5C 1272.11,1091.39 1275.45,1097.72 1278,1104.5C 1278.67,1108.5 1278.67,1112.5 1278,1116.5C 1275.01,1121.8 1272.01,1127.13 1269,1132.5C 1268.33,1135.83 1268.33,1139.17 1269,1142.5C 1270.88,1144.91 1271.55,1147.58 1271,1150.5C 1269.87,1152.21 1268.37,1152.71 1266.5,1152C 1263.7,1150.21 1261.2,1148.04 1259,1145.5C 1252,1135.85 1247.5,1125.18 1245.5,1113.5C 1249.75,1113.64 1253.92,1114.31 1258,1115.5C 1259.44,1115.44 1260.77,1115.11 1262,1114.5C 1262.67,1110.5 1262.67,1106.5 1262,1102.5C 1259.64,1095.23 1258.8,1087.89 1259.5,1080.5 Z"/></g>
<g><path style="opacity:1" fill="#090909" d="M 1285.5,1082.5 C 1287.65,1082.37 1289.65,1082.87 1291.5,1084C 1298.8,1091.17 1300.13,1099.17 1295.5,1108C 1290.54,1108.4 1287.04,1106.23 1285,1101.5C 1282.75,1096.36 1282.09,1091.03 1283,1085.5C 1283.7,1084.31 1284.53,1083.31 1285.5,1082.5 Z"/></g>
<g><path style="opacity:1" fill="#e7e7e7" d="M 818.5,1094.5 C 827.788,1092.75 834.955,1095.75 840,1103.5C 840.667,1105.17 840.667,1106.83 840,1108.5C 836.388,1118.39 831.721,1127.72 826,1136.5C 813.42,1153.99 801.087,1171.66 789,1189.5C 784.895,1195.66 782.062,1202.32 780.5,1209.5C 782.783,1209.39 784.783,1208.56 786.5,1207C 807.166,1185.68 826.333,1163.18 844,1139.5C 854.167,1126.67 865.667,1115.17 878.5,1105C 886.079,1101.92 888.579,1104.42 886,1112.5C 867.288,1161.12 838.788,1202.95 800.5,1238C 787.895,1249.64 773.229,1257.64 756.5,1262C 741.727,1262.05 735.061,1254.55 736.5,1239.5C 736.307,1233.03 737.14,1226.7 739,1220.5C 749.468,1186.57 764.468,1154.9 784,1125.5C 793.23,1112.43 804.73,1102.09 818.5,1094.5 Z"/></g>
<g><path style="opacity:1" fill="#e7e7e7" d="M 1400.5,1095.5 C 1409.16,1094.5 1417.16,1096.33 1424.5,1101C 1436.45,1110.28 1446.28,1121.45 1454,1134.5C 1469.21,1158.26 1481.21,1183.59 1490,1210.5C 1494.97,1225.34 1495.64,1240.34 1492,1255.5C 1487.76,1263.95 1480.93,1267.12 1471.5,1265C 1461.53,1261.68 1452.53,1256.68 1444.5,1250C 1411.84,1218.69 1383.68,1183.86 1360,1145.5C 1355.45,1137.07 1351.45,1128.41 1348,1119.5C 1347.33,1114.83 1347.33,1110.17 1348,1105.5C 1351.46,1103.99 1354.62,1104.49 1357.5,1107C 1363.64,1113.14 1369.81,1119.31 1376,1125.5C 1394.96,1149.46 1414.29,1173.12 1434,1196.5C 1438.56,1202.25 1444.06,1206.59 1450.5,1209.5C 1449.48,1203.46 1447.32,1197.79 1444,1192.5C 1431.72,1173.89 1419.06,1155.56 1406,1137.5C 1401.16,1129.82 1396.82,1121.82 1393,1113.5C 1391.6,1109.93 1391.26,1106.26 1392,1102.5C 1394.44,1099.55 1397.27,1097.21 1400.5,1095.5 Z"/></g>
<g><path style="opacity:1" fill="#040404" d="M 989.5,1200.5 C 997.508,1200.45 999.674,1204.12 996,1211.5C 987.275,1223.23 977.442,1234.06 966.5,1244C 961.945,1247.45 956.945,1250.11 951.5,1252C 948.01,1254.91 944.344,1257.58 940.5,1260C 928.462,1271.04 916.129,1281.71 903.5,1292C 900.928,1294.29 897.928,1295.45 894.5,1295.5C 893.273,1284.77 896.94,1275.94 905.5,1269C 909.126,1266.47 913.126,1264.81 917.5,1264C 919,1262.5 920.5,1261 922,1259.5C 926.381,1250.36 930.381,1241.03 934,1231.5C 934.689,1230.64 935.522,1229.98 936.5,1229.5C 938.221,1232.22 940.554,1234.22 943.5,1235.5C 945.61,1234.95 947.61,1234.11 949.5,1233C 957.136,1226.36 964.47,1219.36 971.5,1212C 977.056,1207.39 983.056,1203.56 989.5,1200.5 Z"/></g>
<g><path style="opacity:1" fill="#e7e7e7" d="M 1072.5,1200.5 C 1081.26,1211.15 1088.76,1222.81 1095,1235.5C 1098.63,1244.3 1100.46,1253.47 1100.5,1263C 1099.17,1274.55 1099.34,1286.05 1101,1297.5C 1103.88,1298.91 1105.55,1301.24 1106,1304.5C 1106.33,1319.5 1106.67,1334.5 1107,1349.5C 1107.51,1354.04 1109.01,1358.2 1111.5,1362C 1114.17,1364 1116.83,1364 1119.5,1362C 1121.82,1358.9 1123.32,1355.4 1124,1351.5C 1124.33,1336.5 1124.67,1321.5 1125,1306.5C 1127.33,1301.17 1129.67,1295.83 1132,1290.5C 1132.75,1281.26 1132.25,1272.09 1130.5,1263C 1131.01,1250.46 1134.18,1238.63 1140,1227.5C 1145.75,1218.33 1151.75,1209.33 1158,1200.5C 1160.81,1209.4 1163.48,1218.4 1166,1227.5C 1170.91,1237.66 1176.58,1247.33 1183,1256.5C 1191.38,1266.55 1199.38,1276.88 1207,1287.5C 1210.24,1292.88 1212.91,1298.54 1215,1304.5C 1215.79,1308.93 1215.46,1313.26 1214,1317.5C 1212.13,1318.67 1210.3,1318.51 1208.5,1317C 1199.48,1306.45 1191.31,1295.29 1184,1283.5C 1182.83,1282.33 1181.67,1281.17 1180.5,1280C 1179.67,1279.31 1179,1279.48 1178.5,1280.5C 1181.66,1293.16 1184.83,1305.82 1188,1318.5C 1189.99,1326.07 1190.99,1333.74 1191,1341.5C 1190.28,1342.45 1189.45,1342.62 1188.5,1342C 1184.88,1336.71 1180.88,1331.71 1176.5,1327C 1173.89,1325.11 1171.06,1323.61 1168,1322.5C 1167.23,1322.64 1166.56,1322.98 1166,1323.5C 1165.33,1325.83 1165.33,1328.17 1166,1330.5C 1169,1336.17 1172,1341.83 1175,1347.5C 1175.82,1350.96 1175.48,1354.3 1174,1357.5C 1167,1363.17 1160.67,1369.5 1155,1376.5C 1150.17,1384.49 1147.84,1393.15 1148,1402.5C 1147.99,1411.01 1143.83,1414.68 1135.5,1413.5C 1130.83,1413.17 1126.16,1412.83 1121.5,1412.5C 1122.14,1416.78 1123.64,1420.78 1126,1424.5C 1133.86,1434.23 1139.03,1445.23 1141.5,1457.5C 1141.28,1467.22 1136.28,1472.72 1126.5,1474C 1119.17,1474.67 1111.83,1474.67 1104.5,1474C 1093.86,1471.71 1089.03,1465.21 1090,1454.5C 1090.93,1450.36 1092.27,1446.36 1094,1442.5C 1099.75,1433.33 1105.25,1424 1110.5,1414.5C 1110.29,1413.91 1109.96,1413.41 1109.5,1413C 1107.83,1412.83 1106.17,1412.67 1104.5,1412.5C 1099.18,1413.36 1093.85,1413.53 1088.5,1413C 1087.33,1411.83 1086.17,1410.67 1085,1409.5C 1085.05,1398.15 1082.38,1387.48 1077,1377.5C 1071.33,1370.5 1065,1364.17 1058,1358.5C 1055.83,1355.45 1055.16,1352.12 1056,1348.5C 1058.41,1343.34 1061.08,1338.34 1064,1333.5C 1065.37,1330.26 1065.7,1326.93 1065,1323.5C 1062.35,1322.54 1059.85,1323.04 1057.5,1325C 1051.59,1330.41 1046.25,1336.24 1041.5,1342.5C 1040.34,1338.54 1040.17,1334.54 1041,1330.5C 1043.88,1315.31 1047.55,1300.31 1052,1285.5C 1052.81,1283.42 1052.64,1281.42 1051.5,1279.5C 1043.12,1289.72 1035.29,1300.39 1028,1311.5C 1018.72,1321.61 1014.72,1319.61 1016,1305.5C 1019.73,1295.45 1024.73,1286.12 1031,1277.5C 1044.21,1263.41 1055.21,1247.74 1064,1230.5C 1067.77,1220.76 1070.6,1210.76 1072.5,1200.5 Z"/></g>
<g><path style="opacity:1" fill="#030303" d="M 1235.5,1201.5 C 1242.22,1201.02 1248.22,1202.85 1253.5,1207C 1261.47,1213.97 1269.14,1221.3 1276.5,1229C 1279.23,1231.39 1282.23,1233.39 1285.5,1235C 1289.72,1236.45 1292.22,1234.95 1293,1230.5C 1293.72,1229.55 1294.55,1229.38 1295.5,1230C 1297.62,1231.73 1299.12,1233.9 1300,1236.5C 1302.03,1246.96 1306.53,1256.12 1313.5,1264C 1329.17,1268.19 1337,1278.36 1337,1294.5C 1336.44,1295.02 1335.77,1295.36 1335,1295.5C 1331.94,1294.39 1329.11,1292.89 1326.5,1291C 1312.17,1278.67 1297.83,1266.33 1283.5,1254C 1264.36,1244.53 1248.52,1231.03 1236,1213.5C 1233.04,1209.49 1232.87,1205.49 1235.5,1201.5 Z"/></g>
<g><path style="opacity:1" fill="#e7e7e7" d="M 1186.5,1381.5 C 1190.04,1381.87 1192.21,1383.87 1193,1387.5C 1196.95,1397.97 1200.28,1408.63 1203,1419.5C 1228.66,1523.15 1246,1628.15 1255,1734.5C 1260.44,1815.98 1249.11,1894.98 1221,1971.5C 1217.23,1981.24 1211.39,1989.41 1203.5,1996C 1199.47,1997.91 1195.47,1997.91 1191.5,1996C 1184.99,1989.16 1181.16,1981 1180,1971.5C 1176.79,1952.52 1176.79,1933.52 1180,1914.5C 1201.86,1798.79 1209.52,1682.12 1203,1564.5C 1198.66,1520.43 1193.66,1476.43 1188,1432.5C 1186.03,1415.52 1185.53,1398.52 1186.5,1381.5 Z"/></g>
<g><path style="opacity:1" fill="#e7e7e7" d="M 1009.5,1381.5 C 1010.8,1383.22 1011.47,1385.39 1011.5,1388C 1010.85,1395.19 1010.02,1402.35 1009,1409.5C 997.339,1470.49 985.672,1531.49 974,1592.5C 966.779,1640.26 961.779,1688.26 959,1736.5C 957.01,1783.13 959.677,1829.46 967,1875.5C 968.944,1896.84 967.278,1917.84 962,1938.5C 959.281,1949.11 954.114,1958.28 946.5,1966C 937.701,1971.41 930.201,1969.91 924,1961.5C 916.645,1949.44 911.645,1936.44 909,1922.5C 903.407,1894.96 900.907,1867.13 901.5,1839C 903.624,1781.56 910.79,1724.72 923,1668.5C 943.196,1577.58 968.862,1488.25 1000,1400.5C 1002.51,1393.76 1005.68,1387.43 1009.5,1381.5 Z"/></g>
<g><path style="opacity:1" fill="#e7e7e7" d="M 1221.5,1381.5 C 1224.09,1382.25 1225.92,1383.92 1227,1386.5C 1236.85,1410.73 1245.52,1435.39 1253,1460.5C 1275.46,1534.34 1294.79,1609.01 1311,1684.5C 1322.51,1736.9 1328.67,1789.9 1329.5,1843.5C 1329.96,1873.56 1326.79,1903.22 1320,1932.5C 1317.09,1945.82 1310.92,1957.32 1301.5,1967C 1296.5,1970.33 1291.5,1970.33 1286.5,1967C 1278.04,1959.26 1272.2,1949.76 1269,1938.5C 1264.03,1918.79 1262.37,1898.79 1264,1878.5C 1272.03,1830.81 1274.7,1782.81 1272,1734.5C 1269.21,1678.09 1262.87,1622.09 1253,1566.5C 1242.23,1515.31 1232.23,1463.98 1223,1412.5C 1221.16,1402.15 1220.66,1391.81 1221.5,1381.5 Z"/></g>
<g><path style="opacity:1" fill="#e7e7e7" d="M 1042.5,1387.5 C 1043.5,1387.5 1044.5,1387.5 1045.5,1387.5C 1046.58,1396.13 1046.74,1404.8 1046,1413.5C 1039.34,1465.44 1033.34,1517.44 1028,1569.5C 1022.6,1684.73 1030.26,1799.06 1051,1912.5C 1052.54,1929.13 1052.87,1945.8 1052,1962.5C 1050.51,1970.63 1048.51,1978.63 1046,1986.5C 1043.83,1994.34 1038.83,1999.01 1031,2000.5C 1027.47,1999.9 1024.47,1998.23 1022,1995.5C 1014.45,1984.06 1008.78,1971.73 1005,1958.5C 978.472,1868.16 969.805,1776.16 979,1682.5C 990.958,1587.04 1009.96,1493.04 1036,1400.5C 1037.65,1395.86 1039.82,1391.53 1042.5,1387.5 Z"/></g>
<g><path style="opacity:1" fill="#e4e4e4" d="M 416.5,1404.5 C 419.85,1404.33 423.183,1404.5 426.5,1405C 427.022,1405.56 427.355,1406.23 427.5,1407C 419.967,1421.44 407.967,1428.77 391.5,1429C 387.047,1430.73 382.714,1432.73 378.5,1435C 369.87,1441.96 361.537,1449.29 353.5,1457C 352.056,1457.78 350.723,1457.61 349.5,1456.5C 347.768,1450.16 348.601,1444.16 352,1438.5C 360.945,1425.93 372.778,1417.1 387.5,1412C 397.095,1408.69 406.762,1406.19 416.5,1404.5 Z"/></g>
<g><path style="opacity:1" fill="#e4e4e4" d="M 1810.5,1405.5 C 1830.03,1406.62 1848.03,1412.46 1864.5,1423C 1872.18,1429.02 1878.02,1436.52 1882,1445.5C 1882.67,1449.17 1882.67,1452.83 1882,1456.5C 1880.13,1457.67 1878.3,1457.51 1876.5,1456C 1866.88,1445.04 1855.54,1436.37 1842.5,1430C 1828,1429.33 1816.17,1423.5 1807,1412.5C 1806.2,1410.74 1806.37,1409.07 1807.5,1407.5C 1808.74,1407.06 1809.74,1406.39 1810.5,1405.5 Z"/></g>
<g><path style="opacity:1" fill="#e7e7e7" d="M 453.5,1412.5 C 456.425,1412.46 459.091,1413.29 461.5,1415C 465.036,1419.24 468.202,1423.74 471,1428.5C 476.542,1433.71 482.375,1438.54 488.5,1443C 508.5,1455 528.5,1467 548.5,1479C 551.695,1481.19 552.695,1484.03 551.5,1487.5C 540.736,1491.81 529.736,1494.98 518.5,1497C 512.551,1495.03 507.217,1492.03 502.5,1488C 495.135,1480.97 488.135,1473.64 481.5,1466C 470,1457.11 457.333,1455.11 443.5,1460C 439.833,1460.67 436.167,1460.67 432.5,1460C 430.556,1457.85 430.056,1455.35 431,1452.5C 434.803,1440.41 440.136,1429.08 447,1418.5C 449.063,1416.27 451.229,1414.27 453.5,1412.5 Z"/></g>
<g><path style="opacity:1" fill="#e6e6e6" d="M 1773.5,1412.5 C 1778.78,1413.25 1782.94,1415.91 1786,1420.5C 1791.47,1430.45 1796.14,1440.78 1800,1451.5C 1800.98,1454.67 1800.48,1457.5 1798.5,1460C 1794.5,1460.67 1790.5,1460.67 1786.5,1460C 1778.19,1457.6 1769.86,1457.27 1761.5,1459C 1756.49,1461.5 1751.83,1464.5 1747.5,1468C 1740.81,1475.69 1733.81,1483.02 1726.5,1490C 1720.14,1495.51 1712.81,1497.51 1704.5,1496C 1695.97,1493.16 1687.47,1490.32 1679,1487.5C 1678.58,1485.21 1679.25,1483.21 1681,1481.5C 1696.58,1469.95 1713.08,1459.79 1730.5,1451C 1738.34,1445.91 1746.01,1440.58 1753.5,1435C 1760.08,1427.29 1766.74,1419.79 1773.5,1412.5 Z"/></g>
<g><path style="opacity:1" fill="#e8e8e8" d="M 1161.5,1428.5 C 1163.78,1428.76 1164.94,1430.09 1165,1432.5C 1187.42,1537.21 1193.09,1642.88 1182,1749.5C 1177.32,1807.95 1167.99,1865.62 1154,1922.5C 1149.58,1939.75 1143.58,1956.42 1136,1972.5C 1132.94,1978.23 1129.1,1983.4 1124.5,1988C 1117.86,1992.95 1111.53,1992.62 1105.5,1987C 1095.54,1975.68 1088.04,1962.85 1083,1948.5C 1070.05,1910.83 1061.39,1872.16 1057,1832.5C 1042.68,1710.78 1043.02,1589.12 1058,1467.5C 1059.42,1454.67 1061.58,1442.01 1064.5,1429.5C 1065.81,1430.91 1066.64,1432.58 1067,1434.5C 1070.46,1449.47 1073.79,1464.47 1077,1479.5C 1080.35,1487.86 1086.35,1492.86 1095,1494.5C 1096.89,1497.62 1098.23,1500.95 1099,1504.5C 1100.66,1514.43 1101.66,1524.43 1102,1534.5C 1102.33,1550.83 1102.67,1567.17 1103,1583.5C 1103.15,1673.17 1103.82,1762.84 1105,1852.5C 1105.5,1866.33 1107.17,1879.99 1110,1893.5C 1111.12,1898.11 1113.96,1899.61 1118.5,1898C 1120.04,1896.42 1121.21,1894.59 1122,1892.5C 1124.58,1878.96 1125.91,1865.29 1126,1851.5C 1127.18,1764.17 1127.85,1676.84 1128,1589.5C 1128.79,1564.49 1129.79,1539.49 1131,1514.5C 1131.65,1507.56 1133.31,1500.89 1136,1494.5C 1140.77,1493.34 1145.27,1491.51 1149.5,1489C 1155.83,1479.54 1159.33,1469.04 1160,1457.5C 1160.19,1447.76 1160.69,1438.09 1161.5,1428.5 Z"/></g>
<g><path style="opacity:1" fill="#e5e5e5" d="M 1824.5,1539.5 C 1830.87,1538.53 1836.53,1540.03 1841.5,1544C 1855.79,1558.22 1862.63,1575.38 1862,1595.5C 1861.15,1602.26 1858.32,1607.92 1853.5,1612.5C 1852.03,1611.62 1851.2,1610.29 1851,1608.5C 1850.67,1601.5 1850.33,1594.5 1850,1587.5C 1848.5,1581 1845.34,1575.5 1840.5,1571C 1834.15,1566.83 1827.49,1563.16 1820.5,1560C 1815.93,1557.37 1814.43,1553.53 1816,1548.5C 1818.36,1544.97 1821.2,1541.97 1824.5,1539.5 Z"/></g>
<g><path style="opacity:1" fill="#e4e4e4" d="M 396.5,1540.5 C 405.5,1538.75 412.333,1541.75 417,1549.5C 417.387,1553.17 415.887,1556 412.5,1558C 405.502,1561.5 398.835,1565.5 392.5,1570C 386.466,1575.56 382.633,1582.4 381,1590.5C 380.667,1597.17 380.333,1603.83 380,1610.5C 379.612,1611.43 378.945,1612.09 378,1612.5C 369.853,1604.17 366.853,1594.17 369,1582.5C 372.459,1564.54 381.626,1550.54 396.5,1540.5 Z"/></g>
</svg>
