<?xml version="1.0" encoding="UTF-8" standalone="no"?>
<!DOCTYPE svg PUBLIC "-//W3C//DTD SVG 1.1//EN" "http://www.w3.org/Graphics/SVG/1.1/DTD/svg11.dtd">
<svg xmlns="http://www.w3.org/2000/svg" xmlns:xl="http://www.w3.org/1999/xlink" width="297" height="272.25" version="1.1" viewBox="33.75 60.75 297 272.25">
  <defs>
    <clipPath id="artboard_clip_path">
      <path d="M33.75 60.75h297V333h-297Z"/>
    </clipPath>
  </defs>
  <metadata>
    Produced by OmniGraffle 7.11.5
  </metadata>
  <g id="Tyger_Passant_(5)" fill="none" fill-opacity="1" stroke="none" stroke-dasharray="none" stroke-opacity="1">
    <g id="Tyger_Passant_(5): Layer 2" clip-path="url(#artboard_clip_path)">
      <g id="Group_3">
        <g id="Graphic_118">
          <path fill="#000" d="M91.66923 86.20583c-.65228.43485-5.54436-.8697-7.06633-1.84812-2.77218-1.68505-2.88089-4.34851-.27179-6.74019 1.08713-1.03277 1.30456-1.46762.81535-1.95683-.92406-.92406-3.098315-.16307-5.38128 1.79376-4.185445 3.69623-3.64188 6.63148 2.01118 10.81692 2.06555 1.57634 3.75059 3.20703 3.75059 3.69623 0 .81535-2.88088 4.29416-3.69623 4.45723-.21743.05436-4.02237.16307-8.53395.21742-10.11029.16307-13.208605.76099-20.16622 4.07673-5.76178 2.71782-7.39247 4.18545-8.42524 7.66425-.543566 1.73941-.48921 2.28297.27178 3.47881 1.304553 2.01119 3.098314 1.73941 5.761776-.81534 1.902474-1.84812 2.609104-2.17426 4.565934-2.17426 3.750594 0 4.2398.65228 4.72901 6.90326.59792 8.04475 2.06554 9.45801 5.163855 5.00079 1.521979-2.22861 2.663465-2.82653 2.119899-1.08713-.271784.8697.543566 3.3701 1.739406 5.54435.10871.16307-1.902475.48921-4.51158.70664-2.55475.16307-5.16386.59792-5.70742.92405-.59792.27179-2.44604.48921-4.185444.3805-2.826532-.16307-3.15267-.32614-3.91366-1.79376-1.521976-2.93524-1.576336-3.04396-2.772176-2.39168-.652276.32614-1.338.41812-1.82721 1.4509-.706633 1.79376-.087807 3.71295.83625 5.01751 1.630694 2.1199 3.654424 2.77217 7.18759 3.04396 1.79376.10871 3.370095.32613 3.533164.43485.108716.16307-.489208 1.14148-1.467624 2.22861-.92406 1.08713-1.19584 3.53316-.59792 4.51158 1.19584 1.95683 2.22861 2.50039 8.15346 4.02237 6.03356 1.52198 15.275915.75896 17.47767-.44321.67276-.36733 2.63419-1.07877 3.9931-.31778.59792.27178 2.33733.81535 3.80495 1.08713 5.70742 1.19584 7.60989 1.79376 8.26217 2.66346 1.90247 2.5004-.70663 9.94722-5.00079 14.29573-2.17425 2.17426-3.26138 3.85931-4.02237 6.14227-.59792 1.73941-1.03277 3.47881-.97842 3.80496.16307.92405-1.79376 1.08712-3.26138.32613-2.39168-1.30455-3.80495-5.59871-2.17425-6.90326.32613-.32614 1.41326-.65227 2.28296-.76099 3.69624-.3805 0-3.69624-4.18544-3.69624-2.446035 0-5.38128 2.33733-7.01197 5.49-1.46762 2.88089-1.304555 4.62029.59792 7.01197.92406 1.14149 1.63069 2.22862 1.63069 2.50039 0 .21743.81535 1.08713 1.739405 1.90248l1.793765 1.46762-1.08713 2.0112c-1.79376 3.37009-2.9896 3.968-7.936035 3.968h-4.348511l-2.065544-2.2286c-1.848115-1.95684-2.06554-2.39169-1.63069-3.80495 1.03277-3.69624 4.2398-5.27257 6.19663-3.09832.54356.59792 1.30455 1.08713 1.7394 1.08713.97842 0 .92406-2.17426-.16307-3.69623-.65227-.97842-1.35891-1.19584-3.58752-1.19584-2.55475 0-2.93524.16306-5.326924 2.55475-1.902476 1.90246-2.826532 3.42445-3.478806 5.54435-.869705 2.88089-.869705 2.9896.43485 5.16385 3.15267 5.32693 9.3493 7.17505 17.55711 5.21822 4.83772-1.19584 5.54435-1.03277 5.59871 1.03277 0 .43485 1.14148 1.84812 2.60911 3.15267 2.44603 2.28297 2.50039 2.44604 1.52197 3.20703-1.25019.8697-2.93524.97841-4.83771.27177-1.95683-.76098-3.47881.43486-2.60911 2.0112.97841 1.8481 4.67465 2.17425 9.18623.8697.92406-.27179 1.19584-.10872 1.19584.70663 0 .59792.59792 2.28297 1.35891 3.75059 1.57633 3.04396 1.68505 3.91366.59792 4.34851-1.41327.54357-1.41327 1.84812-.05436 3.04397.76099.65226 1.35891 1.68504 1.35891 2.39167 0 1.03277-.38049 1.19583-3.37009 1.52198-1.90248.21742-5.00079.76099-6.95762 1.25019-2.17426.54356-6.08792.86971-10.05593.92406-6.52277.05436-6.577125.05436-8.64267 1.79376-2.93524 2.39169-6.522764 7.71861-8.20781 12.17584-1.739407 4.56593-2.60911 5.1095-6.3597 4.29415-2.39168-.48921-3.043957-.43485-4.729005.43485-1.902475.97842-3.968015 3.42445-5.87049 6.90326-1.467622 2.77218-.706633 7.88168 1.195841 7.88168.434851 0 .815344.21742.815344.54356 0 .27178.65228 1.1415 1.467624 1.90247 1.413266 1.2502 1.521979 1.68505 1.521979 5.59871.054357 5.16386.434851 6.30534 2.609107 7.6099 2.500393 1.52198 5.055143 1.84812 7.17504.97842 2.826534-1.19585 4.07673-4.729 1.35891-3.8593-.652275.2174-1.413264-.10872-2.1199-.8697-1.521976-1.6307-1.46762-1.84813.543567-2.66348.924058-.38049 2.663463-1.52198 3.859303-2.55475 2.011186-1.68505 2.22861-1.7394 3.31574-.97841.652276.43484 1.79376 1.7394 2.55475 2.88089 2.66346 3.91365 8.31653 5.16385 11.68662 2.6091 1.90248-1.46762 3.31574-4.18545 2.77218-5.48999-.3805-1.03276-2.28297-1.08713-2.71782 0-.48921 1.30454-2.935246.97841-3.91366-.54356-.76099-1.1415-.76099-1.6307-.21743-2.9896.54357-1.35892.54357-1.84812-.21742-3.04397-1.304555-1.95683-.8697-2.55475 2.011185-2.66346 2.337325-.10871 2.55475 0 2.55475 1.14149 0 .65227-.217425 1.35891-.543565 1.57634-.8697.54356.05436 1.90246 1.35891 1.90246 4.13109 0 5.9792-2.44603 5.9792-7.88166v-3.80496l1.90248-.59792c1.68504-.59792 1.95683-.54356 2.39168.3805.32614.65228.27178 1.52198-.10872 2.33732-1.25019 2.82653 2.1199 5.81613 7.6099 6.79456 1.90247.32613 4.29415.43484 5.32693.27177 1.19584-.21742 2.50039 0 3.53316.54356.92406.48921 2.66346.86971 3.91366.86971 1.84812 0 2.50039-.27178 3.58752-1.63069 1.30456-1.52198 3.04396-2.33733 2.28297-1.08713-.16307.32614.05436.92406.48921 1.41326 1.03277.97842.76098 3.64188-.81535 8.64267-.54356 1.79375-1.35891 4.94643-1.79376 7.06633-.70663 3.42445-2.66346 10.76256-4.83772 17.93762-2.6091 8.75137-3.58752 12.1758-3.91366 14.02393-.43485 2.39167-2.93524 4.72901-5.00079 4.72901-.76098 0-1.95683-.48921-2.71781-1.08714-1.73941-1.3589-2.5004-1.3589-7.39247 0-5.05515 1.41328-6.30534 2.33734-8.26217 6.30535-.86971 1.79375-2.17426 3.91365-2.82654 4.78335-.65227.81536-1.57633 2.55477-2.06554 3.8593-.8697 2.17427-.8697 2.55477-.054355 5.05516 1.087125 3.26139 2.174255 4.40287 3.478805 3.53317.59792-.3805.92406-1.30456.92406-2.66347 0-3.26136.3805-3.53316 4.56594-3.15266 2.1199.21742 4.13108.1087 4.729-.16307 1.68505-.92406 2.44604-.27179 2.06555 1.68504-.3805 2.17426.54356 5.92483 1.7394 6.90326 1.2502 1.03277 2.50039.05437 3.53317-2.77217 1.46762-4.02236 4.94643-5.70742 10.00157-5.00079 2.33733.32613 2.71782.59793 2.88089 1.73941.38049 2.55475 1.63069 3.31572 5.1095 3.09832 2.44604-.16308 3.53316-.54357 4.56594-1.522 2.1199-1.95682 3.04395-4.18543 3.04395-7.2294 0-1.57632.43486-3.5875.97842-4.67464.54356-1.03276 1.52198-3.15266 2.22861-4.62029.65228-1.52197 1.90247-3.69624 2.77218-4.94643.8697-1.19584 1.68504-3.15267 1.84811-4.34851.48921-3.42446 1.84812-6.52277 3.53317-8.15346 1.7394-1.68505 2.88088-4.89207 2.71782-7.88167-.10871-2.3917.97841-3.42446 3.58752-3.42446 1.46762 0 2.44604-.43484 3.80494-1.7394 2.22862-2.1199 2.22862-3.64188-.1087-4.02238-1.19585-.21742-1.68505-.65226-2.06555-2.01118-.81535-2.71782 0-6.46841 1.84812-8.53395 1.84812-2.17426 2.93524-4.56593 3.47881-7.93603.59792-3.80495 1.03277-4.34852 3.20702-3.96802 3.15267.4892 5.49-.27178 7.77297-2.5004 1.84811-1.84811 4.67465-3.31574 6.41405-3.31574.32614 0 .92406.65228 1.2502 1.41326.48921 1.03278.97841 1.35892 2.1199 1.19585 1.08712-.10871 1.79376-.81535 2.93524-2.88089 1.63069-2.9896 1.63069-2.9896 5.9792-4.34851 2.55475-.76099 3.20704-.81535 4.18544-.21743.92406.59792 2.1199.59792 6.251.05436 4.89207-.59792 10.65384-1.84812 11.79533-2.55475.27177-.16307.32613-.70663.16307-1.19583-.27179-.70664-.05436-.81536 1.68504-.48922 1.19584.21742 2.33733.16307 2.71782-.16308.3805-.32612 2.33733-1.19583 4.29416-1.95682 2.01118-.76098 4.07673-1.57633 4.56593-1.84811 3.09832-1.68505 8.37089-3.85931 9.40365-3.85931 1.19585 0 1.19585.10872.81535 2.82654-.21742 1.57633-.38049 3.58752-.38049 4.51158.05436.8697.05436 2.39168.05436 3.31574 0 .97841.4892 2.06554 1.14148 2.66346 2.1199 1.95682 3.58752 9.78415 2.01119 11.03434-.38049.32614-1.73941.81535-2.98961 1.08713-1.95682.48921-2.50038.3805-3.69623-.59792-1.2502-.97841-1.35891-1.35891-1.03277-3.42445.38049-2.55475-.10871-3.15268-2.17426-2.60911-1.84812.43485-3.64187 3.09833-3.69622 5.38129-.05437 2.71781 2.66345 6.25098 5.65305 7.44682 2.98961 1.14148 7.55555 1.2502 8.96881.16307 1.52198-1.14148 3.37009-.97842 4.83772.54355 1.14148 1.08714 1.35891 1.84813 1.35891 4.29417 0 2.50039.27178 3.42445 1.73941 5.43563 1.68504 2.3917 1.68504 2.55476 1.08712 5.27258-.70664 3.09832-2.93525 7.12068-6.95762 12.55632-1.46762 2.0112-3.96802 5.76178-5.5987 8.31653-4.1311 6.63147-5.43565 7.33811-9.07752 4.89207-2.93525-2.0112-4.83772-1.79376-7.2294.761-1.08713 1.14148-3.04396 2.66346-4.40288 3.31573-3.53316 1.73941-5.92484 4.18544-6.30533 6.46841-.16307 1.08713-.65227 2.88089-1.14149 3.96802-1.03277 2.50039-.70663 6.52276.65228 8.04474 1.35891 1.522 1.73941 1.3589 2.93524-1.03277.59793-1.14148 1.84812-2.88089 2.82654-3.80493 1.90246-1.95685 3.31574-1.84813 5.00079.27177.81534 1.03277 1.52197 1.30455 3.64187 1.30455 2.33733 0 2.82654-.21742 3.96802-1.68505.92406-1.19584 1.63068-1.63069 2.28298-1.41327.76098.32614.8697 1.1415.70662 5.7618-.10872 3.8593.05436 5.5987.59792 6.25097 1.41326 1.68503 2.66346.97843 4.89208-2.82653 1.19584-2.1199 2.77218-3.96804 3.53316-4.34852.76099-.32612 1.73941-1.35892 2.22862-2.28296.76098-1.41326 1.14148-1.6307 3.20702-1.6307 3.04396 0 3.3701.43484 1.68505 2.17426-1.35891 1.46762-1.41327 1.46762-.3805 2.71782.97843 1.2502 1.14149 1.2502 4.40287.54356 3.75059-.81534 5.54436-2.39168 6.63148-5.92484.48921-1.73941.43485-2.33733-.43485-4.18546-1.57634-3.0983-1.19584-5.38127 1.14148-7.7186 1.90248-1.95682 1.95683-1.95682 3.96802-1.19583 3.96801 1.41326 8.31653.10871 8.31653-2.5004 0-1.08712-.21743-1.25019-1.52198-.97841-1.03277.21744-1.73942.05434-2.28297-.59792-1.41327-1.68504-.27178-9.07752 1.52198-9.78414.43485-.16308 1.7394 0 2.93524.27177 3.20703.8697 6.57713.16307 9.45801-2.01117 2.98962-2.33734 2.98962-3.58754 0-3.96803-1.84811-.21743-2.22861-.54357-2.77218-2.22861-.65227-1.84812-.32613-6.68584.54357-8.0991.16307-.27179 1.46763-.54356 2.88089-.59792 3.20704 0 7.88168-2.44604 8.15346-4.18544.21742-1.522-1.19584-2.1199-2.33732-.97842-.4892.48922-1.68505.8697-2.6091.8697-1.41328 0-2.22863-.54356-4.18546-2.88088-5.27256-6.03357-6.08791-7.55555-6.03354-11.19742 0-2.44604.38048-4.02238 1.41325-5.87048.76099-1.46764 1.35891-2.93526 1.35891-3.2614 0-1.46762 1.90248-.59792 4.2398 1.84812 4.07674 4.45722 5.1095 6.30534 5.38128 10.05593.32614 3.80495-.21742 4.67465-3.37009 5.70742-1.03278.32613-1.6307.86971-1.6307 1.52198 0 1.41327 2.44605 2.1199 5.05515 1.41327 1.7394-.48922 2.33732-1.08712 3.58752-3.31574.81535-1.52198 1.84812-2.71782 2.33732-2.71782.48921 0 2.1199.59792 3.64188 1.30454 1.52198.70665 3.75058 1.57635 4.94643 1.95684 1.68505.54356 2.93525 1.63069 5.70742 5.00079 1.95683 2.33732 4.18543 4.78337 4.94643 5.32693 4.89208 3.64187 5.92485 16.52434 2.0112 25.92799-1.41327 3.42445-2.28298 3.58752-6.41406 1.52198-1.46764-.76099-2.82654-1.35891-2.9896-1.35891-.16307 0-1.35891.97842-2.66347 2.17426-1.30455 1.19582-3.26137 2.55475-4.34851 2.9896-1.08712.48922-2.1199 1.14148-2.28296 1.52198-.10872.38049-1.57634 1.68504-3.15268 2.82654-3.15267 2.28296-5.43562 5.3269-6.41405 8.53394-.48921 1.68506-.43485 2.22861.32613 3.42446.48922.761 1.30456 1.3589 1.84813 1.3589.54357 0 2.33732-1.3589 4.07673-2.9896 3.31574-3.20702 4.45722-3.64188 5.00078-1.90247.21743.59792 1.08713 1.46762 1.95683 1.90247 1.52198.81535 1.73941.761 4.02238-.5979 3.58752-2.06556 4.23979-1.57635 3.80495 2.88087-.32615 3.26138-.2718 3.8593.81534 5.16386 1.57633 2.01117 3.09831 1.95683 4.2398-.16307 1.90246-3.47881 2.71782-4.13109 5.38128-4.51158 2.55475-.32614 5.59871-2.44604 5.59871-3.91368 0-.38048.4892-1.0871 1.14147-1.52196 1.03278-.70664 1.41328-.70664 3.3701 0 2.82654.97841 3.42446 1.84812 1.95684 2.9896-2.44604 1.84812.54356 4.62029 3.15266 2.93526.6523-.43487 1.57634-.81536 2.0112-.81536.43484 0 1.41326-.76099 2.17425-1.68504 1.19585-1.41327 1.41325-2.17426 1.41325-5.3813 0-2.6091-.2174-3.8593-.81533-4.3485-.43487-.3805-.81535-.9784-.81535-1.3589 0-.3805-.48922-1.30456-1.08712-2.06555-1.3589-1.68505-1.3589-2.33733-.05436-5.32693.59792-1.30455 1.08713-3.64188 1.14148-5.1095.05436-1.52198.21743-4.2398.38048-6.08792.2718-3.3701.32616-3.42445 2.283-3.968 1.90246-.48922 8.2078-5.59872 8.2078-6.6315 0-.32613-1.19584-.3805-2.8809-.16306-2.39167.32614-3.04395.16306-4.3485-.81534-2.0112-1.57634-1.8481-2.44604.70663-4.07673 1.52197-.97842 2.17427-1.73941 2.17427-2.66347 0-.70663.3805-1.57633.81533-1.95683.43487-.38049.81537-1.30455.81537-2.1199 0-.76099.4892-2.50039 1.0871-3.80494 1.30456-2.77218 1.41327-5.65307.2718-6.57713-1.30456-1.08712-2.33733-.21742-2.71783 2.3917-.21742 1.3589-.76097 2.88087-1.19584 3.42444-.65228.8697-.70663.70663-.43485-1.79376.43485-3.47881-.48921-4.56594-2.50038-2.98961-3.20704 2.5004-6.251 2.1199-10.4908-1.3589-3.69623-2.98961-6.63148-7.71861-7.77296-12.55633-.16307-.65228-.76099-1.63069-1.30454-2.1199-.54358-.48921-1.0328-1.2502-1.0328-1.68504 0-.3805-.5979-1.95684-1.3589-3.42446-1.79376-3.53316-1.7394-4.13108.4892-4.56594 2.17427-.43485 3.31575-1.6307 3.80496-3.968.27178-1.1415 1.08714-2.17427 2.55474-3.15268 2.06555-1.46762 2.3917-2.06555 2.1199-4.34852-.16306-1.68504-1.08712-2.44603-2.9896-2.44603-2.06553 0-3.968 1.68505-2.88088 2.55475.38048.27178 1.14148.70663 1.68505.8697 1.30455.48921 1.14148 1.41328-.3805 2.01118-3.15267 1.19585-8.15347-2.01118-8.69702-5.5987-.16307-.97841-.70663-4.67465-1.19585-8.26217-.43484-3.58753-1.14147-7.01197-1.52197-7.60989-1.7394-2.77218-1.35891-5.16386.8697-5.16386.59792 0 2.39167-.3805 4.02237-.8697 3.7506-1.08713 7.44683-4.34851 11.25178-10.16465 7.50118-11.30613 9.13187-16.36127 8.80572-27.2869-.32613-12.82811-2.2286-17.93761-9.458-25.43879-4.56593-4.78336-4.6203-4.83772-4.94643-8.0991-.32614-3.04396-.21742-3.42446 1.2502-5.27257 2.17425-2.77218 3.04396-3.31574 5.38128-3.31574 1.57635 0 2.22861.32614 2.93525 1.35891 1.14148 1.7394.5979 3.96801-1.08713 4.62029-1.73941.65227-2.17427 1.52198-1.35891 2.50039 1.46762 1.79376 5.1095-.38049 5.70742-3.37009.65227-3.47881-.21743-5.70743-3.20703-8.53396-3.69625-3.4788-5.32692-4.29415-9.40365-4.62029-3.53317-.27178-5.3813.48921-7.44683 2.9896-.65227.81535-1.57633 1.2502-2.60911 1.2502-2.11989 0-4.51156 2.33732-5.32692 5.21822-.32614 1.14148-.59792 3.69623-.59792 5.5987v3.42445l-2.01119-.27178c-1.14148-.10871-5.1095-.65227-8.75138-1.14148-3.69623-.48921-10.32771-1.2502-14.67622-1.68505-14.94801-1.41327-21.14463-3.42445-26.14543-8.58831-3.20702-3.31574-3.80494-4.72901-3.8593-9.40365 0-3.7506.05436-3.91366 2.22862-6.3597 2.22861-2.60911 2.71782-2.77218 8.26218-3.26138 1.95682-.21743 2.55474-.05436 2.3373.43485-.1087.38049.70664 1.35891 1.9025 2.22861 1.7394 1.30455 2.11988 1.84812 2.01117 3.20702-.27177 3.15268-4.67465 4.02238-5.21821 1.03278-.32614-1.6307-1.03276-2.1199-2.01119-1.30456-.97841.81535-1.08713 3.80495-.10871 5.00079.92406 1.2502 5.38128 2.60911 8.58831 2.60911 3.96801 0 10.05593-3.3701 9.40365-5.16386-.54356-1.30455 1.63068-1.84812 5.87048-1.52198 4.0224.32614 4.07674.27178 5.21823-1.30455.65227-.92406 1.03277-1.79376.81534-2.01119-.65227-.65227-2.77217-.32614-3.09831.48921-.16306.48921-.97842.81535-2.06556.81535-1.41325 0-2.39167-.59793-4.62028-2.71782-1.52198-1.52198-2.93524-3.15267-3.09832-3.69624-.21742-.54356-1.2502-1.52198-2.39167-2.1199-2.77218-1.57633-9.78415-3.58752-11.36049-3.26138-.65227.10871-1.25019 0-1.25019-.32614 0-.97841 6.46841.10871 10.32771 1.7394 2.06554.86971 5.38128 2.55476 7.33811 3.80495 6.57713 4.18545 11.79533 5.32693 17.23098 3.85931 2.93525-.81535 7.44682-4.6203 7.88167-6.52277.16308-.8697 1.14148-2.39168 2.17426-3.3701 8.0991-7.55553 8.86009-8.75137 8.86009-14.24137 0-4.29415-1.35891-7.66425-3.91367-9.62108-4.2398-3.26138-6.4684-3.64188-10.27335-1.68505-3.75059 1.902476-4.34851 2.88089-2.88089 4.83772 1.63069 2.17426 2.93524 2.28297 2.93524.21743 0-1.57634 1.57634-3.31574 3.04397-3.31574 1.25019 0 5.48999 4.62029 5.92483 6.41405.81536 3.80495-3.3701 9.18623-8.37087 10.65385-2.28297.65228-3.42445.65228-8.31653 0-3.04396-.38049-5.76178-.76099-5.92485-.76099-.21742 0-.43485-1.68505-.59792-3.69623-.21743-4.18544-1.52197-6.414056-4.67463-7.936034-4.72902-2.337326-8.80575.326134-5.21823 3.424454 1.68505 1.46762 1.52198 2.55475-.48921 4.07673-1.3589 1.03277-2.33732 1.14148-8.69702 1.25019-11.30613.16307-14.40444.81535-20.0575 4.18545-6.79454 4.13108-9.02316 7.17504-10.97999 14.67622-1.2502 4.72901-.76099 12.06712 1.03277 15.98078 2.22861 4.83772 8.75138 11.9584 13.64345 14.89365 1.63069.97841 3.91366 2.33732 5.00079 2.9896 2.22861 1.35891 5.70742 2.44604 10.70821 3.42445 1.79376.32614 4.23979.8697 5.43563 1.19584 2.28297.59792 22.61226 1.57634 24.1886 1.14149.54356-.16307 1.68504.1087 2.5004.54356.8697.43485 2.9896 1.08713 4.67464 1.41327 3.26138.70663 4.83772 1.79376 3.64188 2.55475-.3805.21742-2.06554 1.14148-3.69622 2.01118-5.97922 3.15267-7.3925 5.32693-7.012 10.81692.32615 4.29416 1.7394 6.57712 5.43565 8.75138 4.2398 2.44604 6.14227 2.88089 8.15345 1.90247 2.17426-.97841 3.6419-3.42445 2.71783-4.34851-.43486-.43485-1.03278-.21742-2.28297.86971-.92406.76098-1.90246 1.41327-2.1199 1.41327-.81536 0-3.04396-2.06555-3.96802-3.58753-.8697-1.52197-.81534-1.63069.32614-2.9896 1.68505-1.95683 2.77218-2.44604 6.14227-2.93525 4.67465-.59792 6.25099.21743 8.42525 4.51158 1.52197 3.09832 1.79375 4.13109 1.68504 7.17505-.10871 4.34851-.8697 6.25098-4.13109 10.00157-2.82653 3.31574-6.8489 5.21822-10.87127 5.21822-2.88088 0-8.42524-1.19584-12.3389-2.60911-4.45723-1.63069-10.38208-3.3701-11.4692-3.3701-.54356 0-3.09831-.54356-5.76178-1.19583-4.40286-1.08714-6.03356-1.19585-19.78572-1.1415-8.91445 0-16.52434.2718-18.86168.70664-2.11989.32614-4.4572.70663-5.1095.76099-.70662.10871-4.40285.54357-8.31651 1.03277-3.85931.4892-9.24059 1.14149-11.95841 1.46762-2.66346.27178-6.90326.86971-9.40365 1.35891-7.88168 1.41327-25.98236 1.08713-28.21097-.59792-.92406-.65227-.8697-.70663.54356-1.25019.81535-.32614 1.6307-.86971 1.73941-1.2502.21742-.48921 1.08713-.65228 2.60911-.54356 3.04396.21742 6.35969-1.68506 7.01196-3.96802.54357-2.01119.05437-4.45722-.92405-4.83772-1.03277-.38049-2.06555 1.03278-1.63069 2.39168.21742.70664 0 1.68505-.48921 2.44604-.70663 1.08713-1.35891 1.35891-3.20702 1.35891-3.80495-.05435-7.77297-2.39168-10.5995-6.3597-1.52198-2.1199-1.52198-3.04395.05436-3.91365.97841-.54357 1.63069-.48922 3.26138.21742 1.08713.43485 3.42445.97841 5.16386 1.14148 2.66346.32614 3.37009.16307 5.00078-.92406 2.1199-1.41326 4.51159-5.76177 4.51159-8.15345 0-.81535-.3805-2.1199-.92406-2.93525-.76099-1.14148-1.30456-1.41327-2.66347-1.2502-2.39167.21743-2.66347 1.90248-.43485 2.66346 1.41327.48921 1.68505.8697 1.68505 2.39169 0 2.01118-.65227 2.44604-3.58752 2.44604-2.17425 0-4.34851-.97842-5.87049-2.66347-.97842-1.03276-.97842-1.35891-.32614-4.07673.38049-1.68504.54356-3.91366.32614-5.16385-.16307-1.2502-.48921-3.15268-.65228-4.34851-.32614-2.06555-.27178-2.1199 1.68505-2.77218 2.22861-.70663 4.56594-2.9896 4.62029-4.40287 0-.43485.3805-1.30455.81535-1.90247 1.03277-1.35891 1.08713-5.87049 0-6.74019-.43485-.3805-1.19584-.54356-1.63069-.32614-.70664.21742-.76099.81534-.48921 2.93524.32613 2.44604.21743 2.71782-1.14149 3.58753-2.6091 1.68504-5.54435 0-6.68583-3.85931-.48921-1.68505-.54356-2.66346-.10871-3.37009 1.08712-2.1199.65227-5.1095-1.08714-7.12069-.8697-1.03277-1.57633-2.17426-1.57633-2.44604 0-.32614 1.08713-1.35891 2.44604-2.33732 1.35891-.97842 2.66346-2.33733 2.88089-2.9896.27178-.65228.59792-3.80495.81535-7.01198.32613-5.54435.32613-5.81613-.81535-6.63148-1.6307-1.14148-3.20703-.27178-3.20703 1.84812 0 1.68505-1.63069 3.26138-3.42445 3.26138-1.68505 0-5.27257-2.39168-5.65306-3.69623-.21743-.97842.16307-1.73941 1.46762-3.09831 2.66346-2.71782 4.94643-8.91445 5.21822-13.9696.27177-5.16385.16306-5.21821-6.84891-3.478805-8.31653 2.065545-11.25178 3.587525-13.86088 6.957615-3.53317 4.78336-7.01198 8.58831-7.71861 8.58831-1.03277 0-.8697-2.17425.16307-2.55475 1.30455-.48921 3.47881-5.81613 3.47881-8.42524 0-2.17425.76099-7.39247 1.63069-11.52355.92406-4.2398-.05436-4.40287-7.50118-1.2502-4.89208 2.1199-10.00158 5.59871-11.03435 7.609895-.38049.652275-.81534 1.304555-1.03277 1.467625-.21742.16307-.92406 1.7394-1.57633 3.53316-1.19584 3.20703-2.5004 5.16386-3.42446 5.16386-.76098 0-3.91366-3.42445-4.62029-5.05514-1.14148-2.554755-.8697-5.707425.59792-7.17505.70663-.70663 1.14149-1.41326.97842-1.57633-.16307-.16307.05435-.3805.4892-.43485 2.93525-.27179 4.18545-.10872 5.54436.81534 2.55475 1.73941 4.13108.32614 2.01118-1.79376-.8697-.8697-1.79376-1.08713-4.56593-1.08713-5.70742 0-9.56673 2.33733-11.4692 6.90326-.8697 1.95683-.8697 3.42446 0 7.55554.21742.97842.16307 1.84812-.10871 2.01119Zm-5.65307 35.44036c2.17426 2.1199.92406 2.88089-4.13108 2.60911-2.33733-.10871-4.56594-.32614-4.89208-.43485-.97841-.32614-.8697-1.90248.21743-3.15267 1.41326-1.46763 6.90326-.8697 8.80573.97841ZM84.6029 132.7349c.59792.54356.8697 1.30455.70663 1.63069-.65228 1.03277-6.3597.70663-8.31653-.48921-3.26138-1.95683-2.22861-2.93525 2.77218-2.55475 2.71782.27178 4.07673.65227 4.83772 1.41327Zm-14.8393.54356c0 1.19584-2.33732 1.79376-4.18544 1.08713-1.84812-.70664-1.52198-1.35891.76099-1.35891 1.08713 0 2.06554-.27178 2.22861-.65228.27178-.92406 1.19584-.21743 1.19584.92406Zm202.36883-42.56105c2.01117.21742 3.64187.59792 3.64187.81534 0 .70664-4.51157.59792-7.39246-.10871-2.71782-.70663-4.13109-1.95683-1.52198-1.35891.8697.16307 3.20704.48921 5.27257.65228Z"/>
        </g>
        <g id="Graphic_117">
          <path fill="#f3f3f3" d="M122.4893 70.87733c0 .32614-.48921 1.30455-1.08713 2.17425l-1.14149 1.52198 1.14149.706635c1.63069 1.032775 1.35891 1.685045-1.68505 4.457225-1.7394 1.57633-2.50039 2.55475-2.06554 2.71782.43485.10871 1.14148.32614 1.57633.48921.54357.10871 0 .70663-1.52198 1.63069-2.28296 1.46762-2.93524 2.55475-1.52197 2.55475.38049 0 1.63069-.59792 2.77217-1.35891 2.50039-1.73941 3.3701-1.2502 1.08713.54356-.8697.70663-2.17426 1.84812-2.88089 2.50039-.92406.92406-1.35891 1.08713-1.84812.59793-.38049-.3805-.8697-.65228-1.08712-.65228-.65228 0-.54357 2.06554.16307 2.50039.32613.16307.43485.8697.27178 1.57634-.21743.81534 0 1.52198.59792 1.95683.76099.65227.54356.81534-2.06555 1.03277-2.39168.21742-2.93524.43485-2.88088 1.19584.05435.54356-.16307.97841-.54357 1.03277-.32614 0 0 .27178.70663.54356.92407.3805 1.14149.76099.81535 1.46763-.76099 1.7394-.54356 4.13108.43485 4.34851.65228.10871.92406-.27178 1.08713-1.57634.16307-1.84811.76099-2.22861 4.89207-2.93524 1.2502-.16307 2.1199-.65228 2.33733-1.30456.16307-.54356.92406-1.30455 1.68504-1.68504.761-.43485 3.26139-3.09832 5.65307-5.92485 6.52277-7.99039 8.80573-10.27336 10.5995-10.65385.92405-.16307 2.39168-.543565 3.31573-.81535 3.31575-1.087125 4.45723-.70663 5.05515 1.41327.81535 3.04396-.43485 6.03356-2.88089 6.63148-2.06554.54356-2.39168 1.52198-.59792 2.1199l1.35891.43485-1.03277 1.90247c-.70663 1.41327-1.52198 2.01119-2.9896 2.39168-2.33733.59792-2.5004 1.2502-.54357 2.01119l1.46763.54356-1.2502 1.30456c-.70664.76099-1.52198 1.35891-1.79376 1.35891-1.03278 0-3.64188 2.28296-3.64188 3.20702 0 .59792-1.19584 1.79376-2.9896 2.93525-2.6091 1.68505-3.26138 1.90247-4.51158 1.41326-1.79376-.70663-5.16386-.16307-6.74019 1.08713-1.19584 1.03277-1.14149 1.52198.48921 3.80495l.97841 1.30455-2.9896-.38049c-2.71782-.3805-2.93525-.32614-2.1199.4892.43485.48921 1.68505 1.30456 2.71782 1.79377 1.90247.92405 2.55475 2.66346.92406 2.39168-1.73941-.27178-1.63069 1.03277.27178 3.09831 2.17426 2.39168 3.53317 5.81613 2.66346 6.68584-.38049.38049-.97841.10871-1.95683-.97842-.97841-1.19584-1.46762-1.41327-1.95683-.97841-.48921.4892-.48921.92405-.05435 1.7394.32614.59792.59792 2.22861.59792 3.58752 0 1.79376.32614 2.82653 1.35891 4.02238 2.28296 2.77217 1.46762 4.40286-1.2502 2.50039-.70663-.48921-1.19584-1.41327-1.19584-2.17426 0-1.57633-1.08713-2.17425-2.55475-1.41326-.70663.38049-1.30455.32613-2.06554-.21743-.54357-.43485-1.19584-.76099-1.46763-.76099-.70663 0-.4892 1.57634.43486 2.9896.65227 1.03277.76098 2.01119.4892 4.13109-.32614 2.50039-.27178 2.77217.59792 2.55475.65228-.10871 1.19584-.92406 1.52198-2.22861.3805-1.57634.76099-1.95683 1.35891-1.68505 4.13109 1.68505 7.39247 2.44604 8.9688 2.17425 3.3701-.65228 4.07673-3.15267 1.03278-3.75058-.92406-.21743-2.01119-1.08713-2.77218-2.22862l-1.30455-1.90248 1.30455-1.68504c1.14148-1.57634 1.2502-2.22861 1.14148-7.12069-.05435-4.40287-.27178-5.70742-1.25019-7.2294l-1.14149-1.84811 2.93525-1.95683c1.63069-1.08713 3.31574-1.84812 3.75059-1.68505.43485.16307 1.68505 2.22861 2.71782 4.51158 4.02237 8.64266 4.67464 21.57948 1.84812 35.44036-1.57634 7.77297-1.73941 11.08871-.65228 13.96959.43485 1.14149.92406 2.71782 1.08713 3.53317.54356 2.55475 1.79376 3.26138 4.67465 2.88089l2.6091-.3805 1.79376 2.66347c2.01119 2.93524 3.64188 4.45722 4.72901 4.51158.43485 0 1.52198.32613 2.44604.76098.97841.43486 2.82653.92406 4.18544 1.08713 1.35891.16307 3.75059.54357 5.38128.81535 1.57634.32614 7.33811.48921 12.77375.38049 7.71861-.16307 10.81692-.4892 14.29574-1.35891 2.9896-.76099 6.14226-1.14148 9.78414-1.14148 3.04396 0 8.9688-.59792 13.75216-1.41327 10.05594-1.63069 17.88326-2.50039 18.5899-2.06554.32613.21743 5.32692.32613 11.14305.27178 7.28375-.05435 11.57791.16307 13.91523.70664 1.84812.43485 5.05515.92405 7.06632 1.14148 2.06556.21743 4.72902.81535 6.03357 1.41327 2.22863.97841 5.70743 2.01118 11.63227 3.4788 1.57633.3805 3.26138 1.03278 3.69623 1.41326 1.35893 1.1415 6.57713.10872 10.49079-2.01118 5.81614-3.20702 7.12068-4.45722 9.40364-9.18622 2.0112-4.07673 2.1199-4.56594 1.79377-7.88168-.38049-3.91366-2.06554-8.04475-4.45722-10.70821-2.06555-2.33732-5.70742-3.20703-10.27335-2.33732-3.04397.59791-4.29416 1.14148-7.44683 3.37009-.76099.59792-1.03277.54357-1.52197-.10871-.70665-1.08713-.21744-5.59871.5979-5.87049.3805-.16307 1.57634-1.03278 2.66347-1.95683 1.73941-1.52198 4.67465-2.82653 7.12069-3.09831.43484-.05436 1.52198.16306 2.33732.4892.86972.3805 1.73942.65228 1.95682.65228 1.19585 0 5.16387 3.58752 7.1207 6.52277 2.0112 2.93524 3.80495 4.23979 3.80495 2.66346 0-1.57634-3.31575-6.90326-6.03355-9.72979-6.41407-6.63148-15.3285-9.13188-36.908-10.32772-4.94643-.27178-9.94722-.70663-11.14306-.97841-1.19584-.32614-3.37009-.81535-4.89207-1.08713-6.14227-1.2502-13.69781-4.729-16.68741-7.66425-.81536-.76099-2.01119-1.90247-2.66346-2.50039-2.28298-2.06555-7.55554-10.65386-7.55554-12.28455 0-.8697-.05436-1.68505-.10872-1.84811-.8697-2.77218-.70664-5.8705.54356-10.5995 1.35892-4.89207 1.6307-5.38128 4.729-8.4796 1.79377-1.84811 4.5116-3.96801 5.97921-4.67465 3.15267-1.57633 10.05594-2.6091 17.44839-2.6091 2.66348 0 5.70744-.27178 6.7402-.54357 2.1199-.59792 5.1095-3.37009 5.70743-5.32692.43485-1.57634 1.03277-1.52198 2.1199.16307 1.68504 2.6091.97841 4.02237-3.04396 5.87049-2.28297.97841-2.5004 1.52198-1.2502 2.55475.65228.54356 1.30455.59792 2.77218.10871 1.52198-.43485 3.26138-.38049 8.20781.48921 3.42444.54356 7.06634 1.03277 8.15346 1.03277 2.22861 0 6.03356-.97842 7.2294-1.84812 1.95683-1.46762 4.34851-2.50039 4.34851-1.95683 0 .32614-1.30455 1.90248-2.82653 3.47881-2.06555 2.06554-3.58752 3.15267-5.2182 3.58752-2.82655.70664-12.502.27178-15.6003-.81534-3.0983-1.03277-7.3381-1.41327-9.24058-.86971l-1.6307.48921 1.6307.05436c.92405.05435 2.50038.59792 3.53316 1.2502 6.52277 3.96801 14.02395 5.43563 17.8289 3.4788 2.82652-1.46762 3.96802.10872 1.63069 2.22862-1.90247 1.68504-3.31574 2.28296-6.57713 2.66346-2.82654.32614-3.26138.21742-8.86009-2.60911-3.26138-1.68505-6.90325-3.31574-8.04475-3.69623-1.19583-.3805-2.88088-1.14149-3.80494-1.68505-2.06554-1.19584-9.02316-2.33732-11.52356-1.84812-2.06554.3805-6.79454 2.44604-8.0991 3.53317-1.3589 1.08713-.92405 1.57633.92406 1.03277 2.82654-.76099 8.64267-.65228 11.25178.21743 1.35891.4892 2.6091.76098 2.88089.59791.59792-.38049 4.62029 3.09832 6.14227 5.32693.65227.97842 1.30455 2.88089 1.46762 4.13109.16308 2.1199 0 2.55475-1.63069 3.96801-2.22861 1.95683-4.2398 2.17426-3.64188.32614 1.35891-4.29415.65228-7.01197-2.39168-9.78415-3.20703-2.88089-9.78415-3.96802-13.86087-2.28297-2.55476 1.08713-6.30535 4.45723-7.1207 6.46841-1.03277 2.44604-.3805 8.86009 1.1415 11.30613.70662 1.14149 1.30454 2.28297 1.30454 2.55475 0 .65228 5.27256 6.03356 5.92486 6.03356.2174 0 .8697.43485 1.4676.97842 1.84813 1.68504 4.2398 2.9896 6.19664 3.42445 1.03276.27178 3.15266.81534 4.729 1.25019 2.5004.70663 11.08871 1.68505 20.27494 2.28297 5.9792.43486 15.92642 1.90248 18.64422 2.77218 1.41328.48921 2.71783.70663 2.93526.54356.16307-.21742-.21743-1.57633-.8697-3.04396-1.35891-3.20702-1.46762-5.48999-.32614-7.66425 1.03278-2.01118 1.35891-2.01118 2.71782.05436.59792.92406 1.52198 1.90247 2.1199 2.22861.92406.48921.97841.3805.59792-1.57634-.27178-1.7394-.10871-2.28296.76099-3.15266.65227-.54357 1.14148-1.41327 1.14148-1.95684 0-1.19583 2.01119-2.66346 3.58752-2.66346 1.79375 0 2.01119.65228.48921 1.84812-2.06554 1.68505-3.42446 6.19663-2.93526 9.67544.761 5.87049 1.4133 7.2294 4.94645 10.5995 1.84811 1.7394 3.91365 3.69623 4.62029 4.3485.70663.65228 1.2502 1.41327 1.2502 1.7394 0 .27179.8697 2.0112 1.95683 3.80496l2.01118 3.31574-.92405 2.33732c-1.08713 2.82653-1.08713 4.67465-.05436 6.03356.43486.59792.81536 1.84812.81536 2.77217 0 .92406.38048 2.17425.76097 2.77218.70663.97841.70663 1.63069.05436 4.72901-.81533 3.91366-1.41327 5.27256-2.66346 6.35969-.48921.3805-.86971 1.14149-.86971 1.68505 0 1.95682-2.17426 4.78336-4.23979 5.43564-2.88089.92406-3.15267 1.14148-1.84812 1.63068.65228.2718 1.19585.70664 1.19585 1.03278 0 .92406-3.6419 2.22862-7.55555 2.77218-1.95683.27178-3.64188.59792-3.75059.76099-.16306.10871.3805.54355 1.19584.8697 2.9896 1.41327.8697 2.44604-2.39168 1.19585-1.73942-.70664-2.44602-.761-3.42445-.21744-1.03277.54357-1.63069.43486-3.91367-.76099-1.52197-.76098-2.93524-1.3589-3.15266-1.3589-.27178 0-1.30454-.86971-2.28297-1.95683-1.19584-1.2502-2.17427-1.84812-2.71782-1.68505-.43485.21742-1.79375 0-2.9896-.43485-3.04395-1.08714-7.33811-1.30456-7.33811-.3805 0 .43486 2.88089 2.28296 6.41406 4.13109 10.8169 5.70742 14.51315 11.25177 16.14384 23.97117.32614 2.66346.70663 6.03355.92406 7.44682.32613 2.50038.27178 2.6091-1.03277 2.6091-.76099 0-1.68505-.38049-2.06555-.81534-.97841-1.19584-2.55475-.97842-2.88088.32614-.21743.76098.16306 1.52198 1.30455 2.50038.8697.81536 1.57633 1.79377 1.57633 2.28298 0 .48922.3805 1.35892.81535 1.90247.43485.59792.70663 1.46763.54357 1.95683-.43486 1.35892 1.6307 4.13109 3.31573 4.51158 1.68505.3805 2.55475 1.79376 4.62029 7.66424.54358 1.6307 1.52198 3.85932 2.1199 4.94644.59792 1.08713 1.08713 2.28296 1.08713 2.66346 0 1.2502 3.31575 7.01198 5.1095 8.91445.92405 1.03278 2.60911 2.28297 3.69625 2.88089 2.44602 1.2502 2.8265 1.79376 2.06553 3.15266-.81533 1.57635-.16307 2.60912 2.17427 3.53318 3.26137 1.30455 3.37008 2.77217.27177 2.77217-1.08713 0-1.68507.32615-1.79377.86971-.21742 1.25019 1.90248 1.68504 5.27257 1.03277 3.31573-.59793 4.6203-1.2502 5.70743-2.77218.43485-.65227 1.08712-1.03277 1.52197-.92405.48923.16306.05436.8697-1.25019 2.2286-1.52198 1.522-2.60911 2.06555-5.27258 2.55476-3.26138.65227-3.31573.70664-2.55474 1.79374.43484.6523.81534 1.73942.81534 2.3917 0 1.7394 3.4788 3.42445 7.06633 3.42445 2.9896 0 3.64187.81535 1.14147 1.35891-1.90246.38049-5.1095-.3805-7.55552-1.90246-.97841-.59793-2.50038-1.08714-3.37008-1.08714-2.33734 0-2.1199 1.52198.5979 4.67464 2.66347 3.04396 2.6091 4.2398-.21742 4.45723-2.50038.21743-2.66348 1.46762-.43485 3.3701.92407.76097 1.79377 2.01117 2.01117 2.82653.2718 1.2502.10873 1.57634-1.0871 2.06554-1.57635.59792-1.68506 1.19584-.81536 3.7506.8697 2.5004-.10871 3.42444-1.84812 1.79375-.97842-.92405-1.41326-1.03277-1.90247-.54355-1.52198 1.52197-.05435 4.3485 2.93525 5.5987 2.1199.8697 2.44603 2.28297.761 3.80494-1.08714.97842-1.19586.97842-3.58754-.16307-3.75059-1.84811-5.38128-1.63067-7.06633.92406-.8697 1.35891-1.35891 2.71782-1.25019 3.69624.27176 2.33733-.3805 2.9896-2.60911 2.55473-1.68505-.32612-2.06553-.16305-3.53317 1.6307-.8697 1.08714-1.79376 1.95684-2.06554 1.95684-.92406 0-1.03277-1.79376-.21742-3.3701.4892-.92404.761-2.33734.65227-3.20704-.27177-1.5763.32613-2.1199 2.28297-2.1199 2.60911 0 6.3597-3.64186 5.05516-4.9464-.3805-.3805-1.19586-.10873-2.60912.81533-1.14148.76099-2.82653 1.41327-3.75058 1.41327-.92407 0-2.3917.4892-3.31575 1.08713-.8697.59792-1.95683 1.08712-2.39168 1.08712-.43487 0-1.52197.92405-2.5004 2.01119-1.19584 1.41326-1.95683 1.90246-2.66347 1.63069-.81534-.32613-.81534-.54356.21744-2.60911 1.08712-2.06552 1.08712-2.28296.27178-3.53316-1.19584-1.84812-.59792-2.44604 1.63068-1.52198 1.03278.43485 3.09832.76099 4.56595.76099 2.44605 0 2.88088-.21743 5.16385-2.39167 1.3589-1.35892 2.6091-3.09832 2.77218-3.96803.16307-.81534.97842-3.58752 1.79376-6.08791 1.2502-3.91366 1.46762-5.43564 1.46762-11.14306 0-3.58752-.10871-7.28376-.27178-8.2078-.21743-1.30457 0-1.73942 1.08712-2.283 2.1199-1.03276 1.68505-2.01117-1.14148-2.3373-2.1199-.2718-3.09832-.81535-6.63148-4.07674-2.88088-2.50039-4.67464-4.67466-5.5987-6.63148-1.41327-2.88088-1.46764-2.88088-3.47881-2.55475-1.57633.27177-2.60911.05437-4.18543-.8697-2.5004-1.35891-5.05516-5.00079-5.05516-7.12069 0-1.46762-1.19584-3.20702-2.22861-3.20702-.27178 0-.97843.76098-1.52198 1.68505l-1.03277 1.68503-1.90248-2.88087c-2.44603-3.80495-7.3381-8.69703-13.53473-13.53474-.86971-.65229-1.52197-1.63069-1.52197-2.22862 0-.59792-.81536-1.84811-1.73942-2.82653-.97841-.97841-3.20702-4.34851-5.00078-7.50118-1.7394-3.09831-4.02238-6.79456-5.0008-8.15346-1.03276-1.41326-1.8481-2.71782-1.8481-2.93524 0-.16306-.97842-1.52198-2.22862-2.9896-1.84812-2.17426-2.88088-2.88089-6.3597-4.13109-2.28298-.81535-4.78336-1.52197-5.54435-1.57633-.76099-.10872-1.63069-.16307-1.95683-.21744-.32614 0-1.6307-.76098-2.9896-1.63068-2.28297-1.52198-2.55475-1.57634-5.1095-1.03277-1.52198.32614-3.15267.8697-3.69624 1.25019-.70663.48921-1.52197.54356-2.71781.21743-.97842-.27178-2.06555-.48921-2.39169-.48921-1.03276 0-.8697 1.08714.27179 1.41327.4892.16307 1.35891.54357 1.90247.81534.70663.3805 1.35891.21743 2.55475-.70663 1.52198-1.08713 1.84812-1.14148 4.07673-.54356 1.30455.32614 3.91366 1.35891 5.76178 2.28297 1.90247.8697 4.18544 1.63069 5.16385 1.63069.97842 0 1.90247.21742 2.1199.4892.16307.27179 1.03277.70664 2.01119.86971 1.90248.43485 4.89208 3.37009 8.0991 7.99039 3.26138 4.729 2.50038 6.52276-1.2502 2.9896-1.03277-.92406-2.6091-2.22862-3.42445-2.82654-.8697-.65227-1.52197-1.6307-1.52197-2.17425.05435-1.68505-1.35892-2.88089-4.40288-3.80495-1.52197-.4892-3.20702-1.08713-3.75059-1.41326-2.17425-1.19584-6.90326-2.71782-7.44683-2.39169-.92405.54357-.5979 1.73941.70664 2.66347 1.14149.81534.97842.8697-2.9896.76098-4.51158-.1087-5.65306.32615-4.02237 1.46763 2.39168 1.79377-1.90247 2.39167-7.39247 1.03277-1.41327-.32614-1.52198-.21742-1.52198 1.3589 0 1.68506-.05436 1.68506-2.77218 1.68506-1.52197 0-3.64187-.3805-4.67464-.92406-1.6307-.761-1.95683-.761-2.39169-.10871-.21741.43485-.21741.97841.05436 1.25019.97842.97842 4.72901 2.33732 5.49 1.95683.43485-.21741 3.09831-.54356 5.92483-.70663 3.09833-.16308 5.81615-.65228 6.79456-1.14148.92406-.4892 1.95684-.8697 2.39168-.8697.3805 0 1.41326-.59793 2.33733-1.35892.8697-.76098 2.06553-1.3589 2.55475-1.3589 1.68504 0 4.40286 1.14148 4.40286 1.90247 0 .38049.3805.97841.81535 1.35891 1.57633 1.30454 0 1.52198-4.83773.76099-2.82652-.48921-5.05513-.59792-5.32692-.32615-.65228.65229.97842 2.28298 2.17426 2.28298.70663 0 .76099.10872.16306.65227-.43484.48921-2.28296.70665-5.54434.65228-2.66346-.05436-4.83772 0-4.83772.10871 0 .10872.48921.65228 1.14148 1.2502l1.14148 1.03276-1.14148.6523c-.65227.32613-2.88088.65227-5.00078.65227-2.06554.05435-3.91366.27178-4.07674.54356-.16306.21742.05436.43485.43486.43485.48921 0 .43484.27178-.21743.8697-.76099.81535-3.96801 1.03277-9.07751.59792-1.03278-.1087-1.41327.21743-1.68505 1.2502-.3805 1.7394-2.82653 2.06554-6.41406.8697-3.20702-1.08713-3.91366-1.08713-3.91366.10871 0 1.57634 2.93525 2.28297 8.09911 1.95683 2.50039-.16306 5.05514-.59792 5.70742-.97841.59792-.43485 2.44603-.92406 4.07672-1.08713 5.54436-.70663 12.66504-2.8809 17.77454-5.43564 2.01119-1.03276 10.92564-2.88089 12.3389-2.6091 1.90248.38049.48921 1.46762-4.02237 3.09831-2.50039.92406-6.90327 2.93525-9.78415 4.51158-9.07752 4.89208-15.81771 6.41405-19.07909 4.2398-1.63069-1.08713-2.17426-.59792-2.28297 2.06555-.05436 1.57633-.16306 1.68504-2.06554 1.57633-1.14148-.05436-3.04396-.65228-4.29416-1.30456-2.01118-.97841-2.33732-1.03277-3.04396-.32613-.65227.65226-.70663 1.03276-.21742 1.95682.59792 1.03278.48921 1.14149-1.14148 1.14149-.97842-.05435-2.77218-.43485-3.96802-.8697-3.96801-1.52198-4.02238-1.52198-4.62029 0-.59792 1.57633-.76099 1.57633-3.64188-.54357-.92406-.70663-2.22861-1.30455-2.88089-1.30455-1.03277 0-1.14148.21743-.8697 1.46762 1.30455 5.16385 1.41327 5.05515-3.64188 3.47881-1.84812-.54356-4.56594-1.35891-6.03356-1.7394-3.47881-.86971-6.30534-3.31574-6.30534-5.43564 0-1.30456.3805-1.73942 2.06555-2.44604 1.08712-.48921 3.8593-.97841 6.08791-1.03278 4.18544-.16306 6.68584-.81534 7.33811-1.90246.70664-1.14149-.27178-1.2502-3.09831-.32614-2.39168.761-2.93525.761-3.58752.16307-.59792-.65227-.59792-1.19584-.10872-3.09832.54357-1.90247.48921-2.44603-.16306-3.15267-1.08713-1.08713-2.0112-.38048-2.0112 1.52198 0 2.22861-1.08712 4.34851-2.28296 4.34851-.81534 0-.97841-.43485-.97841-3.26137 0-2.5004-.21743-3.3701-.86971-3.6419-1.14148-.43484-1.84812.761-1.84812 3.20704 0 2.33732-.4892 2.6091-1.52197.92406-.3805-.59792-1.08713-1.03278-1.63069-.92406-.70664.16306-.92406.97841-1.03278 4.78336-.21742 5.2182-.21742 4.6203.05436 11.03435.16307 3.8593.43485 5.16385 1.35891 6.41405 1.30455 1.7394 1.41327 2.1199.54357 2.1199-.81535 0-3.58753-3.09832-4.78337-5.43564-1.52198-2.82653-3.64188-3.8593-7.06633-3.42446-2.44604.2718-2.77217.48922-2.77217 1.57634 0 1.84812 1.08712 2.22861 2.28297.76099 1.03277-1.25019 1.03277-1.25019 2.44603-.21743.81535.59793 1.90247 2.5004 2.71782 4.56594 3.09832 8.20782 3.04396 8.15346 2.33733 9.67544l-.65228 1.46762-1.19584-1.52198c-2.28297-2.88089-3.26138-1.79376-3.09832 3.64188.05436 2.39168-.21742 4.6203-.70663 5.76178-.48921 1.30455-.70663 3.26138-.59792 6.14227.16307 3.20703.05436 4.18545-.48921 4.18545-.76098 0-1.41326-1.35892-2.44603-5.32693-.65228-2.33733-1.95683-3.04397-2.39168-1.35891-.86971 3.15267-.92407 6.35969-.16307 8.75137.43485 1.41327.8697 4.2398.97841 6.3597.16307 3.20703.05436 3.80495-.76099 3.96802-.70663.10871-.97842-.16307-.97842-1.08713 0-1.79376-.76098-2.77218-1.95682-2.50039-.8697.16307-.97842.59792-.8697 2.77217.21742 2.55475.16306 2.6091-1.35891 2.44604-1.46763-.16307-1.52198-.05434-1.35891 2.01119.05435 1.19584.10871 4.13107.10871 6.52277.05435 3.80494-.10871 4.4572-1.14149 5.27256-.65227.54357-1.68504.97842-2.39168.97842-.65227 0-1.84811.48922-2.6091 1.08712-1.14149.92406-1.41327.97842-1.68505.2718-.43485-1.1415-1.79376-1.0328-2.50039.2174-.86971 1.7394-.65228 2.22862 2.01118 4.67466 2.28297 2.1199 2.44604 2.33734 1.46762 2.88089-.54356.27178-1.7394.65228-2.6091.70665-1.63069.2174-2.06555-.21744-3.04396-2.93526-.32614-.97842-.92406-1.46764-1.68505-1.46764-1.19584 0-1.19584.43487-.16307 3.91367.3805 1.2502-1.63069 3.15268-3.31574 3.15268-1.19584 0-1.35891-.21743-1.35891-1.90248 0-3.42445-2.6091-2.01117-3.20702 1.73941-.43485 2.60912-1.90248 3.53316-4.40287 2.71782-1.46762-.4892-1.95683-.97842-2.06554-2.17426-.21743-1.84812.54356-2.88089 2.44603-3.3701.76099-.16307 2.22862-.97841 3.26139-1.7394 1.68505-1.30454 1.79376-1.52198 1.03277-2.28297-.76099-.70663-1.03277-.70663-2.82653.10873-1.08713.54355-2.1199.8697-2.22862.7066-.43485-.38048.3805-1.41325 1.14149-1.41325.32614 0 1.79376-1.19585 3.20703-2.66345 2.88088-2.9896 5.70742-9.02317 6.30534-13.3717.21742-1.52196.65227-3.5875.97841-4.62028.32614-1.03277.8697-2.88088 1.14149-4.07672.27178-1.19585 1.41326-5.0008 2.44603-8.42524 1.08713-3.42446 2.33733-8.09911 2.82653-10.32772.48921-2.22861 1.14149-4.83772 1.46763-5.70742.32614-.92406.76099-3.15267.97841-4.94642.21743-1.84813.81535-3.91367 1.30456-4.6203 1.08712-1.57634 1.08712-2.8809.05435-4.51158-.65227-.97842-.76099-2.01119-.48921-4.07672.21743-1.522.59792-2.93526.8697-3.09833.21743-.16307 1.30456.54357 2.28297 1.52198 1.35891 1.35891 1.95683 2.55475 2.22862 4.29415.32613 2.22862.54356 2.5004 2.50039 3.09832 1.14148.3805 2.77218.65228 3.53317.65228 1.25019 0 1.35891-.16307 1.03277-1.2502-.27179-.65227-.48921-2.17425-.54357-3.3701-.16307-3.4788-.21742-3.53316-1.35891-3.53316-1.08712 0-1.30455.48921-1.14148 2.28296.16307 1.68506-.97842 1.57634-1.73941-.21742-.70663-1.63068-2.55475-3.75058-5.00078-5.76178-1.30456-1.08712-.43485-1.79375 1.68505-1.41326 2.50039.48921 2.55475-1.08714 0-2.17426-2.55475-1.08712-4.18545-3.53316-4.29416-6.68583-.05436-1.84812-.32614-2.60911-.8697-2.60911-1.2502 0-1.68505 2.93526-1.14149 7.6099.32614 2.39168.54357 4.45722.54357 4.62029 0 .10871-.48921-.65228-1.08713-1.79376-.59792-1.08713-1.08713-2.60911-1.08713-3.31574 0-.76099-.4892-1.68505-1.14148-2.17426-.65228-.43485-1.03277-1.14147-.92406-1.52197.16307-.3805.05436-3.53317-.21743-7.01198l-.4892-6.3597 1.7394-2.88088c2.06554-3.53317 5.27257-6.95762 8.75138-9.3493 1.46762-.92406 2.60911-1.90248 2.60911-2.17426 0-.8697-2.17426-.27178-4.2398 1.2502-2.17426 1.52198-3.69624 2.1199-3.26139 1.19584.10872-.21742.97842-1.90247 1.95683-3.75059.92406-1.84813 1.73941-3.64188 1.73941-3.96802 0-1.03277-.92406-.54356-1.52198.81535-.43485.97841-1.03277 1.35891-2.1199 1.35891s-2.44604 1.03277-5.70742 4.45723c-3.8593 3.968-4.45722 4.40286-5.38128 3.80494-1.2502-.81534-3.20703-.8697-3.20703-.10871 0 .32613-.54356.05435-1.2502-.65228-2.71781-2.71782-2.71781-2.77218-.65227-6.30535 1.03277-1.79375 1.90247-3.42444 1.90247-3.58751 0-.81535-1.63069-.21743-2.17425.76099-.76099 1.41326-1.73941 1.35891-2.60911-.05436-.59792-.97842-.59792-1.41327.10871-2.93525.48921-.97841 1.46763-2.33732 2.22861-3.04395.70664-.70664 1.35891-1.46762 1.35891-1.73941 0-.76099-1.46762-.38049-2.44603.70664-1.2502 1.35891-1.73941 1.35891-2.17426 0-.43485-1.41327.8697-3.80495 3.80495-6.84891 1.35891-1.35891 2.44603-2.88089 2.44603-3.37009 0-.43485.43486-1.30455.92406-1.84812.92406-1.03277.86971-1.03277-.65227-.65228-1.68505.3805-4.02237 1.79376-6.08792 3.64188-1.46762 1.30455-1.57633 2.01119-.43485 2.01119.43485 0 .81535-.27179.81535-.59792 0-.27179.27178-.3805.65227-.16307.43486.27177.3805.54357-.16307.97841-.43485.32614-1.30455 1.57634-1.90247 2.77218-.81534 1.57633-1.57633 2.22861-2.77217 2.50038-2.39169.48922-2.60911.70664-3.7506 4.1311-1.14148 3.53316-1.79376 4.2398-2.82653 3.20702-1.35891-1.35891-1.03277-4.89207.70664-7.33812.92405-1.25019 1.84811-2.6091 2.17425-3.04395.70663-1.03277-.10871-1.7394-1.2502-1.03277-.4892.32614-1.68504 1.68505-2.6091 2.9896-2.39168 3.42446-4.51158 4.67465-8.69702 5.1095-6.68584.76099-12.28455-.4892-14.8393-3.20702-1.63069-1.73941-1.03277-2.55476.65228-.97842.70663.65228 1.79376 1.19584 2.39168 1.19584.65228 0 1.2502.27178 1.35891.59792.27178.8697 6.03356 1.57634 8.75138 1.14149 1.848115-.32614 2.66346-.92406 4.67465-3.37009 1.52198-1.95684 3.53316-3.58753 5.65306-4.72902 4.07673-2.17425 4.45722-2.55475 3.42445-3.37009-.65227-.54356-1.08712-.54356-2.06554.16307-2.17425 1.52198-4.56594 1.08713-7.06633-1.2502-2.1199-1.95683-2.28297-2.33732-2.33732-5.00079 0-2.28297.163065-2.93524.924055-3.09831.706635-.10871 1.032775.32614 1.304555 1.90247.16307 1.14149.70663 2.66347 1.14148 3.31574.8697 1.35891 3.75059 2.82653 5.65307 2.82653 1.84811 0 4.62029-3.0983 5.65306-6.30534.65228-2.11989 1.7394-3.75059 3.8593-5.9792 2.77218-2.82653 5.65307-7.44682 5.65307-9.02316 0-.43485.38049-1.30455.8697-1.95683.81535-1.19584.92406-1.19584 1.84812-.38049 1.63069 1.46762 3.04395.16307 5.48999-4.94643 1.95683-4.02238 2.17426-4.83772 1.73941-6.63148-.27179-1.19584-.8697-2.06555-1.41327-2.17426-.81535-.16307-.8697.16307-.59792 2.9896.27178 2.50039.16307 3.31574-.48921 3.85931-.70663.59792-1.03277.43485-2.22861-.81535-.76099-.81535-1.41327-1.79376-1.41327-2.1199 0-.32614-.32613-.92406-.76098-1.2502-.65228-.54356-.97842-.38049-1.73941.76099-.81534 1.2502-1.19584 1.35891-2.9896 1.08713-1.35891-.21742-2.66346-.10871-3.64188.43485-1.03277.48921-1.95683.59792-2.77217.27178-.70664-.21742-1.46763-.32613-1.73941-.10871-.27178.16307-.48921-.05435-.48921-.48921 0-.92405 2.39169-2.1199 3.47881-1.68504 1.08713.43484 4.13109-1.03278 6.63148-3.26139 2.22861-1.90247 2.28297-2.06554 2.60911-6.14227.16307-2.33732.32614-4.67465.32614-5.21821.05435-1.19584-1.52198-2.60911-2.71782-2.39169-.8697.16308-.8697.86971-.48921 7.55554.16307 2.60911.05436 3.26139-1.03277 4.40287-1.30455 1.41327-5.92485 3.04396-14.78494 5.27257-2.55475.59792-5.48999 1.35891-6.57712 1.63069-5.76178 1.52198-16.796124-.76099-16.796124-3.47881 0-1.03276 2.826534-1.46762 3.804944-.65227 1.52198 1.30455 4.13109 1.41326 7.39247.27178 2.88089-1.03277 3.47881-1.03277 7.88168-.43485 3.53316.48921 5.1095.54356 6.03356.10871.70663-.32613 1.63069-.65228 2.06554-.65228 3.42445-.05435 5.48999-.8697 7.60989-3.04395 3.47881-3.53317 3.53317-5.43564.21743-12.23019-2.55475-5.21821-2.71782-5.43564-5.1095-6.19663-5.9792-1.90247-12.66504-1.46762-7.93603.48921 5.92484 2.50039-2.71782 2.66346-10.27336.21743-7.55554-2.44604-9.403656-4.2398-10.164645-10.00158-.869705-6.25098-1.032775-5.76178 2.065545-6.57712 1.57633-.3805 5.54435-.70664 9.24058-.65228 3.53317 0 7.93604-.27178 9.67544-.59792 1.84812-.38049 3.42445-.43485 3.69623-.16307.65228.65228-.10871 2.39168-.92405 2.06555-.32614-.10872-.97842 0-1.41327.27178-.65228.38049-.65228.70663.10871 1.95682.70664 1.30456 1.14149 1.52198 3.04396 1.35892 1.90247-.10872 2.28297.05435 2.55475 1.14148.43485 1.7394 3.80495 3.09831 7.60989 3.09831 2.71782 0 3.47881.21743 5.27257 1.68505 1.57634 1.2502 2.55475 1.63069 3.85931 1.46762 2.06554-.21742 2.9896-2.06554.97841-2.06554-1.52198 0-3.31574-.97841-4.34851-2.39168-1.08713-1.52198-2.17426-4.67465-1.84812-5.43564.10872-.38049-.4892-1.30455-1.30455-2.17425-1.68505-1.57634-3.64188-1.90248-7.28376-1.14149-2.66346.54357-2.71781-.38049-.21742-2.01118 1.03277-.70664 2.01119-1.68505 2.1199-2.17426.21742-.76099.8697-.92406 4.07673-.81534 2.06554.05435 3.69623.27178 3.58752.43485-.27178.43485 4.89207 1.57633 7.12069 1.57633 1.03277 0 2.01118-.27178 2.17425-.54356.65228-1.08713-.92406-2.17426-3.09831-2.17426-2.28297 0-5.00079-1.14148-6.52277-2.77217-1.14148-1.14149-1.30455-1.95683-.27178-1.19584 1.03277.81534 9.51236.21742 9.8385-.70664.21743-.54356-.21742-.76099-1.63069-.76099-2.39168 0-2.71782-.81534-1.63069-4.45722.65228-2.22861 1.68505-3.696235 4.40287-6.57712 1.95683-2.01119 3.91366-3.64188 4.29415-3.64188.43485 0 1.46762-.3805 2.28297-.81535 1.84812-.97841 2.93525-1.03277 2.93525-.21742Z"/>
        </g>
        <g id="Graphic_116">
          <path fill="#f3f3f3" d="M95.47417 76.25861c-.76099 1.63069-.65227 3.15267.65228 7.44682.43485 1.41327-.43485 1.68505-1.63069.54357-.92406-.97842-.81535-8.04475.21742-9.24059 1.14149-1.41326 1.68505-.54356.76099 1.2502Z"/>
        </g>
        <g id="Graphic_115">
          <path fill="#f3f3f3" d="M81.72201 77.72623c0 .27178-.3805.92406-.81535 1.46762-1.84812 2.44604.05436 5.32693 4.72901 7.2294 2.33732.92406 2.6091 1.57634.92405 2.06555-2.06554.65227-8.0991-4.45723-8.0991-6.90326 0-1.195845 1.95683-4.2398 2.77218-4.2398.27178 0 .48921.16307.48921.38049Z"/>
        </g>
        <g id="Graphic_114">
          <path fill="#f3f3f3" d="M88.78834 93.65265c.43485-.32614 1.41326-.54356 2.1199-.54356h1.30455l-1.2502 1.08713c-1.57633 1.35891-3.47881 1.19584-3.69623-.27178-.10871-.70664 0-.86971.27178-.43486.32614.43486.76099.48921 1.2502.16307Z"/>
        </g>
        <g id="Graphic_113">
          <path fill="#f3f3f3" d="M118.68435 97.24017c0 .43486-.21743.76099-.48921.76099-.65227 0-1.7394-1.41326-1.35891-1.79376.54357-.4892 1.84812.21743 1.84812 1.03277Z"/>
        </g>
        <g id="Graphic_112">
          <path fill="#f3f3f3" d="M95.03932 100.22978c.65228 1.03277-.21742 3.20702-1.35891 3.20702-.8697 0-2.60911-2.01118-2.06554-2.39168.48921-.43485 2.39168-1.35891 2.71782-1.41326.21742 0 .54356.27178.70663.59792Z"/>
        </g>
        <g id="Graphic_111">
          <path fill="#f3f3f3" d="M144.82977 102.29532c1.95683 1.19584 6.14227 1.57633 6.74019.59792.16307-.32614.81534-.54356 1.41327-.54356.54357 0 1.03277.21742 1.03277.54356 0 .27178-.59792.54356-1.30455.54356-.81535 0-1.41327.3805-1.57634 1.08713-.16307.59792-.8697 1.30455-1.63069 1.57634-.76099.27178-1.52198.81534-1.7394 1.08712-.54357.92406-2.82654.70664-5.16386-.4892-1.19584-.59792-2.66346-1.08713-3.26138-1.08713-1.73941 0-1.90248-1.46762-.32614-3.53317 1.57633-2.06554 2.1199-2.01118 5.81613.21743Z"/>
        </g>
        <g id="Graphic_110">
          <path fill="#f3f3f3" d="M59.27282 105.28492c-.108714.32614-1.03277.65228-2.065544.70663-1.032771.10872-3.15267.43485-4.783362.81535-2.282968.4892-3.15267.97841-3.804944 2.17425-.92406 1.57634-1.68505 2.01119-1.68505.81535.054356-2.17426 4.62029-6.30534 7.06633-6.3597.76099-.05435 1.84812-.27178 2.44604-.54356.81534-.32614 1.35891-.16307 2.06554.65228.543564.65227.8697 1.41326.76099 1.7394Z"/>
        </g>
        <g id="Graphic_109">
          <path fill="#f3f3f3" d="M141.78581 108.9268c2.9896 1.41326 4.02238 1.63069 5.97921 1.41326 1.30455-.21742 2.55475-.10871 2.71782.16307.54356.86971-2.22862 2.22861-3.69624 1.90247-1.63069-.43484-3.64188.48921-3.64188 1.6307 0 .4892.54357.81534 1.41327.81534 1.63069 0 6.57712 4.40287 5.97921 5.32693-.54357.92406-1.2502.81535-2.44605-.48921-.70663-.81534-1.52197-1.08713-2.82653-.92406-2.33732.21743-2.28297.97842.27178 2.22862 1.08713.4892 1.95683 1.30455 1.95683 1.79376 0 .43485.70664 1.46762 1.6307 2.28296.8697.81535 1.52197 1.95683 1.52197 2.60911-.16306 2.01119 1.19584 4.45722 2.71782 4.83772.81535.21743 2.28298.8697 3.26138 1.46762 2.33733 1.46762 1.57634 2.33733-1.57633 1.79376-2.44604-.43485-4.83772-2.44603-4.83772-4.07673 0-1.68504-1.63069-1.79376-2.22861-.16307-.65228 1.79377.21743 4.2398 2.01119 5.43565 1.46762.92405 5.1095 7.88167 5.1095 9.62107 0 .59793-.21743 1.46763-.48921 1.84812-.48921.81535-.8697.43485-2.50039-2.77218-1.30456-2.55475-2.17426-3.31573-3.26139-2.88088-1.03277.38049-1.08712 2.17425-.05435 2.9896.38049.32614.8697 1.30455 1.03277 2.1199.43485 2.06554 4.29415 8.91444 5.27257 9.3493 3.04396 1.3589 4.02237 2.01118 4.2398 2.66346.38049 1.19584-2.71783.38049-5.38129-1.41327-1.57634-1.03277-2.39168-1.30455-2.55474-.81534-.10872.32613-.43486.65227-.761.65227-.32613 0-.27178-.32614.10872-.81535.54356-.70663.54356-1.03276-.21742-1.79375-.48922-.54357-.86971-1.68505-.86971-2.5004 0-1.79375-1.52198-2.50039-2.50039-1.19584-.761 1.03277-.43486 8.26217.38049 9.3493.27178.27179.32614 1.41327.16307 2.44604-.27178 1.57633 0 2.22861 2.06554 4.67465 1.35891 1.63069 3.20703 3.15267 4.51158 3.64187 3.04396 1.2502 1.90248 2.22862-2.1199 1.73941-2.55475-.32614-3.15267-.65228-4.51158-2.39168-1.63069-2.1199-2.88089-5.43564-2.88089-7.82732 0-.92406-.59791-1.90248-1.7394-2.93525l-1.79376-1.46762-.48921 2.60911c-.32614 1.7394-.27178 3.20702.10871 4.18544.32615.81534.48921 1.52198.3805 1.52198-.10871 0-.59792.16306-1.14148.38049-.59792.21743-.81535.16307-.59792-.21743.21742-.32613-.16307-1.30455-.86971-2.17425-2.66346-3.31574-2.77217-5.54435-.76099-15.92642 1.30455-6.57713 1.6307-12.82811.97842-20.49236-.76099-8.58831-1.63069-11.63227-4.94643-16.74177-.81535-1.19583-1.63069-2.44603-1.79376-2.82653-.21743-.32613 0-1.03277.4892-1.46762 1.35892-1.41326 5.1095-1.08713 9.18623.81535Z"/>
        </g>
        <g id="Graphic_108">
          <path fill="#f3f3f3" d="M125.26147 109.74214c.54357.70664.54357.92406-.10871 1.35891-1.2502.76099-1.57634.59792-1.57634-.8697 0-1.57633.65228-1.7394 1.68505-.48921Z"/>
        </g>
        <g id="Graphic_107">
          <path fill="#f3f3f3" d="M64.98024 116.80847c-.10871.54357-.543564 1.2502-.978415 1.46763-.434855.21742-.76099.92405-.76099 1.46762 0 1.19584-.869705 1.90247-1.358909 1.08713-.434851-.70664.760989-4.45723 1.576334-5.00079.92406-.65228 1.68505-.16307 1.52198.97841Z"/>
        </g>
        <g id="Graphic_106">
          <path fill="#f3f3f3" d="M303.49606 115.93877c0 .27178-.27178.54357-.59792.54357-.27178 0-.38049-.27179-.21744-.54357.1631-.32614.43487-.54356.59794-.54356.10871 0 .21742.21742.21742.54356Z"/>
        </g>
        <g id="Graphic_105">
          <path fill="#f3f3f3" d="M73.024985 119.68936c.652275 1.2502.760985 6.03356.163065 6.03356-.70663-.05436-3.315736-4.02237-3.69623-5.59871-.380495-1.35891-.27178-1.46762 1.30455-1.46762 1.08713 0 1.84812.3805 2.228615 1.03277Z"/>
        </g>
        <g id="Graphic_104">
          <path fill="#f3f3f3" d="M91.4518 120.77649c.65228.8697 1.14148 1.84811 1.14148 2.1199 0 .8697-2.33732 1.46762-2.6091.70663-.10872-.32614-.81535-1.35891-1.52198-2.17425-1.68505-2.01119-1.63069-2.22862.27178-2.22862 1.14148 0 1.95683.43485 2.71782 1.57634Z"/>
        </g>
        <g id="Graphic_103">
          <path fill="#f3f3f3" d="M95.3111 125.01629c.81535.76099.92406 1.08713.3805 1.68505-.3805.43485-.8697 1.57633-1.19584 2.44603-.8697 2.66347-1.84812 2.88089-6.30534 1.57634-4.6203-1.35891-15.60029-1.68505-21.6882-.65228-1.95683.32614-4.18544.48921-4.94643.32614-.76099-.16307-4.22726.07526-7.05379-.03345-3.533164-.16307-5.01333-.7819-5.88303-1.59724-1.141487-1.03278-1.630694-4.13108-.59792-4.13108.326135 0 .72307.7464 1.04531 1.54706.322246.80067.65646 1.07458 1.25438 1.6725 1.141485 1.14149.907334 1.29201 6.50604.96588 3.261385-.21743 6.95762-.65228 8.207816-.97842 1.250194-.32614 3.043954-.76099 4.022374-.97842 1.14148-.32613 1.90247-.27178 2.44604.21743.38049.43485 1.57633.92406 2.66346 1.08713 1.79376.32614 2.011185.27178 2.33732-1.08713.3805-1.46762.434855-1.46762 3.75059-1.08713 1.84812.21743 3.80495.59792 4.29416.8697.54356.27179 1.57633.3805 2.33732.16307.81535-.21742 1.73941-.05435 2.17426.32614.48921.38049.97841.54357 1.19584.32614.16307-.16307.05436-.32614-.27178-.32614-.3805 0-.65228-.27178-.65228-.54356 0-.32614.70663-.54356 1.63069-.54356 1.03277 0 1.84812-.3805 2.28297-1.08713.81535-1.30456.70663-1.30456 2.06554-.16307Z"/>
        </g>
        <g id="Graphic_102">
          <path fill="#f3f3f3" d="M73.51419 132.7349c1.41327 2.01118 1.41327 2.17425-.05435 2.06554-1.46763-.05436-2.06555-.76099-2.06555-2.44604 0-1.63069.81535-1.52198 2.1199.3805Z"/>
        </g>
        <g id="Graphic_101">
          <path fill="#f3f3f3" d="M61.06658 133.6046c0 .76099-.217426 1.3589-.543564 1.3589-.271782 0-.543566-.59791-.543566-1.3589 0-.761.271784-1.35891.543566-1.35891.326138 0 .543564.59791.543564 1.35891Z"/>
        </g>
        <g id="Graphic_100">
          <path fill="#f3f3f3" d="M103.62763 144.96508c.16307.43485 0 1.08713-.43485 1.41327-.54356.43485-.76099.43485-.97842-.10871-.54356-1.57634.81535-2.82654 1.41327-1.30456Z"/>
        </g>
        <g id="Graphic_99">
          <path fill="#f3f3f3" d="M92.21279 190.46138c-.65228.65227-1.41327.97842-1.73941.81534-.65227-.43485-.21742-3.47881.70664-4.62029.43485-.54356.70663-.38049 1.35891.97842.76099 1.57633.70663 1.79375-.32614 2.82653Z"/>
        </g>
        <g id="Graphic_98">
          <path fill="#f3f3f3" d="M301.86537 190.40702c.59793.3805.3805.54356-.92407.54356-.92405 0-1.90246-.27178-2.06553-.54356-.43485-.70663 1.90247-.70663 2.9896 0Z"/>
        </g>
        <g id="Graphic_97">
          <path fill="#f3f3f3" d="M290.45053 193.50533c2.71782.54357 3.04397.81535 1.52197 1.2502-2.1199.59792-5.00078-.10871-5.2182-1.30455-.16307-.8697 0-.97842 1.03277-.65228.70663.21743 1.90247.54357 2.66346.70663Z"/>
        </g>
        <g id="Graphic_96">
          <path fill="#f3f3f3" d="M95.36546 200.29988c-.59792 1.63069.59792 3.15267 2.55475 3.15267 1.57633 0 1.90247.76099 1.46762 3.80495-.48921 3.4788-1.52198 3.4788-2.39168 0-.54356-2.06554-1.08713-2.93524-2.22861-3.53316-1.35891-.70664-1.46762-.97842-1.08713-2.66347.54357-2.44603 1.08713-3.26137 1.73941-2.6091.27178.27178.27178 1.03277-.05436 1.84811Z"/>
        </g>
        <g id="Graphic_95">
          <path fill="#f3f3f3" d="M110.36782 202.74592c-.43485 1.14148-1.35891 3.91366-2.01118 6.14228-1.90248 6.52276-1.90248 6.57711-2.82654 4.45722-.70663-1.6307-.70663-2.17426.48921-5.81614 1.2502-3.80494 4.07673-7.93603 4.89208-7.12068.16307.16306-.05436 1.2502-.54357 2.33732Z"/>
        </g>
        <g id="Graphic_94">
          <path fill="#f3f3f3" d="M102.70357 209.10562c-.16307 1.19584-.32614 2.66346-.38049 3.15268-.05436 1.90246-.92406 1.4676-1.30456-.70665-.38049-2.33732.54357-5.5987 1.46763-5.05515.32613.21744.38049 1.35892.21742 2.60912Z"/>
        </g>
        <g id="Graphic_93">
          <path fill="#f3f3f3" d="M96.39823 214.9761c0 .54357-.38049.97842-.81534.97842-.43486 0-.81535-.32614-.81535-.70662 0-.32615-.16307-1.2502-.3805-2.0112-.32613-1.3589-.32613-1.3589.81535-.32614.65228.59792 1.19584 1.46763 1.19584 2.06554Z"/>
        </g>
        <g id="Graphic_92">
          <path fill="#f3f3f3" d="M230.38672 213.78027c.16308.27178-.05435.54356-.4892.54356-.48922 0-.86972-.27178-.86972-.54356 0-.32614.21744-.54357.48922-.54357.32614 0 .70663.21743.8697.54357Z"/>
        </g>
        <g id="Graphic_91">
          <path fill="#f3f3f3" d="M103.08407 215.7371c-.43485 1.14148-1.2502.92406-1.2502-.32614 0-.70663.27178-.97842.76099-.76099.43485.16307.65228.65228.48921 1.08713Z"/>
        </g>
        <g id="Graphic_90">
          <path fill="#f3f3f3" d="M233.32197 218.50927c2.06553 1.35891 2.22861 1.52198 1.25019 1.95683-.76098.3805-2.17426.05436-4.83771-.9784-4.56595-1.84813-4.6203-1.84813-4.18545-2.55476.65228-.97842 5.27257-.05436 7.77297 1.57633Z"/>
        </g>
        <g id="Graphic_89">
          <path fill="#f3f3f3" d="M92.91942 219.27026c1.19584.97842.92406 2.06554-1.14148 4.83772-1.03277 1.41327-1.90248 3.09832-1.90248 3.69623 0 .59792-.43485 1.63069-1.03277 2.33733l-.97841 1.2502-.3805-1.19584c-.21742-.59792-.10871-2.17426.21743-3.42446.32614-1.19584.48921-2.33732.32614-2.50039-.43485-.48921-2.06555 2.44605-2.77218 5.1095l-.70663 2.60911-.70663-1.79376c-.92406-2.22862-1.35891-2.17426-2.33733.1087-.43485.97842-1.03277 2.0112-1.35891 2.17426-1.46762.92406-.43485 1.41327 2.1199 1.08714 2.17426-.2718 2.71782-.21743 2.71782.43484 0 1.35891-1.7394 2.39168-5.32693 3.09832-3.20702.59792-3.53316.59792-5.05514-.48921-1.95683-1.41327-3.20703-1.08713-3.20703.81535 0 1.57633 1.73941 3.53316 3.15267 3.53316 1.08713.05436 2.82654 1.2502 2.82654 2.01119 0 1.19585-2.22862 2.50039-4.40287 2.55475-1.68505 0-2.44604-.2718-3.20703-1.19584-1.30455-1.6307-1.95683-1.52198-2.9896.43484-.978415 1.90248-1.19584 1.95684-2.50039.761-1.195844-1.03277-2.1199-.59792-2.1199 1.03277 0 1.52198 1.41326 3.64188 2.446035 3.64188.652275 0 2.337325 3.69623 1.793761 4.02237-3.804946 2.55475-5.000786 2.55475-6.305341 0-.815345-1.63069-.924059-2.33732-.434851-4.13109 1.032771-3.75059-1.630694-5.76177-3.370094-2.55475-.48921.97842-1.739406 2.60912-2.663465 3.58752-1.521979 1.52198-1.685045 2.0112-1.250195 3.20703.326136.76099.54356 1.73941.54356 2.17427 0 1.19583-2.011184.92404-2.93524-.43486-.65228-.86971-1.304556-1.19584-2.60911-1.08714-1.52198.10872-2.55475-.54356-2.609106-1.63068 0-.21742 1.35891-1.41327 2.989601-2.66347 1.793761-1.35891 3.152671-2.82653 3.370095-3.69623.16307-.76099.65228-1.68505 1.03277-1.95682.3805-.32615 1.68505-3.47882 2.93525-7.06634 3.69623-10.97999 5.27257-13.48039 10.110285-16.1982 1.739405-.92406 2.935245-1.14149 6.414055-1.03278 2.772174.05436 5.81613-.27178 8.42524-.97841 2.28297-.54357 4.89207-1.14148 5.76178-1.2502 2.33732-.38049 6.30534.05436 7.12068.76099Z"/>
        </g>
        <g id="Graphic_88">
          <path fill="#f3f3f3" d="M99.38783 220.30303c0 .3805-.32614.81535-.65227.92407-.43486.16306-.70664-.21743-.70664-.92407 0-.70663.27178-1.08713.70664-.97841.32613.16308.65227.59792.65227.97841Z"/>
        </g>
        <g id="Graphic_87">
          <path fill="#f3f3f3" d="M104.98654 224.05362c.16307.43485-.05436.65228-.48921.48921-.38049-.10871-.81534-.54356-.92406-.92406-.16307-.43485.05436-.65227.48921-.4892.3805.10871.81535.54356.92406.92405Z"/>
        </g>
        <g id="Graphic_86">
          <path fill="#f3f3f3" d="M239.35553 223.51006c0 .27178-.3805.76099-.81535 1.14148-.70663.59792-1.08713.54356-2.22861-.05434-1.2502-.6523-1.30455-.761-.3805-1.08714 1.41327-.59792 3.42446-.59792 3.42446 0Z"/>
        </g>
        <g id="Graphic_85">
          <path fill="#f3f3f3" d="M93.73477 227.36936c-1.41327 3.26139-1.63069 7.06634-.54357 9.94722.70664 1.95682.65228 2.1199-.32613 2.71782-.59792.32614-1.79377 1.30455-2.60911 2.17426-.97842 1.03277-1.68505 1.46762-2.06554 1.08712-.86971-.8697.10871-3.8593 1.52198-4.78336 1.25019-.81534 1.30455-1.08712.97841-4.2398-.38049-3.69622.59792-7.88167 2.22861-9.67542 1.68505-1.84813 2.1199-.2718.81535 2.77216Z"/>
        </g>
        <g id="Graphic_84">
          <path fill="#f3f3f3" d="M293.16835 226.3366c0 .27177-.27178.4892-.65228.4892-.92407 0-2.6091-1.68505-2.6091-2.55475 0-.59792.43483-.48921 1.63069.38049.92404.65228 1.63069 1.41326 1.63069 1.68506Z"/>
        </g>
        <g id="Graphic_83">
          <path fill="#f3f3f3" d="M229.4083 226.0648c.2718.8697-1.7394 1.30456-3.53316.761l-1.46762-.43485 1.35891-.54357c1.63069-.70663 3.3701-.59792 3.64187.21742Z"/>
        </g>
        <g id="Graphic_82">
          <path fill="#f3f3f3" d="M97.86585 227.64115c.43485 1.25019-1.41326 5.70742-2.39168 5.70742-.70663 0-.81534-.48921-.59792-2.44604.43485-3.3701 2.17426-5.32693 2.9896-3.26138Z"/>
        </g>
        <g id="Graphic_81">
          <path fill="#f3f3f3" d="M301.3218 227.04323c0 .59792-1.03276.81534-1.3589.32613-.16307-.27178.05435-.54356.4892-.54356.4892 0 .8697.1087.8697.21743Z"/>
        </g>
        <g id="Graphic_80">
          <path fill="#f3f3f3" d="m233.97424 229.00005 1.30456 1.03278-2.77218.05435c-3.20702 0-4.02237-.4892-2.28297-1.46762 1.73941-.92406 2.28297-.8697 3.75059.38049Z"/>
        </g>
        <g id="Graphic_79">
          <path fill="#f3f3f3" d="M246.04136 228.29342c-.38049.10871-1.03276.10871-1.35891 0-.38049-.16307-.10871-.27178.65228-.27178.76099 0 1.03277.10871.70663.27178Z"/>
        </g>
        <g id="Graphic_78">
          <path fill="#f3f3f3" d="M240.44265 230.08718c0 .27178-.81535.54357-1.7394.54357-1.35891 0-1.57634-.16307-.97841-.54357 1.08712-.70663 2.71781-.70663 2.71781 0Z"/>
        </g>
        <g id="Graphic_77">
          <path fill="#f3f3f3" d="M101.50773 231.22867c-.16307.27178-.54356.38049-.81534.16307-.27179-.16307-.3805-.54357-.16307-.81534.16307-.2718.54356-.3805.81534-.16308.27178.16308.3805.54356.16307.81535Z"/>
        </g>
        <g id="Graphic_76">
          <path fill="#f3f3f3" d="M107.54129 232.4245c1.19584.92407.65228 2.0112-1.08713 2.0112-1.46762 0-2.1199-.761-1.68505-1.90248.3805-1.03277 1.46763-1.03277 2.77218-.10872Z"/>
        </g>
        <g id="Graphic_75">
          <path fill="#f3f3f3" d="M293.87498 232.09837c-.38048.10871-1.03278.10871-1.35891 0-.38049-.16307-.10871-.27177.65228-.27177.76099 0 1.03277.1087.70663.27177Z"/>
        </g>
        <g id="Graphic_74">
          <path fill="#f3f3f3" d="M102.16001 235.08797c.92406 1.7394.54356 3.69623-.65228 3.69623-1.08713 0-2.55475-3.64187-2.1199-5.27256.27178-1.14149.43485-1.2502 1.14149-.65228.43485.38049 1.19584 1.35891 1.63069 2.22861Z"/>
        </g>
        <g id="Graphic_73">
          <path fill="#f3f3f3" d="M243.3779 233.566c1.52198.32613 2.66346.8697 2.5004 1.14148-.32615.65227-3.09832.59792-6.7402-.21743-1.52198-.32615-4.2398-.76099-6.03356-.92405-2.50039-.2718-2.93524-.48922-1.90247-.761 1.7394-.43485 8.58831 0 12.17583.761Z"/>
        </g>
        <g id="Graphic_72">
          <path fill="#f3f3f3" d="M227.6689 235.90332c1.68505.27178 1.90248.43485 1.08713.76098-.59793.21743-2.22861.43486-3.64188.43486-1.95683.05434-2.6091-.16306-2.6091-.76099 0-.92407 1.57633-1.03277 5.16385-.43485Z"/>
        </g>
        <g id="Graphic_71">
          <path fill="#f3f3f3" d="M233.37632 236.33817c0 .54356-.54356.81533-1.63069.81533-1.41326 0-1.57633-.1087-.97841-.81533.92406-1.03277 2.6091-1.03277 2.6091 0Z"/>
        </g>
        <g id="Graphic_70">
          <path fill="#f3f3f3" d="M146.2974 236.71866c-.32614.8697-1.95684 1.84812-2.39169 1.41327-.16307-.21743-.21742-.76099-.05435-1.2502.38049-.92406 2.77217-1.14148 2.44604-.16307Z"/>
        </g>
        <g id="Graphic_69">
          <path fill="#f3f3f3" d="M243.97582 237.69708c2.1199.59792 4.83772 1.08712 6.14228 1.08712 1.7394 0 2.2286.16307 1.90246.65228-.21742.3805-.32613 1.08712-.27178 1.57634.10872.65228-.43485.97841-2.1199 1.19584-2.50038.32614-4.89208-.48921-4.51158-1.52198.2718-.70664-1.03277-1.30456-5.2182-2.39168-5.9792-1.57634-5.92486-1.57634-2.71783-1.6307 1.63069 0 4.72901.43486 6.79455 1.03278Z"/>
        </g>
        <g id="Graphic_68">
          <path fill="#f3f3f3" d="M51.28243 239.32777c1.35891.8697-.054356 2.50039-2.06554 2.28297-1.68505-.16307-3.91366 1.52198-3.91366 2.9896 0 .38049-.32614.70663-.76099.70663-.48921 0-.65228-.43485-.48921-1.30455.16307-.70664 0-1.84812-.380494-2.5004-.978416-1.84812.163069-2.71782 3.750591-2.71782 1.685048 0 3.424453.2718 3.859303.54357Z"/>
        </g>
        <g id="Graphic_67">
          <path fill="#f3f3f3" d="M151.62432 240.1431c1.46762.43487 3.20703.81536 3.91366.81536.70663 0 1.19584.32614 1.19584.81534 0 .59793-.70663.81535-2.82653.761-3.69624-.05436-6.25099-.81535-6.95762-2.17426-.48921-.8697-.38049-1.03277.70663-1.03277.70664 0 2.5004.38049 3.96802.81533Z"/>
        </g>
        <g id="Graphic_66">
          <path fill="#f3f3f3" d="M237.34434 240.36054c.32614.32614.48921.70663.32614.81535-.3805.38049-16.79612.59791-16.79612.21741 0-.21741.65227-.76098 1.52197-1.19583 1.14149-.65227 2.88089-.81535 7.93604-.65227 3.53316.16306 6.68583.4892 7.01197.81534Z"/>
        </g>
        <g id="Graphic_65">
          <path fill="#f3f3f3" d="M100.58367 241.2846c.3805 1.03277-1.08713 2.66346-1.95683 2.17425-.32614-.21742-.59792-.97841-.59792-1.7394 0-.92405.27178-1.30455 1.08713-1.30455.59792 0 1.2502.3805 1.46762.8697Z"/>
        </g>
        <g id="Graphic_64">
          <path fill="#f3f3f3" d="M105.25832 242.0456c-.16307.5979-.48921 1.08712-.76099 1.08712-.54356 0-.65227-1.79377-.16307-2.33732.65228-.6523 1.19584.16306.92406 1.2502Z"/>
        </g>
        <g id="Graphic_63">
          <path fill="#f3f3f3" d="M240.8775 241.61074c-.16306.38049-.59791.70663-.9784.70663-.3805 0-.81536-.32614-.92407-.70663-.16307-.3805.21743-.65228.92407-.65228.70662 0 1.08712.27178.9784.65228Z"/>
        </g>
        <g id="Graphic_62">
          <path fill="#f3f3f3" d="M93.68041 244.2742c0 1.30455-1.2502 1.14148-1.52198-.21743-.10871-.54357.16307-.92405.65228-.92405.54356 0 .8697.4892.8697 1.14148Z"/>
        </g>
        <g id="Graphic_61">
          <path fill="#f3f3f3" d="M40.682935 244.21984c.380495.59792-.652275 2.71782-1.304555 2.71782-.54356 0-1.141482-2.55476-.70663-2.9896.489206-.43486 1.63069-.32614 2.011185.27178Z"/>
        </g>
        <g id="Graphic_60">
          <path fill="#f3f3f3" d="M236.529 244.49163c.16306.16307.05435.27177-.21743.32613-.27177 0-1.57634.10872-2.93525.16307-1.35891.10872-3.91366.3805-5.70742.59792l-3.26138.43485 1.08713-1.19584c1.03277-1.14148 1.35891-1.19584 5.92485-.92406 2.66346.21743 5.00078.43486 5.1095.59793Z"/>
        </g>
        <g id="Graphic_59">
          <path fill="#f3f3f3" d="M240.11652 245.2526c.16307.2718-.05436.59793-.48922.81536-.4892.16307-.81534 0-.81534-.48921 0-.8697.8697-1.08712 1.30456-.32615Z"/>
        </g>
        <g id="Graphic_58">
          <path fill="#f3f3f3" d="M245.28037 248.18786c1.95683.54356 3.31573 1.30454 4.13109 2.33732 1.7394 2.17426.8697 2.77218-2.01119 1.46762-5.16385-2.39167-8.47959-2.7178-17.82889-1.68504-1.14148.16307-1.35891-.05436-1.35891-1.19584 0-1.2502.27178-1.41327 2.9896-1.68505 4.18543-.54357 10.59949-.16307 14.0783.76099Z"/>
        </g>
        <g id="Graphic_57">
          <path fill="#f3f3f3" d="M77.75399 248.35093c.43485 1.14147-.70663 2.28297-1.52198 1.46762-.70663-.70663-.27178-2.33732.59792-2.33732.32614 0 .706635.38049.92406.8697Z"/>
        </g>
        <g id="Graphic_56">
          <path fill="#f3f3f3" d="M44.05303 249.43806c.380496.97841-.92406 2.06554-1.685047 1.30454-.59792-.5979-.054356-2.17425.760987-2.17425.32614 0 .706635.3805.92406.86971Z"/>
        </g>
        <g id="Graphic_55">
          <path fill="#f3f3f3" d="M225.49465 250.19905c-.16307.27178-.54357.54355-.8697.54355-.27179 0-.48921-.27177-.48921-.54355 0-.32615.38049-.54357.8697-.54357.43486 0 .65228.21742.48921.54357Z"/>
        </g>
        <g id="Graphic_54">
          <path fill="#f3f3f3" d="M239.35553 251.28617c0 .27179.65227.54357 1.52197.54357 1.57634 0 5.0008 1.79376 5.0008 2.66346 0 .27178-2.3917.54356-5.32693.70663-3.96802.16307-5.76177.43485-6.84891 1.19584l-1.52198.97843.3805-1.84813c.54356-2.55475 1.7394-3.69623 3.91366-3.69623.97841 0 1.79376-.27178 1.79376-.54357 0-.32614.27178-.54357.54356-.54357.32614 0 .54357.21743.54357.54357Z"/>
        </g>
        <g id="Graphic_53">
          <path fill="#f3f3f3" d="M224.02703 254.33013c-.76099 1.57634-3.58753 3.09831-5.49 2.82653-2.28297-.27178-2.01119-1.14148.59792-2.06554 1.2502-.43485 2.28297-1.08712 2.28297-1.52198 0-.92406 2.33732-1.79376 2.82653-1.03277.16307.32613.10871 1.08713-.21742 1.79376Z"/>
        </g>
        <g id="Graphic_52">
          <path fill="#f3f3f3" d="M238.81196 258.08072c0 .10871-.4892.48921-1.08712.81535-1.30456.70663-2.71782.10871-1.57634-.59792.81535-.48921 2.66346-.65228 2.66346-.21743Z"/>
        </g>
        <g id="Graphic_51">
          <path fill="#f3f3f3" d="M47.2057 260.90725c-.054355 1.90248-.326137 2.66347-.924057 2.77218-1.250197.21742-1.739403-1.84813-.978413-3.75059 1.087126-2.5004 2.06554-2.01119 1.90247.97841Z"/>
        </g>
        <g id="Graphic_50">
          <path fill="#f3f3f3" d="M65.68687 258.95042c.54357.81535-.05435 1.2502-1.087125.81535-.489205-.16307-.706635-.54357-.543565-.8697.43485-.70664 1.19584-.70664 1.63069.05435Z"/>
        </g>
        <g id="Graphic_49">
          <path fill="#f3f3f3" d="M250.2268 261.99438c0 1.41327-1.6307 1.73942-2.66346.48922-.65228-.761-.27178-2.5004.70663-3.15268.76099-.54357 1.95683 1.08713 1.95683 2.66346Z"/>
        </g>
        <g id="Graphic_48">
          <path fill="#f3f3f3" d="M241.91028 260.90725c.27178.70665-3.64188 1.95683-5.05515 1.68505-1.35891-.27178-.8697-1.19584 1.03277-1.90247 2.06555-.76099 3.7506-.70663 4.02238.21742Z"/>
        </g>
        <g id="Graphic_47">
          <path fill="#f3f3f3" d="M319.80298 263.51636c-1.63068 1.7394-3.80495 2.55474-6.30534 2.33734-2.82654-.21744-2.44604-1.2502.4892-1.2502 2.5004-.05437 3.91366-.6523 5.54436-2.44605.65227-.70663 1.14148-.92405 1.2502-.54355.1087.32613-.32615 1.19583-.97842 1.90246Z"/>
        </g>
        <g id="Graphic_46">
          <path fill="#f3f3f3" d="M233.10454 264.3317c-.16307.2718-.70664.54357-1.14148.54357-.43486 0-.76099-.27177-.76099-.54357 0-.32613.48921-.54356 1.14148-.54356.59792 0 .92405.21743.76099.54356Z"/>
        </g>
        <g id="Graphic_45">
          <path fill="#f3f3f3" d="M246.80235 264.38606c-.76099.43484-1.19585.43484-1.63069 0-.43486-.43486-.16306-.59792 1.03277-.59792 1.35891.05436 1.46762.10871.59792.59792Z"/>
        </g>
        <g id="Graphic_44">
          <path fill="#f3f3f3" d="M240.44265 265.14705c0 .3805-.38049.97842-.8697 1.2502-.70663.38049-.27178.81535 2.17425 2.17425 2.93525 1.68505 5.1095 4.40287 4.40287 5.54436-.54357.8697-1.03277.65227-2.9896-1.08713-1.95683-1.73941-3.26137-1.30456-2.01117.70663 3.0983 5.00079 3.53315 7.60989 1.3589 8.15346-1.1415.32614-1.1415.8697-.10872 4.29415.16307.48921-.32613 1.52198-1.08712 2.28297-1.08713 1.2502-1.2502 1.73941-.86971 3.42446.48921 2.06554-.32613 5.05514-1.63069 5.8705-1.03276.65226-1.35891-.1631-1.63069-4.5116-.16307-2.6091-.54357-4.18544-.92407-4.3485-.4892-.10872-.70662.5979-.70662 2.44603 0 1.52197-.32614 3.09831-.81535 3.75059-.76099.97842-.8697.97842-1.41326.05436-.92407-1.52198-1.57634-.48921-1.52197 2.33732.1087 2.2286-.16308 2.9896-1.46763 4.67465-.86971 1.08713-1.79377 2.28297-2.06555 2.66345-.38049.48922-.05435 1.1415 1.08713 2.1199.8697.761 1.79375 1.41328 2.06555 1.41328.9784 0 2.5004 1.79376 2.5004 2.88089 0 .8697-.2718.97843-1.46763.65227-.86971-.16307-2.44604-1.08714-3.58753-2.01118-2.50039-1.95683-5.76177-2.60911-6.8489-1.30456-1.03277 1.2502-1.41327 5.8705-.59792 7.39247.54356 1.03277.48921 1.35893-.48922 2.33733-1.52197 1.52198-3.80494.761-4.729-1.57634-.59791-1.46762-.54356-1.84811.92406-4.2398 2.55475-4.07672.81534-5.92486-2.01118-2.22861-1.19584 1.57635-1.79376 1.90248-3.15268 1.79375-2.2286-.1087-3.04395.3805-3.04395 2.0112 0 1.57633-1.30455 2.9896-2.77218 2.9896-1.35891 0-1.35891-2.1199 0-4.40287.70663-1.14148.97843-2.28296.76099-3.20703-.16306-1.08712 0-1.57633.65228-1.8481.48921-.16308 1.14148-.21744 1.35891-.05437 1.08713.65227 10.11029-4.2398 10.5995-5.81613.16306-.4892.8697-1.7394 1.57633-2.77218.70663-1.03277 1.57634-2.71782 1.90247-3.75059.59792-1.79376 3.91366-6.30533 7.17505-9.78413.761-.81536 2.06554-2.82655 2.9896-4.5116.8697-1.6307 1.95683-3.69623 2.39168-4.51158.48922-.92405.81535-3.20702.92406-6.19662 0-2.6091.21742-5.0008.43486-5.32693.54355-.8697 3.53315-.65227 3.53315.27178Z"/>
        </g>
        <g id="Graphic_43">
          <path fill="#f3f3f3" d="M255.66244 266.01675c0 .32615-.21742.3805-.54356.21743-.27178-.16308-.54358-.59792-.54358-.8697 0-.32614.2718-.3805.54358-.21743.32614.16307.54356.59792.54356.8697Z"/>
        </g>
        <g id="Graphic_42">
          <path fill="#f3f3f3" d="M248.8679 267.26695c1.03277.43485 1.90247 1.08713 1.90247 1.41327 0 .32614.70663.81534 1.52198 1.14148 2.93525 1.03277 4.67465 7.01197 2.66345 9.07752-.76098.70663-.8697.59792-1.19583-1.30456-.48921-2.93524-.92407-3.64186-2.82653-4.13108-1.2502-.32614-1.90248-.97842-2.5004-2.50038-.43484-1.1415-1.19584-2.3917-1.68504-2.7722-.4892-.3805-.70664-.92405-.54357-1.19583.3805-.65227.48921-.65227 2.66347.27178Z"/>
        </g>
        <g id="Graphic_41">
          <path fill="#f3f3f3" d="M250.55294 279.98635c.05436 2.17425.3805 4.23979.70664 4.67465.70662.81534.27178 1.41326-1.14148 1.41326-.54357 0-.97842-.38049-.97842-.81536 0-.43484-.21743-.81533-.43485-.81533-.21743 0-.76099-.81535-1.08713-1.84812-1.03277-2.82653.21742-7.06633 1.95683-6.74019.76099.16307.92407.92406.97841 4.13109Z"/>
        </g>
        <g id="Graphic_40">
          <path fill="#f3f3f3" d="M246.09572 289.06386c.05435 1.46764-.27178 2.55474-.8697 3.15267-1.35892 1.35891-1.6307.3805-1.19584-3.96803.32612-3.64186.38049-3.80493 1.19584-2.66345.43485.65228.8697 2.22861.8697 3.47881Z"/>
        </g>
        <g id="Graphic_39">
          <path fill="#f3f3f3" d="M234.62652 298.90237c.48921.48921-.21742 1.90247-.76099 1.52198-.27178-.16307-.48921-.65228-.48921-1.08713 0-.76099.65228-1.03277 1.2502-.43485Z"/>
        </g>
        <g id="Graphic_38">
          <path fill="#f3f3f3" d="M244.2476 299.39158c0 .43485-.21742.81534-.4892.81534-.70664 0-1.19585-.8697-.761-1.30455.59792-.59792 1.2502-.32614 1.2502.48921Z"/>
        </g>
        <g id="Graphic_37">
          <path fill="#f3f3f3" d="M207.17655 303.63137c.10871.54357-.16307.92406-.65228.92406-.97842 0-1.57634-.8697-1.14148-1.68503.48921-.761 1.57633-.32615 1.79376.76097Z"/>
        </g>
        <g id="Graphic_36">
          <path fill="#f3f3f3" d="M90.09289 304.338c1.08713 1.08713.65228 1.84812-1.03277 1.84812-1.57634 0-2.22861-.8697-1.35891-1.90247.8697-1.03277 1.35891-1.03277 2.39168.05435Z"/>
        </g>
        <g id="Graphic_35">
          <path fill="#f3f3f3" d="M200.54507 307.2189c-.54357.8697-1.95683.70663-1.95683-.16307 0-.92406 1.14148-1.46763 1.84811-.86971.21743.27178.27179.70664.10872 1.03278Z"/>
        </g>
        <g id="Graphic_34">
          <path fill="#f3f3f3" d="M290.45053 306.18612c0 .27178-.48921.54358-1.08713.54358s-1.08713-.2718-1.08713-.54358c0-.32612.48921-.54356 1.08713-.54356s1.08713.21744 1.08713.54356Z"/>
        </g>
        <g id="Graphic_33">
          <path fill="#f3f3f3" d="M91.34309 309.77364c.16307.97842-1.73941 3.47881-2.55475 3.42446-1.57634-.16307-1.95683.05435-2.88089 1.68505-.54357.8697-1.35891 1.63069-1.84812 1.63069-.65228 0-.76099-.43484-.48921-2.33734.27179-1.63068.10872-2.6091-.43485-3.3701-.4892-.5979-.8697-1.30454-.8697-1.52196 0-.65228 8.9688-.16307 9.07752.4892Z"/>
        </g>
        <g id="Graphic_32">
          <path fill="#f3f3f3" d="M203.31724 310.04543c1.35891 1.35891-.70664 3.75057-3.31574 3.75057-.92406.05437-2.28297.3805-3.04395.81536-1.73941.97842-3.26139 1.03277-3.26139.10872 0-1.03278 1.63069-2.39168 3.42445-2.88088.86971-.1631 1.68505-.70665 1.84812-1.1415.21743-.54356.76099-.65227 1.63069-.43485.86971.21743 1.19584.10872.97842-.27178-.43485-.76099.97841-.70663 1.7394.05436Z"/>
        </g>
        <g id="Graphic_31">
          <path fill="#f3f3f3" d="M226.09257 311.89354c.21743.43486.16307 1.2502-.05437 1.73941-.32613.8697-.43484.81535-1.3589-.3805-.54356-.70663-.8697-1.52198-.761-1.7394.48922-.70665 1.84813-.48921 2.17427.38049Z"/>
        </g>
        <g id="Graphic_30">
          <path fill="#f3f3f3" d="M279.09004 312.16533c1.46763.81534 1.30456 1.52197-.43484 1.95683-.8697.21744-2.66347.92404-4.07674 1.63069-3.64186 1.84811-4.18544.10871-.70663-2.5004 2.17427-1.68505 3.53317-1.95683 5.21821-1.08712Z"/>
        </g>
        <g id="Graphic_29">
          <path fill="#f3f3f3" d="M80.091315 312.7089c0 .54355-4.783365 4.3485-5.489995 4.3485-1.14148 0-.380495-2.17425 1.19584-3.4788 1.63069-1.3589 4.294155-1.95684 4.294155-.8697Z"/>
        </g>
        <g id="Graphic_28">
          <path fill="#f3f3f3" d="M235.768 315.15493c.43486 1.14147-.16306 2.44603-1.08712 2.44603-.43485 0-.76098-.54356-.76098-1.25019 0-1.95683 1.19583-2.77217 1.8481-1.19584Z"/>
        </g>
        <g id="Graphic_27">
          <path fill="#f3f3f3" d="M316.2698 316.13334c0 1.41326-1.0871 1.35891-1.2502-.10871-.16305-.8697.05437-1.19583.54358-1.03277.38049.16307.70662.65227.70662 1.14148Z"/>
        </g>
        <g id="Graphic_26">
          <path fill="#f3f3f3" d="M114.60762 317.8184c0 1.41326-.32614 2.28296-.92406 2.7178-1.30455.81536-1.46762.43486-1.14148-2.55474.21742-2.01119.48921-2.55476 1.19584-2.44604.59792.10871.8697.76098.8697 2.28298Z"/>
        </g>
        <g id="Graphic_25">
          <path fill="#f3f3f3" d="M92.86507 317.5466c.54356.92407-.65228 1.1415-1.35891.32615-.54357-.65228-.54357-.81535.16307-.81535.4892 0 .97841.21743 1.19584.4892Z"/>
        </g>
        <g id="Graphic_24">
          <path fill="#f3f3f3" d="M92.04972 320.37314c0 .27178-.38049.48921-.81535.48921-.81534 0-1.08712-.65228-.4892-1.2502.43485-.43485 1.30455.05435 1.30455.76099Z"/>
        </g>
        <g id="Graphic_23">
          <path fill="#000" d="M138.63314 84.35771c-4.62029 2.01119-6.90326 3.53317-6.90326 4.51158 0 .97842-5.00078 8.75138-6.3597 9.94722-1.79376 1.46762-1.30455 2.66346.76099 1.84812.81535-.27178 2.01119-.48921 2.66347-.3805 1.84811.21743 6.74019-4.2398 6.74019-6.14227 0-.76099.16307-2.60911.38049-4.02237l.32614-2.55475 2.01119.32614c1.90247.27178 2.06554.21742 2.33732-1.2502.27178-1.14148.86971-1.90247 2.28297-2.50039 1.90247-.92406 2.55475-1.90248 1.2502-1.90248-.3805.05436-2.82654.97842-5.49 2.1199Z"/>
        </g>
        <g id="Graphic_22">
          <path fill="#f3f3f3" d="M129.55563 98.54473c0 .27178-.3805.54356-.86971.54356-.43485 0-.65227-.27178-.4892-.54356.16307-.32614.54356-.54357.8697-.54357.27178 0 .48921.21743.48921.54357Z"/>
        </g>
        <g id="Graphic_21">
          <path fill="#000" d="M87.42943 107.24175c-.54357.8697 1.41326 3.04396 3.96801 4.40287 1.90248 1.08712 2.28297 1.52198 2.1199 2.55475-.16307.97841.05436 1.41326 1.03277 1.7394.65228.27178 1.46763.97842 1.79376 1.52198.32614.59792 1.35891 1.35891 2.33733 1.68505.92406.32614 2.17425 1.03277 2.71782 1.52198 1.19584 1.08712 1.7394.65227 1.30455-1.14148-.21742-.92407-.81534-1.41327-1.90247-1.68505-1.63069-.32615-2.60911-1.6307-1.68505-2.17426.27178-.16307.97842 0 1.57634.38049 1.14148.70664 2.01118.32614 1.41326-.59792-.16307-.32613-1.41326-.59792-2.71782-.59792-1.30455 0-2.71782-.16307-3.20703-.32614-1.25019-.4892-1.08712-1.84811.16307-1.84811 1.30456 0 2.1199-1.03277.92406-1.14149-.4892-.05435-1.03277-.10871-1.25019-.16306-.27179-.05436-1.19584-.32614-2.17426-.54357-.97841-.21742-2.50039-1.2502-3.3701-2.28297-1.68504-1.90247-2.44603-2.22861-3.04395-1.30455Z"/>
        </g>
        <g id="Graphic_20">
          <path fill="#000" d="M104.11684 153.49903c-2.39168 1.68505-2.71782 2.5004-.76099 1.90247 1.41326-.4892 3.91366-2.44603 3.91366-3.0983 0-.81535-.65228-.54357-3.15267 1.19583Z"/>
        </g>
        <g id="Graphic_19">
          <path fill="#000" d="M102.5405 160.511c-1.57633 1.73941-2.88089 3.47882-2.88089 3.96802 0 .43486-.38049 1.08713-.81534 1.46763-1.03277.8697-1.03277 1.63069-.05436 1.63069.92406 0 4.67465-4.2398 4.67465-5.21821 0-.43486.76099-1.57634 1.63069-2.55475 1.79376-2.06555 1.95683-2.55475.97842-2.5004-.3805 0-2.01119 1.41327-3.53317 3.20702Z"/>
        </g>
        <g id="Graphic_18">
          <path fill="#000" d="M101.23595 168.1209c-3.3701 1.79376-4.40287 4.13109-1.19584 2.77218 1.41326-.59792 3.80495-3.15268 3.31574-3.58752-.05436-.10872-1.03277.27178-2.1199.81534Z"/>
        </g>
        <g id="Graphic_17">
          <path fill="#000" d="M120.42375 178.06812c-1.95683 2.06554-2.22861 3.09832-.70663 3.09832 1.2502 0 3.8593-3.15268 3.47881-4.18544-.43485-1.08713-.8697-.8697-2.77218 1.08712Z"/>
        </g>
        <g id="Graphic_16">
          <path fill="#000" d="M122.9785 181.11208c-.65227.92406-2.77217 2.44604-4.67465 3.42445-2.71781 1.41327-3.53316 2.1199-3.80494 3.26138-.16307.92406-1.63069 2.66347-3.75059 4.56594-3.15267 2.71782-4.51158 5.1095-2.88089 5.1095.8697 0 9.72979-8.26217 9.72979-9.13187 0-.48921.3805-.59792 1.08713-.3805 1.57633.48922 3.26138-.65228 4.13108-2.82653.43486-1.03277 1.30456-2.44604 1.90248-3.04395.54356-.65228.97841-1.41327.8697-1.68505-.38049-1.14149-1.46762-.86971-2.60911.70663Z"/>
        </g>
        <g id="Graphic_15">
          <path fill="#000" d="M125.58761 190.95058c-3.04396 3.04396-2.55475 4.18545.76099 1.84812 2.1199-1.46762 3.20703-2.82653 3.20703-3.96801 0-1.19584-1.41327-.43486-3.96802 2.11989Z"/>
        </g>
        <g id="Graphic_14">
          <path fill="#000" d="M266.53372 191.33108c0 .76099 1.2502 1.79376 2.17426 1.79376.54356 0 1.7394 1.03276 2.77217 2.22861 1.03277 1.2502 2.55475 2.88089 3.42445 3.69624.8697.76099 2.5004 2.33731 3.64188 3.47881 1.14149 1.19584 2.33732 1.95682 2.60912 1.7394 1.14147-.70663.54355-2.44604-1.68506-4.94643-4.34851-4.72901-5.76178-6.03357-7.66424-6.90327-2.44605-1.19583-5.27258-1.7394-5.27258-1.08712Z"/>
        </g>
        <g id="Graphic_13">
          <path fill="#000" d="M128.4685 193.5597c-.76099.81534-1.84812 1.7394-2.44604 2.06553-.59792.3805-.8697.81535-.65228 1.08713.54357.54357 4.18545-1.41326 5.00079-2.71782 1.03277-1.63069-.43485-1.95683-1.90247-.43484Z"/>
        </g>
        <g id="Graphic_12">
          <path fill="#000" d="M228.48425 198.23434c0 .43486.92405 1.08713 2.06555 1.41326 1.08712.3805 3.31573 1.35892 4.8377 2.22862 3.42446 1.90248 3.53318 1.90248 3.31575.38049-.32615-2.39168-10.219-6.25098-10.219-4.02237Z"/>
        </g>
        <g id="Graphic_11">
          <path fill="#000" d="M241.52978 202.47414c.05436 1.84812 1.95682 4.13108 2.77218 3.31574.97841-.97842-.3805-4.51158-1.73941-4.51158-.70663 0-1.03277.3805-1.03277 1.19584Z"/>
        </g>
        <g id="Graphic_10">
          <path fill="#000" d="M194.56586 204.59404c-1.03276.54356-2.93524 1.19584-4.13108 1.35891-1.30455.21742-2.1199.59792-2.01118.97841.32613.92406 3.8593.48921 5.81613-.70663 1.41327-.81535 2.39167-.97842 4.67465-.76099 2.06554.21743 2.93524.10871 2.93524-.32614 0-1.46762-4.89207-1.84812-7.28376-.54356Z"/>
        </g>
        <g id="Graphic_9">
          <path fill="#000" d="M246.748 205.8986c-.32614.92405 1.08712 4.62028 1.79376 4.62028.59792 0 1.14148-1.35891 1.14148-2.93524 0-2.1199-2.22861-3.42445-2.93524-1.68504Z"/>
        </g>
        <g id="Graphic_8">
          <path fill="#000" d="M277.0245 206.4965c-.21742.59793.2718 1.30456 1.41327 2.22862 1.35891 1.03278 1.68503 1.73941 1.68503 3.31574 0 1.35891.43487 2.39168 1.46764 3.47881 2.77216 2.93525 4.56594 1.35891 2.33732-2.01119-.59792-.92405-1.08712-2.33732-1.08712-3.15267 0-1.03277-.59794-2.06554-1.73941-3.15267-1.95683-1.7394-3.53316-2.01118-4.07673-.70664Z"/>
        </g>
        <g id="Graphic_7">
          <path fill="#000" d="M188.80409 219.4877c0 .70662.59791.81533 3.69623.4892 5.21821-.4892 5.49-1.30456.48921-1.30456-3.3701 0-4.18544.16306-4.18544.81536Z"/>
        </g>
        <g id="Graphic_6">
          <path fill="#000" d="M121.7283 226.22788c-.43484.65228.16308 3.3701.92407 4.45722 1.08713 1.46763 2.88088 2.1199 5.76177 2.1199 2.9896 0 3.75059-.8697 1.30456-1.41326-3.31574-.70664-4.6203-1.52198-5.65307-3.53317-1.03277-2.06554-1.79376-2.60911-2.33733-1.63069Z"/>
        </g>
        <g id="Graphic_5">
          <path fill="#000" d="M139.068 156.70606c-.48921.81534.21742 1.63069 1.41326 1.63069s1.30455-.59792.38049-1.52198c-.81534-.81534-1.3589-.81534-1.79375-.10871Z"/>
        </g>
        <g id="Graphic_4">
          <path fill="#000" d="M65.14331 231.11995c-.16307.54357-.05436 1.6307.217424 2.44605.652276 1.63068 2.935246 1.95682 4.729006.5979.978415-.76098.978415-.76098-.32614-.81533-1.63069 0-2.71782-.92407-2.71782-2.28297 0-1.30456-1.46762-1.2502-1.90247.05435Z"/>
        </g>
      </g>
    </g>
  </g>
</svg>