<?xml version="1.0" encoding="UTF-8" standalone="no"?>
<svg xmlns="http://www.w3.org/2000/svg" width="293" height="301.5" viewBox="36 63 293 301.5">
  <defs>
    <clipPath id="a">
      <path d="M36 63h293v301.5H36Z"/>
    </clipPath>
  </defs>
  <g fill="none" clip-path="url(#a)">
    <path fill="#000" d="M184.93428 63.16464c-1.64378.234825-4.8139 2.11342-6.92732 4.34425-3.52236 3.639776-3.75719 4.46166-4.10942 13.50239-.23483 5.28355-.70448 9.86262-.9393 10.21486-.35224.23482-4.34424 1.05671-8.80591 1.52636-17.49441 2.23083-37.33706 11.27156-56.123 25.47843-4.93131 3.63977-6.22284 3.40495-10.6845-1.76118-4.93131-5.51837-4.69649-8.92332.58706-9.39297 4.57907-.46965 4.8139-2.34825.70447-7.16214-6.22284-7.51438-16.67252-2.70048-19.25559 8.92332-1.40894 5.87061.70448 10.44968 7.51438 16.4377 2.9353 2.58306 5.40096 5.40095 5.40096 6.22284 0 .82188-1.76118 3.63978-3.8746 6.34025-11.85863 14.91135-18.78594 30.87939-22.30831 51.89616l-2.81789 16.32029h-5.75319c-3.17013 0-6.45767-.1174-7.279554-.35224-1.996006-.70446-1.761182-4.93131.469649-7.39696 2.935305-3.28754 1.291535-5.7532-4.109425-5.7532-6.10543 0-9.510382 2.9353-10.332267 9.04074-.821885 6.34026 0 9.62779 3.757187 13.50239 2.81789 3.05272 3.639777 3.28754 12.68051 3.28754 11.03674 0 12.5631.82189 12.5631 7.04473 0 5.63578 3.75719 20.07748 7.7492 30.17492 3.75719 9.27556 8.10144 16.78993 15.96805 27.23961 3.05271 4.10943 5.63578 8.21885 5.63578 9.04074 0 1.87859-5.40096 8.33626-8.45367 9.98003-2.70048 1.52635-5.635785-.46965-5.635785-3.8746s-3.522365-4.10943-6.105435-1.0567c-4.22683 5.40095-1.996 14.20686 4.57908 17.6118 5.63578 2.9353 9.39297 1.64378 17.37699-5.7532 4.10943-3.8746 8.33626-7.0447 9.15815-7.0447.82188 0 2.58307.9393 3.8746 2.1134 12.79792 11.85863 38.98082 22.42572 60.11501 24.42173 4.69648.46964 8.57108 1.17412 8.57108 1.52637 1.29153 6.1054-.11741 12.32826-3.17012 13.50238-.9393.35222-2.8179 0-4.10943-.82188-1.87859-1.17413-2.46565-1.0567-3.40495.35223-2.34824 3.75717-.70447 9.15815 3.99201 13.15017 3.05272 2.46564 6.80991 2.70047 11.03674.46964 6.57508-3.40494 7.7492-5.98804 8.45368-17.49441.46964-8.57109.9393-10.6845 2.23083-10.44968 2.58307.58705 21.95607-3.75719 27.70927-6.22285 1.996-.70447 6.9273-2.8179 11.15414-4.57907 6.34026-2.70047 12.32826-6.45766 27.70926-17.72923 1.17412-.82188 2.8179.1174 6.34026 3.52237 5.75319 5.51837 5.8706 9.04073.58706 9.98003-3.17012.58706-3.75719 1.29153-3.05272 4.46166 0 .46964 1.64377 1.87859 3.63978 2.9353 9.62779 5.7532 21.60382-6.8099 16.32028-17.14216-.70446-1.40895-3.99201-5.28355-7.27956-8.6885l-5.8706-6.10544 4.57908-5.63578c9.39297-11.50638 15.26358-22.3083 19.60782-36.28035 3.17013-10.09743 5.40096-20.66453 5.8706-28.0615l.23484-4.69648h12.91533l.35223 4.34425c.46965 4.9313 1.7612 5.40096 8.33627 3.17013 7.16213-2.46566 8.33626-11.38898 2.34823-17.49441-3.52235-3.52237-3.992-3.63978-12.7979-3.40495-5.04873.11741-9.6278-.11742-10.33228-.58707-.58706-.35223-1.52636-3.992-1.99602-7.98402-.9393-8.21885-5.16612-22.66054-9.62778-32.64057-3.05272-7.04473-6.45767-12.44569-14.08946-22.42571-2.81789-3.52237-5.04872-7.27956-5.04872-8.21886 0-2.34824 7.16214-9.27555 9.51038-9.27555 1.05671 0 2.46566 1.40894 3.28754 3.05271 1.52636 3.52237 3.17014 3.28754 6.45767-1.0567 1.99601-2.70049 2.11342-3.63978.9393-7.74921-3.17013-10.56709-11.85863-10.80191-22.66053-.46965-7.39698 6.92732-7.04474 6.92732-14.55912.9393-6.69248-5.40096-23.13018-13.85463-33.46245-17.37699-7.86662-2.58307-20.19489-5.04873-29.9401-5.87061-3.28753-.23482-3.52236-.58706-3.8746-5.16613-.23483-2.70048.23483-5.98802.9393-7.39697 1.29153-2.46565 5.16614-3.17013 6.45767-1.17412.35223.58706 1.52636 1.17412 2.46565 1.17412 2.58307 0 2.11342-8.45367-.70447-11.976035-2.34824-3.170125-5.51838-4.109425-10.6845-3.522365ZM168.614 129.15026c.35223 1.64377 1.40894 3.05271 2.34823 3.05271.9393.11741 2.46566.23483 3.40496.35224 1.99601.11741 1.05671 10.91933-1.64377 18.55111-.9393 2.8179-2.23083 8.57109-2.93531 12.91534-1.17411 7.16214-1.05671 8.45367 1.05671 12.68051 2.11342 4.34425 2.23083 4.8139.46965 6.10543-2.9353 2.23083-3.40495 1.996-4.8139-2.9353-1.996-6.45767-8.80591-12.91534-18.4337-17.377-10.21486-4.69648-14.08946-8.57108-13.03275-12.91533.58706-1.99601.11741-4.10943-1.05671-5.98802-1.76118-2.70048-1.76118-3.05272 0-4.34425 7.04473-5.16613 27.70927-13.6198 32.28834-13.15016.9393 0 1.996 1.40895 2.34825 3.05272Zm36.39775-2.11342c3.28755.70447 10.33227 3.52236 15.61581 6.10543l9.6278 4.8139.11741 6.45766c.11741 8.10144-1.17412 9.6278-11.15415 13.5024-4.93132 1.87859-9.6278 4.69648-12.79792 7.86661-5.63579 5.40096-10.09745 13.15016-9.15815 15.73323.70447 1.996-.82188 3.05271-3.17013 2.11341-2.34824-.82188-3.52236-3.99201-2.11342-5.63578.58707-.70447 1.40895-4.22683 1.8786-7.7492.58706-5.28354.1174-9.04073-2.8179-19.96006-4.34424-16.32029-4.46165-17.14217-.70447-18.08147 2.11342-.58706 2.93531-1.52636 2.93531-3.63977 0-3.40496 2.23083-3.75719 11.74121-1.52636Zm38.51118 35.22364 2.81789 2.70048 2.11342-2.70048c2.58306-3.05272 4.46166-3.28754 5.51836-.58706.35224 1.17412 1.8786 3.63978 3.28755 5.63578 2.81789 3.75719 7.04473 15.02875 8.21885 21.83865.70447 3.63978.35223 4.22685-2.23083 5.51837-1.64377.70448-3.28754 2.70048-3.75719 4.34425-.9393 3.99202-5.7532 3.8746-19.02078-.11741-11.38896-3.52236-17.4944-3.28754-25.00877.9393-5.04873 2.81789-5.28355 2.81789-6.34025-1.52636-.70448-2.8179-.35224-3.17013 4.57907-4.57907 3.8746-1.05671 6.92731-3.17013 11.27155-7.7492 3.17014-3.40495 5.87062-6.80991 5.87062-7.63179 0-1.8786 8.21885-18.66853 9.15814-18.66853.35224 0 1.99601 1.17412 3.52237 2.58307Zm-127.15733 1.05671c.46964.58706 2.23082.93929 3.992.46964 3.99202-.82188 7.86662 3.05272 12.79793 12.91534 4.22683 8.45367 12.32827 16.55511 18.55111 18.78593 5.16614 1.7612 5.7532 2.70049 3.40496 5.87062-1.76119 2.23083-1.8786 2.23083-5.63579 0-5.87061-3.52237-18.66852-3.05272-27.82667 1.0567-3.8746 1.76118-8.92332 3.52238-11.03674 3.8746-3.52236.58707-4.10942.23483-5.63578-2.70047-.82189-1.99601-2.70048-3.52237-4.22684-3.75719-1.40894-.23483-2.58307-1.05671-2.58307-1.8786 0-2.70048 3.63978-15.26357 5.98802-20.54712 5.63578-12.91534 9.98003-17.84664 12.21087-14.08945Zm143.59503 53.65734c.23482 1.87859 1.64377 3.17013 3.8746 3.99201 1.87859.58706 3.40495 1.64376 3.40495 2.34824 0 5.87062-7.98403 26.65256-12.21086 31.9361-1.64377 1.99602-2.23082 2.11342-4.8139.70448-2.81789-1.52636-3.28754-1.40896-5.87062 1.76118-2.58305 3.40496-2.81788 3.40496-4.9313 1.52636-1.17412-1.17413-5.04872-7.6318-8.45367-14.4417-6.45767-12.79792-9.74521-16.4377-18.08147-19.96006-4.81389-1.99601-4.81389-2.11342-3.17012-5.40096 1.17412-2.11342 1.29153-2.11342 5.51836.11742 8.33627 4.46166 20.3123 4.10942 28.29633-.8219 4.22684-2.58306 11.15415-4.9313 13.73722-4.69647 1.52635.11741 2.46565 1.29153 2.70048 2.9353Zm-134.5543 4.93131c9.86262 3.17013 11.50639 3.40496 17.02476 2.34824 3.28754-.70448 6.69249-2.11342 7.39696-3.05271 1.99601-2.23084 5.40095-2.11342 6.34025.23483.82189 2.1134-2.23082 6.34024-4.57907 6.34024-3.63977 0-12.44568 9.86262-17.02476 19.02076-2.58307 5.16614-5.75319 10.80192-6.92731 12.4457-2.11342 3.0527-2.34824 3.0527-4.46166 1.0567-2.8179-2.46565-4.34425-2.58306-6.22285-.23482-.82188.9393-1.87859 1.76118-2.46565 1.76118-2.70048 0-15.14616-26.88738-15.14616-32.87539 0-1.40895.93929-2.34825 2.70047-2.58307 1.99601-.23483 2.70048-1.29153 2.93531-4.22684.35223-3.52236.70447-3.75719 4.93131-3.75719 2.58307 0 9.51038 1.64377 15.4984 3.52237Zm70.6821 15.96806c.35224 1.0567.70447 2.81788.70447 3.992 0 3.17013 10.21486 13.03275 17.02476 16.4377 3.17014 1.64377 8.57109 4.69648 11.97604 6.8099 5.40096 3.28754 6.10543 4.10943 5.04872 6.10543-.70447 1.17412-1.05672 3.99201-.9393 6.10543.35224 3.75719.11741 3.99201-11.03674 9.51038-6.69248 3.28756-13.73722 5.87061-17.14218 6.34026-5.63577.58706-5.75318.58706-7.04472-3.17013-1.05671-2.9353-1.76118-3.52237-3.75718-2.9353-3.17013.9393-3.05272-1.64377.1174-10.6845 3.52237-9.98004 4.34426-25.83067 1.64378-32.8754-1.76118-4.57907-1.76118-5.63577-.46965-6.45767 2.34824-1.40894 3.05271-1.29153 3.8746.8219Zm-21.60383-.23484c0 .23484-1.05671 2.70048-2.34825 5.51837-2.9353 6.57507-2.9353 15.4984-.11741 26.18291 1.29154 4.57906 2.58306 10.21486 2.93531 12.5631.70447 3.99201.58705 4.34426-2.70048 4.9313-2.34825.46966-3.52237 1.64376-4.10943 3.8746-.82188 2.93531-1.17412 3.05272-5.51837 2.34826-6.10543-.9393-17.96405-5.7532-23.83466-9.6278-4.10942-2.8179-4.34425-3.17013-2.70048-4.9313 1.76118-1.6438 1.76118-2.11343 0-5.04874-1.87859-3.17013-1.87859-3.40496.23483-5.75319 1.17412-1.29154 5.63578-4.10943 9.7452-6.10543 9.6278-4.8139 21.01677-15.38099 22.07348-20.66454.58706-2.9353 1.29154-3.75719 3.52236-3.75719 1.52636 0 2.8179.23483 2.8179.46965Zm14.08945-36.63258c9.39297 6.45767 5.04872 19.72524-6.45766 20.07747-5.16614.11742-9.39297-3.8746-10.44969-9.86262-1.17411-6.34025 3.7572-11.38897 12.32828-12.68051.35224-.11741 2.46565 1.05671 4.57907 2.46566Z"/>
    <path fill="#f3f3f3" d="M190.21782 67.6263c2.23083.82189 2.46566 3.99201.35224 3.99201-3.75719 0-5.98802 3.40496-7.27956 11.27157-1.0567 6.8099-1.64376 8.10144-3.63977 8.10144-1.87859 0-2.23083-.9393-2.58307-6.34026-.70446-12.5631 5.04873-20.07747 13.15016-17.02476Z"/>
    <path fill="#f3f3f3" d="M200.19785 96.86192c-31.34903-4.8139-59.76277 2.46566-86.76756 22.19089-11.74121 8.45368-19.13818 16.90735-30.29233 34.16693-4.10942 6.45767-11.85862 27.23962-12.68051 34.04952-.352234 2.58307-1.17412 6.92732-1.87859 9.74521-2.348245 9.39297.82188 35.22363 6.57508 52.48323 6.10543 18.08146 22.77795 40.97682 38.15894 52.01356 10.21485 7.51438 27.70926 15.85064 40.03753 19.13818 8.57109 2.34824 12.68051 2.81789 28.76598 2.70046 13.97204 0 20.54711-.46963 25.83066-1.87858 54.36182-15.26357 88.76357-58.23642 88.64615-110.60222 0-16.90735-1.29152-24.53914-6.22283-38.6286-11.6238-32.52315-34.16693-56.2404-65.63337-68.92091-4.93132-1.87859-9.5104-3.52237-10.21487-3.52237-.70447 0-1.29153-.58706-1.29153-1.29153 0-.58706-.46965-.93929-.9393-.58706-.58706.35224-5.98802-.11741-12.09345-1.05671Zm-32.17092 24.77396c1.29153-.35224 9.51038-.35224 18.19887-.23482 18.43371.46964 27.35704 2.70048 40.5072 10.44968 19.4904 11.38897 35.22363 30.40974 41.44648 50.13497 4.22682 13.26757 4.93132 36.04553 1.52635 49.43051-9.62779 38.04153-41.32907 64.92891-80.19248 67.86421-28.17891 2.23083-49.66533-5.98803-71.38657-27.00479-20.54713-19.96006-29.23562-51.42651-22.30831-80.66214 5.51837-22.77794 14.91134-38.04152 32.52316-52.01356 11.6238-9.15815 21.48642-13.73722 39.6853-17.96406Z"/>
    <path fill="#f3f3f3" d="M93.47023 102.61512c0 .93929-.82189 1.87859-1.76118 2.34824-1.05671.35224-1.76118 2.11342-1.76118 4.69648 0 3.28754.93929 5.04873 4.69648 8.45368 2.9353 2.70048 4.69649 5.40095 4.69649 7.16214 0 3.99201-3.75719 3.52236-8.10144-1.17412-8.6885-9.27556-9.6278-10.5671-9.04074-12.21087.35224-.93929.70448-2.46565.70448-3.40495 0-2.34824 5.75319-7.51437 8.33626-7.51437 1.29153 0 2.23083.70447 2.23083 1.64377Z"/>
    <path fill="#f3f3f3" d="M285.32165 111.77326c1.05671 1.40895 1.87859 3.63978 1.87859 4.8139 0 1.64377-.46964 1.87859-2.23084.82188-3.75718-1.996-5.63577-1.40894-11.27155 3.52237-2.93531 2.58306-6.10545 4.69649-7.04473 4.69649-3.63978 0-2.81789-2.58307 2.58308-8.33627 7.984-8.57108 12.7979-10.21485 16.08545-5.51837Z"/>
    <path fill="#f3f3f3" d="M44.97902 200.77165c-.234824 6.57508 1.996006 8.45368 10.91933 8.92333 7.98402.35223 8.80591.70447 7.86661 3.40495-.58706 1.40894-2.70048 1.76117-10.09744 1.76117-8.6885 0-9.510385-.23481-11.741215-3.0527-3.404952-4.34425-3.28754-11.5064.117412-13.85464 1.408943-1.05671 2.700479-1.87859 2.935303-1.87859.11741 0 .11741 2.11342 0 4.69648Z"/>
    <path fill="#f3f3f3" d="M321.36717 206.17261c5.04873 2.58307 5.87061 6.22285 1.99601 10.09745l-2.46566 2.46564-1.87859-3.992c-1.8786-3.8746-2.11343-3.99201-9.86263-4.34425-7.39696-.35224-7.8666-.46965-7.8666-3.05272 0-2.58306.46964-2.70047 8.45367-2.81789 5.04873 0 9.86263.70448 11.6238 1.64377Z"/>
    <path fill="#f3f3f3" d="M273.2282 297.28442c8.57108 7.98403 9.98003 12.21088 5.51837 17.02478-3.99202 4.22682-5.40097 3.52235-4.8139-2.46567.58706-4.46166.23483-5.51837-2.81789-8.45368-5.98802-6.10543-6.69248-7.27955-5.04872-9.27555.82188-.9393 1.52634-1.7612 1.64377-1.7612.11741 0 2.58307 2.23085 5.51837 4.93132Z"/>
    <path fill="#f3f3f3" d="M100.9846 296.81478c.35224.58706-2.81789 4.34424-6.92731 8.45367-8.10144 8.10145-10.80192 8.57108-15.85064 3.28755-3.8746-4.22685-2.11342-7.04474 2.70048-3.99202 2.34824 1.64377 3.05272 1.64377 5.98802.11742 1.76118-.9393 4.69649-3.28755 6.57508-5.28356 3.17013-3.40494 6.34025-4.46166 7.51437-2.58306Z"/>
    <path fill="#f3f3f3" d="M186.93028 330.39464c.35224.82189.11742 5.40096-.35223 10.09746-.82189 7.39695-1.40895 8.9233-4.10943 10.9193-2.81789 2.11343-3.52236 2.11343-6.69249.8219-1.99601-.8219-3.63978-2.23083-3.63978-3.17013 0-.93929.58707-1.29153 1.17413-.93929 2.34824 1.40894 6.92732-2.81788 8.21885-7.63178.70447-2.58308.93929-5.28356.58706-5.8706-1.17413-1.8786.58706-5.87063 2.46565-5.87063.9393 0 1.99601.70448 2.34824 1.64377Z"/>
    <path fill="#f3f3f3" d="M190.45265 125.7453c1.29153 2.11342-1.29154 2.93531-9.98003 2.8179-8.57109-.11742-10.33227-.70448-8.92332-2.8179.9393-1.76118 17.84664-1.64376 18.90335 0Z"/>
    <path fill="#f3f3f3" d="M183.99498 132.67262c.58706 0 1.05671 2.46566 1.05671 5.51837 0 3.17013 1.17411 9.74521 2.70048 14.79393 4.10943 13.61981 2.70048 25.12619-3.40495 27.47444-2.70048 1.05671-8.21885-1.8786-9.74522-5.04872-1.996-4.46167-1.52635-13.61981 1.05672-23.01278 1.29153-4.69649 2.34824-10.91933 2.34824-13.97205 0-5.8706.70447-7.27955 3.28754-6.34025.82189.35224 2.11342.58706 2.70048.58706Z"/>
    <path fill="#f3f3f3" d="M243.05328 148.75808c6.57508 5.7532 7.86662 8.21885 4.93132 9.27556-1.8786.70447-15.14617-12.09345-14.20688-13.73722 1.29154-1.87859 2.81788-1.17412 9.27556 4.46166Z"/>
    <path fill="#f3f3f3" d="M130.57246 145.70537c.82189 1.40894-9.86262 12.79792-12.09345 12.79792-3.05271 0-1.40894-3.75719 3.8746-8.80591 5.63579-5.51837 6.80991-6.10543 8.21885-3.99201Z"/>
    <path fill="#f3f3f3" d="M237.5349 154.51128c.35225 1.05671.11742 2.81789-.70446 3.8746-.70448 1.05671-3.05272 5.28354-5.16614 9.51038-9.6278 19.02076-16.32028 25.12619-24.89137 23.01278-3.63977-.9393-6.92731-6.92732-5.8706-11.03674 1.76117-7.16214 10.6845-15.14617 21.60383-19.49042 2.81789-1.05671 6.8099-3.28754 8.80591-4.81389 4.34425-3.40496 5.28353-3.52237 6.22283-1.05671Z"/>
    <path fill="#f3f3f3" d="M135.7386 159.09035c3.17012 2.34825 9.04073 5.75319 13.26757 7.63179 7.63178 3.40495 13.15015 8.57108 14.44169 13.38498 1.64377 6.45767-4.8139 13.26758-11.27156 11.85863-4.22684-.9393-10.80192-7.04473-13.61981-12.68051-1.05671-1.99601-4.57908-7.63179-7.7492-12.32828-8.21885-12.21086-5.98802-15.85064 4.93131-7.86661Z"/>
    <path fill="#f3f3f3" d="M190.21782 185.6255c-8.10143-1.99602-13.73722-1.52637-19.84265 1.76117-6.45767 3.40495-7.98402 4.93131-11.15415 11.6238-4.57907 9.51039-2.34824 21.83866 5.40096 29.58786 12.5631 12.5631 36.51517 7.63179 42.03354-8.57109 5.28355-15.61581-1.99601-30.76197-16.4377-34.40174Zm-17.96405 14.79392c3.17013-3.8746 4.22683-4.34425 8.80591-4.34425 9.62779 0 15.73322 5.63578 15.73322 14.32428-.1174 7.98402-6.45767 13.85463-15.14616 13.85463-4.22684 0-5.7532-.70448-9.04074-3.99201-3.40495-3.40495-3.992-4.8139-3.992-9.74521 0-4.57906.70446-6.45766 3.63977-10.09744Z"/>
    <path fill="#f3f3f3" d="M268.4143 206.17261c.70447 9.15815.35224 11.03674-2.46565 11.03674-1.64377 0-2.23085-.82188-2.34825-3.28754 0-1.76118-.23482-5.04871-.35223-7.27955-.58707-5.87061.35223-8.45367 2.58306-7.98402 1.52637.23482 2.11342 2.11341 2.58307 7.51437Z"/>
    <path fill="#f3f3f3" d="M238.4742 202.53284c5.8706 1.64376 13.03275 2.9353 16.20288 2.9353 3.05272 0 5.51837.23482 5.51837.46966 0 .23481.23483 1.29152.70447 2.23082.46965 1.29153-1.17412 1.99601-6.69249 3.05271-3.99201.82189-10.21485 2.8179-13.85463 4.46167-3.8746 1.8786-8.8059 3.0527-12.44568 3.17012-6.92732.11741-17.84665-3.63977-15.85064-5.63578.58706-.58706 1.17412-2.34824 1.17412-3.8746 0-3.17013 3.992-7.16214 8.8059-8.45367 5.16614-1.52637 4.93132-1.52637 16.4377 1.64377Z"/>
    <path fill="#f3f3f3" d="M144.89674 202.65025c12.44569 2.46565 10.44968 15.73322-2.70048 18.19888-5.04872.9393-7.16214.70447-14.91134-1.8786-4.93131-1.64377-12.09345-3.40495-15.85064-3.8746-8.8059-1.0567-9.15814-3.63977-.93929-5.51837 3.28754-.70446 8.21885-2.46566 11.15415-3.8746 7.98402-3.63976 15.26358-4.57906 23.2476-3.05271Z"/>
    <path fill="#f3f3f3" d="M101.68908 213.09993c0 7.7492-.35224 9.98003-1.64377 9.98003-2.11342 0-3.05272-3.63978-3.05272-11.85863 0-6.8099.46965-8.10143 3.17013-8.10143 1.17412 0 1.52636 2.46565 1.52636 9.98003Z"/>
    <path fill="#f3f3f3" d="M218.74897 232.1207c2.58307 1.8786 5.51837 6.34025 8.6885 13.03274 2.70048 5.63578 6.10543 11.85862 7.63179 13.85463 5.51837 7.16213 2.46564 8.80591-6.22286 3.28753-3.40494-2.1134-8.9233-5.28354-12.32826-7.04472-9.04074-4.57908-12.68051-7.63178-15.26358-12.68051-1.996-3.8746-2.11342-4.93131-.82188-7.98402 1.64377-4.10943 7.27955-6.92732 11.6238-5.98802 1.64377.35224 4.69648 1.87859 6.69249 3.52237Z"/>
    <path fill="#f3f3f3" d="M163.21303 232.70775c1.05671 1.40895 1.8786 4.10943 1.8786 5.98802 0 4.57908-9.98003 14.20687-20.66453 20.19489-4.46167 2.34824-9.27557 5.28354-10.80192 6.45767-4.8139 3.8746-8.45368.11741-3.8746-3.99203 1.29153-1.1741 4.57907-6.69248 7.39696-12.21085 6.92732-13.85463 12.21086-19.02075 19.96006-19.02075 3.17013 0 4.8139.70446 6.10543 2.58305Z"/>
    <path fill="#f3f3f3" d="M185.63875 240.69178c6.34025 2.46565 7.63179 12.44568 3.52236 27.94408-1.76118 6.22284-3.28754 12.91534-3.28754 14.91134-.23482 2.8179-.82188 3.63978-3.17012 3.8746-2.81789.23483-3.05272-.23482-5.7532-11.15415-4.22683-17.37699-4.93131-25.83066-2.9353-30.76197 2.58307-6.10543 5.28355-7.27956 11.6238-4.8139Z"/>
    <path fill="#f3f3f3" d="M249.62836 261.70855c0 1.76118-7.27956 10.09745-10.6845 12.32827-6.6925 4.22684-5.87061.35224 1.40894-7.27955 6.22284-6.45767 9.27556-8.10144 9.27556-5.04872Z"/>
    <path fill="#f3f3f3" d="M126.34562 268.51845c5.87061 5.63578 7.39697 8.57109 4.10943 8.57109-2.11342 0-13.5024-10.68451-13.5024-12.68051 0-2.9353 3.75719-1.29153 9.39297 4.10942Z"/>
    <path fill="#f3f3f3" d="M190.9223 292.82276c0 2.34824-5.7532 3.40494-13.5024 2.46566-4.34425-.58706-6.45767-1.40895-6.45767-2.46566 0-1.29153 2.23083-1.64376 9.98003-1.64376 7.86662 0 9.98004.35223 9.98004 1.64376Z"/>
    <path fill="#000" d="M184.58204 159.91223c1.05671 7.86662-.11741 11.50639-3.63978 11.50639-1.76118 0-2.9353.70448-2.9353 1.64378 0 4.46165 7.39697 2.11341 9.51038-3.05272 1.05671-2.70048 1.05671-4.46166-.11741-8.33626-2.23083-7.16214-3.63977-7.98402-2.81789-1.76119Z"/>
    <path fill="#000" d="M216.9878 180.34194c-2.8179 2.23084-4.6965 2.8179-6.6925 2.34825-1.64377-.46965-2.9353-1.29154-2.9353-1.87859 0-.70448-.58707-1.17413-1.29154-1.17413-.70447 0-1.05671 1.40895-.82189 3.17013.35223 2.8179.9393 3.28754 4.46167 3.63978 3.17012.23482 5.16613-.46965 8.57108-3.28754 6.8099-5.7532 5.63578-8.33627-1.29152-2.8179Z"/>
    <path fill="#000" d="M148.65393 171.1838c0 .58706 1.64377 2.46565 3.52237 4.10942 3.75718 3.40495 4.57907 7.51438 1.76118 8.57108-2.46566.9393-2.23084 2.8179.35223 2.8179 6.10543 0 6.57509-7.04473.70447-12.44569-4.10942-3.8746-6.34025-4.93131-6.34025-3.05271Z"/>
    <path fill="#000" d="M217.92708 209.34274c0 5.98802 6.80992 8.21886 16.78994 5.40096 6.69248-1.8786 5.40096-3.7572-1.99602-2.8179-7.51436.9393-10.91931.11742-11.8586-3.0527-1.05672-3.17014-2.93532-2.8179-2.93532.46964Z"/>
    <path fill="#000" d="M131.74658 205.35073c-6.34025 1.29153-4.81389 3.28754 1.99601 2.70047 7.7492-.58705 11.38898 1.05672 11.38898 5.28355 0 2.46565.23482 2.81789 1.76118 1.52635 2.58306-2.23082 2.11342-5.40095-1.29154-8.10143-2.9353-2.34824-6.69249-2.70047-13.85463-1.40894Z"/>
    <path fill="#000" d="M204.77693 232.1207c-1.17413 2.23082-.9393 8.6885.23482 10.91932 1.64377 2.9353 7.98403 7.04473 11.03675 7.04473 1.64376 0 .82188-1.29153-3.40496-5.16613-5.16614-4.8139-5.51837-5.63579-4.93131-9.39298.46965-3.17012.23482-4.22684-.9393-4.22684-.93929 0-1.76118.35224-1.996.8219Z"/>
    <path fill="#000" d="M150.06287 235.9953c-2.70047 1.996-4.9313 4.10942-4.9313 4.69648 0 .70447 1.40894.23482 3.28753-1.05671 5.16614-3.75719 8.10144-4.10943 9.86262-1.40895 1.76118 2.81789 2.81789 3.05272 3.63978.9393.70447-1.99601-1.52636-4.93132-4.57907-5.98802-1.64377-.46965-3.8746.35224-7.27956 2.8179Z"/>
    <path fill="#000" d="M178.24179 243.39226c-.70448.82188-1.64377 5.51837-2.11342 10.56709-.58707 7.27955-.46965 9.04073.82188 9.04073 1.17412 0 1.64377-1.52635 1.64377-5.04872.11741-7.39696 1.40895-11.03674 4.34425-11.74121 2.11342-.58705 2.23083-.9393.9393-2.46565-1.76118-2.23084-3.99201-2.34825-5.63578-.35224Z"/>
  </g>
</svg>