<?xml version="1.0" encoding="UTF-8" standalone="no"?>
<!DOCTYPE svg PUBLIC "-//W3C//DTD SVG 1.1//EN" "http://www.w3.org/Graphics/SVG/1.1/DTD/svg11.dtd">
<svg xmlns:dc="http://purl.org/dc/elements/1.1/" xmlns:xl="http://www.w3.org/1999/xlink" version="1.1" xmlns="http://www.w3.org/2000/svg" viewBox="58.5 61.827035 246.8337 309.42296" width="246.8337" height="309.42296">
  <defs>
    <clipPath id="artboard_clip_path">
      <path d="M 58.5 61.827035 L 305.3337 61.827035 L 305.3337 371.25 L 58.5 371.25 Z"/>
    </clipPath>
  </defs>
  <g id="Drum" stroke="none" stroke-opacity="1" stroke-dasharray="none" fill="none" fill-opacity="1">
    <title>Drum</title>
    <g id="Drum_Layer_2" clip-path="url(#artboard_clip_path)">
      <title>Layer 2</title>
      <g id="Group_3">
        <g id="Graphic_124">
          <path d="M 150.0562 64.99307 C 148.8031 65.50031 144.24712 65.871055 139.78141 65.85193 C 131.531 65.89887 123.60559 67.8816 118.8093 71.16874 C 115.16398 73.659205 106.49949 77.79045 100.51665 79.83635 C 97.62228 80.8576 93.09171 82.68401 90.49355 83.99131 C 87.79834 85.30031 85.0027 86.41691 84.22635 86.43047 C 83.35296 86.44571 81.63327 88.0289 80.30854 89.99349 C 79.08085 91.95639 76.03304 95.31008 73.54717 97.48909 C 71.061294 99.66809 68.78137 102.52302 68.4186 103.98545 C 68.15118 105.34914 66.6493 108.28756 65.133865 110.44963 C 61.444016 115.95014 60.879895 122.56098 63.502974 128.24252 C 64.917486 131.42125 65.23741 133.06591 64.58013 134.33934 C 63.07655 137.18071 63.50877 139.69707 66.20687 144.11535 C 68.51002 148.15223 68.61723 148.7328 68.4933 163.8784 C 68.14595 221.83727 68.39905 247.46021 69.81597 261.8994 C 71.97777 285.64465 71.74931 289.24035 67.19792 295.43542 C 66.15416 296.81267 64.16367 299.56546 62.55119 301.72922 C 60.46704 304.6778 59.81992 306.5335 59.8809 310.02707 C 59.98423 315.94674 63.330655 324.13956 67.58315 328.6278 C 70.35289 331.5887 70.96056 333.0342 71.02154 336.5278 C 71.140115 343.32085 73.30557 345.03037 81.55937 345.1775 C 87.1913 345.27336 89.33473 345.7213 93.6487 348.1699 C 101.48843 352.40138 118.48754 358.60857 122.3693 358.5408 C 124.98948 358.4951 126.16586 359.15406 128.34825 361.834 C 129.73905 363.65414 131.4159 365.17804 132.0952 365.1662 C 132.67746 365.15602 134.93319 366.47568 136.99821 367.9928 C 141.02952 370.9317 143.36873 371.4733 144.98968 369.7948 C 146.89668 367.82003 156.96382 366.1882 169.57782 365.87095 C 177.14724 365.73883 186.4499 364.79986 191.675 363.835 C 204.44414 361.28235 205.7074 361.35737 207.127 364.82723 C 208.34742 368.00935 212.166 369.88417 215.84012 369.04345 C 217.0966 368.7303 219.32183 368.30316 220.67537 367.9883 C 222.31833 367.57134 223.55788 366.28775 224.48936 364.0388 C 225.60307 361.10717 226.2739 360.6101 229.18522 360.55927 C 231.02905 360.5271 234.70147 359.58933 237.40006 358.4744 C 240.09866 357.3595 243.67403 356.42343 245.32378 356.39464 C 246.97352 356.36584 249.6755 355.445 251.3083 354.4458 C 252.9411 353.44655 257.56703 351.5214 261.5238 350.1904 C 265.48058 348.85937 269.43397 347.33426 270.19846 346.6414 C 270.96295 345.94855 273.93574 343.8581 276.81317 341.86643 C 281.51242 338.58098 282.57482 338.2712 290.62268 337.74245 C 299.6393 337.0997 303.0138 335.77884 304.8903 332.0573 C 306.20487 329.51044 305.27897 326.51733 302.7338 325.2998 C 300.18696 323.98523 300.32345 320.68235 303.16023 316.3616 C 304.48497 314.397 305.5101 311.9523 305.49316 310.98185 C 305.4576 308.94393 299.88424 301.0812 298.52563 301.1049 C 297.3611 301.12524 295.6182 295.81663 294.9343 290.00417 C 292.81266 274.12117 292.4233 268.4977 293.17423 267.0285 C 293.6425 266.0496 294.0786 263.22686 294.03456 260.70372 C 293.98882 258.08353 293.94576 244.49402 293.9896 230.32054 C 293.93636 216.14876 293.95527 194.98644 293.9444 183.24075 C 293.9335 171.49506 294.26847 157.3165 294.65714 151.77654 L 295.4531 141.7641 L 299.74893 137.61203 C 302.13606 135.33767 304.31895 132.48444 304.6834 131.11905 C 305.04787 129.75366 306.44593 126.42877 307.65838 123.59248 C 309.81077 118.99246 309.8892 117.92328 308.93617 113.37747 C 308.40183 110.57167 307.46576 106.9963 306.8581 105.5508 C 306.24873 104.00826 305.72285 101.68768 305.69745 100.23203 C 305.63985 96.93254 290.02405 80.99386 284.9422 79.04402 C 283.0865 78.3969 279.75653 76.70771 277.6966 75.48171 C 272.5961 72.46439 262.25865 69.73263 256.24194 69.83765 C 253.5247 69.88508 248.95688 69.57652 246.0354 69.045075 C 213.0393 63.99077 212.3583 63.90558 183.73547 64.696416 C 169.08355 65.04924 155.97925 65.08383 154.61556 64.81641 C 153.25017 64.45195 151.21225 64.487524 150.0562 64.99307 Z" fill="black"/>
        </g>
        <g id="Graphic_123">
          <path d="M 214.99833 70.55756 C 217.9198 71.08901 223.95176 71.85738 228.5213 72.262985 C 245.83066 73.99939 246.51335 74.18162 246.5574 76.70476 C 246.5811 78.06337 245.63947 79.73006 244.20244 80.82295 C 241.99923 82.51165 241.31993 82.52351 234.50653 81.477555 C 222.04427 79.36532 213.19296 78.35494 203.96195 77.83656 C 192.98414 77.34866 190.73858 76.61127 190.68607 73.602915 C 190.66405 72.34135 190.93147 70.97765 191.31456 70.67974 C 192.26636 69.59532 209.15707 69.591715 214.99833 70.55756 Z" fill="#f3f3f3"/>
        </g>
        <g id="Graphic_122">
          <path d="M 181.0601 72.70313 C 183.14206 75.1907 181.04606 77.45997 176.10021 77.74045 C 173.77286 77.87814 167.28109 78.5739 161.66102 79.15736 C 156.04264 79.83787 148.48508 80.6493 144.8025 81.0048 C 141.11992 81.3603 137.8289 81.90312 137.34707 82.10567 C 136.96397 82.40358 133.19451 83.34304 129.03348 84.09518 C 120.61608 85.69821 118.76209 85.14813 119.17786 81.16086 C 119.58854 76.88247 129.06157 74.5815 153.2971 72.70237 C 174.62303 70.9711 179.57395 70.98175 181.0601 72.70313 Z" fill="#f3f3f3"/>
        </g>
        <g id="Graphic_121">
          <path d="M 272.9257 80.22451 C 278.68856 82.25953 282.02362 84.23986 285.67353 87.57371 C 291.00367 92.62556 296.48167 100.58703 295.53834 102.15667 C 294.12503 104.60818 290.31152 103.0245 284.4877 97.4959 C 277.38366 90.92183 268.7625 86.4128 260.68246 85.09773 C 254.1602 84.0467 252.48674 82.71688 253.29576 79.01397 C 253.93103 76.47898 254.12342 76.37855 259.56804 76.86595 C 262.6802 77.19992 268.627 78.64929 272.9257 80.22451 Z" fill="#f3f3f3"/>
        </g>
        <g id="Graphic_120">
          <path d="M 112.82886 84.47511 C 115.12016 87.83268 114.17513 89.30528 107.73079 92.71826 C 104.65249 94.32516 98.99636 98.4039 95.1705 101.6741 C 87.61584 108.21281 85.59486 109.21882 81.10882 108.03517 C 78.9637 107.49017 78.07506 106.63202 77.84709 104.69453 C 77.52039 102.6617 78.0891 101.87518 80.68557 100.47083 C 82.41711 99.56695 85.1992 97.674 86.72649 96.19124 C 88.35083 94.70678 92.85768 91.52177 96.79582 89.12327 C 100.73396 86.72476 104.8645 84.22583 105.92012 83.52789 C 108.8946 81.53451 111.03634 81.885415 112.82886 84.47511 Z" fill="#f3f3f3"/>
        </g>
        <g id="Graphic_119">
          <path d="M 189.1256 84.30822 C 191.8564 85.03714 193.31035 84.91469 195.61908 83.70951 C 198.41132 82.39882 200.06107 82.37002 212.02117 83.52029 C 219.3147 84.26664 228.84193 85.07107 233.11863 85.38472 C 237.39534 85.69836 241.77416 86.30144 242.75476 86.86676 C 243.83072 87.33335 247.72602 88.04194 251.42046 88.36575 C 255.1149 88.68956 259.5005 89.68081 261.1638 90.42837 C 262.92583 91.27127 265.4659 92.19767 267.0237 92.4617 C 268.48443 92.72742 269.6642 93.58049 269.67775 94.35684 C 269.6947 95.32727 270.6736 95.79555 272.61447 95.76168 C 274.4583 95.72949 275.82878 96.38508 276.5301 97.6348 C 277.131 98.69211 278.6019 99.5401 279.9605 99.51638 C 281.41617 99.49098 282.4955 100.15165 282.9074 101.50349 C 283.82822 104.20547 282.00472 105.40218 278.48912 104.20159 C 276.5364 103.55616 274.69425 103.68539 272.2817 104.50409 C 268.22958 105.93384 266.66333 105.1846 267.1914 102.06903 C 267.44864 100.12307 267.25117 99.93237 265.81075 100.83118 C 264.75174 101.33503 263.98894 102.12493 263.9974 102.61015 C 264.0296 104.45398 258.5218 105.90915 254.71847 104.90773 C 252.08643 104.27416 248.98103 104.32836 243.75422 105.19618 C 235.62456 106.60004 101.7109 109.3258 96.93543 108.24428 C 95.37596 107.88321 94.19957 107.22423 94.1911 106.73901 C 94.17416 105.76857 103.47223 99.00528 108.27868 96.30041 C 110.39501 95.19566 113.88012 94.64946 119.31457 94.5546 C 127.17512 94.4174 127.17512 94.4174 126.5522 92.09851 C 125.61952 88.71722 125.03895 88.82443 157.3889 84.66804 C 170.27201 83.08414 183.56701 82.85207 189.1256 84.30822 Z" fill="#f3f3f3"/>
        </g>
        <g id="Graphic_118">
          <path d="M 81.12188 114.34471 C 82.03254 116.46443 80.12385 118.34214 76.44974 119.18286 C 68.90404 120.6736 65.96103 113.34739 73.4063 111.66426 C 76.113365 111.03457 80.41039 112.51273 81.12188 114.34471 Z" fill="#f3f3f3"/>
        </g>
        <g id="Graphic_117">
          <path d="M 265.76065 109.08329 C 266.3717 110.72287 262.6666 115.34999 260.6287 115.38556 C 257.91147 115.43299 257.9526 112.22885 260.6292 109.85237 C 263.68885 107.17798 264.85 106.96357 265.76065 109.08329 Z" fill="#f3f3f3"/>
        </g>
        <g id="Graphic_116">
          <path d="M 275.75108 108.61768 C 275.7748 109.9763 273.87288 112.24218 272.70835 112.26251 C 271.7379 112.27945 271.58328 108.98165 272.53847 108.09132 C 273.58562 106.90816 275.72736 107.25907 275.75108 108.61768 Z" fill="#f3f3f3"/>
        </g>
        <g id="Graphic_115">
          <path d="M 285.9356 108.14869 C 286.8344 109.5891 283.61113 114.01367 281.5732 114.04924 C 278.856 114.09667 278.13095 111.48834 280.1299 109.22076 C 281.93817 107.15066 284.93805 106.61293 285.9356 108.14869 Z" fill="#f3f3f3"/>
        </g>
        <g id="Graphic_114">
          <path d="M 300.50233 108.47687 C 302.775 110.76696 301.82996 112.23956 298.04525 112.30562 C 295.13394 112.35643 294.74068 112.07208 294.4072 109.65107 C 294.0771 107.42414 294.36146 107.03088 296.49643 106.99362 C 297.758 106.9716 299.6137 107.61872 300.50233 108.47687 Z" fill="#f3f3f3"/>
        </g>
        <g id="Graphic_113">
          <path d="M 242.77651 110.35814 C 243.46937 111.12263 244.5487 111.7833 245.22802 111.77145 C 245.90732 111.75959 246.96295 111.06165 247.6287 110.27344 C 249.24288 108.20673 256.23172 108.18181 257.04365 110.20618 C 257.956 112.42294 255.27604 114.60533 250.6281 115.2689 C 247.33708 115.81171 246.16747 115.54091 245.17332 114.19923 C 243.9817 112.66686 243.7876 112.67025 241.29835 114.65517 C 238.33064 117.03673 234.9392 117.38715 233.25557 115.47507 C 232.16607 114.23213 231.5838 114.2423 228.6945 115.55468 C 226.86423 116.36321 223.769 116.99968 221.72938 116.93821 C 219.7868 116.87504 215.52535 117.4348 212.23772 118.1717 C 208.756 118.91198 205.16707 119.0717 203.31477 118.61867 C 201.65825 118.25929 192.04922 118.32994 182.06049 118.89259 C 171.9747 119.45693 148.78124 119.86177 130.33784 119.89248 C 111.89444 119.9232 95.58769 120.01368 93.93795 120.04248 C 88.9921 120.32296 86.64781 119.49021 86.61393 117.54934 C 86.59699 116.5789 87.15723 115.30717 87.82638 114.71305 C 89.26001 113.42607 142.62902 112.20329 147.69731 113.37678 C 149.54792 113.73277 158.96117 113.56846 168.56003 112.91554 C 208.70398 110.37043 221.31629 109.95614 222.79227 111.09526 C 223.875 111.95002 224.7484 111.93477 226.1922 111.23006 C 228.69161 109.8274 232.76745 109.75626 233.2764 111.1064 C 233.58107 111.87767 234.5498 111.76369 236.47206 110.66233 C 240.12584 108.65708 241.19163 108.54141 242.77651 110.35814 Z" fill="#f3f3f3"/>
        </g>
        <g id="Graphic_112">
          <path d="M 290.73937 116.41315 C 292.22213 117.94044 287.94663 123.25703 280.94882 128.32992 C 275.67917 132.30484 273.74338 132.62985 274.5575 129.21807 C 275.0122 127.46281 274.70922 126.78859 273.7388 126.80553 C 272.96244 126.81908 272.19286 127.2208 272.00724 127.70941 C 271.27155 130.05201 260.3898 140.6288 258.74006 140.6576 C 256.02283 140.70503 256.3602 137.78694 259.50335 134.33451 C 260.9302 132.65936 264.54334 128.32506 267.58607 124.68023 C 273.38717 117.78384 276.7532 115.97777 280.08658 117.86105 C 281.6579 118.90143 282.23848 118.79422 283.47803 117.51063 C 285.00362 115.93083 289.55452 115.26895 290.73937 116.41315 Z" fill="#f3f3f3"/>
        </g>
        <g id="Graphic_111">
          <path d="M 98.1752 123.6573 C 99.6478 124.60233 100.91275 124.7744 102.06542 124.07477 C 103.98767 122.97341 107.66855 122.52086 114.17388 122.60146 C 118.05902 122.72779 119.03623 123.09903 119.4515 124.64495 C 119.76127 125.70735 120.45582 126.56889 120.94104 126.56042 C 121.42626 126.55195 122.96372 125.65145 124.3037 124.56026 C 126.8883 122.4766 130.37341 121.9304 131.95152 123.35896 C 132.4469 123.93275 134.38609 123.80183 136.99441 123.07679 C 140.08457 122.14919 141.54022 122.12378 142.91408 122.97346 C 144.28794 123.82314 145.7436 123.79773 148.44897 123.071 C 151.15264 122.24721 152.6083 122.2218 154.37203 123.16175 C 156.2328 124.1 157.59141 124.07629 160.87565 123.1453 C 163.29159 122.5207 166.19951 122.27579 167.85773 122.73221 C 169.4172 123.09328 172.23147 123.04416 174.16727 122.71915 C 176.3925 122.29202 178.23972 122.45392 179.4178 123.20994 C 180.6963 124.15836 181.66674 124.14142 183.0135 123.4384 C 184.07081 122.8375 186.68591 122.50064 188.91962 122.55872 C 191.15332 122.6168 194.54816 122.46048 196.38521 122.04012 C 200.6399 121.09219 209.20177 122.2047 209.7141 123.74893 C 209.91834 124.3278 208.5987 126.58352 206.79212 128.75067 C 203.3646 132.59636 202.70732 133.86979 204.16298 133.84438 C 205.42455 133.82236 214.58322 124.63467 215.7054 122.18825 C 216.36268 120.91482 217.70605 120.01771 219.1617 119.9923 C 223.8198 119.911 223.3905 123.12191 218.30645 126.60822 C 216.48295 127.80493 214.95735 129.38473 214.9709 130.16108 C 214.98276 130.84039 213.94069 132.31468 212.599 133.30883 C 211.25734 134.30299 210.21188 135.58319 210.22204 136.16545 C 210.14363 137.23463 207.85523 139.60433 198.48892 148.01906 C 193.99732 152.07746 191.69198 153.47673 191.00082 152.80928 C 189.81596 151.66508 191.02502 148.6347 193.98087 145.57384 C 194.93437 144.58646 195.78405 143.2126 195.77388 142.63034 C 195.76372 142.04808 194.1343 143.2414 192.2273 145.21615 C 185.64647 151.93201 184.68789 152.62825 182.55292 152.66552 C 180.90318 152.69432 180.4078 152.12052 180.3773 150.37374 C 180.3536 149.01512 180.8151 147.64804 181.29523 147.34844 C 181.87241 147.04714 182.24704 146.26402 182.23857 145.7788 C 182.2301 145.29358 180.977 145.80082 179.44463 146.99245 C 173.88892 151.26358 172.638 146.33467 177.88395 141.00114 C 181.98738 136.9495 185.39965 132.23043 184.23512 132.25075 C 183.7499 132.25922 181.45473 134.24075 179.07098 136.7092 C 176.78428 139.17594 172.77112 142.8377 170.08777 144.82601 C 167.50146 146.81262 164.34475 149.4887 163.20394 150.86764 C 161.96778 152.34532 160.62272 153.14539 159.6455 152.77415 C 156.90965 151.7541 158.04707 150.18107 170.61462 136.08021 C 174.13918 132.23283 176.70008 128.79056 176.40386 128.50451 C 176.2047 128.21677 174.96006 129.20923 173.7239 130.6869 C 172.48944 132.26163 171.15115 133.44987 170.76298 133.45664 C 170.47184 133.46172 165.98701 137.90831 160.83981 143.33719 C 151.78665 153.0084 148.32865 155.1073 147.00949 151.82983 C 146.40182 150.38434 150.09844 145.272 154.02134 142.0001 C 160.0521 137.13824 167.65129 127.58948 163.33005 130.28589 C 157.66545 133.8794 153.74255 137.1513 152.89965 138.91334 C 152.33771 140.08803 149.8654 143.04338 147.3829 145.41647 C 141.36909 151.24877 136.355 153.18069 135.13627 150.09561 C 134.73115 149.13195 137.67514 145.39178 144.35472 138.77127 C 149.696 133.339 153.88462 128.60637 153.49137 128.32201 C 153.19346 127.93892 152.23149 128.44108 151.37334 129.32972 C 150.5152 130.21836 149.45957 130.9163 149.0714 130.92307 C 147.71278 130.94679 136.99971 140.06453 135.48767 142.42068 C 132.56231 147.22834 127.5516 149.35434 126.33626 146.46336 C 125.7269 144.92082 130.54231 137.16797 132.19036 137.04213 C 133.25784 137.0235 140.215 129.62156 140.19637 128.55408 C 140.18451 127.87477 138.64875 128.87231 132.6146 133.54009 C 125.33752 139.29736 123.12923 140.69493 122.24059 139.83679 C 121.84564 139.45539 122.0177 138.19043 122.68007 137.20813 C 124.94475 133.47982 123.6798 133.30775 118.78985 136.79067 C 114.0906 140.07612 110.32622 141.3067 110.29573 139.55992 C 110.28896 139.17174 111.61708 137.40124 113.1376 135.5303 C 116.27737 131.88379 116.64183 130.5184 114.60391 130.55397 C 113.82756 130.56752 111.43873 132.74483 109.25415 135.50102 C 106.49917 138.94667 104.5837 140.4362 102.93396 140.465 C 99.82855 140.51921 100.00231 139.3513 103.5201 135.11574 C 107.51632 130.48354 106.33825 129.72751 101.26099 133.602 C 99.05778 135.2907 96.6554 136.69166 95.97609 136.70352 C 94.52043 136.72893 88.98604 131.0982 86.98249 127.54146 C 86.07861 125.80992 85.96293 124.74413 86.71387 123.27492 C 87.55847 121.60993 88.33143 121.4023 91.83348 121.82653 C 94.07226 122.17575 96.90177 123.00002 98.1752 123.6573 Z" fill="#f3f3f3"/>
        </g>
        <g id="Graphic_110">
          <path d="M 247.12726 120.4749 L 248.51975 122.39206 L 251.00732 120.3101 C 253.68897 118.22475 257.47707 118.35277 257.51772 120.68182 C 257.5533 122.71974 236.76193 143.95343 234.72401 143.989 C 234.33584 143.99578 232.99586 145.08697 231.758 146.4676 C 229.37765 149.13014 227.93046 149.64077 227.89997 147.89398 C 227.87795 146.6324 231.20334 142.49728 240.4438 132.4345 C 247.77897 124.44353 248.59985 121.41993 242.09065 126.67843 C 237.39818 130.35205 225.871 142.88158 225.89303 144.14315 C 225.91505 145.40472 218.054 151.07511 216.11314 151.109 C 212.0373 151.18014 216.08483 143.92606 224.67818 135.71897 C 228.68796 131.86312 230.76533 128.52636 229.11558 128.55516 C 228.9215 128.55855 223.57682 133.79673 217.28373 140.31342 C 210.98894 146.73306 204.873 152.27592 203.71355 152.58738 C 198.20746 154.13959 201.94862 146.0172 209.883 138.9865 C 212.17647 136.90792 214.27078 134.5416 214.54836 133.76017 C 214.82424 132.8817 216.54224 131.20146 218.36405 129.90771 C 220.18755 128.711 221.71315 127.1312 221.6996 126.35485 C 221.66742 124.51101 228.4779 119.82969 231.38922 119.77887 C 232.74784 119.75516 234.309 120.21327 234.90143 120.78537 C 235.69134 121.54817 236.56304 121.43588 238.19245 120.24256 C 241.2606 118.05339 245.43686 118.17464 247.12726 120.4749 Z" fill="#f3f3f3"/>
        </g>
        <g id="Graphic_109">
          <path d="M 267.20855 119.73608 C 267.2458 121.87105 251.05666 139.82098 248.3513 140.54772 C 244.87296 141.48209 244.7556 140.31926 247.69958 136.57908 C 249.2218 134.8052 251.30932 132.0507 252.3514 130.57641 C 258.60383 121.73067 267.134 115.46616 267.20855 119.73608 Z" fill="#f3f3f3"/>
        </g>
        <g id="Graphic_108">
          <path d="M 299.56987 121.7922 C 299.49823 123.24955 297.8158 126.9677 295.8304 130.01163 C 289.4042 140.02528 274.32417 149.21925 258.5653 152.8919 C 255.37473 153.6271 250.15977 155.17423 247.073 156.29591 C 243.89088 157.51634 239.73325 158.46257 237.59828 158.49984 C 234.39584 158.55573 233.90554 158.27307 233.87166 156.3322 C 233.81068 152.83862 236.40206 151.14314 244.91143 149.24729 C 256.12616 146.6247 258.34462 145.80939 269.50684 140.17844 C 277.97555 135.95354 280.75594 133.96354 286.5706 127.8435 C 290.28754 123.89569 293.4256 120.15212 293.41545 119.56986 C 293.4053 118.9876 294.75882 118.67275 296.60604 118.83465 C 299.32835 119.07836 299.7216 119.36271 299.56987 121.7922 Z" fill="#f3f3f3"/>
        </g>
        <g id="Graphic_107">
          <path d="M 80.14369 125.03985 C 81.03402 125.99505 82.2392 128.30377 82.95239 130.23279 C 84.78556 135.15153 86.26663 136.58178 96.58835 143.97334 C 104.15897 149.47144 105.64004 150.9017 105.679 153.1337 C 105.74675 157.01545 104.39322 157.3303 99.11051 154.99567 C 92.45563 151.90841 74.57564 134.16487 73.22599 129.14061 C 72.60815 127.11285 72.3768 124.98128 72.65946 124.49098 C 73.602795 122.92134 78.5605 123.32017 80.14369 125.03985 Z" fill="#f3f3f3"/>
        </g>
        <g id="Graphic_106">
          <path d="M 120.0064 145.3119 C 121.49424 147.13032 120.4403 147.9253 116.55855 147.99306 C 113.5502 148.04557 112.26153 146.51489 113.97952 144.83465 C 115.02667 143.6515 118.81816 143.9736 120.0064 145.3119 Z" fill="#f3f3f3"/>
        </g>
        <g id="Graphic_105">
          <path d="M 239.5215 146.3321 C 239.53506 147.10845 238.8676 147.79961 238.09126 147.81316 C 236.53856 147.84026 236.13006 146.68251 237.27595 145.5947 C 238.3231 144.41155 239.4944 144.7794 239.5215 146.3321 Z" fill="#f3f3f3"/>
        </g>
        <g id="Graphic_104">
          <path d="M 88.24668 155.47652 C 90.60623 157.18266 95.01385 159.43548 98.04423 160.64454 C 103.51595 162.68465 105.1093 164.9866 101.52715 165.53449 C 100.46136 165.65016 98.01494 164.52799 96.14231 162.91043 C 94.26968 161.29287 90.23668 158.25691 87.29149 156.36686 C 84.34461 154.37975 80.99769 151.72012 79.90819 150.47718 L 77.92835 148.27905 L 80.87693 150.3632 C 82.547 151.49893 85.79179 153.86913 88.24668 155.47652 Z" fill="#f3f3f3"/>
        </g>
        <g id="Graphic_103">
          <path d="M 123.65242 153.98485 C 133.20506 156.24494 146.53733 158.14784 153.82408 158.50602 C 157.61218 158.63404 160.91505 158.77054 161.40027 158.76207 C 161.79014 158.85234 162.1033 160.10883 162.1321 161.75857 C 162.1829 164.66988 162.08756 164.76862 155.31651 166.14876 C 153.5765 166.56743 134.11184 163.70377 129.62411 162.42307 C 128.06294 161.96496 124.26469 161.25467 121.3466 160.9173 C 113.27502 160.08747 111.61003 159.24287 111.55413 156.04042 C 111.47113 151.28528 111.76226 151.2802 123.65242 153.98485 Z" fill="#f3f3f3"/>
        </g>
        <g id="Graphic_102">
          <path d="M 289.11886 151.48492 C 289.17476 154.68736 286.56764 161.04264 285.20903 161.06635 C 284.52972 161.07821 284.03095 160.31033 284.014 159.3399 C 284.25263 156.32645 279.3305 157.96554 274.9427 162.41043 C 274.27526 163.1016 273.21795 163.7025 272.73273 163.71096 C 272.15046 163.72113 271.96315 164.11269 272.26275 164.59283 C 272.6594 165.07127 274.69393 164.84161 277.2052 164.11826 C 279.61775 163.29956 281.55185 162.87751 281.55524 163.0716 C 281.58065 164.52726 279.2223 168.45135 278.25187 168.4683 C 277.57257 168.48015 276.51694 169.1781 275.75584 170.06504 C 275.09008 170.85324 273.07757 172.34447 271.25068 173.3471 C 269.4238 174.34972 268.2779 175.43753 268.86524 175.7185 C 269.35554 176.00116 272.14948 174.7875 274.93157 172.89455 C 279.92195 169.60402 281.66365 169.2824 281.7043 171.61145 C 281.71616 172.29076 283.10527 174.01383 284.68507 175.53943 C 286.3619 177.06333 287.65228 178.69106 287.65906 179.07923 C 287.68108 180.3408 285.94615 181.0506 285.2482 179.99498 C 284.24897 178.36217 282.4153 178.97662 279.55142 181.74466 C 276.87654 184.21818 276.87993 184.41227 278.73562 185.0594 C 282.34826 186.2583 282.40367 194.99392 278.92703 196.02534 C 277.7676 196.3368 275.939 197.24238 274.88507 198.03736 C 273.06495 199.42816 273.06665 199.5252 274.8473 201.4356 C 275.93512 202.58148 277.30898 203.43116 277.9883 203.4193 C 280.0262 203.38373 285.034 195.53045 284.9815 192.5221 C 284.9561 191.06644 285.39897 188.63187 285.95413 187.069 C 286.87883 184.43189 286.97587 184.4302 288.36498 186.15327 C 290.05537 188.45352 290.24897 193.98332 288.86784 198.27866 C 288.12876 200.42717 287.2706 201.31581 285.62087 201.3446 C 282.8066 201.39373 278.36072 208.07232 279.1896 211.06713 C 279.60486 212.61306 278.85392 214.08226 276.18243 216.74988 C 274.1784 218.72632 273.04605 220.59048 273.6317 220.7744 C 274.90004 221.14056 280.5765 218.22635 280.55787 217.15887 C 280.5511 216.7707 282.0767 215.1909 283.99047 213.6043 C 287.818 210.43115 289.8678 211.0749 288.87315 215.2664 C 288.51546 217.01997 287.65562 217.81156 286.19996 217.83697 C 285.03544 217.8573 283.3005 218.5671 282.347 219.55447 C 280.53197 221.2364 280.0107 224.74014 281.66043 224.71135 C 283.7954 224.67408 282.49776 228.19137 279.80764 229.7915 C 276.63738 231.69123 275.61563 234.33005 278.7876 232.52736 C 279.8466 232.0235 281.28362 230.93062 281.95277 230.3365 C 282.71726 229.64364 284.24455 228.16088 285.39214 227.17012 C 287.49492 225.28902 287.49492 225.28902 287.53896 227.81216 C 287.57284 229.75303 287.09948 230.4408 285.74086 230.46452 C 283.50886 230.50348 277.3416 238.66822 279.09856 239.22 C 279.6842 239.40392 281.50602 238.11016 283.02992 236.43332 C 285.98238 233.17836 287.13844 232.67282 288.13767 234.30562 C 288.536 234.8811 285.78272 238.4238 282.06407 242.27458 C 278.34374 246.0283 275.29593 249.382 275.2993 249.5761 C 275.3044 249.86722 276.18118 250.04606 277.24866 250.02743 C 278.31614 250.0088 279.49252 250.66777 279.89594 251.5344 C 280.20063 252.30566 281.0825 252.77563 281.85376 252.47095 C 285.13123 251.1518 284.9744 253.29014 281.63885 256.843 C 277.5405 261.18577 277.6545 262.1545 282.0897 260.42685 C 283.7276 259.71875 285.37225 259.39882 285.67016 259.7819 C 285.96637 260.06796 286.00195 262.10588 285.65273 264.34466 C 285.05134 268.82054 283.70798 269.71764 276.74115 271.00413 L 273.1607 271.64907 L 271.29702 264.98354 C 270.2639 261.40986 267.8947 253.58827 265.94923 247.79782 C 261.23113 233.31918 254.146 205.5828 254.06978 201.21582 C 254.04437 199.76017 254.90252 198.87153 257.02393 198.0579 C 259.72422 197.04004 260.00857 196.64679 259.2886 194.3296 C 258.97038 192.78197 258.339 189.97787 258.0123 187.94503 C 257.35888 183.87935 257.45593 183.87766 253.80214 185.8829 C 249.85892 187.99027 248.28928 187.04694 247.42146 181.82012 C 247.08628 179.30207 245.94258 174.95373 245.02006 172.1547 C 243.8882 168.48567 243.66024 166.54819 244.32092 165.46885 C 244.88793 164.58529 248.9299 162.57327 253.46554 161.038 C 257.90584 159.60147 265.3291 156.65677 270.05205 154.72993 C 277.6643 151.49071 278.63136 151.27969 280.0137 152.61458 C 281.396 153.94948 281.7842 153.9427 284.08106 152.05822 C 287.23946 149.47918 289.0816 149.34996 289.11886 151.48492 Z" fill="#f3f3f3"/>
        </g>
        <g id="Graphic_101">
          <path d="M 89.85818 164.37914 C 96.32575 167.85797 98.58316 169.27466 98.99505 170.6265 C 99.40017 171.59016 98.52338 171.41132 96.16892 169.99632 C 94.30646 168.96102 91.66595 167.84223 90.3993 167.57312 C 87.76557 166.8425 85.79759 165.32368 80.55771 159.88196 L 77.09512 156.15654 L 82.00829 159.56542 C 84.7577 161.36182 88.29024 163.53285 89.85818 164.37914 Z" fill="#f3f3f3"/>
        </g>
        <g id="Graphic_100">
          <path d="M 227.5943 158.18909 C 227.65698 161.7797 226.69162 162.08778 206.33783 163.89916 C 188.11732 165.57622 170.25618 165.59677 168.86877 163.97074 C 167.5801 162.44006 168.48616 158.73546 170.13421 158.60962 C 170.81352 158.59776 181.3896 158.31608 193.61373 157.90856 C 205.9349 157.49935 217.86113 156.70873 220.27875 156.18117 C 226.5612 154.6154 227.5367 154.8896 227.5943 158.18909 Z" fill="#f3f3f3"/>
        </g>
        <g id="Graphic_99">
          <path d="M 80.53471 169.68677 C 80.6211 174.636 81.01774 175.11445 88.56973 179.54508 C 92.29466 181.61567 93.59858 184.01975 91.97593 185.60124 C 91.21314 186.39114 86.70169 183.75184 85.50329 181.83129 C 84.30488 179.91074 82.856 180.32432 82.89496 182.55633 C 82.9136 183.62381 83.60815 184.48535 84.3845 184.4718 C 85.25789 184.45655 86.14314 185.12061 86.44783 185.89188 C 86.84955 186.66146 87.54072 187.3289 88.02594 187.32044 C 89.2875 187.29842 91.66907 190.26612 91.79321 191.81713 C 91.82879 193.85505 89.00435 193.3219 86.33843 190.74746 C 83.3763 187.88696 82.98643 187.7967 83.02878 190.2228 C 83.04741 191.29027 84.14369 192.92138 85.52094 193.96515 C 88.66869 196.33704 88.68732 197.40452 85.56837 196.68238 C 83.81311 196.22765 82.94649 196.63107 82.19555 198.10028 C 81.63192 199.17792 80.57968 200.06995 79.80333 200.0835 C 78.056545 200.114 77.80995 197.10902 79.335545 195.52922 C 80.19369 194.64058 79.98775 193.96466 78.8012 192.72342 C 77.71678 191.77161 77.40363 190.51512 77.77487 189.5379 C 78.1478 188.65774 78.40166 186.5177 78.27243 184.67556 C 78.04108 182.54398 78.59624 180.98112 79.64848 180.0891 C 81.27789 178.89577 81.27451 178.70168 79.29636 176.6006 C 76.33085 173.54601 75.50198 170.5512 77.32041 169.06336 C 78.0849 168.3705 78.74049 167.00004 78.72186 165.93255 C 78.70492 164.96212 79.08124 164.27603 79.57154 164.5587 C 80.06353 164.9384 80.49067 167.16363 80.53471 169.68677 Z" fill="#f3f3f3"/>
        </g>
        <g id="Graphic_98">
          <path d="M 116.01208 166.73775 C 118.27289 168.34854 117.74822 171.65819 115.13481 172.0921 C 112.71549 172.52262 109.35502 169.08664 110.0958 167.03517 C 110.84166 165.27483 113.65254 165.03162 116.01208 166.73775 Z" fill="#f3f3f3"/>
        </g>
        <g id="Graphic_97">
          <path d="M 132.66925 170.03871 C 135.39664 170.57355 139.77546 171.17663 142.39904 171.32498 C 145.11965 171.47164 150.56257 171.862 154.54645 172.08368 C 158.53202 172.4024 162.1311 172.82495 162.42902 173.20804 C 162.82397 173.58944 162.78113 176.69654 162.35689 180.19858 C 161.08926 190.99585 161.1846 190.89712 156.81764 190.97334 C 154.77972 191.00891 152.84562 191.43097 152.56126 191.82422 C 152.37395 192.21579 151.8442 195.2343 151.61066 198.53888 L 151.03637 204.56745 L 154.75453 206.24987 C 157.98408 207.74667 158.5782 208.41582 158.5235 210.8436 C 158.48913 214.43592 156.87736 227.7631 155.62208 233.7065 C 155.1792 236.14105 154.40745 241.97893 154.00692 246.83958 C 153.50766 251.6049 152.58586 259.9693 151.90267 265.32025 C 151.12244 270.6729 150.5651 277.6719 150.621 280.87436 C 150.69383 285.04724 150.1573 287.6776 148.7423 290.03205 C 147.1383 292.68103 146.96453 293.84894 147.87011 295.67753 C 148.4727 296.8319 148.69728 298.5753 148.4197 299.35672 C 147.67723 301.31115 141.36938 301.42125 136.77444 299.56 C 134.03858 298.53994 133.34573 297.77545 133.60637 296.02358 C 133.76996 294.2734 134.6332 293.6759 137.24491 293.14494 L 140.63297 292.60043 L 137.01355 291.01336 C 134.96039 290.17554 133.29201 289.13686 133.28524 288.74868 C 133.25983 287.29302 135.46135 285.50728 137.30518 285.4751 C 140.21649 285.42427 139.21556 283.69442 135.60462 282.59257 C 133.65358 282.0442 132.1776 280.90507 132.16235 280.03168 C 132.14202 278.86715 133.20611 278.65443 137.48112 278.87103 C 140.39413 278.91726 142.82023 278.8749 142.81514 278.58378 C 142.80498 278.0015 138.98978 276.3208 134.30458 274.8494 C 131.0818 273.74077 129.49015 271.53587 131.12295 270.53663 C 131.6014 270.14 134.60806 269.99043 137.81389 270.12862 C 145.48713 270.38298 145.65072 268.6328 138.15464 267.40462 C 129.78346 266.09464 128.80455 265.62636 129.14869 263.09644 C 129.40255 260.9564 129.88608 260.8509 136.87323 260.72892 C 141.2402 260.6527 144.43587 260.20862 144.4257 259.62636 C 144.51259 259.0424 141.58434 258.12278 137.98186 257.50615 C 130.77521 256.17584 126.85789 254.20568 126.81893 251.97367 C 126.7986 250.80915 127.47452 250.6032 130.00782 251.14142 C 136.33769 252.2929 141.39074 252.59298 141.3755 251.7196 C 141.36533 251.13733 139.02103 250.30458 136.29195 249.6727 C 133.46752 249.13957 130.04727 247.84024 128.67002 246.79647 C 126.50626 245.184 126.40583 244.9916 127.94668 244.2852 C 129.48921 243.67583 132.20983 243.8225 139.70253 244.85658 C 140.67635 245.03373 141.73536 244.52988 141.9176 243.84718 C 142.19517 243.06575 140.92683 242.6996 137.5303 242.75888 C 134.52194 242.8114 132.28146 242.36514 131.48987 241.5053 C 130.89405 240.7391 129.42484 239.98816 128.35398 239.8127 C 127.18606 239.63895 126.10672 238.97828 125.80373 238.30405 C 125.5961 237.5311 126.85089 237.1209 130.44151 237.05822 C 136.94344 236.94473 136.5197 234.91358 129.79996 233.67185 C 125.61014 232.77425 125.0211 232.39624 124.68931 230.07227 C 124.35922 227.84534 124.64358 227.45208 126.77854 227.41482 C 128.13716 227.3911 129.29321 226.88556 129.28474 226.40034 C 129.27458 225.81808 128.87963 225.43668 128.29736 225.44684 C 127.81215 225.4553 127.30999 224.49334 127.19092 223.23347 C 127.1706 222.06894 126.87269 221.68585 126.59172 222.2732 C 125.9429 224.03184 124.67795 223.85977 123.96646 222.0278 C 122.85155 219.3292 125.1518 217.6388 129.04372 218.1533 L 132.54576 218.57755 L 129.42003 217.46723 C 127.66139 216.8184 125.50271 215.49707 124.51703 214.6406 C 122.93553 213.01797 122.93384 212.92092 124.56156 211.63056 C 126.09393 210.43893 126.09055 210.24484 124.7116 209.10403 C 122.84067 207.58352 122.59238 204.4815 124.329 203.86875 C 124.90788 203.6645 126.7551 203.8264 128.41331 204.28282 C 133.09344 205.46309 137.64941 205.09234 137.62231 203.53964 C 137.60876 202.7633 136.72012 201.90514 135.7429 201.5339 C 132.91339 200.70963 132.2837 198.00257 134.48352 196.11978 C 136.30025 194.5349 136.29856 194.43785 132.6893 193.43304 C 130.64122 192.88635 128.3037 192.44179 127.6244 192.45365 C 124.03208 192.41928 119.3372 184.83243 122.83078 184.77145 C 123.51009 184.7596 123.5885 183.69042 123.16814 181.85336 C 122.43124 178.56573 122.52828 178.56403 127.8911 179.92653 C 130.52483 180.65714 131.88345 180.63343 132.64624 179.84353 C 133.40904 179.05362 133.20987 178.76588 132.04535 178.7862 C 131.17195 178.80145 128.43779 177.87844 125.99137 176.75627 C 122.07574 174.88315 121.58036 174.30935 121.52954 171.39804 C 121.46517 167.71037 121.46517 167.71037 132.66925 170.03871 Z" fill="#f3f3f3"/>
        </g>
        <g id="Graphic_96">
          <path d="M 242.1477 174.43753 C 243.09563 178.69221 244.05033 183.33507 244.07574 184.79072 C 244.13672 188.2843 240.97154 190.47516 235.63413 190.56833 L 231.3642 190.64286 L 231.89057 187.43025 C 232.1529 185.77543 232.57037 181.8852 232.81068 178.9688 C 233.55026 171.2871 235.78953 166.10313 238.31945 166.44726 C 239.87553 166.61425 240.58194 168.1551 242.1477 174.43753 Z" fill="#f3f3f3"/>
        </g>
        <g id="Graphic_95">
          <path d="M 229.88123 172.41895 C 229.63922 175.2383 229.14165 180.10066 228.90472 183.21114 C 228.57075 186.32332 227.93888 189.0524 227.3634 189.45074 C 226.88325 189.75034 224.85042 190.07705 222.91123 190.20797 C 219.71048 190.3609 219.3274 190.65882 218.60694 193.87481 C 217.43514 199.04015 218.65896 202.41636 222.0775 203.61864 C 225.59141 204.7222 225.71725 206.37024 223.78846 223.78004 C 223.1256 230.29552 222.7437 236.22366 223.0467 236.8979 C 223.35138 237.66916 223.2115 240.77795 222.78048 243.89182 C 222.34947 247.0057 221.67595 258.4721 221.28171 269.25412 C 220.91288 281.4918 220.0949 290.2427 219.35243 292.1971 L 218.0497 295.42327 L 210.96382 295.4499 L 203.78089 295.4782 L 202.45156 291.61846 C 201.63794 289.49705 200.59806 285.5352 200.0671 282.92348 C 199.53445 280.21472 198.37211 274.7989 197.42927 270.83535 C 196.58347 266.8701 195.62877 262.22725 195.50462 260.67624 C 195.28174 259.0299 193.68549 251.00066 191.89176 242.78073 C 187.01613 219.277 185.1665 207.85464 186.11492 206.57613 C 186.58997 205.9854 188.99743 204.87557 191.40998 204.05687 C 195.65788 202.72077 195.84858 202.5233 195.7893 199.12676 C 195.75542 197.1859 195.41855 194.57079 195.01005 193.41304 C 194.48757 191.28654 194.00065 191.19797 190.4185 191.74586 C 188.19158 192.07595 185.95788 192.01787 185.2718 191.64155 C 184.58571 191.26523 183.73822 187.20295 183.26026 182.0664 C 182.5374 174.02193 182.6192 173.14684 184.2537 172.24465 C 185.8882 171.34246 204.88507 169.65184 219.24247 169.11001 C 221.958 168.96554 224.5714 168.53163 224.9528 168.13668 C 225.3342 167.74173 226.68774 167.42688 228.04636 167.40317 C 230.3754 167.36251 230.3788 167.5566 229.88123 172.41895 Z" fill="#f3f3f3"/>
        </g>
        <g id="Graphic_94">
          <path d="M 93.22832 173.93058 C 95.18953 175.06123 98.12794 176.5631 99.59546 177.217 C 102.43175 178.42945 102.76014 180.55934 100.14843 181.0903 C 98.69786 181.40683 87.32051 174.71321 86.12211 172.79266 C 85.02413 171.0645 89.5017 171.76294 93.22832 173.93058 Z" fill="#f3f3f3"/>
        </g>
        <g id="Graphic_93">
          <path d="M 176.70292 173.44426 C 177.29366 173.91931 177.9115 175.94707 177.94537 177.88795 C 177.97925 179.82882 178.52206 183.11984 179.04454 185.24633 C 180.0912 189.59637 179.74707 192.12628 177.81805 192.83947 C 176.08312 193.54926 168.19209 191.93968 167.49076 190.68997 C 166.69578 189.63604 166.02472 173.4365 166.6854 172.35716 C 167.25072 171.37656 175.03116 172.21149 176.70292 173.44426 Z" fill="#f3f3f3"/>
        </g>
        <g id="Graphic_92">
          <path d="M 114.9199 176.46415 C 115.80516 177.12821 116.92007 179.8268 117.35906 182.73134 C 118.02094 187.28224 117.93236 187.76915 116.18557 187.79964 C 115.21514 187.81658 112.97466 187.37032 111.21771 186.81855 C 107.40929 185.526 106.86478 182.13794 110.55244 182.07357 C 113.26967 182.02614 113.71932 179.97975 111.45513 178.17488 C 108.20694 175.6106 111.57638 173.9986 114.9199 176.46415 Z" fill="#f3f3f3"/>
        </g>
        <g id="Graphic_91">
          <path d="M 101.45186 189.02755 C 101.47049 190.09504 101.09756 190.9752 100.5153 190.98537 C 100.03008 190.99384 99.54147 190.80822 99.53808 190.61413 C 99.5347 190.42005 99.22832 189.55173 98.92194 188.68342 C 98.51513 187.62271 98.7978 187.13241 99.86528 187.11378 C 100.73867 187.09854 101.43153 187.86303 101.45186 189.02755 Z" fill="#f3f3f3"/>
        </g>
        <g id="Graphic_90">
          <path d="M 115.38332 191.89073 C 117.43988 192.92264 117.69495 196.41283 115.66888 197.1277 C 112.10367 198.64604 106.09761 193.80013 107.79358 190.85833 C 108.3589 189.87772 112.25082 190.39223 115.38332 191.89073 Z" fill="#f3f3f3"/>
        </g>
        <g id="Graphic_89">
          <path d="M 255.85312 192.15687 C 255.89886 194.77705 254.06857 195.5856 252.19425 193.87098 C 251.0077 192.62974 250.9005 192.04917 251.8506 190.8677 C 253.37113 188.99677 255.81247 189.82782 255.85312 192.15687 Z" fill="#f3f3f3"/>
        </g>
        <g id="Graphic_88">
          <path d="M 99.03882 195.37944 C 100.31733 196.32786 100.93008 198.06448 101.08472 201.36228 C 101.2546 205.53347 100.97194 206.02377 99.13319 206.34708 C 97.87501 206.5632 95.62945 205.8258 93.95938 204.69007 C 90.91376 202.60762 89.87895 198.9369 92.40209 198.89285 C 93.27548 198.8776 93.8425 197.99405 93.8154 196.44135 C 93.76627 193.62708 95.9915 193.19995 99.03882 195.37944 Z" fill="#f3f3f3"/>
        </g>
        <g id="Graphic_87">
          <path d="M 128.58418 197.38763 C 128.89902 198.74116 128.34047 200.10994 127.28654 200.90492 C 125.84952 201.99781 125.26556 201.91093 123.78619 200.57773 C 121.71778 198.86651 121.3572 194.8928 123.18918 194.1813 C 125.31059 193.3677 128.25239 195.06366 128.58418 197.38763 Z" fill="#f3f3f3"/>
        </g>
        <g id="Graphic_86">
          <path d="M 227.75107 194.97716 C 227.76463 195.7535 227.10395 196.83284 226.33946 197.5257 C 223.6612 199.80514 220.48126 195.58942 223.0557 192.9235 C 224.3906 191.54117 227.7172 193.03628 227.75107 194.97716 Z" fill="#f3f3f3"/>
        </g>
        <g id="Graphic_85">
          <path d="M 247.64675 194.72695 C 247.67554 196.3767 246.71188 196.7818 241.0969 197.6564 C 233.83555 198.75388 231.97986 198.10676 233.0834 194.59286 C 233.63179 192.64182 234.3077 192.43587 240.62063 192.6169 C 246.83652 192.79962 247.61626 192.98016 247.64675 194.72695 Z" fill="#f3f3f3"/>
        </g>
        <g id="Graphic_84">
          <path d="M 161.56551 196.03536 C 163.34787 198.04278 161.95659 201.75586 159.52372 201.41003 C 157.48071 201.15447 156.37089 198.747 157.29728 196.20693 C 157.9461 194.44829 160.1781 194.40933 161.56551 196.03536 Z" fill="#f3f3f3"/>
        </g>
        <g id="Graphic_83">
          <path d="M 191.68974 197.8393 C 192.0266 200.4544 191.6486 201.04343 189.62084 201.66127 C 186.23786 202.4969 185.0564 201.5468 185.6815 198.42954 C 186.58587 194.6279 186.96727 194.23294 189.20436 194.4851 C 190.8575 194.6504 191.455 195.51363 191.68974 197.8393 Z" fill="#f3f3f3"/>
        </g>
        <g id="Graphic_82">
          <path d="M 181.20563 197.82815 C 182.69347 199.64657 181.68188 202.86765 179.26934 203.68635 C 174.15482 205.42587 164.76916 201.6097 165.97314 198.28818 C 166.80757 196.04093 179.32283 195.62833 181.20563 197.82815 Z" fill="#f3f3f3"/>
        </g>
        <g id="Graphic_81">
          <path d="M 116.2388 201.97142 C 117.52408 203.30802 117.52916 203.59915 115.61539 205.18573 L 113.51092 206.96978 L 115.68315 209.06748 C 117.46042 210.78378 117.66468 211.36265 116.62599 213.03103 C 115.68435 214.6977 115.79494 215.47237 117.09208 217.48827 C 118.38584 219.31008 118.49813 220.18178 117.63998 221.07042 C 116.78183 221.95906 115.3194 221.5963 111.2046 219.43543 C 105.52355 216.52532 103.81621 213.25462 107.98909 213.18179 C 110.02532 213.04917 110.02532 213.04917 107.46491 210.95825 C 104.21673 208.39396 103.99554 206.84465 106.70091 206.11792 C 108.24684 205.70264 108.52611 205.01825 108.01548 203.57106 C 107.70403 202.41162 107.68031 201.053 108.05832 200.46397 C 108.908 199.0901 114.26404 200.06443 116.2388 201.97142 Z" fill="#f3f3f3"/>
        </g>
        <g id="Graphic_80">
          <path d="M 88.40078 203.23393 C 90.56454 204.8464 90.60181 206.98137 88.55542 206.53172 C 86.41368 206.1808 83.42783 201.9617 85.27166 201.92952 C 86.04801 201.91597 87.41848 202.57156 88.40078 203.23393 Z" fill="#f3f3f3"/>
        </g>
        <g id="Graphic_79">
          <path d="M 85.77164 208.32763 C 88.5329 210.80334 92.2663 213.35915 94.12369 214.10332 C 95.98276 214.94453 97.84523 215.97983 98.24526 216.65236 C 101.33493 221.25795 95.12582 221.4634 89.0278 216.91032 C 86.56952 215.10884 84.31041 213.5951 84.01928 213.60018 C 82.75771 213.6222 83.57471 215.9377 85.24478 217.07343 C 86.81781 218.21085 86.72246 218.3096 84.78328 218.4405 C 83.52171 218.46253 82.56143 219.06174 82.57499 219.83809 C 82.58684 220.5174 81.92786 221.69378 81.16337 222.38663 C 79.92043 223.47614 79.43352 223.38756 78.24189 221.8552 C 76.25867 219.46297 77.04906 214.69258 79.63367 212.60892 C 81.45379 211.21813 81.44871 210.927 80.07146 209.88323 C 77.90431 208.07666 78.02556 203.9004 80.259265 203.95848 C 80.55209 204.05044 83.10911 205.94727 85.77164 208.32763 Z" fill="#f3f3f3"/>
        </g>
        <g id="Graphic_78">
          <path d="M 249.03875 202.1773 C 249.53582 202.84814 250.25578 205.16533 250.48714 207.2969 C 252.03547 218.1421 255.48353 232.15755 260.71734 248.3745 C 262.35812 253.3937 264.01076 259.09217 264.33408 260.93092 C 265.18157 264.9932 267.0283 270.6883 268.02245 272.02998 C 268.4191 272.50842 269.03863 274.63322 269.46407 276.7614 C 270.6264 282.17723 268.1783 280.958 266.32987 275.16587 C 264.89164 270.62852 262.5355 269.11648 261.52052 272.14347 C 260.77635 274.00085 264.8021 282.18182 266.65778 282.82894 C 268.6122 283.5714 268.56936 286.6785 266.64204 287.48874 C 265.77542 287.89216 264.22272 287.91926 263.2472 287.64507 C 261.97886 287.2789 261.40167 287.5802 261.41692 288.4536 C 261.43386 289.42404 262.89968 289.9809 265.9148 290.31656 C 271.84634 290.89253 273.12993 292.1321 270.46352 295.09083 C 268.08147 297.6563 268.58532 298.71533 271.98185 298.65604 C 273.72864 298.62555 274.31937 299.1006 274.04857 300.2702 C 273.8765 301.53517 272.72214 302.13776 270.10535 302.37758 C 265.1629 302.85214 265.9782 305.0706 271.02448 304.9825 C 275.68258 304.9012 276.89453 307.5981 273.04327 309.41265 C 270.4434 310.6229 270.67646 312.85153 273.18097 311.74 C 275.49477 310.82596 278.33107 312.0384 278.36494 313.9793 C 278.38866 315.3379 277.4284 315.9371 274.81667 316.46805 C 272.78383 316.79476 269.50806 318.21096 267.5909 319.60345 C 265.67374 320.99595 263.36332 322.1041 262.48992 322.11933 C 261.71357 322.13288 260.755 322.82912 260.4774 323.61056 C 259.73664 325.66203 249.1482 330.7976 236.3176 335.38985 C 233.52028 336.4094 231.90102 338.185 233.93894 338.14942 C 239.1793 338.05795 258.2737 330.83245 265.9542 325.9418 C 266.7221 325.44302 269.21813 323.84628 271.42642 322.4487 C 273.6347 321.05113 276.81345 319.63662 278.36106 319.3184 C 280.9711 318.6904 281.36434 318.97475 282.78055 322.25052 C 284.59848 326.29587 284.9794 331.4341 283.52373 331.4595 C 281.77694 331.49 281.10102 331.69595 279.17878 332.7973 C 278.12316 333.49525 275.31736 334.0296 272.89126 334.07194 C 268.71838 334.14478 268.52598 334.2452 268.5734 336.96244 C 268.61745 339.48557 268.04366 339.98096 259.95127 343.51978 C 255.2317 345.6407 249.35268 348.07308 246.94014 348.89178 C 244.5276 349.71047 240.66955 351.13684 238.35575 352.0509 C 233.82518 353.8773 214.45877 356.64217 213.4714 355.68867 C 211.99033 354.25842 215.45003 352.25657 221.73755 350.98194 C 231.89327 348.8632 231.38433 347.51306 220.91715 348.47235 C 212.6803 349.29564 212.09633 349.20876 210.99667 347.38356 C 209.69275 344.9795 210.65472 344.47733 220.32352 342.27 C 226.99583 340.79452 230.842 338.68885 228.30532 337.95654 C 227.5239 337.67896 226.05976 337.21915 225.08424 336.94496 C 223.8159 336.5788 223.41078 335.61514 223.5727 333.7679 C 223.81808 331.14266 224.10752 331.04053 230.11238 330.2562 C 239.02516 329.22697 248.59184 326.73022 253.2093 324.31986 C 255.32393 323.11807 257.73478 322.20233 258.60817 322.1871 C 260.54905 322.1532 260.49993 319.33893 258.44845 318.59816 C 257.66702 318.32058 256.02914 319.02868 254.7879 320.21523 C 253.642 321.30303 251.8151 322.30566 250.74763 322.3243 C 249.68014 322.34292 246.88112 323.26544 244.5724 324.4706 C 242.26367 325.6758 237.72463 327.017 234.43361 327.5598 C 231.1426 328.1026 227.85327 328.74246 227.082 329.04714 C 226.31073 329.35183 224.8483 328.98906 223.866 328.3267 C 222.0972 327.0956 222.08703 326.51335 223.0974 317.66204 C 224.026 309.6858 224.48242 308.0276 226.40127 306.73215 C 227.6493 305.93378 229.19013 305.22737 229.96648 305.21382 C 230.6458 305.20196 231.99424 304.596 232.95282 303.89974 C 234.4852 302.7081 234.66234 301.7343 233.99877 297.08635 C 233.2246 291.66375 233.12587 291.5684 230.1226 291.91205 L 227.02058 292.16034 L 226.9313 281.48383 C 226.79507 262.5569 229.14717 213.78502 230.394 207.35641 C 230.75506 205.79694 231.6183 205.19943 233.55917 205.16555 C 235.01483 205.14014 236.75314 204.62443 237.32524 204.032 C 238.27874 203.04463 243.01017 201.60302 246.88515 201.14708 C 247.4674 201.13692 248.44632 201.6052 249.03875 202.1773 Z" fill="#f3f3f3"/>
        </g>
        <g id="Graphic_77">
          <path d="M 288.11302 205.08697 C 288.15368 207.41602 287.09975 208.211 285.43306 207.26936 C 283.86342 206.32603 284.8784 203.29904 286.72223 203.26685 C 287.49858 203.2533 288.0961 204.11653 288.11302 205.08697 Z" fill="#f3f3f3"/>
        </g>
        <g id="Graphic_76">
          <path d="M 97.44061 209.48298 C 97.74021 209.96311 97.3605 210.4551 96.48711 210.47035 C 95.61371 210.4856 95.21707 210.00715 95.49973 209.51685 C 95.7807 208.9295 96.25914 208.53287 96.45323 208.52948 C 96.64732 208.5261 97.13931 208.9058 97.44061 209.48298 Z" fill="#f3f3f3"/>
        </g>
        <g id="Graphic_75">
          <path d="M 181.49408 208.7924 C 182.18525 209.45985 182.9115 217.6984 182.70167 222.3616 C 182.6385 224.30417 182.25371 224.50503 178.84702 223.98205 C 175.6361 223.55273 174.86314 223.76037 173.5384 225.72496 C 171.45765 228.86763 171.70933 232.16373 174.15744 233.38295 C 176.99881 234.88653 180.7632 233.65594 181.97395 230.7226 C 183.65467 226.9074 185.0404 228.4364 185.93193 235.02182 C 186.3777 238.31453 187.12984 242.47556 187.7409 244.11514 C 188.2566 245.85346 189.31513 250.8828 189.87996 255.4354 C 192.08847 270.73443 194.1305 282.05637 195.2454 284.75496 C 196.86586 288.6096 196.73445 292.20362 194.98766 292.2341 C 193.24087 292.2646 192.01995 294.61567 191.23634 299.77424 C 190.36753 305.6138 191.2748 307.53943 195.3625 308.1476 C 199.55063 308.94815 200.25873 310.58604 201.81723 322.0135 C 202.82444 329.6647 202.74264 330.5398 201.12508 332.41242 C 199.50413 334.09096 199.5126 334.5762 200.69576 335.62334 C 203.45703 338.09905 202.4285 340.3497 198.07678 341.2993 C 191.11334 342.7799 174.12052 342.49405 167.19992 340.86753 C 155.50046 337.9654 148.66335 335.56083 148.74176 334.49166 C 148.7299 333.81235 149.23086 329.1441 149.72504 324.08765 L 150.82569 314.84646 L 155.18419 314.28502 C 160.50974 313.51255 165.12041 310.714 164.3068 308.5926 C 164.00211 307.82133 163.68896 306.56485 163.6771 305.88554 C 163.63137 303.26536 160.7866 301.5677 157.59602 302.3029 L 154.59783 302.93767 L 155.0891 292.15395 C 155.27691 286.2292 155.94655 280.1019 156.40805 278.7348 C 156.9649 277.269 157.72989 271.04294 158.1067 264.82367 C 160.31116 229.83878 162.63152 212.6163 165.29285 209.36642 C 167.19815 207.29462 167.77703 207.09037 174.09504 207.56253 C 177.78948 207.88633 181.19617 208.4093 181.49408 208.7924 Z" fill="#f3f3f3"/>
        </g>
        <g id="Graphic_74">
          <path d="M 113.97603 222.4934 C 119.61812 223.1715 121.86319 229.44208 116.52578 229.53525 C 113.32164 229.4941 104.59666 224.59858 104.17122 222.4704 C 103.85468 221.01982 104.23947 220.81896 107.0639 221.3521 C 108.81746 221.70978 111.93303 222.23784 113.97603 222.4934 Z" fill="#f3f3f3"/>
        </g>
        <g id="Graphic_73">
          <path d="M 95.15631 223.2102 C 98.67191 224.41078 98.77403 224.70022 96.58607 227.26232 C 95.3499 228.74 95.16598 229.32565 96.1415 229.59984 C 97.60732 230.1567 97.76704 233.74562 96.31138 233.77103 C 94.75868 233.79813 86.7965 228.1127 86.18714 226.57017 C 85.88076 225.70186 86.35751 225.20817 87.52203 225.18784 C 88.58952 225.1692 89.93627 224.4662 90.60203 223.67798 C 91.26778 222.88977 91.83988 222.29735 91.93523 222.1986 C 92.03227 222.19692 93.39936 222.65842 95.15631 223.2102 Z" fill="#f3f3f3"/>
        </g>
        <g id="Graphic_72">
          <path d="M 288.41962 222.6519 C 288.43825 223.71938 288.06532 224.59955 287.48306 224.6097 C 286.99784 224.61818 286.50924 224.43256 286.50585 224.23847 C 286.50246 224.0444 286.1961 223.17607 285.8897 222.30776 C 285.4829 221.24706 285.76556 220.75676 286.83304 220.73812 C 287.70644 220.72288 288.3993 221.48737 288.41962 222.6519 Z" fill="#f3f3f3"/>
        </g>
        <g id="Graphic_71">
          <path d="M 107.79184 229.6877 C 109.55726 230.7247 111.70747 231.56082 112.48382 231.54727 C 114.32765 231.51508 119.72943 235.10958 119.75145 236.37115 C 119.77347 237.63272 117.34399 237.48098 112.17017 235.82397 C 106.80228 234.17035 101.68994 230.47372 102.53623 228.90578 C 103.48126 227.43318 104.06521 227.52006 107.79184 229.6877 Z" fill="#f3f3f3"/>
        </g>
        <g id="Graphic_70">
          <path d="M 88.03386 232.26526 C 90.88709 234.44815 90.92775 236.7772 88.21052 236.82463 C 86.56078 236.85342 82.59602 232.16604 83.35205 230.98796 C 84.10468 229.6158 84.88611 229.89337 88.03386 232.26526 Z" fill="#f3f3f3"/>
        </g>
        <g id="Graphic_69">
          <path d="M 106.62682 235.24122 C 107.51546 236.09937 110.94079 237.68982 114.2606 238.79676 C 118.75342 240.36858 120.4218 241.40727 120.64298 242.95658 C 120.96122 244.5042 120.48447 244.9979 119.02881 245.0233 C 116.40863 245.06903 116.51753 245.74664 119.27372 247.93122 C 122.52359 250.59255 120.51447 252.27787 115.54152 251.00564 C 110.76266 249.73003 102.23854 245.2193 101.62918 243.67676 C 100.90922 241.35957 104.3994 241.1045 108.41547 243.17 C 112.62731 245.32918 115.06018 245.675 115.03308 244.1223 C 115.02291 243.54004 114.14274 243.16711 112.97822 243.18744 C 110.55212 243.2298 102.30559 237.93763 102.2751 236.19084 C 102.22597 233.37657 104.25712 232.95282 106.62682 235.24122 Z" fill="#f3f3f3"/>
        </g>
        <g id="Graphic_68">
          <path d="M 89.07157 241.66327 C 91.81251 242.97445 92.72994 245.48234 90.40089 245.523 C 88.46002 245.55688 83.8312 241.75474 84.49188 240.6754 C 84.77454 240.1851 85.25467 239.8855 85.64624 240.0728 C 86.0378 240.26012 87.50531 240.91402 89.07157 241.66327 Z" fill="#f3f3f3"/>
        </g>
        <g id="Graphic_67">
          <path d="M 80.068515 243.08237 C 80.09392 244.53803 84.14048 248.35033 88.25866 250.70528 C 91.20216 252.4983 91.83185 255.20536 89.30871 255.2494 C 88.43532 255.26464 86.67159 254.3247 85.3897 253.1822 C 84.1078 252.0397 82.93142 251.3807 82.64537 251.67692 C 81.59482 252.666 83.28353 254.8692 87.11736 257.6174 C 89.18238 259.13454 91.25418 261.03984 91.55717 261.71407 C 92.57673 264.5114 90.93545 265.0254 87.50335 263.04678 C 85.54384 262.01318 83.88055 261.26562 83.68985 261.4631 C 82.8317 262.35174 84.62253 264.8444 86.37778 265.2991 C 88.717 265.84072 88.86655 268.8474 86.63455 268.88635 C 85.66241 268.80624 83.21091 267.39293 81.04376 265.58637 C 77.39724 262.4466 77.29512 262.15716 78.41052 259.32256 C 79.342 257.0736 79.32337 256.00613 78.43473 255.14798 C 77.8423 254.57588 77.30118 251.3819 77.2419 247.98538 C 77.158895 243.23023 77.42631 241.86654 78.59084 241.8462 C 79.36719 241.83266 80.05666 242.40306 80.068515 243.08237 Z" fill="#f3f3f3"/>
        </g>
        <g id="Graphic_66">
          <path d="M 287.83878 244.9889 C 287.84725 245.47413 287.46755 245.96612 286.88528 245.97628 C 286.40006 245.98475 285.90638 245.508 285.8979 245.02279 C 285.88774 244.44052 286.3662 244.04388 286.8514 244.0354 C 287.43367 244.02524 287.82862 244.40664 287.83878 244.9889 Z" fill="#f3f3f3"/>
        </g>
        <g id="Graphic_65">
          <path d="M 111.60338 253.40414 C 118.1646 256.68718 121.10979 258.57724 121.13012 259.74177 C 121.14706 260.7122 120.67539 261.49703 120.19017 261.5055 C 118.15225 261.54107 106.04598 257.57823 104.57 256.4391 C 103.78348 255.8704 102.31258 255.0224 101.33706 254.74822 C 98.99277 253.91548 98.17407 251.50294 99.59923 249.73074 C 100.26499 248.94253 101.03118 248.34672 101.42274 248.53403 C 101.71556 248.626 106.31728 250.87543 111.60338 253.40414 Z" fill="#f3f3f3"/>
        </g>
        <g id="Graphic_64">
          <path d="M 104.05549 260.33103 C 105.826 261.65915 110.8108 263.61068 115.0057 264.7994 C 121.34404 266.4361 122.7162 267.18873 122.7433 268.74143 C 122.81276 272.72023 116.28372 271.28102 109.29706 265.8698 C 107.72234 264.63532 106.05565 263.69368 105.47339 263.70384 C 103.7266 263.73433 98.80496 259.84023 99.27324 258.86133 C 100.12462 257.5845 100.51448 257.67478 104.05549 260.33103 Z" fill="#f3f3f3"/>
        </g>
        <g id="Graphic_63">
          <path d="M 113.68048 272.2972 C 116.1252 273.32233 118.76063 274.15 119.63403 274.13474 C 121.86603 274.09578 124.93876 277.73093 123.69921 279.01452 C 122.45966 280.2981 115.43016 277.99398 104.85796 272.93656 C 99.08156 270.12518 97.99883 269.27042 97.96157 267.13546 L 97.91922 264.70936 L 103.59858 267.52243 C 106.63573 269.11966 111.23406 271.175 113.68048 272.2972 Z" fill="#f3f3f3"/>
        </g>
        <g id="Graphic_62">
          <path d="M 82.57854 275.6552 C 82.59548 276.62564 84.18375 278.63646 86.15004 280.05824 C 88.3138 281.67072 89.30795 283.0124 88.73585 283.60482 C 87.40095 284.98715 83.3832 282.8246 80.794 279.08392 C 78.90274 276.39888 78.6934 275.52887 79.64351 274.3474 C 81.06868 272.5752 82.5362 273.2291 82.57854 275.6552 Z" fill="#f3f3f3"/>
        </g>
        <g id="Graphic_61">
          <path d="M 115.67507 280.9019 C 120.75861 282.9488 125.0658 285.0092 125.27005 285.5881 C 126.08875 288.00064 122.39092 287.48274 113.20275 283.85726 C 102.74453 279.76858 101.07784 278.82694 101.04227 276.78902 C 101.01517 275.23632 103.06325 275.783 115.67507 280.9019 Z" fill="#f3f3f3"/>
        </g>
        <g id="Graphic_60">
          <path d="M 283.19686 273.80365 C 284.01047 275.92506 280.94573 278.3083 277.7365 277.97604 C 276.08337 277.81075 275.29516 277.145 275.27145 275.78638 C 275.24096 274.0396 276.7801 273.23614 281.81284 272.3717 C 282.201 272.36493 282.79344 272.93703 283.19686 273.80365 Z" fill="#f3f3f3"/>
        </g>
        <g id="Graphic_59">
          <path d="M 103.17336 282.09086 C 105.05615 284.29068 111.4199 287.38302 119.22913 289.8677 C 127.52528 292.44093 129.4013 294.2526 125.84456 296.25613 C 124.4978 296.95915 121.96111 296.22685 114.81424 292.75988 C 98.07238 284.60673 95.32467 282.90737 95.28571 280.67536 C 95.25013 278.63744 101.09309 279.70033 103.17336 282.09086 Z" fill="#f3f3f3"/>
        </g>
        <g id="Graphic_58">
          <path d="M 286.5416 281.89943 C 286.5653 283.25804 282.32248 284.88527 278.73186 284.94795 C 275.14124 285.01062 275.0188 283.55666 278.5874 282.2324 C 282.05725 280.81282 286.51957 280.63786 286.5416 281.89943 Z" fill="#f3f3f3"/>
        </g>
        <g id="Graphic_57">
          <path d="M 99.00676 288.08506 C 101.1756 289.98867 110.57989 294.87233 115.26848 296.5378 C 118.5883 297.64475 118.54376 300.6548 115.1557 301.1993 C 111.38115 301.84763 108.54656 300.73223 103.62322 296.74108 C 101.06113 294.5531 97.91168 292.08418 96.72852 291.03703 C 94.26855 289.1385 93.63547 286.23735 95.67339 286.20178 C 96.3527 286.18992 97.92064 287.0362 99.00676 288.08506 Z" fill="#f3f3f3"/>
        </g>
        <g id="Graphic_56">
          <path d="M 84.23867 292.9053 C 87.79662 296.53197 88.8094 298.94112 86.67444 298.9784 C 86.09218 298.98855 84.72171 298.33296 83.73433 297.37946 C 80.67854 294.71475 80.80946 296.65393 84.10338 301.8384 C 85.8976 304.52513 87.00912 307.02964 86.72307 307.32585 C 86.43702 307.62206 84.37539 306.29902 82.20316 304.20133 C 78.55156 300.77042 78.251955 300.2903 78.563905 295.91654 C 78.7822 291.73857 79.517895 289.39597 80.39129 289.38073 C 80.58538 289.37734 82.36096 290.9966 84.23867 292.9053 Z" fill="#f3f3f3"/>
        </g>
        <g id="Graphic_55">
          <path d="M 287.3344 288.3895 C 287.6357 288.9667 286.39613 290.25027 284.76164 291.15246 C 279.1839 294.16202 274.18556 291.43414 279.5692 288.42797 C 282.6441 286.62698 286.72164 286.65288 287.3344 288.3895 Z" fill="#f3f3f3"/>
        </g>
        <g id="Graphic_54">
          <path d="M 98.77273 296.92282 C 99.94911 297.5818 102.10948 299.0002 103.48842 300.141 C 105.65388 301.85052 112.01254 304.65173 121.48846 308.07805 C 127.64288 310.30038 128.81926 310.95936 128.84297 312.31797 C 128.87346 314.06476 126.73342 313.8109 117.65245 310.766 C 111.69551 308.73435 101.41952 303.96298 100.52411 302.71665 C 100.2262 302.33356 98.55443 301.1008 96.88267 299.868 C 95.11555 298.73398 93.63449 297.30373 93.62602 296.8185 C 93.60569 295.654 96.22757 295.7053 98.77273 296.92282 Z" fill="#f3f3f3"/>
        </g>
        <g id="Graphic_53">
          <path d="M 288.2344 295.46015 C 288.8336 296.42042 283.36986 300.39873 281.33194 300.4343 C 279.4881 300.4665 279.71487 296.77374 281.73415 295.6707 C 283.8471 294.37185 287.43602 294.21213 288.2344 295.46015 Z" fill="#f3f3f3"/>
        </g>
        <g id="Graphic_52">
          <path d="M 199.90203 301.27322 C 199.5291 302.1534 198.57052 302.84964 197.69374 302.6708 C 195.74609 302.3165 195.00919 299.02887 196.73734 297.9309 C 198.4655 296.83292 200.64112 299.1247 199.90203 301.27322 Z" fill="#f3f3f3"/>
        </g>
        <g id="Graphic_51">
          <path d="M 218.50226 299.10416 C 218.90398 299.87374 218.83743 301.62222 218.56832 302.88887 C 218.11698 304.8382 217.25205 305.33868 213.18638 305.9921 C 207.66843 306.865 205.4161 305.73942 205.35342 302.1488 C 205.32293 300.402 206.08573 299.6121 208.49997 298.89046 C 213.4238 297.3484 217.8912 297.46458 218.50226 299.10416 Z" fill="#f3f3f3"/>
        </g>
        <g id="Graphic_50">
          <path d="M 229.94157 298.22497 C 230.24117 298.7051 229.58557 300.07558 228.44138 301.26043 C 226.72847 303.2318 226.34198 303.33562 224.96135 302.09776 C 224.16975 301.23792 223.75786 299.8861 224.03545 299.10465 C 224.68596 297.44305 229.04446 296.8816 229.94157 298.22497 Z" fill="#f3f3f3"/>
        </g>
        <g id="Graphic_49">
          <path d="M 129.16727 303.09034 C 129.21809 306.00166 125.8385 307.03138 123.85527 304.63916 C 122.8645 303.49158 122.85434 302.9093 123.80445 301.72785 C 125.70298 299.26788 129.11645 300.17903 129.16727 303.09034 Z" fill="#f3f3f3"/>
        </g>
        <g id="Graphic_48">
          <path d="M 99.58416 304.48038 C 102.71836 306.0759 107.2298 308.71522 109.68808 310.5167 C 112.04762 312.22284 116.74468 314.37354 120.2552 315.283 C 126.59523 317.01673 127.96909 317.8664 128.01821 320.68068 C 128.08089 324.2713 124.08346 323.27327 110.95593 316.41605 C 103.21664 312.377 97.74153 310.1428 97.16943 310.73522 C 96.11889 311.7243 99.77218 315.25224 101.8101 315.21667 C 102.78054 315.19973 105.71387 316.41048 108.26581 318.0162 C 110.81605 319.52484 113.26586 320.8411 113.65404 320.83433 C 114.13925 320.82586 116.3865 321.6603 118.5401 322.6905 C 120.79074 323.71903 123.52321 324.545 124.68774 324.52467 C 127.30792 324.47894 130.47092 327.72422 129.82718 329.774 C 129.08302 331.6314 126.36579 331.6788 123.81216 329.97606 C 122.73282 329.3154 119.30919 327.82198 116.08641 326.71335 C 112.96069 325.60303 108.45771 323.44894 106.1986 321.9352 C 103.84076 320.3261 101.58673 319.1035 101.10151 319.11197 C 100.61629 319.12044 98.25336 317.2202 95.88196 314.83478 C 92.42445 311.4005 91.82355 310.34317 92.77536 309.25875 C 93.62842 308.07898 93.52122 307.4984 92.33637 306.3542 C 90.36161 304.4472 90.41292 301.82534 92.3538 301.79146 C 93.22719 301.7762 96.5487 302.9802 99.58416 304.48038 Z" fill="#f3f3f3"/>
        </g>
        <g id="Graphic_47">
          <path d="M 142.39233 304.41267 C 144.72985 304.85724 145.22523 305.43103 145.05994 307.08416 C 144.89465 308.7373 144.22042 309.0403 141.98503 308.88516 C 137.90072 308.4711 133.58845 306.11952 133.55796 304.37273 C 133.53594 303.11116 134.21185 302.9052 136.45233 303.35148 C 138.10716 303.6138 140.7375 304.15034 142.39233 304.41267 Z" fill="#f3f3f3"/>
        </g>
        <g id="Graphic_46">
          <path d="M 289.3234 302.23627 C 289.72174 302.81176 288.66104 303.21857 286.72016 303.25245 C 284.29407 303.2948 283.9008 303.01044 284.95643 302.3125 C 286.77825 301.01875 288.52503 300.98826 289.3234 302.23627 Z" fill="#f3f3f3"/>
        </g>
        <g id="Graphic_45">
          <path d="M 157.2739 306.09438 C 158.15238 306.37027 158.85202 307.52294 158.86896 308.49337 C 158.89436 309.94903 158.22183 310.34906 155.60165 310.3948 C 151.81694 310.46086 150.43461 309.12596 152.04879 307.05925 C 153.28325 305.48452 154.83087 305.1663 157.2739 306.09438 Z" fill="#f3f3f3"/>
        </g>
        <g id="Graphic_44">
          <path d="M 86.52341 312.5713 C 88.50155 314.6724 92.04256 317.32863 94.2932 318.35715 C 96.54553 319.4827 103.21057 323.15224 108.99544 326.44883 C 114.87905 329.84077 121.34492 333.22255 123.49513 334.05868 C 125.5466 334.79946 127.31541 336.03054 127.32896 336.8069 C 127.35776 338.45663 123.47431 338.42734 121.11477 336.7212 C 118.45902 334.72902 116.32744 334.96038 114.91244 337.31484 C 113.02577 340.4541 108.74398 339.84934 99.82491 334.9572 C 86.29905 327.5245 75.56375 318.68407 75.49938 314.9964 C 75.472275 313.4437 76.04268 312.75424 77.30425 312.7322 C 78.37173 312.7136 79.52101 311.81986 79.79351 310.7473 C 80.61609 307.82074 82.46839 308.27378 86.52341 312.5713 Z" fill="#f3f3f3"/>
        </g>
        <g id="Graphic_43">
          <path d="M 219.19533 316.56527 C 219.93174 325.3861 219.13408 335.3015 217.51313 336.98004 C 215.60614 338.9548 210.75903 339.3306 209.85514 337.59907 C 208.7521 335.5798 205.2842 314.86662 205.7423 313.30545 C 206.29578 311.64554 212.08283 309.506 215.67684 309.6374 C 218.59154 309.78067 218.59323 309.8777 219.19533 316.56527 Z" fill="#f3f3f3"/>
        </g>
        <g id="Graphic_42">
          <path d="M 287.98632 309.05475 C 287.9948 309.53997 287.51804 310.03366 286.93578 310.04382 C 286.45056 310.0523 286.248 309.57046 286.53066 309.08016 C 286.81163 308.4928 287.29008 308.09617 287.5812 308.0911 C 287.7753 308.0877 287.97616 308.4725 287.98632 309.05475 Z" fill="#f3f3f3"/>
        </g>
        <g id="Graphic_41">
          <path d="M 144.68483 313.40048 C 145.27725 313.97258 145.31113 315.91345 144.86318 318.0569 C 144.51057 320.1016 144.18846 323.89307 144.13885 326.612 C 143.97476 333.89535 143.97476 333.89535 141.16049 333.94448 C 138.15213 333.997 132.07782 330.80252 132.05072 329.2498 C 132.04056 328.66756 133.29027 327.96623 134.93493 327.6463 C 137.15847 327.12212 137.44282 326.72887 136.55419 325.8707 C 135.86302 325.20327 134.5879 324.44894 133.70773 324.076 C 130.77778 323.05934 132.67462 320.50233 136.36228 320.43796 C 138.20611 320.40577 139.6533 319.89515 139.64483 319.40993 C 139.63467 318.82767 139.04563 318.44965 138.36632 318.4615 C 136.23136 318.49878 133.45146 314.9556 134.09858 313.0999 C 134.56009 311.7328 135.52714 311.5218 139.22496 312.03968 C 141.75318 312.28677 144.19114 312.92373 144.68483 313.40048 Z" fill="#f3f3f3"/>
        </g>
        <g id="Graphic_40">
          <path d="M 296.7982 313.3663 C 296.84053 315.7924 293.94566 322.34685 292.50017 322.95452 C 290.6682 323.666 287.87474 319.34647 288.60875 316.90683 C 289.89113 312.51614 296.73212 309.5816 296.7982 313.3663 Z" fill="#f3f3f3"/>
        </g>
        <g id="Graphic_39">
          <path d="M 92.74241 335.1779 C 96.28172 337.7371 100.10031 339.61193 102.43614 339.95945 C 110.3204 341.18085 117.4859 345.7153 115.1975 348.085 C 114.14866 349.1711 100.16976 343.59072 98.87262 341.57482 C 98.47428 340.99933 97.01015 340.53952 95.5545 340.56493 C 92.83727 340.61236 84.5721 334.2527 84.53483 332.11775 C 84.49926 330.07983 86.9423 331.00792 92.74241 335.1779 Z" fill="#f3f3f3"/>
        </g>
        <g id="Graphic_38">
          <path d="M 82.64308 334.9659 C 83.84657 337.1776 83.2931 338.8375 81.25518 338.87306 C 79.50839 338.90355 76.84078 336.23206 76.81029 334.48527 C 76.77302 332.3503 81.4396 332.75422 82.64308 334.9659 Z" fill="#f3f3f3"/>
        </g>
        <g id="Graphic_37">
          <path d="M 147.39451 340.72787 C 149.64515 341.7564 157.53789 343.463 164.93354 344.4988 C 175.73759 346.1546 178.56371 346.7848 178.78152 348.14002 C 179.20696 350.2682 179.69218 350.25974 183.0379 347.28914 C 185.61911 345.0114 186.6832 344.79868 194.4467 344.66316 C 204.1511 344.49377 206.1106 345.52738 204.6375 350.11554 C 203.80816 352.65392 203.42168 352.75774 194.60424 353.68824 C 188.50065 354.3772 184.42312 354.3513 182.37334 353.7076 C 180.71343 353.1541 175.66038 352.85402 171.19806 353.029 C 160.52832 353.50645 144.67292 351.6476 139.3919 349.41 C 134.79527 347.4517 134.66773 345.7066 139.2288 345.627 C 140.97558 345.5965 141.93924 345.1914 141.5409 344.6159 C 141.23961 344.03872 140.35944 343.6658 139.58309 343.67935 C 136.57473 343.73186 133.24137 341.84857 133.79991 340.4798 C 134.81827 337.6469 140.54724 337.74104 147.39451 340.72787 Z" fill="#f3f3f3"/>
        </g>
        <g id="Graphic_36">
          <path d="M 128.42475 343.9712 C 128.43152 344.35936 127.95816 345.04714 127.47802 345.34674 C 126.03761 346.24554 123.57256 344.0559 123.53529 341.9209 C 123.5048 340.17413 123.60015 340.0754 125.9563 341.58744 C 127.33016 342.43712 128.41628 343.48597 128.42475 343.9712 Z" fill="#f3f3f3"/>
        </g>
        <g id="Graphic_35">
          <path d="M 127.08766 350.78966 C 127.11307 352.2453 126.4507 353.2276 125.38661 353.44033 C 123.25842 353.86578 122.14351 351.1672 123.66403 349.29625 C 125.37525 347.22784 127.03854 347.9754 127.08766 350.78966 Z" fill="#f3f3f3"/>
        </g>
        <g id="Graphic_34">
          <path d="M 150.46287 355.2353 C 153.67378 355.66463 164.16637 356.161 173.77879 356.28443 C 183.3912 356.40787 191.6501 356.84615 192.14378 357.3229 C 195.20295 360.1817 167.16407 361.0594 152.94825 358.5895 C 138.82778 356.02085 138.04804 355.8403 137.5391 354.49017 C 137.1323 353.42946 137.90526 353.2218 140.82674 353.75327 C 142.96848 354.10418 147.25026 354.70895 150.46287 355.2353 Z" fill="#f3f3f3"/>
        </g>
        <g id="Graphic_33">
          <path d="M 204.3696 357.01242 C 204.37807 357.49764 203.51654 358.1922 202.55287 358.5973 C 200.23568 359.31727 195.4619 358.3328 196.21793 357.1547 C 196.8769 355.97833 204.34928 355.8479 204.3696 357.01242 Z" fill="#f3f3f3"/>
        </g>
        <g id="Graphic_32">
          <path d="M 219.78383 361.4029 C 219.43292 363.54463 214.2078 364.5095 214.17223 362.47157 C 214.13835 360.5307 215.09693 359.83445 217.71711 359.7887 C 219.4639 359.75823 220.05463 360.2333 219.78383 361.4029 Z" fill="#f3f3f3"/>
        </g>
        <g id="Graphic_31">
          <path d="M 252.3369 101.94002 C 252.34538 102.42524 252.83907 102.90199 253.3243 102.89352 C 253.90655 102.88336 254.28626 102.39136 254.2778 101.90615 C 254.26762 101.32388 253.87267 100.94248 253.2904 100.95265 C 252.8052 100.96112 252.32675 101.35776 252.3369 101.94002 Z" fill="black"/>
        </g>
        <g id="Graphic_30">
          <path d="M 276.03396 124.824 C 276.04243 125.30922 276.53612 125.78596 277.02134 125.7775 C 277.6036 125.76733 277.9833 125.27534 277.97484 124.79012 C 277.96467 124.20786 277.56972 123.82646 276.98746 123.83662 C 276.50224 123.84509 276.0238 124.24173 276.03396 124.824 Z" fill="black"/>
        </g>
        <g id="Graphic_29">
          <path d="M 183.17852 144.01507 C 183.18699 144.50029 183.6756 144.68591 184.15573 144.3863 C 184.7329 144.08501 185.11262 143.59302 185.10753 143.30189 C 185.10415 143.1078 184.71258 142.92049 184.13032 142.93065 C 183.6451 142.93912 183.16835 143.43281 183.17852 144.01507 Z" fill="black"/>
        </g>
        <g id="Graphic_28">
          <path d="M 274.35586 156.59628 C 272.3264 157.11707 268.88196 159.99232 268.8989 160.96276 C 268.91922 162.12728 276.5264 158.59693 276.9879 157.22985 C 277.54645 155.86107 277.35067 155.76741 274.35586 156.59628 Z" fill="black"/>
        </g>
        <g id="Graphic_27">
          <path d="M 277.77868 224.7791 C 277.0108 225.27787 276.73153 225.96226 277.12648 226.34366 C 277.52143 226.72506 278.39144 226.51573 278.96353 225.9233 C 280.39378 224.44223 279.6022 223.5824 277.77868 224.7791 Z" fill="black"/>
        </g>
        <g id="Graphic_26">
          <path d="M 199.0343 218.19357 C 199.08343 221.00784 201.66247 224.16625 203.79743 224.12898 C 205.44718 224.10019 207.8941 219.68917 207.28134 217.95255 C 206.67367 216.50706 203.83907 215.39165 200.73367 215.44586 C 199.4721 215.46788 199.00043 216.2527 199.0343 218.19357 Z" fill="black"/>
        </g>
        <g id="Graphic_25">
          <path d="M 196.81487 230.07526 C 191.99487 232.0038 191.2553 239.6855 195.7464 241.16028 C 197.99197 241.89767 198.86197 241.68834 200.86601 239.7119 C 205.2572 235.46108 202.01967 227.94587 196.81487 230.07526 Z" fill="black"/>
        </g>
        <g id="Graphic_24">
          <path d="M 201.42189 249.31245 C 198.37238 252.5691 198.00962 254.03153 200.09497 256.71318 C 201.38703 258.43795 201.7769 258.52822 205.24845 257.20567 C 209.39423 255.58013 210.34773 254.59275 210.29353 251.48735 C 210.25965 249.54648 207.0013 246.39993 205.06043 246.4338 C 204.5752 246.44228 202.94748 247.73264 201.42189 249.31245 Z" fill="black"/>
        </g>
        <g id="Graphic_23">
          <path d="M 240.40437 308.13797 C 238.10073 309.6343 237.53202 310.4208 238.50585 310.59795 C 240.35645 310.95394 246.81435 308.3173 247.66233 306.8464 C 248.69932 305.081 243.86068 305.94203 240.40437 308.13797 Z" fill="black"/>
        </g>
        <g id="Graphic_22">
          <path d="M 245.03658 312.1342 C 238.5753 314.57674 237.63196 316.1464 242.29684 316.45325 C 245.6014 316.6868 254.07012 312.4619 254.03793 310.61805 C 254.01422 309.25944 251.4008 309.69335 245.03658 312.1342 Z" fill="black"/>
        </g>
        <g id="Graphic_21">
          <path d="M 249.10854 317.40216 C 246.60234 318.41664 244.19318 319.42942 243.90882 319.82268 C 243.52573 320.1206 240.72162 320.75197 237.52596 321.19605 C 228.80895 322.31894 229.89846 323.56187 238.91167 322.72503 C 244.14695 322.34243 247.91642 321.40297 249.83697 320.20457 C 251.37273 319.20703 253.49414 318.3934 254.46458 318.37648 C 256.3084 318.3443 256.27114 316.20933 254.51758 315.85164 C 254.03067 315.76307 251.61643 316.48472 249.10854 317.40216 Z" fill="black"/>
        </g>
        <g id="Graphic_20">
          <path d="M 246.3482 342.7865 C 245.9702 343.37553 246.85036 343.74846 248.20897 343.72474 C 249.56758 343.70103 250.72364 343.1955 250.71517 342.71026 C 250.705 342.128 249.82484 341.75507 248.8544 341.772 C 247.78692 341.79064 246.62917 342.19914 246.3482 342.7865 Z" fill="black"/>
        </g>
        <g id="Graphic_19">
          <path d="M 235.51995 345.30526 C 230.9877 347.0346 230.61476 347.9148 234.59355 347.84533 C 236.53443 347.81145 238.3698 347.29405 238.65245 346.80375 C 238.93342 346.2164 240.09117 345.8079 241.0616 345.79097 C 242.03205 345.77403 243.1881 345.2685 243.47076 344.7782 C 244.2251 343.50306 239.47334 343.78015 235.51995 345.30526 Z" fill="black"/>
        </g>
        <g id="Graphic_18">
          <path d="M 176.0015 250.04738 C 172.33755 251.47036 171.5336 255.4644 174.48726 257.83968 C 175.66873 258.7898 177.7202 259.53057 178.98177 259.50855 C 181.89308 259.45773 185.13667 256.1977 185.08585 253.28638 C 185.01132 249.01645 181.68981 247.81248 176.0015 250.04738 Z" fill="black"/>
        </g>
        <g id="Graphic_17">
          <path d="M 170.945 288.47962 C 171.6294 288.7589 172.5011 288.6466 172.78714 288.3504 C 173.17024 288.0525 172.5829 287.7715 171.5171 287.8872 C 170.44962 287.90583 170.16357 288.20204 170.945 288.47962 Z" fill="black"/>
        </g>
        <g id="Graphic_16">
          <path d="M 170.87288 295.47016 C 170.59022 295.96046 170.89151 296.53764 171.5759 296.8169 C 173.43159 297.46404 179.0415 296.2983 178.4423 295.33804 C 177.74266 294.18537 171.53186 294.29378 170.87288 295.47016 Z" fill="black"/>
        </g>
        <g id="Graphic_15">
          <path d="M 177.17854 300.7962 C 176.40558 301.00384 173.98795 301.5314 171.85807 301.8598 C 168.27761 302.50474 168.08691 302.70222 169.95277 303.9316 C 171.33001 304.97537 173.37132 305.1339 177.72982 304.57244 C 184.50933 303.6775 184.70173 303.5771 183.0181 301.665 C 181.82987 300.32672 180.46617 300.0593 177.17854 300.7962 Z" fill="black"/>
        </g>
        <g id="Graphic_14">
          <path d="M 168.23887 316.96935 C 167.20188 318.73477 181.95084 318.38025 183.76419 316.60128 C 184.24094 316.1076 181.51693 315.76685 176.76179 315.84985 C 172.39482 315.92607 168.51984 316.382 168.23887 316.96935 Z" fill="black"/>
        </g>
        <g id="Graphic_13">
          <path d="M 168.82403 322.68646 C 168.84097 323.6569 178.66103 324.5533 181.46344 323.82487 C 183.00937 323.4096 183.19668 323.01803 182.21608 322.4527 C 180.5477 321.41402 168.8037 321.52194 168.82403 322.68646 Z" fill="black"/>
        </g>
        <g id="Graphic_12">
          <path d="M 165.43548 328.76416 C 164.5875 330.23506 166.94026 331.55302 170.53088 331.49035 C 174.8008 331.4158 175.2674 330.33986 171.74671 328.84814 C 168.03195 327.3598 166.28516 327.3903 165.43548 328.76416 Z" fill="black"/>
        </g>
        <g id="Graphic_11">
          <path d="M 178.9178 328.14053 C 176.50863 329.1533 177.79222 330.39287 181.09171 330.33527 C 182.93554 330.3031 184.47978 329.79077 184.4713 329.30555 C 184.46114 328.7233 184.0662 328.3419 183.58097 328.35036 C 183.09575 328.35883 182.12193 328.18168 181.3422 328.00114 C 180.6578 327.72187 179.49497 327.83924 178.9178 328.14053 Z" fill="black"/>
        </g>
        <g id="Graphic_10">
          <path d="M 189.30656 328.2504 C 188.15558 329.0471 188.25601 329.2395 190.09985 329.2073 C 191.26437 329.18697 192.22634 328.6848 192.21787 328.1996 C 192.19585 326.93803 191.12837 326.95666 189.30656 328.2504 Z" fill="black"/>
        </g>
        <g id="Graphic_9">
          <path d="M 161.06463 334.1795 C 160.58619 334.57613 160.79552 335.44614 161.39133 336.21233 C 162.87579 337.83666 182.86511 337.39067 189.92051 335.61727 C 194.65533 334.36975 194.46124 334.37313 184.07586 334.45734 C 178.25324 334.55897 170.77409 334.30123 167.56487 333.96895 C 164.35734 333.7337 161.44603 333.78454 161.06463 334.1795 Z" fill="black"/>
        </g>
        <g id="Graphic_8">
          <path d="M 91.92288 227.0525 C 92.32122 227.62798 93.00392 227.8102 93.48405 227.5106 C 94.82742 226.6135 94.52613 226.03632 92.77934 226.0668 C 92.00299 226.08036 91.62328 226.57236 91.92288 227.0525 Z" fill="black"/>
        </g>
        <g id="Graphic_7">
          <path d="M 81.3508 316.54452 C 81.35927 317.02974 81.85296 317.5065 82.43522 317.49632 C 82.92044 317.48785 83.10606 316.99925 82.80646 316.5191 C 82.50516 315.94193 82.01317 315.56222 81.72204 315.5673 C 81.52795 315.5707 81.34064 315.96226 81.3508 316.54452 Z" fill="black"/>
        </g>
        <g id="Graphic_6">
          <path d="M 85.29353 319.97034 C 85.30878 320.84373 88.55188 323.1169 89.62105 323.1953 C 90.20332 323.18513 89.60581 322.3219 88.42265 321.27475 C 86.25211 319.2741 85.2749 318.90286 85.29353 319.97034 Z" fill="black"/>
        </g>
        <g id="Graphic_5">
          <path d="M 145.55019 346.29324 C 147.02956 347.62645 156.47669 349.403 157.7247 348.60464 C 159.45456 347.6037 153.10606 345.38477 148.545 345.4644 C 146.31299 345.50334 144.96115 345.91523 145.55019 346.29324 Z" fill="black"/>
        </g>
        <g id="Graphic_4">
          <path d="M 173.18177 349.888 C 173.19024 350.37323 174.0721 350.8432 175.13959 350.82457 C 176.20707 350.80594 177.072 350.30548 177.06352 349.82026 C 177.05336 349.238 176.1732 348.86506 175.1057 348.8837 C 174.03823 348.90233 173.1716 349.30575 173.18177 349.888 Z" fill="black"/>
        </g>
      </g>
    </g>
  </g>
</svg>
