<?xml version="1.0" encoding="UTF-8" standalone="no"?>
<!DOCTYPE svg PUBLIC "-//W3C//DTD SVG 1.1//EN" "http://www.w3.org/Graphics/SVG/1.1/DTD/svg11.dtd">
<svg xmlns="http://www.w3.org/2000/svg" version="1.1" xmlns:dc="http://purl.org/dc/elements/1.1/" xmlns:xl="http://www.w3.org/1999/xlink" viewBox="36 67.5 292.5 342" width="292.5" height="342">
  <defs>
    <clipPath id="artboard_clip_path">
      <path d="M 36 67.5 L 328.5 67.5 L 328.5 356.8846 L 288 409.5 L 36 409.5 Z"/>
    </clipPath>
  </defs>
  <metadata> Produced by OmniGraffle 7.11.5 
    <dc:date>2021-09-05 03:10:51 +0000</dc:date>
  </metadata>
  <g id="Legs,_Triskelion_of,_Armored_(2)" stroke-dasharray="none" stroke="none" fill="none" fill-opacity="1" stroke-opacity="1">
    <title>Legs, Triskelion of, Armored (2)</title>
    <g id="Legs,_Triskelion_of,_Armored_(2): Art" clip-path="url(#artboard_clip_path)">
      <title>Art</title>
      <g id="Group_53">
        <g id="Graphic_175">
          <path d="M 128.5905 71.58201 C 125.48259 72.37552 121.58117 73.49965 119.8619 74.22704 C 118.14263 74.88829 116.29111 75.48343 115.7621 75.48343 C 114.77022 75.48343 111.00105 77.07044 103.79335 80.50898 C 100.28868 82.16212 93.54386 84.07977 91.22946 84.07977 C 90.43595 84.07977 88.31993 83.35239 86.53453 82.42663 C 82.56699 80.37673 80.97997 80.3106 80.97997 82.096 C 80.97997 82.95563 82.83149 84.87328 86.27003 87.58443 C 90.50208 90.95685 92.68423 92.14711 96.9824 93.53575 C 111.33168 98.0323 111.79456 98.16455 123.30044 98.23068 L 134.21118 98.36293 L 138.6416 100.8757 C 142.54303 103.05786 143.20428 103.71911 143.93167 106.09964 C 144.39455 107.75278 146.04769 110.19943 147.76696 111.98483 C 150.54424 114.82823 151.13937 115.15886 153.7844 115.15886 C 155.8343 115.15886 157.48744 114.62986 159.14058 113.50572 C 160.4631 112.57996 161.71949 111.85258 161.91786 111.85258 C 162.18237 111.85258 166.01766 117.14264 172.23348 126.00348 C 172.76248 126.73087 173.75437 127.98726 174.41563 128.71464 C 176.53165 131.09516 178.31705 134.33533 177.98642 135.32721 C 177.78804 135.79009 176.20102 136.45135 174.41563 136.64973 C 171.37384 137.1126 167.80305 138.69962 168.46431 139.427 C 168.66269 139.55926 170.64646 139.82376 172.8286 139.95601 C 175.07688 140.15439 177.1929 140.4189 177.52354 140.61727 C 178.7138 141.34465 178.1848 143.2623 175.8704 146.70084 C 171.96898 152.5199 173.02699 153.11503 178.84605 148.48623 C 180.96207 146.83309 183.0781 145.64282 183.40873 145.90733 C 183.80548 146.1057 184.1361 148.1556 184.1361 150.40388 C 184.1361 155.23106 184.66512 157.61158 185.657 157.28095 C 186.58276 157.01645 189.4675 146.11397 189.4675 146.11397 L 191.32728 145.37006 C 191.32728 145.37006 190.2858 145.90733 196.9645 145.90733 C 201.46105 145.90733 203.57707 145.64282 203.77545 145.11382 C 203.97383 144.65094 201.92393 143.2623 199.0144 141.87366 L 194.05497 139.36088 L 197.69188 135.65784 C 199.67566 133.67407 201.3288 131.75642 201.3288 131.4258 C 201.3288 130.89679 199.47728 131.02904 192.79858 132.08705 L 189.88905 132.54993 L 190.35193 130.69841 C 191.5422 126.00348 191.60832 125.07772 190.61643 125.07772 C 190.08743 125.07772 188.83104 126.53249 187.83915 128.38401 C 186.84726 130.1694 185.657 131.6903 185.26025 131.6903 C 184.40061 131.62417 182.68134 128.97914 178.4493 121.44081 C 174.54788 114.36535 173.556 111.9187 174.3495 111.45582 C 174.68013 111.19132 177.25903 111.3897 179.97019 111.85258 C 186.78114 113.04284 187.7069 111.98483 182.21846 109.27367 C 180.03631 108.14954 178.1848 106.89315 178.1848 106.56252 C 178.1848 104.90938 191.67444 106.43027 202.65131 109.27367 C 208.13975 110.72844 213.03305 112.64609 220.43913 116.283 C 232.07726 121.96981 235.11905 122.9617 242.988 123.75521 C 247.8152 124.21809 249.46833 124.01971 254.89064 122.6972 C 261.10646 121.11018 263.487 120.77955 263.487 121.44081 C 263.487 123.09395 255.61802 132.7483 247.28618 141.27853 C 235.97868 152.91666 221.6294 167.39819 217.5296 171.36573 C 211.97504 176.6558 201.13042 188.82293 196.9645 194.31136 C 194.9146 196.9564 193.06308 199.13854 192.73245 199.13854 C 192.20345 199.13854 188.43428 193.98073 185.72313 189.41806 C 183.80548 186.31015 165.55478 166.00955 157.68582 158.27284 C 154.24728 154.90043 147.56858 148.94911 142.80753 145.0477 C 134.67406 138.369 119.26677 123.42458 115.4976 118.46515 C 109.81079 111.1252 88.84893 92.01486 83.29437 89.17145 C 82.17023 88.64245 80.71547 87.58443 80.05421 86.79093 C 79.32683 85.99742 78.53332 85.40229 78.26882 85.40229 C 77.93819 85.40229 75.95442 84.27815 73.77227 82.82338 C 68.87896 79.71547 65.1098 78.98809 61.406755 80.50898 C 60.018115 81.10411 58.6956 81.76537 58.49722 82.02987 C 58.298846 82.22825 57.373086 82.95563 56.3812 83.61689 C 55.32319 84.27815 54.52968 85.07166 54.52968 85.46841 C 54.52968 85.86517 53.802297 87.12155 52.94266 88.24569 C 50.76051 91.22135 47.85098 97.10654 42.29642 109.53818 C 38.1305 118.92803 37.138613 134.33533 39.51914 153.18116 C 41.106156 165.3483 41.96579 176.52354 42.29642 189.08743 C 42.494797 195.36937 42.7593 200.79168 42.89155 201.05619 C 43.08993 201.3207 43.420557 206.14787 43.618934 211.76855 C 43.81731 217.38924 44.412443 227.77098 44.94145 234.84643 C 45.470455 241.9219 46.19784 252.7665 46.59459 258.98233 C 46.991346 265.13202 47.454227 271.2156 47.58648 272.40585 C 48.31386 277.23303 48.77674 279.15067 49.305747 279.54743 C 49.636376 279.7458 49.90088 280.5393 49.90088 281.2667 C 49.90088 282.0602 50.62826 283.91173 51.487896 285.3665 C 52.34753 286.8874 53.40554 289.86304 53.86842 292.0452 C 54.265177 294.22734 54.926434 296.54174 55.25706 297.13687 C 55.58769 297.79813 55.852194 298.59164 55.852194 298.9884 C 55.852194 300.37703 61.34063 311.02327 63.0599 313.07317 C 64.051785 314.26344 65.1098 315.9827 65.3743 316.9746 C 65.57268 317.96648 67.62257 320.74376 69.936975 323.05816 C 72.18525 325.37256 74.49965 327.8192 75.02866 328.48047 C 75.62379 329.20785 77.210805 330.5965 78.599445 331.72063 C 81.17835 333.77053 86.13778 338.72996 89.17956 342.433 C 91.22946 344.87965 92.6181 348.51656 93.21323 353.0131 C 94.27124 361.14658 94.668 361.4772 97.18078 356.18715 C 98.76779 352.6825 98.90004 352.02123 98.76779 342.6975 C 98.63554 327.88534 97.37915 322.06627 91.56009 310.5604 C 90.10532 307.65086 88.91506 304.60908 88.91506 303.81557 C 88.91506 303.02206 88.65056 302.16243 88.2538 301.96405 C 86.40228 300.8399 88.12155 289.92917 90.76658 285.82937 C 92.48585 283.25047 94.20512 277.76203 94.20512 274.8525 C 94.20512 271.14946 93.01485 269.1657 89.70857 267.3803 C 88.18768 266.52066 86.93129 265.52877 86.93129 265.13202 C 86.93129 264.8014 87.52642 263.61113 88.31993 262.5531 C 89.04731 261.42898 90.17145 258.58557 90.70045 256.13892 C 91.22946 253.69227 92.08909 249.72472 92.6181 247.27807 C 93.14711 244.83142 94.00674 241.78964 94.53575 240.46712 C 95.72601 237.8221 97.5114 237.3592 97.5114 239.73974 C 97.5114 241.9219 98.17266 243.44278 99.09842 243.44278 C 99.89193 243.44278 101.47895 238.6156 101.47895 236.16895 C 101.47895 234.11905 102.40471 234.11905 106.30613 236.23507 C 108.2899 237.2931 110.14142 237.95434 110.3398 237.62371 C 110.80268 236.89633 109.21566 233.52392 106.63675 229.75475 C 105.64487 228.23386 104.78523 226.71297 104.78523 226.31621 C 104.78523 225.98559 106.43838 224.26632 108.42215 222.54705 C 110.47205 220.76165 111.79456 219.1085 111.53006 218.844 C 111.19943 218.51338 109.34791 218.844 107.36414 219.5714 C 102.27246 221.55516 101.47895 221.4229 101.47895 218.77788 C 101.47895 217.65374 101.80958 215.4716 102.1402 214.01683 C 102.73534 211.30567 102.33858 210.1154 101.08219 210.90892 C 100.68544 211.17342 99.36292 213.22332 98.23879 215.53772 C 96.85015 218.24888 95.85826 219.50526 95.32925 219.24076 C 94.86637 218.97626 92.81648 217.58762 90.76658 216.13285 C 86.86516 213.48782 85.01364 213.28945 86.33616 215.80222 C 86.73291 216.5296 87.59254 218.77788 88.31993 220.82778 C 89.51019 224.33244 89.51019 224.53082 88.45218 225.7872 C 87.79092 226.44847 85.54265 227.90323 83.49275 228.96124 C 81.37673 230.01926 79.65746 231.1434 79.65746 231.47402 C 79.65746 231.80465 81.5751 231.87078 83.95563 231.6724 C 86.79904 231.47402 88.2538 231.60627 88.2538 232.06915 C 88.2538 232.4659 87.39417 234.11905 86.27003 235.70607 C 85.21202 237.3592 84.28626 239.01235 84.28626 239.4091 C 84.28626 240.401 85.6749 240.26874 87.19579 239.1446 C 88.71668 237.95434 89.77469 238.48335 88.98118 240.00424 C 88.65056 240.59937 87.7248 242.9799 86.93129 245.2943 C 86.07165 247.54257 85.21202 249.59247 84.94752 249.72472 C 84.61689 249.9231 83.625 248.73284 82.69924 247.0797 C 81.0461 244.3024 80.45097 243.83953 79.19458 244.2363 C 78.86395 244.36854 78.79782 246.88132 78.93007 249.85697 C 79.12845 255.21316 78.66557 256.40342 77.14468 254.48578 C 76.81405 254.08902 75.82216 250.7166 75.09478 247.0797 C 74.30127 243.44278 73.30939 239.4091 72.91263 238.0866 C 72.251375 235.7722 72.51588 226.31621 73.640015 215.00872 C 74.49965 205.88336 78.00431 194.11298 81.64123 187.89717 C 83.8895 184.06187 86.93129 175.79616 86.93129 173.48176 C 86.93129 171.23348 87.9893 169.51421 88.78281 170.37385 C 89.11344 170.7706 92.02297 175.00265 95.197 179.89595 C 98.37104 184.72313 101.47895 189.35193 102.1402 190.14544 C 103.39659 191.6002 106.30613 195.4355 114.17509 205.75111 C 116.75399 209.18965 120.06028 213.28945 121.44892 214.81034 C 122.83756 216.39736 123.9617 217.91825 123.9617 218.24888 C 123.9617 218.5795 124.42458 219.37301 125.0197 219.90202 C 126.8051 221.75354 131.89678 228.43224 135.46757 233.85455 C 137.45134 236.76408 140.62538 241.12838 142.60915 243.57503 C 147.96534 250.31985 150.87487 260.63547 152.06513 277.1669 C 152.2635 279.87806 152.85864 285.3665 153.38765 289.40016 C 153.91665 293.3677 154.44566 300.5093 154.64403 305.27034 C 155.70205 332.31576 158.1487 360.1547 160.59535 374.37172 C 161.19048 377.47963 162.05012 382.96807 162.64525 386.53886 C 163.90164 394.27557 164.76127 396.58997 168.00143 400.5575 C 173.62212 407.36846 181.2927 408.16197 193.39371 403.1364 C 206.81723 397.648 210.52028 395.79646 216.4716 391.89504 C 224.4728 386.605 232.80465 377.8764 241.07036 366.106 C 248.6087 355.39364 249.07158 354.60013 249.26995 352.55023 C 249.33608 351.62447 250.72472 348.9133 252.31174 346.66504 C 253.89875 344.35064 255.5519 341.9701 255.94865 341.375 C 259.32106 336.5478 268.24804 322.52915 269.4383 320.14863 C 270.29794 318.4955 272.21558 315.1892 273.8026 312.80867 C 275.3896 310.362 277.6379 306.39447 278.89428 303.8817 C 280.15067 301.3689 282.66345 296.54174 284.51497 293.1032 C 286.4326 289.66466 287.9535 286.82126 287.9535 286.689 C 287.9535 286.55675 288.81314 285.23424 289.87115 283.64722 C 290.92916 282.0602 293.17744 277.9604 294.8967 274.52187 C 296.61598 271.08333 298.86425 267.31417 299.92226 266.25616 C 300.91415 265.13202 302.43504 262.7515 303.22855 260.9661 C 304.02206 259.11458 305.4107 256.99855 306.33646 256.13892 C 307.85735 254.68415 307.92348 254.2874 307.52672 250.4521 C 307.1961 246.88132 307.39447 245.62493 308.84924 241.7235 C 311.362 235.11094 312.22165 232.00303 313.4119 224.92757 C 315.52793 213.02494 316.4537 204.75923 316.78432 195.171 C 317.2472 181.21847 320.289 168.25782 325.38067 157.94221 C 326.57093 155.49556 326.57093 154.8343 325.1823 154.8343 C 319.2971 154.90043 301.97216 172.88663 296.48372 184.59088 C 295.02896 187.56654 292.5823 195.50162 292.5823 197.02252 C 292.5823 198.67566 289.7389 207.93326 288.01963 212.03306 C 286.96162 214.4797 284.64722 217.257 279.02653 222.61317 C 270.6947 230.74664 269.76893 232.59816 271.35595 237.8221 C 271.81883 239.27686 272.34783 241.39288 272.5462 242.51702 C 272.87684 244.63304 273.0091 244.56692 265.14013 251.04724 C 263.35473 252.502 260.7097 254.75028 259.25494 256.00667 C 257.73405 257.26306 255.68415 259.04845 254.62614 259.9742 C 253.56813 260.89997 252.1795 262.15636 251.51823 262.88374 C 249.99734 264.47076 248.41032 263.87563 247.8813 261.4951 C 247.22006 258.3872 247.02168 257.99044 246.09592 257.99044 C 245.5008 257.99044 244.83953 259.1807 244.37665 260.89997 C 243.51701 264.40464 242.92188 264.8675 239.0866 264.93364 C 235.58193 264.93364 234.92067 265.99165 237.69795 267.04966 C 238.75596 267.44642 239.68172 268.10768 239.68172 268.4383 C 239.68172 268.83506 238.42533 269.9592 236.90444 271.0172 C 233.00302 273.66224 232.87077 274.65412 236.44156 274.38962 C 239.74785 274.19124 239.81397 274.3235 237.89633 279.28292 C 237.3012 281.0022 236.97057 282.5892 237.23507 282.91984 C 237.8302 283.51497 240.07848 280.93607 241.07036 278.62167 C 242.06225 276.1089 243.31864 277.29915 243.51701 281.06832 C 243.78152 285.3665 244.83953 285.23424 246.2943 280.8038 C 246.88943 279.01842 247.68294 277.49753 248.01356 277.36528 C 248.41032 277.23303 249.86508 278.02654 251.25372 279.15067 C 252.64237 280.2087 254.031 281.13444 254.2955 281.13444 C 255.15514 281.13444 255.0229 279.41518 253.89875 276.70402 C 253.36975 275.44763 252.90687 274.12512 252.90687 273.7945 C 252.90687 273.46386 254.69226 273.19936 256.8083 273.19936 C 258.99044 273.19936 260.90808 272.93485 261.17258 272.5381 C 261.37096 272.20747 259.9162 271.14946 257.8663 270.15757 C 255.88253 269.1657 254.22938 268.10768 254.22938 267.84317 C 254.22938 267.31417 261.9661 260.56934 264.545 258.9162 C 266.132 257.8582 267.78516 258.25494 267.25615 259.57746 C 267.1239 259.9742 267.25615 262.35474 267.52065 264.8675 C 268.04966 269.29794 267.78516 270.7527 265.99976 272.67035 C 265.53688 273.13323 264.14824 274.72025 262.89185 276.1089 C 258.99044 280.67156 254.031 284.50686 248.27807 287.35026 C 245.17016 288.93728 241.93 290.39205 241.00424 290.59042 C 240.01235 290.85493 236.11093 293.23545 232.20951 295.9466 C 228.37422 298.65776 225.0018 300.70766 224.86956 300.44316 C 224.53893 299.91415 225.79532 294.4257 227.38234 289.40016 C 227.97747 287.54864 228.90323 284.17623 229.43223 281.7957 C 231.6805 272.33972 234.12716 265.72715 239.74785 254.35352 C 247.74906 238.28497 250.98922 232.39978 257.00666 223.07605 C 257.66792 222.08417 258.46143 220.69553 258.79206 219.96814 C 259.1227 219.24076 260.51133 216.72798 261.89997 214.34746 C 263.22248 211.96693 266.26427 206.4785 268.57867 202.1142 C 275.25736 189.68256 289.2099 166.34018 299.12875 151.19739 C 302.8318 145.5767 313.0813 127.78888 315.9247 122.10207 C 317.84233 118.3329 320.289 111.3897 321.01637 107.68666 C 322.73564 99.15644 323.06627 84.07977 321.6115 82.3605 C 320.289 80.77348 316.4537 79.45097 309.0476 78.128455 C 304.8817 77.40107 298.203 76.14468 294.23545 75.4173 C 287.55675 74.16091 285.17622 74.094786 266.79327 74.42541 C 255.68415 74.68992 244.57503 74.95442 241.99612 75.08667 C 235.84643 75.48343 216.80222 77.33495 213.8927 77.86395 C 211.31378 78.32683 197.229 79.31872 184.8635 79.91385 C 178.1848 80.17835 176.20102 80.11223 174.614 79.25259 C 170.77871 77.40107 166.94342 76.14468 164.76127 76.14468 C 163.17425 76.14468 162.05012 75.54955 160.39697 73.83028 C 158.61158 71.91264 157.68582 71.44976 155.43754 71.44976 C 142.14627 71.18525 139.17061 71.053 136.85621 70.72237 C 135.13694 70.45787 132.29354 70.72237 128.5905 71.58201 Z" fill="black"/>
        </g>
        <g id="Graphic_174">
          <path d="M 138.50936 73.49965 C 138.50936 73.76416 137.91422 75.4173 137.18684 77.13657 C 136.26108 79.31872 135.86433 81.69924 135.86433 85.40229 C 135.86433 88.24569 135.59982 90.75847 135.2692 90.95685 C 134.40956 91.48585 130.37589 88.57632 129.45013 86.7248 C 128.39212 84.6749 128.326 78.39296 129.31788 75.61568 C 129.91301 73.89641 130.6404 73.30128 133.08705 72.57389 C 136.12883 71.71426 138.50936 72.11101 138.50936 73.49965 Z" fill="#f3f3f3"/>
        </g>
        <g id="Graphic_173">
          <path d="M 149.1556 72.8384 C 150.34586 73.49965 150.27974 73.69803 147.83308 76.67369 C 145.0558 80.0461 143.13816 85.99742 143.13816 91.22135 C 143.13816 94.52764 141.9479 94.85826 139.36899 92.27936 C 137.71585 90.62622 137.71585 90.36171 137.98035 84.4104 C 138.24485 79.64935 138.6416 77.7317 139.76574 75.94631 C 141.74952 72.706145 146.11381 71.25138 149.1556 72.8384 Z" fill="#f3f3f3"/>
        </g>
        <g id="Graphic_172">
          <path d="M 157.55357 74.62379 C 158.21482 75.94631 157.95032 77.26882 156.69393 78.78971 C 155.50367 80.24448 154.97466 82.49275 154.64403 87.38606 C 154.51178 89.89883 153.7844 92.74224 152.99089 94.26313 C 152.2635 95.65177 151.7345 97.56942 151.86675 98.49518 C 152.13126 100.80958 150.34586 101.80147 148.29596 100.47895 C 145.98156 98.95806 144.85743 94.46151 145.38643 88.90695 C 146.17994 81.10411 146.77507 79.7816 150.80874 76.47531 C 154.77629 73.30128 156.6278 72.77227 157.55357 74.62379 Z" fill="#f3f3f3"/>
        </g>
        <g id="Graphic_171">
          <path d="M 126.87123 78.591335 C 126.60672 81.30249 126.73898 84.21202 127.26798 85.99742 C 127.66474 87.51831 127.86311 88.97307 127.66474 89.17145 C 127.46636 89.36983 125.81322 89.70046 123.9617 89.89883 C 117.87813 90.49397 115.4976 86.7248 117.67975 80.0461 C 118.93614 76.21081 121.58117 74.16091 125.15196 74.16091 L 127.26798 74.16091 Z" fill="#f3f3f3"/>
        </g>
        <g id="Graphic_170">
          <path d="M 259.98232 76.21081 C 262.82573 76.21081 265.66913 76.40919 266.26427 76.54144 C 267.78516 77.00432 268.97542 81.17024 268.04966 82.82338 C 267.6529 83.68302 267.6529 84.47653 268.1158 85.33616 C 269.76893 88.51019 268.1819 95.18889 265.3385 96.70979 C 264.545 97.17267 263.8176 97.43717 263.8176 97.37104 C 263.8176 96.90816 254.8245 95.38727 252.11336 95.32114 C 246.62492 95.32114 246.0298 94.32926 247.94744 89.0392 C 248.47644 87.58443 248.8732 84.60878 248.93932 82.3605 C 248.93932 80.17835 249.33608 77.93008 249.79896 77.33495 C 250.52634 76.34306 253.30362 75.48343 254.36163 75.94631 C 254.56 76.07856 257.1389 76.21081 259.98232 76.21081 Z" fill="#f3f3f3"/>
        </g>
        <g id="Graphic_169">
          <path d="M 281.67156 77.13657 C 282.5312 77.665575 283.65533 79.84772 284.5811 82.95563 C 286.1681 87.84894 286.1681 88.04731 285.04397 90.95685 C 283.65533 94.59376 280.01842 97.96617 277.50564 97.96617 C 274.7945 97.96617 270.7608 96.70979 270.6947 95.78402 C 270.62856 95.32114 270.56244 91.55198 270.4302 87.38606 C 270.29794 83.22014 270.09956 79.054215 269.9673 78.19458 C 269.83505 76.93819 270.16568 76.47531 271.42207 76.07856 C 273.67035 75.4173 280.01842 76.07856 281.67156 77.13657 Z" fill="#f3f3f3"/>
        </g>
        <g id="Graphic_168">
          <path d="M 116.15886 83.74914 L 116.22499 90.29559 L 114.30734 90.8246 C 111.72844 91.48585 110.40592 91.02297 109.54629 88.97307 C 108.68665 87.12155 108.5544 84.60878 109.14953 81.50087 C 109.48016 79.97998 110.27367 79.054215 111.99294 78.128455 C 115.89436 76.01243 116.09273 76.34306 116.15886 83.74914 Z" fill="#f3f3f3"/>
        </g>
        <g id="Graphic_167">
          <path d="M 245.23628 77.202695 C 246.0298 77.53332 246.2943 78.591335 246.2943 82.096 C 246.2943 85.07166 246.0298 86.7248 245.5008 86.85705 C 245.0379 87.05543 243.05413 86.79093 241.00424 86.39417 L 237.36732 85.66679 L 236.7722 81.8315 C 236.3093 78.78971 236.37544 77.86395 237.10282 77.40107 C 238.16083 76.739815 243.7154 76.60756 245.23628 77.202695 Z" fill="#f3f3f3"/>
        </g>
        <g id="Graphic_166">
          <path d="M 301.50928 79.054215 C 314.46992 80.97186 318.70197 82.42663 319.69386 85.13778 C 321.41312 89.56821 319.42935 107.88503 316.4537 114.62986 C 314.99893 118.13452 314.60217 118.26677 311.69264 116.74588 C 308.58473 115.15886 307.06384 115.09274 303.6253 116.21688 C 298.86425 117.80389 298.07074 121.44081 301.50928 126.06961 C 304.4188 130.10328 305.27845 135.45946 303.55918 138.83187 C 301.7738 142.27041 299.59163 143.65905 295.4257 144.0558 C 290.92916 144.45256 288.35026 143.2623 285.6391 139.55926 C 283.72146 137.04648 283.5892 135.45946 284.97785 132.08705 C 286.82937 127.72275 285.30848 122.82945 281.4732 120.84568 C 280.4813 120.31667 278.1669 119.72154 276.3815 119.45704 C 271.7527 118.79578 267.05777 116.67976 265.14013 114.36535 C 263.7515 112.77834 263.487 111.72033 263.487 108.34791 C 263.487 101.53696 267.32228 97.50329 272.14946 99.22256 C 276.77826 100.80958 280.81193 99.68544 285.17622 95.51952 C 287.88738 92.94062 287.9535 92.80837 287.9535 88.44407 C 287.9535 85.00553 287.55675 83.15401 286.3665 80.77348 C 284.64722 77.33495 284.91172 76.67369 287.9535 77.07044 C 288.87927 77.202695 294.96283 78.06233 301.50928 79.054215 Z" fill="#f3f3f3"/>
        </g>
        <g id="Graphic_165">
          <path d="M 166.67892 78.19458 C 166.8773 78.591335 165.8854 80.11223 164.36452 81.50087 C 162.513 83.28626 161.38886 85.13778 160.85985 87.12155 C 160.1986 89.50208 159.80184 90.03109 158.6777 89.89883 C 155.5698 89.43595 157.48744 81.03799 161.2566 78.72359 C 163.50488 77.33495 165.95153 77.07044 166.67892 78.19458 Z" fill="#f3f3f3"/>
        </g>
        <g id="Graphic_164">
          <path d="M 234.2594 83.28626 L 234.06104 87.71669 L 238.68984 88.24569 C 241.26874 88.51019 243.7154 88.84082 244.17827 89.0392 C 245.3024 89.43595 245.17016 92.14711 243.9799 93.73413 C 242.459 95.78402 242.78963 96.64366 245.10403 96.64366 C 248.67482 96.64366 261.76772 98.69356 262.4951 99.35481 C 263.61924 100.47895 261.37096 101.27246 258.19693 100.94183 C 240.07848 99.02419 235.31742 98.49518 234.92067 98.23068 C 234.7223 98.09843 228.3081 97.83392 220.70364 97.63555 C 213.1653 97.50329 203.97383 96.90816 200.33691 96.31303 C 191.93895 95.05664 175.67202 93.33737 172.16735 93.33737 C 169.52232 93.33737 166.94342 92.41161 166.94342 91.48585 C 166.94342 91.22135 168.39819 89.89883 170.11745 88.51019 C 171.90285 87.18768 173.68824 85.40229 174.15112 84.47653 C 174.94463 83.08788 175.67202 82.75726 179.11055 82.49275 C 184.79737 81.96375 199.08052 80.77348 202.98194 80.50898 C 204.83346 80.37673 209.72677 79.91385 213.8927 79.5171 C 236.3093 77.33495 234.59004 77.00432 234.2594 83.28626 Z" fill="#f3f3f3"/>
        </g>
        <g id="Graphic_163">
          <path d="M 172.5641 79.71547 C 173.75437 80.57511 173.75437 80.77348 172.89474 82.69113 C 172.36573 83.81527 170.11745 86.19579 167.9353 88.04731 C 164.8274 90.69234 163.83551 91.22135 163.17425 90.49397 C 162.513 89.83271 162.57912 89.10533 163.37263 86.7248 C 164.43064 83.74914 165.02577 83.02176 168.53044 80.24448 C 170.77871 78.52521 170.91096 78.52521 172.5641 79.71547 Z" fill="#f3f3f3"/>
        </g>
        <g id="Graphic_162">
          <path d="M 70.66436 83.74914 C 76.4173 86.59255 88.12155 94.85826 95.26313 101.14021 C 101.28057 106.36414 101.54507 106.95927 99.8258 111.85258 C 97.37915 118.72965 98.96617 120.97793 107.62864 123.16008 C 112.78645 124.48259 113.57996 124.87935 114.50572 126.66474 C 117.15075 131.75642 116.68787 137.70774 113.57996 139.1625 C 112.52194 139.62538 112.19132 140.22052 112.38969 141.01402 C 112.78645 142.20429 107.69477 147.22984 104.91749 148.28785 C 102.53696 149.21361 98.70167 149.01524 96.51952 147.82497 C 95.26313 147.16372 92.94873 146.76696 90.36982 146.76696 C 85.54265 146.76696 84.48464 147.6266 82.56699 152.7844 C 79.45908 161.05012 76.08667 163.2984 69.011214 161.84363 C 62.26639 160.52111 60.480995 156.95032 62.13414 148.55236 C 62.39864 147.42822 63.126024 145.51057 63.78728 144.25418 C 64.44854 142.93167 65.24205 140.4189 65.440425 138.56737 C 66.10168 133.60794 64.31629 130.36778 59.48911 128.05338 C 56.315074 126.46636 55.25706 126.26799 51.686273 126.53249 C 49.37187 126.73087 46.33009 127.52437 44.74307 128.31788 C 43.156054 129.1114 41.70129 129.6404 41.37066 129.44202 C 40.31265 128.78076 42.494797 115.55562 44.61082 110.19943 C 51.025016 93.86638 55.521566 86.26192 60.67937 83.15401 C 63.91953 81.17024 65.6388 81.30249 70.66436 83.74914 Z" fill="#f3f3f3"/>
        </g>
        <g id="Graphic_161">
          <path d="M 106.63675 84.4104 C 106.70288 85.53454 107.09963 87.65056 107.49639 89.17145 C 108.22377 91.75036 108.42215 91.94873 111.46393 92.67612 C 114.10896 93.33737 115.16697 93.27125 117.21687 92.54386 C 124.55683 89.70046 142.14627 93.46962 144.72517 98.49518 C 146.24607 101.40471 148.22984 102.79335 150.74262 102.72723 C 152.46189 102.6611 153.05702 102.9256 153.38765 103.91749 C 153.65215 104.64487 154.5779 106.16576 155.50367 107.22378 C 156.82618 108.87692 157.02456 109.40593 156.3633 110.19943 C 155.50367 111.25745 153.12314 111.45582 150.61036 110.79457 C 149.61848 110.53006 148.42822 108.94304 146.97345 106.03351 C 144.5268 101.14021 140.6915 97.83392 136.0627 96.70979 C 134.54181 96.31303 128.326 95.9824 122.1763 95.9824 C 111.19943 95.9824 107.56251 95.32114 107.89314 93.53575 C 107.95927 93.139 106.83513 92.54386 105.44649 92.08098 C 100.94994 90.75847 99.5613 85.46841 103.06597 83.08788 C 105.11586 81.63312 106.43838 82.096 106.63675 84.4104 Z" fill="#f3f3f3"/>
        </g>
        <g id="Graphic_160">
          <path d="M 99.49518 87.05543 C 99.49518 88.24569 100.09031 89.96496 100.88382 90.95685 C 102.47083 92.94062 101.94183 93.07287 97.31303 91.68423 C 92.15522 90.16334 87.92317 87.78281 87.7248 86.32805 C 87.59254 85.20391 88.05542 85.07166 93.54386 84.93941 L 99.49518 84.87328 Z" fill="#f3f3f3"/>
        </g>
        <g id="Graphic_159">
          <path d="M 158.6777 93.00674 C 158.6777 94.46151 156.6278 95.18889 155.5698 94.13088 C 154.44566 93.00674 155.50367 91.22135 157.15681 91.48585 C 158.1487 91.6181 158.6777 92.14711 158.6777 93.00674 Z" fill="#f3f3f3"/>
        </g>
        <g id="Graphic_158">
          <path d="M 164.5629 93.07287 C 165.75316 93.53575 165.95153 95.05664 164.89352 95.65177 C 163.83551 96.37916 160.9921 95.38727 160.9921 94.39538 C 160.9921 93.00674 162.7775 92.41161 164.5629 93.07287 Z" fill="#f3f3f3"/>
        </g>
        <g id="Graphic_157">
          <path d="M 178.51542 96.51141 C 180.36694 96.90816 187.04564 97.56942 193.39371 97.96617 C 199.74178 98.36293 206.4866 98.95806 208.272 99.28869 C 210.12352 99.61932 213.76044 100.0822 216.4716 100.28057 C 222.35678 100.80958 223.1503 101.07408 223.1503 102.6611 C 223.1503 105.37226 229.829 106.23189 230.29187 103.58686 C 230.82087 100.67733 234.85454 99.88382 241.6655 101.27246 C 243.31864 101.60309 247.94744 102.19822 251.91498 102.59497 C 260.4452 103.38848 260.84196 103.71911 260.84196 109.53818 C 260.84196 112.05095 261.17258 114.03473 261.83384 114.89436 C 263.88374 117.60552 263.15636 118.26677 256.8083 119.72154 C 249.33608 121.44081 243.64927 121.50693 237.10282 119.78766 C 230.887 118.20065 220.90202 114.16698 215.54583 110.99294 C 208.5365 106.89315 194.78235 103.71911 183.8716 103.65299 L 175.93652 103.58686 L 175.27526 101.80147 C 174.8785 100.8757 173.95275 99.48707 173.2915 98.69356 C 171.83672 97.10654 172.36573 95.05664 174.01887 95.51952 C 174.68013 95.7179 176.73003 96.18078 178.51542 96.51141 Z" fill="#f3f3f3"/>
        </g>
        <g id="Graphic_156">
          <path d="M 158.01645 96.70979 C 160.7276 97.37104 161.12436 97.7678 163.042 101.60309 C 164.2984 104.11587 166.6128 107.22378 168.72881 109.20755 C 170.71259 111.1252 172.8286 113.77022 173.35762 115.09274 C 174.28338 117.34101 179.37506 126.26799 183.67323 133.14506 C 184.8635 135.12883 186.05376 136.3191 186.84726 136.3191 C 189.82292 136.3191 192.00507 141.41078 189.95517 143.46068 C 188.89716 144.51869 185.98763 144.45256 184.46674 143.32842 C 183.40873 142.60104 183.3426 142.13816 183.93773 140.88177 C 184.53286 139.55926 184.33449 138.898 182.5491 136.64973 C 181.42495 135.19496 180.16857 133.67407 179.77181 133.34344 C 179.30893 132.94668 178.1848 131.49192 177.25903 130.03715 C 176.26715 128.58239 174.28338 125.5406 172.69636 123.29233 C 171.17547 120.97793 169.12557 117.87002 168.13368 116.34913 C 165.8854 112.71221 164.10001 110.92682 160.00022 108.34791 C 156.23105 105.90126 154.5779 103.38848 153.98278 99.09031 C 153.5199 95.58565 153.5199 95.58565 158.01645 96.70979 Z" fill="#f3f3f3"/>
        </g>
        <g id="Graphic_155">
          <path d="M 171.04322 99.09031 C 171.96898 100.14832 173.09311 101.66921 173.556 102.52885 C 174.614 104.51262 173.556 105.63676 171.63835 104.64487 C 170.11745 103.78524 166.94342 99.42094 166.94342 98.16455 C 166.94342 96.70979 169.25782 97.23879 171.04322 99.09031 Z" fill="#f3f3f3"/>
        </g>
        <g id="Graphic_154">
          <path d="M 166.21604 100.47895 C 167.86918 103.65299 171.7706 107.22378 173.75437 107.22378 C 175.67202 107.22378 177.12678 108.21566 176.59778 109.14142 C 175.93652 110.19943 173.15924 110.06718 170.91096 108.87692 C 168.66269 107.75278 164.2984 101.47084 164.2984 99.35481 C 164.2984 97.37104 164.76127 97.63555 166.21604 100.47895 Z" fill="#f3f3f3"/>
        </g>
        <g id="Graphic_153">
          <path d="M 229.1016 102.33047 C 229.1016 103.65299 228.8371 103.98362 227.64684 103.78524 C 225.79532 103.52074 225.4647 102.3966 226.7872 101.00796 C 228.17585 99.68544 229.1016 100.21445 229.1016 102.33047 Z" fill="#f3f3f3"/>
        </g>
        <g id="Graphic_152">
          <path d="M 108.09152 113.24122 C 113.77833 119.78766 114.90247 121.1763 114.57184 121.44081 C 114.43959 121.63919 112.38969 121.44081 110.00917 121.04405 C 107.69477 120.6473 105.18199 120.25054 104.4546 120.1183 C 103.72722 120.05217 102.93371 119.91992 102.73534 119.85379 C 101.47895 119.58929 100.88382 116.283 101.47895 113.10897 C 101.8757 111.19132 102.1402 109.6043 102.1402 109.47205 C 102.1402 109.3398 102.66921 109.20755 103.33047 109.20755 C 103.99173 109.20755 106.10775 111.05907 108.09152 113.24122 Z" fill="#f3f3f3"/>
        </g>
        <g id="Graphic_151">
          <path d="M 310.0395 119.39091 C 311.362 120.58117 312.42002 122.10207 312.42002 122.6972 C 312.42002 124.01971 308.5186 131.02904 307.79122 131.02904 C 306.9977 131.02904 302.50117 123.35845 302.1044 121.1763 C 301.44315 118.00227 302.1044 117.14264 305.08007 117.14264 C 307.12997 117.14264 308.18798 117.60552 310.0395 119.39091 Z" fill="#f3f3f3"/>
        </g>
        <g id="Graphic_150">
          <path d="M 273.2736 122.6972 C 273.93485 123.35845 273.2736 124.7471 270.09956 129.57427 C 267.9174 132.94668 266.132 135.92234 266.132 136.25297 C 266.132 136.5836 266.66102 137.77386 267.25615 138.898 C 268.3803 140.81565 268.3803 140.9479 266.79327 143.06392 C 265.93364 144.25418 263.7515 147.29597 262.03222 149.87487 C 258.3953 155.16493 257.46954 156.42132 251.58435 163.89353 C 246.62492 170.10934 245.3024 171.89474 239.02046 180.82171 C 236.5077 184.3925 234.12716 187.63266 233.7304 188.09554 C 233.33365 188.4923 231.8789 190.5422 230.42412 192.52597 C 228.96935 194.50974 225.86144 198.8079 223.48092 202.1142 C 216.0087 212.36369 212.1073 217.91825 211.31378 219.43914 C 210.91703 220.29877 210.18965 220.96003 209.72677 220.96003 C 208.801 220.96003 205.23022 216.7941 203.18032 213.22332 C 202.3868 211.83468 200.46916 209.25578 198.88215 207.47038 C 195.50973 203.50284 194.84848 201.1223 196.4355 198.60953 C 199.0144 194.642 212.70242 180.0282 232.60627 159.92598 C 244.17827 148.28785 254.4939 137.70774 255.5519 136.38522 C 256.6099 135.06271 259.3872 131.49192 261.76772 128.38401 C 268.24804 119.98604 267.71903 120.3828 270.2318 121.24243 C 271.42207 121.63919 272.8107 122.30044 273.2736 122.6972 Z" fill="#f3f3f3"/>
        </g>
        <g id="Graphic_149">
          <path d="M 281.34093 123.88746 C 283.5892 125.5406 283.91984 128.18563 282.33282 131.02904 C 281.20868 133.01281 281.07643 136.71585 282.0683 139.49313 C 282.46507 140.74952 284.1182 142.53492 286.102 143.98968 C 289.2099 146.30408 289.54052 146.3702 293.64032 146.03958 C 296.6821 145.8412 298.07074 145.97345 298.26912 146.50246 C 298.66587 147.56047 293.97095 154.8343 292.91293 154.8343 C 292.45005 154.8343 291.72267 154.37142 291.19367 153.77629 C 290.7308 153.24728 289.4744 152.32152 288.35026 151.7264 C 286.30036 150.66838 284.44884 149.27974 280.01842 145.64282 C 278.76203 144.58481 275.78637 142.27041 273.40584 140.48502 C 271.02532 138.76575 269.04155 136.8481 268.9093 136.25297 C 268.84317 135.72397 269.83505 133.60794 271.15757 131.6903 C 272.4801 129.77265 274.13323 126.86312 274.8606 125.2761 C 276.31538 121.96981 278.1669 121.50693 281.34093 123.88746 Z" fill="#f3f3f3"/>
        </g>
        <g id="Graphic_148">
          <path d="M 126.07772 133.54182 L 130.77265 139.03025 L 127.53248 142.33654 C 123.49882 146.43633 116.75399 150.999 112.25744 152.58603 C 108.95115 153.77629 108.8189 153.77629 107.49639 152.58603 C 106.70288 151.85864 106.10775 151.13126 106.10775 150.86676 C 106.10775 150.60225 107.76089 149.14749 109.74466 147.6266 C 114.83634 143.7913 118.67164 137.64161 118.67164 133.40956 C 118.67164 132.28543 118.20876 130.10328 117.67975 128.51626 C 115.56373 122.4327 117.74588 123.75521 126.07772 133.54182 Z" fill="#f3f3f3"/>
        </g>
        <g id="Graphic_147">
          <path d="M 57.703715 130.30166 C 63.39053 133.21119 64.051785 136.51747 60.54712 144.91544 C 58.4311 149.87487 58.23272 152.91666 59.81974 157.21483 C 60.7455 159.66148 59.75361 160.19049 55.45544 159.52923 C 46.263963 158.00834 43.55281 157.34708 42.693174 156.48744 C 42.09804 155.89231 41.70129 153.97467 41.63516 151.39576 C 41.569037 149.08136 41.304534 145.3122 41.04003 142.93167 C 40.378773 136.98035 42.16417 133.47569 47.25585 130.83066 C 51.42177 128.71464 54.3313 128.58239 57.703715 130.30166 Z" fill="#f3f3f3"/>
        </g>
        <g id="Graphic_146">
          <path d="M 188.63266 132.4838 C 188.30203 134.59983 186.78114 134.7982 186.78114 132.7483 C 186.78114 131.62417 189.4675 128.26002 189.4675 128.26002 C 189.4675 128.26002 188.7649 131.49192 188.63266 132.4838 Z" fill="#f3f3f3"/>
        </g>
        <g id="Graphic_145">
          <path d="M 198.76643 132.35155 C 198.76643 132.35155 193.8566 137.64161 192.53408 137.64161 C 192.00507 137.64161 191.0793 137.04648 190.41805 136.3191 C 189.29392 135.06271 189.29392 134.99658 191.14544 134.33533 C 192.20345 133.93857 193.57556 133.79805 194.30294 133.46742 C 196.08834 132.60779 198.76643 132.35155 198.76643 132.35155 Z" fill="#f3f3f3"/>
        </g>
        <g id="Graphic_144">
          <path d="M 180.03631 138.10449 C 180.16857 138.69962 179.5073 138.96413 177.9203 138.96413 C 175.27526 138.96413 171.9855 138.67483 171.9855 138.67483 C 171.9855 138.67483 174.15112 137.90611 176.33327 137.44323 C 178.58155 136.98035 179.70569 137.24486 180.03631 138.10449 Z" fill="#f3f3f3"/>
        </g>
        <g id="Graphic_143">
          <path d="M 138.77386 143.98968 C 141.15439 145.97345 143.40266 148.22173 143.79941 148.88299 C 144.72517 150.60225 142.27852 153.31341 136.85621 156.81807 C 131.96291 159.85986 130.77265 159.7276 128.855 155.95844 C 128.25987 154.76818 126.87123 152.85053 125.74709 151.7264 L 123.76332 149.54424 L 128.326 144.98157 C 130.83877 142.40266 133.2193 140.35277 133.68218 140.28664 C 134.07893 140.28664 136.39333 141.93978 138.77386 143.98968 Z" fill="#f3f3f3"/>
        </g>
        <g id="Graphic_142">
          <path d="M 180.82982 145.0477 C 178.51542 146.89921 177.56487 147.6018 177.56487 147.6018 C 177.56487 147.6018 178.11867 146.43633 179.63956 143.85743 C 180.89595 141.7414 181.09433 141.60916 181.68946 142.66717 C 182.21846 143.5268 182.02009 144.12193 180.82982 145.0477 Z" fill="#f3f3f3"/>
        </g>
        <g id="Graphic_141">
          <path d="M 197.03063 142.86554 C 200.00628 144.32031 200.25426 144.62614 200.25426 144.62614 C 200.25426 144.62614 199.14665 145.24607 195.37748 144.58481 C 193.39371 144.25418 192.73245 143.85743 192.73245 142.86554 C 192.73245 141.27853 193.79047 141.27853 197.03063 142.86554 Z" fill="#f3f3f3"/>
        </g>
        <g id="Graphic_140">
          <path d="M 275.1251 144.98157 C 276.84438 146.50246 279.4894 148.48623 280.94418 149.47812 C 283.39083 150.999 291.2598 156.6197 291.85492 157.1487 C 291.98717 157.28095 291.45817 158.20671 290.7308 159.26473 C 290.0034 160.25661 287.88738 163.95965 285.96973 167.39819 C 282.59732 173.48176 280.87805 176.25904 275.059 185.25214 C 271.88495 190.14544 270.62856 192.19534 266.72715 199.13854 C 265.20625 201.8497 263.61924 204.56085 263.15636 205.08986 C 262.69348 205.61886 260.51133 209.65253 258.19693 214.01683 C 255.94865 218.38113 253.63425 222.4148 253.17137 223.00993 C 252.64237 223.60506 249.79896 228.76287 246.88943 234.5158 C 243.9799 240.26874 241.00424 245.8233 240.27685 246.8152 C 239.54947 247.80708 238.22696 250.31985 237.36732 252.36975 C 236.44156 254.35352 235.31742 256.00667 234.85454 256.00667 C 233.66428 256.00667 227.0517 248.33608 225.39856 244.96367 C 224.60506 243.44278 222.22453 239.73974 220.04238 236.76408 C 217.92636 233.78842 215.4797 230.1515 214.62007 228.63062 C 213.6943 227.17585 212.57017 225.65496 212.1073 225.39045 C 211.64441 225.12595 211.24766 224.39857 211.24766 223.86956 C 211.24766 223.00993 214.35557 218.18275 218.65374 212.4298 C 219.64563 211.1073 222.02615 207.801 223.87767 205.08986 C 225.7292 202.3787 228.17585 198.94016 229.3661 197.4854 C 230.49025 196.03063 232.01114 193.98073 232.60627 192.98885 C 234.2594 190.47607 235.5158 190.07932 237.10282 191.79858 C 237.8302 192.52597 238.75596 193.18722 239.21884 193.18722 C 239.68172 193.18722 241.401 191.3357 243.05413 189.08743 C 246.69105 183.92962 246.69105 183.92962 245.10403 183.92962 C 242.78963 183.92962 241.6655 183.20224 241.6655 181.5491 C 241.6655 180.0282 247.28618 171.89474 252.1795 166.34018 C 253.502 164.88541 255.35352 162.76939 256.41153 161.57913 C 257.40342 160.38886 258.52756 159.4631 258.85818 159.4631 C 259.25494 159.4631 261.76772 161.513 264.47887 164.0919 C 270.62856 169.77872 280.01842 175.33328 280.01842 173.28338 C 280.01842 172.75437 277.70402 171.10123 274.8606 169.51421 C 269.76893 166.6708 260.1807 158.4051 260.1807 156.81807 C 260.1807 154.8343 269.7028 142.27041 271.2237 142.27041 C 271.62045 142.27041 273.40584 143.46068 275.1251 144.98157 Z" fill="#f3f3f3"/>
        </g>
        <g id="Graphic_139">
          <path d="M 187.4424 148.08948 C 187.4424 148.75073 185.74792 153.92507 185.74792 153.92507 C 185.74792 153.92507 184.8635 148.88299 185.26025 147.82497 C 185.78925 146.50246 187.4424 146.70084 187.4424 148.08948 Z" fill="#f3f3f3"/>
        </g>
        <g id="Graphic_138">
          <path d="M 97.04852 152.05702 C 98.50329 153.31341 105.24811 161.57913 106.90126 164.0919 C 107.56251 165.01766 110.14142 168.39008 112.72032 171.69636 C 115.29923 174.93652 118.60551 179.30082 120.1264 181.2846 C 121.6473 183.26836 123.10206 185.05376 123.30044 185.25214 C 123.56494 185.45051 125.81322 188.42617 128.326 191.8647 C 130.77265 195.30325 135.2692 201.1223 138.17873 204.75923 C 142.87365 210.5783 150.87487 221.02616 157.02456 229.29187 C 158.08257 230.74664 159.60346 232.66428 160.33085 233.52392 C 161.05823 234.38355 161.65336 235.2432 161.65336 235.44157 C 161.65336 235.70607 159.00833 238.68173 155.70205 242.12026 L 149.75073 248.4022 L 148.6266 246.88132 C 147.96534 246.02168 146.5767 244.2363 145.45256 242.84765 C 144.39455 241.39288 141.81564 237.95434 139.83187 235.17706 C 137.8481 232.33366 135.33532 229.0935 134.27731 227.96936 C 133.2193 226.84522 131.1694 224.26632 129.71463 222.28255 C 128.19374 220.29877 126.07772 217.58762 124.95358 216.2651 C 123.89557 215.00872 121.77955 212.23143 120.32478 210.1154 C 118.87001 207.9994 115.16697 203.10608 112.12519 199.2708 C 107.16576 192.8566 102.27246 186.24402 100.48706 183.3345 C 100.15643 182.73936 98.90004 181.08622 97.77591 179.63145 C 96.65177 178.17668 95.197 175.9284 94.53575 174.67202 C 93.87449 173.41563 92.08909 170.70448 90.50208 168.7207 C 88.2538 165.74505 87.46029 163.95965 86.33616 159.1986 C 85.07977 153.84242 85.01364 153.18116 85.9394 151.79252 C 87.9893 148.61848 93.41161 148.75073 97.04852 152.05702 Z" fill="#f3f3f3"/>
        </g>
        <g id="Graphic_137">
          <path d="M 105.77712 153.77629 C 108.48827 157.1487 108.62053 157.1487 115.89436 153.71016 C 118.60551 152.45378 121.18441 151.59414 121.6473 151.79252 C 122.1763 151.9909 124.29232 154.23917 126.40835 156.81807 C 129.31788 160.32274 130.57427 161.44687 131.89678 161.44687 C 133.7483 161.44687 136.98846 159.4631 142.67528 154.70205 C 144.7913 152.98278 146.8412 151.52801 147.17183 151.52801 C 148.16371 151.52801 156.49555 159.52923 163.96776 167.59657 C 177.25903 182.01198 177.65579 182.47486 186.58276 194.70812 C 187.57465 196.09676 189.09554 198.08053 189.95517 199.07241 C 190.74868 200.13043 191.40994 201.5852 191.40994 202.31258 C 191.40994 203.10608 187.50852 207.5365 181.22658 213.81845 C 175.67202 219.43914 169.65457 225.91946 167.9353 228.3 C 166.21604 230.6144 164.43064 232.7304 164.03389 232.9949 C 162.7775 233.7223 158.80996 229.15962 152.2635 219.70364 C 151.40387 218.51338 149.81686 216.39736 148.69272 215.07484 C 147.56858 213.75233 146.37832 212.1653 146.04769 211.57018 C 145.38643 210.37991 143.46879 207.93326 135.5337 198.14665 C 130.50814 191.99696 130.17751 190.2777 133.4838 188.88905 C 134.74019 188.36005 135.93045 187.63266 136.19496 187.30203 C 136.45946 186.77303 133.4838 182.21035 131.50003 180.0282 C 131.36778 179.89595 130.57427 180.22658 129.78076 180.75559 C 128.92113 181.2846 127.46636 181.94585 126.47447 182.21035 C 124.09395 182.73936 122.37468 180.95396 111.46393 166.4063 C 106.83513 160.19049 102.53696 154.76818 101.94183 154.23917 C 100.15643 152.7844 100.68544 151.19739 102.93371 150.93288 C 103.19822 150.86676 104.4546 152.18927 105.77712 153.77629 Z" fill="#f3f3f3"/>
        </g>
        <g id="Graphic_136">
          <path d="M 323.6614 157.74383 C 323.6614 157.87608 322.73564 160.19049 321.6115 162.83551 C 318.43747 170.37385 317.90846 171.96087 316.85045 177.25092 C 316.2553 179.89595 315.52793 182.40873 315.1973 182.73936 C 314.86668 183.06999 313.8748 183.06999 312.81678 182.6071 C 310.17175 181.61522 306.00583 181.8136 303.75755 183.00386 C 301.50928 184.128 298.53362 189.88094 298.53362 193.05497 C 298.53362 194.04686 298.07074 195.50162 297.54174 196.229 C 296.88048 197.2209 296.74823 198.21278 297.14498 199.60142 C 297.54174 200.92393 297.4095 202.24645 296.81435 203.70122 C 296.28535 204.9576 295.8886 206.87525 295.8886 208.13164 C 295.8886 209.3219 295.55796 210.51217 295.1612 210.77667 C 294.76446 210.97505 293.77257 212.6282 292.97906 214.34746 C 291.39204 217.71987 289.7389 220.03427 285.57298 224.79532 C 284.0521 226.5146 282.0022 229.42412 281.07643 231.34177 C 279.55554 234.18518 279.35716 235.2432 279.6878 237.68984 C 280.08454 240.26874 279.9523 240.79775 278.62978 241.65738 C 276.84438 242.91377 276.44763 242.7154 275.1251 240.00424 C 272.67846 235.17706 274.0671 231.9369 281.8038 223.9357 C 285.3746 220.23265 288.61476 216.5296 289.07764 215.66997 C 291.98717 209.65253 294.03707 203.23834 295.6241 195.50162 C 297.674 185.11989 302.0383 177.1848 311.0975 167.33206 C 316.85045 161.05012 323.6614 155.89231 323.6614 157.74383 Z" fill="#f3f3f3"/>
        </g>
        <g id="Graphic_135">
          <path d="M 84.08788 161.90975 C 84.88139 163.8274 85.01364 165.81117 84.74914 170.37385 C 84.41851 175.59778 84.08788 176.98642 81.77348 181.61522 C 80.31871 184.52475 78.46719 188.69067 77.60756 190.87282 C 76.747925 193.05497 75.55766 195.4355 74.8964 196.229 C 74.23515 196.9564 73.70614 198.2789 73.70614 199.20467 C 73.70614 200.0643 73.37551 201.8497 73.04488 203.1722 C 71.98687 207.0075 70.2676 221.29066 69.936975 229.02737 C 69.67247 234.18518 69.936975 237.42534 70.73048 240.93 C 71.72237 245.49268 75.02866 256.99855 76.02054 259.4452 C 76.285045 260.1726 76.02054 260.76772 75.09478 261.29673 C 74.30127 261.69348 73.70614 262.68537 73.70614 263.545 C 73.70614 264.40464 73.11101 265.5949 72.38363 266.25616 C 71.65624 266.9174 70.92886 267.97542 70.66436 268.7028 C 70.399855 269.56244 69.87085 269.89307 69.07734 269.6947 C 68.41608 269.49632 66.63069 270.09145 65.17592 270.95108 C 62.00189 272.73648 60.67937 272.47197 59.95199 269.9592 C 59.224606 267.24804 59.885864 207.47038 60.67937 206.67687 C 60.87775 206.41237 61.80351 205.88336 62.59702 205.4866 C 63.78728 204.89148 64.184036 204.09797 64.31629 201.65132 C 64.514665 198.8079 64.38241 198.60953 62.46477 197.88215 L 60.41487 197.2209 L 60.811624 185.45051 C 61.01 178.9702 61.47288 172.15924 61.80351 170.37385 C 62.200264 168.52233 62.53089 166.34018 62.59702 165.41442 C 62.72927 164.15803 63.126024 163.8274 64.11791 163.95965 C 71.25949 164.95154 73.44164 164.88541 76.48342 163.49677 C 78.136565 162.70326 80.05421 161.44687 80.71547 160.7195 C 82.30249 158.9341 82.89762 159.13247 84.08788 161.90975 Z" fill="#f3f3f3"/>
        </g>
        <g id="Graphic_134">
          <path d="M 49.636376 161.44687 C 52.54591 162.17426 55.65382 162.76939 56.57958 162.76939 C 59.48911 162.76939 59.75361 163.76127 59.35686 172.22537 C 59.02623 178.44119 58.761726 180.16046 57.90209 180.5572 C 56.3812 181.35072 45.27208 180.35883 44.61082 179.30082 C 43.949563 178.2428 43.023803 161.71138 43.618934 160.78562 C 44.14794 159.92598 43.55281 159.92598 49.636376 161.44687 Z" fill="#f3f3f3"/>
        </g>
        <g id="Graphic_133">
          <path d="M 48.77674 182.40873 C 48.97512 182.73936 49.305747 185.11989 49.57025 187.6988 L 50.03313 192.52597 L 47.321975 192.52597 L 44.61082 192.52597 L 44.61082 187.2359 L 44.61082 181.94585 L 46.528466 181.94585 C 47.652604 181.94585 48.64449 182.14423 48.77674 182.40873 Z" fill="#f3f3f3"/>
        </g>
        <g id="Graphic_132">
          <path d="M 58.56335 196.82414 C 58.49722 204.4286 58.298846 210.8428 58.166595 211.04117 C 58.03434 211.30567 57.835966 224.59695 57.703715 240.6655 L 57.50534 269.76082 L 54.926434 268.37218 C 53.537794 267.57867 51.55402 265.99165 50.562136 264.8014 C 48.90899 263.016 48.64449 262.0241 48.31386 257.19693 C 48.115484 254.15515 47.454227 244.56692 46.859095 235.83832 C 46.33009 227.10972 45.66883 215.93448 45.53658 211.04117 C 45.40433 206.14787 45.139826 200.72556 44.94145 199.0063 C 44.544694 195.4355 45.007575 194.9065 48.90899 194.84037 L 51.55402 194.84037 L 51.7524 189.08743 C 51.950776 182.80548 52.08303 182.6071 56.447326 182.80548 L 58.6956 182.93774 Z" fill="#f3f3f3"/>
        </g>
        <g id="Graphic_131">
          <path d="M 132.22741 184.3925 C 133.41767 186.11177 133.35155 186.1779 131.63228 187.6988 C 129.384 189.61644 128.92113 189.61644 127.66474 187.76491 C 126.20997 185.71502 126.34222 184.26025 128.12762 183.40062 C 130.37589 182.3426 130.97102 182.47486 132.22741 184.3925 Z" fill="#f3f3f3"/>
        </g>
        <g id="Graphic_130">
          <path d="M 313.6103 185.05376 C 314.86668 185.78114 315.13118 186.4424 314.9328 188.42617 L 314.73443 190.87282 L 310.70076 190.67445 C 308.05573 190.5422 305.80745 190.8067 304.1543 191.46796 C 300.84802 192.8566 300.5174 192.79047 300.5174 190.67445 C 300.5174 184.9215 308.18798 181.61522 313.6103 185.05376 Z" fill="#f3f3f3"/>
        </g>
        <g id="Graphic_129">
          <path d="M 242.32675 186.11177 C 242.32675 186.83915 239.54947 190.5422 238.95434 190.5422 C 238.68984 190.5422 237.96245 190.07932 237.43345 189.48418 C 236.3093 188.42617 236.70606 186.9714 238.68984 184.98763 C 239.54947 184.128 240.01235 184.128 241.00424 184.78926 C 241.73162 185.18601 242.32675 185.78114 242.32675 186.11177 Z" fill="#f3f3f3"/>
        </g>
        <g id="Graphic_128">
          <path d="M 313.6103 193.1211 C 314.1393 193.45173 314.4038 194.642 314.27155 196.229 C 314.1393 198.41116 313.8748 198.74179 312.75065 198.60953 C 312.02327 198.47728 308.7831 198.2789 305.47682 198.21278 C 300.45127 198.08053 299.5255 197.88215 299.32713 196.9564 C 298.79812 194.31136 310.5685 191.13733 313.6103 193.1211 Z" fill="#f3f3f3"/>
        </g>
        <g id="Graphic_127">
          <path d="M 62.46477 201.45294 C 62.46477 202.6432 62.13414 203.10608 61.14225 203.10608 C 59.81974 203.10608 59.29073 201.25456 60.28262 200.26268 C 61.274504 199.20467 62.46477 199.86592 62.46477 201.45294 Z" fill="#f3f3f3"/>
        </g>
        <g id="Graphic_126">
          <path d="M 312.68453 201.05619 C 313.80867 202.04807 314.1393 206.743 313.1474 208.33002 C 312.6184 209.12353 312.0894 209.0574 309.70887 208.13164 C 308.12185 207.47038 305.01394 207.0075 302.3689 206.94138 C 299.92226 206.94138 297.87236 206.743 297.87236 206.54462 C 297.87236 206.41237 298.203 205.08986 298.59975 203.70122 C 299.12875 201.98195 299.92226 200.92393 301.11253 200.52718 C 303.49305 199.60142 311.362 199.93205 312.68453 201.05619 Z" fill="#f3f3f3"/>
        </g>
        <g id="Graphic_125">
          <path d="M 196.83225 207.86714 C 197.69188 208.99127 198.81602 210.77667 199.34503 211.70243 C 200.60142 213.88458 204.03995 218.64563 206.4866 221.35679 C 209.46226 224.7292 210.65253 226.44847 211.97504 229.22575 C 212.70242 230.6805 215.14908 234.44968 217.5296 237.62371 C 219.91013 240.79775 221.82778 243.5089 221.82778 243.70728 C 221.82778 244.69917 226.5227 250.9811 229.96124 254.48578 L 233.9949 258.58557 L 232.60627 261.42898 C 228.5726 269.62857 224.80343 280.93607 221.8939 293.3677 C 218.19086 309.10563 217.7941 310.5604 215.54583 315.51982 C 214.28944 318.23098 212.76855 322.52915 212.1073 325.10805 L 210.91703 329.73686 L 208.33813 329.93523 C 205.36247 330.19974 200.13854 327.8192 196.89838 324.77743 C 194.98073 322.99203 194.71623 322.26465 194.71623 319.289 C 194.6501 317.37134 194.51785 300.90604 194.31947 282.5892 C 194.05497 259.31295 194.1211 249.3941 194.6501 249.3941 C 194.98073 249.3941 195.9065 249.98923 196.63387 250.78273 C 199.21278 253.56002 201.52718 250.915 200.40304 246.3523 C 200.00628 244.7653 197.36126 243.97178 197.36126 245.42655 C 197.36126 245.75718 197.95639 246.0878 198.68377 246.0878 C 199.5434 246.0878 200.00628 246.5507 200.00628 247.41032 C 200.00628 249.26184 198.15476 249.06347 196.30324 247.01357 C 194.71623 245.36043 194.71623 245.16205 194.45172 227.3081 C 194.25335 217.38924 193.92272 208.46227 193.72434 207.5365 C 193.06308 204.9576 194.84848 205.2221 196.83225 207.86714 Z" fill="#f3f3f3"/>
        </g>
        <g id="Graphic_124">
          <path d="M 192.20345 256.13892 C 192.20345 282.45696 192.20345 307.84924 192.13732 312.54417 L 192.0712 321.1405 L 185.657 321.1405 C 177.9203 321.1405 175.53976 322.00015 174.01887 325.17418 C 172.36573 328.5466 172.63023 331.1255 174.94463 335.2253 C 176.6639 338.3332 176.9284 339.3912 176.6639 342.1685 C 176.20102 346.99567 174.54788 348.8472 170.38196 349.1117 C 167.00955 349.31007 162.7775 347.7892 161.19048 345.8054 C 160.33085 344.7474 159.86797 341.1766 158.9422 327.7531 C 158.54545 321.93402 158.1487 315.9827 158.01645 314.52794 C 157.8842 313.07317 157.6197 308.57662 157.42131 304.60908 C 156.6278 291.5162 152.39576 260.1726 150.61036 254.15515 C 149.61848 250.78273 149.61848 250.65048 150.87487 249.72472 C 151.60225 249.19572 154.11503 246.8152 156.42943 244.3024 C 158.74383 241.85576 161.78561 238.81398 163.17425 237.5576 C 164.49677 236.3012 165.6209 234.91256 165.6209 234.44968 C 165.6209 233.9868 166.01766 233.32554 166.48054 233.06104 C 166.94342 232.79654 169.12557 230.28376 171.37384 227.5726 C 174.54788 223.60506 181.95396 215.93448 190.08743 207.9994 C 190.61643 207.47038 191.27769 207.33813 191.60832 207.66876 C 192.00507 208.06551 192.20345 228.16774 192.20345 256.13892 Z" fill="#f3f3f3"/>
        </g>
        <g id="Graphic_123">
          <path d="M 310.89913 210.64442 C 312.48615 212.03306 312.68453 212.6282 312.55228 215.40547 C 312.48615 217.12474 312.15552 218.844 311.8249 219.17464 C 311.49426 219.50526 309.90725 219.3069 308.05573 218.71176 C 306.27033 218.18275 302.50117 217.5215 299.7239 217.32312 C 294.16932 216.86024 293.64032 216.39736 295.49184 213.09107 C 296.88048 210.5783 300.319 209.12353 304.9478 209.0574 C 308.32023 209.0574 309.37824 209.3219 310.89913 210.64442 Z" fill="#f3f3f3"/>
        </g>
        <g id="Graphic_122">
          <path d="M 102.86759 222.28255 C 104.25623 222.28255 107.26495 221.4229 107.26495 221.6213 C 107.26495 221.81967 104.58686 223.86956 103.52885 224.92757 L 101.67732 226.84522 L 100.15643 225.19208 C 97.31303 222.21642 93.34548 223.40668 90.96496 228.03548 C 90.43595 229.0935 89.57632 229.55638 88.2538 229.55638 C 85.60877 229.55638 83.83164 230.1763 83.83164 230.1763 C 83.83164 230.1763 85.75756 228.89512 88.66709 227.5726 C 91.17987 226.31621 91.16333 225.98559 89.84082 220.1004 C 89.31181 217.786 90.36982 217.786 93.27936 219.96814 C 96.12276 222.1503 96.7179 222.08417 97.84203 219.43914 C 99.23067 216.06673 99.8258 216.0006 100.02418 219.24076 L 100.22256 222.28255 Z" fill="#f3f3f3"/>
        </g>
        <g id="Graphic_121">
          <path d="M 307.65897 220.29877 C 308.84924 220.76165 310.10562 221.6213 310.43625 222.28255 C 311.0975 223.53893 310.63463 227.37423 309.775 227.90323 C 309.44437 228.1016 307.79122 227.44035 305.9397 226.5146 C 303.8898 225.45658 300.5174 224.53082 296.6821 224.00181 C 293.3758 223.53893 290.46628 223.00993 290.2679 222.81155 C 289.54052 222.08417 290.7308 220.3649 292.45005 219.70364 C 294.6322 218.844 304.6833 219.24076 307.65897 220.29877 Z" fill="#f3f3f3"/>
        </g>
        <g id="Graphic_120">
          <path d="M 98.17266 226.2501 C 99.95806 228.03548 99.8258 229.95313 97.90816 231.73852 C 94.80025 234.64806 89.70857 247.41032 88.2538 256.00667 C 87.59254 259.9742 85.80715 263.21437 83.625 264.47076 C 81.5751 265.66102 79.65746 268.4383 79.65746 270.35595 C 79.59133 272.8026 77.34306 274.65412 70.79661 277.4314 C 67.15969 279.01842 66.16781 277.82816 69.07734 275.3815 C 75.49154 269.9592 76.35117 268.83506 76.35117 266.05778 C 76.35117 264.27238 76.88018 262.5531 77.87206 261.03222 C 79.59133 258.58557 81.37673 251.444 80.78159 249.72472 C 80.51709 249.19572 80.64934 248.73284 80.97997 248.73284 C 81.5751 248.73284 81.90573 249.6586 82.63311 253.2294 C 83.3605 256.93243 84.88139 255.3454 87.79092 247.74095 C 88.45218 245.88943 89.44406 243.11215 89.97307 241.459 C 90.5682 239.80586 91.75847 237.02858 92.6181 235.2432 C 93.80836 232.9949 94.07287 231.80465 93.60999 231.34177 C 91.95684 229.68863 93.87449 224.92757 96.18889 224.92757 C 96.58564 224.92757 97.44528 225.5227 98.17266 226.2501 Z" fill="#f3f3f3"/>
        </g>
        <g id="Graphic_119">
          <path d="M 300.319 226.58072 C 301.5754 227.10972 303.22855 227.5726 303.8898 227.5726 C 304.55106 227.5726 306.07195 228.43224 307.1961 229.42412 C 309.17986 231.20952 309.246 231.4079 308.5186 233.7223 C 308.05573 235.0448 307.39447 236.3012 307.06384 236.5657 C 306.7332 236.76408 305.27845 235.7722 303.95593 234.38355 C 300.98027 231.34177 297.54174 230.1515 290.40016 229.82088 C 287.55675 229.68863 284.91172 229.358 284.5811 229.15962 C 284.18434 228.89512 284.51497 228.1016 285.3746 227.17585 C 286.6971 225.72108 287.4245 225.58883 292.38393 225.58883 C 295.82247 225.58883 298.79812 225.98559 300.319 226.58072 Z" fill="#f3f3f3"/>
        </g>
        <g id="Graphic_118">
          <path d="M 104.28929 230.1763 C 107.00045 233.2842 107.26495 234.6398 107.26495 234.6398 C 107.26495 234.6398 107.0145 234.18122 104.32235 233.12717 C 101.56953 232.06075 99.8258 231.60627 100.81769 230.6144 C 101.14832 230.28376 101.47895 229.42412 101.47895 228.76287 C 101.47895 226.97747 102.04102 227.5974 104.28929 230.1763 Z" fill="#f3f3f3"/>
        </g>
        <g id="Graphic_117">
          <path d="M 299.39326 233.65617 C 300.71577 234.31743 302.76567 236.10282 303.82368 237.62371 C 306.79934 241.65738 306.33646 244.0379 302.76567 243.17828 C 301.50928 242.84765 301.17865 242.31864 301.17865 240.53325 C 301.17865 237.88822 299.85614 236.5657 297.80624 237.16083 C 296.9466 237.42534 295.3596 237.16083 293.77257 236.43345 C 291.3259 235.30931 291.0614 235.30931 287.75513 236.43345 C 285.83748 237.0947 283.91984 237.75597 283.52308 237.95434 C 282.46507 238.3511 281.0103 234.91256 281.86994 234.05293 C 282.20057 233.7223 283.91984 233.06104 285.70523 232.59816 C 289.80503 231.54015 296.08697 232.00303 299.39326 233.65617 Z" fill="#f3f3f3"/>
        </g>
        <g id="Graphic_116">
          <path d="M 91.56009 233.59005 C 91.56009 234.58193 87.55122 236.87153 87.55122 236.87153 C 87.55122 236.87153 88.58443 233.52392 89.84082 232.7304 C 90.63433 232.2014 91.56009 232.66428 91.56009 233.59005 Z" fill="#f3f3f3"/>
        </g>
        <g id="Graphic_115">
          <path d="M 293.77257 240.26874 C 293.90482 241.12838 293.5742 241.459 292.51618 241.459 C 291.72267 241.459 289.4744 242.38477 287.49062 243.5089 C 284.91172 244.96367 283.65533 246.22006 282.92795 247.93933 C 281.7377 250.78273 281.0103 251.37787 278.23302 251.37787 C 275.588 251.37787 272.34783 254.08902 270.9592 257.3953 C 269.83505 260.2387 268.4464 260.1726 269.10767 257.32918 C 269.30605 256.3373 269.23992 255.27928 268.84317 255.0809 C 267.71903 254.35352 262.62735 257.32918 259.51944 260.56934 C 257.8663 262.2886 255.15514 264.73526 253.502 266.05778 C 251.4521 267.71092 250.32796 269.1657 250.06346 270.55433 C 249.79896 271.87684 249.00545 272.8026 247.8813 273.3316 C 246.36042 274.059 245.96367 273.99287 244.90565 272.60423 C 243.4509 270.81883 243.31864 268.10768 244.57503 266.3884 C 245.23628 265.52877 245.96367 265.39652 247.6168 265.72715 C 249.1377 265.99165 249.99734 265.8594 250.52634 265.19814 C 250.9231 264.66914 252.31174 263.545 253.63425 262.7515 C 254.89064 261.95798 256.74216 260.63547 257.6018 259.84196 C 259.25494 258.32107 262.42897 255.67604 269.57055 249.9231 C 271.81883 248.00545 274.52998 246.48456 276.117 246.15393 C 277.6379 245.8233 279.62166 244.83142 280.61355 243.90566 C 284.5811 240.20262 287.49062 238.74785 290.59853 238.94623 C 292.7807 239.07848 293.64032 239.4091 293.77257 240.26874 Z" fill="#f3f3f3"/>
        </g>
        <g id="Graphic_114">
          <path d="M 299.7239 240.6655 C 299.85614 241.52513 299.5255 242.31864 298.86425 242.51702 C 297.34336 243.11215 296.35147 241.85576 296.88048 240.1365 C 297.4756 238.3511 299.45938 238.68173 299.7239 240.6655 Z" fill="#f3f3f3"/>
        </g>
        <g id="Graphic_113">
          <path d="M 292.5823 244.36854 C 292.5823 246.41844 285.57298 252.56813 284.51497 251.51012 C 283.19245 250.1876 285.3746 245.95556 288.28413 244.3024 C 291.65655 242.38477 292.5823 242.38477 292.5823 244.36854 Z" fill="#f3f3f3"/>
        </g>
        <g id="Graphic_112">
          <path d="M 301.3109 245.09592 C 303.0963 245.8233 305.21232 249.98923 305.01394 252.30363 C 304.74944 255.01478 303.16242 254.94866 301.70766 252.17138 C 300.2529 249.19572 298.53362 247.41032 296.54985 246.6168 C 294.96283 246.02168 294.96283 245.95556 296.08697 245.09592 C 297.27723 244.2363 299.261 244.2363 301.3109 245.09592 Z" fill="#f3f3f3"/>
        </g>
        <g id="Graphic_111">
          <path d="M 296.54985 248.73284 C 298.33524 249.6586 301.17865 255.94054 301.11253 258.71782 C 301.0464 261.09835 299.32713 264.66914 298.0046 265.13202 C 297.4756 265.26427 297.2111 264.3385 297.2111 261.82573 C 297.2111 257.1308 296.28535 254.15515 294.16932 251.973 C 291.45817 249.1296 293.1113 246.88132 296.54985 248.73284 Z" fill="#f3f3f3"/>
        </g>
        <g id="Graphic_110">
          <path d="M 294.6322 261.69348 L 295.1612 268.10768 L 291.3259 275.44763 C 289.2099 279.4813 286.6971 284.1101 285.70523 285.76325 C 284.77947 287.4164 282.99408 290.65655 281.67156 293.03708 C 279.2249 297.53363 278.89428 298.1949 275.8525 302.8898 C 274.8606 304.47683 272.94296 307.717 271.68658 310.16364 C 269.1738 314.9247 266.99165 318.89224 265.3385 321.47114 C 260.64358 329.0756 259.85007 330.0675 258.72593 330.0675 C 258.06468 330.0675 257.3373 329.6046 257.1389 329.0756 C 256.6099 327.68696 252.77462 325.63706 248.47644 324.38067 C 244.17827 323.1243 245.0379 322.52915 239.68172 330.332 C 236.70606 334.63016 235.44968 335.68817 234.32554 334.9608 C 233.00302 334.16728 233.86266 331.25775 236.24318 328.5466 C 237.63182 327.0257 239.74785 324.4468 241.00424 322.79365 C 242.26063 321.1405 245.36854 317.43747 247.94744 314.52794 C 250.52634 311.6184 254.22938 306.85735 256.21315 303.94782 C 259.9162 298.39326 262.7596 294.6241 266.72715 289.7308 C 268.97542 287.01963 286.3665 261.03222 289.93728 255.14703 L 291.45817 252.56813 L 292.7807 253.89064 C 293.8387 254.94866 294.23545 256.6018 294.6322 261.69348 Z" fill="#f3f3f3"/>
        </g>
        <g id="Graphic_109">
          <path d="M 284.3827 254.0229 C 288.54864 254.0229 288.218 256.00667 282.7957 262.42086 C 281.2748 264.27238 280.01842 266.05778 280.01842 266.3884 C 280.01842 266.78516 279.4233 267.57867 278.62978 268.30605 C 277.83627 268.9673 276.51375 271.0172 275.588 272.86873 C 274.66223 274.65412 273.47197 276.70402 272.87684 277.36528 C 271.95108 278.4233 271.7527 278.4233 270.6947 277.4314 C 269.76893 276.6379 269.23992 276.57177 268.1819 277.1669 C 266.52877 278.02654 266.39652 279.61355 267.85128 281.20057 C 268.4464 281.86183 268.71092 282.7876 268.51254 283.25047 C 266.5949 287.01963 262.89185 291.71456 261.83384 291.71456 C 261.4371 291.71456 260.77583 291.11943 260.4452 290.39205 C 259.85007 289.06953 259.85007 289.06953 257.66792 290.5243 C 255.08902 292.37582 254.2955 294.6241 255.8164 296.27724 C 257.73405 298.39326 256.8083 300.8399 252.11336 305.9316 C 251.12147 306.9896 249.00545 309.7669 247.48456 312.01516 C 244.7734 315.9827 242.459 317.63585 243.31864 314.9247 C 243.78152 313.33768 242.1945 312.0813 239.94623 312.3458 C 235.97868 312.80867 236.24318 316.9746 240.27685 317.37134 C 241.401 317.5036 242.32675 317.7681 242.32675 317.90035 C 242.32675 318.42936 237.16894 324.7113 233.79653 328.21596 L 230.887 331.32387 L 228.8371 330.26586 C 227.38234 329.47235 224.93568 329.14172 220.373 329.14172 C 214.48782 329.0756 213.8927 328.94335 213.8927 327.8192 C 213.8927 326.0338 218.98437 314.4618 221.29877 310.95715 C 223.61317 307.4525 228.5726 302.6253 231.28375 301.23667 C 232.27564 300.70766 233.06915 300.0464 233.06915 299.71577 C 233.06915 298.65776 243.84764 292.37582 252.31174 288.40827 C 255.35352 287.01963 262.36285 280.4732 265.8014 275.8444 C 269.23992 271.2156 270.56244 269.1657 273.67035 263.47887 C 274.66223 261.56123 275.78637 259.9742 276.117 259.9742 C 276.44763 259.9742 276.71213 260.9661 276.71213 262.2225 C 276.71213 264.99977 277.3734 265.52877 279.62166 264.5369 C 282.0683 263.41275 281.93606 260.89997 279.35716 259.4452 C 277.70402 258.51945 277.4395 258.05657 277.77014 256.66792 C 278.29915 254.41965 279.35716 253.2294 280.4813 253.69227 C 281.0103 253.89064 282.7957 254.0229 284.3827 254.0229 Z" fill="#f3f3f3"/>
        </g>
        <g id="Graphic_108">
          <path d="M 74.3674 267.77705 C 74.3674 268.50443 72.91263 269.89307 72.251375 269.89307 C 71.92075 269.89307 71.98687 269.29794 72.38363 268.57056 C 73.11101 267.24804 74.3674 266.71904 74.3674 267.77705 Z" fill="#f3f3f3"/>
        </g>
        <g id="Graphic_107">
          <path d="M 86.99741 267.9093 C 88.5183 268.76893 89.97307 272.07522 90.63433 276.175 C 90.96496 278.75392 90.8327 279.61355 89.70857 281.13444 C 88.91506 282.12633 87.7248 284.70523 86.93129 286.82126 C 84.74914 293.03708 85.27814 306.7251 87.59254 305.27034 C 87.9893 305.07196 88.05542 305.27034 87.85705 305.79934 C 87.59254 306.59285 89.24569 310.89102 90.8327 313.53605 C 93.41161 317.70197 96.25501 327.42246 94.9325 327.42246 C 93.74224 327.42246 92.08909 324.31455 92.55197 322.85978 C 92.81648 321.93402 92.28747 320.8099 90.70045 319.0245 C 89.44406 317.63585 88.2538 315.51982 87.9893 314.26344 C 87.79092 313.00705 86.86516 311.0894 86.00553 309.96526 C 85.14589 308.84113 84.22013 306.85735 83.95563 305.60096 C 83.69113 304.34458 83.02987 302.49306 82.50086 301.43504 C 81.90573 300.24478 81.77348 299.2529 82.17023 298.4594 C 82.50086 297.86425 83.02987 295.28535 83.29437 292.8387 C 83.55887 290.32592 84.48464 286.75513 85.34427 284.9036 C 87.26192 280.67156 87.39417 278.4894 85.6749 278.4894 C 85.01364 278.4894 84.02175 278.9523 83.55887 279.54743 C 81.24447 282.39083 77.47531 283.91173 67.754825 286.16 C 60.61325 287.74702 53.537794 286.49063 52.08303 283.3166 C 51.025016 281.13444 51.223393 280.93607 53.47167 281.7957 C 56.315074 282.8537 60.28262 282.5892 63.258276 281.06832 C 64.71304 280.34094 66.56456 279.87806 67.291945 280.07643 C 68.01933 280.2748 69.474094 279.94418 70.46598 279.41518 C 71.45787 278.9523 72.84651 278.4894 73.57389 278.4894 C 76.54955 278.4894 81.5751 272.93485 81.64123 269.49632 C 81.64123 268.76893 81.83961 267.9093 82.10411 267.71092 C 82.76537 267.04966 85.54265 267.1819 86.99741 267.9093 Z" fill="#f3f3f3"/>
        </g>
        <g id="Graphic_106">
          <path d="M 54.926434 271.14946 C 57.04246 273.0671 57.63759 273.3316 61.34063 274.12512 C 64.051785 274.72025 62.86152 275.8444 59.95199 275.3815 C 55.058685 274.72025 52.81041 273.8606 50.76051 271.87684 C 46.065586 267.44642 49.967004 266.8513 54.926434 271.14946 Z" fill="#f3f3f3"/>
        </g>
        <g id="Graphic_105">
          <path d="M 257.53567 271.8355 C 257.53567 271.8355 253.30362 271.87684 252.90687 271.87684 C 252.57624 271.87684 252.2456 271.41396 252.2456 270.81883 C 252.2456 270.28983 252.57624 270.02532 252.90687 270.2237 C 253.30362 270.42208 257.53567 271.8355 257.53567 271.8355 Z" fill="#f3f3f3"/>
        </g>
        <g id="Graphic_104">
          <path d="M 241.33487 271.87684 C 241.1365 272.20747 240.6736 272.5381 240.27685 272.5381 C 239.94623 272.5381 237.07802 272.9514 237.07802 272.9514 C 237.07802 272.9514 240.1446 271.2156 240.73973 271.2156 C 241.26874 271.2156 241.53324 271.4801 241.33487 271.87684 Z" fill="#f3f3f3"/>
        </g>
        <g id="Graphic_103">
          <path d="M 52.81041 275.51376 C 55.25706 276.77015 57.10858 277.1669 60.348744 277.1669 C 65.17592 277.1669 65.57268 278.09266 61.47288 279.54743 C 57.50534 280.86994 54.000674 280.07643 51.42177 277.23303 C 49.57025 275.31538 48.710615 273.8606 49.438 273.8606 C 49.504124 273.8606 51.025016 274.588 52.81041 275.51376 Z" fill="#f3f3f3"/>
        </g>
        <g id="Graphic_102">
          <path d="M 82.96374 284.70523 C 82.96374 285.69712 77.73981 289.06953 70.59823 292.70645 C 66.96132 294.55797 65.04367 295.08697 61.869636 295.21923 C 57.96822 295.35148 57.63759 295.21923 56.1167 293.3677 C 55.25706 292.24357 54.52968 290.72268 54.52968 289.92917 C 54.52968 288.54053 54.79418 288.4744 60.67937 288.54053 C 66.829065 288.54053 74.6319 287.08576 79.65746 284.8375 C 82.56699 283.5811 82.96374 283.5811 82.96374 284.70523 Z" fill="#f3f3f3"/>
        </g>
        <g id="Graphic_101">
          <path d="M 81.24447 290.32592 C 81.44285 290.65655 81.3106 292.5742 80.84772 294.69022 C 80.18646 298.12876 79.85583 298.59164 77.07855 300.37703 C 75.42541 301.43504 73.640015 302.29468 73.177135 302.29468 C 72.714255 302.29468 71.39174 302.75756 70.33373 303.3527 C 67.6887 304.6752 62.200264 305.53484 60.87775 304.80746 C 59.48911 304.01395 56.97633 299.12064 57.373086 297.9965 C 57.63759 297.4675 59.555235 297.07075 62.663144 296.87237 C 66.56456 296.60787 68.680586 296.07886 72.51588 294.22734 C 75.16091 292.90482 77.93819 291.38393 78.66557 290.7888 C 80.18646 289.59854 80.78159 289.5324 81.24447 290.32592 Z" fill="#f3f3f3"/>
        </g>
        <g id="Graphic_100">
          <path d="M 260.51133 293.69833 C 261.04033 295.28535 260.4452 296.34336 259.1227 296.34336 C 257.80017 296.34336 257.20504 294.55797 258.19693 293.3677 C 259.32106 292.0452 259.98232 292.1113 260.51133 293.69833 Z" fill="#f3f3f3"/>
        </g>
        <g id="Graphic_99">
          <path d="M 81.3106 303.8817 C 82.56699 306.85735 82.23636 307.5186 78.46719 309.96526 C 71.92075 314.1973 67.35807 314.6602 63.98566 311.42003 C 60.87775 308.37825 61.07613 307.188 64.977545 306.7251 C 69.60635 306.12997 74.8964 304.47683 76.88018 303.02206 C 79.39295 301.1044 80.25259 301.3028 81.3106 303.8817 Z" fill="#f3f3f3"/>
        </g>
        <g id="Graphic_98">
          <path d="M 84.68301 312.6103 L 85.87328 315.7182 L 83.55887 317.56972 C 80.71547 319.95025 74.23515 322.3969 72.44975 321.80177 C 70.66436 321.27276 67.35807 316.9746 68.15158 316.31333 C 68.87896 315.7182 72.582 314.4618 75.35928 313.9328 C 76.48342 313.6683 78.40107 312.6103 79.65746 311.55228 C 80.91385 310.42814 82.30249 309.5685 82.76537 309.5685 C 83.16212 309.5685 84.02175 310.95715 84.68301 312.6103 Z" fill="#f3f3f3"/>
        </g>
        <g id="Graphic_97">
          <path d="M 241.6655 314.1312 C 241.6655 314.85857 241.33487 315.65208 240.9381 315.91658 C 239.94623 316.5117 238.75596 315.12307 239.21884 313.9328 C 239.81397 312.4119 241.6655 312.6103 241.6655 314.1312 Z" fill="#f3f3f3"/>
        </g>
        <g id="Graphic_96">
          <path d="M 88.91506 319.95025 C 91.09721 322.72753 90.50208 325.30643 87.06354 327.88534 C 83.16212 330.861 80.51709 330.79487 77.34306 327.7531 C 76.02054 326.4967 75.09478 325.2403 75.29316 324.90968 C 75.49154 324.57905 77.60756 323.3888 79.98809 322.1324 C 82.36861 320.94213 84.61689 319.5535 85.01364 319.0245 C 86.13778 317.70197 87.32804 317.96648 88.91506 319.95025 Z" fill="#f3f3f3"/>
        </g>
        <g id="Graphic_95">
          <path d="M 190.68256 324.4468 C 192.6002 325.37256 195.04685 326.82732 196.10487 327.68696 C 197.16288 328.5466 199.67566 330.1336 201.79168 331.1255 C 205.36247 332.77864 205.89147 332.84477 211.24766 332.3819 C 218.38924 331.6545 224.34055 331.58838 226.5227 332.1835 C 228.96935 332.9109 233.00302 337.20906 233.7304 339.98634 C 234.4578 342.82975 233.53203 346.5989 232.01114 346.5989 C 231.54826 346.5989 230.6225 345.4748 230.0935 344.15226 C 228.70485 340.84598 226.65495 338.72996 223.48092 337.2752 C 220.17463 335.7543 216.86835 335.68817 212.04117 337.0768 C 206.15598 338.7961 199.2789 337.2752 194.31947 333.1754 C 188.30203 328.21596 182.74747 326.7612 180.16857 329.53848 C 178.51542 331.32387 178.51542 332.448 180.10244 333.37377 C 181.22658 333.9689 181.42495 333.77053 181.62333 332.1835 C 181.75558 330.79487 182.21846 330.332 183.6071 330.19974 C 185.59088 329.93523 191.14544 332.58026 192.99696 334.63016 C 193.72434 335.42367 194.51785 336.0188 194.9146 336.0188 C 195.24523 336.0188 196.30324 336.5478 197.229 337.20906 C 201.5933 340.18472 210.78478 341.24273 213.1653 339.0606 C 214.22332 338.0687 217.59573 338.26708 223.28254 339.6557 C 225.06794 340.1186 226.98558 343.35876 226.58883 345.14415 C 226.45658 345.67316 226.7872 346.40054 227.3162 346.7973 C 229.49836 348.5827 229.1016 349.70683 225.92757 350.8971 C 218.38924 353.67437 214.9507 357.77417 215.01683 363.85773 C 215.08295 368.9494 217.72798 372.7186 223.1503 375.6281 C 225.33244 376.81838 227.11783 378.00864 227.11783 378.27314 C 227.11783 379.1989 220.43913 386.47273 217.86023 388.32425 C 212.9008 391.96117 204.63509 396.32547 203.6432 395.9287 C 202.71744 395.5981 202.71744 395.3336 203.57707 393.74656 C 204.10608 392.68855 205.4286 390.7709 206.55273 389.31614 C 208.66876 386.6711 209.0655 385.6131 207.94137 385.6131 C 207.61074 385.6131 206.55273 387.06786 205.62697 388.9194 C 202.32069 395.3997 199.14665 397.78023 188.63266 401.8139 C 181.75558 404.3928 175.40751 403.8638 172.0351 400.35914 C 169.91908 398.11086 167.34017 392.3579 165.95153 386.80336 C 163.96776 378.86827 163.76938 378.00864 163.042 374.0411 C 159.66959 354.46788 160.06634 346.5328 164.23226 350.1697 C 167.20792 352.6825 173.2915 352.61636 175.34139 349.97133 C 177.39129 347.45855 178.84605 343.82164 178.84605 341.24273 C 178.84605 338.46545 177.65579 333.30765 176.79615 332.7125 C 176.59778 332.51414 176.06877 331.72063 175.6059 330.861 C 172.36573 324.7113 182.21846 320.54538 190.68256 324.4468 Z" fill="#f3f3f3"/>
        </g>
        <g id="Graphic_94">
          <path d="M 250.72472 326.82732 C 253.89875 328.0176 258.19693 331.919 257.73405 333.2415 C 257.00666 335.15917 253.96488 339.3251 253.17137 339.3251 C 252.77462 339.3251 251.31985 338.46545 249.99734 337.40744 C 248.6087 336.2833 246.42655 335.09304 245.10403 334.63016 C 241.53324 333.50602 241.33487 333.10927 242.988 330.3981 C 245.7653 325.9677 246.95555 325.37256 250.72472 326.82732 Z" fill="#f3f3f3"/>
        </g>
        <g id="Graphic_93">
          <path d="M 92.8826 329.40623 C 93.34548 330.46424 94.07287 331.39 94.60187 331.39 C 95.99051 331.39 96.58564 335.0269 96.85015 345.14415 C 97.04852 352.02123 95.72601 354.07112 94.27124 349.04557 C 93.80836 347.52468 92.41972 344.41677 91.16333 342.1685 C 88.45218 337.3413 88.45218 336.8123 90.50208 336.2833 C 92.28747 335.88655 94.9325 333.37377 93.60999 333.37377 C 93.14711 333.37377 91.69234 334.10115 90.36982 335.0269 C 87.39417 337.0768 86.93129 337.0768 85.14589 334.7624 L 83.69113 332.9109 L 86.66678 330.861 C 88.2538 329.73686 89.57632 328.48047 89.57632 328.0837 C 89.57632 326.4967 92.08909 327.5547 92.8826 329.40623 Z" fill="#f3f3f3"/>
        </g>
        <g id="Graphic_92">
          <path d="M 246.22817 337.40744 C 248.74095 338.8622 251.05535 340.6476 251.25372 341.30886 C 251.7166 342.76362 249.99734 346.46667 248.6087 346.99567 C 247.68294 347.39243 244.04602 345.7393 242.1945 344.15226 C 241.59937 343.62326 240.07848 342.6975 238.8882 342.10237 C 236.17706 340.71373 235.71418 338.46545 237.76408 336.2833 C 239.81397 334.10115 240.80586 334.2334 246.22817 337.40744 Z" fill="#f3f3f3"/>
        </g>
        <g id="Graphic_91">
          <path d="M 240.73973 346.0699 C 242.52513 347.26017 244.37665 348.5827 244.83953 349.04557 C 245.3024 349.50845 246.0298 349.9052 246.36042 349.9052 C 247.8813 349.9052 244.7734 357.0468 240.87199 362.5352 C 236.90444 368.0898 231.61438 374.37172 230.42412 375.033 C 226.7872 377.01675 219.11662 370.7348 217.7941 364.71737 C 216.4716 358.76605 218.71987 355.5259 225.4647 353.60824 C 228.90323 352.55023 229.76286 351.82285 234.2594 345.93766 C 235.11905 344.87965 236.17706 343.9539 236.63994 343.9539 C 237.10282 343.9539 238.95434 344.94577 240.73973 346.0699 Z" fill="#f3f3f3"/>
        </g>
        <g id="Graphic_90">
          <path d="M 270.2318 104.77712 C 269.37217 105.63676 268.77704 107.15765 268.77704 108.28179 C 268.77704 112.11708 271.81883 114.10085 278.56365 114.76211 C 282.33282 115.09274 283.91984 115.55562 285.6391 116.87813 C 288.4825 119.06028 289.14377 120.84568 289.4744 128.38401 C 289.60665 131.82255 290.13565 135.45946 290.59853 136.45135 C 291.98717 139.427 298.07074 140.74952 299.9884 138.43512 C 301.3109 136.91423 301.90603 135.12883 301.17865 134.66595 C 300.84802 134.46758 300.5174 134.99658 300.38514 135.79009 C 300.0545 138.03837 297.4095 139.09638 295.0951 137.90611 C 292.45005 136.51747 291.85492 134.99658 291.2598 127.52437 C 290.66466 119.39091 290.13565 117.93614 286.8955 115.48949 C 284.71334 113.83635 283.8537 113.57185 279.7539 113.57185 C 275.98475 113.50572 274.66223 113.24122 272.94296 111.98483 C 271.15757 110.72844 270.7608 110.00106 270.7608 107.95116 C 270.7608 106.62864 271.09144 105.17388 271.55432 104.711 C 271.95108 104.31424 272.14946 103.78524 272.0172 103.58686 C 271.81883 103.38848 271.02532 103.91749 270.2318 104.77712 Z" fill="black"/>
        </g>
        <g id="Graphic_89">
          <path d="M 102.80146 126.40024 C 102.80146 126.73087 103.99173 127.65663 105.44649 128.38401 C 109.94304 130.69841 110.8688 134.99658 107.56251 138.30287 C 104.78523 141.01402 100.94994 141.93978 93.08098 141.7414 C 85.74102 141.54303 84.22013 142.00591 80.71547 145.3122 C 79.65746 146.30408 78.07044 148.6846 77.210805 150.66838 C 75.55766 154.3053 73.640015 156.15682 71.52399 156.15682 C 69.40797 156.15682 66.43231 154.17304 66.03556 152.5199 C 65.83718 151.59414 65.3743 151.06513 65.04367 151.26351 C 64.71304 151.46189 64.84529 152.38765 65.3743 153.37954 C 68.94509 160.25661 75.88829 158.80185 78.79782 150.66838 C 80.38484 146.30408 83.55887 143.92356 88.65056 143.2623 C 91.03108 142.9978 93.01485 143.13005 94.27124 143.59293 C 96.85015 144.71706 103.6611 143.32842 106.63675 141.14628 C 112.25744 136.98035 111.99294 130.03715 106.10775 127.0615 C 103.13209 125.5406 102.80146 125.47448 102.80146 126.40024 Z" fill="black"/>
        </g>
        <g id="Graphic_88">
          <path d="M 185.9215 139.36088 C 185.32637 140.02214 186.71501 141.60916 187.90528 141.60916 C 189.16166 141.60916 188.69878 139.36088 187.37627 139.09638 C 186.84726 139.03025 186.186 139.09638 185.9215 139.36088 Z" fill="black"/>
        </g>
        <g id="Graphic_87">
          <path d="M 44.676946 147.49435 C 43.22218 150.2055 44.214066 152.85053 46.726843 152.85053 C 48.18161 152.85053 49.37187 150.66838 49.10737 148.35398 C 48.842867 146.03958 45.73496 145.44445 44.676946 147.49435 Z" fill="black"/>
        </g>
        <g id="Graphic_86">
          <path d="M 47.652604 148.55236 C 47.917107 149.08136 47.85098 150.07325 47.652604 150.66838 C 47.25585 151.66027 47.1236 151.66027 46.13171 150.7345 C 45.0737 149.61037 45.338203 147.56047 46.59459 147.56047 C 46.991346 147.56047 47.454227 148.02335 47.652604 148.55236 Z" fill="#f3f3f3"/>
        </g>
        <g id="Graphic_85">
          <path d="M 52.54591 152.18927 C 50.95889 153.77629 50.95889 154.10692 52.281405 156.02456 C 54.3313 159.00022 57.90209 156.75195 56.57958 153.31341 C 55.71994 151.06513 54.0668 150.66838 52.54591 152.18927 Z" fill="black"/>
        </g>
        <g id="Graphic_84">
          <path d="M 55.19094 154.5698 C 55.19094 155.0988 54.926434 155.49556 54.52968 155.49556 C 54.19905 155.49556 53.86842 154.90043 53.86842 154.10692 C 53.86842 153.37954 54.19905 152.98278 54.52968 153.18116 C 54.926434 153.37954 55.19094 154.0408 55.19094 154.5698 Z" fill="#f3f3f3"/>
        </g>
        <g id="Graphic_83">
          <path d="M 132.29354 148.1556 C 131.36778 149.21361 131.30165 149.6765 131.89678 150.86676 C 132.9548 152.91666 136.79009 152.5199 137.05459 150.33775 C 137.51747 147.16372 134.40956 145.77508 132.29354 148.1556 Z" fill="black"/>
        </g>
        <g id="Graphic_82">
          <path d="M 135.86433 149.54424 C 135.86433 149.87487 135.40145 150.2055 134.87244 150.2055 C 134.34344 150.2055 133.88056 149.87487 133.88056 149.54424 C 133.88056 149.14749 134.34344 148.88299 134.87244 148.88299 C 135.40145 148.88299 135.86433 149.14749 135.86433 149.54424 Z" fill="#f3f3f3"/>
        </g>
        <g id="Graphic_81">
          <path d="M 265.53688 153.77629 C 264.21437 155.3633 264.87563 158.4051 266.5949 158.6696 C 269.90118 159.13247 272.14946 155.82619 269.9673 153.64404 C 268.9093 152.58603 266.46264 152.65215 265.53688 153.77629 Z" fill="black"/>
        </g>
        <g id="Graphic_80">
          <path d="M 269.4383 155.76006 C 269.4383 156.75195 267.85128 157.61158 267.19003 157.01645 C 266.3304 156.09069 266.8594 154.8343 268.1158 154.8343 C 268.84317 154.8343 269.4383 155.23106 269.4383 155.76006 Z" fill="#f3f3f3"/>
        </g>
        <g id="Graphic_79">
          <path d="M 277.77014 161.18237 C 276.51375 162.37263 276.51375 162.24038 277.3734 164.3564 C 278.10077 166.34018 279.29103 166.53856 281.34093 164.88541 C 282.5312 163.89353 282.66345 163.49677 282.0683 161.90975 C 281.2748 159.85986 279.35716 159.52923 277.77014 161.18237 Z" fill="black"/>
        </g>
        <g id="Graphic_78">
          <path d="M 280.7458 163.62902 C 280.41517 163.95965 279.62166 164.0919 279.02653 163.8274 C 278.10077 163.49677 278.03465 163.23227 278.6959 162.43876 C 279.35716 161.64525 279.7539 161.57913 280.4813 162.17426 C 281.07643 162.70326 281.14255 163.23227 280.7458 163.62902 Z" fill="#f3f3f3"/>
        </g>
        <g id="Graphic_77">
          <path d="M 253.70038 170.7706 C 252.444 171.23348 252.1795 171.76249 252.37786 173.48176 C 252.5101 175.33328 252.90687 175.73003 254.42776 175.86228 C 255.48577 175.99453 256.74216 175.73003 257.27117 175.26715 C 258.3953 174.3414 258.46143 171.89474 257.40342 170.83673 C 256.47766 169.91097 255.8164 169.91097 253.70038 170.7706 Z" fill="black"/>
        </g>
        <g id="Graphic_76">
          <path d="M 256.54378 173.085 C 256.54378 173.74626 256.01478 174.40752 255.41965 174.53977 C 254.22938 174.73815 253.70038 172.75437 254.69226 171.76249 C 255.48577 171.0351 256.54378 171.76249 256.54378 173.085 Z" fill="#f3f3f3"/>
        </g>
        <g id="Graphic_75">
          <path d="M 224.14218 208.13164 C 223.54704 208.72677 223.1503 209.98316 223.28254 210.97505 C 223.48092 212.4298 223.81155 212.69431 225.92757 212.8927 C 228.10972 213.09107 228.5726 212.8927 229.23386 211.30567 C 229.96124 209.78478 229.89511 209.45415 228.50647 208.33002 C 226.65495 206.80912 225.53082 206.743 224.14218 208.13164 Z" fill="black"/>
        </g>
        <g id="Graphic_74">
          <path d="M 227.7791 209.98316 C 227.7791 211.30567 226.5227 212.03306 225.66307 211.17342 C 225.2663 210.77667 225.2002 210.18154 225.39856 209.78478 C 226.05982 208.72677 227.7791 208.92515 227.7791 209.98316 Z" fill="#f3f3f3"/>
        </g>
        <g id="Graphic_73">
          <path d="M 216.66997 221.35679 C 215.4797 222.1503 215.34745 222.61317 215.87646 223.67119 C 216.80222 225.32433 219.315 225.2582 220.8359 223.60506 C 223.28254 220.96003 219.91013 219.04238 216.66997 221.35679 Z" fill="black"/>
        </g>
        <g id="Graphic_72">
          <path d="M 219.18275 222.61317 C 219.18275 223.14218 218.71987 223.60506 218.19086 223.60506 C 217.13285 223.60506 216.86835 222.81155 217.66185 222.08417 C 218.38924 221.29066 219.18275 221.55516 219.18275 222.61317 Z" fill="#f3f3f3"/>
        </g>
        <g id="Graphic_71">
          <path d="M 115.2331 162.83551 C 113.51383 163.8274 113.77833 166.53856 115.69598 167.79494 C 117.21687 168.78683 117.48137 168.78683 119.00227 167.79494 C 120.98604 166.53856 121.11829 164.75316 119.46515 163.23227 C 118.0765 161.97588 116.88624 161.84363 115.2331 162.83551 Z" fill="black"/>
        </g>
        <g id="Graphic_70">
          <path d="M 117.812 165.67892 C 117.5475 166.27405 117.08462 166.73693 116.68787 166.73693 C 115.56373 166.73693 115.10085 164.68703 116.09273 164.02578 C 117.283 163.2984 118.34101 164.3564 117.812 165.67892 Z" fill="#f3f3f3"/>
        </g>
        <g id="Graphic_69">
          <path d="M 146.51057 206.01562 C 145.0558 207.73488 146.97345 210.64442 149.61848 210.90892 C 152.52801 211.17342 153.85053 210.04929 153.58602 207.47038 C 153.38765 205.55274 153.18927 205.42048 150.34586 205.2221 C 148.29596 205.08986 147.03958 205.35436 146.51057 206.01562 Z" fill="black"/>
        </g>
        <g id="Graphic_68">
          <path d="M 151.40387 207.801 C 151.66838 208.59452 151.53612 209.52028 151.2055 209.8509 C 150.08136 210.97505 148.42822 209.91703 148.42822 208.06551 C 148.42822 205.9495 150.74262 205.75111 151.40387 207.801 Z" fill="#f3f3f3"/>
        </g>
        <g id="Graphic_67">
          <path d="M 158.9422 220.69553 C 158.08257 223.14218 159.66959 225.58883 162.18237 225.58883 C 164.36452 225.58883 165.6209 224.53082 165.6209 222.61317 C 165.6209 219.1085 160.1986 217.5215 158.9422 220.69553 Z" fill="black"/>
        </g>
        <g id="Graphic_66">
          <path d="M 162.57912 221.35679 C 163.83551 222.61317 163.37263 223.60506 161.58724 223.60506 C 160.33085 223.60506 159.80184 221.68741 160.79373 220.76165 C 161.38886 220.16652 161.38886 220.16652 162.57912 221.35679 Z" fill="#f3f3f3"/>
        </g>
        <g id="Graphic_65">
          <path d="M 197.36126 273.7945 C 196.4355 275.57988 196.50162 278.6878 197.55963 279.94418 C 198.2209 280.86994 198.61764 280.86994 200.5353 280.07643 C 202.3868 279.28292 202.65131 278.82004 202.65131 276.6379 C 202.65131 275.24925 202.32069 273.7945 201.8578 273.3316 C 200.66754 272.14135 198.15476 272.40585 197.36126 273.7945 Z" fill="black"/>
        </g>
        <g id="Graphic_64">
          <path d="M 201.26267 275.71213 C 202.05618 277.23303 201.13042 278.82004 199.74178 278.29104 C 198.41927 277.76203 198.28702 274.52187 199.67566 274.52187 C 200.20466 274.52187 200.93204 275.05088 201.26267 275.71213 Z" fill="#f3f3f3"/>
        </g>
        <g id="Graphic_63">
          <path d="M 196.50162 296.145 C 195.64199 297.00462 196.03874 300.17865 197.229 301.50117 C 198.08864 302.55918 198.68377 302.69143 199.87403 302.29468 C 201.46105 301.63342 201.72555 299.98028 200.5353 297.33525 C 199.8079 295.74823 197.55963 295.08697 196.50162 296.145 Z" fill="black"/>
        </g>
        <g id="Graphic_62">
          <path d="M 200.40304 298.39326 C 200.93204 299.31902 199.0144 301.23667 198.08864 300.70766 C 197.69188 300.44316 197.36126 299.64965 197.36126 298.92227 C 197.36126 297.53363 199.60953 297.13687 200.40304 298.39326 Z" fill="#f3f3f3"/>
        </g>
        <g id="Graphic_61">
          <path d="M 95.52763 227.90323 C 94.86637 228.69674 94.9325 228.96124 95.85826 229.29187 C 97.37915 229.887 98.50329 228.63062 97.31303 227.63873 C 96.58564 227.0436 96.18889 227.10972 95.52763 227.90323 Z" fill="black"/>
        </g>
        <g id="Graphic_60">
          <path d="M 245.43466 269.03344 C 244.57503 269.82694 244.97178 270.55433 246.2943 270.55433 C 247.02168 270.55433 247.6168 270.09145 247.6168 269.56244 C 247.6168 268.57056 246.22817 268.1738 245.43466 269.03344 Z" fill="black"/>
        </g>
        <g id="Graphic_59">
          <path d="M 253.1794 278.61395 C 253.1794 278.61395 250.0067 275.81287 249.71187 275.5474 C 249.46616 275.32616 249.53018 274.76094 249.9284 274.31867 C 250.28238 273.92554 250.70507 273.9502 250.81803 274.31887 C 250.98014 274.73177 253.1794 278.61395 253.1794 278.61395 Z" fill="#f3f3f3"/>
        </g>
        <g id="Graphic_58">
          <path d="M 244.7409 280.5267 C 244.7409 280.5267 244.69958 276.29465 244.69958 275.8979 C 244.69958 275.56727 245.16246 275.23664 245.7576 275.23664 C 246.2866 275.23664 246.5511 275.56727 246.35272 275.8979 C 246.15435 276.29465 244.7409 280.5267 244.7409 280.5267 Z" fill="#f3f3f3"/>
        </g>
        <g id="Graphic_57">
          <path d="M 242.27332 267.24893 C 241.9362 267.43607 241.37002 267.49097 241.02642 267.2926 C 240.7401 267.12727 238.0495 266.0511 238.0495 266.0511 C 238.0495 266.0511 241.57315 266.08113 242.08855 266.3787 C 242.54668 266.6432 242.6435 267.00452 242.27332 267.24893 Z" fill="#f3f3f3"/>
        </g>
        <g id="Graphic_56">
          <path d="M 245.2602 264.0123 C 245.07305 263.6752 245.01816 263.109 245.21653 262.7654 C 245.38185 262.47908 246.45803 259.7885 246.45803 259.7885 C 246.45803 259.7885 246.428 263.31214 246.13043 263.82754 C 245.86592 264.28567 245.5046 264.38248 245.2602 264.0123 Z" fill="#f3f3f3"/>
        </g>
        <g id="Graphic_55">
          <path d="M 241.8491 274.22565 C 241.96208 274.5943 241.89805 275.15953 241.63257 275.45437 C 241.41134 275.70008 239.79927 278.1081 239.79927 278.1081 C 239.79927 278.1081 240.56126 274.66772 240.95948 274.22545 C 241.31345 273.83233 241.687 273.81275 241.8491 274.22565 Z" fill="#f3f3f3"/>
        </g>
        <g id="Graphic_54">
          <path d="M 99.33454 234.87456 C 99.60256 235.15175 99.80212 235.68443 99.69943 236.06766 C 99.61386 236.38703 99.27072 239.26446 99.27072 239.26446 C 99.27072 239.26446 98.38775 235.85312 98.54178 235.27826 C 98.6787 234.76728 99.00265 234.58025 99.33454 234.87456 Z" fill="#f3f3f3"/>
        </g>
      </g>
    </g>
  </g>
</svg>
