<?xml version="1.0" encoding="UTF-8" standalone="no"?>
<!DOCTYPE svg PUBLIC "-//W3C//DTD SVG 1.1//EN" "http://www.w3.org/Graphics/SVG/1.1/DTD/svg11.dtd">
<svg xmlns="http://www.w3.org/2000/svg" xmlns:dc="http://purl.org/dc/elements/1.1/" xmlns:xl="http://www.w3.org/1999/xlink" version="1.1" viewBox="33.08369 61.827035 297.6663 340.92296" width="297.6663" height="340.92296">
  <defs>
    <clipPath id="artboard_clip_path">
      <path d="M 33.08369 61.827035 L 330.75 61.827035 L 330.75 402.75 L 33.08369 402.75 Z"/>
    </clipPath>
  </defs>
  <g id="Bones,_Two,_In_Cross" fill="none" stroke-opacity="1" stroke-dasharray="none" stroke="none" fill-opacity="1">
    <title>Bones, Two, In Cross</title>
    <g id="Bones,_Two,_In_Cross_Layer_2" clip-path="url(#artboard_clip_path)">
      <title>Layer 2</title>
      <g id="Group_3">
        <g id="Graphic_85">
          <path d="M 192.64864 64.594686 C 186.75555 66.03661 184.05978 67.666614 183.55824 69.98623 C 183.37016 71.052004 182.3044 73.18355 181.30131 74.87624 C 180.23554 76.50624 179.16977 79.20202 178.9817 80.83202 C 178.29208 85.47126 176.72477 90.0478 175.47092 90.80011 C 173.84092 91.86588 169.51514 89.60896 168.63745 87.16395 C 168.2613 86.16087 167.63437 84.59356 167.25821 83.59049 C 166.25513 81.08279 163.2459 78.95125 160.04859 78.57509 C 156.41243 78.19894 150.77011 80.89471 145.9428 85.47126 C 142.68279 88.54319 142.36933 89.10742 141.30356 93.62127 C 139.61086 100.95628 140.1751 106.91206 143.12164 113.05592 C 144.43818 115.75169 145.8801 117.94593 146.38164 117.94593 C 146.82049 117.94593 148.07434 119.19977 149.1401 120.76708 C 150.20588 122.2717 151.6478 123.9644 152.33742 124.40324 C 155.09589 126.34671 155.53473 130.35902 155.72281 156.50176 C 155.8482 171.23447 156.22435 182.45642 156.6632 184.71334 C 157.35281 188.4122 158.48128 198.94452 158.73205 204.46145 L 158.85743 207.2826 L 156.6632 207.15723 C 155.47204 207.09453 144.87702 206.84376 133.15354 206.71838 C 106.94812 206.27953 92.15271 205.7153 90.83617 205.02568 C 88.14039 203.64645 83.81462 201.82837 81.05615 201.01337 C 78.9873 200.38644 76.60499 198.81913 73.72114 196.31144 C 71.33883 194.2426 69.0819 192.5499 68.64305 192.5499 C 68.14151 192.5499 67.138435 191.54682 66.323434 190.41835 C 65.50843 189.2272 64.19189 187.91066 63.37689 187.5972 C 61.55881 186.7195 56.229956 186.7195 54.349184 187.5345 C 53.53418 187.84796 51.33995 188.53758 49.396483 189.1018 C 45.44686 190.16758 40.619546 194.05451 37.484926 198.63106 C 35.854923 201.01337 35.666846 201.70299 35.666846 206.4676 L 35.666846 211.67108 L 38.299927 214.49224 C 41.24647 217.62686 44.63186 219.94648 49.145714 221.95263 C 50.775716 222.70494 52.531104 223.77071 52.96995 224.39764 C 53.97303 225.65149 54.098414 227.78303 53.28341 228.59803 C 52.96995 228.97418 52.593796 230.03995 52.46841 231.10573 C 52.343027 232.61034 51.7161 233.29996 49.396483 234.49112 C 47.26494 235.61958 45.88571 236.9988 44.38109 239.5065 C 42.437626 242.70382 42.24955 243.45613 42.24955 247.8446 C 42.31224 251.9196 42.56301 252.98538 43.691474 254.4273 C 44.443783 255.43038 45.38417 256.8096 45.69763 257.6246 C 46.51263 259.56808 51.46533 262.89078 54.97611 263.83116 C 56.60611 264.27 60.05419 264.77155 62.62458 265.02232 L 67.32651 265.39847 L 71.5896 262.13847 C 73.909216 260.38308 76.91845 257.43654 78.29768 255.61846 C 81.87115 250.91653 85.6327 248.7223 91.77655 247.7819 C 94.53502 247.34306 97.9831 246.71614 99.42503 246.40267 C 102.81042 245.65036 111.90082 245.65036 114.5339 246.40267 C 115.91313 246.84152 117.16698 246.77883 118.29544 246.33998 C 119.36121 245.90113 127.57392 245.58767 140.1751 245.52498 L 160.36205 245.3369 L 160.55013 252.29576 C 160.67551 256.1827 160.55013 260.44577 160.29936 261.825 C 160.11128 263.20424 160.17397 265.83732 160.42474 267.7808 C 160.7382 269.66156 161.11436 276.49503 161.30243 282.88966 C 161.49051 289.28428 161.86667 295.7416 162.24282 297.3089 C 162.86974 300.38084 162.74436 330.22242 161.99205 335.17513 C 161.23974 340.504 156.47512 351.9767 153.15242 356.49054 C 152.33742 357.5563 150.8955 360.56555 149.82972 363.19863 C 146.63241 371.0352 147.44741 378.62097 152.27473 387.64867 C 153.2778 389.46675 154.78242 392.4133 155.59743 394.1687 C 156.72589 396.4883 157.66627 397.55407 159.23358 398.181 C 160.42474 398.68254 161.5532 399.30946 161.80397 399.6856 C 161.99205 399.9991 164.56244 400.4379 167.4463 400.6887 C 172.90053 401.12754 178.0413 400.12446 182.86862 397.67946 C 185.31363 396.4883 188.19748 391.34752 188.8871 386.95906 C 189.6394 382.06905 191.95902 376.23865 193.15018 376.23865 C 193.7144 376.23865 194.46672 376.7402 194.78018 377.30442 C 195.34441 378.3075 201.61365 382.06905 205.93943 384.0752 C 207.63212 384.8275 208.50982 384.8275 211.8952 384.1379 C 220.35868 382.3198 224.371 378.3702 223.17984 372.97865 C 222.86638 371.47403 222.42753 368.71556 222.17676 366.7094 C 221.42445 359.87593 217.09868 353.10515 209.88905 347.27476 C 208.25905 346.0209 206.50366 343.95206 205.93943 342.7609 C 205.3752 341.56975 204.6229 340.3786 204.30943 340.1905 C 203.18096 339.5009 199.85827 332.0405 198.98057 328.27896 C 198.47903 326.2101 198.10288 323.20088 198.10288 321.69626 C 198.16557 320.12895 197.8521 312.3551 197.47595 304.45584 C 196.97442 294.8639 196.91172 288.78274 197.28788 286.27505 C 197.9775 282.01196 197.66403 264.58347 196.72365 254.3646 C 196.41018 250.60306 196.2221 247.40575 196.41018 247.21767 C 196.59826 247.0923 207.0052 246.84152 219.481 246.71614 C 232.01947 246.65344 245.62372 246.2146 249.76142 245.83844 C 259.1653 244.96075 257.84874 245.02344 270.44992 245.52498 C 281.60917 246.02652 281.3584 245.96383 289.5084 249.85076 C 291.01303 250.60306 293.58342 252.54653 295.21342 254.17653 C 296.78073 255.86923 298.7242 257.56192 299.4138 257.93808 C 300.10343 258.37692 301.48266 259.25462 302.48574 259.94423 C 304.05305 261.0727 305.11882 261.19808 312.45383 261.0727 L 320.60385 260.88462 L 323.92654 257.56192 C 326.99847 254.4273 327.31193 253.92576 327.81347 250.16422 C 328.06424 247.96998 328.25232 244.33382 328.12694 242.0769 L 327.93886 238.0019 L 324.11462 234.42842 C 322.04577 232.48496 318.34692 229.53842 315.9019 227.9711 C 313.5196 226.4038 311.51345 225.02456 311.51345 224.96187 C 311.51345 224.89918 311.26268 223.8961 310.9492 222.83033 C 310.44768 221.07494 310.57306 220.5107 312.26576 218.44186 C 315.58845 214.24147 317.28115 210.22915 316.9677 207.3453 C 316.21538 201.13875 315.0869 199.25798 310.2596 196.06067 C 306.8742 193.80374 306.8115 193.80374 300.04074 193.80374 C 293.89688 193.80374 292.7684 193.99182 288.44264 195.7472 C 283.1138 197.87875 279.10147 199.82221 277.65955 201.01337 C 277.158 201.45222 274.6503 202.95683 272.07992 204.39876 C 265.37183 208.1603 259.66682 208.84992 238.16333 208.53646 C 229.01024 208.41107 219.85714 207.97223 217.851 207.59607 C 215.71945 207.15723 212.89829 207.03184 211.26828 207.3453 C 206.31558 208.0976 196.2221 208.0976 195.5325 207.2826 C 194.6548 206.21684 194.5921 189.91681 195.4698 188.2868 C 195.97134 187.28373 196.09672 184.77604 195.78326 179.82333 C 195.5325 175.62294 195.65787 170.60755 196.03403 167.47293 C 196.41018 164.52639 197.0371 159.19753 197.41326 155.56137 C 199.35673 135.43711 199.6702 133.24287 201.61365 127.09902 C 202.17789 125.46902 203.55712 122.52247 204.68558 120.57901 C 205.87674 118.63554 206.81712 116.75477 206.81712 116.37862 C 206.81712 115.93977 207.38136 115.12477 208.00828 114.56054 C 208.6979 113.93361 209.5756 112.55438 210.01444 111.48861 C 211.39367 108.04053 215.59406 98.88743 216.65983 96.94397 C 218.4779 93.74666 218.03906 86.85049 215.53137 79.3274 C 213.5252 73.37162 213.21175 72.80739 209.95174 70.11162 C 206.06481 66.78892 201.73904 64.34392 198.98057 63.84238 C 197.9775 63.6543 195.09364 63.96776 192.64864 64.594686 Z" fill="black"/>
        </g>
        <g id="Graphic_84">
          <path d="M 202.17789 69.67277 C 204.30943 70.48777 209.4502 75.62855 210.82944 78.38702 C 211.45636 79.51548 211.83252 81.33356 211.70713 82.39933 C 211.51905 84.15472 211.33098 84.40549 209.95174 84.21741 C 209.07405 84.09203 208.13366 83.71587 207.8202 83.40241 C 207.0052 82.6501 203.05558 82.6501 203.05558 83.4651 C 203.05558 83.77856 203.6198 84.09203 204.24673 84.09203 C 204.93635 84.09203 205.68866 84.3428 205.87674 84.71895 C 206.06481 85.03241 206.81712 85.34587 207.44405 85.34587 C 208.6979 85.34587 211.39367 88.29242 210.89213 89.10742 C 210.70405 89.42088 210.82944 89.79703 211.1429 89.98511 C 212.27136 90.67473 209.95174 103.02513 208.38443 104.78052 C 207.8829 105.34475 206.50366 107.60168 205.3125 109.79591 C 204.12135 112.05284 202.74212 113.93361 202.24058 114.059 C 200.98673 114.30977 201.48827 112.17822 203.43173 109.35707 C 204.18404 108.2286 204.68558 106.72399 204.4975 106.09706 C 204.30943 105.28206 204.6229 104.65514 205.56328 104.1536 C 206.50366 103.65206 206.81712 103.02513 206.56635 102.14744 C 206.37828 101.39513 206.50366 100.26667 206.87982 99.63974 C 207.19328 99.01282 207.38136 98.51128 207.19328 98.51128 C 207.0679 98.51128 204.68558 98.95013 201.9898 99.45167 C 199.29403 99.9532 195.34441 100.39205 193.21287 100.39205 C 191.08133 100.39205 189.13786 100.64282 188.94979 101.01898 C 188.57363 101.58321 190.07825 101.83398 195.5325 101.89667 C 197.0371 101.95936 197.72672 102.27282 197.72672 102.89975 C 197.72672 104.21629 191.08133 105.28206 185.00017 105.03129 C 180.549 104.84321 180.29823 104.9059 181.74016 105.72091 C 182.74324 106.28514 185.18824 106.5986 188.8244 106.66129 C 191.83364 106.66129 194.27864 106.91206 194.27864 107.16283 C 194.27864 108.73014 192.39787 109.16899 185.18824 109.16899 C 180.11016 109.16899 177.97862 109.35707 178.60554 109.79591 C 179.10708 110.10938 181.55208 110.42284 183.99709 110.42284 C 187.06901 110.42284 188.69902 110.67361 189.20056 111.30053 C 190.5171 112.86784 188.69902 113.1813 179.98477 113.05592 C 175.34553 112.99323 171.77207 113.1813 171.96014 113.49477 C 172.46168 114.30977 179.734 115.50092 183.1194 115.31285 C 186.56748 115.12477 187.57055 115.81438 185.87786 117.06823 C 184.37324 118.134 167.63437 118.38477 167.00744 117.319 C 166.81937 116.94285 165.94167 116.69208 165.06398 116.69208 C 164.24898 116.69208 163.55936 116.94285 163.55936 117.319 C 163.55936 117.63246 163.62205 117.94593 163.74744 117.94593 C 163.81013 117.94593 165.44013 118.51016 167.3209 119.19977 C 172.14822 120.95516 183.24478 120.95516 192.2098 119.13708 C 195.84595 118.44747 198.91788 118.00862 199.16865 118.1967 C 200.10904 119.19977 197.22518 120.32824 192.0844 121.01785 C 189.01248 121.4567 184.18516 122.20901 181.4267 122.64786 C 178.60554 123.1494 173.9663 123.33747 170.76899 123.21209 C 166.00437 122.96132 165.37744 123.0867 166.69398 123.71363 C 170.14206 125.40632 189.82748 124.34055 193.7771 122.2717 C 194.40403 121.95824 195.4698 121.70747 196.15941 121.70747 C 197.22518 121.70747 197.35057 122.02093 197.0371 123.40017 C 196.84903 124.40324 196.47288 125.71979 196.15941 126.4094 C 193.90249 131.73826 191.89633 140.26442 191.58287 145.84405 C 191.45748 148.6652 191.2694 148.97867 189.89017 149.16675 C 189.01248 149.29213 188.13479 149.79367 187.88402 150.23252 C 187.1317 151.48637 182.42978 153.99406 179.10708 154.99714 C 175.659 155.93753 175.15746 156.81522 178.1667 156.81522 C 180.42362 156.75253 185.81517 155.43599 186.50478 154.74637 C 187.2571 153.99406 189.38863 154.24483 189.13786 155.05983 C 188.8244 156.1256 179.92208 160.57676 178.1667 160.57676 C 176.78746 160.57676 175.659 161.64254 176.34861 162.26946 C 177.3517 163.33523 186.50478 160.13792 189.01248 157.94368 C 190.01556 157.06599 190.4544 156.9406 190.64248 157.56753 C 190.89325 158.25715 190.20364 181.13988 189.6394 190.35566 C 189.5767 191.7349 189.45133 195.43374 189.38863 198.56837 C 189.26325 204.27337 189.26325 204.33607 187.57055 204.64953 C 181.61477 205.90338 179.48323 206.15415 179.04439 205.7153 C 178.29208 205.02568 181.05054 203.2076 182.86862 203.2076 C 185.12555 203.2076 188.0094 201.45222 188.0094 200.07298 C 188.0094 198.50567 188.19748 198.50567 184.18516 200.32375 C 182.3044 201.13875 179.734 201.95376 178.48015 202.20452 C 176.16054 202.64337 174.65592 203.89722 175.90977 204.27337 C 176.28592 204.39876 177.10092 204.9003 177.72785 205.40184 C 178.79362 206.15415 178.79362 206.34222 177.97862 207.15723 C 177.2263 207.84684 175.53361 207.97223 169.51514 207.65876 L 161.99205 207.2826 L 161.86667 197.81606 C 161.80397 192.61259 161.42782 184.1491 161.05166 179.00833 C 160.61282 173.86756 160.36205 168.09985 160.48743 166.21908 C 161.05166 158.00638 160.55013 131.98903 159.8605 130.23364 C 159.35897 128.97979 159.29628 128.22748 159.79782 127.72594 C 161.30243 126.22132 159.48435 123.1494 155.8482 120.82978 C 154.84512 120.20285 153.65396 118.82362 153.21511 117.75785 C 152.71357 116.62939 151.6478 114.8113 150.77011 113.62015 C 149.89242 112.429 149.1401 110.86168 149.1401 110.23476 C 149.1401 109.54514 148.51318 107.35091 147.82357 105.34475 C 146.7578 102.52359 146.63241 101.20705 147.07126 99.38897 C 147.32203 98.07243 147.88626 96.94397 148.26241 96.81858 C 148.57588 96.6932 149.51626 98.13513 150.33126 100.0159 C 152.90165 106.22245 155.0332 106.47322 153.21511 100.39205 C 152.14934 96.94397 152.14934 96.31705 152.96434 93.68396 C 153.77935 90.98819 154.0928 90.67473 156.34973 90.17319 C 157.72897 89.92242 159.79782 89.85973 160.92628 90.0478 C 162.49359 90.36127 162.93244 90.17319 162.93244 89.48357 C 162.93244 88.22972 159.73512 86.59972 157.35281 86.59972 C 155.28396 86.59972 154.28088 85.59664 155.28396 84.59356 C 155.66012 84.21741 157.35281 83.77856 159.1082 83.59049 C 161.86667 83.33972 162.3682 83.52779 163.74744 84.96972 C 164.56244 85.84741 165.44013 87.6028 165.62821 88.73126 C 166.00437 91.11358 171.01976 96.63051 172.77515 96.63051 C 173.27668 96.63051 174.59323 96.19166 175.72169 95.69012 C 178.29208 94.43627 181.74016 87.97895 181.74016 84.3428 C 181.74016 82.83818 182.179 81.14548 182.86862 80.26779 C 183.43285 79.45279 184.49863 77.6974 185.12555 76.44355 C 186.75555 73.24624 188.13479 72.117775 192.27248 70.48777 C 196.2848 68.983155 199.6075 68.732385 202.17789 69.67277 Z" fill="#f3f3f3"/>
        </g>
        <g id="Graphic_83">
          <path d="M 203.6825 105.72091 C 203.6825 105.84629 202.8675 106.41052 201.80173 106.97475 C 198.60442 108.66745 194.90557 107.85245 197.9148 106.09706 C 198.98057 105.47014 203.6825 105.15668 203.6825 105.72091 Z" fill="#f3f3f3"/>
        </g>
        <g id="Graphic_82">
          <path d="M 198.6671 111.04976 C 198.16557 111.42592 196.97442 111.67669 196.03403 111.73938 C 195.03095 111.80207 193.96518 111.86476 193.52633 111.92746 C 193.15018 111.99015 192.71133 111.67669 192.58595 111.23784 C 192.39787 110.7363 193.40095 110.42284 195.65787 110.29745 C 199.41942 110.10938 199.98365 110.23476 198.6671 111.04976 Z" fill="#f3f3f3"/>
        </g>
        <g id="Graphic_81">
          <path d="M 193.21287 115.75169 C 193.27556 116.06515 192.1471 116.44131 190.70517 116.5667 C 189.20056 116.69208 188.0094 116.504 188.0094 116.12785 C 188.0094 114.874 192.9621 114.49784 193.21287 115.75169 Z" fill="#f3f3f3"/>
        </g>
        <g id="Graphic_80">
          <path d="M 65.00689 194.1172 C 67.07574 195.30836 69.39536 197.12644 70.14767 198.06683 C 74.09729 203.08222 81.80846 207.47069 90.5854 209.47684 C 95.85156 210.7307 97.1681 210.79338 113.09197 210.35454 C 131.64892 209.853 132.52662 209.853 162.93244 210.22915 C 174.46784 210.41723 184.624 210.35454 185.5017 210.10377 C 186.3794 209.853 189.07517 209.9157 191.45748 210.16646 C 196.78634 210.79338 208.88597 211.23223 235.21679 211.73377 C 256.09336 212.17262 258.9772 211.92185 266.06145 209.35146 C 270.88877 207.59607 271.26492 207.72146 270.88877 211.04415 C 270.7007 212.98762 270.82607 213.86531 271.3276 213.86531 C 272.1426 213.86531 275.15185 210.85608 275.15185 210.10377 C 275.15185 209.16338 279.91647 203.89722 282.36148 202.14183 C 283.7407 201.13875 286.68725 199.69683 288.8815 198.88183 C 292.39226 197.62798 293.7088 197.4399 299.5392 197.69067 C 309.4446 198.12952 312.45383 199.82221 313.7077 205.58991 C 314.5227 209.47684 313.5196 213.113 310.9492 215.6207 C 309.69537 216.87455 308.00267 218.9434 307.25036 220.19725 C 305.9965 222.2661 305.93382 222.70494 306.62344 224.83648 C 307.37575 226.96803 308.06536 227.59495 313.08076 230.16534 C 321.1054 234.42842 323.98924 238.50343 324.05193 245.3996 C 324.05193 249.09845 322.61 253.36153 321.41885 253.36153 C 321.0427 253.36153 319.53808 254.17653 317.97077 255.2423 C 316.21538 256.43346 314.3973 257.12308 313.01807 257.12308 C 310.76114 257.12308 303.48882 255.305 302.42305 254.49 C 302.1096 254.23922 299.22574 251.9196 296.0911 249.34922 C 292.51765 246.40267 289.06956 244.14575 286.87533 243.33075 C 284.93187 242.57844 283.17648 241.76344 282.9884 241.44997 C 282.80032 241.1365 283.42725 240.19612 284.36763 239.31843 C 285.30802 238.44074 285.87225 237.56304 285.62148 237.31227 C 285.3707 237.0615 284.6184 237.37497 283.9288 238.0019 C 282.73763 239.13035 282.67494 239.06766 281.73455 236.87343 C 281.233 235.61958 280.79417 234.17765 280.79417 233.67611 C 280.79417 233.17458 280.5434 232.54765 280.16724 232.35957 C 279.7911 232.1715 279.54032 230.22803 279.54032 228.0965 C 279.54032 225.14995 279.35224 224.46033 278.788 225.02456 C 278.22378 225.5888 278.22378 227.0934 278.788 231.60726 C 279.22686 234.74189 279.603 237.9392 279.7284 238.56612 C 279.7911 239.19305 279.603 239.81997 279.22686 239.94536 C 278.22378 240.3215 275.71608 233.8642 275.33993 229.97726 C 275.15185 227.9711 274.7757 226.4038 274.46223 226.4038 C 273.58454 226.4038 273.1457 230.6042 273.8353 231.92073 C 274.21146 232.67304 274.52493 234.11496 274.52493 235.24342 C 274.52493 237.1869 274.46223 237.24958 273.52185 236.3092 C 272.89492 235.74496 272.268 234.24035 272.07992 232.9238 C 271.5157 229.35034 270.07376 229.35034 270.5126 232.9238 C 270.88877 235.3688 270.76338 235.80766 269.8857 235.80766 C 268.56915 235.80766 267.94222 234.17765 267.00184 228.0965 C 265.93607 221.70186 264.8076 222.39148 265.37183 229.09957 C 265.81068 234.17765 265.37183 234.92996 264.118 231.2311 C 263.74183 230.16534 263.1149 229.16226 262.73875 229.03688 C 261.79837 228.72341 261.73567 231.66996 262.67606 233.36265 C 262.98952 234.05227 263.2403 235.05535 263.1149 235.5569 C 262.80145 236.9988 260.16836 234.30304 259.72952 232.1088 C 259.54144 231.2311 258.85182 229.7265 258.1622 228.9115 C 257.03374 227.34418 256.97105 227.34418 256.97105 228.72341 C 256.97105 230.4788 258.03682 232.9238 260.29375 236.3092 C 261.79837 238.50343 262.2999 238.87958 263.61645 238.56612 C 266.24953 237.8765 265.24645 239.25574 262.4253 240.07074 C 258.9772 241.1365 233.336 241.2619 232.33293 240.25882 C 231.8314 239.75728 231.8314 239.5692 232.33293 239.5692 C 233.71217 239.5692 233.71217 237.68843 232.27024 235.99573 C 230.2014 233.48804 228.13254 229.22495 228.13254 227.40687 C 228.13254 226.52918 227.81908 225.65149 227.44293 225.40072 C 226.7533 225.02456 226.9414 229.85188 227.81908 234.5538 L 228.19524 236.74804 L 226.56523 234.92996 C 224.99792 233.23727 224.87254 233.23727 224.12023 234.30304 C 223.36792 235.30612 223.11715 235.18073 221.29907 232.29688 C 220.2333 230.6042 219.3556 228.66072 219.3556 227.9711 C 219.3556 227.2815 218.85407 226.02764 218.35253 225.14995 C 217.47483 223.64533 217.41214 223.77071 217.7256 227.03072 C 218.28983 232.1715 220.42138 237.50035 222.49023 238.8169 C 223.30523 239.31843 224.55908 239.38112 226.69062 239.00497 C 228.69677 238.62881 229.95062 238.62881 230.51485 239.06766 C 232.45832 240.69766 229.82524 241.1365 216.65983 241.2619 C 209.32482 241.3246 201.9898 241.38728 200.23442 241.44997 C 197.28788 241.44997 185.5017 241.1365 168.01052 240.57228 C 163.74744 240.3842 159.9859 240.00805 159.67243 239.69459 C 159.29628 239.31843 158.41858 239.31843 157.22743 239.75728 C 155.8482 240.3215 155.09589 240.3215 154.28088 239.75728 C 153.52858 239.31843 152.77627 239.31843 152.14934 239.6319 C 150.8955 240.3215 149.1401 239.75728 149.1401 238.62881 C 149.1401 238.18997 148.57588 237.1869 147.82357 236.3719 C 146.6951 235.05535 146.56972 235.05535 146.94587 236.12112 C 147.19664 236.81073 147.5728 238.06458 147.76087 238.8169 L 148.07434 240.3215 L 139.04663 239.88266 C 132.52662 239.5692 124.56468 239.81997 110.27081 240.82305 C 85.13116 242.51574 80.24115 243.39344 78.1723 246.59075 C 75.91537 250.03883 70.89998 255.305 68.89382 256.43346 C 64.44266 258.75308 59.552654 258.6277 60.55573 256.12 C 60.74381 255.61846 59.552654 253.92576 57.5465 251.9196 C 55.665724 250.10153 53.78495 248.09537 53.346105 247.46844 C 52.65649 246.65344 52.280334 246.59075 51.59072 247.15498 C 50.9011 247.7192 50.462254 247.53114 49.459176 246.40267 C 46.95148 243.39344 49.208406 238.0019 53.53418 236.81073 C 55.665724 236.1838 56.04188 235.74496 56.982265 233.0492 C 58.11073 229.6638 59.11381 228.7861 59.67804 230.79226 C 60.367655 233.36265 61.37073 232.0461 61.37073 228.59803 C 61.37073 224.46033 62.31112 224.08418 63.69035 227.65764 C 64.9442 230.85496 66.38613 230.98034 66.38613 227.9711 C 66.38613 224.7111 64.88151 221.57648 61.49612 218.003 C 59.866116 216.24762 57.734574 213.80262 56.79419 212.61146 C 55.414955 210.79338 55.10149 210.6053 55.10149 211.73377 C 55.10149 212.4234 55.979186 214.36685 57.04496 215.99685 C 58.048036 217.68955 58.73765 219.19417 58.549575 219.44494 C 57.734574 220.19725 52.593796 213.73993 51.778795 210.85608 C 50.65033 207.15723 49.08302 206.34222 49.709945 209.853 C 49.960715 211.23223 50.27418 212.79954 50.462254 213.36377 C 50.65033 213.9907 50.462254 214.49224 50.02341 214.49224 C 48.894944 214.49224 47.641096 212.48608 47.578404 210.6053 C 47.578404 207.84684 46.44994 207.97223 45.88571 210.85608 C 45.19609 214.17878 44.004936 214.30416 42.437626 211.29492 C 41.371855 209.16338 41.309163 208.78723 42.24955 205.40184 C 43.252627 201.38952 43.87955 200.6999 46.44994 200.6999 C 47.390326 200.6999 48.26802 200.44914 48.4561 200.19837 C 49.33379 198.75644 58.48688 199.69683 66.887666 202.01645 C 71.71498 203.333 71.33883 201.13875 66.323434 198.69375 C 59.615346 195.43374 55.414955 194.86951 49.89802 196.5622 L 47.076864 197.4399 L 47.70379 195.93528 C 48.142635 195.0576 49.77264 193.92913 52.21764 192.86336 C 57.10765 190.8572 59.92881 191.10797 65.00689 194.1172 Z" fill="#f3f3f3"/>
        </g>
        <g id="Graphic_79">
          <path d="M 188.13479 207.72146 C 187.75863 208.0976 187.1944 208.223 186.94363 207.97223 C 186.69286 207.72146 186.88094 207.2826 187.38248 206.96915 C 188.57363 206.21684 189.07517 206.78107 188.13479 207.72146 Z" fill="#f3f3f3"/>
        </g>
        <g id="Graphic_78">
          <path d="M 274.21146 240.25882 C 275.02647 241.07382 271.07684 241.1992 268.8826 240.4469 C 268.1303 240.19612 268.1303 240.07074 268.8826 239.5692 C 269.823 238.94228 273.2084 239.44382 274.21146 240.25882 Z" fill="#f3f3f3"/>
        </g>
        <g id="Graphic_77">
          <path d="M 177.66515 246.77883 C 177.66515 247.65652 177.16361 248.09537 176.09784 248.22075 C 175.22015 248.34614 174.27976 248.7223 173.9663 249.03575 C 173.59015 249.34922 172.399 249.6 171.33322 249.6 C 170.20476 249.6 169.0763 249.85076 168.88822 250.2269 C 168.2613 251.23 171.64668 250.97922 175.40823 249.66268 C 179.734 248.22075 185.81517 246.46537 186.3167 246.46537 C 186.56748 246.46537 186.75555 246.9042 186.75555 247.46844 C 186.75555 248.09537 184.624 249.4119 180.79977 251.23 C 177.53977 252.7346 174.844 254.17653 174.844 254.3646 C 174.844 255.49307 185.87786 251.41807 186.88094 249.97614 C 187.1317 249.6 187.50786 249.5373 187.75863 249.78806 C 188.32286 250.3523 185.5644 253.36153 184.43593 253.36153 C 183.99709 253.36153 183.62093 253.6123 183.62093 253.98846 C 183.62093 254.30192 182.3044 255.11692 180.67439 255.86923 C 178.9817 256.55884 176.91284 257.49923 175.97246 257.93808 C 174.09169 258.75308 173.65284 259.63077 175.15746 259.63077 C 176.59938 259.63077 183.1194 257.06038 185.00017 255.80653 C 185.87786 255.11692 186.88094 254.61538 187.1944 254.61538 C 187.44517 254.61538 188.38556 254.05115 189.26325 253.36153 C 190.64248 252.29576 190.70517 251.9823 190.01556 250.85383 C 189.5767 250.10153 189.38863 248.97306 189.5767 248.34614 C 190.01556 247.0296 191.77095 246.2146 192.52325 246.9669 C 193.08749 247.53114 193.15018 261.26077 192.83672 290.0366 C 192.71133 297.68506 192.39787 303.202 191.95902 304.1424 C 191.08133 306.14854 190.5798 305.08277 190.32902 300.25545 C 190.20364 298.2493 189.95287 296.4939 189.76479 296.24314 C 189.51402 296.05506 188.7617 296.4939 188.0094 297.2462 C 186.4421 298.81353 176.78746 303.51546 175.22015 303.51546 C 174.65592 303.51546 174.21707 303.82892 174.21707 304.20508 C 174.21707 304.64392 174.96938 304.7693 176.28592 304.51854 C 177.3517 304.26777 179.734 303.9543 181.4267 303.70354 L 184.56132 303.32738 L 183.37016 304.64392 C 182.74324 305.39623 181.17593 306.27392 179.92208 306.65008 C 176.85015 307.59047 174.844 308.65624 174.844 309.28316 C 174.844 310.22355 177.03823 309.7847 179.7967 308.2174 C 181.23862 307.3397 183.18209 306.65008 183.99709 306.65008 C 184.87478 306.65008 185.68978 306.21123 185.87786 305.7097 C 186.3794 304.39315 188.0094 304.51854 188.0094 305.83508 C 188.0094 307.4024 182.80593 310.5997 177.10092 312.66855 C 172.08553 314.42394 171.01976 315.17625 172.52438 315.80317 C 173.77822 316.242 178.79362 314.7374 182.86862 312.66855 C 187.06901 310.537 188.0094 310.5997 185.81517 312.91932 C 184.05978 314.7374 181.364 316.242 176.72477 317.9347 C 173.65284 319.06318 173.02591 319.8155 175.09476 319.8155 C 176.85015 319.8155 187.44517 314.8628 189.45133 313.1074 C 190.14094 312.41778 190.5171 311.16393 190.5171 309.40854 C 190.5171 307.90393 190.76787 306.5874 191.08133 306.3993 C 191.70825 305.96046 192.39787 310.537 192.39787 315.6778 C 192.39787 317.80933 192.77402 321.1947 193.27556 323.26357 C 193.7771 325.3324 194.46672 329.34473 194.96826 332.1659 L 195.72057 337.30667 L 192.2098 341.319 C 188.69902 345.3313 183.68362 348.654 181.11324 348.654 C 180.42362 348.654 179.85939 348.90476 179.85939 349.2809 C 179.85939 350.2213 183.18209 350.03323 185.5644 348.90476 C 190.32902 346.58514 193.7144 344.07745 194.6548 342.0086 C 195.21903 340.81744 195.97134 339.87706 196.2848 339.87706 C 196.66095 339.87706 197.9148 340.94283 199.10596 342.19668 C 200.29711 343.5132 202.42865 345.83283 203.93327 347.40015 C 206.69174 350.1586 208.13366 353.04246 206.87982 353.04246 C 206.56635 353.04246 205.68866 354.2336 205.06174 355.73824 C 203.8079 358.5594 203.43173 358.99824 199.6702 362.32094 C 196.84903 364.76594 197.1625 365.64364 200.23442 364.139 C 202.8048 362.88517 206.62905 357.93247 207.19328 355.0486 C 207.7575 352.29015 208.88597 352.54092 211.2056 355.8636 C 212.27136 357.43093 213.39983 358.6848 213.7133 358.6848 C 214.02675 358.6848 214.4656 359.3117 214.65367 360.064 C 214.90444 360.879 215.46868 362.32094 215.90752 363.3867 C 217.851 368.15133 218.10176 368.84095 218.10176 370.2202 C 218.10176 371.0352 217.7256 372.03826 217.22406 372.4144 C 216.78522 372.79057 216.22098 373.91903 216.0329 374.8594 C 215.78214 375.9252 214.71637 377.24173 212.89829 378.4956 C 210.45328 380.25097 209.82636 380.43904 207.38136 380.0002 C 203.6198 379.43597 199.73288 377.24173 197.72672 374.60865 C 195.97134 372.28903 194.40403 371.97557 191.3321 373.16673 C 190.39171 373.5429 188.69902 373.85634 187.57055 373.79365 C 186.4421 373.79365 185.37632 374.0444 185.18824 374.3579 C 185.00017 374.67134 182.61785 375.9879 179.98477 377.30442 C 176.474 378.93443 174.09169 379.68674 171.27053 379.8748 C 169.0763 380.0002 167.3209 380.37635 167.3209 380.6898 C 167.3209 381.44212 176.28592 381.44212 177.03823 380.6898 C 177.41438 380.43904 179.10708 379.62404 180.79977 378.9971 C 182.55516 378.3702 184.05978 377.6806 184.24786 377.4925 C 184.7494 376.92827 187.9467 374.9848 188.38556 374.9848 C 188.8871 374.9848 188.38556 382.94674 187.82132 383.51097 C 187.63325 383.76174 187.00632 383.57367 186.4421 383.1348 C 185.75247 382.5706 185.68978 382.06905 186.12863 381.25405 C 186.50478 380.6271 186.75555 379.8121 186.75555 379.49866 C 186.75555 378.4329 184.7494 378.05673 183.99709 378.9971 C 183.62093 379.49866 181.05054 381.06597 178.29208 382.5079 C 173.27668 385.0783 173.27668 385.0783 176.09784 384.70213 C 177.66515 384.51405 179.48323 384.32597 180.17285 384.2006 C 180.86247 384.1379 181.55208 384.32597 181.67747 384.70213 C 182.179 385.95598 178.0413 387.3979 172.83784 387.83675 C 167.63437 388.2756 167.50898 388.3383 167.82244 389.7802 C 168.01052 390.97137 167.82244 391.28483 166.75667 391.28483 C 166.06706 391.28483 165.44013 391.5356 165.44013 391.84906 C 165.44013 392.66406 172.46168 393.3537 175.5963 392.85214 C 182.55516 391.78637 183.99709 390.7833 183.68362 387.3979 C 183.55824 386.5202 185.25093 385.0156 186.3794 385.0156 C 187.31978 385.0156 186.63017 387.5233 185.5644 388.1502 C 184.87478 388.46367 184.24786 389.34137 184.12247 390.09368 C 183.99709 390.846 182.42978 392.476 180.23554 394.0433 L 176.5367 396.6137 L 170.76899 396.551 C 163.62205 396.4256 161.6159 395.5479 160.04859 391.5983 C 159.35897 390.031 158.41858 388.65175 157.85435 388.46367 C 156.72589 388.0875 154.84512 384.45136 154.03011 380.9406 C 151.77319 371.5994 153.46588 362.88517 158.79474 355.8636 C 159.60974 354.79785 160.67551 352.6663 161.05166 351.099 C 161.42782 349.5944 162.30551 347.21207 162.93244 345.83283 C 166.12975 338.8113 166.06706 339.06205 166.38052 326.2728 C 166.63129 312.60586 165.87898 284.70774 164.8132 273.4231 C 163.93552 263.32962 163.05782 246.2773 163.37128 245.65036 C 163.55936 245.3996 166.81937 245.2742 170.6436 245.3369 C 177.16361 245.52498 177.66515 245.58767 177.66515 246.77883 Z" fill="#f3f3f3"/>
        </g>
        <g id="Graphic_76">
          <path d="M 52.593796 254.61538 C 53.346105 256.0573 52.71918 256.62154 51.277256 255.80653 C 49.83533 255.05423 49.647253 252.60922 51.026486 253.11076 C 51.59072 253.36153 52.280334 253.98846 52.593796 254.61538 Z" fill="#f3f3f3"/>
        </g>
        <g id="Graphic_75">
          <path d="M 177.97862 389.40406 C 177.97862 389.7175 177.10092 390.46983 176.03515 391.03406 C 174.46784 391.78637 173.71553 391.84906 172.58707 391.34752 C 170.33014 390.34445 171.33322 388.9025 174.40515 388.65175 C 177.3517 388.46367 177.97862 388.58906 177.97862 389.40406 Z" fill="#f3f3f3"/>
        </g>
        <g id="Graphic_74">
          <path d="M 194.5921 73.81047 C 192.2098 74.43739 189.5767 75.56586 189.13786 76.19278 C 188.13479 77.63471 188.7617 77.6974 192.2098 76.50624 C 196.2848 75.12701 199.23134 75.00163 202.24058 76.0674 C 203.8079 76.63163 204.4975 76.63163 205.06174 76.0674 C 205.56328 75.56586 205.3125 75.1897 203.93327 74.68816 C 201.86442 73.87316 196.41018 73.37162 194.5921 73.81047 Z" fill="black"/>
        </g>
        <g id="Graphic_73">
          <path d="M 193.7771 78.44971 C 191.70825 78.95125 190.01556 80.07971 190.5798 80.51856 C 190.70517 80.64394 192.39787 80.58125 194.27864 80.39317 C 197.8521 80.01702 204.18404 80.45587 206.69174 81.27087 C 207.8202 81.64702 208.07097 81.52164 208.07097 80.45587 C 208.07097 79.57817 207.44405 78.95125 206.1275 78.5124 C 203.87058 77.76009 196.91172 77.6974 193.7771 78.44971 Z" fill="black"/>
        </g>
        <g id="Graphic_72">
          <path d="M 199.6075 82.27395 C 198.60442 82.6501 198.7298 82.77548 200.4225 82.77548 C 202.49135 82.83818 202.99289 82.52472 201.67635 82.02318 C 201.2375 81.89779 200.29711 81.96048 199.6075 82.27395 Z" fill="black"/>
        </g>
        <g id="Graphic_71">
          <path d="M 194.5921 87.16395 C 194.40403 87.54011 196.84903 87.85357 200.4852 87.97895 C 205.4379 88.10434 206.56635 87.97895 206.06481 87.35203 C 205.3125 86.47434 195.15634 86.28626 194.5921 87.16395 Z" fill="black"/>
        </g>
        <g id="Graphic_70">
          <path d="M 197.53865 90.36127 C 196.03403 90.67473 193.96518 91.36434 192.8994 91.92858 C 191.83364 92.43012 190.5798 92.86896 190.07825 92.86896 C 189.6394 92.86896 189.26325 93.18242 189.26325 93.55858 C 189.26325 93.99743 189.89017 94.12281 190.70517 93.93473 C 194.90557 92.99435 202.24058 91.61511 203.11827 91.61511 C 203.6198 91.61511 204.6229 91.99127 205.24981 92.49281 C 206.44097 93.30781 206.31558 93.4332 203.8079 94.43627 C 202.36596 95.0632 201.1748 95.8782 201.1748 96.37974 C 201.1748 97.5082 202.61673 97.5082 205.12443 96.37974 C 206.2529 95.8782 207.63212 95.37666 208.25905 95.12589 C 209.5129 94.74974 209.70097 92.05396 208.5725 91.11358 C 207.38136 90.17319 200.67327 89.73434 197.53865 90.36127 Z" fill="black"/>
        </g>
        <g id="Graphic_69">
          <path d="M 179.85939 97.69628 C 178.29208 98.44859 176.22323 99.07551 175.15746 99.1382 C 174.15438 99.1382 172.90053 99.38897 172.399 99.70244 C 170.95707 100.64282 174.029 101.83398 176.85015 101.45782 C 179.35785 101.14436 181.364 99.76513 182.49247 97.69628 C 183.30747 96.06628 183.0567 96.06628 179.85939 97.69628 Z" fill="black"/>
        </g>
        <g id="Graphic_68">
          <path d="M 167.4463 98.3232 C 167.63437 99.51436 170.45553 100.32936 170.45553 99.2009 C 170.45553 98.57397 168.51206 97.25743 167.63437 97.25743 C 167.3836 97.25743 167.3209 97.75897 167.4463 98.3232 Z" fill="black"/>
        </g>
        <g id="Graphic_67">
          <path d="M 192.0844 125.5944 C 185.5017 127.53787 177.97862 128.72902 172.96322 128.66633 C 169.20168 128.66633 168.9509 128.72902 170.14206 129.60671 C 171.14514 130.35902 172.399 130.48441 176.09784 130.17095 C 188.63632 129.16787 197.22518 126.84825 194.46672 125.28094 C 194.15326 125.15555 193.15018 125.28094 192.0844 125.5944 Z" fill="black"/>
        </g>
        <g id="Graphic_66">
          <path d="M 187.1317 131.17402 C 185.12555 131.86364 181.61477 132.67864 179.35785 133.0548 C 177.10092 133.36826 174.7813 133.99518 174.27976 134.30865 C 172.96322 135.12365 183.30747 134.43403 184.93747 133.61903 C 185.5644 133.24287 186.81824 132.9921 187.82132 132.9921 C 189.7021 132.9921 192.39787 131.48749 192.39787 130.42172 C 192.39787 129.6694 191.45748 129.79479 187.1317 131.17402 Z" fill="black"/>
        </g>
        <g id="Graphic_65">
          <path d="M 184.56132 136.18942 C 181.80285 137.1298 178.8563 137.9448 177.97862 137.9448 C 175.78438 138.07019 173.59015 138.69711 173.59015 139.26135 C 173.59015 140.89135 182.11631 139.82558 186.12863 137.69404 C 187.00632 137.1925 188.44825 136.69096 189.45133 136.44019 C 190.39171 136.25211 191.14402 135.68788 191.14402 135.18634 C 191.14402 133.99518 190.5798 134.05788 184.56132 136.18942 Z" fill="black"/>
        </g>
        <g id="Graphic_64">
          <path d="M 186.4421 141.45558 C 184.7494 142.27058 182.86862 142.9602 182.3044 142.9602 C 181.80285 143.02289 180.79977 143.46174 180.11016 143.96328 C 178.9817 144.84097 178.9817 144.84097 180.42362 144.90366 C 181.99093 144.90366 189.5767 141.51827 190.20364 140.5152 C 190.76787 139.5748 189.89017 139.82558 186.4421 141.45558 Z" fill="black"/>
        </g>
        <g id="Graphic_63">
          <path d="M 175.15746 144.90366 C 174.96938 145.21712 175.34553 145.53059 176.03515 145.53059 C 176.72477 145.53059 177.47708 145.21712 177.66515 144.90366 C 177.85323 144.5275 177.47708 144.27674 176.78746 144.27674 C 176.09784 144.27674 175.34553 144.5275 175.15746 144.90366 Z" fill="black"/>
        </g>
        <g id="Graphic_62">
          <path d="M 186.88094 145.96943 C 185.68978 146.90982 182.68055 148.16367 179.54593 148.97867 C 176.59938 149.73098 174.029 150.54598 173.71553 150.85944 C 172.83784 151.86252 183.30747 150.67136 185.94055 149.4802 C 188.51094 148.28905 191.14402 145.90674 191.14402 144.77828 C 191.14402 143.7752 188.8871 144.33943 186.88094 145.96943 Z" fill="black"/>
        </g>
        <g id="Graphic_61">
          <path d="M 183.37016 163.39792 C 180.98785 164.58908 178.35477 165.59216 177.53977 165.59216 C 176.59938 165.59216 176.09784 165.96831 176.09784 166.59524 C 176.09784 167.47293 176.5367 167.53562 178.48015 167.22216 C 183.74632 166.40716 189.76479 163.20985 188.8871 161.76792 C 188.38556 160.95292 188.0721 161.01561 183.37016 163.39792 Z" fill="black"/>
        </g>
        <g id="Graphic_60">
          <path d="M 185.18824 167.7864 C 184.56132 168.35062 182.42978 169.22832 180.48631 169.79255 C 176.59938 170.9837 175.15746 171.7987 175.90977 172.55102 C 176.85015 173.4287 187.1944 170.04332 188.13479 168.5387 C 189.20056 166.846 187.1944 166.34447 185.18824 167.7864 Z" fill="black"/>
        </g>
        <g id="Graphic_59">
          <path d="M 184.43593 173.11525 C 183.30747 173.74217 180.79977 174.80794 178.79362 175.37217 C 173.71553 176.8141 173.52745 177.31564 178.104 177.00218 C 182.42978 176.68871 187.69594 174.55717 187.69594 173.17794 C 187.69594 171.7987 186.63017 171.73601 184.43593 173.11525 Z" fill="black"/>
        </g>
        <g id="Graphic_58">
          <path d="M 182.36708 179.44718 C 180.79977 180.0741 177.91592 181.07718 175.97246 181.64141 C 173.9663 182.14295 172.3363 182.89526 172.3363 183.20872 C 172.3363 184.02373 176.85015 183.27142 181.4267 181.7668 C 186.3167 180.0741 187.50786 179.44718 187.06901 178.69487 C 186.56748 177.94256 185.68978 178.06795 182.36708 179.44718 Z" fill="black"/>
        </g>
        <g id="Graphic_57">
          <path d="M 183.9344 183.77296 C 182.93132 184.46257 180.48631 185.46565 178.60554 186.02988 C 174.34246 187.34642 173.33938 188.16143 175.97246 188.16143 C 178.73092 188.16143 187.00632 184.58796 186.88094 183.4595 C 186.81824 182.39372 185.87786 182.5191 183.9344 183.77296 Z" fill="black"/>
        </g>
        <g id="Graphic_56">
          <path d="M 182.05362 190.0422 C 179.98477 191.04528 177.60246 191.92297 176.72477 191.92297 C 174.34246 192.04835 170.7063 193.49028 171.58399 193.99182 C 172.46168 194.55605 179.7967 193.42759 183.809 192.11105 C 186.63017 191.17066 188.44825 189.47797 187.57055 188.53758 C 186.94363 187.91066 186.00324 188.16143 182.05362 190.0422 Z" fill="black"/>
        </g>
        <g id="Graphic_55">
          <path d="M 183.37016 195.12028 C 181.364 196.06067 178.29208 197.25182 176.59938 197.62798 C 172.3363 198.75644 172.77515 199.69683 177.289 199.25798 C 182.42978 198.69375 187.63325 196.81298 187.88402 195.43374 C 188.32286 193.3649 187.1317 193.3022 183.37016 195.12028 Z" fill="black"/>
        </g>
        <g id="Graphic_54">
          <path d="M 285.80956 204.21068 C 282.2361 206.21684 280.79417 207.53338 280.79417 208.72454 C 280.79417 209.22607 280.29263 210.04108 279.7284 210.47992 C 279.10147 210.91877 278.788 211.4203 278.9761 211.67108 C 279.22686 211.85916 280.4807 210.91877 281.85994 209.53954 C 283.23917 208.1603 285.4334 206.5303 286.81264 205.96607 C 288.12918 205.40184 289.75918 204.39876 290.3861 203.77184 C 291.45188 202.64337 291.45188 202.58068 290.07264 202.58068 C 289.25764 202.58068 287.37687 203.333 285.80956 204.21068 Z" fill="black"/>
        </g>
        <g id="Graphic_53">
          <path d="M 308.37883 206.96915 C 308.37883 210.668 307.18767 213.36377 304.30382 216.18493 C 301.54535 218.8807 300.85574 223.39456 302.7365 227.03072 C 304.17844 229.91457 305.62036 230.4161 304.99344 227.9084 C 303.92767 223.77071 303.99036 222.83033 305.2442 220.00917 C 305.93382 218.37917 306.8742 216.68647 307.31306 216.24762 C 309.75806 213.73993 310.88652 211.29492 310.88652 208.72454 C 310.82383 206.27953 309.82075 203.83453 308.75498 203.83453 C 308.5669 203.83453 308.37883 205.27645 308.37883 206.96915 Z" fill="black"/>
        </g>
        <g id="Graphic_52">
          <path d="M 297.47035 219.06878 C 297.1569 219.63301 297.1569 221.20032 297.47035 222.51687 C 297.9092 224.6484 297.9719 224.7111 298.22266 223.0811 C 298.34804 222.1407 298.34804 220.6361 298.22266 219.63301 C 297.9719 218.25378 297.8465 218.1284 297.47035 219.06878 Z" fill="black"/>
        </g>
        <g id="Graphic_51">
          <path d="M 155.7855 220.07186 C 155.34666 220.76148 157.10204 229.22495 158.16781 231.73265 C 158.66935 232.73573 159.35897 234.49112 159.79782 235.61958 C 160.23666 236.74804 161.05166 237.75112 161.6159 237.9392 C 162.18013 238.06458 165.50283 238.25266 169.0763 238.25266 C 174.96938 238.25266 175.47092 238.18997 175.47092 237.0615 C 175.47092 236.43458 175.22015 235.68227 174.844 235.4942 C 174.53053 235.30612 173.33938 233.29996 172.2736 231.04303 C 171.20783 228.8488 170.01668 227.03072 169.70322 227.03072 C 169.32706 227.03072 169.26437 227.53226 169.51514 228.0965 C 169.7659 228.72341 170.20476 230.03995 170.45553 231.10573 C 170.7063 232.1088 171.27053 233.8015 171.64668 234.74189 C 172.64976 237.24958 172.58707 237.31227 170.20476 234.99265 C 167.4463 232.35957 166.69398 230.79226 166.69398 227.72034 C 166.69398 222.9557 164.49975 219.88378 164.0609 224.02148 C 163.87282 225.90226 164.0609 226.96803 165.25206 231.85803 C 165.44013 232.73573 165.31475 233.29996 164.8759 233.29996 C 164.49975 233.29996 164.18629 232.8611 164.18629 232.35957 C 164.18629 231.85803 163.93552 231.4192 163.55936 231.4192 C 163.2459 231.4192 162.93244 232.1088 162.93244 232.9865 C 162.93244 233.8642 162.61897 234.5538 162.30551 234.5538 C 161.49051 234.5538 160.29936 231.85803 158.16781 224.96187 C 157.22743 221.95263 156.41243 219.50763 156.28704 219.50763 C 156.22435 219.50763 155.97358 219.7584 155.7855 220.07186 Z" fill="black"/>
        </g>
        <g id="Graphic_50">
          <path d="M 104.18965 222.45417 C 104.75388 226.71726 107.51235 234.92996 108.95427 236.68535 C 109.5812 237.43766 110.02004 237.50035 110.64697 236.9988 C 111.33658 236.43458 111.2112 235.80766 109.95735 233.42534 C 106.94812 227.40687 105.25542 223.20648 105.25542 221.70186 C 105.25542 220.82417 104.94196 220.13455 104.5658 220.13455 C 104.12696 220.13455 104.00157 221.01225 104.18965 222.45417 Z" fill="black"/>
        </g>
        <g id="Graphic_49">
          <path d="M 120.74045 220.5734 C 119.86275 221.3884 120.36429 223.77071 122.55853 229.16226 C 125.37968 236.05843 127.6993 238.6915 128.70238 236.05843 C 129.07854 235.11804 129.20392 235.11804 130.33238 236.12112 C 131.022 236.74804 131.58623 236.93612 131.58623 236.55997 C 131.58623 235.87035 128.95315 230.66688 128.38892 230.16534 C 128.13815 229.97726 127.57392 228.66072 127.13507 227.1561 C 126.63353 225.4634 126.132 224.7111 125.75584 225.08725 C 125.1916 225.65149 127.26046 232.1715 128.577 233.7388 C 129.07854 234.36573 128.95315 234.5538 128.20084 234.5538 C 127.13507 234.5538 124.00045 228.22187 122.18237 222.45417 C 121.43006 219.94648 121.36737 219.88378 120.74045 220.5734 Z" fill="black"/>
        </g>
        <g id="Graphic_48">
          <path d="M 129.20392 223.70802 C 129.51738 227.1561 133.71777 236.3092 135.2224 236.87343 C 135.72393 237.0615 136.28816 236.87343 136.60162 236.43458 C 136.97778 235.87035 137.41663 235.87035 138.54509 236.62266 C 140.1124 237.56304 144.12471 237.43766 144.12471 236.3719 C 144.12471 236.05843 143.30971 234.17765 142.24394 232.1715 C 141.24086 230.10265 140.36317 227.9084 140.36317 227.2188 C 140.36317 226.59187 139.92432 225.4634 139.42278 224.7738 C 138.4824 223.64533 138.4824 223.8334 138.85855 227.03072 C 139.04663 228.9115 139.61086 231.2311 140.1124 232.1088 C 141.30356 234.49112 140.48855 234.80458 138.4824 232.67304 C 137.47932 231.60726 136.41355 229.41303 135.91201 227.53226 C 135.53585 225.71418 134.78355 223.39456 134.3447 222.3288 C 133.65508 220.69879 133.65508 220.94956 133.90585 224.83648 C 134.09393 227.2815 134.47008 229.47572 134.78355 229.78918 C 135.41047 230.4788 135.53585 233.29996 134.97162 233.29996 C 134.3447 233.29996 132.84008 231.54457 132.84008 230.85496 C 132.84008 230.4788 132.58931 230.16534 132.33854 230.16534 C 131.77431 230.16534 130.33238 225.14995 130.33238 222.9557 C 130.33238 222.1407 130.01892 221.26302 129.64277 221.01225 C 129.07854 220.69879 129.01584 221.4511 129.20392 223.70802 Z" fill="black"/>
        </g>
        <g id="Graphic_47">
          <path d="M 151.08357 224.08418 C 151.08357 226.09033 151.45973 228.72341 151.96127 229.97726 C 153.21511 232.9238 156.72589 237.62574 157.79166 237.68843 C 158.85743 237.68843 158.73205 235.99573 157.66627 235.3688 C 156.6005 234.74189 152.90165 226.96803 152.90165 225.33802 C 152.90165 224.6484 152.65088 223.8961 152.33742 223.51994 C 152.02396 223.20648 151.6478 222.39148 151.45973 221.70186 C 151.27165 221.01225 151.14626 222.07802 151.08357 224.08418 Z" fill="black"/>
        </g>
        <g id="Graphic_46">
          <path d="M 196.78634 224.46033 C 196.78634 227.9711 199.10596 236.05843 200.73596 238.12728 C 201.04942 238.56612 202.61673 238.94228 204.24673 238.87958 C 205.81405 238.87958 207.8829 238.94228 208.88597 238.94228 C 209.82636 238.94228 210.95482 238.94228 211.39367 238.94228 C 211.76982 238.87958 212.7729 239.06766 213.5879 239.25574 C 214.65367 239.6319 214.96714 239.44382 214.96714 238.62881 C 214.96714 237.62574 215.09252 237.62574 216.53445 238.56612 C 217.34945 239.13035 218.22714 239.5692 218.41522 239.5692 C 219.10484 239.5692 218.666 237.1869 217.7883 236.43458 C 216.34637 235.24342 213.27444 228.22187 212.8356 224.96187 C 212.39675 222.01533 211.64444 221.20032 211.01751 222.89302 C 210.70405 223.70802 211.1429 225.96495 212.52213 230.5415 C 213.21175 232.8611 213.27444 233.92688 212.58483 233.92688 C 211.8952 233.92688 208.07097 226.02764 208.07097 224.52302 C 208.07097 223.8961 207.8202 223.1438 207.44405 222.9557 C 205.87674 222.01533 207.13059 228.9115 209.3875 233.8642 C 210.89213 237.1242 210.20251 238.56612 208.13366 236.3719 C 207.44405 235.5569 206.81712 234.6165 206.81712 234.24035 C 206.81712 233.8642 206.2529 232.48496 205.56328 231.10573 C 204.87366 229.7265 204.30943 228.15918 204.30943 227.59495 C 204.30943 226.09033 202.61673 223.0811 202.17789 223.77071 C 201.80173 224.46033 202.42865 228.0965 203.7452 232.79842 C 204.18404 234.42842 204.37212 235.93304 204.18404 236.12112 C 202.49135 237.8138 198.6671 230.5415 198.16557 224.6484 C 197.78942 219.6957 196.78634 219.57032 196.78634 224.46033 Z" fill="black"/>
        </g>
        <g id="Graphic_45">
          <path d="M 98.98618 222.76764 C 98.98618 224.20956 99.98926 227.84572 100.92964 229.6638 C 101.24311 230.29072 101.49388 231.16842 101.49388 231.60726 C 101.49388 232.1088 102.05811 232.9865 102.68503 233.55073 C 103.37465 234.17765 104.00157 235.30612 104.12696 235.99573 C 104.37773 237.75112 106.50927 238.25266 106.50927 236.55997 C 106.50927 235.87035 106.07042 234.99265 105.56888 234.5538 C 105.06734 234.17765 104.50311 233.17458 104.25234 232.48496 C 104.00157 231.73265 102.99849 229.41303 102.05811 227.40687 C 101.05503 225.33802 100.24003 223.1438 100.24003 222.51687 C 100.24003 221.88994 99.98926 221.3884 99.6131 221.3884 C 99.29964 221.3884 98.98618 222.01533 98.98618 222.76764 Z" fill="black"/>
        </g>
        <g id="Graphic_44">
          <path d="M 160.42474 223.70802 C 160.42474 226.52918 161.30243 228.28457 162.24282 227.34418 C 162.93244 226.65456 161.74128 221.3884 160.92628 221.3884 C 160.67551 221.3884 160.42474 222.45417 160.42474 223.70802 Z" fill="black"/>
        </g>
        <g id="Graphic_43">
          <path d="M 292.7684 222.39148 C 292.7684 223.0811 292.9565 223.26917 293.14457 222.76764 C 293.33265 222.3288 293.26996 221.76456 293.08188 221.57648 C 292.8938 221.3257 292.70572 221.70186 292.7684 222.39148 Z" fill="black"/>
        </g>
        <g id="Graphic_42">
          <path d="M 116.85352 223.70802 C 117.0416 224.7111 117.41775 226.52918 117.60582 227.78303 C 117.7939 229.03688 118.48352 230.5415 119.11044 231.16842 C 119.73737 231.73265 120.3016 232.67304 120.3016 233.17458 C 120.3016 233.98958 123.06006 237.0615 123.81237 237.0615 C 124.75276 237.0615 123.74968 234.74189 122.24506 233.36265 C 121.30468 232.48496 120.11352 230.6042 119.67467 229.22495 C 119.23583 227.84572 118.6716 226.21572 118.35813 225.65149 C 118.04467 225.02456 117.7939 223.9588 117.7939 223.26917 C 117.7939 222.57956 117.48044 222.01533 117.10429 222.01533 C 116.66544 222.01533 116.54005 222.64225 116.85352 223.70802 Z" fill="black"/>
        </g>
        <g id="Graphic_41">
          <path d="M 87.2627 227.34418 C 87.70155 232.1715 90.5227 237.0615 92.84232 237.0615 C 94.15886 237.0615 94.15886 237.0615 92.96771 235.61958 C 91.21232 233.61342 89.45693 229.47572 88.64193 225.27533 C 88.39116 224.20956 87.95232 223.26917 87.57616 223.26917 C 87.13731 223.26917 87.01193 224.6484 87.2627 227.34418 Z" fill="black"/>
        </g>
        <g id="Graphic_40">
          <path d="M 187.69594 227.03072 C 187.9467 230.03995 188.51094 231.85803 190.01556 234.36573 C 192.2098 238.0019 192.9621 238.37805 191.52018 235.11804 C 191.01864 233.92688 189.89017 230.72957 188.94979 227.9711 L 187.31978 222.9557 L 187.69594 227.03072 Z" fill="black"/>
        </g>
        <g id="Graphic_39">
          <path d="M 177.16361 224.7111 C 176.97554 225.21264 177.3517 226.21572 178.0413 226.90533 C 178.73092 227.65764 179.23246 229.09957 179.23246 230.29072 L 179.23246 232.35957 L 177.97862 230.79226 C 177.289 229.91457 176.72477 228.9115 176.72477 228.47264 C 176.72477 227.2815 175.34553 224.52302 174.7186 224.52302 C 173.71553 224.52302 174.21707 228.28457 175.72169 231.73265 C 177.289 235.24342 179.23246 236.43458 179.23246 233.8642 C 179.23246 231.98342 181.364 232.61034 181.61477 234.5538 C 181.74016 235.4315 182.179 236.49727 182.49247 236.87343 C 183.37016 238.0019 186.75555 237.9392 186.75555 236.81073 C 186.75555 235.61958 185.18824 234.49112 184.12247 234.86727 C 183.55824 235.11804 182.93132 234.6792 182.55516 233.8015 C 180.92516 230.35342 179.6713 227.2815 179.29516 225.83956 C 178.79362 224.02148 177.66515 223.45725 177.16361 224.7111 Z" fill="black"/>
        </g>
        <g id="Graphic_38">
          <path d="M 192.52325 225.4634 C 192.52325 226.4665 192.64864 226.84264 192.83672 226.21572 C 192.9621 225.65149 192.9621 224.7738 192.83672 224.33495 C 192.64864 223.9588 192.52325 224.39764 192.52325 225.4634 Z" fill="black"/>
        </g>
        <g id="Graphic_37">
          <path d="M 91.46309 225.96495 C 91.46309 226.84264 91.77655 228.40995 92.15271 229.35034 C 92.52886 230.29072 93.09309 231.66996 93.40655 232.35957 C 93.65732 233.0492 94.22156 234.6792 94.59771 235.93304 C 95.41271 238.62881 97.41887 239.19305 98.23387 236.9988 C 98.67272 235.80766 98.7981 235.80766 99.55041 236.68535 C 100.4908 237.8138 102.1208 238.0019 102.1208 236.9988 C 102.1208 236.05843 100.05195 232.67304 99.55041 232.67304 C 99.29964 232.67304 98.29656 231.04303 97.35618 229.03688 C 95.91425 226.21572 95.5381 225.77687 95.35002 226.84264 C 95.22463 227.65764 95.85156 229.16226 96.79194 230.4161 C 97.79502 231.66996 98.35926 233.17458 98.23387 234.05227 L 98.04579 235.4942 L 96.72925 234.11496 C 96.03964 233.29996 94.78579 231.04303 93.97079 229.09957 C 92.2154 224.6484 91.46309 223.70802 91.46309 225.96495 Z" fill="black"/>
        </g>
        <g id="Graphic_36">
          <path d="M 231.26716 225.96495 C 231.26716 228.22187 234.2764 236.05843 235.71832 237.62574 C 237.03486 239.06766 239.41718 239.44382 239.41718 238.18997 C 239.41718 237.75112 238.72756 236.74804 237.91256 235.87035 C 235.9691 233.7388 233.14794 228.53534 233.14794 227.0934 C 233.14794 226.4665 232.7091 225.5888 232.20755 225.14995 C 231.39255 224.46033 231.26716 224.6484 231.26716 225.96495 Z" fill="black"/>
        </g>
        <g id="Graphic_35">
          <path d="M 240.67102 225.90226 C 240.67102 228.9115 243.17872 234.6792 245.43565 236.93612 C 247.75527 239.31843 248.3195 237.9392 246.31334 234.92996 C 244.30718 231.98342 241.92487 226.84264 241.92487 225.40072 C 241.92487 224.89918 241.6741 224.52302 241.29795 224.52302 C 240.9845 224.52302 240.67102 225.14995 240.67102 225.90226 Z" fill="black"/>
        </g>
        <g id="Graphic_34">
          <path d="M 82.68615 227.9084 C 82.68615 228.66072 82.99961 230.22803 83.37577 231.3565 C 84.37885 234.11496 83.50115 234.6165 81.68307 232.35957 L 80.17846 230.4788 L 80.17846 232.35957 C 80.17846 233.36265 80.74269 234.92996 81.4323 235.80766 C 82.99961 237.8138 82.99961 238.31535 81.4323 238.31535 C 80.6173 238.31535 79.86499 237.56304 79.23807 236.2465 C 77.92153 233.36265 75.78999 229.78918 75.78999 230.4161 C 75.78999 230.72957 76.29153 232.54765 76.91845 234.42842 C 77.67076 236.81073 78.61115 238.31535 80.11576 239.5065 C 81.62038 240.63497 82.37269 240.88574 82.56077 240.3215 C 82.68615 239.94536 83.43846 239.5692 84.19077 239.5692 C 86.00885 239.5692 88.95539 238.18997 88.95539 237.31227 C 88.95539 236.93612 88.39116 235.87035 87.70155 234.99265 C 87.01193 234.11496 86.4477 233.17458 86.4477 232.8611 C 86.4477 231.98342 83.62654 226.4665 83.18769 226.4038 C 82.87423 226.4038 82.68615 227.0934 82.68615 227.9084 Z" fill="black"/>
        </g>
        <g id="Graphic_33">
          <path d="M 246.31334 227.40687 C 246.31334 228.0338 247.3791 230.72957 248.69565 233.29996 L 251.07796 238.0019 L 254.33797 238.18997 C 258.0995 238.44074 258.35028 237.8765 255.96797 234.74189 C 255.09028 233.61342 253.96182 231.66996 253.46028 230.4161 C 252.3318 227.65764 251.5168 228.0338 252.5199 230.85496 C 252.89604 231.98342 253.2095 233.7388 253.2095 234.80458 C 253.2095 236.68535 253.2095 236.68535 252.01835 235.4942 C 251.39143 234.80458 249.9495 232.54765 248.82104 230.4788 C 246.43873 226.02764 246.31334 225.83956 246.31334 227.40687 Z" fill="black"/>
        </g>
        <g id="Graphic_32">
          <path d="M 114.03236 228.40995 C 114.09505 229.41303 116.10121 235.18073 116.72813 236.2465 C 117.29236 237.1869 119.67467 237.37497 119.67467 236.49727 C 119.67467 236.1838 119.29852 235.4942 118.92237 235.05535 C 118.04467 234.11496 116.79082 232.1088 115.41159 229.35034 C 114.4712 227.53226 114.03236 227.2188 114.03236 228.40995 Z" fill="black"/>
        </g>
        <g id="Graphic_31">
          <path d="M 147.88626 229.16226 C 147.88626 230.5415 151.58511 237.68843 152.33742 237.68843 C 153.40319 237.68843 153.65396 236.1838 152.71357 235.4942 C 152.08665 235.05535 151.6478 234.5538 151.6478 234.36573 C 151.6478 234.11496 150.8328 232.61034 149.76703 230.98034 C 148.63857 229.22495 147.88626 228.47264 147.88626 229.16226 Z" fill="black"/>
        </g>
        <g id="Graphic_30">
          <path d="M 193.0248 229.7265 C 193.0248 231.48188 194.02787 234.05227 195.78326 236.55997 C 197.1625 238.62881 198.04019 238.8169 198.04019 237.0615 C 198.04019 236.3719 197.78942 235.80766 197.53865 235.80766 C 196.84903 235.80766 194.27864 231.16842 194.27864 229.97726 C 194.27864 229.41303 194.02787 228.7861 193.65172 228.59803 C 193.27556 228.40995 193.0248 228.9115 193.0248 229.7265 Z" fill="black"/>
        </g>
        <g id="Graphic_29">
          <path d="M 237.5364 229.97726 C 237.5364 230.22803 237.84987 230.91765 238.16333 231.4192 C 238.66487 232.2342 238.79025 232.2342 238.79025 231.2938 C 238.79025 230.72957 238.53948 230.03995 238.16333 229.85188 C 237.84987 229.6638 237.5364 229.6638 237.5364 229.97726 Z" fill="black"/>
        </g>
        <g id="Graphic_28">
          <path d="M 144.12471 231.16842 C 144.12471 231.92073 144.56356 232.8611 145.0651 233.29996 C 146.31895 234.36573 146.38164 232.73573 145.0651 231.04303 C 144.1874 229.85188 144.1874 229.85188 144.12471 231.16842 Z" fill="black"/>
        </g>
        <g id="Graphic_27">
          <path d="M 111.2112 232.48496 C 111.65005 234.42842 113.53082 236.43458 114.78467 236.43458 C 115.2862 236.3719 115.22351 236.12112 114.5339 235.5569 C 113.90697 235.11804 113.40543 234.36573 113.40543 233.8642 C 113.34274 232.8611 111.90082 230.79226 111.2112 230.79226 C 110.96043 230.79226 110.96043 231.54457 111.2112 232.48496 Z" fill="black"/>
        </g>
        <g id="Graphic_26">
          <path d="M 71.15075 233.23727 C 70.96267 233.48804 71.21344 234.30304 71.71498 234.92996 C 72.21652 235.5569 72.65537 236.93612 72.65537 237.9392 L 72.65537 239.75728 L 70.14767 236.9988 C 67.51459 234.05227 66.82497 234.6165 68.89382 238.0019 C 70.02229 239.81997 71.40152 240.88574 72.78075 241.07382 C 73.78383 241.1992 74.0346 242.1396 73.28229 243.01728 C 72.21652 244.27113 72.15383 244.27113 68.01613 241.76344 C 66.00997 240.57228 64.254584 239.5692 64.19189 239.5692 C 64.1292 239.5692 64.37997 240.57228 64.75612 241.76344 C 65.38305 243.45613 66.26074 244.33382 68.58036 245.52498 C 73.15691 247.8446 74.91229 248.09537 75.91537 246.52806 C 76.35422 245.77575 77.23191 245.21152 77.796145 245.21152 C 78.42307 245.21152 78.9873 244.77267 79.04999 244.27113 C 79.04999 243.7696 79.11269 243.07998 79.17538 242.70382 C 79.23807 241.9515 77.16922 239.06766 75.60191 237.75112 C 74.97499 237.1869 74.0346 235.80766 73.59575 234.6792 C 72.71806 232.73573 71.77767 232.1715 71.15075 233.23727 Z" fill="black"/>
        </g>
        <g id="Graphic_25">
          <path d="M 240.67102 236.9988 C 240.67102 237.68843 242.30103 238.37805 242.80257 237.8765 C 242.99064 237.68843 242.99064 237.24958 242.80257 236.9988 C 242.36372 236.2465 240.67102 236.3092 240.67102 236.9988 Z" fill="black"/>
        </g>
        <g id="Graphic_24">
          <path d="M 295.02534 237.50035 C 294.77457 237.68843 294.5865 238.18997 294.5865 238.56612 C 294.5865 238.94228 294.89996 238.87958 295.3388 238.44074 C 295.71496 238.06458 295.90304 237.56304 295.77765 237.37497 C 295.58958 237.1869 295.21342 237.24958 295.02534 237.50035 Z" fill="black"/>
        </g>
        <g id="Graphic_23">
          <path d="M 288.0665 239.25574 C 286.62456 240.3215 287.2515 241.38728 288.7561 240.4469 C 289.94726 239.69459 290.57418 238.31535 289.75918 238.31535 C 289.5084 238.31535 288.6934 238.7542 288.0665 239.25574 Z" fill="black"/>
        </g>
        <g id="Graphic_22">
          <path d="M 53.596875 243.6442 C 53.22072 244.70998 53.72226 246.46537 54.72534 247.40575 C 57.67188 250.2896 63.81574 254.61538 64.9442 254.61538 C 66.887666 254.61538 66.76228 253.5496 64.63074 252.48384 C 62.56189 251.41807 60.99458 249.72537 61.55881 249.22383 C 61.74689 248.97306 63.43958 249.66268 65.320355 250.72845 C 68.51767 252.54653 70.89998 252.60922 69.8969 250.91653 C 69.58344 250.47768 69.95959 250.2269 70.7119 250.2269 C 73.03152 250.2269 72.091136 248.7223 68.39228 246.52806 C 65.94728 245.08613 64.06651 244.39652 62.4992 244.4592 C 61.18266 244.5219 60.116885 244.27113 60.116885 243.89498 C 60.116885 243.58152 59.67804 243.33075 59.1765 243.33075 C 58.67496 243.33075 58.23611 243.7696 58.23611 244.27113 C 58.23611 244.83536 58.67496 245.3996 59.1765 245.58767 C 60.367655 246.0892 60.43035 248.34614 59.1765 248.34614 C 58.67496 248.34614 57.5465 247.21767 56.731495 245.90113 C 54.85072 242.9546 54.098414 242.39036 53.596875 243.6442 Z" fill="black"/>
        </g>
        <g id="Graphic_21">
          <path d="M 305.62036 245.58767 C 305.3696 246.1519 305.3696 246.77883 305.49498 246.9042 C 305.9965 247.40575 307.12498 246.40267 307.12498 245.4623 C 307.12498 244.27113 306.1219 244.33382 305.62036 245.58767 Z" fill="black"/>
        </g>
        <g id="Graphic_20">
          <path d="M 171.39591 255.2423 C 171.20783 255.55577 171.58399 255.86923 172.2736 255.86923 C 172.96322 255.86923 173.71553 255.55577 173.9036 255.2423 C 174.09169 254.86615 173.71553 254.61538 173.02591 254.61538 C 172.3363 254.61538 171.58399 254.86615 171.39591 255.2423 Z" fill="black"/>
        </g>
        <g id="Graphic_19">
          <path d="M 187.69594 257.75 C 185.75247 259.06654 183.49555 260.195 180.04746 261.51154 C 178.919 261.9504 177.66515 262.7027 177.2263 263.26693 C 176.474 264.14463 176.72477 264.14463 179.16977 263.76847 C 181.74016 263.39232 183.74632 262.51462 186.25401 260.75924 C 187.1317 260.1323 187.50786 260.1323 188.13479 260.75924 C 188.69902 261.32347 188.57363 261.825 187.38248 263.07885 C 186.56748 263.95655 185.5644 264.64616 185.18824 264.64616 C 184.7494 264.64616 183.9344 265.2104 183.30747 265.9 C 182.68055 266.58963 181.61477 267.15386 180.98785 267.15386 C 180.36093 267.15386 179.04439 267.53 178.104 268.03155 C 177.16361 268.5331 175.34553 269.09733 174.029 269.3481 C 172.77515 269.59886 171.70937 270.0377 171.70937 270.35117 C 171.70937 271.16618 175.28284 271.0408 177.91592 270.2258 C 182.55516 268.72117 183.37016 268.34502 185.18824 266.7777 C 186.25401 265.83732 188.0094 264.3954 189.13786 263.5177 C 190.95594 262.13847 191.20671 261.63693 191.01864 259.4427 C 190.76787 256.43346 190.20364 256.12 187.69594 257.75 Z" fill="black"/>
        </g>
        <g id="Graphic_18">
          <path d="M 188.94979 267.7808 C 188.69902 268.15694 186.63017 269.4108 184.31055 270.53925 C 181.99093 271.7304 179.734 273.10964 179.29516 273.67387 C 178.8563 274.1754 177.53977 274.92772 176.34861 275.30387 C 175.15746 275.68003 174.21707 276.30695 174.21707 276.6204 C 174.21707 277.37272 176.5367 277.37272 177.03823 276.6204 C 177.2263 276.30695 178.22938 275.8054 179.29516 275.61734 C 184.24786 274.48887 191.14402 270.1004 191.14402 268.03155 C 191.14402 267.02848 189.51402 266.8404 188.94979 267.7808 Z" fill="black"/>
        </g>
        <g id="Graphic_17">
          <path d="M 188.63632 273.4858 C 187.75863 274.11272 186.69286 274.67695 186.3167 274.67695 C 185.87786 274.67695 185.5017 274.92772 185.5017 275.30387 C 185.5017 275.61734 183.43285 276.93388 180.98785 278.25042 C 175.97246 280.7581 176.4113 281.6358 181.80285 280.0685 C 185.37632 279.00273 186.19132 279.1281 185.68978 280.8208 C 185.43901 281.7612 179.16977 285.20927 175.97246 286.21235 C 175.34553 286.40043 174.844 286.83928 174.844 287.21543 C 174.844 288.97082 186.00324 284.39427 189.45133 281.25965 C 191.64556 279.1908 191.58287 278.4385 189.26325 278.4385 C 188.26017 278.4385 187.38248 278.18773 187.38248 277.81157 C 187.38248 277.4981 188.26017 276.6204 189.26325 275.8054 C 191.08133 274.48887 191.64556 273.17233 190.64248 272.5454 C 190.39171 272.42002 189.45133 272.79618 188.63632 273.4858 Z" fill="black"/>
        </g>
        <g id="Graphic_16">
          <path d="M 187.31978 286.08697 C 185.81517 287.21543 183.30747 288.84543 181.74016 289.66044 C 180.17285 290.47544 178.66823 291.41582 178.35477 291.6666 C 177.16361 292.73236 180.549 292.23082 182.994 290.97698 C 186.19132 289.34697 186.75555 289.40967 186.75555 291.22775 C 186.75555 292.73236 184.93747 293.86083 177.16361 297.18353 C 175.47092 297.93583 174.27976 298.75084 174.46784 299.0643 C 174.96938 299.8166 180.29823 298.312 184.12247 296.36852 C 185.87786 295.49083 187.69594 294.73852 188.19748 294.73852 C 188.63632 294.73852 189.45133 293.9862 189.89017 293.10852 C 190.5798 291.85467 190.64248 291.29044 190.01556 290.35005 C 189.07517 288.78274 189.07517 286.40043 190.01556 285.46004 C 191.70825 283.76735 189.82748 284.2062 187.31978 286.08697 Z" fill="black"/>
        </g>
        <g id="Graphic_15">
          <path d="M 187.57055 316.93163 C 186.75555 317.37048 185.6271 318.1855 185.06286 318.68702 C 184.43593 319.25125 182.2417 320.5051 180.17285 321.4455 C 177.97862 322.44857 176.85015 323.26357 177.41438 323.38895 C 177.97862 323.51434 180.29823 322.76203 182.61785 321.69626 C 184.93747 320.69318 186.94363 319.8155 187.1317 319.8155 C 187.88402 319.8155 191.14402 317.1824 191.14402 316.61817 C 191.14402 315.86586 189.26325 315.99125 187.57055 316.93163 Z" fill="black"/>
        </g>
        <g id="Graphic_14">
          <path d="M 187.82132 321.88433 C 186.81824 323.20088 184.37324 324.89357 181.17593 326.3982 C 176.28592 328.7805 174.96938 329.84627 177.10092 329.84627 C 180.48631 329.84627 190.5171 323.0755 190.5171 320.81856 C 190.5171 319.25125 189.51402 319.6274 187.82132 321.88433 Z" fill="black"/>
        </g>
        <g id="Graphic_13">
          <path d="M 188.0094 327.33857 C 186.63017 329.28204 180.48631 333.6078 179.10708 333.6078 C 177.85323 333.6078 174.21707 335.11243 174.21707 335.61397 C 174.21707 336.55436 176.09784 336.1155 180.29823 334.17205 C 182.68055 333.10628 185.25093 331.91512 186.12863 331.53897 C 188.51094 330.4732 191.14402 327.9028 191.14402 326.58627 C 191.14402 324.83088 189.51402 325.26972 188.0094 327.33857 Z" fill="black"/>
        </g>
        <g id="Graphic_12">
          <path d="M 186.4421 334.29743 C 184.37324 335.99013 182.3044 337.36936 181.74016 337.36936 C 181.23862 337.43205 180.11016 337.8082 179.23246 338.30975 C 177.97862 338.99936 177.85323 339.25013 178.66823 339.5636 C 180.73708 340.3786 191.77095 333.6705 191.77095 331.60166 C 191.77095 330.4732 190.01556 331.3509 186.4421 334.29743 Z" fill="black"/>
        </g>
        <g id="Graphic_11">
          <path d="M 188.8871 337.8709 C 187.1944 339.5009 184.37324 341.50706 182.68055 342.38475 C 180.36093 343.5759 179.92208 344.01475 180.86247 344.14014 C 182.55516 344.3909 189.7021 340.81744 191.52018 338.8113 C 192.9621 337.24397 193.58903 334.86166 192.58595 334.86166 C 192.27248 334.92436 190.64248 336.2409 188.8871 337.8709 Z" fill="black"/>
        </g>
        <g id="Graphic_10">
          <path d="M 194.34133 346.209 C 193.7144 347.27476 192.1471 348.84207 190.89325 349.65707 C 189.6394 350.53477 188.7617 351.47515 188.94979 351.7886 C 189.32594 352.41554 191.14402 351.914 191.14402 351.1617 C 191.14402 350.9109 192.33518 349.90784 193.8398 348.90476 C 196.72365 346.8986 197.41326 346.209 197.41326 345.01783 C 197.41326 343.5759 195.5325 344.26552 194.34133 346.209 Z" fill="black"/>
        </g>
        <g id="Graphic_9">
          <path d="M 195.4071 351.41246 C 193.21287 353.6067 190.83056 355.55016 190.07825 355.80093 C 188.51094 356.30247 188.13479 357.43093 189.51402 357.43093 C 191.45748 357.43093 195.84595 354.4217 198.16557 351.60054 C 199.4821 349.90784 200.54788 348.27784 200.54788 347.96438 C 200.54788 346.71053 199.16865 347.58822 195.4071 351.41246 Z" fill="black"/>
        </g>
        <g id="Graphic_8">
          <path d="M 201.3002 351.72592 C 200.86134 352.729 199.5448 354.79785 198.35365 356.30247 C 195.03095 360.37747 195.72057 361.38055 199.5448 358.05785 C 202.55404 355.3621 204.5602 349.90784 202.55404 349.90784 C 202.30327 349.90784 201.73904 350.72284 201.3002 351.72592 Z" fill="black"/>
        </g>
        <g id="Graphic_7">
          <path d="M 208.07097 360.1894 C 207.69482 361.31786 206.1275 363.5121 204.4975 365.0167 C 202.8675 366.52133 201.92712 367.83787 202.36596 367.96326 C 203.43173 368.3394 208.07097 365.1421 208.07097 364.01363 C 208.07097 363.5121 208.6352 362.13286 209.26213 360.9417 C 210.3906 358.93555 210.3906 358.05785 209.26213 358.05785 C 209.01136 358.05785 208.50982 358.99824 208.07097 360.1894 Z" fill="black"/>
        </g>
        <g id="Graphic_6">
          <path d="M 212.0206 361.9448 C 211.64444 362.38363 211.2056 363.3867 210.95482 364.07633 C 210.51598 365.58094 206.2529 370.28287 204.87366 370.7217 C 204.37212 370.9098 204.18404 371.22326 204.4348 371.47403 C 205.06174 372.16365 208.6979 370.0321 210.3906 368.02595 C 212.20867 365.9571 213.08636 365.70633 213.08636 367.39902 C 213.08636 369.2171 208.6979 373.3548 205.68866 374.2952 C 202.99289 375.23557 202.17789 376.23865 204.18404 376.23865 C 206.69174 376.23865 211.45636 374.1071 213.46252 372.03826 C 215.71945 369.78134 216.28368 367.08556 214.65367 366.45864 C 214.15214 366.20787 213.7133 365.45556 213.6506 364.70325 C 213.6506 364.01363 213.39983 362.88517 213.14906 362.25825 C 212.7729 361.25517 212.58483 361.25517 212.0206 361.9448 Z" fill="black"/>
        </g>
        <g id="Graphic_5">
          <path d="M 180.36093 365.39287 C 179.734 365.51825 179.23246 365.8944 179.23246 366.20787 C 179.23246 366.45864 177.91592 367.39902 176.28592 368.21403 C 173.59015 369.46787 173.46476 369.65595 174.844 369.84403 C 176.78746 370.0948 180.17285 368.65287 182.68055 366.58402 L 184.56132 365.0167 L 182.994 365.0794 C 182.11631 365.0794 180.92516 365.2048 180.36093 365.39287 Z" fill="black"/>
        </g>
        <g id="Graphic_4">
          <path d="M 178.35477 373.04134 C 178.1667 373.3548 176.91284 374.1071 175.659 374.67134 C 174.27976 375.36096 173.65284 375.9252 174.15438 376.11327 C 175.09476 376.42673 181.11324 373.79365 181.11324 372.97865 C 181.11324 372.28903 178.79362 372.35172 178.35477 373.04134 Z" fill="black"/>
        </g>
      </g>
    </g>
  </g>
</svg>
