<?xml version="1.0" encoding="UTF-8" standalone="no"?>
<!DOCTYPE svg PUBLIC "-//W3C//DTD SVG 1.1//EN" "http://www.w3.org/Graphics/SVG/1.1/DTD/svg11.dtd">
<svg xmlns:dc="http://purl.org/dc/elements/1.1/" xmlns:xl="http://www.w3.org/1999/xlink" version="1.1" xmlns="http://www.w3.org/2000/svg" viewBox="67.5 72 90 333" width="90" height="333">
  <defs>
    <clipPath id="artboard_clip_path">
      <path d="M 67.5 72 L 157.5 72 L 157.5 405 L 67.5 405 Z"/>
    </clipPath>
  </defs>
  <g id="Arm_Couped_with_Fingers_Extended" stroke="none" stroke-opacity="1" stroke-dasharray="none" fill="none" fill-opacity="1">
    <title>Arm Couped with Fingers Extended</title>
    <g id="Arm_Couped_with_Fingers_Extended_Layer_2" clip-path="url(#artboard_clip_path)">
      <title>Layer 2</title>
      <g id="Group_3">
        <g id="Graphic_74">
          <path d="M 146.6005 402.75 C 146.28213 400.55435 145.9647 398.8589 145.86413 398.7651 C 145.45875 398.3871 143.87603 386.75544 144.17845 386.43114 C 144.32965 386.269 144.17795 385.29384 143.78849 384.24856 C 142.91754 381.76903 142.53927 375.42895 143.165 373.13247 C 143.4428 372.1031 143.53108 370.13913 143.36022 368.6156 C 143.1921 367.1704 143.59599 364.13653 144.18665 361.95892 C 144.81785 359.8191 145.23815 357.2553 145.20532 356.3152 C 145.13195 355.3373 145.2558 354.39176 145.44482 354.18907 C 145.67163 353.94584 145.90615 352.80034 146.0218 351.61976 C 146.13744 350.4392 146.89796 347.5105 147.67763 345.1302 C 148.77564 341.75836 149.07159 339.00277 149.01215 332.80843 C 148.86119 315.0088 148.38543 308.12308 146.98973 304.09316 C 146.55973 303.01008 146.40528 301.9566 146.5943 301.7539 C 146.7833 301.5512 146.66667 300.45718 146.43115 299.3281 C 146.11729 298.20173 145.38661 295.2467 144.71289 292.7995 C 142.52906 284.1694 140.3522 279.10788 136.60853 274.10107 C 134.6759 271.54096 132.25954 268.60557 131.20555 267.6227 C 129.74618 266.26183 129.3704 265.60825 129.69694 264.8517 C 130.78177 262.22545 130.57684 250.74178 129.38433 248.03817 C 129.00307 247.2279 128.75064 244.49148 128.81978 241.97912 C 128.88892 239.46677 128.71483 236.7276 128.44971 235.87406 C 128.1468 235.06107 127.7837 232.5246 127.66382 230.21492 C 127.27784 224.77712 126.24325 218.73448 125.28303 215.94433 C 124.41756 213.62148 124.1905 207.11925 124.7824 201.60808 C 124.99503 199.83586 124.8861 197.83955 124.62646 197.1427 C 123.98283 195.55724 124.82492 193.84147 127.01521 192.54923 C 131.66315 189.75932 133.71814 187.96198 135.95618 184.66796 C 137.22505 182.81963 138.3723 180.8579 138.50982 180.30404 C 138.68516 179.70965 139.16564 178.8693 139.58147 178.42338 C 139.9973 177.97746 140.72324 176.30496 141.17911 174.75955 C 141.63497 173.21413 142.42285 171.06885 142.93567 170.03128 C 143.40795 168.9559 144.00681 167.01332 144.19533 165.67333 C 144.42438 164.37114 144.88572 162.9824 145.22594 162.61757 C 145.90638 161.88789 145.62659 158.36805 144.12818 148.02765 C 143.56462 144.2432 143.41963 140.09117 143.7698 137.76509 C 145.48284 126.17522 145.38535 125.62958 141.72475 125.24758 C 140.62251 125.1292 139.63916 125.04588 139.52028 125.01082 C 139.44194 125.01355 138.17805 125.88126 136.72789 127.03 C 134.32173 128.87883 133.94918 129.44089 132.68902 132.66154 C 131.93347 134.6096 131.2513 137.53554 131.14933 139.10782 C 130.90486 142.21456 130.18264 146.24 129.76681 146.68592 C 129.31318 147.17237 128.00776 145.72768 127.97494 144.7876 C 127.95852 144.31756 127.70161 143.69905 127.41238 143.27775 C 126.87991 142.62964 126.14351 132.77246 126.30641 128.45281 C 126.34372 127.27497 126.13953 123.67406 125.79235 120.47032 C 125.48297 117.22605 125.19721 112.41223 125.22034 109.70539 C 125.23103 103.27329 124.88236 96.65765 124.25414 93.26764 C 123.6314 90.03431 123.60131 89.17256 123.7274 87.16805 C 123.81295 85.12574 121.21579 82.62805 118.57908 82.36717 C 116.92573 82.1896 116.56363 81.92772 116.13089 80.76629 C 115.86851 79.9911 115.66806 78.74313 115.71905 77.95699 C 115.77003 77.17085 115.37783 76.04723 114.8103 75.518 C 113.43201 74.23273 109.06361 73.79701 108.11856 74.81045 C 106.90889 76.10767 106.16702 78.44743 106.46496 80.24104 C 107.01483 83.63379 106.45054 84.3202 103.03864 84.32169 C 99.55113 84.40426 98.51953 85.18543 98.26138 87.90047 C 98.06242 90.0644 97.52225 90.31857 95.59831 89.13079 C 93.95541 88.12928 91.85664 88.67318 89.14806 90.84631 C 86.93364 92.57079 85.43896 96.93695 85.12809 102.63439 C 84.94878 106.484 84.50709 109.55842 83.55806 113.82708 C 82.68189 117.93634 82.04124 123.17468 82.25264 124.73601 C 82.55879 126.76465 82.0604 136.07668 81.64457 136.5226 C 81.49336 136.68475 81.40507 138.64872 81.44114 140.80445 C 81.51774 142.99797 81.313305 145.00522 81.01089 145.32952 C 80.21704 146.18082 79.65797 152.63207 80.139945 155.20361 C 80.3782 156.41105 80.29812 158.61004 79.99346 159.9933 C 79.68881 161.37657 79.69751 162.74889 79.98128 163.0135 C 80.30558 163.31592 80.76567 165.26075 81.03402 167.32992 C 81.3429 169.4369 81.96838 172.74857 82.42847 174.6934 C 82.85077 176.67876 83.05992 179.29905 82.90647 180.52017 C 82.75303 181.74128 82.93209 183.49983 83.35662 184.42623 C 83.78115 185.35263 83.87416 188.0162 83.61054 190.57456 C 83.30365 193.01679 83.12658 195.80744 83.15667 196.66918 C 83.14896 197.57146 82.98457 198.4792 82.75776 198.72244 C 81.8505 199.69535 81.5834 206.64623 82.39242 209.59854 C 83.16363 212.59138 83.67347 217.08363 83.69411 221.0439 C 83.73714 226.7682 83.07386 235.8507 82.60705 237.08275 C 82.28051 237.8393 82.32154 239.0144 82.70006 239.7463 C 83.00024 240.48097 82.96567 241.73715 82.569 242.73144 C 82.16959 243.6474 81.76247 245.46564 81.68736 246.68402 C 81.61499 247.98073 81.03801 250.55004 80.398605 252.45482 C 79.7592 254.3596 79.3093 257.199 79.40182 258.72527 C 79.534875 260.28934 78.64553 265.1442 77.46968 269.65608 C 76.331635 274.12744 74.95086 279.5093 74.435805 281.6058 C 73.33283 285.9583 72.65587 294.64908 73.16471 296.86673 C 73.38928 297.68246 73.69692 303.123 73.86156 308.9607 C 74.10454 314.79568 74.64497 321.28697 75.18887 323.38574 C 75.654435 325.48724 76.02301 328.1804 75.98844 329.43658 C 75.88423 332.0678 77.1807 337.74834 78.032 338.5422 C 78.39684 338.8824 78.699755 339.6954 78.76218 340.35993 C 78.8246 341.02445 79.265545 342.4209 79.77115 343.4229 C 80.276755 344.4249 81.6533 347.90645 82.82443 351.12063 C 84.4743 355.69072 84.89932 357.75443 84.66256 359.9589 C 84.44445 361.57444 84.10473 363.0766 83.84012 363.36035 C 83.6133 363.60358 83.34147 365.9269 83.27507 368.5176 C 83.20867 371.1083 83.11591 375.1902 83.0413 377.5459 C 82.96669 379.90156 82.93635 384.648 82.93784 388.0599 L 82.93784 388.0599 C 82.97475 391.08937 82.84901 393.79184 82.66422 394.57 L 83.41052 401.2248 C 83.90796 401.6617 84.48348 402.17375 85.12537 402.75 Z" fill="black"/>
        </g>
        <g id="Graphic_73">
          <path d="M 144.30855 400.64367 C 144.05333 399.7558 143.81602 399.1289 143.63554 398.9606 C 143.46794 398.8043 142.71327 399.43194 141.58264 400.64367 Z M 139.87889 400.64367 L 143.48333 396.84814 L 142.99091 395.10054 C 142.27665 392.61554 141.71459 392.243 141.0993 393.71553 C 140.3282 395.61023 138.1896 398.4782 136.03635 400.64367 Z M 133.58173 400.64367 C 133.67715 400.53846 133.77609 400.4309 133.87858 400.32097 C 135.35013 398.66166 137.79634 395.71333 139.29748 393.77845 C 141.47086 390.87887 141.98368 389.8413 142.00183 388.1151 C 141.96577 385.95936 140.31963 383.7422 139.16368 384.33163 C 138.81799 384.5398 137.19523 386.36126 135.54014 388.37995 C 133.92559 390.43644 132.14615 392.2634 131.60324 392.4392 C 131.10086 392.65284 130.22047 393.27185 129.72904 393.79885 C 128.78399 394.8123 126.63647 395.0834 126.60364 394.1433 C 126.5549 393.87047 127.35695 393.2542 128.28062 392.75133 C 130.09015 391.78613 135.35834 386.54306 135.32825 385.6813 C 135.2795 385.4085 136.51877 383.8357 137.99032 382.1764 C 140.14231 379.7874 140.58773 379.06592 140.10128 378.6123 C 139.41213 377.96966 138.9585 378.4561 134.37946 384.34182 C 131.33937 388.2521 129.46244 389.5334 128.28684 388.43715 C 127.80038 387.9835 128.3592 387.14043 131.08097 384.2217 C 132.97108 382.1948 134.32102 380.4221 134.15886 380.27087 C 133.95617 380.08186 132.76242 380.7118 131.46347 381.6984 C 130.20231 382.64445 128.85188 383.2799 128.49525 383.1747 C 127.97646 382.91827 128.6865 381.91303 131.25705 379.15645 C 134.16782 376.03503 136.9811 372.36797 139.91823 367.75535 C 140.774 366.43127 141.57854 359.1479 140.92994 358.54304 C 140.28133 357.9382 140.72352 356.0011 141.81978 354.8255 C 142.61363 353.9742 145.09738 344.23987 145.75718 339.5499 C 146.22026 335.9649 145.86362 323.5061 145.1133 318.86538 C 144.7584 316.5639 144.60346 314.37313 144.787 314.01376 C 145.14587 313.06 143.8397 303.73255 142.65714 299.0677 C 141.52332 294.67568 138.66453 286.93194 136.423 282.26486 C 135.0278 279.37224 134.78458 279.14543 133.77163 279.33767 C 132.91536 279.52445 131.99393 278.96836 130.21026 277.30506 C 128.91304 276.0954 126.45938 274.33783 124.85975 273.45247 C 119.22324 270.3942 117.8355 272.20748 123.28574 275.54676 C 127.05253 277.84673 129.36593 280.0798 129.82328 281.94628 C 130.36719 284.04505 129.34926 285.2179 128.47061 283.64066 C 126.32931 279.59757 119.08446 274.28163 117.40202 275.5169 C 116.75117 275.97104 117.2431 276.58135 121.66173 280.7018 C 124.82369 283.65036 127.0018 285.37832 127.55018 285.35917 C 128.64694 285.32087 129.00133 286.48503 128.13188 287.4174 C 127.52705 288.066 126.88665 287.6962 123.09523 284.69117 C 120.75224 282.73366 118.58234 281.24072 118.27172 281.33 C 117.14536 281.64386 118.0755 283.57227 119.96163 284.8006 C 122.29094 286.3664 127.47209 292.10737 126.2455 291.79724 C 125.49443 291.62738 123.7217 290.27744 115.4848 283.50587 C 114.31467 282.5663 114.30646 282.33127 115.31892 281.00172 C 115.99388 280.11536 116.23661 279.20487 115.94464 278.70524 C 114.81182 276.5878 114.5681 275.2237 115.01302 273.36492 C 115.53354 271.42507 115.57134 271.38454 119.2879 269.99978 L 123.00172 268.53668 L 125.69861 270.52105 C 127.14703 271.56857 129.61985 273.8745 131.17123 275.62435 C 133.04965 277.75495 134.09817 278.58113 134.36278 278.29737 C 134.96762 277.64876 134.62417 276.79796 132.06704 273.20078 C 130.74794 271.3644 128.9501 268.1721 128.0145 266.087 C 127.07889 264.0019 126.11642 262.2707 125.8814 262.27892 C 125.60858 262.32767 125.20644 263.1653 125.00698 264.1919 C 124.42453 266.60454 124.0465 267.00992 123.0736 266.10267 C 122.26284 265.34662 122.17554 257.23158 122.96939 256.38028 C 123.57422 255.73168 124.72073 258.2408 124.79733 260.43432 C 124.8411 261.68776 125.00598 261.9173 125.54342 261.5848 C 125.96745 261.3739 126.10772 260.8984 125.89956 260.5527 C 125.7292 260.16647 125.61803 259.22913 125.66901 258.443 C 125.85703 255.9657 125.98635 242.8232 125.86325 239.2979 C 125.6996 235.7348 124.06813 223.83032 123.66276 223.4523 C 123.54114 223.3389 123.24867 221.70196 123.10467 219.82453 C 122.75202 216.4641 122.75202 216.4641 119.6388 213.78836 C 117.49577 211.94152 116.59573 210.87485 116.77653 210.43714 C 116.92227 210.1183 117.50845 210.05862 118.10558 210.3123 C 119.30257 210.89798 120.56645 210.03027 119.8313 209.19315 C 118.80964 208.01308 117.24508 207.00883 115.41863 206.3667 C 114.3838 205.93221 113.34076 205.26272 113.08932 204.80088 C 112.7486 204.02842 112.82421 203.94735 114.07491 203.82524 C 115.16894 203.7086 116.04983 204.22688 117.87404 205.92798 C 120.1847 208.0827 120.30358 208.11778 120.85146 206.96133 C 121.8393 204.92672 122.31381 202.7924 122.30461 200.28277 C 122.29267 197.6948 121.36303 196.9037 120.24265 198.51153 C 119.64602 199.39516 119.28938 199.28996 117.9193 198.2397 C 116.6681 197.22452 116.37886 196.80322 116.83249 196.31677 C 117.55073 195.54655 116.61562 194.59876 113.61631 192.9387 C 112.13556 192.0884 110.32006 191.7596 108.01039 191.87948 C 106.01408 191.98841 104.23912 191.69744 103.71213 191.206 C 103.18513 190.71458 102.46913 190.42584 102.1585 190.51512 C 101.34277 190.7397 99.84287 189.34101 100.3343 188.81402 C 100.52331 188.61133 101.70388 188.72698 103.01154 189.1127 C 104.27866 189.46064 106.43986 189.58126 107.84451 189.37533 C 110.42153 189.05004 112.72622 189.91078 118.49802 193.47414 C 121.34612 195.29636 122.39414 194.98523 123.47076 192.12395 C 123.97263 190.77302 124.53693 190.0866 125.53894 189.581 C 126.27086 189.20249 128.62554 187.0025 130.8586 184.6891 C 134.03399 181.28391 135.0059 179.91657 135.79105 177.69295 C 136.32525 176.1448 136.98107 174.71005 137.20788 174.46683 C 137.77492 173.85876 141.28978 162.20597 141.7046 159.48545 C 141.89586 158.2238 141.94908 156.3787 141.79464 155.32522 C 141.678 154.2312 141.40418 152.00534 141.22785 150.32513 C 140.23778 141.06508 139.8237 139.31473 138.17805 138.23488 C 136.85125 137.30077 136.68089 136.91454 136.91491 134.63173 C 137.14073 132.1139 138.03978 130.90597 140.55164 129.83781 C 141.24575 129.49983 141.27535 129.22427 140.62674 128.61944 C 137.30263 125.51965 133.0576 135.3547 133.11629 146.0199 C 133.15882 150.6069 133.05635 151.04188 131.64623 151.09112 C 129.21768 151.17593 130.37165 158.39093 133.40428 162.12838 C 134.46921 163.4246 135.29638 164.65068 135.30459 164.8857 C 135.34016 165.90413 133.05188 165.51342 131.67359 164.22814 C 130.86283 163.4721 129.42809 162.81628 128.48253 162.69243 L 126.79138 162.5554 L 127.02516 165.88075 C 127.30768 169.47892 127.04306 169.76269 126.03956 166.8564 C 125.65284 165.88945 125.02835 164.85238 124.58791 164.59323 C 123.98531 164.18288 123.84504 164.6584 123.76223 166.77905 L 123.69856 169.44809 L 122.12355 169.26778 C 121.29688 169.179 120.1541 169.02281 119.64079 168.92308 C 118.10085 168.6239 116.74469 174.7108 117.26273 179.43807 C 117.49328 181.54778 117.39678 183.27674 117.08342 183.28768 C 116.77006 183.29862 115.60814 182.59406 114.48128 181.77062 C 113.35443 180.94718 111.8682 179.9402 111.06839 179.49751 C 110.23077 179.09537 109.86046 178.59847 110.08727 178.35524 C 110.27628 178.15255 111.02462 178.24407 111.70556 178.65169 C 113.42407 179.57212 114.69616 178.93943 114.40369 177.3025 C 114.21692 176.44622 113.40069 175.5335 111.82792 174.29423 C 109.04995 172.23426 109.25488 171.36431 112.22409 172.16264 L 114.20448 172.72096 L 113.47977 171.0599 C 113.09578 170.1713 112.51184 169.17203 112.26587 168.86688 C 111.41458 168.07303 112.9003 167.94271 113.79214 168.77436 C 114.76505 169.68162 116.3883 168.99744 116.07445 167.87109 C 115.9797 167.40378 114.80136 166.22918 113.47181 165.21672 C 111.94232 164.0936 111.2477 163.29428 111.51232 163.01052 C 111.92814 162.5646 114.8705 163.71682 116.0461 164.81309 C 116.97847 165.68254 118.60173 164.99837 118.28787 163.872 C 118.15531 163.44524 117.02846 162.6218 115.75313 162.03885 C 114.51834 161.4937 112.95104 160.41112 112.25642 159.6118 C 111.03208 158.24271 111.03208 158.24271 114.44447 159.37852 C 116.34652 159.93958 118.1379 160.7006 118.4622 161.00302 C 118.78651 161.30544 119.21601 161.25122 119.35901 160.85405 C 119.53982 160.41634 118.84247 159.53868 116.94539 157.997 C 115.08612 156.41477 114.47258 155.69106 114.97768 155.55577 C 115.36665 155.46375 116.20427 155.8659 116.81234 156.43293 C 118.23116 157.756 121.21953 159.10271 121.67316 158.61625 C 121.86217 158.41357 120.55401 156.89053 118.77034 155.22724 C 116.98667 153.56394 115.67852 152.0409 115.86753 151.83822 C 116.20775 151.47338 120.44458 153.75693 121.90395 155.1178 C 123.03901 156.17627 124.31881 154.6413 123.48617 153.25853 L 122.81841 152.10532 L 124.24769 152.60446 L 125.67696 153.1036 L 124.9336 152.03145 C 124.48221 151.45895 123.12033 150.64371 121.92608 150.13637 C 119.14314 149.05702 116.30822 146.4892 117.02646 145.71898 C 117.5935 145.11091 123.2136 147.69912 125.19995 149.55143 C 126.7782 150.94738 127.7802 150.44177 126.47205 148.91874 C 125.98012 148.30843 125.75281 147.41436 125.97142 146.93611 C 126.4519 146.09576 126.02688 144.03205 124.68266 140.3533 C 124.03082 138.53283 123.8157 134.61855 123.88284 127.557 C 123.8918 123.32116 123.72144 122.93493 121.30334 122.1958 C 119.35801 121.51859 118.52636 122.41042 118.68951 124.83623 C 118.76561 125.89246 118.6067 126.95689 118.37988 127.20012 C 118.15307 127.44334 118.11303 128.54284 118.34855 129.67193 C 118.78178 131.97066 117.41692 136.68524 116.10976 137.43681 C 114.72426 138.19111 112.78167 137.59225 112.10571 136.20401 C 111.3432 134.58349 111.16364 131.68764 111.80627 130.9985 C 112.60012 130.1472 113.62227 120.11095 113.0142 119.54392 C 111.8386 118.44766 109.47198 118.05969 108.75374 118.82991 C 108.33792 119.27582 108.08474 121.01025 108.18273 122.6932 C 108.37597 125.98075 108.19516 126.41846 106.33142 126.95415 C 105.3212 127.22474 105.05932 127.58684 104.88449 129.31853 C 104.61266 131.64188 104.09163 132.44443 103.32141 131.72619 C 102.38904 130.85674 102.22863 128.50927 102.80511 124.80266 C 103.4868 120.73942 103.30276 119.96149 101.46264 118.92765 C 99.62251 117.8938 98.80728 119.25568 98.60931 123.69421 C 98.36584 129.07556 97.18676 132.37181 94.95319 133.54791 C 94.02953 134.05078 93.06258 134.4375 92.74649 134.3701 C 91.52264 134.13832 90.7942 130.12432 91.48733 127.51174 C 92.35578 124.30477 91.47713 122.72752 89.18114 123.23909 C 86.92295 123.71013 85.87817 125.23689 85.82545 128.21929 C 85.72074 129.71322 85.67573 131.79334 85.59515 132.85504 C 85.51234 134.97569 86.17462 135.97223 87.57927 135.7663 C 88.04931 135.74989 89.37562 135.5467 90.50745 135.38952 C 91.9121 135.1836 92.70371 135.39127 92.99842 135.96924 C 93.50676 137.04959 92.53211 138.3386 91.76189 137.62035 C 91.43759 137.31794 90.37316 137.15902 89.39527 137.23238 L 87.55565 137.33584 L 87.95332 138.61614 C 88.21296 139.313 89.20775 140.84697 90.18887 141.98925 C 92.23492 144.42774 92.13792 145.0194 89.74942 144.0047 C 88.07692 143.27875 87.00478 144.02211 87.98863 145.24273 C 91.63207 149.62555 91.67037 150.7223 88.05752 148.33853 C 84.48248 145.91421 84.32356 146.97864 87.81803 150.46466 C 89.44501 152.13343 90.75043 153.57812 90.63703 153.69973 C 90.52362 153.82134 89.89964 153.92157 89.23511 153.984 C 87.86279 153.9927 87.54172 154.90592 88.55517 155.85098 C 88.96055 156.229 89.1906 157.20141 89.10181 158.02809 C 88.87276 159.33027 89.03765 159.55982 90.18315 159.79435 C 91.68529 160.13407 93.2608 161.45167 92.76937 161.97867 C 92.39135 162.38405 91.67535 162.0953 89.02994 160.4621 C 88.18958 159.98162 87.3547 159.65781 87.16569 159.8605 C 86.59866 160.46857 87.13162 162.25398 88.13959 163.04235 C 89.9934 164.4679 90.53133 165.27268 89.87228 165.49179 C 89.48331 165.5838 88.47807 164.87377 87.62131 163.92324 C 86.44023 162.6703 85.92145 162.4139 85.50562 162.8598 C 85.0142 163.3868 85.62774 164.11052 89.1896 167.28043 C 93.60003 171.16585 93.94895 172.17333 90.35799 170.41627 C 86.96972 168.84823 86.79165 169.36428 89.87253 172.23725 C 91.49405 173.74934 92.64005 175.12116 92.45104 175.32385 C 92.26203 175.52654 91.83253 175.58076 91.47316 175.39722 C 90.11949 174.817 90.61738 176.72129 92.19836 178.19558 C 95.07655 180.87953 93.31751 179.9213 90.07994 177.0538 C 88.38009 175.54445 87.11521 174.13756 87.22314 173.85926 C 87.69268 172.70555 87.76779 171.48717 87.25721 171.46578 C 85.76875 171.51776 86.66282 183.64407 88.20277 183.94326 C 89.30774 184.13998 90.42539 182.4538 89.80364 181.49506 C 89.2657 180.69027 89.47561 178.8397 90.10233 178.81782 C 90.22121 178.85289 91.02376 179.37391 91.86958 180.01108 C 93.23966 181.06133 93.32621 181.29362 92.48909 182.02877 C 91.68977 182.72339 91.70072 183.03675 92.63309 183.9062 C 93.60873 184.8918 93.57093 184.93233 92.4687 184.81395 C 91.52588 184.76844 91.25579 184.89552 91.35876 185.59785 C 91.55921 186.84582 93.76144 188.14154 95.48218 188.00302 C 97.55409 187.813 98.29198 188.72847 96.79581 189.68273 C 95.76147 190.38555 95.72914 190.58277 96.66151 191.45222 C 97.91819 192.6241 97.47277 193.34556 95.77067 192.89517 C 95.09794 192.72257 94.27948 192.8688 93.93926 193.23365 C 93.48563 193.7201 93.69379 194.0658 94.81517 194.73256 C 95.85822 195.40206 96.10692 195.78555 95.69109 196.23147 C 95.01065 196.96115 96.96468 199.01068 98.74511 199.45833 C 99.69614 199.73887 100.23358 199.40636 101.43778 197.95246 L 102.90386 196.13646 L 100.56086 194.17895 L 98.22061 192.29979 L 99.9523 192.47462 C 101.64619 192.69 105.02352 193.94468 105.91535 194.77633 C 106.15858 195.00314 105.61343 196.23793 104.75492 197.48366 C 103.48606 199.332 102.75961 199.8672 101.36043 200.2298 C 97.15742 201.16093 96.96841 201.36362 98.00101 202.85705 C 98.99033 204.23435 98.99033 204.23435 97.39667 204.64296 C 95.80301 205.05157 95.80301 205.05157 96.97861 206.14784 C 97.62721 206.75267 98.50537 207.19262 98.816 207.10334 C 99.63173 206.87876 100.72625 207.89942 100.23482 208.42642 C 99.70559 208.99395 96.78238 208.3901 95.01787 207.2752 C 94.17751 206.7947 93.3859 206.58704 93.31851 206.90314 C 93.14317 207.49753 94.72142 208.89347 96.92365 210.1892 C 98.92592 211.37424 96.97562 211.67766 94.58438 210.58463 C 91.63382 209.19738 91.2262 209.87832 93.69902 212.18426 C 96.00968 214.33898 95.83982 215.09005 93.3001 214.23751 C 90.67931 213.30937 90.78228 214.0117 93.78208 216.80906 C 96.17655 219.11773 96.34144 219.34728 95.16087 219.23164 C 92.75918 218.96254 92.93278 220.56441 95.55133 222.55152 C 97.7267 224.20114 97.81051 224.35508 96.55159 224.24217 C 95.72492 224.1534 94.36578 223.4165 93.31179 222.43363 C 90.83898 220.1277 89.61513 219.8959 89.99689 221.84347 C 90.18092 222.6214 89.93819 223.5319 89.4791 223.86166 C 88.98219 224.23198 88.8852 224.82363 89.25551 225.32053 C 89.70964 225.97138 90.023 225.96043 90.58183 225.11734 C 91.47814 223.83107 93.74503 224.73236 95.4317 226.9873 C 96.33995 228.289 96.39417 228.7185 95.63265 229.37258 C 94.83333 230.0672 94.92262 230.37782 96.34144 231.7009 C 98.57103 233.78002 98.09054 234.62038 95.33993 233.3438 C 91.98946 231.73522 92.03323 232.98866 95.43295 236.00737 C 97.77868 238.04322 98.06791 238.46452 97.07909 238.22452 C 94.46924 237.60974 92.08571 235.61443 91.09862 233.17817 C 90.54427 231.90334 90.26001 230.50143 90.43808 229.98538 C 90.79969 229.10996 89.77256 227.7732 89.20553 228.38127 C 88.97871 228.6245 88.7606 230.24004 88.70465 232.0068 C 88.27589 239.94378 87.57332 245.6549 85.44719 257.76902 C 84.95402 260.49227 83.6297 265.24466 83.21388 265.69058 C 83.10047 265.8122 82.80402 267.43048 82.55358 269.24324 C 82.30314 271.056 81.93109 272.75537 81.77988 272.91752 C 81.06164 273.68774 81.4225 277.28318 82.25738 277.607 C 83.45164 278.11433 84.0888 277.2685 83.94754 275.46942 C 83.87965 274.6482 84.11964 273.6594 84.49766 273.254 C 84.87569 272.84863 85.07788 271.90034 84.89384 271.1224 C 84.7098 270.34448 84.8824 269.67175 85.23083 269.54193 C 85.61979 269.4499 85.86799 268.6961 85.83516 267.75602 C 85.75583 265.48416 86.06919 265.4732 87.7882 267.53095 C 89.87205 269.9289 96.51977 274.99117 100.63772 277.23965 C 105.43662 279.89576 104.93474 281.2467 99.99558 279.0661 C 99.15797 278.66395 98.09353 278.50504 97.71004 278.75373 C 96.78637 279.2566 99.07788 280.86295 103.33611 282.63592 C 106.75671 284.00675 107.97011 285.06248 106.57093 285.42508 C 105.36624 285.74167 93.52618 280.23324 91.58036 278.41874 C 90.64799 277.5493 89.48333 276.76638 88.97002 276.66665 C 85.1796 275.93623 95.71075 284.3925 100.50641 285.83295 C 101.14134 286.04608 102.18712 286.79392 102.76012 287.47983 C 103.78178 288.6599 103.74397 288.70044 100.81256 287.8616 C 99.02939 287.3356 96.2355 285.94287 93.90346 284.29872 C 88.27739 280.41654 87.87748 280.1952 87.27265 280.8438 C 86.4788 281.6951 92.35406 287.09808 96.43148 289.30876 C 101.50867 292.0728 103.79471 293.52247 104.13543 294.29493 C 104.60049 295.25913 103.39306 295.4974 102.50123 294.66574 C 102.13639 294.3255 100.6233 293.67243 99.15623 293.21383 C 97.29472 292.69057 95.77069 291.72413 93.82487 289.90962 C 92.3277 288.58928 90.836 287.4256 90.52264 287.43656 C 90.17148 287.48804 88.11225 285.79515 85.92321 283.75383 C 81.22081 279.36877 80.55355 279.35285 79.83953 283.6133 C 79.319505 286.69046 78.49109 301.15156 78.68433 304.4391 C 78.72537 305.6142 78.92184 310.1174 79.14791 314.34503 C 79.33617 318.6132 79.69753 323.34594 79.94399 324.7884 C 81.58267 334.6533 82.49465 338.3079 84.66654 344.35006 C 87.92574 353.45243 89.11651 358.3523 88.52859 360.60825 C 88.32913 361.63488 87.88794 365.8466 87.64123 370.0123 C 87.47286 374.17527 87.1018 378.14923 86.8914 378.8625 C 86.72154 379.61357 86.6907 383.2227 86.85982 386.94247 C 87.06947 390.70006 87.1416 395.0115 86.99909 396.546 C 86.84679 398.49426 87.01064 399.8279 87.56194 400.64367 Z" fill="#f3f3f3"/>
        </g>
        <g id="Graphic_72">
          <path d="M 135.58391 377.27977 C 134.87885 377.3044 134.76867 378.64164 135.51974 378.8115 C 135.91418 378.87617 136.141 378.63294 136.12184 378.08456 C 136.10543 377.6145 135.89727 377.26883 135.58391 377.27977 Z" fill="#f3f3f3"/>
        </g>
        <g id="Graphic_71">
          <path d="M 139.73395 372.58558 C 139.12588 372.01854 138.31562 372.3998 137.72993 373.5968 C 136.84456 375.1964 137.64164 375.56076 138.96472 374.14194 C 139.60736 373.4528 139.93664 372.7746 139.73395 372.58558 Z" fill="#f3f3f3"/>
        </g>
        <g id="Graphic_70">
          <path d="M 94.11858 275.85938 C 93.89127 274.9653 89.95412 272.2791 89.57609 272.6845 C 89.12247 273.17094 91.09564 275.76885 92.49532 276.54355 C 93.77339 277.20484 94.47024 276.9452 94.11858 275.85938 Z" fill="#f3f3f3"/>
        </g>
        <g id="Graphic_69">
          <path d="M 87.72229 271.25895 C 87.32512 271.11594 87.45221 271.38603 88.01974 271.91526 C 88.58727 272.4445 88.86556 272.55243 88.73574 272.204 C 88.52758 271.8583 88.04112 271.40468 87.72229 271.25895 Z" fill="#f3f3f3"/>
        </g>
        <g id="Graphic_68">
          <path d="M 89.39404 214.68766 C 89.09659 214.03134 89.16673 213.7936 89.94739 213.6879 C 90.69026 213.62273 90.83326 213.22556 90.55447 211.98032 C 90.32716 211.08625 89.94317 210.19765 89.74048 210.00864 C 89.01079 209.3282 89.29854 206.3376 90.20579 205.36469 C 90.73502 204.79715 90.86161 203.92994 90.59923 203.15475 C 89.99887 201.68543 90.50522 198.21658 91.53633 196.29812 C 91.98175 195.57664 92.11107 194.78777 91.86784 194.56096 C 91.66515 194.37195 91.43511 193.39953 91.44008 192.41891 C 91.33389 190.50095 90.41967 187.90528 89.4873 187.03583 C 88.51439 186.12857 87.77749 187.48771 88.08364 189.51635 C 88.53055 192.20677 88.09682 201.12437 87.52979 201.73244 C 85.9421 203.43503 86.2562 211.30685 87.9588 212.89454 C 88.32364 213.23476 88.59422 214.24498 88.62705 215.18506 C 88.63302 216.47904 88.75737 216.67079 89.211 216.18433 C 89.55122 215.8195 89.64547 215.1495 89.39404 214.68766 Z" fill="#f3f3f3"/>
        </g>
        <g id="Graphic_67">
          <path d="M 121.63834 165.4806 C 120.90866 164.80015 120.37943 165.36768 120.54481 166.73453 C 120.7102 168.10138 122.05292 168.36824 122.12256 166.99318 C 122.18175 166.44206 121.9221 165.7452 121.63834 165.4806 Z" fill="#f3f3f3"/>
        </g>
        <g id="Graphic_66">
          <path d="M 125.05049 159.87094 C 125.54192 159.34395 125.79559 158.74682 125.5929 158.55781 C 125.22806 158.21759 122.45755 160.8635 122.29316 161.77125 C 122.12604 162.60066 123.45782 162.55415 123.81943 161.67873 C 124.00023 161.24102 124.55906 160.39793 125.05049 159.87094 Z" fill="#f3f3f3"/>
        </g>
        <g id="Graphic_65">
          <path d="M 141.76106 134.14876 C 141.59294 132.70357 140.0908 132.36385 139.07014 133.45837 C 137.78486 134.83666 138.0746 136.39526 139.57947 136.81332 C 140.92493 137.15851 141.97792 135.86677 141.76106 134.14876 Z" fill="#f3f3f3"/>
        </g>
        <g id="Graphic_64">
          <path d="M 116.24853 133.5494 C 116.15925 133.23877 115.88096 133.13084 115.69194 133.33353 C 115.46513 133.57676 115.47881 133.96846 115.6815 134.15747 C 115.92473 134.38428 116.16248 134.45441 116.23809 134.37334 C 116.3515 134.25172 116.37835 133.89783 116.24853 133.5494 Z" fill="#f3f3f3"/>
        </g>
        <g id="Graphic_63">
          <path d="M 117.13564 129.7535 C 116.96255 129.28894 116.9812 128.70002 117.28362 128.37572 C 117.58603 128.05141 117.448 127.46796 117.00209 127.05214 C 116.06972 126.18269 114.96251 127.04493 115.36018 128.32523 C 115.49274 128.752 115.40942 129.73535 115.23956 130.48642 C 114.99136 131.24023 115.01872 132.02363 115.2214 132.21264 C 115.87001 132.81748 117.55743 130.60157 117.13564 129.7535 Z" fill="#f3f3f3"/>
        </g>
        <g id="Graphic_62">
          <path d="M 123.02309 119.78267 C 122.8204 119.59366 122.48963 116.85996 122.26406 113.76963 C 121.9783 108.95581 121.74826 107.9834 120.49158 106.81153 C 119.4376 105.82867 118.64325 105.54267 117.5925 105.77545 C 116.19058 106.05972 116.11771 106.21913 116.14557 108.13983 C 116.19481 109.54996 116.49773 110.36295 117.37862 110.88124 C 117.98121 111.2916 118.59749 112.09365 118.65718 112.67983 C 118.8631 114.08448 117.80464 115.21954 117.2963 114.1392 C 116.74742 113.02105 115.88344 114.1101 116.05703 115.71197 C 116.25251 117.94056 117.27143 119.0423 120.01383 120.08385 C 122.35633 120.90405 124.07707 120.76553 123.02309 119.78267 Z" fill="#f3f3f3"/>
        </g>
        <g id="Graphic_61">
          <path d="M 116.51464 124.32391 C 116.31195 124.1349 115.95805 124.10804 115.73124 124.35127 C 115.54223 124.55396 115.5559 124.94566 115.7586 125.13467 C 116.00182 125.36148 116.35299 125.31 116.542 125.10731 C 116.76881 124.86409 116.75787 124.55073 116.51464 124.32391 Z" fill="#f3f3f3"/>
        </g>
        <g id="Graphic_60">
          <path d="M 116.54 120.55811 C 115.85086 119.91548 115.14083 120.92072 115.6437 121.84439 C 115.85186 122.19008 116.24356 122.1764 116.58378 121.81156 C 116.924 121.44672 116.90485 120.89833 116.54 120.55811 Z" fill="#f3f3f3"/>
        </g>
        <g id="Graphic_59">
          <path d="M 114.02417 112.52788 C 114.02864 110.40996 114.18706 108.20823 114.32186 107.57603 C 114.80732 105.75506 114.29624 104.59637 112.62648 103.94876 C 110.59734 103.11761 109.61722 104.24994 109.64831 107.38628 C 109.66572 110.13092 109.29093 111.75194 108.57269 112.52216 C 108.26753 112.76812 108.08847 111.00957 108.1198 108.53775 C 108.20213 105.2798 107.96387 104.07236 107.33715 104.09425 C 106.71043 104.11614 106.41622 104.67546 106.35205 106.2072 C 106.27421 107.34723 105.99144 109.35722 105.64351 110.62434 C 105.01779 112.92082 105.08394 115.93829 105.73255 116.54312 C 105.93524 116.73213 106.44308 116.67518 106.90765 116.50209 C 107.36948 116.25065 109.01736 116.27154 110.63291 116.48965 C 112.21066 116.7483 113.66405 116.8152 113.81526 116.65305 C 113.96647 116.4909 114.05749 114.60526 114.02417 112.52788 Z" fill="#f3f3f3"/>
        </g>
        <g id="Graphic_58">
          <path d="M 121.40256 95.83794 C 121.10313 90.63243 120.74003 88.09595 120.05088 87.45331 C 118.34829 85.86562 117.45198 87.15189 116.62232 92.59292 C 115.78446 97.79893 115.93119 99.7547 117.02745 98.5791 C 117.32987 98.2548 117.68377 98.28166 117.77305 98.59228 C 117.90834 99.09739 117.641 99.30282 116.93867 99.40578 C 115.49348 99.5739 115.51313 101.25958 116.88818 101.32921 C 117.51764 101.38567 117.92302 101.76369 118.09885 102.3066 C 118.19634 102.85225 118.73427 103.65704 119.26127 104.14846 C 121.12601 105.88737 121.7868 103.472 121.40256 95.83794 Z" fill="#f3f3f3"/>
        </g>
        <g id="Graphic_57">
          <path d="M 97.64138 121.80634 C 98.51083 120.87396 97.80204 118.54565 96.70528 118.58395 C 95.53017 118.62498 94.9609 120.29201 95.10266 123.2284 C 95.24989 126.32147 96.57396 127.17724 96.78884 124.34605 C 96.87215 123.3627 97.26336 122.21172 97.64138 121.80634 Z" fill="#f3f3f3"/>
        </g>
        <g id="Graphic_56">
          <path d="M 104.12048 111.93249 C 104.31397 109.61188 104.26423 107.06446 103.96405 106.3298 C 103.45024 105.09278 103.1314 104.94704 101.80509 105.15023 C 100.94609 105.25866 99.96 105.097 99.59515 104.75678 C 98.58171 103.81173 97.77965 104.428 97.41581 106.36239 C 97.25415 107.34848 96.95497 108.88842 96.7095 109.72057 C 96.46404 110.55271 96.16759 112.171 96.08974 113.31103 C 95.92585 115.35608 95.92585 115.35608 97.82243 115.76047 C 98.8518 116.03826 100.04605 116.54561 100.45143 116.92363 C 102.39725 118.73814 103.67158 117.04649 104.12048 111.93249 Z" fill="#f3f3f3"/>
        </g>
        <g id="Graphic_55">
          <path d="M 114.25993 95.69519 C 114.22611 92.48051 114.23232 88.16633 114.27734 86.08621 C 114.37607 83.2983 114.04854 81.78024 113.051 80.167925 C 111.92912 78.36386 111.52648 78.06418 110.50806 78.099745 C 109.37076 78.10024 109.26009 78.3002 109.12579 80.06969 C 109.00741 81.17192 108.80571 83.25751 108.58213 84.71638 C 108.35855 86.17525 108.18098 87.8286 108.1596 88.33918 C 108.17875 88.88756 107.96835 89.60083 107.70373 89.88459 C 107.43912 90.16836 107.27473 91.07611 107.34536 91.97565 C 107.45379 92.83466 107.19788 94.49074 106.84448 95.60118 C 106.0648 97.98148 107.40032 100.28791 108.9721 99.25258 C 109.70128 98.79572 110.13899 98.97652 111.00123 100.08373 C 112.14724 101.45555 113.54965 102.30859 114.00327 101.82214 C 114.15448 101.65998 114.25322 98.87207 114.25993 95.69519 Z" fill="#f3f3f3"/>
        </g>
        <g id="Graphic_54">
          <path d="M 92.97628 116.24344 C 93.93079 112.13145 93.48711 110.65667 91.27717 110.26323 C 88.82948 109.79965 86.74265 112.93152 86.80656 117.00794 C 86.79338 117.75354 86.71554 118.89358 86.58348 119.60411 C 86.38949 120.78742 86.50837 120.82249 88.85584 120.66207 C 90.18489 120.53723 91.50846 120.2557 91.77308 119.97193 C 91.99989 119.72871 92.52863 118.02388 92.97628 116.24344 Z" fill="#f3f3f3"/>
        </g>
        <g id="Graphic_53">
          <path d="M 105.35751 99.06506 C 105.3784 97.41718 105.41744 94.04309 105.49205 91.68741 C 105.54204 88.62667 105.33885 87.30036 104.66339 87.04942 C 104.02572 86.75795 103.63949 86.92831 103.39129 87.68211 C 103.21322 88.19816 102.27637 89.44663 101.32858 90.38174 C 100.00003 91.64389 99.44942 92.722 99.19624 94.45642 C 98.96719 95.75861 98.55186 97.34183 98.25765 97.90115 C 97.45062 99.49805 97.77319 101.99673 98.79161 101.96116 C 99.33999 101.94201 99.52353 101.58264 99.41783 100.80198 C 99.26065 99.67015 101.21269 97.17047 101.82076 97.73751 C 102.02345 97.92652 101.98614 99.10436 101.75436 100.3282 C 101.25298 102.81644 101.25298 102.81644 102.87674 103.26957 C 104.61663 103.67942 105.3212 102.5175 105.35751 99.06506 Z" fill="#f3f3f3"/>
        </g>
        <g id="Graphic_52">
          <path d="M 94.14094 104.67273 C 94.15909 102.94651 94.37397 100.11532 94.66768 98.4187 C 95.10664 95.26594 94.50901 93.87497 92.70719 93.93789 C 91.61043 93.97619 89.48803 96.08963 90.01502 96.58106 C 90.21771 96.77007 90.1048 98.02898 89.68127 99.37718 C 88.77775 102.70303 88.5201 106.55538 89.1687 107.16021 C 89.93892 107.87845 93.2971 108.58476 93.75073 108.0983 C 93.93974 107.89561 94.08225 106.36114 94.14094 104.67273 Z" fill="#f3f3f3"/>
        </g>
        <g id="Graphic_51">
          <path d="M 119.15111 401.17025 C 118.85325 400.75783 117.70047 400.13216 115.72456 399.3078 C 110.1154 397.03293 102.71935 391.87914 97.47354 386.5326 C 95.31956 384.3724 92.84675 382.0665 91.92532 381.5104 C 90.47963 380.5412 90.32295 380.5467 90.51793 381.63797 C 90.65596 382.2214 90.60224 382.9292 90.41323 383.1319 C 90.22422 383.3346 90.3814 384.46643 90.77359 385.59005 C 91.25781 387.10264 91.20956 387.9671 90.56693 388.65626 C 89.35725 389.95347 90.36573 391.87915 94.30064 395.6243 C 96.33303 397.5608 98.49417 399.4376 100.66078 401.17025 L 103.44151 401.17025 C 101.32588 399.28645 99.22992 397.24658 99.40966 397.0538 C 99.52307 396.9322 100.15526 397.067 100.79566 397.4368 C 102.99341 398.72406 105.41317 400.05863 107.53187 401.17025 L 110.61087 401.17025 C 109.32453 400.19174 107.74991 399.10545 106.2745 398.22594 C 105.19365 397.597 102.53457 395.57207 100.39426 393.80358 C 97.08383 391.0955 96.51083 390.4096 96.96446 389.92313 C 97.60709 389.234 98.93117 390.08976 104.54679 394.7959 C 108.34871 397.93054 112.04736 400.16913 114.9483 401.17025 Z" fill="black"/>
        </g>
        <g id="Graphic_50">
          <path d="M 96.09326 393.05176 C 94.24991 390.8023 92.16382 389.4633 92.52369 390.78412 C 92.79701 391.8727 96.89134 395.6907 97.30716 395.2448 C 97.45837 395.08264 96.95277 394.08063 96.09326 393.05176 Z" fill="#f3f3f3"/>
        </g>
        <g id="Graphic_49">
          <path d="M 132.17325 398.65494 C 131.41174 399.309 130.32866 399.739 129.7748 399.6015 C 128.82378 399.32096 129.19907 398.83724 134.18896 393.48623 C 140.23731 387.00016 142.39801 385.9835 137.89184 391.70978 C 136.39069 393.64465 134.81668 395.73895 134.36852 396.3821 C 133.87983 396.9874 132.89697 398.0414 132.17325 398.65494 Z" fill="black"/>
        </g>
        <g id="Graphic_48">
          <path d="M 96.81794 401.2874 C 91.44154 395.85367 89.94541 394.99967 91.40852 398.1568 C 91.77664 398.9647 92.67858 400.05363 93.92991 401.2874 Z" fill="black"/>
        </g>
        <g id="Graphic_47">
          <path d="M 126.34251 390.03454 C 125.94807 389.9699 125.6265 389.7458 125.6183 389.5108 C 125.59915 388.9624 126.88218 388.64307 127.36864 389.0967 C 127.8551 389.55032 127.21246 390.23947 126.34251 390.03454 Z" fill="black"/>
        </g>
        <g id="Graphic_46">
          <path d="M 118.50775 394.77897 C 117.19462 394.23656 117.15134 394.1204 118.46945 393.6822 C 119.1285 393.4631 119.75796 393.51956 119.88778 393.868 C 120.11509 394.76206 119.50205 395.17565 118.50775 394.77897 Z" fill="black"/>
        </g>
        <g id="Graphic_45">
          <path d="M 113.68796 393.77075 C 109.45163 392.6245 106.69007 391.03456 100.72055 386.30157 C 97.09129 383.44776 93.99996 381.39873 92.17078 380.67825 C 90.57936 380.0279 89.09861 379.1776 88.92825 378.79137 C 88.46592 377.9055 90.6097 375.2815 91.29611 375.8458 C 91.57987 376.1104 94.37152 378.56207 97.40913 381.3189 C 102.71139 386.03596 107.93481 389.61847 111.43376 390.98656 C 113.89787 391.9202 116.86484 393.77746 116.52462 394.1423 C 116.37341 394.30445 115.07396 394.15374 113.68796 393.77075 Z" fill="black"/>
        </g>
        <g id="Graphic_44">
          <path d="M 117.61716 390.61376 C 116.72532 389.7821 116.76536 388.6826 117.69724 388.41477 C 118.124 388.2822 118.48885 388.62243 118.75122 389.39762 C 119.23544 390.9102 118.6306 391.5588 117.61716 390.61376 Z" fill="black"/>
        </g>
        <g id="Graphic_43">
          <path d="M 128.74643 376.89105 C 126.35619 378.07262 126.52605 377.32155 129.39354 374.084 C 132.0315 371.0113 133.51349 368.52806 135.97735 362.7162 C 137.53719 359.0929 139.11444 358.21426 138.51607 361.29415 C 138.27607 362.28298 137.91496 364.2957 137.68865 365.67623 C 137.29794 367.9645 136.81472 368.7265 133.7204 372.2073 C 131.75743 374.3936 129.55669 376.5098 128.74643 376.89105 Z" fill="black"/>
        </g>
        <g id="Graphic_42">
          <path d="M 107.53291 384.84793 C 105.30383 383.9061 103.68504 382.47236 104.53858 382.20724 C 104.88701 382.07742 105.60575 382.4445 106.13274 382.93593 C 106.65973 383.42736 107.41627 383.7539 107.7269 383.6646 C 108.46429 383.4428 110.08034 384.7982 109.62671 385.28464 C 109.4755 385.4468 108.52721 385.2446 107.53291 384.84793 Z" fill="black"/>
        </g>
        <g id="Graphic_41">
          <path d="M 109.96768 380.44894 C 109.17333 380.16294 107.90074 379.65833 107.02805 379.37506 C 105.59605 378.7976 103.9126 377.75827 98.76752 374.17303 C 97.64067 373.3496 95.87888 372.313 94.84131 371.8002 C 93.36329 371.02823 92.8741 370.49626 92.34935 368.94588 C 91.78679 367.43603 91.85145 367.0416 92.63212 366.9359 C 94.27179 366.72176 93.94003 361.71346 92.19689 360.08797 C 91.3456 359.2941 90.87506 358.17324 90.78801 356.80365 C 90.62984 353.39722 89.501 348.0246 88.67109 346.72015 C 87.63302 345.07004 87.16969 341.90957 87.85013 341.1799 C 88.19035 340.81505 88.82528 341.0282 89.55496 341.70862 C 90.81164 342.8805 92.07055 342.9934 91.75943 341.9454 C 91.70795 341.59422 90.6189 340.73024 89.37864 340.0284 C 86.85484 338.5086 85.46014 336.7533 85.03237 334.61126 C 84.78591 333.1688 85.06694 333.35508 90.45028 338.14775 L 96.11738 343.20504 L 94.55331 343.3381 C 92.67589 343.4821 92.4145 344.9815 94.19494 345.42916 C 94.86767 345.60176 96.30789 346.41425 97.55362 347.27276 C 99.32087 348.466 99.61011 348.8873 99.19428 349.33323 C 98.47604 350.10345 96.05521 349.286 94.35261 347.6983 C 93.50132 346.90444 92.66644 346.58063 92.2046 346.83207 C 90.92977 347.3864 91.59206 348.38296 93.81294 349.08976 C 95.91494 349.7615 100.45469 352.85804 100.03887 353.30396 C 99.88766 353.4661 98.06942 353.059 96.00522 352.3467 C 93.90322 351.675 92.12278 351.22732 92.00937 351.34894 C 91.78256 351.59217 94.8821 353.8762 96.95997 354.9802 L 98.23804 355.6415 L 96.28227 355.7882 C 95.14771 355.86705 94.29691 356.2105 94.30511 356.44552 C 94.31606 356.7589 95.68067 357.65246 97.31537 358.41895 C 101.34677 360.43515 102.99242 361.515 102.61439 361.9204 C 102.31198 362.2447 98.42954 361.1253 95.91942 359.9972 C 95.36283 359.78132 94.6605 359.8843 94.32029 360.24912 C 93.94226 360.6545 93.99374 361.00567 94.47199 361.22427 C 94.9097 361.40508 96.10943 362.0691 97.07413 362.74134 C 98.03883 363.41357 99.3629 364.26934 100.04384 364.67696 C 101.2085 365.45986 101.2085 365.45986 99.0473 365.33924 C 96.25666 365.16217 96.07088 366.5805 98.78095 367.81927 C 99.73745 368.2565 102.41519 369.69247 104.69576 370.98545 C 106.97632 372.27844 109.0542 373.3824 109.24869 373.3364 C 110.18877 373.30358 109.53693 371.4831 107.82339 369.58205 C 106.83954 368.36143 106.08524 366.97593 106.05514 366.1142 C 106.06559 365.29025 105.47617 364.1343 104.70595 363.41605 C 103.6925 362.471 103.47613 361.8903 103.88102 361.131 C 104.17523 360.5717 104.11007 359.82882 103.74523 359.4886 C 103.38039 359.1484 102.87204 358.06803 102.72034 357.0929 C 102.49029 356.12047 102.05482 354.8807 101.76011 354.30273 C 101.42487 353.68695 101.6375 351.91473 102.31471 349.9694 C 103.31025 347.0325 103.2911 346.48414 102.21249 344.7962 C 101.5042 343.6052 100.24752 342.43333 99.0856 341.72877 C 98.00476 341.0998 95.91593 339.68247 94.38917 338.6377 C 92.86241 337.5929 90.28987 335.8003 88.60369 334.68263 C 84.86649 332.1071 84.23107 330.75667 83.95302 325.04058 C 83.87095 322.69037 83.50511 320.07555 83.12386 319.2653 C 82.73987 318.3767 82.70704 317.4366 82.97165 317.15284 C 83.7655 316.30155 83.34271 313.1789 82.3698 312.27163 C 81.88335 311.818 81.66698 311.2373 81.85599 311.0346 C 82.34742 310.5076 84.37431 312.39772 86.03413 315.00657 C 87.02893 316.54055 88.56663 317.8987 92.46598 320.62542 C 95.31955 322.60432 97.93537 324.5131 98.34075 324.8911 C 98.95155 325.53648 98.91375 325.577 97.77098 325.42084 C 97.14152 325.3644 94.9853 324.26314 93.01809 322.9592 C 88.75937 320.04894 85.85482 318.8562 86.53078 320.2444 C 87.54199 322.24843 95.44639 328.48257 98.78865 329.85613 C 102.88746 331.55624 104.8114 332.74402 104.31997 333.271 C 103.90414 333.71693 101.0456 332.71865 100.03215 331.7736 C 99.54569 331.31997 97.74611 330.32393 96.03033 329.48184 C 94.3173 328.7181 91.91511 327.3117 90.62884 326.4154 C 87.08886 323.8722 86.17017 323.39444 86.03537 324.02663 C 85.90605 324.8155 90.89495 329.5435 92.92956 330.53135 C 93.76718 330.9335 95.72891 332.08074 97.33128 333.04445 C 98.93365 334.00816 101.81408 335.63316 103.73254 336.66426 C 107.2479 338.5024 108.02086 339.29898 106.45405 339.3537 C 105.35729 339.392 98.7807 336.36657 93.6197 333.4486 C 87.93991 330.2742 87.15925 330.3799 90.92927 333.8955 C 94.09123 336.84407 98.58497 339.74614 102.68651 341.5246 C 106.43142 343.19783 106.55851 343.4679 105.23095 347.00466 C 103.35825 351.7762 103.31547 352.79736 104.63283 356.83 C 105.69055 360.1658 109.24346 367.57156 111.61157 371.37143 C 113.52009 374.3638 113.96103 375.7602 113.15077 376.1415 C 112.18657 376.60654 105.02926 373.7975 100.98417 371.3896 C 99.41961 370.38534 97.78491 369.61885 97.35267 369.59473 C 96.99877 369.56787 96.08008 369.0901 95.39094 368.4475 C 94.50184 367.69417 94.59112 368.0048 95.82367 369.6089 C 96.84806 370.86732 98.58846 372.4145 99.99087 373.2675 C 102.19583 374.64158 109.15642 378.5556 111.31264 379.65684 C 112.70958 380.3532 111.51856 381.0615 109.96768 380.44894 Z" fill="black"/>
        </g>
        <g id="Graphic_40">
          <path d="M 87.02346 328.7375 C 86.69915 328.43507 86.14256 328.2192 85.79414 328.349 C 85.48351 328.4383 85.53773 328.8678 85.98365 329.28363 C 86.4701 329.73725 87.02395 329.8748 87.21296 329.6721 C 87.43978 329.42887 87.34776 329.0399 87.02346 328.7375 Z" fill="#f3f3f3"/>
        </g>
        <g id="Graphic_39">
          <path d="M 137.79335 351.82867 C 137.59066 351.63966 137.65258 351.1669 137.955 350.8426 C 139.6183 349.0589 140.54097 333.92782 139.0816 332.56694 C 138.83838 332.34013 138.147 332.75645 137.54216 333.40506 C 136.89952 334.0942 135.51675 334.92685 134.47147 335.3163 L 132.53212 335.9331 L 135.35087 332.4227 C 138.3559 328.6313 139.60511 325.09727 139.47877 320.35633 C 139.4728 319.06235 139.55562 316.9417 139.74687 315.68004 C 139.93812 314.4184 139.80183 311.6387 139.53075 309.49117 C 139.25967 307.34365 139.01271 304.7639 138.97715 303.74548 C 138.90055 301.55195 136.91817 296.44443 135.66149 295.27256 C 134.32374 294.0251 134.09593 291.9937 135.21408 291.44483 C 135.8704 291.1474 136.34865 291.366 136.92712 292.2086 C 138.62747 294.85524 141.46488 303.10956 142.0339 307.0507 C 142.351 309.3927 142.88446 312.3154 143.24159 313.5579 C 143.59872 314.8004 143.58106 317.6639 143.14982 319.9144 C 142.495 323.62373 142.00406 325.28802 140.42284 329.4219 C 140.06123 330.2973 140.05352 331.1996 140.37782 331.502 C 141.83719 332.8629 143.5537 341.58775 142.53305 342.68227 C 142.26843 342.96604 142.0635 343.836 142.05032 344.5816 C 141.9894 347.32896 138.8068 352.77373 137.79335 351.82867 Z" fill="black"/>
        </g>
        <g id="Graphic_38">
          <path d="M 121.94128 363.9515 C 121.62518 363.8841 121.90298 362.85474 122.48867 361.65775 C 125.2149 356.6211 125.0336 355.9215 121.6227 358.1976 C 119.40008 359.68706 118.52192 359.2471 119.90692 357.3555 C 121.32973 355.42337 123.29719 351.11914 123.80403 348.7876 C 124.30541 346.29935 124.96446 346.08025 125.78119 348.13027 C 126.16245 348.94053 126.53823 349.5941 126.61657 349.59138 C 126.73271 349.5481 127.31616 349.41008 127.93467 349.15317 C 128.90435 348.8448 128.95583 349.19595 128.43854 352.35144 C 128.11523 354.3236 127.42484 357.01454 126.84189 358.28987 C 125.71653 360.87833 122.88957 364.1537 121.94128 363.9515 Z" fill="black"/>
        </g>
        <g id="Graphic_37">
          <path d="M 102.04488 381.5492 C 101.69371 381.60067 100.97224 381.15525 100.36417 380.5882 C 99.79664 380.059 98.91848 379.61904 98.52678 379.6327 C 97.27334 379.6765 92.00341 374.7622 91.07054 372.75545 C 89.49677 369.2416 91.57192 370.2672 94.6615 374.5125 C 95.60755 375.77365 97.02638 377.09673 98.42879 377.94977 C 100.87151 379.39396 103.0255 381.55416 102.04488 381.5492 Z" fill="black"/>
        </g>
        <g id="Graphic_36">
          <path d="M 110.98734 364.7262 C 110.54142 364.31037 109.04923 362.0094 107.67044 359.58684 C 105.49681 355.74096 105.27497 355.00357 105.94173 353.8822 C 106.38715 353.1607 106.65127 351.73964 106.53737 350.72396 C 106.5018 349.70553 106.66072 348.6411 106.96314 348.3168 C 107.946 347.2628 108.59237 348.9266 108.80749 352.8409 C 108.95796 357.1496 109.70231 360.49633 110.67522 361.4036 C 110.99952 361.706 111.38899 362.7513 111.5407 363.72643 C 111.79263 365.32556 111.71702 365.40664 110.98734 364.7262 Z" fill="black"/>
        </g>
        <g id="Graphic_35">
          <path d="M 127.78968 332.64752 C 127.58699 332.4585 127.36515 331.72112 127.22165 330.981 C 127.01846 329.6547 127.65339 329.8678 128.37263 331.3722 C 128.83496 332.25806 128.35721 333.17675 127.78968 332.64752 Z" fill="black"/>
        </g>
        <g id="Graphic_34">
          <path d="M 117.32194 327.1304 C 115.76285 326.28282 114.36815 324.5275 114.85958 324.0005 C 115.08639 323.7573 116.1267 324.34844 117.29682 325.28803 C 119.39659 327.01872 119.4809 328.30997 117.32194 327.1304 Z" fill="black"/>
        </g>
        <g id="Graphic_33">
          <path d="M 120.65401 323.71973 C 120.08921 323.26884 118.47317 321.91343 116.94094 320.71197 C 113.8332 318.1929 112.9814 316.26175 113.62851 313.4547 C 113.86851 312.46586 113.58425 311.06394 113.0003 310.06467 C 111.70806 307.87438 112.62029 305.92085 114.02593 307.98953 C 116.33983 311.3599 119.32645 314.90286 122.28572 317.66242 C 126.05575 321.17803 125.43997 321.51327 120.6652 318.42493 C 118.77907 317.1966 117.0633 316.3545 116.91209 316.51667 C 116.23165 317.24635 117.61043 319.66893 119.91562 321.66697 C 121.1723 322.83884 122.11288 323.9433 121.92387 324.146 C 121.69705 324.38923 121.14047 324.17336 120.65401 323.71973 Z" fill="black"/>
        </g>
        <g id="Graphic_32">
          <path d="M 121.62145 312.1167 C 121.06486 311.9008 120.41625 311.29598 120.20262 310.7936 C 119.8159 309.82667 119.8159 309.82667 120.65625 310.30715 C 121.1345 310.52576 121.7831 311.1306 122.07507 311.63023 C 122.57247 312.3972 122.57247 312.3972 121.62145 312.1167 Z" fill="black"/>
        </g>
        <g id="Graphic_31">
          <path d="M 117.60546 308.29593 C 115.29256 307.20016 114.27637 306.17676 112.6949 303.56518 C 111.15122 300.91305 111.05647 300.44575 111.87991 299.3189 C 112.47927 298.5136 112.52752 297.64913 112.10573 296.80106 C 111.6812 295.87466 111.77546 295.20467 112.4559 294.475 C 113.13634 293.7453 113.23059 293.0753 112.80606 292.1489 C 112.00575 290.56892 112.46336 286.82724 113.5059 286.35944 C 114.12168 286.0242 115.28907 286.88544 119.26179 290.59006 C 122.95074 294.03006 123.9724 295.21014 123.34567 295.23202 C 122.7973 295.25117 120.86789 293.9067 118.84373 292.09493 C 115.56289 289.1113 113.49048 288.164 113.53973 289.57412 C 113.51287 289.92802 115.68326 292.55826 118.29137 295.3693 L 123.02386 300.6161 L 120.37074 299.88518 C 117.28264 299.0518 116.92377 300.00555 119.40479 302.5465 C 120.25882 303.4187 120.95891 304.3747 120.96712 304.6097 C 121.00268 305.62813 119.7679 305.083 118.10037 303.3764 C 116.8815 302.164 116.2411 301.7942 116.06029 302.2319 C 115.76882 302.86956 116.36097 304.10386 118.09365 306.5533 C 119.0019 307.855 118.7241 308.88435 117.60546 308.29593 Z" fill="black"/>
        </g>
        <g id="Graphic_30">
          <path d="M 95.98805 319.28668 C 92.4431 317.7241 90.59477 316.45524 86.91676 313.3286 C 82.70903 309.6322 82.30091 309.17583 82.2462 307.60902 C 82.04525 305.22375 82.69336 304.6913 83.73416 306.41975 C 85.23456 308.95573 93.65004 316.34855 96.07361 317.24436 C 98.4161 318.06457 101.24008 320.31903 100.67304 320.9271 C 100.52184 321.08925 98.3793 320.3797 95.98805 319.28668 Z" fill="black"/>
        </g>
        <g id="Graphic_29">
          <path d="M 102.91954 312.25994 C 94.51924 308.6707 93.03575 307.74208 88.12245 302.933 C 83.08754 298.0105 81.75203 295.70406 83.07511 294.28523 C 83.37753 293.96093 83.26089 292.8669 82.79308 291.82435 C 82.23873 290.54952 82.20317 289.5311 82.65132 288.88797 C 83.13728 288.2043 83.10172 287.18587 82.59064 286.0272 C 81.26284 282.81847 82.65431 283.35815 86.80012 287.52733 C 89.60271 290.29237 91.49978 291.83405 93.53439 292.8219 C 95.05021 293.5533 96.85526 294.70603 97.54441 295.34866 C 98.23355 295.9913 99.43054 296.577 100.13834 296.6307 C 101.67281 296.7732 103.16451 297.93687 102.63528 298.5044 C 101.3122 299.92323 94.50058 296.906 88.69322 292.32424 C 86.19354 290.3722 85.27485 289.89445 84.85902 290.34037 C 83.98957 291.27274 91.01084 298.04755 94.88557 300.06922 C 100.39773 302.93572 101.3597 303.5296 101.38159 304.15633 C 101.41441 305.0964 98.84237 304.4411 95.08925 302.53283 C 90.37691 300.109 89.50696 299.9041 89.59127 301.19533 C 89.71885 302.6027 96.12335 307.43817 100.26543 309.2544 C 103.45101 310.63345 105.26154 311.94285 104.6945 312.5509 C 104.50549 312.7536 103.71662 312.6243 102.91954 312.25994 Z" fill="black"/>
        </g>
        <g id="Graphic_28">
          <path d="M 87.08563 297.9493 C 86.64792 297.7685 86.65612 298.00353 87.10204 298.41935 C 87.51016 298.8757 87.86679 298.9809 87.81804 298.7081 C 87.80984 298.47307 87.4828 298.0923 87.08563 297.9493 Z" fill="#f3f3f3"/>
        </g>
        <g id="Graphic_27">
          <path d="M 97.85031 315.33908 C 96.31857 315.2749 88.83871 309.9672 85.70361 306.6647 C 83.95227 304.8042 82.8764 303.19462 82.43546 301.79817 C 82.11886 300.59348 81.44563 299.28358 80.99972 298.86776 C 80.5538 298.45193 80.49958 298.02243 80.81021 297.93315 C 81.82042 297.66256 84.79337 300.81382 86.63449 304.12226 C 88.56215 307.663 91.19438 310.0418 96.477 313.0732 C 99.55738 314.80885 99.9737 315.50024 97.85031 315.33908 Z" fill="black"/>
        </g>
        <g id="Graphic_26">
          <path d="M 122.6227 254.31384 C 122.42001 254.12483 122.40633 253.73313 122.63315 253.4899 C 122.82216 253.2872 123.10045 253.39515 123.18973 253.70577 C 123.31956 254.0542 123.2927 254.4081 123.17929 254.5297 C 123.10368 254.6108 122.86593 254.54066 122.6227 254.31384 Z" fill="black"/>
        </g>
        <g id="Graphic_25">
          <path d="M 100.823 274.68403 C 96.39218 273.58378 89.38236 268.25964 86.84389 264.07354 C 85.05698 261.1946 86.11594 261.19684 89.23736 264.1076 C 91.91287 266.60256 96.13926 269.71005 100.91129 272.72005 C 103.71885 274.50446 103.71114 275.40674 100.823 274.68403 Z" fill="black"/>
        </g>
        <g id="Graphic_24">
          <path d="M 121.70251 250.4242 C 121.46973 249.37344 120.94498 247.82305 120.56372 247.0128 C 120.14466 246.24307 119.96287 244.40618 120.15138 243.0662 C 120.46922 240.93733 120.081 236.55848 118.41173 224.69455 C 118.04316 222.0014 118.76413 221.3095 119.54853 223.55676 C 120.81441 227.23824 122.70129 236.34933 122.6212 238.54832 C 122.58937 239.88284 122.75799 242.46533 123.01813 244.29949 C 123.42998 247.1088 122.99426 251.47718 122.31382 252.20687 C 122.20041 252.32848 121.93803 251.5533 121.70251 250.4242 Z" fill="black"/>
        </g>
        <g id="Graphic_23">
          <path d="M 98.49991 268.80404 C 97.38126 268.21562 94.4384 265.9261 92.04667 263.69576 C 88.27664 260.18016 87.66036 259.3781 87.65987 258.2408 C 87.63251 257.4574 87.95358 256.54418 88.2938 256.17934 C 88.59622 255.85503 88.94415 254.5879 88.98145 253.41008 C 89.05656 252.1917 89.36669 250.96512 89.70691 250.60028 C 90.08493 250.1949 90.27891 249.0116 90.20008 247.87702 C 90.12397 246.8208 90.24783 245.87525 90.44504 245.90758 C 90.68006 245.89937 92.54207 247.55993 94.5339 249.56892 C 97.05273 252.06934 97.83389 253.10094 97.03681 252.7366 C 94.96714 251.86764 94.99997 252.80773 97.10794 254.77344 C 98.243 255.8319 99.0647 256.9013 99.0351 257.17687 C 98.86524 257.92794 96.68216 257.1806 94.51227 255.68766 C 92.50179 254.2676 92.06681 254.16513 91.90516 255.15122 C 91.80269 255.5862 93.63784 257.60065 96.7998 260.54922 C 99.55638 263.11978 101.7131 265.3583 101.56189 265.52047 C 100.84364 266.2907 97.8416 264.55228 94.55803 261.4903 C 92.45006 259.5246 90.83948 258.32586 90.61267 258.5691 C 90.12124 259.09608 90.48608 259.4363 96.43695 264.7582 C 99.06918 267.137 101.10428 269.26214 100.91527 269.46483 C 100.76406 269.62698 99.65636 269.35192 98.49991 268.80404 Z" fill="black"/>
        </g>
        <g id="Graphic_22">
          <path d="M 106.19067 249.82856 C 104.8748 249.2078 103.20529 242.95204 103.11675 238.17055 C 102.87501 229.00202 102.51092 224.19094 101.98392 223.6995 C 101.70016 223.4349 101.84042 222.95938 102.29952 222.6296 C 102.71808 222.26203 103.41941 219.88447 103.91532 217.23956 C 104.33288 214.59738 104.92354 212.41977 105.1991 212.44937 C 105.90416 212.42475 106.28318 214.29397 105.9166 216.15 C 104.98124 220.81038 104.7609 223.48488 104.90688 229.9115 C 105.00313 233.79072 105.35902 238.36678 105.7731 240.11712 C 106.14665 241.82966 106.2797 243.39373 106.09069 243.59642 C 105.90168 243.7991 106.175 244.88766 106.64827 246.0869 C 107.80572 248.90937 107.62268 250.40604 106.19067 249.82856 Z" fill="black"/>
        </g>
        <g id="Graphic_21">
          <path d="M 98.64266 249.3078 C 96.66227 248.74946 90.82207 243.2276 90.40799 241.47725 C 90.04538 240.07807 91.35429 237.13025 92.33217 237.05688 C 92.56719 237.04867 93.85893 238.10166 95.19668 239.34914 C 97.429 241.5066 97.51282 241.66054 96.33224 241.5449 C 95.58391 241.45338 94.63015 241.0945 94.22477 240.71648 C 93.81939 240.33846 93.34388 240.1982 93.15487 240.40089 C 92.55003 241.0495 93.6637 242.61853 97.10669 245.75338 C 100.38753 248.73702 100.8986 249.8957 98.64266 249.3078 Z" fill="black"/>
        </g>
        <g id="Graphic_20">
          <path d="M 111.45562 231.01623 C 111.13132 230.7138 111.07163 230.12763 111.2119 229.65212 C 111.3927 229.2144 111.2114 228.51482 110.80602 228.1368 C 110.3601 227.72097 109.95423 226.20565 109.86444 224.75772 C 109.73686 223.35034 109.56004 220.53283 109.3755 218.6176 C 109.22877 216.66183 109.2902 215.05175 109.48468 215.00574 C 110.0736 215.0244 110.70952 217.51213 111.3437 222.19613 C 111.6608 224.53812 112.07811 227.5041 112.27583 228.67374 C 112.67126 231.013 112.38799 231.88568 111.45562 231.01623 Z" fill="black"/>
        </g>
        <g id="Graphic_19">
          <path d="M 116.9071 218.66833 C 116.54226 218.3281 116.4475 217.8608 116.63651 217.65812 C 116.86333 217.4149 117.17669 217.40395 117.37938 217.59296 C 117.6226 217.81977 117.75516 218.24654 117.64996 218.60317 C 117.58256 218.91927 117.2314 218.97075 116.9071 218.66833 Z" fill="black"/>
        </g>
        <g id="Graphic_18">
          <path d="M 114.32113 210.87585 C 113.65387 210.85993 113.13508 210.60352 113.12414 210.29016 C 113.09952 209.5851 114.7474 209.606 115.12592 210.33791 C 115.37462 210.7214 115.10726 210.92683 114.32113 210.87585 Z" fill="black"/>
        </g>
        <g id="Graphic_17">
          <path d="M 118.41098 204.45817 C 117.6221 204.32885 111.59066 200.06864 111.53644 199.63914 C 111.56877 199.44192 113.31141 199.93011 115.45395 200.63965 C 118.43137 201.673 119.3906 202.18855 119.45576 202.9314 C 119.61294 204.06324 119.24039 204.6253 118.41098 204.45817 Z" fill="black"/>
        </g>
        <g id="Graphic_16">
          <path d="M 109.42176 213.20392 C 108.69208 212.52348 108.2096 208.81463 108.73883 208.2471 C 109.53268 207.3958 110.03555 208.31947 110.16089 210.78582 C 110.32404 213.21163 110.1109 213.84656 109.42176 213.20392 Z" fill="black"/>
        </g>
        <g id="Graphic_15">
          <path d="M 115.94861 188.97468 C 115.42162 188.48325 114.38678 188.04877 113.67898 187.99505 C 112.02563 187.81748 109.72044 185.81944 110.56577 185.3193 C 111.18155 184.98406 113.72673 185.99328 116.48829 187.5832 C 117.69074 188.32558 117.8989 188.67127 117.44528 189.15772 C 117.06726 189.5631 116.4756 189.4661 115.94861 188.97468 Z" fill="black"/>
        </g>
        <g id="Graphic_14">
          <path d="M 121.37074 183.6478 C 120.1173 183.69157 118.59576 176.058 119.80046 175.74141 C 120.11108 175.65213 120.43538 175.95455 120.4896 176.38405 C 120.54655 176.8919 121.14418 178.28287 121.8552 179.55222 C 123.02857 181.70745 122.8592 183.59582 121.37074 183.6478 Z" fill="black"/>
        </g>
        <g id="Graphic_13">
          <path d="M 123.31855 177.65788 C 122.66994 177.05305 121.44187 173.33102 121.96065 173.58743 C 122.83607 173.94904 124.27455 176.9578 123.82092 177.44425 C 123.63191 177.64694 123.39963 177.73349 123.31855 177.65788 Z" fill="black"/>
        </g>
        <g id="Graphic_12">
          <path d="M 124.72121 172.90276 C 124.39691 172.60034 124.18054 172.01963 124.24794 171.70354 C 124.35314 171.3469 124.74757 171.41156 125.19349 171.82739 C 125.67995 172.28101 125.89358 172.78339 125.66676 173.02661 C 125.47775 173.2293 125.04551 173.20518 124.72121 172.90276 Z" fill="black"/>
        </g>
        <g id="Graphic_11">
          <path d="M 99.6842 197.1509 C 99.09528 197.13225 98.33874 196.80571 98.00897 196.34661 C 97.55484 195.69577 97.70879 195.61196 98.89483 195.88428 C 100.59693 196.33468 101.13486 197.13947 99.6842 197.1509 Z" fill="black"/>
        </g>
        <g id="Graphic_10">
          <path d="M 101.20897 181.29287 C 100.39548 180.45849 100.26516 178.97276 100.67949 175.11494 C 100.88666 173.18603 100.97171 170.00642 100.90332 168.04791 C 100.79439 166.0516 100.73097 163.11248 100.7924 161.5024 C 100.85383 159.89233 100.62328 157.78262 100.23656 156.81568 C 99.23579 153.98772 98.74337 152.24012 98.5561 150.24655 C 98.48273 149.26866 98.1634 147.98562 97.87143 147.48599 C 97.32529 146.44618 98.09998 145.0465 98.82966 145.72694 C 99.07289 145.95375 100.01944 148.3522 100.93913 151.10456 C 102.20774 154.86439 102.62506 157.83037 102.76234 162.88468 C 102.85312 166.6072 103.03591 170.7187 103.15802 171.9694 C 103.24233 173.26064 103.0379 175.2679 102.72778 176.49447 C 102.37985 177.7616 102.0456 179.42042 101.95681 180.2471 C 101.80336 181.4682 101.65489 181.7087 101.20897 181.29287 Z" fill="black"/>
        </g>
        <g id="Graphic_9">
          <path d="M 109.57222 168.09815 C 107.75671 167.76937 106.3921 166.8758 106.92133 166.30826 C 107.41276 165.78127 110.07135 166.66888 110.7309 167.58707 C 111.22557 168.27572 111.07162 168.35953 109.57222 168.09815 Z" fill="black"/>
        </g>
        <g id="Graphic_8">
          <path d="M 121.84525 144.4526 C 121.60203 144.2258 120.21056 143.68612 118.82182 143.22478 C 115.92821 142.34538 115.59296 141.7296 117.56465 140.91561 C 118.95562 140.31799 121.22798 141.37595 122.34986 143.18001 C 123.01488 144.25489 122.65601 145.20865 121.84525 144.4526 Z" fill="black"/>
        </g>
        <g id="Graphic_7">
          <path d="M 111.82542 143.9005 C 111.46879 143.7953 111.13902 143.3362 111.1226 142.86616 C 111.10619 142.39612 110.28175 141.24837 109.30884 140.34112 C 108.0927 139.20705 107.75746 138.59127 108.17875 138.30203 C 109.18076 137.79643 111.56379 138.65444 113.26639 140.24213 C 114.64467 141.52741 114.69068 141.7219 113.67002 142.81642 C 113.02739 143.50556 112.21986 143.96516 111.82542 143.9005 Z" fill="black"/>
        </g>
        <g id="Graphic_6">
          <path d="M 101.15823 139.40999 C 98.61305 138.40077 96.56203 136.9429 96.69682 136.3107 C 96.86121 135.40295 102.04808 135.69244 102.55094 136.6161 C 102.76184 137.04014 103.17543 137.65318 103.49973 137.9556 C 104.55372 138.93846 102.70912 140.02253 101.15823 139.40999 Z" fill="black"/>
        </g>
        <g id="Graphic_5">
          <path d="M 98.90452 113.05587 C 98.77743 112.78578 98.81474 111.60794 99.04926 110.46243 C 99.47503 108.05528 100.42606 108.33581 100.31912 110.8887 C 100.18482 112.6582 99.36685 113.94173 98.90452 113.05587 Z" fill="black"/>
        </g>
        <g id="Graphic_4">
          <path d="M 109.82961 95.73225 C 109.74033 95.42162 109.72665 95.02992 109.84005 94.90831 C 109.91566 94.82723 110.19395 94.93517 110.39664 95.12418 C 110.63987 95.35099 110.61301 95.70489 110.3862 95.94812 C 110.19719 96.15081 109.95943 96.08067 109.82961 95.73225 Z" fill="black"/>
        </g>
      </g>
    </g>
  </g>
</svg>
