<?xml version="1.0" encoding="UTF-8"?>
<!DOCTYPE svg PUBLIC "-//W3C//DTD SVG 1.1//EN" "http://www.w3.org/Graphics/SVG/1.1/DTD/svg11.dtd">
<svg xmlns="http://www.w3.org/2000/svg" version="1.1" width="632px" height="2048px" style="shape-rendering:geometricPrecision; text-rendering:geometricPrecision; image-rendering:optimizeQuality; fill-rule:evenodd; clip-rule:evenodd" xmlns:xlink="http://www.w3.org/1999/xlink">
<g><path style="opacity:0.995" fill="#202020" d="M 384.5,1108.5 C 383.835,1111.48 383.502,1114.65 383.5,1118C 383.344,1123.09 384.01,1127.92 385.5,1132.5C 385.85,1159.17 386.183,1185.83 386.5,1212.5C 384.863,1247.13 384.363,1281.79 385,1316.5C 385.676,1328.57 387.009,1340.57 389,1352.5C 389.651,1356.64 391.485,1360.14 394.5,1363C 406.351,1372.43 418.018,1382.09 429.5,1392C 446.45,1393.68 462.116,1390.01 476.5,1381C 483.912,1376.26 490.745,1370.76 497,1364.5C 497.311,1362.44 497.811,1360.44 498.5,1358.5C 495.299,1346.23 492.299,1333.89 489.5,1321.5C 490.943,1306.78 494.11,1292.45 499,1278.5C 504.283,1266.94 513.116,1259.78 525.5,1257C 549.845,1251.12 570.679,1256.96 588,1274.5C 600.36,1288.23 606.86,1304.4 607.5,1323C 605.629,1341.69 601.462,1359.86 595,1377.5C 593.066,1381.76 590.732,1385.76 588,1389.5C 580.5,1397.67 573,1405.83 565.5,1414C 552.316,1424.43 539.316,1435.09 526.5,1446C 493.569,1461.82 459.236,1473.48 423.5,1481C 421.004,1482.08 418.67,1483.41 416.5,1485C 408.921,1494.58 400.087,1502.75 390,1509.5C 389.333,1512.5 389.333,1515.5 390,1518.5C 391.317,1523.1 392.317,1527.77 393,1532.5C 393.38,1545.84 393.38,1559.18 393,1572.5C 399.683,1579.87 403.683,1588.54 405,1598.5C 406.511,1617.12 407.511,1635.79 408,1654.5C 410.938,1661.38 413.605,1668.38 416,1675.5C 416.906,1679.28 417.406,1683.11 417.5,1687C 416.029,1700.35 413.529,1713.52 410,1726.5C 409.667,1740.17 409.333,1753.83 409,1767.5C 407.147,1781.25 404.813,1794.91 402,1808.5C 401.132,1827.16 400.465,1845.83 400,1864.5C 399.281,1869.66 397.948,1874.66 396,1879.5C 391.356,1887.77 387.689,1896.44 385,1905.5C 383.818,1920.9 382.152,1936.23 380,1951.5C 376.43,1958.4 371.43,1964.07 365,1968.5C 362.626,1972.89 361.959,1977.56 363,1982.5C 366.972,1990.07 368.638,1998.07 368,2006.5C 364.083,2010.71 359.25,2013.21 353.5,2014C 334.872,2019.43 315.872,2022.59 296.5,2023.5C 280.372,2022.14 265.039,2017.97 250.5,2011C 249.54,2009.58 248.707,2008.08 248,2006.5C 247.479,2001.15 246.813,1995.81 246,1990.5C 238.245,1969.41 235.579,1947.74 238,1925.5C 239.389,1921.06 241.056,1916.72 243,1912.5C 243.667,1905.83 243.667,1899.17 243,1892.5C 240.861,1884.61 239.361,1876.61 238.5,1868.5C 240.697,1859.23 242.697,1849.9 244.5,1840.5C 243.88,1836.78 243.047,1833.11 242,1829.5C 232.079,1816.76 225.412,1802.43 222,1786.5C 221.242,1780.11 221.576,1773.78 223,1767.5C 225.473,1761.22 228.473,1755.22 232,1749.5C 234,1742.5 234,1735.5 232,1728.5C 226.969,1721.78 222.969,1714.44 220,1706.5C 218.463,1698.23 218.13,1689.9 219,1681.5C 223.167,1673.67 226.334,1665.51 228.5,1657C 225.453,1645.31 223.119,1633.48 221.5,1621.5C 222.103,1610.52 225.936,1600.85 233,1592.5C 233.906,1590.26 234.406,1587.92 234.5,1585.5C 228.939,1564.75 229.272,1544.09 235.5,1523.5C 235.281,1522.06 234.781,1520.73 234,1519.5C 228.956,1514.12 224.289,1508.46 220,1502.5C 217.78,1493.21 212.947,1485.71 205.5,1480C 195.497,1478.39 185.497,1476.73 175.5,1475C 152.91,1466.47 130.244,1458.14 107.5,1450C 102.38,1447.94 97.3797,1445.61 92.5,1443C 83.7817,1435.95 74.7817,1429.28 65.5,1423C 55.8756,1414.59 49.7089,1404.09 47,1391.5C 37.792,1362.53 40.1253,1334.53 54,1307.5C 64.8217,1298.68 74.9883,1289.18 84.5,1279C 111.896,1268.79 135.396,1274.63 155,1296.5C 163.733,1310.75 167.067,1326.09 165,1342.5C 162.222,1351.39 158.888,1360.05 155,1368.5C 154.045,1376.42 157.212,1382.25 164.5,1386C 176.114,1390.56 187.948,1394.39 200,1397.5C 202.544,1397.62 204.711,1396.78 206.5,1395C 218.02,1384 230.186,1373.83 243,1364.5C 246.644,1357.29 248.644,1349.62 249,1341.5C 249.881,1315.15 251.048,1288.81 252.5,1262.5C 251.966,1245.81 251.3,1229.15 250.5,1212.5C 251.324,1202.33 251.99,1192 252.5,1181.5C 252.46,1177.26 251.794,1173.26 250.5,1169.5C 251.967,1137.53 253.133,1105.53 254,1073.5C 254.724,968.488 256.224,863.488 258.5,758.5C 258.45,749.141 257.95,739.808 257,730.5C 254.728,723.186 252.562,715.853 250.5,708.5C 252.046,700.7 254.879,693.366 259,686.5C 259.773,668.32 259.606,650.153 258.5,632C 262.721,608.145 263.721,584.145 261.5,560C 262.167,496.984 263.501,433.984 265.5,371C 265.046,361.171 264.713,351.338 264.5,341.5C 265.619,305.496 266.786,269.496 268,233.5C 270.602,218.277 272.102,202.944 272.5,187.5C 271.6,173.506 271.433,159.506 272,145.5C 272.413,142.768 273.08,140.101 274,137.5C 278.388,131.391 281.721,124.724 284,117.5C 287.442,88.2921 294.442,59.9588 305,32.5C 311.58,24.8214 317.913,24.8214 324,32.5C 331.211,50.6713 336.877,69.338 341,88.5C 345.862,110.341 349.862,132.341 353,154.5C 356.9,183.731 359.9,213.064 362,242.5C 362.614,333.582 365.614,424.582 371,515.5C 376.499,713.142 380.999,910.808 384.5,1108.5 Z"/></g>
<g><path style="opacity:1" fill="#dfdfdf" d="M 312.5,88.5 C 317.331,87.6671 319.664,89.6671 319.5,94.5C 319.404,98.7697 317.237,101.436 313,102.5C 310.153,101.489 308.653,99.4892 308.5,96.5C 308.782,93.2691 310.115,90.6024 312.5,88.5 Z"/></g>
<g><path style="opacity:1" fill="#e7e7e7" d="M 303.5,140.5 C 304.833,140.5 306.167,140.5 307.5,140.5C 307.769,146.946 307.102,153.279 305.5,159.5C 305.682,162.226 306.182,164.893 307,167.5C 307.234,182.181 307.734,196.848 308.5,211.5C 306.215,221.735 306.215,231.902 308.5,242C 306.011,253.292 303.677,264.625 301.5,276C 303.388,282.72 304.722,289.554 305.5,296.5C 303.009,315.121 303.676,333.621 307.5,352C 307.675,355.746 306.842,359.246 305,362.5C 304.4,383.845 304.734,405.178 306,426.5C 307.379,429.515 308.212,432.681 308.5,436C 309.531,454.944 309.531,473.944 308.5,493C 311.557,548.097 313.39,603.264 314,658.5C 315.028,661.91 315.528,665.41 315.5,669C 314.46,689.066 312.793,709.066 310.5,729C 310.446,734.296 311.113,739.463 312.5,744.5C 312.2,747.67 311.866,750.837 311.5,754C 314.151,785.498 314.151,816.998 311.5,848.5C 312.297,855.153 312.964,861.82 313.5,868.5C 311.034,887.889 310.034,907.389 310.5,927C 311.579,953.183 311.413,979.349 310,1005.5C 309.667,1117.5 309.333,1229.5 309,1341.5C 302.697,1348.43 294.864,1351.1 285.5,1349.5C 275.942,1352.26 270.108,1348.92 268,1339.5C 267.333,1322.5 267.333,1305.5 268,1288.5C 271.18,1263.29 272.18,1237.95 271,1212.5C 270.574,1207.42 269.74,1202.42 268.5,1197.5C 269.322,1193.85 270.155,1190.18 271,1186.5C 271.025,1152.11 272.358,1117.78 275,1083.5C 275.49,1066.33 275.324,1049.16 274.5,1032C 277.051,967.202 278.551,902.369 279,837.5C 279.755,832.316 280.588,827.149 281.5,822C 279.177,802.896 278.843,783.729 280.5,764.5C 279.966,756.489 279.299,748.489 278.5,740.5C 278.752,735.405 279.586,730.405 281,725.5C 281.346,708.162 281.846,690.828 282.5,673.5C 282.257,667.162 281.924,660.828 281.5,654.5C 285.351,629.816 285.351,605.15 281.5,580.5C 281.297,576.589 282.13,572.922 284,569.5C 285.111,514.169 286.111,458.835 287,403.5C 287.8,391.449 288.967,379.449 290.5,367.5C 288.942,361.766 287.942,355.933 287.5,350C 288.515,340.461 289.682,330.961 291,321.5C 291.352,285.827 292.019,250.16 293,214.5C 294.131,207.241 295.631,200.074 297.5,193C 295.602,184.266 295.102,175.433 296,166.5C 297.643,161.312 298.643,155.978 299,150.5C 299.836,146.809 301.336,143.476 303.5,140.5 Z"/></g>
<g><path style="opacity:1" fill="#e2e2e2" d="M 325.5,154.5 C 327.936,154.317 330.103,154.984 332,156.5C 332.974,165.885 334.308,175.218 336,184.5C 335.823,210.68 335.99,236.847 336.5,263C 335.628,267.578 333.795,271.745 331,275.5C 328.914,270.418 327.581,265.085 327,259.5C 326.712,242.049 325.212,224.715 322.5,207.5C 325.037,197.469 325.037,187.469 322.5,177.5C 322.958,174.125 323.625,170.792 324.5,167.5C 322.859,162.89 323.192,158.557 325.5,154.5 Z"/></g>
<g><path style="opacity:1" fill="#e6e6e6" d="M 328.5,285.5 C 332.182,284.725 334.682,286.059 336,289.5C 336.213,295.639 337.213,301.639 339,307.5C 339.279,327.847 339.946,348.181 341,368.5C 342.485,375.109 343.652,381.776 344.5,388.5C 343.041,402.86 343.208,417.193 345,431.5C 345.647,476.834 346.314,522.167 347,567.5C 348.152,570.44 349.152,573.44 350,576.5C 350.291,627.524 351.291,678.524 353,729.5C 356.007,779.052 357.34,828.719 357,878.5C 357.309,889.376 358.143,900.209 359.5,911C 357.592,939.354 358.926,967.521 363.5,995.5C 362.924,1004.82 362.591,1014.16 362.5,1023.5C 363.217,1072.83 363.717,1122.16 364,1171.5C 369.3,1227.76 369.633,1284.09 365,1340.5C 362.844,1345.88 358.844,1347.88 353,1346.5C 344.308,1346.69 336.142,1344.86 328.5,1341C 326.765,1338.81 325.598,1336.31 325,1333.5C 324.172,1313.43 325.006,1293.43 327.5,1273.5C 324.91,1250.5 324.91,1227.5 327.5,1204.5C 326.571,1194.61 325.237,1184.78 323.5,1175C 324.811,1153.33 324.811,1131.66 323.5,1110C 324.42,1084.64 325.754,1059.3 327.5,1034C 325.945,1001.98 326.278,969.976 328.5,938C 327.174,886.499 327.174,834.999 328.5,783.5C 327.335,773.517 326.335,763.517 325.5,753.5C 327.074,739.232 327.907,724.899 328,710.5C 328.633,648.496 328.3,586.496 327,524.5C 325.305,521.082 323.805,517.582 322.5,514C 324.312,512.188 326.145,510.355 328,508.5C 328.645,493.633 328.145,478.8 326.5,464C 327.51,450.843 327.677,437.676 327,424.5C 326.245,419.568 325.078,414.734 323.5,410C 324.65,376.186 324.816,342.352 324,308.5C 320.945,299.784 322.445,292.117 328.5,285.5 Z"/></g>
<g><path style="opacity:0.641" fill="#8f8f8f" d="M 384.5,1108.5 C 384.39,1116.52 384.724,1124.52 385.5,1132.5C 384.01,1127.92 383.344,1123.09 383.5,1118C 383.502,1114.65 383.835,1111.48 384.5,1108.5 Z"/></g>
<g><path style="opacity:0.031" fill="#b8b8b8" d="M 250.5,1169.5 C 251.794,1173.26 252.46,1177.26 252.5,1181.5C 251.99,1192 251.324,1202.33 250.5,1212.5C 250.5,1198.17 250.5,1183.83 250.5,1169.5 Z"/></g>
<g><path style="opacity:1" fill="#e7e7e7" d="M 541.5,1277.5 C 559.855,1280.08 574.021,1289.08 584,1304.5C 589.563,1317.71 589.896,1331.04 585,1344.5C 579.8,1360.9 572.467,1376.23 563,1390.5C 556.167,1398.67 548.667,1406.17 540.5,1413C 525.666,1422.25 510.666,1431.25 495.5,1440C 481.55,1444.54 467.55,1448.87 453.5,1453C 446.902,1454.61 440.236,1455.28 433.5,1455C 430.436,1450.34 431.436,1446.68 436.5,1444C 451.895,1441.76 466.561,1437.09 480.5,1430C 485.325,1427.87 485.659,1425.2 481.5,1422C 479.863,1421.4 478.197,1420.9 476.5,1420.5C 466.703,1422.16 457.036,1424.33 447.5,1427C 444.167,1427.67 440.833,1427.67 437.5,1427C 434.253,1421.75 435.253,1417.42 440.5,1414C 455.323,1407.88 470.323,1402.21 485.5,1397C 498.665,1389.17 509.998,1379.17 519.5,1367C 523.816,1364.45 527.316,1365.29 530,1369.5C 531.509,1375.28 530.009,1380.12 525.5,1384C 528.03,1385.42 530.697,1385.75 533.5,1385C 543.667,1375.84 551.001,1364.84 555.5,1352C 553.947,1344.95 549.947,1339.78 543.5,1336.5C 539.332,1338.75 535.332,1341.25 531.5,1344C 522.996,1345 516.496,1341.83 512,1334.5C 509.595,1330.12 508.095,1325.45 507.5,1320.5C 508.124,1313.47 508.957,1306.47 510,1299.5C 518.801,1289.53 529.301,1282.2 541.5,1277.5 Z"/></g>
<g><path style="opacity:1" fill="#e7e7e7" d="M 100.5,1291.5 C 106.925,1291.13 113.258,1291.63 119.5,1293C 125.997,1298.09 132.997,1302.42 140.5,1306C 150.159,1316.47 152.992,1328.64 149,1342.5C 143.959,1354.27 135.126,1359.1 122.5,1357C 114.793,1350.72 112.459,1342.88 115.5,1333.5C 115.706,1329 113.706,1327.17 109.5,1328C 102.474,1332.55 98.9743,1339.05 99,1347.5C 89.5411,1351.42 86.2078,1358.42 89,1368.5C 91.2193,1378.92 94.5526,1388.92 99,1398.5C 101.9,1403.29 105.9,1404.62 111,1402.5C 111.584,1399.74 111.25,1397.08 110,1394.5C 107.235,1390.74 104.902,1386.74 103,1382.5C 101.608,1377.08 102.774,1372.42 106.5,1368.5C 117.259,1375.76 127.592,1383.59 137.5,1392C 154.559,1400.28 172.226,1406.95 190.5,1412C 199.01,1420.17 200.677,1429.5 195.5,1440C 188.943,1441.59 182.276,1441.92 175.5,1441C 167.345,1436.51 158.845,1432.67 150,1429.5C 147.968,1429.86 146.134,1430.69 144.5,1432C 142.451,1436.06 139.285,1438.56 135,1439.5C 119.621,1435.89 105.454,1429.72 92.5,1421C 85.3333,1412.5 78.1667,1404 71,1395.5C 63.6509,1378.55 62.6509,1361.22 68,1343.5C 70.0238,1336.07 72.3572,1328.74 75,1321.5C 82.9602,1311.04 91.4602,1301.04 100.5,1291.5 Z"/></g>
<g><path style="opacity:1" fill="#e7e7e7" d="M 320.5,1359.5 C 332.838,1359.33 345.171,1359.5 357.5,1360C 367.5,1365 377.5,1370 387.5,1375C 409.818,1390.61 417.985,1411.78 412,1438.5C 407.259,1445.91 401.759,1452.74 395.5,1459C 382.069,1466.14 367.735,1470.48 352.5,1472C 342.685,1472.86 332.852,1473.36 323,1473.5C 305.197,1472.19 287.364,1471.36 269.5,1471C 257.962,1466.57 246.629,1461.57 235.5,1456C 229.243,1451.29 223.076,1446.45 217,1441.5C 210.072,1426.43 211.405,1412.1 221,1398.5C 227.141,1393.03 233.308,1387.53 239.5,1382C 247.74,1378.71 256.073,1375.71 264.5,1373C 269.596,1368.12 275.596,1364.78 282.5,1363C 295.32,1361.92 307.986,1360.75 320.5,1359.5 Z"/></g>
<g><path style="opacity:1" fill="#212121" d="M 300.5,1380.5 C 305.511,1380.33 310.511,1380.5 315.5,1381C 318.629,1381.12 319.795,1382.62 319,1385.5C 317.833,1386.67 316.667,1387.83 315.5,1389C 306.202,1391.46 296.869,1393.79 287.5,1396C 276.045,1398.79 267.545,1405.29 262,1415.5C 260.798,1419.79 261.965,1423.29 265.5,1426C 273.389,1429.91 280.723,1434.57 287.5,1440C 305.167,1440.67 322.833,1440.67 340.5,1440C 348.125,1436.71 354.958,1432.21 361,1426.5C 363.893,1421.69 364.226,1416.69 362,1411.5C 359.131,1405.25 354.964,1400.08 349.5,1396C 345.195,1395.1 341.361,1393.26 338,1390.5C 339.53,1382.69 344.03,1380.53 351.5,1384C 376.208,1395.59 382.708,1413.76 371,1438.5C 368.079,1442.09 364.579,1444.92 360.5,1447C 353.948,1449.41 347.282,1451.41 340.5,1453C 325.167,1453.67 309.833,1453.67 294.5,1453C 282.08,1447.19 269.747,1441.19 257.5,1435C 247.901,1424.84 247.068,1414.01 255,1402.5C 268.074,1390.71 283.241,1383.38 300.5,1380.5 Z"/></g>
<g><path style="opacity:1" fill="#262626" d="M 311.5,1408.5 C 316.9,1408.07 319.4,1410.4 319,1415.5C 310.482,1419.34 307.982,1417.01 311.5,1408.5 Z"/></g>
<g><path style="opacity:1" fill="#d9d9d9" d="M 170.5,1449.5 C 172.527,1449.34 174.527,1449.5 176.5,1450C 177.973,1450.71 178.64,1451.88 178.5,1453.5C 176.473,1453.66 174.473,1453.5 172.5,1453C 171.177,1452.18 170.511,1451.02 170.5,1449.5 Z"/></g>
<g><path style="opacity:1" fill="#e2e2e2" d="M 354.5,1485.5 C 360.694,1483.99 365.194,1485.99 368,1491.5C 368.684,1492.78 368.517,1493.95 367.5,1495C 362.563,1497.89 357.23,1499.06 351.5,1498.5C 344.165,1497.66 336.831,1497.16 329.5,1497C 327.714,1497.78 326.214,1498.95 325,1500.5C 324.743,1504.38 323.743,1508.04 322,1511.5C 319.386,1514.43 317.219,1517.6 315.5,1521C 315.99,1523.5 317.323,1525.5 319.5,1527C 324.333,1529.58 329,1532.42 333.5,1535.5C 333.291,1536.09 332.957,1536.59 332.5,1537C 327.4,1538.55 323.4,1537.22 320.5,1533C 316.833,1532.67 313.167,1532.33 309.5,1532C 303.274,1528.32 301.941,1523.32 305.5,1517C 304.369,1511.14 304.202,1505.31 305,1499.5C 300.006,1497.75 294.839,1496.58 289.5,1496C 284.182,1493.9 284.515,1492.23 290.5,1491C 296.123,1489.84 301.789,1489.01 307.5,1488.5C 313.185,1489.17 318.852,1490 324.5,1491C 333.751,1492.19 342.751,1491.19 351.5,1488C 352.571,1487.15 353.571,1486.31 354.5,1485.5 Z"/></g>
<g><path style="opacity:1" fill="#c1c1c1" d="M 263.5,1491.5 C 267.182,1491.33 270.848,1491.5 274.5,1492C 274.957,1492.41 275.291,1492.91 275.5,1493.5C 269.46,1494.81 263.46,1494.64 257.5,1493C 259.708,1492.81 261.708,1492.31 263.5,1491.5 Z"/></g>
<g><path style="opacity:1" fill="#e7e7e7" d="M 268.5,1526.5 C 271.649,1526.21 274.649,1526.71 277.5,1528C 288.675,1537.83 301.341,1545.16 315.5,1550C 322.193,1550.46 328.527,1552.12 334.5,1555C 339.228,1558.73 344.228,1562.06 349.5,1565C 353.029,1567.33 355.029,1570.5 355.5,1574.5C 351.818,1574.67 348.152,1574.5 344.5,1574C 336.891,1570.69 329.224,1567.69 321.5,1565C 318.833,1564.33 316.167,1564.33 313.5,1565C 312.511,1572.33 308.511,1574.83 301.5,1572.5C 298.743,1574.09 297.91,1576.42 299,1579.5C 311.924,1591.03 309.758,1595.2 292.5,1592C 286.167,1589.67 279.833,1587.33 273.5,1585C 271.91,1583.95 270.41,1582.79 269,1581.5C 264.301,1573.48 259.634,1565.48 255,1557.5C 252.961,1544.25 257.461,1533.92 268.5,1526.5 Z"/></g>
<g><path style="opacity:1" fill="#e1e1e1" d="M 365.5,1530.5 C 370.133,1529.46 373.299,1531.12 375,1535.5C 375.667,1539.5 375.667,1543.5 375,1547.5C 368.657,1553.33 363.323,1552.33 359,1544.5C 358.333,1542.83 358.333,1541.17 359,1539.5C 360.611,1536.06 362.777,1533.06 365.5,1530.5 Z"/></g>
<g><path style="opacity:1" fill="#dddddd" d="M 325.5,1595.5 C 328.898,1595.18 332.232,1595.51 335.5,1596.5C 335.291,1597.09 334.957,1597.59 334.5,1598C 331.833,1598.67 329.167,1598.67 326.5,1598C 325.748,1597.33 325.414,1596.5 325.5,1595.5 Z"/></g>
<g><path style="opacity:1" fill="#e5e5e5" d="M 370.5,1596.5 C 376.116,1595.22 379.949,1597.22 382,1602.5C 382.667,1607.17 382.667,1611.83 382,1616.5C 381.626,1617.42 381.126,1618.25 380.5,1619C 372.633,1618.98 366.133,1615.82 361,1609.5C 360.333,1608.5 360.333,1607.5 361,1606.5C 363.696,1602.64 366.863,1599.31 370.5,1596.5 Z"/></g>
<g><path style="opacity:1" fill="#e7e7e7" d="M 260.5,1604.5 C 268.208,1604.36 275.875,1604.86 283.5,1606C 289.921,1608.81 296.588,1610.81 303.5,1612C 320.531,1619.45 337.864,1626.12 355.5,1632C 360.288,1635.7 362.621,1640.36 362.5,1646C 360.5,1646.67 358.5,1646.67 356.5,1646C 346.566,1637.07 334.899,1633.41 321.5,1635C 318.728,1636.86 316.395,1639.19 314.5,1642C 311.751,1643.12 309.251,1644.62 307,1646.5C 305.833,1653.36 308.333,1658.53 314.5,1662C 317.167,1663.33 319.833,1664.67 322.5,1666C 330.895,1667.85 339.228,1669.85 347.5,1672C 351.953,1673.73 356.286,1675.73 360.5,1678C 367.589,1678.62 373.256,1675.96 377.5,1670C 382.274,1668.64 385.774,1670.14 388,1674.5C 389.079,1683.34 388.413,1692.01 386,1700.5C 382.817,1702.52 379.317,1703.02 375.5,1702C 351.295,1689.38 325.962,1679.71 299.5,1673C 288.402,1666.23 277.069,1659.9 265.5,1654C 261.543,1648.59 257.71,1643.09 254,1637.5C 253.333,1630.17 253.333,1622.83 254,1615.5C 254.667,1610.82 256.833,1607.15 260.5,1604.5 Z"/></g>
<g><path style="opacity:1" fill="#e6e6e6" d="M 255.5,1673.5 C 258.187,1673.34 260.854,1673.5 263.5,1674C 268.167,1677.33 272.833,1680.67 277.5,1684C 281.535,1684.87 285.535,1685.87 289.5,1687C 296.851,1690.78 304.518,1693.78 312.5,1696C 323.586,1702.03 335.253,1706.7 347.5,1710C 356.369,1712.88 363.535,1718.04 369,1725.5C 369.667,1728.17 369.667,1730.83 369,1733.5C 368.586,1733.96 368.086,1734.29 367.5,1734.5C 354.959,1727.73 342.292,1721.23 329.5,1715C 324.447,1713.67 320.114,1714.83 316.5,1718.5C 317.646,1723.48 320.479,1727.14 325,1729.5C 325.483,1730.45 325.649,1731.45 325.5,1732.5C 319.156,1732.5 313.156,1731 307.5,1728C 297.465,1725.36 294.965,1728.53 300,1737.5C 303.167,1740 306.333,1742.5 309.5,1745C 319.727,1746.96 330.06,1747.96 340.5,1748C 347.649,1750.49 354.482,1753.66 361,1757.5C 366.41,1755.76 370.244,1752.26 372.5,1747C 373.449,1746.38 374.282,1746.55 375,1747.5C 381.664,1754.14 383.998,1762.14 382,1771.5C 381.114,1779.02 376.947,1782.35 369.5,1781.5C 366.076,1781.52 362.743,1781.02 359.5,1780C 354.678,1776.09 349.678,1772.42 344.5,1769C 334.434,1765.53 324.434,1761.87 314.5,1758C 311.167,1756 307.833,1754 304.5,1752C 282.637,1745.5 265.137,1733 252,1714.5C 247.145,1702.3 246.478,1689.97 250,1677.5C 252.015,1676.3 253.849,1674.97 255.5,1673.5 Z"/></g>
<g><path style="opacity:1" fill="#e6e6e6" d="M 255.5,1755.5 C 268.69,1755.4 280.357,1759.56 290.5,1768C 299.167,1771.33 307.833,1774.67 316.5,1778C 320.213,1779.85 323.547,1782.18 326.5,1785C 326.18,1786.65 325.18,1787.65 323.5,1788C 319.46,1788.91 315.46,1789.91 311.5,1791C 310.409,1793.06 310.242,1795.23 311,1797.5C 315.594,1800.13 319.594,1803.46 323,1807.5C 323.684,1808.78 323.517,1809.95 322.5,1811C 316.5,1811.67 310.5,1811.67 304.5,1811C 299.313,1807.69 293.813,1806.85 288,1808.5C 287.257,1811.78 287.924,1814.78 290,1817.5C 294.61,1823.72 300.777,1827.22 308.5,1828C 316.815,1828.89 325.149,1829.55 333.5,1830C 339.476,1831.67 345.143,1833.83 350.5,1836.5C 352.923,1836.41 355.256,1835.91 357.5,1835C 360.429,1832.24 363.762,1830.08 367.5,1828.5C 375.087,1836.31 375.42,1844.48 368.5,1853C 366.833,1853.67 365.167,1853.67 363.5,1853C 349.158,1847.75 334.492,1843.75 319.5,1841C 307.548,1836.35 295.548,1832.02 283.5,1828C 264.935,1819.11 252.435,1804.94 246,1785.5C 243.68,1777.69 244.014,1770.03 247,1762.5C 249.464,1759.52 252.297,1757.19 255.5,1755.5 Z"/></g>
<g><path style="opacity:1" fill="#e6e6e6" d="M 271.5,1849.5 C 277.232,1849.28 282.899,1849.78 288.5,1851C 300.719,1854.02 312.386,1858.52 323.5,1864.5C 316.46,1868.32 314.627,1873.99 318,1881.5C 319.29,1883.79 320.957,1885.79 323,1887.5C 323.749,1888.64 323.583,1889.64 322.5,1890.5C 320.225,1891.11 317.891,1891.44 315.5,1891.5C 308.186,1890.38 300.853,1889.88 293.5,1890C 290.634,1894.22 291.301,1897.89 295.5,1901C 300.942,1904.7 306.942,1907.04 313.5,1908C 321.5,1908.67 329.5,1908.67 337.5,1908C 345.478,1905.53 351.145,1900.53 354.5,1893C 363.079,1889.59 365.913,1892.43 363,1901.5C 361.527,1905.78 359.527,1909.78 357,1913.5C 349.784,1919.94 341.451,1924.27 332,1926.5C 311.847,1921.78 293.013,1913.95 275.5,1903C 265.597,1893.77 260.931,1882.27 261.5,1868.5C 261.979,1860.54 265.312,1854.2 271.5,1849.5 Z"/></g>
<g><path style="opacity:1" fill="#dfdfdf" d="M 327.5,1862.5 C 332.801,1862.1 337.301,1863.77 341,1867.5C 341.667,1868.83 341.667,1870.17 341,1871.5C 337.927,1872.62 334.76,1872.78 331.5,1872C 328.93,1869.93 326.93,1867.43 325.5,1864.5C 326.243,1863.82 326.909,1863.15 327.5,1862.5 Z"/></g>
<g><path style="opacity:1" fill="#e4e4e4" d="M 266.5,1925.5 C 268.199,1925.34 269.866,1925.51 271.5,1926C 276.167,1928.67 280.833,1931.33 285.5,1934C 297.8,1937.77 310.133,1941.44 322.5,1945C 325.5,1945.67 328.5,1945.67 331.5,1945C 337.594,1941.6 343.927,1940.94 350.5,1943C 352.543,1944.71 354.21,1946.71 355.5,1949C 351.994,1954.06 347.161,1956.23 341,1955.5C 333.838,1954.39 326.672,1953.39 319.5,1952.5C 312.587,1952.94 305.753,1953.94 299,1955.5C 292.101,1954.71 285.267,1953.54 278.5,1952C 275.795,1949.21 272.462,1947.87 268.5,1948C 264.236,1942.54 262.403,1936.38 263,1929.5C 264.032,1927.97 265.199,1926.64 266.5,1925.5 Z"/></g>
<g><path style="opacity:1" fill="#e6e6e6" d="M 265.5,1950.5 C 271.072,1949.1 274.572,1951.1 276,1956.5C 278.833,1958 281,1960.17 282.5,1963C 286.183,1964.84 289.516,1967.17 292.5,1970C 295.738,1970.23 298.238,1971.73 300,1974.5C 305.809,1984.98 305.975,1995.48 300.5,2006C 292.89,2005.71 285.89,2003.37 279.5,1999C 276.573,1994.9 274.407,1990.4 273,1985.5C 271.333,1983.17 269.667,1980.83 268,1978.5C 267.046,1973.4 265.713,1968.4 264,1963.5C 262.978,1958.87 263.478,1954.54 265.5,1950.5 Z"/></g>
<g><path style="opacity:1" fill="#dcdcdc" d="M 335.5,1987.5 C 340.204,1989.79 340.538,1992.62 336.5,1996C 334.833,1996.67 333.167,1996.67 331.5,1996C 330.483,1994.95 330.316,1993.78 331,1992.5C 332.707,1990.96 334.207,1989.3 335.5,1987.5 Z"/></g>
</svg>
