<?xml version="1.0" encoding="UTF-8"?>
<!DOCTYPE svg PUBLIC "-//W3C//DTD SVG 1.1//EN" "http://www.w3.org/Graphics/SVG/1.1/DTD/svg11.dtd">
<svg xmlns="http://www.w3.org/2000/svg" version="1.1" width="1946px" height="2048px" style="shape-rendering:geometricPrecision; text-rendering:geometricPrecision; image-rendering:optimizeQuality; fill-rule:evenodd; clip-rule:evenodd" xmlns:xlink="http://www.w3.org/1999/xlink">
<g><path style="opacity:0.991" fill="#020202" d="M 483.5,1067.5 C 487.1,1065.57 490.1,1062.9 492.5,1059.5C 533.456,1017.04 576.123,976.54 620.5,938C 650.787,914.714 680.787,891.048 710.5,867C 734.403,846.431 756.236,823.931 776,799.5C 808.534,755.22 816.2,706.886 799,654.5C 790.594,634.092 777.094,617.926 758.5,606C 739.717,594.61 719.717,585.944 698.5,580C 664.976,571.524 630.976,565.857 596.5,563C 560.797,560.426 525.13,557.426 489.5,554C 451.502,550.468 414.502,542.468 378.5,530C 369.582,526.405 361.749,521.238 355,514.5C 350.888,509.05 350.554,503.383 354,497.5C 363.872,486.148 376.372,479.981 391.5,479C 407.428,477.461 423.094,478.794 438.5,483C 473.823,496.423 510.156,500.423 547.5,495C 552.342,494.129 553.508,491.629 551,487.5C 538.262,476.539 524.095,467.705 508.5,461C 479.768,448.755 450.434,438.089 420.5,429C 413.789,426.765 407.456,423.765 401.5,420C 395.804,413.531 394.971,406.364 399,398.5C 401.264,395.567 404.098,393.4 407.5,392C 420.403,389.032 433.403,388.699 446.5,391C 478.042,398.18 509.375,406.18 540.5,415C 555.402,418.414 570.402,421.247 585.5,423.5C 586.601,424.598 587.934,424.765 589.5,424C 588.956,423.283 588.289,422.783 587.5,422.5C 575.668,407.169 562.002,393.669 546.5,382C 529.734,373.411 512.068,367.411 493.5,364C 448.3,354.893 403.3,344.893 358.5,334C 346.711,330.737 335.044,327.07 323.5,323C 307.513,316.005 291.18,310.005 274.5,305C 261.706,295.873 250.54,285.04 241,272.5C 236.24,254.924 242.74,244.09 260.5,240C 292.505,236.11 324.505,232.11 356.5,228C 377.324,224.62 396.324,216.953 413.5,205C 416.667,201.833 419.833,198.667 423,195.5C 454.93,140.938 501.764,106.104 563.5,91C 609.485,79.8346 656.152,74.668 703.5,75.5C 734.5,76.1491 765.5,76.8158 796.5,77.5C 817.18,78.4987 837.514,76.332 857.5,71C 893.014,58.7049 929.347,49.7049 966.5,44C 997.758,40.1832 1029.09,39.5165 1060.5,42C 1068.91,42.9159 1076.91,45.2493 1084.5,49C 1087.94,51.0868 1089.61,54.0868 1089.5,58C 1088.15,65.728 1086.48,73.3947 1084.5,81C 1085.33,83.8483 1087,86.1816 1089.5,88C 1109.64,97.8286 1130.31,106.495 1151.5,114C 1174.69,123.901 1196.36,136.234 1216.5,151C 1226.46,158.628 1234.63,167.794 1241,178.5C 1244.45,186.825 1242.45,193.492 1235,198.5C 1234.33,200.833 1234.33,203.167 1235,205.5C 1244.67,216.5 1254.33,227.5 1264,238.5C 1278.48,259.021 1290.48,281.021 1300,304.5C 1308,325.833 1316,347.167 1324,368.5C 1329.14,380.112 1334.81,391.446 1341,402.5C 1341.49,404.134 1341.66,405.801 1341.5,407.5C 1327.83,408.608 1314.17,409.775 1300.5,411C 1294.82,411.023 1291.16,413.69 1289.5,419C 1291.96,422.465 1294.8,425.631 1298,428.5C 1299.94,432.048 1301.61,435.714 1303,439.5C 1311,465.5 1319,491.5 1327,517.5C 1331.72,530.611 1336.72,543.611 1342,556.5C 1344.45,563.957 1343.95,571.124 1340.5,578C 1337.22,579.125 1333.88,580.125 1330.5,581C 1328.11,582.952 1326.61,585.452 1326,588.5C 1325.41,622.278 1320.08,655.278 1310,687.5C 1304.12,706.459 1297.46,725.126 1290,743.5C 1278.59,768.651 1266.92,793.651 1255,818.5C 1249.42,834.002 1246.42,850.002 1246,866.5C 1245.43,873.231 1243.09,879.231 1239,884.5C 1203.72,914.097 1174.72,948.763 1152,988.5C 1148.73,994.712 1145.73,1001.05 1143,1007.5C 1140.45,1020.12 1138.12,1032.79 1136,1045.5C 1132.43,1057.15 1124.93,1064.99 1113.5,1069C 1089.64,1069.2 1068.64,1076.87 1050.5,1092C 1035.28,1104.62 1024.11,1120.12 1017,1138.5C 1014.53,1151.42 1009.87,1163.42 1003,1174.5C 995.9,1182.97 987.067,1188.8 976.5,1192C 962.333,1192.76 949,1196.43 936.5,1203C 911,1219.17 890.167,1240 874,1265.5C 871.393,1270.38 869.06,1275.38 867,1280.5C 864.155,1290.88 861.155,1301.21 858,1311.5C 853.053,1323.45 844.553,1331.62 832.5,1336C 814.816,1336.85 799.483,1343.18 786.5,1355C 771.403,1368.75 758.57,1384.25 748,1401.5C 739.761,1418.32 730.761,1434.65 721,1450.5C 714.333,1458.5 707.667,1466.5 701,1474.5C 687.97,1487.2 675.304,1500.2 663,1513.5C 623.467,1568.56 614.8,1628.23 637,1692.5C 657.72,1743.55 693.554,1779.72 744.5,1801C 816.875,1832.67 889.875,1834.34 963.5,1806C 1015.21,1784.29 1052.38,1747.79 1075,1696.5C 1090.27,1654.19 1090.27,1611.86 1075,1569.5C 1062.39,1540.62 1050.06,1511.62 1038,1482.5C 1026.1,1453.22 1018.43,1422.89 1015,1391.5C 1012.15,1353.73 1018.82,1317.73 1035,1283.5C 1040.73,1271.04 1046.73,1258.71 1053,1246.5C 1065.43,1225.98 1077.09,1204.98 1088,1183.5C 1096.78,1165.05 1102.78,1145.71 1106,1125.5C 1107.56,1121.28 1110.56,1119.61 1115,1120.5C 1122.88,1120.44 1128.88,1123.77 1133,1130.5C 1138.66,1140.83 1142.33,1151.83 1144,1163.5C 1145.25,1204.15 1145.92,1244.82 1146,1285.5C 1145.67,1298.19 1148.34,1310.19 1154,1321.5C 1162.67,1332.17 1171.33,1342.83 1180,1353.5C 1184.95,1359.7 1186.62,1366.7 1185,1374.5C 1181,1381.83 1177,1389.17 1173,1396.5C 1168.27,1412.37 1170.27,1427.37 1179,1441.5C 1197.94,1469.07 1223.77,1486.91 1256.5,1495C 1273.4,1497.76 1290.4,1499.76 1307.5,1501C 1313.55,1501.44 1318.05,1504.27 1321,1509.5C 1323.73,1535.22 1337.23,1552.38 1361.5,1561C 1384.36,1568.37 1407.69,1570.37 1431.5,1567C 1442.52,1565.44 1453.52,1563.78 1464.5,1562C 1470.5,1561.33 1476.5,1561.33 1482.5,1562C 1485.07,1562.9 1487.4,1564.23 1489.5,1566C 1498.86,1575.7 1508.53,1585.03 1518.5,1594C 1532.31,1603.13 1546.97,1604.8 1562.5,1599C 1577.39,1591.45 1589.89,1580.95 1600,1567.5C 1609.94,1552.56 1620.28,1537.89 1631,1523.5C 1643.3,1509.53 1657.13,1497.36 1672.5,1487C 1707.15,1467.24 1719.98,1476.74 1711,1515.5C 1701.8,1565.89 1680.8,1610.56 1648,1649.5C 1607.86,1697.33 1558.03,1730.83 1498.5,1750C 1491.24,1751.98 1483.9,1753.65 1476.5,1755C 1439.33,1759.98 1402.33,1765.98 1365.5,1773C 1327.96,1781.06 1293.29,1795.73 1261.5,1817C 1225.96,1842.6 1190.96,1868.94 1156.5,1896C 1066.82,1960.46 966.823,1998.79 856.5,2011C 735.234,2022.02 624.568,1993.35 524.5,1925C 468.758,1884.6 423.592,1834.77 389,1775.5C 371.509,1741.85 353.509,1708.51 335,1675.5C 327.157,1663.65 317.824,1652.98 307,1643.5C 293.167,1625.15 284.834,1604.48 282,1581.5C 280.1,1562.55 278.767,1543.55 278,1524.5C 277.242,1520.08 274.742,1517.24 270.5,1516C 260.357,1515.54 250.357,1514.21 240.5,1512C 229.684,1506.57 226.517,1498.07 231,1486.5C 236.923,1474.99 242.59,1463.32 248,1451.5C 248.667,1448.17 248.667,1444.83 248,1441.5C 243.67,1435.51 241.003,1428.84 240,1421.5C 238.189,1400.53 239.855,1379.87 245,1359.5C 248.596,1346.71 252.596,1334.04 257,1321.5C 259.058,1315.98 259.724,1310.31 259,1304.5C 257.062,1301.89 254.562,1300.06 251.5,1299C 246.789,1294.86 245.289,1289.69 247,1283.5C 249.723,1275.13 253.723,1267.46 259,1260.5C 270.391,1247.38 281.058,1233.71 291,1219.5C 299.57,1206.61 300.57,1193.27 294,1179.5C 289.333,1174.17 284.667,1168.83 280,1163.5C 272.199,1152.95 271.533,1141.95 278,1130.5C 288.212,1116.63 301.379,1106.46 317.5,1100C 340.57,1090.23 364.57,1083.9 389.5,1081C 415.162,1079.19 440.829,1077.53 466.5,1076C 473.02,1074.74 478.687,1071.91 483.5,1067.5 Z"/></g>
<g><path style="opacity:1" fill="#e8e8e8" d="M 1008.5,54.5 C 1021.2,54.2081 1033.87,54.7081 1046.5,56C 1052.7,56.676 1057.53,59.5094 1061,64.5C 1061.63,71.7373 1061.13,78.9039 1059.5,86C 1059.45,89.8937 1060.78,93.227 1063.5,96C 1069.18,99.8405 1075.18,103.174 1081.5,106C 1117.34,120.837 1152.67,136.837 1187.5,154C 1192.79,157.232 1197.62,161.065 1202,165.5C 1202.67,166.833 1202.67,168.167 1202,169.5C 1199.53,171.652 1196.7,173.152 1193.5,174C 1177.29,176.808 1160.96,178.475 1144.5,179C 1103.83,180.624 1063.16,181.957 1022.5,183C 992.787,161.802 961.454,143.136 928.5,127C 911.165,120.109 894.165,112.442 877.5,104C 873.926,102.382 870.926,100.049 868.5,97C 868.759,95.7387 869.426,94.7387 870.5,94C 896.398,80.7553 923.732,72.2553 952.5,68.5C 952.919,71.3245 951.919,73.4912 949.5,75C 941.679,77.1584 934.845,80.9917 929,86.5C 928.188,93.0014 931.021,95.1681 937.5,93C 945.719,90.5287 954.052,88.5287 962.5,87C 977.9,84.9956 993.233,82.6622 1008.5,80C 1015.04,78.7307 1020.71,75.8974 1025.5,71.5C 1025.02,70.5224 1024.36,69.6891 1023.5,69C 1018.55,68.0046 1013.55,67.3379 1008.5,67C 996.591,62.2307 996.591,58.064 1008.5,54.5 Z"/></g>
<g><path style="opacity:1" fill="#e8e8e8" d="M 674.5,94.5 C 763.712,91.1077 848.045,109.608 927.5,150C 1013.83,196.781 1077.33,264.948 1118,354.5C 1129.94,380.048 1141.61,405.714 1153,431.5C 1172.57,488.968 1179.57,547.968 1174,608.5C 1162.12,743.202 1114.46,863.202 1031,968.5C 1019.33,981.5 1007.67,994.5 996,1007.5C 992.501,1011.67 989.834,1016.34 988,1021.5C 985,1025.17 982,1028.83 979,1032.5C 913,1101.17 847,1169.83 781,1238.5C 740.313,1281.84 702.646,1327.5 668,1375.5C 653.914,1396.66 640.581,1418.33 628,1440.5C 614.512,1468.81 600.512,1496.81 586,1524.5C 578.506,1534 568.672,1537.84 556.5,1536C 547.955,1537.59 545.788,1542.09 550,1549.5C 555.939,1554.55 562.439,1558.72 569.5,1562C 576.638,1568.41 579.638,1576.41 578.5,1586C 578.569,1590.58 578.069,1595.08 577,1599.5C 575.951,1600.52 574.784,1600.68 573.5,1600C 565.015,1591.85 555.682,1584.85 545.5,1579C 539.794,1576.09 533.794,1575.09 527.5,1576C 520.906,1578.19 518.573,1582.53 520.5,1589C 526.85,1588.83 533.184,1588.49 539.5,1588C 542.902,1589.4 545.736,1591.57 548,1594.5C 551.471,1602.62 556.305,1609.78 562.5,1616C 565.656,1616.94 568.489,1618.44 571,1620.5C 572.397,1625.71 572.897,1631.04 572.5,1636.5C 568.625,1635.82 565.292,1633.99 562.5,1631C 560.5,1630.33 558.5,1629.67 556.5,1629C 546.1,1628.49 535.767,1628.82 525.5,1630C 522.272,1628.44 520.105,1625.94 519,1622.5C 512.694,1597.56 510.361,1572.22 512,1546.5C 512.263,1541.98 513.263,1537.65 515,1533.5C 515.689,1532.64 516.522,1531.98 517.5,1531.5C 523.33,1533.97 527.33,1532.3 529.5,1526.5C 529.392,1525.56 529.059,1524.72 528.5,1524C 517.928,1523.09 512.428,1517.26 512,1506.5C 510.321,1483.26 511.988,1460.26 517,1437.5C 530.156,1364.23 557.823,1297.23 600,1236.5C 624.11,1203.38 650.11,1171.71 678,1141.5C 720.475,1097.36 763.975,1054.19 808.5,1012C 835.5,985 862.5,958 889.5,931C 893.217,927.615 897.217,924.615 901.5,922C 905.805,920.077 910.138,920.077 914.5,922C 920.888,925.861 927.554,929.194 934.5,932C 955.56,937.393 969.393,929.893 976,909.5C 978.355,897.191 976.021,885.857 969,875.5C 954.087,857.417 955.254,840.583 972.5,825C 980.17,821.374 987.504,822.041 994.5,827C 1000.67,832.919 1007.67,837.586 1015.5,841C 1026.24,842.288 1032.91,837.621 1035.5,827C 1036.89,823.292 1037.72,819.459 1038,815.5C 1038.36,792.133 1038.53,768.8 1038.5,745.5C 1054,736.919 1069.33,728.086 1084.5,719C 1089.05,716.117 1092.55,712.284 1095,707.5C 1095.67,704.5 1095.67,701.5 1095,698.5C 1091.4,691.243 1087.4,684.243 1083,677.5C 1081.68,674.594 1081.35,671.594 1082,668.5C 1084.99,665.509 1088.49,663.343 1092.5,662C 1105.84,658.666 1119.17,655.333 1132.5,652C 1138.07,649.806 1142.57,646.306 1146,641.5C 1149.26,634.241 1147.42,628.741 1140.5,625C 1137.91,623.803 1135.24,622.803 1132.5,622C 1123.87,620.914 1115.2,620.247 1106.5,620C 1083,615.501 1068.17,601.667 1062,578.5C 1059.69,548.908 1049.36,522.574 1031,499.5C 1016.19,479.72 999.02,462.22 979.5,447C 977.33,445.414 974.996,444.08 972.5,443C 971.365,442.251 970.365,442.417 969.5,443.5C 992.556,474.94 1010.39,509.273 1023,546.5C 1023.67,549.167 1023.67,551.833 1023,554.5C 1022.11,555.081 1021.11,555.415 1020,555.5C 1016.01,554.186 1012.51,552.019 1009.5,549C 995.875,534.931 985.375,518.765 978,500.5C 958.892,476.349 934.725,459.183 905.5,449C 896.101,445.6 886.434,444.266 876.5,445C 874.637,446.418 874.137,448.251 875,450.5C 878.251,454.422 882.084,457.588 886.5,460C 912.977,471.641 936.811,487.141 958,506.5C 960.287,509.072 961.453,512.072 961.5,515.5C 957.313,515.605 953.313,514.772 949.5,513C 941.94,509.637 934.44,506.137 927,502.5C 925.5,502.667 924.667,503.5 924.5,505C 925.739,508.815 927.739,512.148 930.5,515C 942.824,524.835 956.157,533.168 970.5,540C 984.556,549.366 997.89,559.699 1010.5,571C 1022.47,583.971 1034.8,596.638 1047.5,609C 1056.64,617.411 1066.98,624.078 1078.5,629C 1088.55,632.341 1098.55,635.675 1108.5,639C 1101.33,640.298 1094,640.965 1086.5,641C 1081.26,641.703 1076.76,643.87 1073,647.5C 1070.61,652.003 1068.61,656.669 1067,661.5C 1064.75,665.126 1061.58,666.293 1057.5,665C 1050.28,660.782 1044.78,654.948 1041,647.5C 1023.66,603.498 993.83,570.998 951.5,550C 946.167,546.333 940.833,542.667 935.5,539C 919.457,525.288 903.124,511.955 886.5,499C 880.784,494.804 874.451,492.304 867.5,491.5C 867.491,493.308 867.991,494.975 869,496.5C 880.094,510.929 892.594,524.096 906.5,536C 926.921,553.708 948.587,569.708 971.5,584C 985.788,595.452 997.621,608.952 1007,624.5C 1020.92,650.33 1038.25,673.663 1059,694.5C 1060.67,697.167 1062.33,699.833 1064,702.5C 1064.5,704.473 1064.66,706.473 1064.5,708.5C 1059.42,706.306 1054.08,704.639 1048.5,703.5C 1042.1,704.284 1036.94,707.284 1033,712.5C 1024.64,726.456 1020.81,741.622 1021.5,758C 1021.57,772.944 1024.07,787.444 1029,801.5C 1029.5,804.482 1029.66,807.482 1029.5,810.5C 1013.08,805.92 1001.92,795.586 996,779.5C 992.865,769.961 990.199,760.294 988,750.5C 983.917,722.834 979.917,695.167 976,667.5C 975.323,662.795 973.49,658.628 970.5,655C 969.167,654.333 967.833,654.333 966.5,655C 965.35,664.089 965.183,673.255 966,682.5C 969.266,720.149 971.932,757.816 974,795.5C 963.293,804.028 952.959,813.028 943,822.5C 936.971,829.438 934.971,837.438 937,846.5C 937.559,850.186 938.226,853.853 939,857.5C 943.667,870.167 948.333,882.833 953,895.5C 955.432,913.75 948.599,918.583 932.5,910C 905.464,886.555 896.298,857.389 905,822.5C 911.263,803.044 917.93,783.71 925,764.5C 935.927,727.174 937.26,689.507 929,651.5C 920.253,615.464 900.753,586.964 870.5,566C 861.771,560.814 852.438,557.314 842.5,555.5C 837.262,556.005 836.095,558.671 839,563.5C 841.5,566 844,568.5 846.5,571C 885.773,593.659 907.273,627.826 911,673.5C 912.163,695.392 910.496,717.059 906,738.5C 901.072,757.284 895.739,775.95 890,794.5C 881.399,823.501 879.232,853.001 883.5,883C 884.16,893.831 880.993,903.331 874,911.5C 783.637,997.529 695.637,1085.86 610,1176.5C 601.667,1186.17 593.333,1195.83 585,1205.5C 541.487,1273.54 511.487,1347.21 495,1426.5C 480.794,1500.65 484.128,1573.99 505,1646.5C 534.677,1736 592.51,1800.17 678.5,1839C 741.733,1866.21 807.733,1877.21 876.5,1872C 999.809,1861.1 1101.31,1808.94 1181,1715.5C 1203.94,1682.22 1227.28,1649.22 1251,1616.5C 1263.29,1601.87 1275.96,1587.54 1289,1573.5C 1291.33,1570.17 1293.67,1566.83 1296,1563.5C 1301.27,1554.4 1298.77,1550.57 1288.5,1552C 1283.64,1554.26 1279.31,1557.26 1275.5,1561C 1268.98,1567.89 1262.81,1575.05 1257,1582.5C 1228.94,1621.56 1201.28,1660.89 1174,1700.5C 1171.47,1703.89 1168.3,1706.22 1164.5,1707.5C 1164.33,1703.82 1164.5,1700.15 1165,1696.5C 1168.82,1680.87 1172.49,1665.2 1176,1649.5C 1179.44,1623.13 1179.1,1596.8 1175,1570.5C 1170.63,1538.32 1166.13,1506.15 1161.5,1474C 1161.83,1472.5 1162.17,1471 1162.5,1469.5C 1181.99,1489.92 1205.66,1503.08 1233.5,1509C 1247.08,1511.88 1260.75,1514.21 1274.5,1516C 1286.55,1519.11 1296.38,1525.61 1304,1535.5C 1324.98,1565.58 1353.81,1582.75 1390.5,1587C 1417.51,1586.94 1444.51,1586.61 1471.5,1586C 1476.75,1586.3 1481.42,1587.97 1485.5,1591C 1484.48,1593.03 1482.81,1594.36 1480.5,1595C 1469.21,1597.5 1457.88,1599.83 1446.5,1602C 1432.53,1607.32 1419.53,1614.32 1407.5,1623C 1380.9,1645.27 1352.9,1665.6 1323.5,1684C 1308.89,1691.8 1293.89,1698.8 1278.5,1705C 1255.09,1713.14 1231.76,1721.47 1208.5,1730C 1203.17,1732.67 1197.83,1735.33 1192.5,1738C 1188.62,1740.54 1188.62,1742.87 1192.5,1745C 1207.53,1745.33 1222.53,1744.66 1237.5,1743C 1280.56,1736.27 1323.9,1732.6 1367.5,1732C 1443.51,1725.33 1514.51,1702.99 1580.5,1665C 1593.54,1656.3 1605.7,1646.47 1617,1635.5C 1623.75,1628.01 1628.41,1619.35 1631,1609.5C 1631.67,1607.5 1631.67,1605.5 1631,1603.5C 1630.44,1602.98 1629.77,1602.64 1629,1602.5C 1625.26,1604.28 1621.76,1606.45 1618.5,1609C 1603.1,1626.4 1586.43,1642.4 1568.5,1657C 1539.04,1677.56 1506.71,1691.89 1471.5,1700C 1455.62,1703.64 1439.62,1706.64 1423.5,1709C 1390.76,1713.32 1357.92,1716.82 1325,1719.5C 1321.83,1719.33 1318.67,1719.17 1315.5,1719C 1312.97,1718.39 1312.13,1716.89 1313,1714.5C 1316.2,1710.96 1319.7,1707.8 1323.5,1705C 1359.02,1681.74 1394.02,1657.74 1428.5,1633C 1439.05,1626.06 1450.38,1620.73 1462.5,1617C 1492.83,1617.29 1523.16,1617.29 1553.5,1617C 1565.21,1616.48 1576.88,1615.48 1588.5,1614C 1589.83,1613.33 1591.17,1612.67 1592.5,1612C 1593.03,1608.1 1594.53,1604.6 1597,1601.5C 1609,1590.83 1620.33,1579.5 1631,1567.5C 1640.9,1552.93 1651.57,1538.93 1663,1525.5C 1670,1517.16 1678.16,1510.33 1687.5,1505C 1691.67,1503.83 1693.17,1505.33 1692,1509.5C 1688.67,1514.83 1685.33,1520.17 1682,1525.5C 1680.88,1543.63 1675.88,1560.63 1667,1576.5C 1646.14,1612.73 1619.97,1644.89 1588.5,1673C 1569.45,1691.7 1547.78,1706.7 1523.5,1718C 1502.19,1726.49 1480.19,1732.49 1457.5,1736C 1419.8,1741.87 1382.13,1747.87 1344.5,1754C 1308.24,1763.63 1273.91,1777.96 1241.5,1797C 1216.67,1812.25 1191.67,1827.25 1166.5,1842C 1151.45,1850.19 1136.11,1857.86 1120.5,1865C 1117.06,1867.14 1113.89,1869.64 1111,1872.5C 1109.83,1876.05 1109.16,1879.71 1109,1883.5C 1108.25,1884.13 1107.42,1884.63 1106.5,1885C 1095.16,1885.63 1083.82,1885.46 1072.5,1884.5C 1067.93,1884.22 1063.6,1885.05 1059.5,1887C 1057.59,1891.79 1059.25,1894.79 1064.5,1896C 1070.42,1897.2 1076.42,1897.86 1082.5,1898C 1087.49,1898.81 1089.32,1901.64 1088,1906.5C 1087.24,1909.2 1086.07,1911.7 1084.5,1914C 1083.17,1914.67 1081.83,1914.67 1080.5,1914C 1077.95,1908.39 1073.62,1905.89 1067.5,1906.5C 1057.36,1909.16 1047.03,1910.99 1036.5,1912C 1023.74,1912.04 1011.07,1912.7 998.5,1914C 1005.92,1915.75 1012.09,1919.58 1017,1925.5C 1020.49,1934.34 1018.33,1941.5 1010.5,1947C 991.053,1958.45 970.053,1963.45 947.5,1962C 942.392,1959.96 940.225,1956.13 941,1950.5C 938.215,1946.36 934.382,1944.86 929.5,1946C 926.833,1947.33 924.167,1948.67 921.5,1950C 914.809,1956.59 908.475,1963.42 902.5,1970.5C 901.359,1968.58 901.192,1966.58 902,1964.5C 904.394,1958.71 907.06,1953.05 910,1947.5C 911.318,1944.59 911.652,1941.59 911,1938.5C 906.469,1935.76 901.636,1933.6 896.5,1932C 892.812,1929.46 891.146,1925.96 891.5,1921.5C 894.403,1905.12 888.403,1900.62 873.5,1908C 870.325,1910.84 867.491,1914.01 865,1917.5C 864.333,1921.17 864.333,1924.83 865,1928.5C 868.565,1936.96 871.565,1945.63 874,1954.5C 874.667,1961.83 874.667,1969.17 874,1976.5C 873.557,1981.26 871.223,1984.59 867,1986.5C 865.395,1985.9 864.062,1984.9 863,1983.5C 859.515,1975.89 856.182,1968.22 853,1960.5C 844.109,1947.48 831.942,1940.31 816.5,1939C 814.167,1940.33 813.167,1942.33 813.5,1945C 814.118,1949.64 815.285,1954.14 817,1958.5C 821.991,1965.8 824.324,1973.8 824,1982.5C 821.592,1984.62 819.092,1984.46 816.5,1982C 806.202,1970.03 795.535,1958.37 784.5,1947C 778.268,1941.8 771.102,1938.97 763,1938.5C 750.386,1939.39 748.22,1944.56 756.5,1954C 763.099,1957.55 769.265,1961.71 775,1966.5C 779.095,1974.14 776.595,1978.31 767.5,1979C 750.081,1981.69 734.915,1977.19 722,1965.5C 717.396,1959.28 715.396,1952.28 716,1944.5C 714.191,1934.36 709.024,1926.53 700.5,1921C 693.891,1920.8 691.224,1924.14 692.5,1931C 693.328,1940.15 695.495,1948.98 699,1957.5C 699.944,1960.35 699.444,1962.85 697.5,1965C 694.167,1965.67 690.833,1965.67 687.5,1965C 677.334,1959.51 671.501,1951.01 670,1939.5C 661.252,1926.08 650.418,1914.58 637.5,1905C 634.364,1903.96 631.864,1904.79 630,1907.5C 628.09,1914.13 628.09,1920.79 630,1927.5C 632.589,1933.02 635.922,1938.02 640,1942.5C 640.944,1945.35 640.444,1947.85 638.5,1950C 629.353,1951.51 621.02,1949.51 613.5,1944C 605.399,1938.9 598.232,1932.73 592,1925.5C 588.402,1919.78 587.735,1913.78 590,1907.5C 593.721,1903.29 597.721,1899.29 602,1895.5C 605.98,1888.61 604.147,1883.78 596.5,1881C 585.178,1877.02 573.845,1876.68 562.5,1880C 559.209,1882.33 558.709,1885.17 561,1888.5C 564.256,1890.88 567.756,1892.88 571.5,1894.5C 572.724,1896.9 572.558,1899.23 571,1901.5C 565.688,1907.66 559.188,1909.16 551.5,1906C 538.751,1899.91 527.084,1892.24 516.5,1883C 470.287,1841.81 432.787,1793.98 404,1739.5C 401.382,1733.27 399.049,1726.93 397,1720.5C 397.06,1708.35 394.06,1697.02 388,1686.5C 377.498,1673.5 370.165,1658.83 366,1642.5C 358.509,1610.1 355.343,1577.27 356.5,1544C 356.18,1462.12 369.68,1382.62 397,1305.5C 414.851,1251.47 437.851,1199.8 466,1150.5C 484.384,1121.74 504.717,1094.41 527,1068.5C 546.138,1048.36 565.638,1028.53 585.5,1009C 627.792,971.195 670.459,933.862 713.5,897C 744.856,869.389 773.356,839.223 799,806.5C 833.811,758.295 843.145,705.628 827,648.5C 813.492,613.992 789.992,588.825 756.5,573C 742.904,568.179 728.904,565.512 714.5,565C 707.928,561.199 707.928,557.199 714.5,553C 716.956,551.289 719.623,549.956 722.5,549C 734.697,546.383 747.03,544.716 759.5,544C 780.781,537.725 796.281,524.559 806,504.5C 809.204,496.441 810.204,488.107 809,479.5C 807.92,477.004 806.586,474.67 805,472.5C 801.667,470.5 799,467.833 797,464.5C 796.489,462.122 795.822,459.788 795,457.5C 793.481,441.478 791.814,425.478 790,409.5C 781.478,382.144 762.978,370.978 734.5,376C 729.743,377.069 727.909,379.902 729,384.5C 731.027,386.772 733.194,388.939 735.5,391C 748.03,396.541 759.197,404.041 769,413.5C 771.669,425.179 774.503,436.845 777.5,448.5C 776.127,448.657 774.793,448.49 773.5,448C 767.07,444.451 760.404,441.451 753.5,439C 749.518,437.579 746.852,438.746 745.5,442.5C 746.779,447.059 748.612,451.392 751,455.5C 761.598,469.693 770.932,484.693 779,500.5C 782.059,507.603 780.559,513.437 774.5,518C 760.383,523.133 746.05,523.799 731.5,520C 727.833,517.667 724.167,515.333 720.5,513C 714.384,510.204 709.218,511.37 705,516.5C 703.184,521.025 701.85,525.691 701,530.5C 695.436,536.534 688.602,540.367 680.5,542C 664.312,545.24 647.979,546.24 631.5,545C 630.483,543.951 630.316,542.784 631,541.5C 638.567,533.263 646.733,525.763 655.5,519C 668.612,507.233 679.445,493.733 688,478.5C 700.171,452.204 697.171,427.871 679,405.5C 666.11,392.28 651.276,381.78 634.5,374C 604.921,361.938 574.255,353.938 542.5,350C 491.699,344.886 441.366,336.886 391.5,326C 384.329,324.08 377.662,321.08 371.5,317C 341.652,310.402 314.319,298.402 289.5,281C 282.04,275.874 275.54,269.707 270,262.5C 269.333,260.833 269.333,259.167 270,257.5C 273.049,255.036 276.549,253.536 280.5,253C 317.113,252.802 353.113,257.468 388.5,267C 421.517,277.671 454.851,287.338 488.5,296C 500.712,299.459 513.045,300.126 525.5,298C 523.999,296.748 522.332,295.748 520.5,295C 485.007,285.406 452.341,270.073 422.5,249C 419.909,246.643 418.242,243.809 417.5,240.5C 424.689,241.393 431.689,243.226 438.5,246C 458.492,255.162 478.825,263.496 499.5,271C 510.354,274.199 521.354,276.866 532.5,279C 538.501,281.016 543.334,284.516 547,289.5C 552.762,311.585 565.596,328.085 585.5,339C 620.27,356.631 655.603,357.964 691.5,343C 702.588,335.746 713.255,327.913 723.5,319.5C 734.067,328.903 745.067,337.736 756.5,346C 760.908,349.413 765.908,350.913 771.5,350.5C 771.71,345.584 770.21,341.251 767,337.5C 759.031,328.53 750.697,319.863 742,311.5C 737.647,306.294 734.481,300.46 732.5,294C 734.296,287.58 738.63,284.246 745.5,284C 771.075,280.843 795.408,284.843 818.5,296C 823.05,298.883 826.55,302.716 829,307.5C 829.153,315.173 829.153,322.84 829,330.5C 831.559,333.349 834.726,334.183 838.5,333C 848.438,330.617 856.938,325.783 864,318.5C 868.278,309.546 866.945,301.546 860,294.5C 850.457,285.98 839.624,279.48 827.5,275C 815.463,270.574 803.13,267.241 790.5,265C 767.35,262.693 744.35,259.36 721.5,255C 701.829,249.998 682.162,244.998 662.5,240C 655.833,239.333 649.167,239.333 642.5,240C 618.924,245.144 595.258,249.811 571.5,254C 551.486,255.86 531.486,255.86 511.5,254C 490.493,251.909 472.326,243.742 457,229.5C 448.147,216.505 447.147,202.838 454,188.5C 461.989,176.367 471.489,165.534 482.5,156C 513.486,132.209 548.152,115.875 586.5,107C 615.582,99.9644 644.915,95.7977 674.5,94.5 Z"/></g>
<g><path style="opacity:1" fill="#070707" d="M 505.5,159.5 C 506.833,159.5 508.167,159.5 509.5,159.5C 509.628,161.655 509.128,163.655 508,165.5C 499.829,175.198 490.995,184.364 481.5,193C 476.85,196.992 471.85,200.492 466.5,203.5C 465.522,203.023 464.689,202.357 464,201.5C 463.333,199.167 463.333,196.833 464,194.5C 465.901,189.698 468.568,185.364 472,181.5C 482.153,172.515 493.32,165.181 505.5,159.5 Z"/></g>
<g><path style="opacity:1" fill="#070707" d="M 894.5,163.5 C 899.599,163.175 904.599,163.675 909.5,165C 916.167,168.667 916.167,172.333 909.5,176C 902.135,177.948 895.968,176.115 891,170.5C 890.176,167.16 891.343,164.827 894.5,163.5 Z"/></g>
<g><path style="opacity:1" fill="#0a0a0a" d="M 932.5,173.5 C 939.956,175.478 946.456,179.144 952,184.5C 957.154,194.019 954.32,198.186 943.5,197C 936.36,192.576 932.36,186.076 931.5,177.5C 931.623,176.075 931.957,174.742 932.5,173.5 Z"/></g>
<g><path style="opacity:1" fill="#070707" d="M 501.5,184.5 C 503.199,184.34 504.866,184.506 506.5,185C 507.022,185.561 507.355,186.228 507.5,187C 505.112,195.774 500.446,203.107 493.5,209C 484.583,212.252 482.083,209.418 486,200.5C 490.026,193.975 495.193,188.642 501.5,184.5 Z"/></g>
<g><path style="opacity:1" fill="#e8e8e8" d="M 1112.5,197.5 C 1139.5,197.333 1166.5,197.5 1193.5,198C 1211.37,216.867 1228.87,236.034 1246,255.5C 1259.01,272.165 1270.01,290.165 1279,309.5C 1288.53,333.755 1297.86,358.088 1307,382.5C 1308.18,386.274 1307.35,389.441 1304.5,392C 1301.91,393.197 1299.24,394.197 1296.5,395C 1274.52,396.48 1252.86,394.48 1231.5,389C 1213.23,384.934 1195.23,379.934 1177.5,374C 1162.47,369.588 1150.97,360.755 1143,347.5C 1127.81,312.349 1107.81,280.349 1083,251.5C 1073,240.833 1063,230.167 1053,219.5C 1051.33,216.833 1049.67,214.167 1048,211.5C 1047.51,209.866 1047.34,208.199 1047.5,206.5C 1050.57,206.547 1053.57,207.047 1056.5,208C 1067.17,213.667 1077.83,219.333 1088.5,225C 1093.9,227.694 1099.57,228.694 1105.5,228C 1110.33,225.865 1110.66,223.199 1106.5,220C 1101.08,217.861 1095.75,215.528 1090.5,213C 1087.82,211.654 1085.82,209.654 1084.5,207C 1085.1,205.395 1086.1,204.062 1087.5,203C 1095.78,200.294 1104.11,198.46 1112.5,197.5 Z"/></g>
<g><path style="opacity:1" fill="#e4e4e4" d="M 635.5,252.5 C 639.509,252.014 641.342,253.68 641,257.5C 637.098,264.072 632.431,270.072 627,275.5C 620.147,289.703 619.813,304.036 626,318.5C 627.543,320.378 629.376,321.878 631.5,323C 647.494,329.361 663.161,328.694 678.5,321C 687.319,315.538 692.819,307.705 695,297.5C 695.242,291.116 695.908,284.782 697,278.5C 703.438,272.537 708.438,273.87 712,282.5C 710.626,308.537 698.126,327.037 674.5,338C 651.31,341.286 630.31,335.952 611.5,322C 598.965,310.058 593.798,295.558 596,278.5C 600.057,272.722 605.223,268.222 611.5,265C 619.205,260.094 627.205,255.928 635.5,252.5 Z"/></g>
<g><path style="opacity:1" fill="#050505" d="M 1030.5,254.5 C 1033.42,254.46 1036.09,255.293 1038.5,257C 1041.33,259.833 1044.17,262.667 1047,265.5C 1051.77,272.269 1051.6,278.769 1046.5,285C 1038.33,287.831 1031.83,285.665 1027,278.5C 1024.14,269.817 1025.3,261.817 1030.5,254.5 Z"/></g>
<g><path style="opacity:1" fill="#040404" d="M 1202.5,258.5 C 1209.97,259.401 1216.64,262.234 1222.5,267C 1235.67,277.5 1247.5,289.333 1258,302.5C 1262.45,309.058 1266.11,316.058 1269,323.5C 1270.01,331 1269.34,338.333 1267,345.5C 1264.84,351.008 1261.84,351.675 1258,347.5C 1255.33,340.167 1252.67,332.833 1250,325.5C 1246.25,318.998 1242.25,312.665 1238,306.5C 1226.43,293.687 1215.1,280.687 1204,267.5C 1201.42,264.834 1200.92,261.834 1202.5,258.5 Z"/></g>
<g><path style="opacity:1" fill="#070707" d="M 894.5,303.5 C 902.523,303.683 906.023,307.683 905,315.5C 899.973,324.863 893.14,332.697 884.5,339C 883.5,339.667 882.5,339.667 881.5,339C 878.162,324.205 882.495,312.372 894.5,303.5 Z"/></g>
<g><path style="opacity:1" fill="#060606" d="M 908.5,327.5 C 917.876,329.008 927.209,330.842 936.5,333C 940.833,333.333 945.167,333.667 949.5,334C 953.317,337.078 953.317,340.412 949.5,344C 930.953,350.729 917.287,345.229 908.5,327.5 Z"/></g>
<g><path style="opacity:1" fill="#050505" d="M 955.5,352.5 C 965.789,350.367 969.955,354.367 968,364.5C 959.955,371.63 950.788,373.797 940.5,371C 938.993,367.543 939.493,364.376 942,361.5C 946.136,357.856 950.636,354.856 955.5,352.5 Z"/></g>
<g><path style="opacity:1" fill="#e4e4e4" d="M 590.5,368.5 C 603.982,369.718 616.315,374.218 627.5,382C 648.119,393.615 662.619,410.449 671,432.5C 676.079,453.437 672.079,472.437 659,489.5C 637.655,512.429 611.488,526.929 580.5,533C 518.999,541.35 458.666,536.017 399.5,517C 392.725,514.534 386.892,510.7 382,505.5C 381.289,503.633 381.789,502.133 383.5,501C 416.386,496.843 447.386,502.843 476.5,519C 527.232,527.99 575.565,520.657 621.5,497C 651.469,478.658 659.636,453.158 646,420.5C 640.548,409.455 633.048,399.955 623.5,392C 614.099,385.604 604.432,379.604 594.5,374C 592.536,372.549 591.203,370.716 590.5,368.5 Z"/></g>
<g><path style="opacity:1" fill="#e8e8e8" d="M 1183.5,396.5 C 1207.97,396.489 1230.97,402.323 1252.5,414C 1261.1,419.269 1267.6,426.436 1272,435.5C 1282.17,456.681 1291.17,478.347 1299,500.5C 1305.67,515.167 1312.33,529.833 1319,544.5C 1320.27,548.395 1320.77,552.395 1320.5,556.5C 1315.4,556.457 1310.74,554.957 1306.5,552C 1290.19,539.51 1273.52,527.51 1256.5,516C 1250.72,512.102 1244.38,509.935 1237.5,509.5C 1237.26,512.794 1238.09,515.794 1240,518.5C 1242.42,522.344 1245.09,526.01 1248,529.5C 1264.36,546.196 1281.03,562.529 1298,578.5C 1297.2,613.634 1294.53,648.634 1290,683.5C 1288.54,696.073 1284.54,707.739 1278,718.5C 1269.91,726.391 1264.91,724.724 1263,713.5C 1263.28,697.572 1258.11,683.739 1247.5,672C 1240.03,667.245 1236.53,669.079 1237,677.5C 1240.31,688.447 1244.97,698.78 1251,708.5C 1260.65,726.627 1261.99,745.294 1255,764.5C 1241.49,789.36 1232.16,815.693 1227,843.5C 1225.2,849.231 1223.2,854.898 1221,860.5C 1218.77,865.766 1214.94,867.933 1209.5,867C 1204.87,861.241 1201.7,854.741 1200,847.5C 1198.06,838.891 1196.39,830.225 1195,821.5C 1194.07,817.363 1192.73,813.363 1191,809.5C 1188.27,804.493 1184.93,804.16 1181,808.5C 1179.72,810.717 1178.72,813.051 1178,815.5C 1176.83,826.699 1177.83,837.699 1181,848.5C 1184.24,856.311 1186.91,864.311 1189,872.5C 1190.38,884.588 1188.05,895.921 1182,906.5C 1173.15,920.355 1163.15,933.355 1152,945.5C 1141.72,958.716 1134.06,973.383 1129,989.5C 1126.63,1001.65 1123.63,1013.65 1120,1025.5C 1116.74,1036.56 1109.91,1044.39 1099.5,1049C 1094.51,1049.25 1089.51,1049.09 1084.5,1048.5C 1075.35,1049.4 1067.02,1052.57 1059.5,1058C 1041.55,1071.23 1025.38,1086.4 1011,1103.5C 1001.82,1119.18 993.158,1135.18 985,1151.5C 982.346,1156.63 978.846,1161.13 974.5,1165C 973.216,1165.68 972.049,1165.52 971,1164.5C 970.333,1160.83 970.333,1157.17 971,1153.5C 973.719,1140.34 977.053,1127.34 981,1114.5C 982.329,1108.17 979.829,1105.33 973.5,1106C 972.333,1107.17 971.167,1108.33 970,1109.5C 970.212,1114.96 967.712,1117.13 962.5,1116C 956.333,1112.17 955.167,1113.33 959,1119.5C 959.961,1126.34 959.295,1133 957,1139.5C 953.4,1146.76 949.4,1153.76 945,1160.5C 930.241,1179.93 913.408,1197.43 894.5,1213C 876.818,1229.01 860.985,1246.51 847,1265.5C 843.419,1272.49 840.752,1279.82 839,1287.5C 835.474,1298.08 828.641,1305.58 818.5,1310C 806.708,1312.37 795.708,1316.71 785.5,1323C 759.116,1342.38 737.283,1365.88 720,1393.5C 709.861,1413.28 698.527,1432.28 686,1450.5C 672.962,1464.54 660.295,1478.87 648,1493.5C 626.937,1525.01 613.937,1559.68 609,1597.5C 607.004,1603.49 605.004,1609.49 603,1615.5C 601.987,1617.85 600.321,1619.51 598,1620.5C 597.055,1620.09 596.388,1619.43 596,1618.5C 591.832,1594.23 593.165,1570.23 600,1546.5C 608.237,1519.36 619.237,1493.36 633,1468.5C 659.494,1423.01 689.494,1380.01 723,1339.5C 759.855,1295.97 798.188,1253.64 838,1212.5C 887.696,1164.47 936.362,1115.47 984,1065.5C 1000.8,1047.04 1016.47,1027.7 1031,1007.5C 1036.27,997.903 1041.94,988.57 1048,979.5C 1084.23,928.881 1116.9,875.881 1146,820.5C 1177.6,753.769 1194.93,683.436 1198,609.5C 1200.33,572.842 1200.67,536.175 1199,499.5C 1193.7,466.983 1186.2,434.983 1176.5,403.5C 1177.34,399.597 1179.67,397.263 1183.5,396.5 Z"/></g>
<g><path style="opacity:1" fill="#e6e6e6" d="M 413.5,402.5 C 429.624,403.015 445.624,404.849 461.5,408C 490.552,414.905 519.218,423.238 547.5,433C 578.024,441.953 609.024,448.453 640.5,452.5C 633.744,462.757 626.411,472.59 618.5,482C 606.946,492.055 594.613,493.055 581.5,485C 555.722,465.272 527.389,449.939 496.5,439C 471.048,430.972 445.715,422.638 420.5,414C 416.581,412.46 413.081,410.293 410,407.5C 409.251,406.365 409.417,405.365 410.5,404.5C 411.739,404.058 412.739,403.391 413.5,402.5 Z"/></g>
<g><path style="opacity:0.027" fill="#afafaf" d="M 587.5,422.5 C 588.289,422.783 588.956,423.283 589.5,424C 587.934,424.765 586.601,424.598 585.5,423.5C 586.492,423.672 587.158,423.338 587.5,422.5 Z"/></g>
<g><path style="opacity:1" fill="#040404" d="M 811.5,583.5 C 818.036,582.845 824.036,584.345 829.5,588C 831.774,590.344 832.941,593.178 833,596.5C 838.89,601.863 845.39,606.363 852.5,610C 860.646,613.267 868.48,617.1 876,621.5C 876.483,622.448 876.649,623.448 876.5,624.5C 870.542,624.925 864.876,626.425 859.5,629C 857.876,630.117 856.876,631.617 856.5,633.5C 857.932,636.327 858.599,639.327 858.5,642.5C 851.722,641.947 845.722,639.447 840.5,635C 837,631.5 833.5,628 830,624.5C 822.365,612.201 812.699,601.867 801,593.5C 800.731,590.72 801.898,588.554 804.5,587C 806.925,585.787 809.259,584.621 811.5,583.5 Z"/></g>
<g><path style="opacity:1" fill="#050505" d="M 865.5,696.5 C 867.792,696.244 869.959,696.577 872,697.5C 874.093,707.45 871.926,716.283 865.5,724C 860.386,727.61 855.72,727.11 851.5,722.5C 850.48,720.568 850.313,718.568 851,716.5C 854.643,708.843 859.477,702.176 865.5,696.5 Z"/></g>
<g><path style="opacity:1" fill="#070707" d="M 844.5,740.5 C 853.144,739.324 860.31,741.991 866,748.5C 866.667,749.833 866.667,751.167 866,752.5C 858.741,758.092 850.908,758.926 842.5,755C 839.136,751.974 838.636,748.474 841,744.5C 842.376,743.295 843.542,741.962 844.5,740.5 Z"/></g>
<g><path style="opacity:1" fill="#060606" d="M 826.5,784.5 C 832.816,783.576 837.983,785.576 842,790.5C 842.523,796.617 840.023,801.117 834.5,804C 820.247,812.766 815.414,808.932 820,792.5C 821.305,789.039 823.471,786.372 826.5,784.5 Z"/></g>
<g><path style="opacity:1" fill="#070707" d="M 810.5,818.5 C 813.808,817.974 815.974,819.307 817,822.5C 818.308,832.364 814.141,838.864 804.5,842C 799.338,844.129 794.005,844.796 788.5,844C 783.262,840.863 783.262,837.529 788.5,834C 792.833,833 797.167,832 801.5,831C 804.688,829.066 806.188,826.232 806,822.5C 807.397,820.93 808.897,819.596 810.5,818.5 Z"/></g>
<g><path style="opacity:1" fill="#0c0c0c" d="M 763.5,866.5 C 768.606,865.925 773.106,867.259 777,870.5C 777.494,876.353 774.66,879.519 768.5,880C 763.97,880.947 759.636,880.447 755.5,878.5C 753.876,877.131 753.376,875.464 754,873.5C 756.79,870.535 759.957,868.202 763.5,866.5 Z"/></g>
<g><path style="opacity:1" fill="#0b0b0b" d="M 729.5,900.5 C 733.747,900.178 737.747,901.011 741.5,903C 744.405,906.374 744.072,909.374 740.5,912C 733.762,915.126 727.095,915.126 720.5,912C 719.446,910.612 719.28,909.112 720,907.5C 722.79,904.535 725.957,902.202 729.5,900.5 Z"/></g>
<g><path style="opacity:1" fill="#030303" d="M 1105.5,930.5 C 1106.5,930.414 1107.33,930.748 1108,931.5C 1108.69,950.542 1108.02,969.542 1106,988.5C 1105.26,998.329 1103.6,1008 1101,1017.5C 1099.49,1021.67 1097.16,1022.34 1094,1019.5C 1089.03,995.706 1089.69,972.039 1096,948.5C 1098.4,942.03 1101.57,936.03 1105.5,930.5 Z"/></g>
<g><path style="opacity:1" fill="#050505" d="M 994.5,953.5 C 1005.16,951.658 1009.66,955.991 1008,966.5C 1002.77,973.945 995.603,976.778 986.5,975C 983.125,973.971 981.958,971.804 983,968.5C 985.896,962.671 989.729,957.671 994.5,953.5 Z"/></g>
<g><path style="opacity:1" fill="#050505" d="M 967.5,996.5 C 970.85,996.335 974.183,996.502 977.5,997C 982.626,999.553 983.793,1003.39 981,1008.5C 976.382,1014.05 970.549,1015.89 963.5,1014C 958.465,1010.99 957.298,1006.82 960,1001.5C 962.479,999.686 964.979,998.019 967.5,996.5 Z"/></g>
<g><path style="opacity:1" fill="#050505" d="M 917.5,1044.5 C 920.85,1044.33 924.183,1044.5 927.5,1045C 933.469,1047.1 935.636,1051.27 934,1057.5C 932.132,1061.52 928.965,1063.69 924.5,1064C 918.074,1065.65 912.574,1064.15 908,1059.5C 907.294,1057.03 907.627,1054.7 909,1052.5C 911.579,1049.48 914.413,1046.81 917.5,1044.5 Z"/></g>
<g><path style="opacity:0.776" fill="#7c7c7c" d="M 492.5,1059.5 C 490.1,1062.9 487.1,1065.57 483.5,1067.5C 485.9,1064.1 488.9,1061.43 492.5,1059.5 Z"/></g>
<g><path style="opacity:1" fill="#030303" d="M 880.5,1085.5 C 887.896,1085.2 895.229,1085.7 902.5,1087C 906.426,1087.58 907.926,1089.75 907,1093.5C 903.469,1097.69 898.969,1100.53 893.5,1102C 887.558,1103.41 881.558,1103.74 875.5,1103C 869.509,1100.02 868.176,1095.69 871.5,1090C 874.592,1088.45 877.592,1086.95 880.5,1085.5 Z"/></g>
<g><path style="opacity:1" fill="#e8e8e8" d="M 455.5,1092.5 C 460.695,1092.18 465.695,1092.51 470.5,1093.5C 455.929,1118.3 441.096,1142.97 426,1167.5C 407.122,1196.04 383.289,1219.54 354.5,1238C 350.112,1240.86 345.446,1243.19 340.5,1245C 336.814,1245.81 333.314,1245.31 330,1243.5C 329.5,1243.83 329,1244.17 328.5,1244.5C 332.909,1250.03 332.242,1254.87 326.5,1259C 320.077,1260.6 315.744,1264.43 313.5,1270.5C 313.864,1273.03 315.197,1274.87 317.5,1276C 321.045,1276.57 324.378,1275.9 327.5,1274C 347.652,1262.18 366.985,1249.18 385.5,1235C 387.833,1233.83 390.167,1232.67 392.5,1231.5C 393.881,1232 394.547,1233 394.5,1234.5C 388.5,1257.67 379.666,1279.67 368,1300.5C 364.44,1306.45 360.274,1311.95 355.5,1317C 349.372,1319.56 343.705,1322.9 338.5,1327C 319.367,1346.26 307.033,1369.26 301.5,1396C 301.704,1399.28 302.704,1402.28 304.5,1405C 306.833,1405.67 309.167,1405.67 311.5,1405C 313.333,1403.17 315.167,1401.33 317,1399.5C 323.419,1383.91 330.419,1368.58 338,1353.5C 341.423,1347.17 345.923,1341.67 351.5,1337C 352.449,1336.38 353.282,1336.55 354,1337.5C 352.815,1375.45 346.148,1412.45 334,1448.5C 332.274,1452.95 330.274,1457.29 328,1461.5C 318.045,1471.07 313.379,1482.74 314,1496.5C 315.848,1501.42 319.014,1502.58 323.5,1500C 326.776,1493.25 328.276,1486.09 328,1478.5C 330,1475.83 332,1475.83 334,1478.5C 334.988,1481.42 335.654,1484.42 336,1487.5C 341.902,1540.04 343.568,1592.71 341,1645.5C 339.666,1649.1 337.166,1650.27 333.5,1649C 327.511,1643.35 322.677,1636.85 319,1629.5C 302.325,1596.13 295.658,1560.79 299,1523.5C 298.133,1516.16 296.133,1509.16 293,1502.5C 291.127,1500.29 288.96,1498.46 286.5,1497C 277.225,1495.2 267.892,1493.87 258.5,1493C 254.969,1491.47 252.969,1488.8 252.5,1485C 254.078,1479.68 256.578,1474.84 260,1470.5C 270.696,1459.47 281.696,1448.8 293,1438.5C 295.612,1435.61 297.445,1432.28 298.5,1428.5C 298.471,1426.97 297.804,1425.8 296.5,1425C 264.686,1431.52 250.853,1418.69 255,1386.5C 259.199,1366.77 267.199,1348.77 279,1332.5C 285.667,1324.5 292.333,1316.5 299,1308.5C 302.224,1304.72 304.39,1300.39 305.5,1295.5C 305.471,1293.97 304.804,1292.8 303.5,1292C 301.5,1291.33 299.5,1290.67 297.5,1290C 290.421,1289.89 283.421,1289.22 276.5,1288C 267.785,1284.1 266.285,1278.27 272,1270.5C 289.408,1253.77 303.741,1234.77 315,1213.5C 319.074,1204.21 320.741,1194.55 320,1184.5C 318.303,1178.1 315.303,1172.44 311,1167.5C 303.612,1162.13 298.612,1155.13 296,1146.5C 296.035,1135.42 300.868,1126.92 310.5,1121C 330.418,1109.69 351.752,1102.36 374.5,1099C 401.298,1094.38 428.298,1092.21 455.5,1092.5 Z"/></g>
<g><path style="opacity:1" fill="#6c6c6c" d="M 455.5,1092.5 C 460.68,1091.19 466.014,1091.19 471.5,1092.5C 471.376,1093.11 471.043,1093.44 470.5,1093.5C 465.695,1092.51 460.695,1092.18 455.5,1092.5 Z"/></g>
<g><path style="opacity:1" fill="#040404" d="M 804.5,1092.5 C 817.694,1092.39 821.361,1098.23 815.5,1110C 804.289,1114.46 798.789,1110.63 799,1098.5C 800.36,1095.98 802.193,1093.98 804.5,1092.5 Z"/></g>
<g><path style="opacity:1" fill="#030303" d="M 525.5,1094.5 C 535.038,1096.22 538.538,1101.89 536,1111.5C 529.753,1118.53 524.753,1117.53 521,1108.5C 519.454,1102.79 520.954,1098.13 525.5,1094.5 Z"/></g>
<g><path style="opacity:1" fill="#050505" d="M 840.5,1126.5 C 847.91,1125.04 854.077,1127.04 859,1132.5C 860.624,1139.74 857.79,1144.24 850.5,1146C 842.734,1147.69 836.901,1145.19 833,1138.5C 832.333,1136.83 832.333,1135.17 833,1133.5C 834.742,1130.25 837.242,1127.92 840.5,1126.5 Z"/></g>
<g><path style="opacity:1" fill="#e7e7e7" d="M 1117.5,1150.5 C 1124.32,1151.48 1128.49,1155.48 1130,1162.5C 1130.39,1169.95 1128.72,1176.95 1125,1183.5C 1080.81,1244.89 1059.48,1313.56 1061,1389.5C 1062.13,1402.72 1065.96,1415.05 1072.5,1426.5C 1073.33,1427.41 1074.33,1428.08 1075.5,1428.5C 1077.15,1427.22 1078.31,1425.55 1079,1423.5C 1080.74,1414.57 1082.08,1405.57 1083,1396.5C 1080.09,1350.91 1085.09,1306.24 1098,1262.5C 1103.7,1242.57 1113.87,1225.41 1128.5,1211C 1129.45,1210.52 1130.45,1210.35 1131.5,1210.5C 1128.16,1227.03 1123.99,1243.37 1119,1259.5C 1115.19,1280.7 1117.19,1301.36 1125,1321.5C 1126.96,1326.59 1129.79,1331.09 1133.5,1335C 1136.57,1336.85 1139.9,1337.85 1143.5,1338C 1146.1,1338.88 1148.27,1340.38 1150,1342.5C 1155.57,1352.95 1156.9,1363.95 1154,1375.5C 1148.85,1388.47 1144.85,1401.8 1142,1415.5C 1139.81,1440.22 1140.48,1464.89 1144,1489.5C 1149.7,1518.01 1154.37,1546.68 1158,1575.5C 1160.23,1602.87 1159.9,1630.2 1157,1657.5C 1148.82,1712.39 1121.98,1755.55 1076.5,1787C 977.819,1851.63 871.152,1869.29 756.5,1840C 690.323,1823.18 633.157,1791.01 585,1743.5C 559.182,1715.62 539.849,1683.62 527,1647.5C 526.242,1645.23 526.409,1643.06 527.5,1641C 546.21,1641.68 559.71,1650.52 568,1667.5C 568.758,1671.33 567.758,1674.66 565,1677.5C 564.371,1682.33 565.038,1686.99 567,1691.5C 578.59,1712.47 593.424,1730.97 611.5,1747C 646.703,1780.29 687.37,1804.95 733.5,1821C 781.551,1838.84 831.217,1846.84 882.5,1845C 940.266,1841.92 991.933,1822.92 1037.5,1788C 1090.71,1741.7 1114.21,1683.2 1108,1612.5C 1105.36,1590.29 1100.36,1568.62 1093,1547.5C 1078.04,1515.28 1065.04,1482.28 1054,1448.5C 1034.59,1388.28 1037.59,1329.28 1063,1271.5C 1077.37,1244.48 1091.7,1217.48 1106,1190.5C 1110.87,1179.69 1113.54,1168.36 1114,1156.5C 1114.93,1154.31 1116.09,1152.31 1117.5,1150.5 Z"/></g>
<g><path style="opacity:1" fill="#060606" d="M 477.5,1156.5 C 489.936,1157.39 491.603,1162.22 482.5,1171C 472.077,1174.03 469.244,1170.53 474,1160.5C 475.376,1159.29 476.542,1157.96 477.5,1156.5 Z"/></g>
<g><path style="opacity:1" fill="#060606" d="M 797.5,1164.5 C 805.371,1163.18 812.205,1165.18 818,1170.5C 818.667,1172.5 818.667,1174.5 818,1176.5C 811.273,1184 803.607,1185.33 795,1180.5C 791.182,1174.41 792.015,1169.08 797.5,1164.5 Z"/></g>
<g><path style="opacity:1" fill="#0c0c0c" d="M 723.5,1173.5 C 728.242,1173.14 732.408,1174.47 736,1177.5C 737.379,1181.48 736.213,1184.31 732.5,1186C 727.643,1188.21 722.976,1187.88 718.5,1185C 716.813,1183.09 716.313,1180.92 717,1178.5C 718.965,1176.45 721.132,1174.78 723.5,1173.5 Z"/></g>
<g><path style="opacity:1" fill="#050505" d="M 759.5,1201.5 C 766.876,1201.27 774.209,1201.61 781.5,1202.5C 780.033,1210.15 775.7,1215.65 768.5,1219C 758.673,1224.39 752.673,1221.73 750.5,1211C 750.625,1209.37 751.125,1207.87 752,1206.5C 754.479,1204.69 756.979,1203.02 759.5,1201.5 Z"/></g>
<g><path style="opacity:1" fill="#0c0c0c" d="M 682.5,1214.5 C 687.242,1214.14 691.408,1215.47 695,1218.5C 695.892,1225.36 692.725,1228.69 685.5,1228.5C 682.403,1228.62 679.736,1227.62 677.5,1225.5C 675.744,1223.81 675.244,1221.81 676,1219.5C 677.965,1217.45 680.132,1215.78 682.5,1214.5 Z"/></g>
<g><path style="opacity:1" fill="#050505" d="M 719.5,1235.5 C 727.883,1234.61 734.383,1237.61 739,1244.5C 741.237,1256.6 736.071,1262.1 723.5,1261C 715.376,1256.58 712.21,1249.75 714,1240.5C 715.73,1238.6 717.563,1236.93 719.5,1235.5 Z"/></g>
<g><path style="opacity:1" fill="#050505" d="M 828.5,1237.5 C 829.765,1238.51 830.431,1240.01 830.5,1242C 827.467,1260.43 821.634,1277.93 813,1294.5C 811,1297.17 809,1297.17 807,1294.5C 804.645,1271.88 811.812,1252.88 828.5,1237.5 Z"/></g>
<g><path style="opacity:1" fill="#080808" d="M 640.5,1269.5 C 643.518,1269.34 646.518,1269.5 649.5,1270C 653.213,1271.69 654.379,1274.52 653,1278.5C 648.05,1284.78 642.717,1285.11 637,1279.5C 634.487,1274.89 635.654,1271.55 640.5,1269.5 Z"/></g>
<g><path style="opacity:1" fill="#0e0e0e" d="M 434.5,1276.5 C 440.675,1276.79 443.675,1280.13 443.5,1286.5C 443.405,1295.11 439.571,1297.78 432,1294.5C 428.05,1287.65 428.884,1281.65 434.5,1276.5 Z"/></g>
<g><path style="opacity:1" fill="#050505" d="M 684.5,1284.5 C 688.182,1284.33 691.848,1284.5 695.5,1285C 701.069,1289.74 700.736,1294.07 694.5,1298C 685.62,1302.26 676.287,1303.92 666.5,1303C 661.231,1299.18 661.231,1295.18 666.5,1291C 672.391,1288.21 678.391,1286.04 684.5,1284.5 Z"/></g>
<g><path style="opacity:1" fill="#070707" d="M 421.5,1324.5 C 425.637,1324.15 429.637,1324.65 433.5,1326C 435.948,1329.14 435.781,1332.31 433,1335.5C 425.348,1340.59 420.181,1338.76 417.5,1330C 417.901,1327.44 419.234,1325.61 421.5,1324.5 Z"/></g>
<g><path style="opacity:1" fill="#0c0c0c" d="M 596.5,1325.5 C 602.998,1325.09 606.998,1328.09 608.5,1334.5C 607.167,1339.17 604.167,1342.17 599.5,1343.5C 596.896,1342.73 595.062,1341.06 594,1338.5C 592.842,1333.69 593.676,1329.36 596.5,1325.5 Z"/></g>
<g><path style="opacity:1" fill="#040404" d="M 641.5,1326.5 C 653.003,1326.69 664.336,1328.19 675.5,1331C 675.957,1331.41 676.291,1331.91 676.5,1332.5C 668.245,1343.59 657.245,1349.76 643.5,1351C 635.138,1347.25 632.638,1341.09 636,1332.5C 637.36,1329.98 639.193,1327.98 641.5,1326.5 Z"/></g>
<g><path style="opacity:1" fill="#060606" d="M 409.5,1353.5 C 419.45,1355.27 422.95,1360.94 420,1370.5C 408.241,1381.71 402.907,1379.37 404,1363.5C 405.07,1359.69 406.903,1356.36 409.5,1353.5 Z"/></g>
<g><path style="opacity:1" fill="#060606" d="M 574.5,1382.5 C 578.182,1382.33 581.848,1382.5 585.5,1383C 586.464,1385.65 585.964,1388.15 584,1390.5C 580.167,1395.67 575.667,1400.17 570.5,1404C 563.839,1407.46 560.172,1405.62 559.5,1398.5C 561.089,1389.91 566.089,1384.58 574.5,1382.5 Z"/></g>
<g><path style="opacity:1" fill="#070707" d="M 603.5,1385.5 C 610.431,1384.96 617.098,1385.96 623.5,1388.5C 624.94,1391.23 624.274,1393.39 621.5,1395C 614.513,1398.26 607.18,1399.26 599.5,1398C 595.23,1397.09 593.396,1394.59 594,1390.5C 596.907,1388.13 600.074,1386.47 603.5,1385.5 Z"/></g>
<g><path style="opacity:1" fill="#080808" d="M 402.5,1399.5 C 405.978,1399.18 409.312,1399.68 412.5,1401C 415.486,1406.4 414.486,1411.06 409.5,1415C 401.56,1421.08 396.893,1419.25 395.5,1409.5C 396.288,1405.05 398.621,1401.72 402.5,1399.5 Z"/></g>
<g><path style="opacity:1" fill="#070707" d="M 592.5,1439.5 C 594.527,1439.34 596.527,1439.5 598.5,1440C 599.67,1446.36 597.67,1451.69 592.5,1456C 584.25,1463.3 574.75,1466.8 564,1466.5C 564.15,1461.71 566.317,1457.88 570.5,1455C 577.374,1449.07 584.708,1443.91 592.5,1439.5 Z"/></g>
<g><path style="opacity:1" fill="#050505" d="M 391.5,1447.5 C 398.912,1446.41 402.246,1449.58 401.5,1457C 402.18,1464.5 399.013,1469.33 392,1471.5C 390.105,1471.39 388.438,1470.72 387,1469.5C 381.35,1460.69 382.85,1453.36 391.5,1447.5 Z"/></g>
<g><path style="opacity:1" fill="#080808" d="M 420.5,1481.5 C 433.342,1479.83 438.009,1484.99 434.5,1497C 427.795,1498.73 422.295,1496.9 418,1491.5C 415.489,1487.2 416.322,1483.87 420.5,1481.5 Z"/></g>
<g><path style="opacity:1" fill="#050505" d="M 523.5,1481.5 C 527.637,1481.15 531.637,1481.65 535.5,1483C 540.077,1488.1 539.077,1491.77 532.5,1494C 525.557,1496.26 520.89,1494.09 518.5,1487.5C 519.465,1484.87 521.132,1482.87 523.5,1481.5 Z"/></g>
<g><path style="opacity:1" fill="#050505" d="M 562.5,1481.5 C 571.857,1481.76 579.023,1485.76 584,1493.5C 584.751,1498.57 584.418,1503.57 583,1508.5C 579.431,1515.68 574.265,1517.18 567.5,1513C 559.322,1507.19 555.155,1499.36 555,1489.5C 557.028,1486.31 559.528,1483.64 562.5,1481.5 Z"/></g>
<g><path style="opacity:1" fill="#040404" d="M 398.5,1495.5 C 406.98,1495.99 414.147,1499.32 420,1505.5C 420.62,1512.23 417.62,1516.56 411,1518.5C 403.706,1521.16 396.206,1522 388.5,1521C 382.891,1517.72 381.058,1512.89 383,1506.5C 384.122,1504.38 385.622,1502.54 387.5,1501C 391.259,1499.12 394.925,1497.29 398.5,1495.5 Z"/></g>
<g><path style="opacity:1" fill="#040404" d="M 422.5,1538.5 C 429.567,1538.9 433.901,1542.57 435.5,1549.5C 435.61,1551.37 434.944,1552.87 433.5,1554C 423.116,1555.95 418.616,1551.78 420,1541.5C 421.045,1540.63 421.878,1539.63 422.5,1538.5 Z"/></g>
<g><path style="opacity:1" fill="#040404" d="M 387.5,1566.5 C 393.386,1566.44 398.386,1568.61 402.5,1573C 409.507,1575.93 416.841,1577.27 424.5,1577C 426.158,1577.73 426.658,1578.89 426,1580.5C 420.049,1589.5 411.882,1594.67 401.5,1596C 391.249,1588.67 386.583,1578.84 387.5,1566.5 Z"/></g>
<g><path style="opacity:1" fill="#030303" d="M 390.5,1618.5 C 393.776,1620.95 396.61,1623.95 399,1627.5C 406.038,1637.27 415.538,1641.44 427.5,1640C 428,1640.5 428.5,1641 429,1641.5C 427.946,1650.59 424.113,1658.43 417.5,1665C 408.368,1669.57 401.202,1667.4 396,1658.5C 389.628,1645.8 387.795,1632.47 390.5,1618.5 Z"/></g>
<g><path style="opacity:1" fill="#030303" d="M 420.5,1694.5 C 431.699,1698.51 442.699,1703.01 453.5,1708C 457.317,1711.62 457.483,1715.45 454,1719.5C 447.68,1728.41 439.18,1731.91 428.5,1730C 422.656,1726.84 418.823,1722 417,1715.5C 416.333,1710.17 416.333,1704.83 417,1699.5C 417.697,1697.42 418.864,1695.75 420.5,1694.5 Z"/></g>
<g><path style="opacity:1" fill="#050505" d="M 482.5,1713.5 C 486.605,1713.23 490.605,1713.73 494.5,1715C 497.56,1720.26 496.227,1724.26 490.5,1727C 483.888,1728.36 479.888,1725.69 478.5,1719C 479.296,1716.71 480.629,1714.88 482.5,1713.5 Z"/></g>
<g><path style="opacity:1" fill="#040404" d="M 446.5,1754.5 C 457.535,1755.43 468.201,1757.93 478.5,1762C 482.557,1763.95 484.057,1767.11 483,1771.5C 475.342,1778.09 466.509,1780.26 456.5,1778C 444.239,1773.68 440.905,1765.84 446.5,1754.5 Z"/></g>
<g><path style="opacity:1" fill="#090909" d="M 533.5,1777.5 C 545.157,1779.29 546.49,1784.12 537.5,1792C 531.573,1796.28 527.907,1794.95 526.5,1788C 527.056,1783.28 529.389,1779.78 533.5,1777.5 Z"/></g>
<g><path style="opacity:1" fill="#0a0a0a" d="M 1153.5,1804.5 C 1162.85,1804.68 1167.02,1809.35 1166,1818.5C 1159.3,1824.12 1152.97,1823.79 1147,1817.5C 1146.72,1811.95 1148.89,1807.61 1153.5,1804.5 Z"/></g>
<g><path style="opacity:1" fill="#040404" d="M 484.5,1806.5 C 494.056,1805.64 503.056,1807.47 511.5,1812C 515.713,1814.68 516.546,1818.18 514,1822.5C 504.24,1835.06 493.573,1835.73 482,1824.5C 476.593,1817.41 477.427,1811.41 484.5,1806.5 Z"/></g>
<g><path style="opacity:1" fill="#070707" d="M 530.5,1836.5 C 536.712,1836.6 542.379,1838.44 547.5,1842C 553.333,1846.5 558.5,1851.67 563,1857.5C 566.783,1862.42 565.45,1864.42 559,1863.5C 549.037,1863.72 539.87,1861.22 531.5,1856C 526.913,1851.77 525.413,1846.61 527,1840.5C 527.69,1838.65 528.856,1837.32 530.5,1836.5 Z"/></g>
<g><path style="opacity:1" fill="#040404" d="M 585.5,1843.5 C 591.577,1843.2 597.577,1843.7 603.5,1845C 606.207,1846.86 607.041,1849.36 606,1852.5C 597.908,1857.49 589.741,1857.66 581.5,1853C 580.424,1851.27 580.257,1849.44 581,1847.5C 582.397,1845.93 583.897,1844.6 585.5,1843.5 Z"/></g>
<g><path style="opacity:1" fill="#0a0a0a" d="M 1083.5,1846.5 C 1091.82,1845.41 1093.65,1848.41 1089,1855.5C 1085.03,1861.15 1079.86,1862.99 1073.5,1861C 1072.2,1858.46 1072.37,1855.96 1074,1853.5C 1077.07,1850.92 1080.23,1848.58 1083.5,1846.5 Z"/></g>
<g><path style="opacity:1" fill="#060606" d="M 615.5,1870.5 C 624.342,1870.2 632.675,1872.03 640.5,1876C 645.732,1878.63 647.565,1882.8 646,1888.5C 639.954,1891.31 634.121,1890.81 628.5,1887C 622.045,1883.06 617.711,1877.56 615.5,1870.5 Z"/></g>
<g><path style="opacity:1" fill="#050505" d="M 1018.5,1870.5 C 1024.28,1869.9 1029.61,1871.06 1034.5,1874C 1038.9,1879.98 1037.9,1884.98 1031.5,1889C 1025.64,1891.31 1019.97,1890.98 1014.5,1888C 1008.22,1880.43 1009.56,1874.59 1018.5,1870.5 Z"/></g>
<g><path style="opacity:1" fill="#060606" d="M 682.5,1884.5 C 690.226,1882.99 696.726,1884.99 702,1890.5C 703.624,1897.74 700.79,1902.24 693.5,1904C 684.499,1905.84 678.499,1902.5 675.5,1894C 676.516,1889.82 678.85,1886.66 682.5,1884.5 Z"/></g>
<g><path style="opacity:1" fill="#040404" d="M 945.5,1891.5 C 956.134,1891.63 960.967,1896.97 960,1907.5C 955.243,1915.08 948.41,1917.91 939.5,1916C 936.344,1915.06 933.511,1913.56 931,1911.5C 930.333,1909.83 930.333,1908.17 931,1906.5C 934.693,1900.31 939.526,1895.31 945.5,1891.5 Z"/></g>
<g><path style="opacity:1" fill="#040404" d="M 734.5,1905.5 C 743.083,1904.81 751.083,1906.65 758.5,1911C 765.24,1919.12 763.406,1923.62 753,1924.5C 747.757,1924.31 742.924,1922.81 738.5,1920C 734.194,1915.92 732.86,1911.09 734.5,1905.5 Z"/></g>
<g><path style="opacity:1" fill="#060606" d="M 806.5,1911.5 C 812.212,1911.31 817.879,1911.65 823.5,1912.5C 820.216,1921.78 813.882,1928.12 804.5,1931.5C 800.187,1929.72 798.187,1926.39 798.5,1921.5C 799.339,1916.66 802.006,1913.33 806.5,1911.5 Z"/></g>
<g><path style="opacity:1" fill="#030303" d="M 956.5,1928.5 C 970.92,1927.99 985.253,1928.82 999.5,1931C 1000.67,1932.87 1000.51,1934.7 999,1936.5C 981.904,1956.48 964.904,1956.48 948,1936.5C 947.104,1933.97 947.604,1931.81 949.5,1930C 952.036,1929.81 954.369,1929.31 956.5,1928.5 Z"/></g>
<g><path style="opacity:1" fill="#050505" d="M 727.5,1932.5 C 730.862,1932.07 733.695,1933.07 736,1935.5C 739.964,1942.06 742.298,1949.06 743,1956.5C 730.874,1961.9 724.374,1957.9 723.5,1944.5C 723.449,1939.98 724.783,1935.98 727.5,1932.5 Z"/></g>
</svg>
