<?xml version="1.0" encoding="UTF-8" standalone="no"?>
<!DOCTYPE svg PUBLIC "-//W3C//DTD SVG 1.1//EN" "http://www.w3.org/Graphics/SVG/1.1/DTD/svg11.dtd">
<svg xmlns="http://www.w3.org/2000/svg" width="139.5" height="337.5" version="1.1" viewBox="112.5 67.5 139.5 337.5">
  <defs>
    <clipPath id="artboard_clip_path">
      <path d="M112.5 67.5H252V405H112.5Z"/>
    </clipPath>
  </defs>
  <metadata>
    Produced by OmniGraffle 7.11.5
  </metadata>
  <g id="Skeleton" fill="none" fill-opacity="1" stroke="none" stroke-dasharray="none" stroke-opacity="1">
    <g id="Skeleton: Content" clip-path="url(#artboard_clip_path)">
      <g id="Group_827">
        <path id="Graphic_931" fill="#000" d="M182.05732 72.28767c-4.00833.56455-9.93615 2.1453-12.13791 3.21795-5.3068 2.65341-8.75057 6.94401-8.75057 10.78298 0 3.50023 1.1291 7.00046 2.37112 7.33919 1.29847.33873 1.29847.95974 0 2.82277-1.80657 2.59695-1.86303 3.50023-.56456 5.8149.67747 1.18556 1.4114 2.20176 1.69367 2.20176.22582 0 .45164 1.35493.45164 2.93568 0 3.27441 2.48404 10.89588 4.74225 14.7913.79037 1.35493 2.31467 3.04859 3.38732 3.78251 1.69366 1.12911 2.03239 1.69366 2.03239 3.44378 0 2.37112-2.08884 4.74225-6.944 7.84729-2.42759 1.63721-2.99214 1.75012-6.21009 1.5243-3.6696-.33874-9.25868.28227-11.68626 1.24202-.79038.33873-3.21796.79037-5.41972 1.07264-3.04858.39519-4.57288.90329-6.323 2.20176-1.29847.90329-3.21795 1.86303-4.2906 2.0324-1.41139.28227-2.31467.90328-3.10505 2.25821-1.69365 2.6534-1.46784 4.23415.79038 6.71819 1.80657 1.97593 1.97594 2.42758 1.75011 4.57288-.33873 2.59695-3.55668 15.35586-4.2906 16.71079-.22582.45163-.95974 3.10503-1.63721 5.92781-1.69366 6.94401-2.20176 8.01666-3.78251 8.41185-2.03239.50809-3.72605 3.55668-3.44377 6.04072.22582 1.80657.05645 2.25821-1.35493 3.27441-1.24202.90328-1.63721 1.69366-1.63721 3.04859 0 1.86302 2.25822 7.33919 3.27441 7.9602.28228.16937.56456 2.76631.56456 5.70199 0 2.99214.28227 6.21009.56455 7.22629.33873 1.01619.73392 4.12124.90329 6.94401.22582 2.82276.62101 5.98426.90328 7.00046.39519 1.41138.33873 2.20176-.22582 3.0486-1.18556 1.86302-1.91948 5.9278-2.08885 12.02498-.11291 2.82277-.33873 3.55669-1.18556 3.72605-1.12911.33874-1.35493 2.08885-.45164 2.99214.67746.67746.73392 2.82276.22582 6.21009-.67747 4.62934 2.31467 8.29894 4.06478 4.85514.67747-1.41137 1.35493-1.07264 1.35493.73394 0 .73392.33874 1.58076.79038 1.91948.67746.56455 1.01619.39518 1.75011-.73392 1.18557-1.80657 1.5243-1.80657 2.25822-.22582.79037 1.6372 1.80657 1.91948 2.25821.50809.39519-1.35492 1.41139-1.58075 1.41139-.33873 0 .5081.50809.84683 1.35493.84683 1.1291 0 1.46783-.5081 2.48403-3.55667.95974-2.9357 1.12911-4.5729.90329-10.2749-.11292-3.72604-.45165-7.67792-.79038-8.75057-.79037-2.6534-.73392-3.10503.28228-2.25821.45164.39518.84683 1.01618.84683 1.35493 0 .33873 1.07265 1.80657 2.42758 3.21795 1.29847 1.4114 2.76631 3.2744 3.21795 4.1777 1.07265 2.1453 4.57289 5.3068 5.41972 4.96807.79037-.28227 1.46784-4.23415 1.07265-5.98427-.16937-.67746-1.07265-1.69366-1.97594-2.20176-.90328-.5081-2.14531-1.91948-2.70986-3.10504-1.1291-2.1453-7.4521-8.63767-8.4683-8.63767-.28228 0-.95974-.67747-1.52429-1.46783-.79038-1.24203-.84683-1.58076-.11291-2.6534 1.97593-3.0486 1.35492-10.83944-1.24202-16.93662-1.12911-2.6534-1.18556-3.1615-.56456-12.98473.33873-5.64553.67747-12.75891.79038-15.75105.16937-3.83896.5081-5.9278 1.07265-6.77464.5081-.67746.90329-1.86302.90329-2.59694 0-1.41139 1.58075-9.03286 3.10504-14.7913.45164-1.69366.95974-4.34707 1.12911-5.81491.22582-1.86302.84683-3.27441 1.91948-4.45997l1.58075-1.75011 3.72605 2.99213c2.99214 2.37112 3.78251 3.33087 3.78251 4.57288 0 2.25822 1.35493 2.99214 5.08098 2.87923 1.80658-.05646 4.40352.11291 5.70199.39518 2.48404.56455 8.18603-.11291 9.25868-1.1291.79038-.79038 2.54049-.62101 2.54049.28227 0 .45165-.95974 1.58075-2.08884 2.54049-1.97594 1.63721-2.42758 1.75012-6.77465 1.75012-2.54048 0-6.60528-.28228-9.03285-.67746-6.88756-1.0162-8.58122-.67747-7.8473 1.6372.62101 1.86303 2.59695 2.59695 7.11337 2.54049 5.58909-.11291 11.40399.95974 11.17817 2.03239-.28227 1.5243-3.04859 2.99214-6.21009 3.33087-2.59695.28228-3.6696.05646-6.15364-1.12911-4.40351-2.03239-5.36325-2.14531-5.13744-.39518.05646.79037.73393 1.97593 1.4114 2.70985 1.41138 1.35493 8.24247 3.50023 11.40397 3.50023 2.42758 0 2.20176 1.07266-.56455 2.59695-1.69366.90329-2.20176.90329-5.19389.22582-1.80657-.39518-4.12124-1.1291-5.13744-1.58075-2.42758-1.07265-2.76631-.62101-1.12911 1.69367 1.69366 2.42757 1.97594 2.59694 4.96807 3.38731 2.48404.67747 2.48404.67747.84683 1.01619-1.52429.28229-1.69366.5081-1.52429 2.25823.11291 1.01619.84683 2.76631 1.63721 3.7825 1.1291 1.46784 1.80657 1.86303 3.44377 1.86303 1.58075 0 2.37113-.45164 4.1777-2.37112 1.18556-1.29848 2.31467-2.99214 2.48403-3.83897 1.0162-4.7987 6.66173-17.27534 9.20223-20.32393 1.52429-1.86302 1.46783-.84683-.22583 4.12125-1.29847 3.55668-1.35492 4.12124-.56455 4.68579 1.18556.90329 1.07265 1.80657-.62101 4.00832-1.35493 1.80658-1.41138 1.97595-.56455 3.27442.5081.79038 1.41138 1.41138 2.03239 1.41138.62102 0 1.12911.33874 1.12911.73392 0 .79038-2.37113 3.50024-3.50023 3.95188-.5081.22582-.22583.79037.95974 1.75011 1.86302 1.58075 2.0324 3.72606.5081 5.47617-1.12911 1.29848-.95975 2.14531.621 3.44378.79038.62101 1.41139 1.58074 1.41139 2.20176 0 1.29848-2.08885 5.58908-2.70986 5.58908-.22583 0-1.52429-.79038-2.93568-1.69366-5.36325-3.61314-9.42805-3.21796-13.26701 1.29846-1.58074 1.80658-1.97594 2.76632-1.97594 4.6858 0 3.5567 2.37113 8.29894 7.62148 15.41232 2.20176 2.99213 1.52429 4.74225-1.0162 2.48403-1.35493-1.29847-4.85516-1.29847-6.77464 0-.84683.56455-1.75012 1.91948-2.1453 3.27441-.67747 2.08884-.56456 2.54049.67746 4.85516.73392 1.41138 1.97594 3.04858 2.76631 3.6696l1.35493 1.07265-1.18556 12.81537c-.67746 7.05692-1.18556 13.43636-1.18556 14.22676.22582 9.37158-1.0162 13.66218-5.19389 17.89633-2.0324 1.97594-2.37113 2.76632-2.59695 5.36327-.33873 3.50022 1.07265 6.37945 3.44378 7.00046 1.29847.33874 1.41138.56454 1.07264 2.25821-.79037 4.34706-.5081 5.53263 1.69367 6.54883 1.52429.7339 1.91948 1.29846 2.1453 3.10504.16937 1.18556 1.12911 4.12124 2.08885 6.54882.95974 2.42758 1.75012 5.13744 1.75012 5.92781 0 .84683.90328 4.06478 1.97593 7.11337 1.07265 3.10506 1.97594 6.09718 1.97594 6.71819 0 .62101.62101 2.54049 1.35493 4.29061 1.69366 4.00833 2.93568 8.41186 3.6696 12.98473.45164 2.93568.45164 3.72605-.22583 4.40353-2.25821 2.20174-2.31466 4.23414-.28227 6.09716 1.01619.95974.95974 1.0162-1.97594 2.59694-1.69366.9033-3.38732 1.6372-3.72605 1.6372-.39519 0-2.59695.9033-4.85516 1.97595-2.31467 1.07265-4.85516 1.97595-5.70199 1.91949-1.75012-.11292-10.83943 4.23416-10.83943 5.19389 0 1.69367 2.6534 8.01667 3.89542 9.42804.79037.84683 1.91948 2.25823 2.48403 3.10503.5081.84685 1.46784 1.5243 2.0324 1.5243 1.69366 0 6.04072-2.0324 6.88755-3.21794.45164-.56456 1.86303-1.5243 3.1615-2.08886 1.35493-.56455 4.00833-2.0324 5.92781-3.21795 1.97594-1.24202 3.89542-2.20175 4.29061-2.20175.39519 0 2.59694-.84684 4.91161-1.9195 3.0486-1.41137 4.40352-2.3711 5.02453-3.61313 1.24202-2.37113 1.12911-5.13744-.22583-7.16983-1.29846-1.97594-1.41137-2.54049-.39518-2.54049.33873 0 1.12911-.67745 1.75012-1.46785 1.46784-2.0324.90328-5.13743-1.29848-7.00045-1.52429-1.35495-1.6372-1.80658-2.25821-8.01665-.39519-3.61316-1.46784-9.59743-2.42758-13.26702-.90329-3.6696-1.91948-7.96021-2.1453-9.4845-.22582-1.58075-.62101-3.21796-.79037-3.6696-.45165-1.18558-2.20177-12.98473-2.20177-14.90421 0-.84683.33873-1.75012.67747-1.97594.33873-.22583.79037-1.29847.95974-2.42758.39519-2.1453-1.41139-6.43591-2.87923-7.00045-.73391-.2823-.67746-.56457 0-1.9195 1.41139-2.70985 1.07266-6.04072-.79037-8.41184l-1.63721-2.0324v-9.03286c0-4.96806.16937-10.33132.45165-11.85562.28227-1.58075.62101-6.21008.79037-10.33133.45165-11.91208 1.46785-14.2832 5.70199-13.7751 3.10505.33873 5.58908-.62101 6.43591-2.54049l.62101-1.41139 1.97594 1.5243c3.2744 2.42758 5.02453 2.82276 8.01666 1.69366 2.59694-1.0162 2.6534-1.0162 3.61314.22582 1.24202 1.52429 1.35493 2.31467 2.20176 14.17029.39519 5.13744 1.0162 13.49283 1.35494 18.63026l.67745 9.31514-1.6372 3.6696c-.90329 2.03239-1.75012 4.96806-1.91948 6.54882-.28227 2.59694-.16937 2.93568 1.24201 4.06479 1.41139 1.1291 1.46784 1.24201.5081 1.58075-2.31467.84683-3.61314 2.59694-3.61314 5.02452 0 1.91948.33873 2.6534 2.20176 4.45998l2.20176 2.1453-.79038 2.93568c-.45164 1.63722-1.1291 6.26654-1.6372 10.27487-1.18556 10.72652-1.91948 16.03332-2.25822 16.59788-.28227.39517-1.07265 6.77464-1.80656 13.83157-.16937 2.0324-.62102 3.1615-1.58076 3.95186-3.10504 2.6534-3.21795 6.66174-.22582 7.73438l1.63721.56456-1.91949 2.0324c-2.59694 2.59694-2.99214 4.5164-1.58074 7.28273 1.97593 3.78251 4.06478 5.19389 9.65386 6.43591 1.41138.28226 2.70986.79036 2.87922 1.0162.16937.28226 2.54049 1.58076 5.25035 2.87922 3.44377 1.69364 5.19389 2.87924 5.75845 3.95188 1.1291 2.20176 4.68579 4.7987 7.4521 5.47616 2.59695.67747 2.99214.5081 2.99214-1.07265 0-.56455.33873-1.18555.79038-1.35493.45163-.16936.95973-.95972 1.18555-1.75012.16937-.79037.95975-2.70985 1.69366-4.2906.79039-1.58075 1.41139-3.10504 1.41139-3.3873 0-.22584.67746-1.35495 1.46784-2.4276l1.46784-1.9195-1.58075-.621c-4.40353-1.6372-6.323-2.20175-8.07313-2.20175-1.01618 0-2.82276-.5081-3.95186-1.07265-1.12911-.56455-3.21796-1.5243-4.74225-2.0324-1.46784-.5081-2.93569-1.41138-3.21796-1.97593-.5081-.90327-2.42758-1.69367-7.79083-3.1615-.5081-.11291-.33874-.56457.45164-1.35493 1.46784-1.46784 1.41138-3.1615-.22583-5.87134l-1.35492-2.25823 1.12911-3.95187c.56455-2.20176 1.7501-6.04073 2.48403-8.52476.79037-2.48404 1.80657-6.66174 2.20176-9.31514 1.01619-7.16983 5.30681-24.33225 6.37945-25.96946 3.61314-5.36324 3.04859-9.59741-1.46784-11.40398l-1.5243-.56456 1.69367-.79037c.95973-.39519 2.25821-.73393 2.93568-.79037.67745 0 1.91948-.62101 2.76631-1.35493 1.52429-1.24203 1.52429-1.41139.90329-3.61313-.5081-1.58076-1.69367-3.1615-3.95188-5.25036l-3.21795-2.93568-.11292-4.00833c-.05645-2.20176-.45164-8.07313-.84683-13.04119-1.07265-13.66219-.84683-24.04998.62101-28.17122 1.46784-4.12124 1.46784-4.91162.05646-7.73438-1.24202-2.42758-3.33087-3.61314-5.47617-3.04859-3.21796.79037-1.75012-3.04859 2.87923-7.62147 2.31466-2.20176 2.59694-2.76632 2.59694-4.96808 0-3.10504-1.29847-5.3068-4.85516-8.29893-5.02453-4.23415-6.04072-4.45997-10.21842-2.25822-3.50023 1.91949-4.68579 1.69366-5.64554-1.07265-.79037-2.31467-.28227-3.72605 1.29848-3.72605 1.46784 0 1.41138-1.18556-.28228-3.21795-2.20176-2.6534-2.20176-4.1777-.05645-5.98427 1.86303-1.63721 1.80657-2.70986-.33874-3.6696-1.75011-.84683-1.75011-1.80657.05646-3.50023.79037-.73392 1.41138-1.5243 1.41138-1.75012 0-.22582-.73392-1.24202-1.6372-2.25821-1.63721-1.80657-1.69367-1.86303-.84683-3.83897.5081-1.1291 1.01619-2.37112 1.18556-2.7663.16937-.33874.45164-.67747.67746-.67747.56456 0 2.31467 3.7825 2.31467 4.91161 0 .45164.73392 2.42758 1.63721 4.34706.90328 1.86303 2.08885 4.91162 2.54049 6.66174.5081 1.75011 1.58075 4.00833 2.42757 4.96806 1.35494 1.63721 1.75013 1.80658 3.95188 1.5243 1.46784-.16936 3.21796-.84683 4.51642-1.86303 1.12912-.90327 3.10506-2.1453 4.34707-2.76631 4.79871-2.37112 2.42758-5.36326-2.6534-3.38732-2.93567 1.12911-6.88755.95974-6.88755-.28228 0-.621.90328-.90328 3.78251-1.1291 2.99213-.22582 4.23415-.62101 6.21009-1.97594 2.54048-1.80657 3.44378-3.95187 2.03238-4.85516-1.01619-.67746-2.93567-.16936-5.4197 1.46784-3.6696 2.37112-7.39566 2.20176-9.59741-.45164-.56456-.67746.05645-.84683 4.29061-1.07266 5.47616-.33873 8.75057-1.58075 10.78297-4.1777 1.24201-1.58074 1.52429-3.33086.67746-3.83896-.22583-.16936-1.69366.33874-3.21796 1.07266-4.74225 2.37112-13.04118 2.37112-13.94447.05645-.22582-.56455.95974-.84683 5.64554-1.12911 3.27441-.22582 6.323-.56454 6.77464-.73392 1.07265-.39518 3.1615-4.57288 2.6534-5.36325-.28228-.39519-2.37112-.5081-6.88755-.28228-6.37946.33873-11.74271-.28228-11.12171-1.35493.16938-.22582 1.41138-.05646 2.70986.39519 2.99213 1.07265 6.323.67746 9.82322-1.18556 3.33088-1.69366 4.51644-2.70986 6.66174-5.64554.90329-1.24202 2.31467-3.04859 3.10506-4.00833l1.46783-1.75012 2.42757 2.1453c2.48404 2.25822 3.6696 4.85517 3.0486 7.16984-.33874 1.41138.16936 4.06478 2.42758 12.81536.67746 2.76632 1.69366 7.62148 2.20176 10.72652.621 3.95188 1.35492 6.323 2.37112 7.84729 1.18556 1.86303 1.29847 2.37113.79038 3.55669-.45164 1.0162-.45164 2.0324 0 3.6696 1.07266 4.12124.84683 12.646-.5081 18.23508-2.31467 9.31512-2.54049 11.46044-1.41139 13.37992l1.0162 1.7501-1.86303 1.9195c-1.07265 1.0162-2.1453 1.86302-2.42758 1.86302-.28227 0-.90328.79038-1.41138 1.75012-.5081 1.01619-2.48404 3.50023-4.40352 5.53262-5.41971 5.8149-7.11337 9.25868-5.98427 12.19436.79038 2.03238 2.82277 1.75011 3.89543-.56456.45164-.95974 1.97593-2.99213 3.38731-4.51642 1.41139-1.58074 3.10505-3.55669 3.72606-4.45998l1.12911-1.58076v9.4845c0 9.31515.79037 15.24296 2.1453 16.14624.33872.16936 1.6372.28228 2.87922.16936 1.29847-.1129 2.48404-.2258 2.70986-.2258.22582-.05647.56454-.56456.73392-1.18557.16936-.62101.79037-1.12911 1.35492-1.12911 1.4114 0 2.31468-1.12912 2.31468-2.93568 0-1.80657.11292-1.86304 1.69366-.90328 2.37112 1.52429 4.12124-2.82276 3.27441-8.24249-.22582-1.52429-.56455-5.70199-.73392-9.31513-.45165-8.07311-1.0162-10.38778-2.82277-11.57334l-1.41138-.95975 1.18556-1.6372c.90328-1.18557 1.41138-3.1615 1.97594-8.01665.39518-3.50025.73392-7.50858.79037-8.8635 0-1.4114.33873-4.0648.79038-5.92782.39517-1.91948 1.18557-5.36325 1.75011-7.73438.79038-3.33086.84683-4.51643.33873-5.47617-.33873-.67746-.84683-1.24202-1.07265-1.24202-.22582 0-.79037-.28227-1.24202-.56455-.73392-.45164-.67746-.62101.28228-1.29847.73392-.56456 1.07265-1.52429 1.07265-2.87923 0-2.31466-1.69366-4.45996-4.74225-5.92781-1.91948-.90328-1.97593-1.01619-3.1615-6.8311-1.1291-5.64553-1.86302-9.76677-3.04858-17.21888-.33874-1.86302-1.0162-4.74225-1.5243-6.323l-.95974-2.99213 1.80657-1.86303c2.48404-2.54049 2.42757-4.51643-.28228-6.94401-1.1291-1.07265-2.31467-1.91948-2.59695-1.91948-.5081 0-5.4197-2.1453-7.8473-3.44378-.56454-.28227-1.80656-.50809-2.82275-.50809-1.0162 0-2.76632-.28228-3.83897-.56455-1.07265-.33874-5.53262-.73393-9.82323-.9033-8.80704-.33872-8.35539-.16936-14.2832-5.58907l-3.10505-2.87923.621-2.20175c.5081-1.80658 1.07266-2.48404 2.76632-3.21796 3.10505-1.46784 6.77464-5.3068 7.22628-7.67793.22583-1.07265.22583-4.40352.05646-7.39565l-.39518-5.41971 2.25822-1.5243c2.54048-1.75011 2.87921-3.27441 1.35492-6.15363-.79038-1.58075-.79038-1.86303.28228-3.6696 1.5243-2.59694 1.5243-6.37945 0-9.42804-2.20176-4.347065-9.65387-10.72652-13.26701-11.34753-4.23415-.73392-5.02453-.79037-8.12957-.33873Zm-7.00047 152.8811c2.14531 1.80657 4.00833 7.4521 2.54049 7.4521-.95974 0-5.98426-4.2906-6.77464-5.8149-1.69366-3.21795 1.1291-4.34707 4.23415-1.6372Zm18.969-.62101c2.31467 2.08884.39519 6.26654-3.50023 7.4521-1.29847.39519-2.48404.56456-2.6534.39519-.73392-.67745.62101-4.85515 2.1453-6.71819 1.91948-2.31466 2.48404-2.48403 4.00833-1.1291Z"/>
        <path id="Graphic_930" fill="#f3f3f3" d="M194.02585 75.73145c7.00046 5.476165 9.42805 8.86349 9.4845 13.09764 0 1.18556-.39519 2.93568-.90329 3.83896-.67746 1.41139-1.01619 1.58075-1.69366 1.0162-.45164-.33873-.79037-1.35493-.79037-2.25822 0-1.80657-.90329-2.25821-1.29847-.67746-.28228 1.52429 1.35492 5.41971 2.82276 6.54882 2.70986 2.14531 1.12911 5.08098-3.66959 6.88755-3.44378 1.29848-4.40353 2.20176-1.91949 1.86303 1.58076-.22582 1.86303-.05645 2.25822 1.18556.22582.79038.39519 3.6696.39519 6.37946v4.91161l-2.20176 2.25822c-2.25822 2.31467-8.12957 5.53262-11.51689 6.323-1.18557.22582-3.50024.11291-5.87136-.33873-3.10504-.56456-4.34706-1.12911-5.87136-2.59695-3.10504-3.04859-7.22628-12.81537-6.88755-16.42851.11291-1.52429.45164-1.91948 1.69366-2.03239 1.75011-.22582 2.37112.73392 2.93568 4.40352.62101 4.57288 1.69366 7.9602 2.59694 8.4683.45165.22582 2.82277.79037 5.19389 1.18556 3.95188.62101 4.6858.62101 7.62148-.28228 8.75058-2.76631 9.87968-4.17769 8.35539-10.95234-.39519-1.75011-1.12911-2.37112-1.52429-1.29847-.05646.22582-2.08885.62101-4.40352.79038-2.31467.22582-5.75845.62101-7.62147.95974-5.36326.90328-8.75059.73392-9.08932-.45165-.84683-2.87922-1.69366-3.7825-3.89542-4.12123-4.06478-.67747-5.8149-4.34707-3.44377-7.45211 1.75012-2.31467 2.99213-5.8149 2.70985-7.90375-.28227-2.1453-1.29847-1.91948-1.18556.28228.16937 2.1453-.45164 4.40351-1.18556 4.40351-.79037 0-2.25821-3.1615-2.59695-5.47617-.90328-7.16983 5.75844-12.42017 18.40444-14.50902.79038-.11291 3.50024-.16937 6.04073-.05646 4.29061.16937 4.85517.338735 7.05692 2.0324Z"/>
        <path id="Graphic_929" fill="#f3f3f3" d="M193.63066 109.5482c.45164.73392-2.25821 2.37113-3.50023 2.1453-.56455-.1129-1.07265-.621-1.18556-1.1291-.16937-.90329.28228-1.07265 3.6696-1.5243.33873 0 .79037.16937 1.01619.5081Z"/>
        <path id="Graphic_928" fill="#f3f3f3" d="M187.42057 110.73376c.45165 1.29848-.39518 2.5405-1.29847 1.97594-.28228-.16936-.67746-.95974-.79037-1.75011-.22583-1.07266-.05646-1.41139.73392-1.41139.56455 0 1.18555.5081 1.35492 1.18556Z"/>
        <path id="Graphic_927" fill="#f3f3f3" d="M184.03325 111.24186c.45165 1.41139-.05645 2.25822-1.35493 2.25822-1.01619 0-1.97593-2.37113-1.29847-3.10505.73392-.67746 2.31467-.16936 2.6534.84683Z"/>
        <path id="Graphic_926" fill="#f3f3f3" d="M175.16976 112.03224c.16937.73392-.11291.95974-1.1291.79037-.67746-.11291-1.35493-.62101-1.46784-1.18556-.16937-.73392.11291-.90329 1.1291-.79037.73392.11291 1.41138.67746 1.46784 1.18556Z"/>
        <path id="Graphic_925" fill="#f3f3f3" d="M179.85556 111.86287c.5081.95974.45164 1.29847-.11291 1.69366-.45165.28228-.95975.5081-1.18557.5081-.67746 0-2.1453-1.75012-2.1453-2.59695 0-1.29847 2.70986-.95974 3.44378.39519Z"/>
        <path id="Graphic_924" fill="#f3f3f3" d="M193.91294 113.16134c0 .79038-.56455 1.80658-1.24202 2.31467-1.18556.79038-1.35492.79038-1.97594-.11291-1.01619-1.35492-.90328-1.75011.84684-2.6534 2.08884-1.18556 2.37112-1.1291 2.37112.45164Z"/>
        <path id="Graphic_923" fill="#f3f3f3" d="M176.46824 115.25019c1.29846 1.29848 1.18556 2.42758-.39519 2.65341-1.5243.16936-2.31467-.5081-2.76631-2.31467-.33874-1.29848-.22583-1.5243.79037-1.5243.67747 0 1.69366.5081 2.37113 1.18556Z"/>
        <path id="Graphic_922" fill="#f3f3f3" d="M186.0092 117.28259c0 1.01619-.33874 1.29847-1.4114 1.29847-1.24201 0-1.41138-.22582-1.41138-1.91948 0-1.07265.33874-2.0324.73392-2.20176.90329-.33873 2.08886 1.18556 2.08886 2.82277Z"/>
        <path id="Graphic_921" fill="#f3f3f3" d="M189.62233 115.47601c.90329 1.35493.84683 1.41139-.56455 1.75012-1.58075.39519-2.48404-.39519-2.48404-2.20176 0-1.46784 1.97594-1.18556 3.04859.45164Z"/>
        <path id="Graphic_920" fill="#f3f3f3" d="M181.60567 115.98411c.90329 2.08885.28228 3.04859-1.75011 2.70986-1.46784-.22582-1.75012-.5081-1.75012-1.75012 0-.84683.16936-1.75011.39519-1.91948.79037-.84683 2.48403-.33873 3.10504.95974Z"/>
        <path id="Graphic_919" fill="#f3f3f3" d="M180.19429 128.17847c1.52429.33873 3.38731.33873 5.30681 0 1.6372-.33873 3.04858-.45164 3.1615-.33873.1129.11291-.22583.73392-.79038 1.35493-.84683.95973-1.91948 1.24201-6.21009 1.58075l-5.25035.39518v-1.80657c0-1.91948.22582-1.97593 3.78251-1.18556Z"/>
        <path id="Graphic_918" fill="#f3f3f3" d="M188.2674 132.13034c0 .90329-2.20175 1.5243-7.16983 1.91949-3.7825.28227-4.68579.22582-4.68579-.39519 0-.5081 1.24202-.95974 3.83896-1.35493 5.25036-.79038 8.01666-.84683 8.01666-.16937Z"/>
        <path id="Graphic_917" fill="#f3f3f3" d="M192.21928 135.06602c1.18556 1.0162 2.82277 2.31467 3.61314 2.87922 1.63721 1.12911 1.91948 2.08886.62101 2.08886-.45164 0-2.37113.73391-4.23415 1.6372-1.86303.84683-3.38732 1.46784-3.38732 1.35493 0-.11291.33874-.67747.67746-1.29848.5081-.79037.56456-1.52429.11291-2.6534-.56455-1.52429-.45163-5.8149.16937-5.8149.16937 0 1.29847.84683 2.42758 1.80657Z"/>
        <path id="Graphic_916" fill="#f3f3f3" d="M188.2674 135.17893c0 1.12911-.95974 1.63721-3.95187 2.08885-1.41138.22582-3.55669.67746-4.7987 1.0162-3.27442.84682-4.91163.28227-4.6858-1.5243l.16937-1.46784 5.08098.11291c2.82277.05646 5.47617-.11291 5.92782-.45164 1.242-.79037 2.2582-.67746 2.2582.22582Z"/>
        <path id="Graphic_915" fill="#f3f3f3" d="M173.41965 137.04196c-.16937 2.08884-.22582 2.1453-2.54049 2.31467-1.29848.11291-2.37113 0-2.37113-.28228.05646-.33873 4.29061-3.89542 4.91162-4.06478.05645-.05646.05645.90328 0 2.03239Z"/>
        <path id="Graphic_914" fill="#f3f3f3" d="M188.54968 139.46954c.16937.56456.05646 1.58075-.22582 2.20176-.56456.95974-1.18556 1.07265-6.66173.95974-6.60528-.11291-7.50856-.39519-7.50856-2.08885 0-1.01619.28227-1.12911 2.42758-.84683 1.41138.16937 3.1615 0 4.34705-.45164 1.07266-.39519 3.1615-.79038 4.62935-.84683 2.1453-.05646 2.70985.16936 2.99213 1.07265Z"/>
        <path id="Graphic_913" fill="#f3f3f3" d="M168.05639 140.48574c3.38731.33873 4.57288.67746 5.19389 1.52429.5081.62101.90329 1.29847.90329 1.52429 0 .39519-5.75845.95975-9.59741.90329-1.41139 0-5.53263.28228-9.25868.73392-6.43591.67747-6.71818.67747-7.50856-.33873-1.18557-1.6372-.67747-2.70986 1.52429-3.27441 1.07265-.22582 3.38732-.79038 5.08099-1.24202 1.7501-.45164 4.45997-.62101 6.21008-.5081 1.69366.16937 5.08098.5081 7.45211.67747Z"/>
        <path id="Graphic_912" fill="#f3f3f3" d="M215.81762 141.21966c1.91948.33873 3.6696.90328 3.83896 1.18556.22582.33873-.16936 1.07265-.79038 1.75011-1.07265 1.07266-2.08884 1.18557-13.7751 1.58075-11.06525.33874-12.70245.28228-13.60574-.50809-.56456-.45165-.90329-1.12911-.79038-1.41139.05646-.28228 2.20176-1.18556 4.62934-2.03239 4.06478-1.41138 5.08098-1.58075 10.72652-1.35493 3.38732.11291 7.79084.45164 9.76678.79038Z"/>
        <path id="Graphic_911" fill="#f3f3f3" d="M145.24843 143.70369c.90328 1.97594.90328 1.97594-1.24203 1.97594-1.07264 0-2.59694.22582-3.38731.5081-1.0162.45164-1.58075.33873-2.08885-.28228-.33874-.45165-.56455-.90329-.45164-.95974 1.80657-1.35493 4.40351-2.65341 5.36325-2.65341.73392 0 1.41139.56456 1.80658 1.41139Z"/>
        <path id="Graphic_910" fill="#f3f3f3" d="M226.26186 143.92951c1.58074.62101 2.08884 1.69366.84684 1.80657-.3952.05646-2.31468.16937-4.23416.22582l-3.50024.11292 1.24202-1.58075c1.29848-1.69367 2.31468-1.80657 5.64554-.56456Z"/>
        <path id="Graphic_909" fill="#f3f3f3" d="M188.71905 144.77634c2.59695 1.35493 3.04859 2.25822 2.48403 4.6858-.28228 1.18556-.56455 3.89542-.62101 6.09718-.22582 8.18602-4.51642 16.08978-8.80703 16.08978-2.1453 0-3.1615-1.0162-4.40352-4.51644-1.24202-3.44377-1.46784-5.02452-1.58075-10.67006-.05645-2.6534-.45164-5.92781-.90328-7.22628-.90329-2.76632-.33874-4.45998 1.69366-5.1939 1.86302-.73392 10.33133-.22582 12.1379.73392Z"/>
        <path id="Graphic_908" fill="#f3f3f3" d="M171.89535 146.18773c-4.00833 2.25821-4.34705 2.31467-6.43591 1.46784-2.1453-.90329-2.99214-1.75012-1.97594-2.08885.33874-.05646 2.82277-.22582 5.47617-.28228l4.85516-.16937-1.91948 1.07266Z"/>
        <path id="Graphic_907" fill="#f3f3f3" d="M137.90923 147.20392c.5081.84683.84683.84683 2.82277.28228 3.44377-1.0162 4.57288-.84683 5.19389.79037.67746 1.80658.73392 4.74225.05646 4.74225-.28228 0-1.41139 1.12911-2.5405 2.5405-1.69365 2.03238-2.20175 3.33086-2.87922 6.88755-.45164 2.42758-1.18556 5.8149-1.6372 7.50856-.45165 1.69367-1.24202 5.36326-1.75012 8.18603-.5081 2.76631-1.29847 5.92781-1.75011 6.944-.3952 1.07266-.95975 3.95188-1.12911 6.49237-.39519 5.02453-1.24202 6.60527-3.44378 6.60527-.73392 0-1.86303.28228-2.48403.62102-.84684.45164-1.35493.39518-2.0324-.16937-.5081-.39519-1.69366-1.0162-2.6534-1.29847-1.52429-.5081-1.75012-.84683-1.6372-2.42758.05645-2.1453 1.41138-3.89542 3.10504-4.1777 1.18556-.16937 3.27441-4.62934 3.27441-6.944 0-.56456.33873-2.08886.79037-3.38733 1.97594-5.58907 6.15364-21.17076 5.75845-21.56594-.11291-.16937-.05645-.84683.22582-1.58075.39519-1.07266.11291-1.63721-1.75011-3.44378-2.54049-2.48404-2.76632-4.00833-.79038-6.09718 1.58075-1.69366 4.45997-2.03239 5.25035-.5081Z"/>
        <path id="Graphic_906" fill="#f3f3f3" d="M156.6524 147.20392c.05646 1.35493.95975 2.48404 3.95188 4.6858l2.54049 1.86302-3.72605-.39518c-3.21796-.28228-3.83896-.22583-4.74225.73392-1.41138 1.58075-.73392 3.66959 1.52429 4.74225l1.86304.95974h-2.70987c-2.25821 0-3.1615-.33874-5.75844-2.25822-1.69366-1.24202-3.10505-2.37112-3.10505-2.48403 0-.11292.39519-.90329.84683-1.80657.5081-1.07265.67747-2.37113.45165-4.06479-.28228-2.25821-.22582-2.48404.73392-2.1453.62101.16936 2.20176.11291 3.61314-.16937 3.89542-.79037 4.51642-.73392 4.51642.33873Z"/>
        <path id="Graphic_905" fill="#f3f3f3" d="M162.4673 147.59911c3.61315 2.08885 5.702 2.31467 7.67794.95974.90328-.67746 1.86302-1.18556 2.20176-1.18556.84683 0 1.69366 2.76631 2.08884 6.77464l.33874 3.6696-5.81491.22582c-3.21795.16937-6.944.28228-8.35539.28228-2.99213.05645-5.8149-1.41139-5.3068-2.76631.28228-.73392 1.35492-.79038 6.66173-.5081 6.66173.33873 10.55715-.16937 10.95234-1.41139.16936-.5081 0-.67746-.56455-.45164-.5081.16937-2.08885.45164-3.61315.62101l-2.76631.33873 3.61314-1.12911c3.83897-1.1291 4.40352-1.46783 3.83897-2.08884-.22582-.16937-1.91949.05645-3.83897.62101-4.34706 1.18556-6.54882.79037-9.54095-1.75012-1.80657-1.58075-2.14531-2.1453-1.63721-2.76631.90328-1.07266 1.35493-1.0162 4.06478.56455Z"/>
        <path id="Graphic_904" fill="#f3f3f3" d="M217.79355 147.9943c-.67745 1.29847-.73392 2.20176-.28227 3.89542.45164 1.91948.33872 2.42758-1.12911 4.74225-1.6372 2.48403-2.70986 3.27441-2.70986 1.97593 0-.45164-.84683-.56455-2.48403-.39518-2.25822.28228-3.55668.79038-6.8311 2.54048-1.41138.79038-7.50856 2.14531-7.90375 1.75012-.16937-.16936 1.86303-1.01619 4.57288-1.86302 6.66174-2.1453 9.93615-5.13744 8.12958-7.3392-.95975-1.18556-3.95189-1.07265-5.30681.16937-1.58075 1.41138-5.19388 2.37113-8.75058 2.37113-2.48403 0-2.87922-.16937-2.87922-1.12912 0-1.29847.05645-1.35492 2.87922-.50809 1.80657.56455 2.70986.50809 5.3068-.33874 2.76632-.84683 3.38733-1.35492 4.85517-3.72605 1.80657-2.87922 2.1453-3.04859 8.9764-3.50023 1.41138-.11291 2.99213-.22582 3.50023-.28227.84683-.11292.84683.05645.05645 1.6372Z"/>
        <path id="Graphic_903" fill="#f3f3f3" d="M233.09296 147.71202c1.91948 1.97594 1.86302 2.82277-.56456 5.08098l-2.0324 1.91948 1.18557 3.55669c.62101 1.91948 1.41139 5.13743 1.69366 7.16983.5081 3.44378 1.86303 10.72652 3.61314 20.04165.73393 3.78251.79038 3.95188 2.5405 4.29061 2.1453.45164 4.00833 1.91948 4.68579 3.83896.45164 1.07265.28228 1.63721-.73392 2.76632-1.91948 2.03239-3.27441 2.31466-6.71819 1.58075-2.6534-.62101-3.21795-.95975-4.2906-2.93569-.67747-1.18556-1.41139-3.21795-1.58075-4.45997-.67747-4.2906-2.0324-10.72651-3.10505-14.67839-1.18555-4.51643-1.86302-8.86349-1.91948-13.15409-.05646-2.87923-.16937-3.10505-3.55669-6.43592-3.1615-2.99213-3.55668-3.66959-3.55668-5.58908 0-2.6534 1.41138-3.61314 4.74225-3.16149 1.46783.22582 2.82275.05645 3.72605-.45165 2.20176-1.24201 4.1777-1.01619 5.87136.62101Z"/>
        <path id="Graphic_902" fill="#f3f3f3" d="M198.42937 147.93784c-1.12911.73392-5.08098.73392-5.08098.05646 0-.5081 5.02452-1.12911 5.64553-.73392.11291.11291-.11292.39519-.56455.67746Z"/>
        <path id="Graphic_901" fill="#f3f3f3" d="M204.583 147.31683c.67747.45165.67747.79037-.22582 2.14531-.56455.84683-1.46784 1.86302-1.91948 2.25821-1.35493 1.0162-4.85516 1.46784-7.73438 1.0162-2.20176-.28228-2.5405-.5081-2.37112-1.58075.16936-1.07265.621-1.29848 3.55668-1.5243 2.1453-.16936 4.12124-.73392 5.36326-1.5243 2.25821-1.46783 2.25821-1.46783 3.33086-.79037Z"/>
        <path id="Graphic_900" fill="#f3f3f3" d="M207.91387 154.76894c-.22582 1.75012-2.37113 3.10504-7.16983 4.74225-4.45998 1.52429-9.08931 1.86303-9.08931.67746.05645-2.70985.621-3.21795 3.89542-3.21795 3.89541-.05646 8.24248-1.1291 9.48449-2.42758 1.41139-1.41139 3.10506-1.24202 2.87923.22582Z"/>
        <path id="Graphic_899" fill="#f3f3f3" d="M170.54042 159.73701c-.56455.84683-6.09717 1.35493-8.86349.79038l-2.48403-.56456 3.6696-.33873c4.7987-.5081 7.56501-.73392 7.8473-.56455.05645.05645 0 .33873-.16938.67746Z"/>
        <path id="Graphic_898" fill="#f3f3f3" d="M212.76903 161.09194c-.56456 1.91948-2.25822 3.50023-5.58908 5.19389-3.44378 1.69367-4.74225 1.69367-12.08145.05646-4.96807-1.12911-5.1939-1.24202-4.74225-2.31467.33873-1.0162 2.25822-1.07265 4.45998-.22582 1.91947.67746 8.69412-.73392 10.95233-2.31467 1.46784-1.0162 6.15364-2.25822 6.94401-1.86303.22583.16937.28228.79038.05646 1.46784Z"/>
        <path id="Graphic_897" fill="#f3f3f3" d="M174.71812 161.48713c0 1.41138-.33873 1.80657-2.6534 2.82277-2.82277 1.24201-4.96807 1.35492-12.87182.67746-4.91162-.39519-5.08098-.45164-5.08098-1.80657v-1.41139h7.9602c6.77464 0 8.07312-.1129 8.91995-1.0162.56455-.5081 1.58075-.95973 2.37113-.95973 1.1291 0 1.35492.28227 1.35492 1.69366Z"/>
        <path id="Graphic_896" fill="#f3f3f3" d="M190.52562 167.41494c.39518.45164 1.24202.84683 1.91948.84683.621 0 1.69366.39519 2.25822.84683.84683.67746 2.93568.84683 8.91994.84683 8.29894 0 8.69413.16937 6.94401 2.6534-.73392 1.0162-1.58075 1.24202-7.62147 1.58075-3.72606.22582-6.88756.62102-7.05692.84683-.5081.79038 3.27441 3.95188 5.25035 4.29061 3.21795.62101 9.82323-.56455 12.36372-2.20176 1.41138-.90329 1.18555.62101-.28228 1.97594-2.1453 2.0324-5.92781 3.1615-10.55715 3.1615-5.36326 0-5.36326 0-5.36326.90328 0 1.29848 3.6696 4.12124 5.92781 4.51642 1.75013.33874 2.76632.11292 5.64553-1.29846 3.61315-1.80657 5.36327-2.20176 5.36327-1.18556 0 1.35492-4.85517 3.55668-8.46831 3.89542-2.03239.22582-4.00833.56455-4.40351.84683-.79038.50809-.39519 2.59694.67745 3.27441 1.07266.73392 5.13745.50809 7.67794-.39519 1.29846-.45165 2.76631-.84683 3.1615-.84683 1.35493 0 .84683 1.12911-.73392 1.75011-.90329.33874-2.31467 1.18557-3.27442 1.86303-2.37112 1.80657-5.13743 3.1615-6.4359 3.1615-1.6372 0-3.33087-2.48404-4.6858-7.00046-.67746-2.20176-1.6372-4.74225-2.20175-5.702-.5081-.90328-1.24202-2.70985-1.58075-3.95187-.3952-1.24202-1.41139-3.89542-2.25822-5.92781-.90328-2.03239-2.03239-4.62934-2.54048-5.75845-1.24203-2.99213-.33874-5.02452 1.35492-2.99213Z"/>
        <path id="Graphic_895" fill="#f3f3f3" d="M176.58115 168.4876c.16936.45163-.33874 1.80656-1.18557 2.99212-2.03238 2.76632-7.73438 15.01713-8.86348 18.91255-1.0162 3.55669-3.27442 6.43591-5.47618 6.88755-1.18556.28228-1.75012 0-2.99212-1.41138-1.69367-2.0324-1.69367-3.6696 0-3.50024.621.11292 1.46783-.05645 1.91947-.33873 1.41139-.90328.16937-2.25821-2.99213-3.1615-2.87922-.84683-4.1777-1.69366-3.61314-2.31467.16936-.1129 1.41138.16937 2.7663.62101 2.76632 1.01619 4.74226.73392 7.79085-1.01619 1.1291-.62102 2.08885-1.18557 2.08885-1.18557.05645-.05645.22582-.56455.45164-1.24201.33873-1.12911.05646-1.24202-5.64554-1.91949-5.25034-.621-6.21009-.90328-7.79084-2.25821-2.42758-2.20176-1.58075-2.6534 1.69366-.90329 3.33088 1.75012 7.3392 1.91949 10.67007.39519 2.31467-1.01619 4.06478-3.33086 3.50023-4.68579-.39519-1.07265-6.49237-2.14531-11.79917-2.03239-4.23415.05645-6.09718-.56456-6.09718-1.91949 0-.56455 7.50856-.05645 10.16197.67747.79037.22582 3.55668.16936 6.21008-.11291 3.72606-.39519 5.1939-.84683 6.49238-1.86303 1.97593-1.58075 2.31466-1.69366 2.70985-.621Z"/>
        <path id="Graphic_894" fill="#f3f3f3" d="M188.71905 171.762c.39519 1.35493.90328 2.76631 1.07265 3.21796.28228.73392-3.10505-.95974-4.57288-2.25822-.5081-.45164 1.6372-3.33086 2.48403-3.33086.16937 0 .62101 1.07265 1.0162 2.37112Z"/>
        <path id="Graphic_893" fill="#f3f3f3" d="M186.17856 174.64122c1.46784.84683 2.6534 1.86303 2.6534 2.20176 0 .39519-.56456 1.75012-1.18556 3.10505-.9033 1.91947-1.41139 2.42757-2.1453 2.08885-.5081-.22583-2.42759-.56456-4.29061-.79038-3.95188-.45164-5.53263-1.0162-5.13744-1.91948.11291-.33873.73392-1.97594 1.24202-3.61314l1.01619-2.93568 2.54049.1129c1.58075.11292 3.6696.79038 5.30681 1.75012Z"/>
        <path id="Graphic_892" fill="#f3f3f3" d="M185.83982 183.16598c.56456.45165 1.63721 1.29848 2.37113 1.91948.90329.73392 1.24202 1.35494.95975 2.14531-.28229.90328-1.24203 1.24202-5.1939 1.86303-3.5567.56455-5.02453.56455-5.47617.1129-.33873-.33873-1.07265-.621-1.58075-.621-2.08885 0-2.25822-1.41139-.5081-3.89542 1.69366-2.25822 1.75012-2.31468 5.08098-2.31468 2.08884 0 3.72606.28228 4.34706.79038Z"/>
        <path id="Graphic_891" fill="#f3f3f3" d="M186.57374 190.27936c-.73392.5081-.73392.62101.05646 1.1291.5081.28228 1.41138.95974 2.08885 1.5243 1.18555.95974 1.18555 1.07264.22582 2.25821-.67747.90329-2.25822 1.46784-5.58908 2.14531l-4.68579.95974-1.6372-1.63721-1.63722-1.63721 1.75012-1.91947c1.69366-1.91949 4.91162-3.10505 8.8635-3.27442 1.1291-.05645 1.242 0 .56454.45165Z"/>
        <path id="Graphic_890" fill="#f3f3f3" d="m188.21095 200.8365 1.86303 2.6534-1.29848 1.07266c-2.42758 1.97594-12.98473.67747-12.92827-1.58076.05645-.28226.67747-1.29846 1.41138-2.20175 1.01619-1.29847 2.03239-1.80657 4.06479-2.08885 4.91161-.67746 4.91161-.67746 6.88755 2.1453Z"/>
        <path id="Graphic_889" fill="#f3f3f3" d="M125.03741 199.76386c1.01619.84683 1.12911 1.18556.62101 2.54049-.33873.90328-.62101 3.04859-.62101 4.7987 0 2.6534.50809 4.23415 2.87922 9.42805 3.83897 8.29893 3.78251 8.12957 4.12124 11.0088.5081 4.68578-1.52429 9.0893-4.57288 9.87968-1.86303.45164-2.37113-.11291-2.70986-2.87923-.11291-1.18555-.5081-4.40351-.79037-7.11337-.28228-2.76631-.67746-5.19388-.90329-5.53262-.16937-.28228-.33873-2.99214-.33873-6.04073-.05646-5.08098-.16937-5.75844-1.69366-8.12957-2.48404-3.89542-2.6534-5.75844-.79038-7.50856 1.86303-1.69366 3.10505-1.86303 4.79871-.45164Z"/>
        <path id="Graphic_888" fill="#f3f3f3" d="M133.73153 203.15118c0 2.37112-.22582 6.54882-.45164 9.20222-.39519 4.34706-.33873 5.25035.95974 8.75058 2.14531 6.04072 2.93568 11.29107 1.97594 14.05738-.73392 2.31467-2.1453 3.10504-3.78251 2.0324-.62101-.39519-.62101-.95975 0-3.50024 1.41138-5.70199.39519-10.38778-4.40352-19.87228-1.52429-3.04859-1.91948-4.57288-1.97594-7.28274-.05645-4.91162 1.5243-6.54882 7.45211-7.73438.16937-.05646.28228 1.91948.22582 4.34706Z"/>
        <path id="Graphic_887" fill="#f3f3f3" d="M238.06103 200.27195c1.75011 1.5243 1.29847 5.58908-2.08885 18.51735-.56456 2.14531-.84683 5.41972-.73392 8.8635.05644 4.62934-.05646 5.702-.95974 6.66173-2.87922 3.1615-3.95188-.5081-2.31467-7.90375 2.93568-12.92828 2.82277-12.08144 2.08885-19.25128-.33874-3.72605-.5081-7.0569-.33874-7.33919.56456-.84683 3.21796-.56455 4.34707.45164Z"/>
        <path id="Graphic_886" fill="#f3f3f3" d="M245.40022 201.17524c.22582.39519.33873 1.07266.22582 1.5243-.16936.45164-.56454 2.25821-.90328 3.95186-.39519 1.69367-1.0162 4.51644-1.46784 6.26655-.45164 1.69366-.79038 4.40352-.79038 5.92782 0 1.52429-.39518 5.8149-.84684 9.4845-.79036 6.54883-1.6372 8.80703-3.3873 8.80703-1.0162 0-2.70986-2.08885-2.25822-2.87922.22582-.33873.5081-3.61315.56455-7.22628.11291-3.61315.45164-7.45211.84683-8.52477 1.29848-4.12123 3.33087-14.50903 3.04859-15.58167-.45165-1.69366 1.24202-3.21796 3.10505-2.76632.79037.22583 1.6372.67746 1.86302 1.0162Z"/>
        <path id="Graphic_885" fill="#f3f3f3" d="M187.70285 207.89343c1.75012 2.93567 1.46785 4.57287-.95975 5.87135-2.31466 1.18557-3.1615 2.59695-1.35492 2.08885 2.54049-.67746 2.99214 5.64554 1.24202 15.92041-1.18556 6.66173-2.1453 9.87969-2.93568 9.87969-.79037 0-2.54049-3.89543-4.17769-9.59741-1.24203-4.12124-1.63721-6.60528-1.63721-10.72652l-.05646-5.36326 1.86304.05646c2.42757.1129 2.2582-.3952-.45165-1.69366-2.54049-1.24202-2.70985-1.86304-1.29847-5.25034.90328-2.14531 1.24202-2.37113 3.27441-2.59696 5.36325-.50809 5.3068-.50809 6.49236 1.41139Z"/>
        <path id="Graphic_884" fill="#f3f3f3" d="M170.54042 211.61948c1.29848.84682 3.10505 1.91948 4.06478 2.42758 1.58076.90329 1.63721 1.12911 1.9195 5.64554.16936 2.59694.22581 4.7987.16936 4.9116-.05646.05647-.79038-.39518-1.58076-1.01618-1.07264-.84683-2.1453-1.12912-3.61314-1.0162-2.03239.16937-2.1453.28228-2.31466 2.37112-.16937 2.08886.05645 2.42758 3.2744 5.47616 1.91949 1.80658 4.12125 3.33088 4.91162 3.4438 1.18556.16936 1.58075.7339 2.54049 3.61313 1.07265 3.33087 1.07265 3.55669.11291 5.02453-1.1291 1.69366-2.87922 2.54049-5.41972 2.54049-1.6372 0-1.69365-.05645-1.29846-2.20175.62101-3.61315-1.91949-7.50857-5.64554-8.7506-1.1291-.33872-1.97594-1.41137-5.70199-7.11336-5.70199-8.63767-5.47617-12.98474.84683-16.37206 2.48404-1.35492 4.45997-1.1291 7.73438 1.0162Z"/>
        <path id="Graphic_883" fill="#f3f3f3" d="M202.71998 212.01467c4.17769 3.21795 5.87135 5.58908 5.87135 8.18603 0 1.6372-.5081 2.59694-2.59694 4.85515-3.55669 3.72605-4.74225 5.75845-4.74225 8.07312 0 1.69366-.11291 1.86303-1.24202 1.46783-5.41972-1.69365-6.77464-.79037-6.88755 4.6858-.05647 4.00833-.11292 4.0648-1.86303 4.91162-1.46784.73392-2.08884.73392-3.95188.11291-2.37112-.79037-2.37112-.62101-.90328-6.21009.95974-3.83896.95974-3.83896 3.72605-4.7987 5.36327-1.86304 7.62147-6.49237 4.62934-9.42804-1.58075-1.6372-2.42757-1.75012-4.00833-.56456-1.6372 1.24202-1.91948 1.0162-1.91948-1.46784 0-1.29847-.28228-3.33087-.67746-4.51643-.56456-1.91947-.5081-2.37112.39518-3.33087.56456-.621 1.41139-1.1291 1.91948-1.1291.5081-.05646 2.31467-.79038 4.00834-1.69366 1.69365-.95974 3.50023-1.69366 4.00832-1.69366.5081 0 2.42758 1.1291 4.23416 2.54049Z"/>
        <path id="Graphic_882" fill="#f3f3f3" d="M207.68805 235.16136c2.08885 2.25822 2.20175 3.83897.67745 8.69414-1.29846 4.06477-1.35492 5.08097-1.18555 13.3799.11291 4.91162.45165 11.9121.79037 15.46877.28228 3.55669.56456 8.91995.56456 11.91208l.05645 5.41972 2.54049 1.80657c1.41138 1.01619 3.21796 2.93566 4.00833 4.34706 1.46785 2.5405 1.46785 2.59695.45165 3.61314-.56456.56456-2.31467 1.24202-3.83897 1.46784-2.6534.33872-2.76631.33872-2.42758-.84683.22582-.62101.56455-1.75011.73392-2.48405l.28228-1.242-1.0162 1.29847c-.56455.73393-1.52429 1.91948-2.1453 2.70986-1.46785 1.86302-4.91162 2.37112-7.79085 1.12911-1.18555-.45164-2.2582-1.29848-2.48403-1.80658-.45164-1.18556.56456-5.08098 2.37113-8.9764 1.29847-2.87922 1.29847-3.1615.79037-11.34752-.28227-4.62934-.62101-9.31514-.79037-10.38779-.11291-1.07265-.621-6.60527-1.07265-12.30725-.79038-9.8797-.84683-10.3878-2.54049-13.0412-1.86303-2.87922-2.08886-4.45997-1.12911-7.39565.62101-1.69365.79037-1.80657 2.6534-1.46785 1.12911.16937 2.37113.67747 2.82277 1.12911.73392.73392 1.01619.62101 2.42758-.84683 1.86303-2.03238 3.55669-2.08884 5.25035-.22582Z"/>
        <path id="Graphic_881" fill="#f3f3f3" d="M162.29794 237.1373c1.24202 1.35493 1.69366 1.58075 2.08886.95974.22581-.45164 1.35492-.95974 2.54048-1.12911 2.20176-.33873 2.70986.05647 4.51642 3.33087.84684 1.5243.9033 1.86303.11292 3.38732-.5081.90328-1.29847 2.1453-1.86302 2.76631-1.12911 1.24202-1.63721 4.06479-2.0324 12.42017-.16937 3.10506-.56455 8.2425-.90328 11.404-.39519 3.1615-.56456 7.11337-.39519 8.75057.16937 1.63721.11291 5.13743-.05646 7.79083l-.39519 4.7987 1.86303 1.75013c2.54049 2.42757 2.6534 5.75845.22582 8.18603-.90328.90328-2.08885 1.6372-2.59694 1.6372-.5081 0-1.63721.39519-2.54049.84684-1.0162.5081-1.75012.621-1.97594.28227-.16936-.33873.16936-.56457.79037-.56457 1.75012 0 1.41139-.90327-.50809-1.58073-1.86304-.67747-3.95188-3.61315-3.95188-5.64554 0-.67746-.22582-1.24203-.56456-1.24203-1.24201 0-.5081 3.78252 1.12911 6.04074l1.69366 2.31466-3.21795.3952c-3.10504.39518-3.27442.33873-4.79871-1.35493-2.54049-2.82277-1.91948-6.43591 1.52429-9.65387.84684-.79037 2.25822-2.82277 3.10505-4.5729 1.5243-2.93566 1.63721-3.66958 1.91949-12.1379.16936-4.9116.67746-12.42016 1.1291-16.59786 1.35493-12.19434 1.35493-13.09764-.05645-13.60574-1.91949-.67746-4.17769-5.08098-3.78251-7.22628.73392-3.61315 4.40352-4.51642 7.00046-1.75012Z"/>
        <path id="Graphic_880" fill="#f3f3f3" d="M239.07722 239.45197c1.5243.95973 2.82278 2.08885 2.82278 2.48403 0 2.0324-11.23463 3.33087-12.4202 1.4114-1.41137-2.20177 1.46785-5.36327 4.34707-4.91163 1.0162.16937 1.86303.11291 1.86303-.22582 0-.79037.28228-.67745 3.38732 1.24202Z"/>
        <path id="Graphic_879" fill="#f3f3f3" d="M133.11052 239.45197c2.70986.73393 2.82278 2.31467.28228 3.95187-2.37112 1.46784-6.43591 1.12911-7.90375-.67746-2.37112-2.82278 2.14531-4.7987 7.62147-3.27441Z"/>
        <path id="Graphic_878" fill="#f3f3f3" d="M140.50618 244.9846c2.08884 2.1453 2.31467 3.44377.621 3.44377-.95974 0-4.74224-3.95187-4.7987-4.96807 0-1.35493 2.08885-.621 4.1777 1.5243Z"/>
        <path id="Graphic_877" fill="#f3f3f3" d="M125.26323 249.50102c-.33873 4.91162-.90329 6.60528-1.97593 5.92781-.73393-.45163-.95975-3.33086-.45165-6.944.67746-4.74225.84683-5.1939 1.91948-4.79871.79037.33873.84683 1.12911.5081 5.8149Z"/>
        <path id="Graphic_876" fill="#f3f3f3" d="M228.52007 244.0813c.28228.79038-1.6372 4.34707-2.42757 4.34707-.22583 0-.73393-.39519-1.12912-.84683-.56455-.67746-.45164-1.12911.67747-2.48404 1.41138-1.80657 2.42758-2.20175 2.87922-1.0162Z"/>
        <path id="Graphic_875" fill="#f3f3f3" d="M242.46454 249.83975v5.30681l-2.54049.39519c-1.41138.16935-2.76631.16935-2.99213 0-.16937-.22583-.33872-2.48405-.39519-5.02453 0-3.89542.16937-4.62934.95974-4.79872.84683-.16935 1.0162.3952 1.12911 3.89543.11292 2.70987.19396 5.79455.70206 5.96392.5081.16935.61356-.03433.61356-.03433s.20867-1.75189-.0736-2.82454c-.16937-.79038-.3952-2.70986-.3952-4.29061-.1129-2.25821.11292-3.10504.95975-3.6696.56455-.45164 1.29847-.67747 1.5243-.5081.28227.16937.50809 2.65341.50809 5.58908Z"/>
        <path id="Graphic_874" fill="#f3f3f3" d="M135.36874 246.0008c1.12911 2.2582 2.82276 9.5974 2.37112 10.27487-.45164.79037-2.93567.79037-3.44377 0-.56456-.95975-.79038-11.79917-.22582-11.79917.28227 0 .90328.67746 1.29847 1.5243Z"/>
        <path id="Graphic_873" fill="#f3f3f3" d="M129.1022 250.4043c.39518 5.36327.1129 6.323-1.69367 5.02453-.95973-.621-1.24201-1.41138-1.24201-3.21795 0-4.23415.62101-6.66173 1.6372-6.49238.67747.16938.95974 1.18558 1.29848 4.6858Z"/>
        <path id="Graphic_872" fill="#f3f3f3" d="M132.65888 248.42837c.56456 4.12123-.11291 8.4683-1.35493 8.4683-.84683 0-1.01619-.73392-1.07265-5.64553-.11291-5.25034-.05645-5.64554.95974-5.64554.84683 0 1.12911.56456 1.46784 2.82277Z"/>
        <path id="Graphic_871" fill="#f3f3f3" d="M231.96385 247.69445c-.67747 3.33087-.73392 5.98427-.16937 7.05692.45164.84683.28228 1.12911-.95974 1.58075-.84684.33873-1.6372.45164-1.80657.33873-.33873-.39518-.28227-7.4521.16937-9.37159.28226-1.35492.67746-1.69366 1.80656-1.69366 1.35494 0 1.4114.1129.95975 2.08885Z"/>
        <path id="Graphic_870" fill="#f3f3f3" d="M235.2947 246.33952c.16938.45165.11292 1.07265-.1129 1.41138-.22582.33874-.22582 2.25822 0 4.1777.3952 3.89542.28228 4.40352-.90328 4.40352-.45165 0-.95974-.84682-1.18556-2.03239-.39519-2.03239 0-7.11338.621-8.12957.5081-.79038 1.24202-.67746 1.58074.16936Z"/>
        <path id="Graphic_869" fill="#f3f3f3" d="M145.24843 250.1785c.50809.95973 1.52429 2.48402 2.25821 3.3873l1.29847 1.58076-1.29847.67746c-1.12911.62101-1.41138.5081-2.42758-.90328-.62101-.84684-1.69366-2.20176-2.37113-2.99214-1.58075-1.69366-1.58075-2.1453-.28227-2.87922 1.46784-.90328 1.80657-.79038 2.82277 1.12912Z"/>
        <path id="Graphic_868" fill="#f3f3f3" d="M224.39883 249.55748c.5081.95974.28227 1.46784-1.52429 3.44377-1.5243 1.63721-2.42758 2.14531-3.1615 1.91949-1.46784-.56456-1.18557-2.25822.79036-4.51644 1.97595-2.2582 3.0486-2.48403 3.89543-.84682Z"/>
        <path id="Graphic_867" fill="#f3f3f3" d="M218.2452 255.76757c.05645.28227.1129.95973.1129 1.41138 0 2.03239-.22581 2.54049-1.0162 2.54049-.56454 0-.84682-.56454-.84682-1.86304 0-1.07264.16937-2.08883.39519-2.2582.56455-.56455 1.29847-.45164 1.35493.16937Z"/>
        <path id="Graphic_866" fill="#f3f3f3" d="M149.87776 258.02578c0 1.97594-.56455 2.14532-1.6372.5081-.62101-1.0162-.62101-1.29848.05645-1.69366 1.24202-.84682 1.58075-.56455 1.58075 1.18556Z"/>
        <path id="Graphic_865" fill="#f3f3f3" d="M243.48074 259.2678c-.16937 2.70986-.28228 2.99213-1.52429 2.99213-1.12911 0-1.46785-.45163-2.08885-2.54049-.45165-1.41138-.79038-2.59694-.79038-2.6534 0-.16937 1.97594-.62101 3.27441-.67746 1.24202-.05646 1.29847.11292 1.12911 2.87922Z"/>
        <path id="Graphic_864" fill="#f3f3f3" d="M124.75513 258.81616c.56456 2.76631.16937 4.00834-1.29847 4.17769-.90329.11291-1.24202-.11291-1.24202-.84683 0-.56455-.16936-1.97592-.33873-3.1615-.33873-1.97592-.28228-2.08885 1.07265-2.08885 1.24202 0 1.5243.33873 1.80657 1.91949Z"/>
        <path id="Graphic_863" fill="#f3f3f3" d="M129.2151 258.53388c.67747.73392.90329 1.80657.79038 3.27442-.16937 1.86302-.33873 2.1453-1.58075 2.1453-1.18556 0-1.46784-.33874-1.91948-2.37113-.79038-3.83897.56455-5.41972 2.70985-3.04859Z"/>
        <path id="Graphic_862" fill="#f3f3f3" d="M233.60105 257.8564c.16937.2823.45165 2.0324.67747 3.9519.33873 3.04858.28228 3.61313-.56456 3.8954-.56456.22583-1.18556.05646-1.46784-.39518-.56455-.90328-.67746-6.94402-.11291-7.45212.50809-.50808 1.18557-.50808 1.46784 0Z"/>
        <path id="Graphic_861" fill="#f3f3f3" d="M237.66584 258.02578c.16936.28228.5081 1.80657.67746 3.38732.28228 2.59695.22582 2.82277-.90328 2.82277-1.29848 0-1.97594-1.18557-2.59695-4.74225-.39519-1.91948-.33873-2.03239 1.0162-2.03239.79037 0 1.6372.22582 1.80657.56455Z"/>
        <path id="Graphic_860" fill="#f3f3f3" d="M133.78799 260.50982c.45164 2.70985.11291 3.72605-1.18556 3.72605-.56456 0-.79038-.79037-.79038-3.10504 0-2.31467.22582-3.10505.79038-3.10505.56455 0 .95974.90329 1.18556 2.48404Z"/>
        <path id="Graphic_859" fill="#f3f3f3" d="M137.73986 261.69538c.45164 3.89542-.16936 5.58908-1.86302 5.25035-.67747-.11291-.90329-1.18557-1.0162-4.57289-.11291-4.23414-.11291-4.34706 1.18556-4.34706 1.18557 0 1.35493.28228 1.69366 3.6696Z"/>
        <path id="Graphic_858" fill="#f3f3f3" d="M230.496 261.526c-.1129 2.70987-.39518 3.5567-1.0162 3.5567-1.07264 0-1.35492-1.46784-.84682-4.57288.22582-1.63722.62102-2.48404 1.18556-2.48404.67746 0 .79038.73392.67746 3.50022Z"/>
        <path id="Graphic_857" fill="#f3f3f3" d="M243.59365 265.02624c0 .73392-.33873 1.63721-.79037 1.97594-.67748.56456-.95975.45165-1.5243-.56455-.56455-1.07265-.5081-1.41139.39519-2.03239 1.46783-1.07264 1.91948-.90329 1.91948.621Z"/>
        <path id="Graphic_856" fill="#f3f3f3" d="M123.9083 266.7199c0 1.80658-1.29847 3.72606-1.86302 2.76632-.16937-.28228-.45165-1.41139-.67747-2.59695-.39519-1.97594-.33873-2.08885 1.07265-2.08885 1.29848 0 1.46784.22582 1.46784 1.91948Z"/>
        <path id="Graphic_855" fill="#f3f3f3" d="M128.42473 267.17155c0 2.99213-.84683 4.57288-1.69366 3.27441-.79037-1.18556-.67747-4.1777.11291-4.96806 1.18556-1.18557 1.58075-.73393 1.58075 1.69365Z"/>
        <path id="Graphic_854" fill="#f3f3f3" d="M132.60243 268.01838c-.45165 3.55669-1.35493 4.45997-1.35493 1.46784 0-2.59695.45164-4.12124 1.18556-4.12124.28228 0 .33874 1.18556.16937 2.6534Z"/>
        <path id="Graphic_853" fill="#f3f3f3" d="M238.51267 267.90547c0 3.04859-.79037 3.27441-1.97594.5081-.95973-2.31467-.73393-3.04859.90329-3.04859.90328 0 1.07265.39518 1.07265 2.54049Z"/>
        <path id="Graphic_852" fill="#f3f3f3" d="M230.83474 267.7361c.45164 1.86303.39519 5.53263-.11291 5.53263-.56455 0-1.80657-3.38733-1.80657-4.91163 0-2.08884 1.35494-2.54048 1.91948-.621Z"/>
        <path id="Graphic_851" fill="#f3f3f3" d="M234.89953 268.01838c1.58075 2.08885.45164 5.87136-1.41139 4.74225-.79037-.5081-1.86302-4.51643-1.41138-5.25035.5081-.79038 2.03239-.5081 2.82277.5081Z"/>
        <path id="Graphic_850" fill="#f3f3f3" d="M136.72367 269.31685c.22582 1.18555-.73392 2.48405-1.46784 2.03239-.33873-.22582-.62101-1.01619-.62101-1.80657 0-1.07265.28228-1.41137.95974-1.24201.56455.11291 1.07265.56454 1.12911 1.01619Z"/>
        <path id="Graphic_849" fill="#f3f3f3" d="M208.02678 304.0369c.28228.79037.95974 1.41138 1.52429 1.41138 1.46783 0 3.55669 2.25822 3.55669 3.83896 0 .79036-.73392 2.76631-1.69366 4.40352-.90329 1.6372-1.91948 4.23414-2.25821 5.70199-.28229 1.46785-.95975 4.12125-1.41139 5.8149-2.25821 8.24248-3.6696 14.96065-3.6696 17.21888 0 1.35493-.5081 3.72607-1.07265 5.30681-.62101 1.52429-1.91948 5.87136-2.93568 9.65386l-1.80657 6.88756 1.24202 1.58074c1.41138 1.9195 1.52429 4.0648.33873 5.081-1.07265.90327-4.40352.28226-5.70199-1.0162-.56456-.5081-1.75011-.95975-2.70986-.95975-1.24201 0-1.80657-.28228-1.91948-1.0162-.39518-1.91948.39518-3.66959 1.75012-3.89542.95974-.11291 1.24202-.56453 1.35493-2.1453.28227-3.61313 1.35493-12.08143 2.1453-16.65433.90329-4.96807 1.46783-8.8635 2.87923-19.4771.5081-3.8954 1.18556-7.9602 1.46783-9.14576.56456-1.97594.5081-2.14531-1.75011-4.29061-2.6534-2.54049-2.93568-4.23415-1.12912-6.60528 1.0162-1.24201 1.5243-1.46785 3.10505-1.18555 1.0162.2258 1.97595.1129 2.20176-.22583.16937-.28227 1.18557-.56457 2.25822-.56457s2.08884-.28226 2.25821-.56454c.62101-.95974 1.41138-.62101 1.97594.84684Z"/>
        <path id="Graphic_848" fill="#f3f3f3" d="M169.8065 305.33537c1.69366 1.86303 2.20176 4.06478 1.24202 5.58908-.5081.73392-.95974 2.42758-.95974 3.72605-.16937 4.1777 2.08885 16.5414 5.19389 28.3406.62101 2.48402 1.58075 8.29892 2.08885 12.92826.90328 7.67794 1.07265 8.41184 2.20176 8.91994.73392.33874 1.58075 1.35494 1.86302 2.3147.84684 2.3711-.95973 4.9116-3.50022 4.85514-3.04859-.11291-7.28275-1.29847-7.90375-2.25821-.79038-1.29848 0-3.78253 1.35492-4.1777.79038-.28228 1.0162-.67747.79038-1.29847-.22583-.56456-.67747-3.1615-1.12911-5.87136-.39519-2.70986-1.6372-7.28274-2.70985-10.16196-2.82277-7.50857-6.09718-18.00926-6.04073-19.53354 0-.6775-.39519-2.20178-.90328-3.38734-1.63721-3.89542-3.04859-8.52476-3.04859-9.93614 0-1.07265-.39519-1.52429-1.35493-1.80657-1.69366-.39519-3.38732-2.20175-2.87922-3.04859.16936-.28226.45164-1.29846.621-2.1453.45165-2.54049.62101-2.76632 2.82278-3.21796 1.80656-.33873 2.2582-.16937 3.10504.95974.95974 1.24202 1.07265 1.24202 1.75011.28228 1.46785-1.91948 5.98427-2.65342 7.39565-1.07265Z"/>
        <path id="Graphic_847" fill="#f3f3f3" d="M196.34052 372.85597c.67746.45163 2.87922 1.12911 4.91162 1.46783 1.97593.33874 4.06478.9033 4.57288 1.1291 1.69366.9033.95974 2.87924-1.75012 4.7987-1.41138.95976-2.93567 2.59697-3.38732 3.5567-.79038 1.75012-1.01619 1.86303-2.99213 1.5243-5.02453-.7339-8.86349-4.1777-8.86349-7.90375.05645-1.86302.73392-2.99215 2.82277-4.40351 1.69366-1.18557 3.04859-1.24204 4.68579-.16937Z"/>
        <path id="Graphic_846" fill="#f3f3f3" d="M179.40391 375.4529c2.99214 3.3309 1.46784 6.66175-4.40351 9.54097-4.2906 2.1453-4.85516 1.97593-6.60528-2.1453-.56455-1.35493-1.58075-3.1615-2.20176-4.06477-.95974-1.35495-1.01619-1.63722-.28228-1.63722.5081 0 .90329-.33874.90329-.79038 0-.79037 3.38733-2.31467 6.21009-2.82277 2.6534-.45163 4.7987.22583 6.37945 1.91947Z"/>
        <path id="Graphic_845" fill="#f3f3f3" d="M164.89489 379.5177c.90328 1.35493 2.20176 3.5567 2.87922 4.96807l1.24202 2.54049-1.5243 1.24204c-.84683.621-3.10503 2.03237-5.08098 3.04857l-3.61314 1.80657-1.29847-1.6372c-.73392-.90329-1.69366-2.42758-2.0324-3.33087-.39518-.95974-1.18556-2.31467-1.75011-3.04857-1.75012-2.25823-1.35493-3.89544 1.12911-4.5729 1.1291-.33873 3.21796-1.18556 4.62933-1.9195 1.41139-.7339 2.82277-1.3549 3.1615-1.41137.33873-.05645 1.35493 1.0162 2.25822 2.31467Z"/>
        <path id="Graphic_844" fill="#f3f3f3" d="M211.58347 379.23542c1.6372.50808 3.89541 1.52428 5.02453 2.25822 2.08884 1.24202 2.08884 1.29846 1.29847 3.10506-.45165 1.1291-1.24202 1.91946-1.91949 2.03238-1.18556.16936-1.69366 1.24202-.62101 1.24202.33873 0 .56456.28227.56456.56455 0 .90328-2.37113 3.95185-3.04859 3.95185-.28228 0-3.04859-1.18554-6.09718-2.6534-5.36326-2.54047-5.58908-2.7663-5.41971-4.34704.11291-1.24202.95974-2.31466 3.55668-4.34706 1.86303-1.46784 3.44377-2.70986 3.55669-2.70986.11291-.05644 1.5243.39519 3.10505.90328Z"/>
        <path id="Graphic_843" fill="#f3f3f3" d="M151.00687 382.50983c0 1.0162-1.41138 1.75012-4.45997 2.48404-3.1615.67746-2.87922-.11291.67746-1.80657 3.50024-1.7501 3.78251-1.7501 3.78251-.67747Z"/>
        <path id="Graphic_842" fill="#f3f3f3" d="M226.26186 383.8083c2.37112 1.0162 2.37112 1.07266 1.07264 1.75012-1.1291.62101-1.80656.50808-4.4035-.50809-1.69367-.67747-3.0486-1.46783-3.0486-1.63723 0-1.52427 2.37113-1.3549 6.37946.3952Z"/>
        <path id="Graphic_841" fill="#f3f3f3" d="M152.53117 385.89716c.22582.73392-4.1777 2.54049-6.21009 2.54049-2.59695 0-1.75012-1.46785 1.46784-2.37115 3.21795-.9597 4.45997-1.01617 4.74225-.16934Z"/>
        <path id="Graphic_840" fill="#f3f3f3" d="M224.39883 387.02626c1.69367.90329 2.25821 1.97594 1.0162 1.97594-1.18557 0-6.66173-1.97594-6.66173-2.4276 0-.7339 3.95187-.39517 5.64553.45166Z"/>
        <path id="Graphic_839" fill="#f3f3f3" d="M153.999 388.71992c.11292.79038-5.13743 3.21798-6.54882 2.99214-2.20175-.33873-1.52429-1.29846 1.69367-2.54049 3.44377-1.29847 4.68579-1.41137 4.85515-.45165Z"/>
        <path id="Graphic_838" fill="#f3f3f3" d="M222.4229 389.56675c2.6534 1.12911 3.1615 2.37115 1.07265 2.70985-1.24202.1694-6.43592-1.97593-6.43592-2.6534 0-1.5243 1.91949-1.5243 5.36327-.05645Z"/>
        <path id="Graphic_837" fill="#f3f3f3" d="M155.35393 391.59915c.22583.79035-6.21008 3.10505-6.83109 2.48405-.67747-.6775-.73392-.62103 2.76631-2.08887 2.93568-1.24203 3.78251-1.29847 4.06478-.39518Z"/>
        <path id="Graphic_836" fill="#f3f3f3" d="M223.1568 394.93c-.28226 1.75013-1.91947 1.6372-4.7987-.39517-1.52429-1.0162-2.82276-1.91949-2.93567-1.97593-.05646-.05647 0-.33874.16937-.67748.22582-.33872 1.7501-.05645 4.00833.67748 3.04858 1.0162 3.66959 1.46783 3.55667 2.3711Z"/>
        <path id="Graphic_835" fill="#f3f3f3" d="M157.10405 394.1961c-.33873 1.07264-5.3068 3.50022-6.323 3.10504-1.46784-.56454-1.07265-1.41139 1.24202-2.59694 2.37113-1.2985 5.41971-1.58076 5.08098-.5081Z"/>
        <path id="Graphic_834" fill="#f3f3f3" d="M215.0837 394.64774c.16936.28226.621.39516 1.0162.22582.39518-.11291 1.69365.79037 2.93567 2.03239 1.91948 1.91948 2.03239 2.25821 1.0162 2.25821-1.80657 0-6.323-3.27441-6.37946-4.68579 0-.56457 1.01619-.5081 1.41139.16937Z"/>
        <path id="Graphic_833" fill="#000" d="M171.78244 91.87768c-1.52429.16936-2.42758.67746-3.27441 1.86302-1.46783 2.08885-1.41138 3.1615.28227 4.79871 1.4114 1.41138 4.0648 1.80657 6.94402 1.07265 1.41138-.39519 2.93568-2.87922 2.93568-4.74225 0-1.12911-3.0486-3.50023-4.23416-3.27441-.28227.05646-1.52429.16937-2.6534.28228Z"/>
        <path id="Graphic_832" fill="#f3f3f3" d="M176.29887 93.51488c2.70986 1.86303.62101 5.30681-3.27441 5.30681-2.1453 0-4.51643-1.46784-4.51643-2.70986 0-.84683 2.03239-2.42758 3.72605-2.93568 2.37112-.67746 2.65341-.67746 4.06479.33873Z"/>
        <path id="Graphic_831" fill="#000" d="M187.2512 92.72451c-1.7501 1.75011 0 6.21009 2.76632 7.16983 2.70986.95974 4.12124.73392 5.41971-.67747 2.14531-2.37112 2.08885-2.6534-.39518-4.96807-1.97595-1.86303-2.76632-2.20176-4.74225-2.20176-1.29848 0-2.6534.28228-3.0486.67747Z"/>
        <path id="Graphic_830" fill="#f3f3f3" d="M194.30813 94.41817c1.58075 1.46784 1.6372 2.76631.22582 4.06478-.79038.73392-1.58075.90329-2.82277.62101-2.6534-.56455-5.02453-4.17769-3.61314-5.53262.90328-.90329 4.91161-.33874 6.21009.84683Z"/>
        <path id="Graphic_829" fill="#000" d="M180.47657 103.90267c-.62101 2.54049-.45165 2.82276 1.58075 2.82276 2.76631 0 3.61314-2.03239 1.69366-3.95187-1.69366-1.69366-2.59695-1.35493-3.27441 1.12911Z"/>
        <path id="Graphic_828" fill="#f3f3f3" d="M183.41224 104.18494c.16936.5081-.05645 1.0162-.56454 1.24202-1.07266.39519-1.58076-.11291-1.18557-1.24202.45164-1.07265 1.29847-1.07265 1.75011 0Z"/>
      </g>
    </g>
  </g>
</svg>