<svg id="Слой_1" data-name="Слой 1" xmlns="http://www.w3.org/2000/svg" viewBox="0 0 280.19 264.23"><path d="M303.31,340.59c0,3.89,0,7.52,0,11.15a6.5,6.5,0,0,0,2.92,5.68c12.15,8.81,24.25,17.7,36.36,26.56a9.62,9.62,0,0,0,2.27,1.63,5.84,5.84,0,0,0,3.48.39c4.92-1.77,9.73-3.83,14.62-5.68,1.75-.67,2.11-1.85,1.9-3.49-1.28-10,1.52-19,7.68-26.8a35.23,35.23,0,0,1,24-13.49,36.44,36.44,0,0,1,40.23,28.36c3.18,14.79-1.43,27.41-13.33,36.79-17.08,13.47-41.2,9.21-53-9.06-1-1.59-2-2-3.8-1.26-4.83,2-9.77,3.72-14.58,5.76a5.16,5.16,0,0,0-2.67,2.69c-5.18,14.81-10.2,29.68-15.35,44.5a3.86,3.86,0,0,0,.67,4.22c3,3.64,6,7.28,8.8,11.07,1.41,1.91,2.81,2,4.85,1.23,10-3.86,19.91-3.72,29.53.91,11.48,5.51,18.24,14.81,20.3,27.36a36.42,36.42,0,0,1-28.18,41.64c-14.51,3-26.71-1.43-36.28-12.73a35.22,35.22,0,0,1-8.45-23.61A36.26,36.26,0,0,1,334,470.94c.47-.56.87-1.18,1.39-1.88-3.88-4.86-7.7-9.72-11.64-14.48a3.33,3.33,0,0,0-2.33-.88q-23.79-.07-47.59,0A4,4,0,0,0,271.1,455c-3.76,4.66-7.38,9.43-11.13,14.28.8,1,1.59,2.1,2.41,3.15A35.35,35.35,0,0,1,270,498.11c-1.55,17.35-15,30.22-30.39,33a36.73,36.73,0,0,1-21.36-69.68c9.34-4.28,18.88-4.18,28.41-.65,3.67,1.35,3.56,1.09,5.61-1.63,2.58-3.45,5.17-6.89,8-10.18a4.79,4.79,0,0,0,.91-5.19c-3.63-10.31-7.2-20.63-10.8-30.94-1.5-4.31-2.94-8.64-4.58-12.89a4.82,4.82,0,0,0-2.23-2.51c-5.14-2.29-10.39-4.34-15.56-6.58-1.4-.6-2.14-.1-2.8,1-5.7,9.55-14.18,15.18-25,17.13-10.41,1.88-19.92-.74-28.26-7.17A36.13,36.13,0,0,1,158,378.47c-2.75-16.29,6.45-32.72,21.92-39.26,21.24-9,45.46,3.59,49.95,26.11a51.9,51.9,0,0,1,.49,11c0,2.08.61,3.22,2.53,4,4.68,1.83,9.32,3.77,13.95,5.73a3.37,3.37,0,0,0,3.73-.43q19.24-14.21,38.58-28.3a6.23,6.23,0,0,0,2.88-5.83,60.67,60.67,0,0,1,0-8.09c.16-2.19-.71-3.13-2.77-3.59A34.6,34.6,0,0,1,274,332c-7.6-6.57-12.05-14.83-12.8-25-.93-12.54,3.69-22.81,13-31a34.93,34.93,0,0,1,19.71-8.39c20.26-2.21,36,12.62,39.52,28.2,2.71,12-.17,22.63-8.13,31.92a38,38,0,0,1-21.17,12.47A3.61,3.61,0,0,0,303.31,340.59Zm-5.89,100.93c5.8,0,11.61.06,17.41,0,7.31-.08,6.12,1.16,8.65-6.09,4.39-12.58,8.69-25.2,13.11-37.78.64-1.84.36-3-1.31-4-2.32-1.48-4.5-3.18-6.72-4.81q-14.47-10.64-28.92-21.29a3,3,0,0,0-4.14-.05q-18,13.33-36.06,26.56a2.51,2.51,0,0,0-1.1,3.37q7.49,20.91,14.82,41.87a2.91,2.91,0,0,0,3.21,2.31C283.39,441.46,290.41,441.52,297.42,441.52Zm89,52.06a24.51,24.51,0,1,0-49,2.33,24.51,24.51,0,1,0,49-2.33Zm-177.55,1.27c-.36,12,9.21,24.54,23.81,24.71a24.68,24.68,0,0,0,1.12-49.35C220.44,469.91,208.59,481,208.87,494.85ZM425.24,373.1a24,24,0,0,0-24-24.68,24.46,24.46,0,1,0,.17,48.91A24.12,24.12,0,0,0,425.24,373.1ZM297.63,279.79a24.6,24.6,0,0,0-24.33,24c-.16,12.91,9.49,24.87,24.27,24.79A24.18,24.18,0,0,0,322,305.29C322.62,291,311,279.39,297.63,279.79ZM194,397.35a24.23,24.23,0,0,0,24.38-24.57c-.18-13.92-10.42-24.18-24.12-24.39-13.55-.21-24.35,10.91-24.46,24.76C169.73,386.17,180.89,397.33,194,397.35Z" transform="translate(-157.5 -267.45)"/></svg>