<?xml version="1.0" encoding="utf-8"?>
<!-- Generator: Adobe Illustrator 19.2.0, SVG Export Plug-In . SVG Version: 6.00 Build 0)  -->
<svg version="1.1" id="Layer_1" xmlns="http://www.w3.org/2000/svg" xmlns:xlink="http://www.w3.org/1999/xlink" x="0px" y="0px"
	 viewBox="0 0 410.9 608.9" style="enable-background:new 0 0 410.9 608.9;" xml:space="preserve">
<style type="text/css">
	.st0{fill:none;stroke:#000000;stroke-width:5;stroke-miterlimit:10;}
	.st1{fill:#FFFFFF;stroke:#000000;stroke-width:6;stroke-linejoin:round;stroke-miterlimit:10;}
	.st2{fill:#FFFFFF;stroke:#000000;stroke-width:6;stroke-linecap:round;stroke-linejoin:round;stroke-miterlimit:10;}
	.st3{fill:none;stroke:#000000;stroke-width:6;stroke-miterlimit:10;}
	.st4{fill:#FFFFFF;stroke:#000000;stroke-width:5;stroke-miterlimit:10;}
	.st5{fill:#FFFFFF;stroke:#000000;stroke-width:6;stroke-miterlimit:10;}
</style>
<g>
	<path class="st0" d="M107.6,201.7c0,0,0,0.1,0.1,0.3c0,0,0,0,0,0C107.7,202,107.7,201.8,107.6,201.7z"/>
	<path class="st1" d="M344.6,561.5c-0.2-0.4-0.2-0.6-0.4-1c-3.2-7.7-12.3-11.2-20.4-8.3c-0.9,0.3-1.9,0.6-2.8,0.9
		c2.2-0.7,0.5-10.9,0.3-12.4c-1.4-9.7-2.2-12.3-3-18.6c-0.9-7.2-2-14.3-3.3-21.4c-2.7-14.8-6.2-29.5-10.6-43.9
		c-2.6-8.3-5.4-16.5-8.8-24.5c-0.1-0.3,1-3.1,1.2-3.2c11.9-9.8,16.1-27.2,22.6-42.2c10.8-23.2,17.1-50.6,17.1-79.9
		c0-21.7-3.5-42.4-9.7-61.1c0,0-0.1,0-0.1,0c1.6,0,3.2-12,3.4-13.5c1-6.9,1.6-13.9,1.9-20.9c0.5-11.1,0.4-22.2-0.1-33.3
		c-0.7-15.9-2.1-31.7-4-47.4c-1.7-14.2-3.8-28.4-6.1-42.5c-2.1-12.5-8.6-23-20.1-18.4c-8.1,3.3-11.9,16-15.7,41.6
		c-1,6.8-1.7,13.9-2.3,21.1c-1.5-29.3-4.1-58.1-8.2-77.2c-3.1-14.6-7-26.7-22.6-24.4c-10.9,1.6-13.3,21.6-17.5,51.8
		c-1,7.2-1.8,15.3-2.4,23.9c-1.9-32.1-5-61.5-10-77.6c-4.4-14.2-6.2-25.5-21.2-20.4c-6.9,2.3-14.8,17.7-19,47.9
		c-4.5,32.5-4.9,65.3-5.2,98c0.1-8-1.8-16.3-2.3-24.3c-0.5-8.9-1.1-17.8-1.9-26.7c-1.3-15-2.8-30.1-6-44.8c-3.1-14.6-6.1-24-19-21.9
		c-7.7,1.3-12.6,9-18.5,32.4c-0.8,3-1.6,5.9-2.1,8.9c-1.7,9-2.9,18.1-3.8,27.2c-2.9,29.6-2.1,59.4-0.7,89.1
		c0.5,11.6,0.7,23.4,1.5,34.8c0.6,9.3-2.8,24.9-4,29.3c0.7-5.5-0.7-56.6-13.8-81.5c-7.4-13.9-17.5-28.3-31.8-35.5
		c-7.3-3.7-17.5-5.9-23.9,0.7c-6.3,6.4-7.3,18.7-3,26.5c12.9,23.4,14.8,49.4,18.1,74.9c2,15.2,4.6,30.5,3.7,46
		c-1.2,19.7-0.9,39.3,2.4,59c4.7,28.7,17.3,52.1,41.9,68.5c8.3,5.6,11.9,8.2,12.4,13h0.3c-6,13.2-20,58.6-23.5,121.6l0.2,0
		c0,0.4,0.1,0.8,0.2,1.3c-0.4-0.1-0.9-0.3-1.3-0.4c-8.1-2.9-17.2,0.6-20.4,8.3c-0.2,0.4-0.2,0.6-0.4,1c-3.2,7.7,1.4,17,10.2,20.2
		c82.6,26,159.9,26,242.5,0C343.3,578.4,347.8,569.1,344.6,561.5z"/>
	<path class="st2" d="M127.2,429.4c-2.2-0.9-20.3,47.3-24.4,123.2l1,2C105,579.5,210,581.7,210,581.7c1.3,0,2.6,0,3.9,0
		c63.7-0.6,108.1-28.4,108.1-28.4c-4.2-75.9-25.3-123.9-25.3-123.9s-39.8,14.2-87.1,14.9C183.6,444.6,154.6,441.1,127.2,429.4z"/>
	<g>
		<g>
			<circle class="st3" cx="182" cy="548.8" r="9.5"/>
			<circle class="st3" cx="244.6" cy="548.8" r="9.5"/>
		</g>
		<g>
			<circle class="st3" cx="183" cy="507.4" r="9.5"/>
			<circle class="st3" cx="242.5" cy="507.4" r="9.5"/>
		</g>
		<g>
			<circle class="st3" cx="184.1" cy="466" r="9.4"/>
			<circle class="st3" cx="239.2" cy="466" r="9.4"/>
		</g>
	</g>
	<path class="st4" d="M210.8,444.2c0,0,10.2,72.7,3.2,133.3"/>
	<path class="st3" d="M321.4,230.8c-6.6-20.3-14.9-24.5-20.4-26.4c-13.1-4.5-14.3,28.2-12.2,39.4c-3.1-13.5-16.1-37.4-29.5-37.9
		c-15.1-0.5-23.8,31.5-23.3,46.5c-2.1-15.5-14-50-29.7-48.6c-15,1.4-26.7,41.8-27.5,46.9c0.3-4.5-4.9-51.8-20.5-52.3
		c-14.2-0.5-27.4,29.4-31,40.8c-0.5,1.6,18.3,5.8,19.6,6.1c29,6.7,59.1,9.7,88.8,8c19-1.1,38.4-4.6,56.9-9.1
		C298.8,242.8,322.4,233.9,321.4,230.8z"/>
	<path class="st0" d="M114.3,279.6c0,0,114.4,42,216.6-15.2"/>
	<path class="st0" d="M114.3,325.7c0,0,115.6,43.9,221-10.4"/>
	<path class="st0" d="M122.9,372c0,0,113,48.3,204-9.1"/>
	<path class="st3" d="M126.5,237.5c-36.2,92.9,15.4,197.2,15.4,197.2c24.2,5.4,75.5,21.1,154.5-6.1c7.3-5.7,66.5-92.8,25.1-196.9"/>
	<path class="st0" d="M123.6,105.8c0.9-1.3,15.6,17.2,49.1-1.3"/>
	<path class="st0" d="M121.9,171.6c5.7,1.4,21.2,14.3,54.8-2"/>
	<path class="st0" d="M179.4,97c2.6-1.3,21.1,20.6,51.3-0.1"/>
	<path class="st0" d="M176.8,163.5c2.6-1.3,25.7,22.7,56-4.9"/>
	<path class="st0" d="M59,202.6c3.3-2,16.1,19.1,56.1-4.3"/>
	<path class="st0" d="M67,261c2.6-1.3,22.7,23.7,53-3.9"/>
	<path class="st0" d="M233.9,108.9c0,0,17.8,18.3,45.4-4.4"/>
	<path class="st0" d="M232.4,170.5c0,0,22,22.5,50.4-2"/>
	<path class="st0" d="M283.1,123.1c0,2.2,20.1,17.8,43.1,1.2"/>
	<path class="st0" d="M284.4,179.3c0,2.2,23.3,16.7,46.5-1.3"/>
	<line class="st0" x1="232" y1="105.8" x2="232" y2="233.3"/>
	<line class="st0" x1="176.7" y1="152.9" x2="179.4" y2="247.9"/>
	<line class="st0" x1="282.8" y1="132.5" x2="284.4" y2="231.4"/>
	<path class="st0" d="M68.5,311.6c2,3.3,28,21.8,46.6,8"/>
	<path class="st0" d="M75.1,365.2c1,3.2,27,18.7,45.9,7.9"/>
	<g>
		<path class="st0" d="M137.7,433.5c0,0-25.4,77.3-22.8,123.8"/>
		<path class="st0" d="M149.9,435.8c0,0-26.3,76.7-23.7,123.1"/>
		<path class="st0" d="M161.7,438.2c0,0-26.3,76.7-23.7,123.1"/>
		<path class="st0" d="M162.3,472.7c0,0-15.5,65.2-12,91.2"/>
		<path class="st0" d="M162.3,529.1c0,0-4.7,19.9-3.2,36"/>
	</g>
	<g>
		<path class="st0" d="M287.2,434.3c0,0,25.4,77.3,22.8,123.8"/>
		<path class="st0" d="M275,436.6c0,0,26.3,76.7,23.7,123.1"/>
		<path class="st0" d="M263.2,439c0,0,26.3,76.7,23.7,123.1"/>
		<path class="st0" d="M262.7,473.5c0,0,15.5,65.2,12,91.2"/>
		<path class="st0" d="M262.7,529.9c0,0,4.7,19.9,3.2,36"/>
	</g>
	<circle class="st5" cx="143.5" cy="268.1" r="9.7"/>
	<circle class="st5" cx="305.5" cy="258.4" r="9.7"/>
	<circle class="st5" cx="194.7" cy="272.9" r="9.2"/>
	<circle class="st5" cx="250.5" cy="271.3" r="9.2"/>
	<path class="st0" d="M94.9,383.4c0.1,1.3,6,8.5,16.7,0.7"/>
	<line class="st0" x1="64.2" y1="165.2" x2="71.7" y2="161.8"/>
	<path class="st0" d="M200,180.5c6.6,5.2,15.8,4.6,20.5-1.4"/>
	<path class="st0" d="M144.4,187.5c6.6,5.2,15.8,4.6,20.5-1.4"/>
	<path class="st0" d="M204.7,194.2c4.5,3.6,10.7,3.1,14-0.9"/>
	<path class="st0" d="M302.4,196.3c4.5,3.6,10.7,3.1,14-0.9"/>
	<g>
		<path class="st0" d="M200.5,93.5c0,0,14.5,0.7,14.4-5.4c-0.1-3.7-4.8-4-4.8-4"/>
		<path class="st0" d="M202.2,84.8c0,0,12.7,1,12.3-5.2c-0.2-3.7-6.2-3.7-6.2-3.7"/>
		<path class="st0" d="M203.8,76.4c0,0,10.7-0.1,10.4-5.4c-0.2-3.7-6.2-3.7-6.2-3.7"/>
		<path class="st0" d="M204.4,67.6c0,0,9.7,0.2,9.4-5.1c-0.2-3.7-6.8-3.9-6.8-3.9"/>
		<path class="st0" d="M205.7,58.7c0,0,7.4,0.6,7.2-4.7c-0.2-3.7-6.2-3.7-6.2-3.7"/>
	</g>
	<g>
		<path class="st0" d="M147,166c0,0,14.5,0.7,14.4-5.4c-0.1-3.7-4.8-4-4.8-4"/>
		<path class="st0" d="M148.7,157.3c0,0,12.7,1,12.3-5.2c-0.2-3.7-6.2-3.7-6.2-3.7"/>
		<path class="st0" d="M150.3,149c0,0,10.7-0.1,10.4-5.4c-0.2-3.7-6.2-3.7-6.2-3.7"/>
		<path class="st0" d="M150.9,140.2c0,0,9.7,0.2,9.4-5.1c-0.2-3.7-6.8-3.9-6.8-3.9"/>
		<path class="st0" d="M152.2,131.2c0,0,7.4,0.6,7.2-4.7c-0.2-3.7-6.2-3.7-6.2-3.7"/>
	</g>
	<g>
		<path class="st0" d="M200.1,159.2c0,0,18,0.5,17.8-6.5c-0.1-4.2-7.4-4.4-7.4-4.4"/>
		<path class="st0" d="M201.6,148.8c0,0,16.3,0.2,16.3-5.7c0-4.2-7.4-4.4-7.4-4.4"/>
		<path class="st0" d="M203.8,139.1c0,0,14.1,0.3,14.1-5.6c0-4.2-7.4-4.4-7.4-4.4"/>
		<path class="st0" d="M205.7,129.4c0,0,12.2,0.5,12.2-5.5c0-4.2-7.4-4.4-7.4-4.4"/>
	</g>
	<g>
		<path class="st0" d="M254.2,167.8c0,0,18-0.4,17.4-7.5c-0.3-4.2-7.6-4.1-7.6-4.1"/>
		<path class="st0" d="M255.1,157.3c0,0,16.3-0.6,15.9-6.5c-0.2-4.2-7.6-4.1-7.6-4.1"/>
		<path class="st0" d="M256.8,147.5c0,0,14.1-0.4,13.8-6.4c-0.2-4.2-7.6-4.1-7.6-4.1"/>
		<path class="st0" d="M258.2,137.7c0,0,12.2-0.2,11.9-6.1c-0.2-4.2-7.6-4.1-7.6-4.1"/>
	</g>
	<g>
		<path class="st0" d="M301.3,176.5c0,0,17.1,1.7,16.5-5.2c-0.3-3.8-6.4-3.8-6.4-3.8"/>
		<path class="st0" d="M304.5,167.9c0,0,13.8,0.7,13.3-5.3c-0.3-3.8-6.5-4-6.5-4"/>
		<path class="st0" d="M306.3,158.9c0,0,11.5,0.3,11.5-5c0-3.8-6.5-4-6.5-4"/>
		<path class="st0" d="M307.6,150.3c0,0,10.3,0.3,10.2-5c0-3.8-6.5-4-6.5-4"/>
	</g>
	<g>
		<path class="st0" d="M251.1,99.9c0,0,17.1,1.9,16.5-5.6c-0.3-4.1-6.4-4.1-6.4-4.1"/>
		<path class="st0" d="M254.4,90.6c0,0,13.8,0.7,13.3-5.7c-0.3-4.1-6.5-4.3-6.5-4.3"/>
		<path class="st0" d="M256.2,80.9c0,0,11.5,0.4,11.5-5.4c0-4.1-6.5-4.3-6.5-4.3"/>
		<path class="st0" d="M257.4,71.6c0,0,10.3,0.4,10.2-5.4c0-4.1-6.5-4.3-6.5-4.3"/>
	</g>
	<g>
		<path class="st0" d="M143.8,97.5c0,0,15.5,2.6,15-6.1c-0.3-4.6-6.3-4.9-6.3-4.9"/>
		<path class="st0" d="M147.8,86.9c0,0,11.1,0.4,11-6.1c0-4.6-6.3-4.9-6.3-4.9"/>
		<path class="st0" d="M147.8,76.5c0,0,11.1,0.4,11-6.1c0-4.6-6.3-4.9-6.3-4.9"/>
	</g>
	<g>
		<path class="st0" d="M301,119.3c0,0,11.5,2,11.1-4.5c-0.2-3.4-4.6-3.6-4.6-3.6"/>
		<path class="st0" d="M303.9,111.5c0,0,8.2,0.3,8.2-4.5c0-3.4-4.6-3.6-4.6-3.6"/>
		<path class="st0" d="M303.9,103.7c0,0,8.2,0.3,8.2-4.5c0-3.4-4.6-3.6-4.6-3.6"/>
	</g>
	<path class="st0" d="M252.6,189.8c4.5,3.6,10.7,3.1,14-0.9"/>
	<g>
		<path class="st5" d="M343.7,562c3.2,7.7-1.4,17-10.2,20.2c-82.6,26-160,26-242.5,0c-8.9-3.2-13.4-12.5-10.2-20.2
			c0.2-0.4,0.2-0.6,0.4-1c3.2-7.7,12.3-11.2,20.4-8.3c75.3,23.7,146,23.7,221.3,0c8.1-2.9,17.2,0.6,20.4,8.3
			C343.5,561.4,343.5,561.6,343.7,562z"/>
	</g>
	<g>
		<line class="st0" x1="213.4" y1="226.7" x2="206.2" y2="226.7"/>
		<path class="st0" d="M198,234.8c4,7.5,14.5,8.4,23.6,2"/>
	</g>
	<g>
		<line class="st0" x1="157.7" y1="219.9" x2="150.6" y2="219.9"/>
		<path class="st0" d="M142.4,228.5c4,7.9,14.5,8.9,23.6,2.1"/>
	</g>
	<line class="st0" x1="81.6" y1="171.7" x2="67.1" y2="178.6"/>
	<path class="st0" d="M69.4,189.2c7,5.4,16.9,1.8,22.2-8.2"/>
	<g>
		<line class="st0" x1="263.3" y1="224.6" x2="256.3" y2="226"/>
		<path class="st0" d="M249.5,234.4c5.1,5.7,15.6,4.5,23.5-2.7"/>
	</g>
	<g>
		<line class="st0" x1="304.4" y1="218.4" x2="298.6" y2="220.6"/>
		<path class="st0" d="M294,228.9c5.2,4.1,14.1,1.5,19.8-5.7"/>
	</g>
	<path class="st0" d="M137.5,390c0,0,15,6.1,29.1,5.3"/>
	<path class="st0" d="M141,401c0,0,13.8,8.1,32.6,5.7"/>
	<path class="st0" d="M145.5,412.2c0,0,18.1,9.2,36.8,6.8"/>
	<path class="st0" d="M125.3,339.5c0,0,15,6.1,29.1,5.3"/>
	<path class="st0" d="M126.6,350c0,0,13.9,8.7,32.6,6.3"/>
	<path class="st0" d="M130.3,361.8c0,0,18.1,9.2,36.8,6.8"/>
	<path class="st0" d="M122.4,293.5c0,0,13.2,6.1,25.6,5.3"/>
	<path class="st0" d="M123.1,305.6c0,0,11.2,6.3,29.2,4.7"/>
	<path class="st0" d="M124.3,315.3c0,0,10.4,9.9,33.5,2.9"/>
	<path class="st0" d="M82,333.1c0,0,7.6,8.1,19.6,2.7"/>
	<path class="st0" d="M81.7,344.6c0,0,8.2,9.7,20.9,3.2"/>
	<path class="st0" d="M83.3,356.7c0,0,9.5,11.6,24.3,3.9"/>
	<path class="st0" d="M80.4,281.8c0,0,7.6,8.1,19.6,2.7"/>
	<path class="st0" d="M80,293.3c0,0,8.2,9.7,20.9,3.2"/>
	<path class="st0" d="M79.8,306.1c0,0,10.6,10.6,24.6,1.5"/>
	<path class="st0" d="M76.5,221.8c0,0,7.2,3.4,15.5-2.3"/>
	<path class="st0" d="M75.3,235.5c0,0,8.5,5.3,19.8-0.6"/>
	<path class="st0" d="M76.1,251c0,0,11.9,9.1,24.5-2"/>
	<g>
		<path class="st0" d="M248.5,303.1c45.5-4.5,73.5-23,73.5-23s1.1,5.3,1.8,11.2"/>
		<path class="st0" d="M323.9,291.3c0.7,5.6,0.7,12,0.5,15.6c-0.3,4.6-49,22.8-82,23.4"/>
		<path class="st0" d="M246,316.2c0,0,49.5-2.5,78.1-24.7"/>
		<path class="st0" d="M323.9,291.3C323.9,291.3,324,291.3,323.9,291.3"/>
	</g>
	<g>
		<path class="st4" d="M323.3,341.9c0.6-3.6,1-7.8,1-12.6c0,0-34,19.3-79.5,23.8"/>
		<path class="st4" d="M323.3,341.9c-1.7,11-5.1,16.8-5.1,16.8c-13.4,6.9-31.1,17.6-80.1,21.6"/>
		<path class="st4" d="M323.3,341.9C323.3,341.9,323.3,341.9,323.3,341.9"/>
		<path class="st4" d="M241.7,366.2c0,0,51.5-4.3,81.6-24.4"/>
	</g>
	<g>
		<path class="st4" d="M303,398.5C303,398.5,303,398.5,303,398.5c1-2.2-8.2,16.1,3.2-6.8c1.7-3.5,3.2-7.2,4.2-10.6
			c0,0-39.9,20.3-85.6,20.2"/>
		<path class="st4" d="M303,398.5c-4.8,10.5-9.8,18.8-9.8,18.8c-29.5,11.4-54.9,15.5-74.5,15"/>
		<path class="st4" d="M222.6,417.7c0,0,49.7-0.3,80.5-19.2"/>
	</g>
</g>
</svg>
