<svg id="Слой_1" data-name="Слой 1" xmlns="http://www.w3.org/2000/svg" viewBox="0 0 480.6 220.02"><defs><style>.cls-1{fill:#fff;}</style></defs><path d="M74.43,432.1c0-6.43,0-12.59,0-18.75,0-3.49.72-3.86,4.09-4.71,6.44-1.62,12.74-.4,19.07.46a3.34,3.34,0,0,0,3.73-1.54,15.35,15.35,0,0,1,13.57-6.9c12.74.12,25.49-.28,38.24-.52.84,0,2.14-.23,2.42-.76,2.27-4.33,6.37-4.62,10.44-5.06l3.18-.31c1.95-5.82,3.85-11.42,5.71-17,.14-.43-.07-1,0-1.41.36-1.62.74-3.23,1.2-4.82.33-1.1,1.14-2.16,1.15-3.24.14-11.33.16-22.67.21-34a1.8,1.8,0,0,1,.54-1.38c0,3.4,0,6.81,0,10.21q.15,12.87.39,25.74a3.63,3.63,0,0,0,.56,2.05c1.36,1.76,2.66,3.44,1.56,5.87-.15.32.25.9.4,1.36,1.15,3.64,2.28,7.28,3.48,10.9a25.64,25.64,0,0,0,1.88,4.52c.23.41,1.33.43,2,.47,3.82.18,7.65.22,11.46.5a8,8,0,0,1,6.39,3.85c1.13,1.75,5.49,1.84,6.95.29,6.64-7.06,14.45-12.15,24.22-13.35,6.1-.74,12.29-.75,18.43-1.13a4.18,4.18,0,0,0,2.36-.54c3.5-3.25,8-3.45,12.21-3.44,3.81,0,6.46-2.22,9.67-3.34a1.4,1.4,0,0,0,.66-1c.43-2.2.88-4.4,1.17-6.62.24-1.82-.42-2.69-2.54-2.56-5.4.3-10.83.28-16.23.55-2.52.13-3.9-1-4.11-3.31-.36-3.89-.5-7.81-.55-11.72,0-.59,1-1.24,1.56-1.77.2-.19.63-.13,1-.17,5.33-.62,7-2.38,8-7.72.19-1,1.41-2.61,2.25-2.68,6.64-.54,13.3-.77,20-1.08a1.18,1.18,0,0,1,.94.57,8.24,8.24,0,0,1-1.44.31c-5.66.35-11.31.66-17,1-1.4.09-3,.05-2.78,2.4,1.36,0,2.66.05,4,0,8.08-.33,16.16-.62,24.22-1.08,1.27-.08,2.49-1,3.73-1.47l-.27-1h-9.48c-.57-4.69-.31-5,3.84-5,1.17,0,2.33,0,3.5,0,2.42,0,4.23-.17,6.23-2.51,2.61-3.05,6.63-4.92,10.13-7.17,3.71-2.4,3.77-2.34,5.25,2,.69,2,1.33,3.95,1.85,6,.37,1.48,1.17,1.88,2.65,2,2.46.17,4.9.72,7.82,1.18,1.06-4.24,2.3-9.17,3.69-14.73a13.86,13.86,0,0,1,1.42,2c3,6.76,6.65,13.3,7,20.93.1,1.91,1.45,1.47,2.53,1.46q21.75-.1,43.5-.26c9.33-.07,18.67-.07,28-.37,17.47-.56,34.93-1.32,52.4-2,1.66-.06,3.33-.08,5-.09,3.88,0,6,2,6.09,5.8.06,2.84,0,5.67.08,8.5.09,2.23-.92,3.25-3.06,3.33-4.66.17-9.32.45-14,.51q-46.5.62-93,1.16c-7.17.09-14.33.33-21.49.51a6.6,6.6,0,0,0-1.11.18c-.15.27-.3.41-.29.55.16,4.11.16,4.11-4.09,4.26l-6.5.21c-1.22,0-2.53-.21-2.76,1.69,0,.37-1.34.8-2.07.83-4.08.15-8.18.43-12.24.18-3.24-.2-5.27.72-6.09,4.57a42.59,42.59,0,0,0,5.06,0c2.74-.33,3.83,1.06,4.08,3.48.13,1.27.14,2.56.19,3.67a40.17,40.17,0,0,0-4.65-.47q-22.25.45-44.48,1c-.7,0-1.4.14-2.09.22l0,.65c1.08,0,2.15.15,3.23.14,15.33,0,30.69-.54,46,.07,10.44.41,20.83,2.3,31.22,3.71,4.62.62,8,3.2,10.49,7.25,4.13,6.75,8.52,13.33,12.72,20a3.24,3.24,0,0,0,3.17,1.78,476.7,476.7,0,0,1,72,4.65c11.7,1.67,23.39,3.45,35.11,5a10.64,10.64,0,0,1,8.55,6c.86,1.6,1.59,3.91,2.94,4.43s3.44-.7,5.11-1.37,2.8-.13,3.71,1.38A327.63,327.63,0,0,1,533,481.62c4.89,12.12,9.57,24.32,14.36,36.48.29.74.69,1.43,1.19,2.46a23.35,23.35,0,0,1-2.79.46c-4.75.15-9.5.31-14.24.35q-53.25.4-106.49.75c-1.8,0-3.61-.18-5.81-.3,1.54-4.43,2.94-8.48,4.34-12.52-3.69-1.19-4.48-.86-6,2.33-7.19,15.57-19.5,23.7-36.51,24.19-4.06.12-7.52,1.58-11.27,2.33-13.24,2.67-26.48,3.27-39.31-1.94a43.18,43.18,0,0,1-19-15.32,3.43,3.43,0,0,0-3.25-1.7c-4.75.15-9.5,0-14.25.22a3.35,3.35,0,0,1-3.39-1.93c-1.54-2.65-3.21-5.23-4.82-7.84-3.91.08-7.82.11-11.73.29a3.24,3.24,0,0,0-1.78,1.09c-2.08,2.17-3.95,4.54-6.18,6.53a8.42,8.42,0,0,1-4.12,1.69c-1.61.27-3.34-.15-5,0-3.22.34-5.39-1.14-7.16-3.6-.92-1.29-2-2.48-3-3.7-2-2.44-4.09-2.26-6.11.1-4.16,4.85-8.17,9.91-12.84,14.24-6.39,5.93-14.45,8.46-23.07,9-7.43.45-14.83.22-22-2a4.53,4.53,0,0,0-3.31.2c-11.21,7-23.7,7-36.26,7-11.07,0-21.35-2.7-30.44-9-11.34-7.83-17.6-18.84-18.9-32.59-.15-1.65-.71-2.07-2.27-2.08-4.67,0-9.33-.21-14-.38a11.28,11.28,0,0,1-2.7-.44c-4.43-1.28-4.89-2.24-3.26-6.55a60.21,60.21,0,0,0,2.79-7.74,22.31,22.31,0,0,0,.14-6.38c0-.4-1.18-1-1.85-1-4-.39-4.15-.35-4.24-4.43q-.36-16.25-.56-32.49c-.08-5.84,1.16-5.38,5-5.08A10,10,0,0,0,74.43,432.1Zm188.1-73.53c1,1.36-.18,3.75,2.74,5-.77-3.63-1.4-6.63-2-9.62l-.9.13c.08,1.52.16,3,.23,4.54-.42-1.16-.83-2.33-1.25-3.49a28,28,0,0,0,0,7c.05.43.57.82.86,1.23a5.58,5.58,0,0,0,.54-1.58C262.71,360.7,262.59,359.63,262.53,358.57ZM175.35,521.11c4.41.09,8.82.24,13.23.2.83,0,1.65-.76,2.47-1.16l-.26-.84h-7.73a21.15,21.15,0,0,1,5.25-.41c3.46.07,3.46.08,3.92-2a65.4,65.4,0,0,1-7,0c-4.17-.46-7.81,0-9.83,4.28l-1.9,2.48.29.82c4.05,0,8.1.12,12.14-.08,1.08-.06,2.11-1.11,3.16-1.7l-.3-.84c-2.11,0-4.23.09-6.34,0C180.07,521.64,177.71,521.34,175.35,521.11Zm205.78-81.45c-3.36-2.22-6.41-4.87-10.89-5-11.22-.29-22.44-1.12-33.66-1.23-6.38-.06-12.77.84-19.15,1.42a3.14,3.14,0,0,0-2.07,1.38c-3,5.09-5.82,10.28-8.77,15.4-7.49,13-15,25.93-22.55,38.83-1.86,3.16-4.09,6.1-6.15,9.13l.5.45a19.34,19.34,0,0,0,1.82-1.8c3.54-4.53,7.51-8.79,10.46-13.67,9-14.88,17.63-30,26.28-45a5.26,5.26,0,0,1,4.79-3.07,334.07,334.07,0,0,1,45.19.22,18.72,18.72,0,0,1,12.92,5.81c7.07,7.27,14.37,14.33,21.66,21.39a5.72,5.72,0,0,0,3.54,1.78c11.06-.5,22.12-1.2,33.17-1.89a15.6,15.6,0,0,0,2.86-.73,2.38,2.38,0,0,0-1.81-.55c-10.66.31-21.32.59-32,1a6.62,6.62,0,0,1-5.46-2.32C395,454,388.05,446.8,381.13,439.59a6.28,6.28,0,0,0-.8-1.94c-1-1.1-2.24-2-3.3-3a11.73,11.73,0,0,0-9.15-3.8c-2.16.1-4.33-.27-6.49-.28-13.73-.1-27.47-.14-41.2-.21-2.37,0-3.64,1.07-3.9,3.46,5-.43,9.74-1,14.54-1.21,14.08-.48,28.15-.44,42.13,1.63C376.57,434.72,379.06,436.88,381.13,439.66ZM289.27,458.6l5.51-9.67H276.93a9.56,9.56,0,0,1-2.74,8.19,30.68,30.68,0,0,1-21,9.61c-4.14.26-8.36-.67-13-1.11v28.8c8.21,0,16.53-.09,24.85.05,2.75,0,4.51-.38,6-3.21,5.86-11,12.14-21.79,18.26-32.65ZM457,460.83l0,.05a13.88,13.88,0,0,1,1.79-1.1c10-4.13,20.27-7.51,29.57-13.19,2.71-1.65,5.72-3.1,9.33-1.65l-.8-2.38L519.28,459a16.24,16.24,0,0,0-.58-1.74c-3.26-6.55-6.58-13.08-9.79-19.66-.79-1.62-1.65-2-3.31-1.25-6.82,3.1-13.69,6.08-20.52,9.14q-20.28,9.08-40.54,18.16c-2.08.93-4.22,1.74-6.55,2.7,18.19,8.29,36.18,16.14,53.87,24.64s35.15,17.66,52.88,26.62c-.31-.37-.49-.63-.71-.84-7.26-7.1-14.61-14.11-21.76-21.32-8.2-8.27-16.11-16.83-24.35-25.05C492,464.54,485.83,459,479.7,453.37a2.61,2.61,0,0,0-2.19-.11c-3.28,1.17-6.51,2.52-9.79,3.73C464.15,458.32,460.55,459.56,457,460.83ZM276.19,498.09c15.74-20,25.88-42.79,38.17-64.35-13.29,20.24-24.11,42-38.3,61.68a2.34,2.34,0,0,1,.39-1.33c3.14-5,6.43-9.91,9.42-15,8.44-14.43,16.86-28.89,25.08-43.45,2.61-4.61,5.85-7.22,11.41-7.08,15.56.4,31.13.62,46.71.74a11.8,11.8,0,0,1,9,4.1c8.3,8.87,16.63,17.71,24.87,26.63a5.44,5.44,0,0,0,4.58,1.93c10.4-.35,20.81-.58,31.22-.92,2.44-.08,4.87-.42,7.79-.68-.73-.79-1-1.18-1.37-1.48-10.73-8.83-21.44-17.7-32.23-26.45-2.05-1.65-4.3-3.43-6.75-4.11A62.2,62.2,0,0,0,392.89,426c-17.63-1-35.27-1.89-52.92-2.47-7.64-.25-15.31.24-23,.6a10,10,0,0,0-8.84,5.53c-4.06,7.46-8.5,14.7-12.62,22.12-5.46,9.82-10.7,19.76-16.15,29.59-2.41,4.34-5.11,8.52-7.75,12.91Zm-64.26-2.88h7.34a12.45,12.45,0,0,1-5.17.57c-2.5-.23-4.45.07-4.49,3.2,0,.1-.4.19-1.16.51a8,8,0,0,1,.53-2.38c.93-1.47,2.2-2.75,3-4.28a4.61,4.61,0,0,0,.43-3.32c-5.15-13.18-10.32-26.35-15.71-39.42-2.83-6.85-6-13.63-11.24-19a12.73,12.73,0,0,0-5.58-2.78,21.09,21.09,0,0,0-6-.4q-28.47.71-56.94,1.58a7.35,7.35,0,0,0-3.75,1.65c-1.94,1.43-3.66,3.15-5.49,4.71-17.21,14.68-26.92,34-34,54.93-.63,1.86-.22,2.74,1.8,3.1s2.8-.44,3.48-2.18c2.58-6.58,5-13.26,8-19.62,4.33-9,9-17.88,16.56-24.75,4.13-3.74,8.18-7.59,12.43-11.19a7.65,7.65,0,0,1,4.4-1.82c17.41-.39,34.82-.49,52.22-1,5-.14,8.17,1.26,10.23,6.12,2.74,6.5,6.75,12.49,9.26,19.06,5.18,13.52,9.75,27.27,14.51,40.95a2.41,2.41,0,0,0,2.72,1.91c6.07-.18,12.15-.26,18.23-.41a8.67,8.67,0,0,0,1.58-.3V436.48h-37c1.08,4.36,1.54,4.62,5.56,4.55,6.83-.11,13.66,0,20.49-.17,2.07,0,2.81.85,2.85,2.81.34,16.33.73,32.64,1.08,49a26.21,26.21,0,0,1-.22,2.79l-.52,0c-.18-1.17-.36-2.35-.58-3.84C217.9,492.8,213.77,489.75,211.93,495.21Zm108.36,32.31,3.66-4.28.43.37L321.16,528a46.72,46.72,0,0,0,17.76,8.58c.54-1.68,1-3.13,1.49-4.59l.39.14c-.25,1.5-.49,3-.79,4.77,6.6.53,12.85,1,19.25-.41-.33-1.81-.61-3.37-.9-4.93l.46-.1c.46,1.46.91,2.93,1.36,4.37,15.44-3.77,29.16-16.57,32.43-33.08l-5.75-1.42.14-.6,6.34,1.24V486.23l-5.57,1a9.46,9.46,0,0,1,4-1.44c1.37-.16,1.73-.76,1.38-2a51,51,0,0,0-7.29-15.58l-4.65,3.18-.33-.48,4.66-3.81-8.94-9-3.64,4.5-.44-.36c.95-1.5,1.91-3,2.84-4.45-4.75-4.09-13.62-7.74-18.27-7.59-.3,1.55-.61,3.1-.92,4.66l-.68-.14A15.43,15.43,0,0,1,356,452c.71-1.79.08-2.47-1.71-2.5a73.51,73.51,0,0,0-8-.1c-3.58.34-7.11,1.11-10.74,1.72.6,2,1,3.31,1.44,4.67l-.48.16-1.94-4.17A49.94,49.94,0,0,0,317,463.43c1.44.91,2.59,1.64,3.75,2.36l-.46.48-3.33-2.67a50.64,50.64,0,0,0-9.75,17.57l4.06,1.3-.11.41-4-.68c-3.54,9.81-1.15,27.29,5.23,35.3l3.55-2,.25.43-3.59,2.87ZM113.05,426.63l.13-.66c8.75,0,17.49,0,26.24,0,13.07,0,26.15.17,39.22.14,4.48,0,7.5,2.32,10.11,5.52a11.37,11.37,0,0,1,1.17,2.34l.87-.86c.63-10.24.77-20.56,5.87-30a4.48,4.48,0,0,0-.93-.24q-40.11,0-80.23,0c-1.36,0-1.92.52-2.07,1.86-.75,6.52-1.61,13-2.34,19.55a49.69,49.69,0,0,0,0,5.23l3.8-2.59Zm22.28,111.14,18.15-2.39c-.86-2.27-1.45-3.81-2-5.35l.58-.24c.73,1.52,1.46,3,2.17,4.52,15.1-5.38,26.11-19.25,28-33.8l-5-1.14.11-.44,5.35.87V484.08l-5.83,1.19-.14-.56,5.79-1.61c-1.45-5.94-3.29-11.46-6.67-16.6l-4.66,3.27-.36-.53,4.61-3.52a39.74,39.74,0,0,0-12.16-11.22l-3.36,4.39-.44-.36,2.83-4.5c-4.73-3.24-12.72-5.81-16.53-5.39l-.83,4.66-.56-.09c.14-1.6.28-3.2.44-5a44.51,44.51,0,0,0-19.86,3.12l1.22,3.5-.65.25-1.58-3.29a44.61,44.61,0,0,0-14.61,9.82l2.72,3.14-.83.77-2.37-3.28A43.63,43.63,0,0,0,96.56,486l4,1-.06.36-4-.41a42.42,42.42,0,0,0,.67,17.42l4-1,.14.48-4.32,1.52c2,4.28,3.82,8.41,5.79,12.73l4.22-2.7.27.4-3.55,3.08a38,38,0,0,0,11.83,11.71l2.06-3.73.5.26-1.9,4.5,18,5.9c.09-1.53.11-2.35.19-3.17s.19-1.52.29-2.28l.55,0Zm286.16-65.24c.74,11,1.49,21.3,4.49,31.25a2.42,2.42,0,0,0,1.8,1.15c14.34,1.34,28.71,2.42,43,3.94,18.3,2,36.56,4.21,54.82,6.45,4.57.56,9.08,1.6,13.61,2.42l0-.16ZM245.47,422a16.46,16.46,0,0,1,.84-2.83c3.19-6,6.48-12,9.64-18.06a5.9,5.9,0,0,1,5.63-3.31c19.08-.56,38.14-.48,57.17,1.33,2.31.22,3.18,1.22,3.62,3.23,1,4.39,2,8.76,3,13.14.82,3.72.72,3.86-3,3.85q-30.5-.09-61-.23c-2.79,0-5.57-.26-9.22-.45l10.08-19.13c-2.61-.81-4.39-.2-5.51,2.48-1.06,2.52-2.55,4.86-3.78,7.32-1.85,3.69-3.65,7.41-5.7,11.58H330.8a.62.62,0,0,0,.08-.34c-1.77-7.8-3.51-15.59-5.39-23.36a2.68,2.68,0,0,0-1.89-1.41,72.63,72.63,0,0,0-8.94-.93q-30.09-.61-60.19-1a3.6,3.6,0,0,0-2.5,1.79c-5.19,9.67-10.28,19.41-15.38,29.14-1.64,3.12-3.26,6.26-5.12,9.85h6.18c20.41-.06,40.82-.24,61.22-.07,3.66,0,5.92-.74,7.36-4.15a11.8,11.8,0,0,1,7.85-7.14c.67-.19,1.33-.42,2-.64L316,422Zm31.21,79.08c-2.65-2.64-4.92-4.87-9.11-4.82-8.57.09-17.14-.56-25.71-.79-2.2-.05-3.12-.79-3.1-3.07.1-8.74.07-17.48.11-26.23a9.3,9.3,0,0,1,.29-1.66c2.33.11,4.64.65,6.75.22a148.14,148.14,0,0,0,16.66-4.19,19.24,19.24,0,0,0,12.14-11.78,3.46,3.46,0,0,1,2.63-1.46c5.58-.15,11.16-.09,16.74-.16.76,0,1.9-.14,2.21-.63,2-3.18,3.91-6.48,5.85-9.75-.39-.21-.53-.35-.66-.35q-34.37-.14-68.71-.18c-.58,0-1.47.9-1.67,1.54a10.81,10.81,0,0,0-.18,3.23q.12,29.1.26,58.22c0,.48.1,1,.2,1.86Zm203.73-49.41-.24,1.11c23.43,18.88,42.42,42.23,64.12,62.93a56.86,56.86,0,0,0-2.44-6.52q-9.23-22.11-18.49-44.2a6,6,0,0,0-1.9-2.47c-3-2.12-6.1-4-9.1-6.13-4.71-3.27-9.32-6.69-14.09-9.88-1.15-.76-3-1.53-4.08-1.11C489.5,447.26,485,449.55,480.41,451.68ZM254.46,417.19l.46.81h69.55c-1.27-5.45-2.51-11-3.91-16.45-.12-.5-1.19-1-1.86-1.07-2.15-.24-4.32-.25-6.48-.41a347.74,347.74,0,0,0-46.89-.63,2.77,2.77,0,0,0-2,1.05C260.31,406,257.4,411.62,254.46,417.19Zm106.7,4.67c18.08,1.46,36.15,2.85,54.21,4.4s35.88,3.83,53.74,6.91a4.13,4.13,0,0,1-1.92,1.27c-3.95,1.34-7.94,2.55-11.82,4a4.57,4.57,0,0,0-2.63,2.48c-1.42,5.46-2.56,11-3.77,16.52a15.4,15.4,0,0,0-.15,2.17c2.24.09,3.18-.86,3.59-2.83.83-4,1.75-8,2.92-11.88a5,5,0,0,1,2.52-3c8.59-3.4,17.26-6.58,25.9-9.83l9.23-3.45V428c-1.56-.39-3.09-.91-4.67-1.15-8.55-1.3-17.1-2.74-25.7-3.74-15.21-1.77-30.43-3.64-45.7-4.72-12.44-.88-25-.44-37.44-1.05C372.77,417.05,366.93,419.15,361.16,421.86Zm61.21,97.43,115.09-.76c-36-5.13-73.36-9-110.64-12.39C425.27,510.71,423.76,515.17,422.37,519.29ZM207.94,434.74c7,0,13.21-.07,19.44.05a3.52,3.52,0,0,0,3.64-2.24c6-11.51,12.09-23,18.16-34.45,2.12-4,4.26-8,6.47-12.16a49.24,49.24,0,0,1-6.9-.06c-3.79-.56-6.2,1-7.87,4.21a4.55,4.55,0,0,1-.39.64c-7.37,10.37-14.67,20.79-22.15,31.08C215.22,426.09,211.71,430.08,207.94,434.74Zm-3,66.84c-2.07-5.72-4.05-11.27-6.09-16.79-5.54-15-10.3-30.23-18.39-44.18-2-3.47-4.13-4.95-8-4.9-10.66.12-21.32-.14-32-.06-7,.06-13.91.44-21,.67,1.75,4.52,2.45,5,6.51,4.61,1.08-.1,2.16-.17,3.24-.17q19.74,0,39.47,0c1.72,0,3.43.25,4.66.35.89,2,1.48,3.65,2.29,5.16,2.52,4.7,5.61,9.14,7.57,14.05,4.85,12.12,9.27,24.42,13.7,36.71C198.89,502.52,198.7,502.58,205,501.58Zm274.79-157.5-49.48.91c.49,4.1,1,7.8,1.35,11.5.22,2,1.23,2.5,3.17,2.46,9.9-.2,19.8-.22,29.7-.38,5.13-.09,10.26-.34,15.26-.52ZM374.2,346.2c.37,4.18.73,8.13,1.06,12.08.12,1.58,1.21,1.49,2.33,1.47l37.68-.57c2.7,0,5.41,0,8.13,0-.28-4.1-.62-7.81-.73-11.53-.06-1.75-.64-2.22-2.38-2.19-14.22.23-28.44.37-42.67.54C376.65,346,375.67,346.11,374.2,346.2Zm158.58,168,.19-.32a3.22,3.22,0,0,0-.54-.45c-12.27-6.15-24.44-12.5-36.84-18.38-19.76-9.37-39.69-18.39-59.5-27.65a5.83,5.83,0,0,0-5.46,0c-2.62,1.36-5.08,3-7.65,4.56ZM198.86,503.87c1.52,3.1,3,4.62,6.35,4.49,11.31-.44,22.64-.49,34-.69q25-.42,49.95-.86a29.85,29.85,0,0,0,3.24-.4l-.07-.59H282.16v-.53h10.71v-15c-1.31.23-2.81,0-3.41.67-2.19,2.36-4.08,5-6.37,7.91h7.45c-2.81.91-5.93-.49-8.61,1l.06.92,5.81.25c-1.71.17-3.43.14-5.13.19-.64,0-1.59,0-1.83.4-1.49,2.26-3.73,1.79-5.83,1.79-17.33-.06-34.65-.22-52-.18C215.15,503.24,207.26,503.63,198.86,503.87Zm170-157.72c-1.1,0-1.92-.13-2.73-.12-7.82.12-15.64.09-23.45.45a15.65,15.65,0,0,1-10.32-2.69,40.22,40.22,0,0,0-5.09-2.65,32.22,32.22,0,0,0,1.31,8,1.86,1.86,0,0,0,1.39,1.07c4.52-.31,5.89,2.38,6.18,6.23.05.74.31,1.46.41,2.2.19,1.34.73,1.94,2.28,1.89,8.72-.27,17.45-.4,26.18-.59a3.82,3.82,0,0,0,3.84-3.95C368.89,352.82,368.88,349.67,368.88,346.15Zm-45.12,39.78h-2.84c-9.66-.07-19.31-.16-29-.22q-15.49-.09-31-.1c-1.36,0-3.27-.06-4,.74-1.44,1.68-2.23,3.91-3.53,6.36A640,640,0,0,1,325,394C324.6,391.41,324.22,388.91,323.76,385.93Zm81.26,118c3.59,0,7,.07,10.38-.08a2.23,2.23,0,0,0,1.45-1.61c-.76-10.79-1.65-21.56-2.47-32.34-.17-2.22-1.22-2.9-3.4-2.66-4.49.5-9,.91-12-3.62a3.6,3.6,0,0,0-.54.22C405.68,476.11,405.84,489.61,405,503.92Zm-33.1-88.16c-2.53-4.05-5.06-8.2-7.72-12.26-.3-.47-1.28-.63-2-.67-3.41-.19-6.82-.33-10.23-.4-3.18-.07-6.36,0-9.77,0,2,6.08,3.82,11.74,5.75,17.36.25.74,1,1.88,1.55,1.86,3.43-.12,6.89.89,10.3-.79C363.69,419,367.74,417.49,371.92,415.76Zm121.8,14.54c-11.64,4.49-23.2,8.93-34.73,13.42a2.37,2.37,0,0,0-1.32,1.3c-1.07,4-2,8-3.09,12.29l43.45-20C496.58,435,495.24,432.77,493.72,430.3ZM336.43,367.59c-.82-4.62-1.73-8.93-2.29-13.29-.24-1.9-1-2.63-2.76-2.66-.66,0-1.32-.26-2-.26-1.3,0-1.78-.56-2.11-1.86-1.29-5.17-2.72-10.3-4.18-15.43-1-3.4-2.06-6.77-3.24-10.6-4.18,3-8,5.59-11.72,8.37a4.27,4.27,0,0,0-1.14,2.39q-3.4,15.22-6.72,30.47c-.19.86-.25,1.74-.4,2.87ZM204.5,427.13C210,420.45,215.45,413.68,221,407s11.08-13.24,16.84-20.12C216.8,389.79,204.08,408.08,204.5,427.13Zm127.63-41.27c.49,2.49.7,4.22,1.17,5.87,2.51,8.8,5.1,17.58,7.64,26.38,1.19,4.14,1.4,4.29,6.08,3.38l-9.47-30.18c1.53,0,2.36-.08,3.17,0,5.29.59,10.57,1.33,15.88,1.77a6.21,6.21,0,0,1,5.12,3.38c3.64,6,7.42,11.86,10.87,17.93,1.21,2.14,2.54,2.05,4.53,1.58a10.84,10.84,0,0,0-.54-1.33c-4.63-7.41-9.19-14.87-14-22.17a7.85,7.85,0,0,0-4.14-2.77,55.28,55.28,0,0,0-8.34-1.57C344.37,387.35,338.61,386.68,332.13,385.86ZM366.93,450c4.68,3.32,9.79,6.43,14.24,10.29,2.71,2.35,5.12,4.18,8.8,3.65,0,0,.1.25.15.38-.7.13-1.39.3-2.08.36s-1.27,0-2.17,0c8.58,11.32,12.09,23.55,9.29,37.38h5.47a48.72,48.72,0,0,0,.45-17.24c-2.73-15.08-11.68-25.7-24.63-33.26C373.36,449.78,370.09,448.72,366.93,450ZM86.36,409.17v22.25H99.29c.58-6.89,1.15-13.52,1.73-20.34Zm364,30.28L421.15,436l-.12.59L446.72,458Zm-40.77-12.92-.06.7c2.64,2.15,5.23,4.37,7.95,6.41a6.23,6.23,0,0,0,3,.93c9.7.91,19.42,1.59,29.1,2.67,5.36.6,9.61-2.31,14.46-3.21l-.08-.77Zm-120-83.88c-5.47.24-11,.42-16.58.79a3.76,3.76,0,0,0-2.58,1.41c-1.62,2.42-3,5-4.4,7.54a3,3,0,0,0-.28,1.89c.5,2.62,1.2,5.2,1.66,7.82.31,1.78,1.23,2.18,2.93,2.13,8.74-.3,17.48-.48,26.22-.72.76,0,1.51-.18,2.4-.29-1.34-2.56-3-3.43-5.58-3.28-6.07.35-12.15.37-18.23.49-5,.1-5.61-.35-6-5.4a7.48,7.48,0,0,1,1.15-3.91,59.46,59.46,0,0,1,3.44-5.17c2.51,0,5.09.1,7.66,0,1.83-.09,2.63.34,2.76,2.41.21,3.35.87,6.67,1.34,10l4.12-.2ZM198.25,448.44c1.95,4.6,3.64,8.71,5.46,12.77a2.23,2.23,0,0,0,1.69,1.05q6.36.12,12.71,0c.5,0,1.4-.58,1.41-.91.09-4.35.06-8.71.06-12.9Zm-99-7.91c-1-.08-1.68-.16-2.31-.16l-16.48-.09c-6.31,0-6.31,0-6.57-6.29,0-.14-.16-.27-.25-.41-3.32,0-3.91.48-3.9,3.58,0,4.33.16,8.66.07,13,0,2.12.75,2.59,2.76,2.61,2.3,0,2.08-1.27,2-2.73,0-.89,0-1.78,0-3.06,5.84,0,11.4,0,17,0a3.71,3.71,0,0,0,2.31-.51C95.65,444.66,97.28,442.7,99.23,440.53ZM283,375.6c9.49-.42,19-.86,28.55-1.24,3.67-.15,4.45-.73,5.42-4.56-5.48-.33-10.95-.74-16.43-.93-2.25-.08-3.73-.52-3.19-2.94H284.47C283.93,369.47,283.45,372.61,283,375.6Zm42,10.5c-.18.39-.26.47-.24.54q3.92,17,7.9,34c.1.44.68,1.07,1.07,1.09,1.77.12,3.55.06,5.62.06l-9.5-35.69ZM309.15,517.23C305.42,510.49,303.06,504,303,497c-6.74-.72-6.76-.71-6.35,3.78l2.46.29-2.67.46,0,.84,4.33.26-4.23.2a22.69,22.69,0,0,0-.24,3c.16,2.45-1.06,3.4-3.36,3.45a26.27,26.27,0,0,0-2.9.41l.08.66h12.94v.44H290.32c1,2,1.76,3.7,2.68,5.33a2.22,2.22,0,0,0,1.49,1.08C299.2,517.26,303.91,517.23,309.15,517.23Zm-67.7-129.89-.85-.71-38.94,47.73.36.83c1.92-.53,4.63-.43,5.62-1.69,8.25-10.42,16.26-21,24.16-31.73C235.23,397.12,238.24,392.16,241.45,387.34Zm-42.95,46.1c-.15-11.67.19-23,8.39-32.44-6.11-.9-8.09.05-10,5.38a56.62,56.62,0,0,0-3,11c-.76,5.22-.92,10.52-1.35,16ZM84.32,431.91c.33-7.76.65-15.11,1-22.73-2.12.42-4.36.94-6.64,1.27-1.67.23-2.21,1.12-2.23,2.68-.08,4.75-.23,9.49-.34,14.23,0,1.54,0,3.08,0,4.55Zm191.84-52,.36.75,48.28-1.11c-.17-3.43-.35-3.84-3.53-3.72-13.39.5-26.78,1.07-40.16,1.83C279.43,377.75,277.81,379.12,276.16,379.9ZM112.11,404c-5.2,1.56-6.93,3.19-7.57,7a37.7,37.7,0,0,0-.79,5.64c-.1,6.35,0,12.71,0,19.38,1.34-1.23,2.49-2.4,3.75-3.43a5.29,5.29,0,0,0,2-4.88A76.53,76.53,0,0,1,112.11,404Zm228.19-6.28c1.08,1.45,1.72,3.12,2.42,3.14,6.44.2,12.89.12,19.52.12-1.78-3.58-3.25-7-8.28-7-4.76,0-9.51-.74-14.35-1.16.87,4.66.87,4.66,4.9,4.62h2.67v.28ZM192.84,498.93c-.51-4.59-4.06-1.77-6.15-3.13h5.43c-.85-3.57-3.64-1.29-5.34-2.51h4.48c-1.34-5.91-2.08-6.51-5.41-5.36-.79,6.63-1.54,13-2.33,19.62h13.33c-1.27-.94-2.94-1.59-3-2.28-.06-2.67-1.79-2.08-3.28-2.11-1.33,0-2.66,0-4,0v-.39h6.61c.36-2.17,0-3.47-2.35-3.23ZM75.55,438.6h25.38c0-.67,0-1.16,0-1.64-.23-3.47-.23-3.48-3.76-3.47s-7,.06-10.47.07H74.41Zm86.05,94.45.24.83h6.87a34.86,34.86,0,0,1-5.48.35c-1.64.06-3.27.22-4.91.34l.07.77c7.94,2.09,14.78-.35,21.05-5.51h-5.51c3-1,6.61.92,9.71-2.62h-6.83c3.06-.89,6.57.91,9.15-2.23a68.3,68.3,0,0,0-9.13-.38c-.54,0-1.2.35-1.59.14-1.91-1-3.1-.32-4.13,1.45l2.63.49c-1.94.39-4.12-.65-5.24,2.05l1.74.32C166.14,528.11,164.79,532.46,161.6,533.05Zm-62.55-77.5A160.12,160.12,0,0,0,81,493.74c2.41.84,2.31.8,3.25-1.37,3.17-7.31,6.14-14.73,9.72-21.84,2.29-4.55,5.51-8.63,8.41-13.06Zm96-13.26c.91,1.85,1.45,3.15,2.19,4.32a2.52,2.52,0,0,0,1.63,1.19c6.79-.1,13.58-.3,20.51-.48.14-1.82.26-3.44.39-5ZM99.42,454.63c4,2.21,4,2.21,7-.49.73-.67,1.48-1.33,2.25-2l12.8-10.7-3.23-4.58Zm-25-.68a13.46,13.46,0,0,1-1.68,0c-2.52-.33-3.34.7-3.08,3.23.28,2.8.13,5.65.23,8.48.24,7.05.25,7.06,7.29,6.64a2.52,2.52,0,0,0,1.83-.85c.85-1.45,1.45-3.05,2.34-5H78.1c-3.52,0-3.67-.16-3.72-3.61C74.34,459.93,74.37,457,74.37,454Zm208.74-95.21c-.32-2.79-.7-5-.8-7.21-.16-3.37.74-3.47-3.6-3.35-1.49,0-3.26.09-4.37.88-1.33,1-2.2,2.67-3.09,4.17-1.09,1.84.24,5.41,2,5.47C276.51,358.82,279.74,358.74,283.11,358.74Zm16.54,1.85,4.27-19.75-.43-.27-11.73,10.27ZM219.71,463H204.4c.77,2.06,1.37,3.86,2.11,5.6.2.46.78,1.07,1.2,1.08,4,.08,8.06,0,12,0Zm.1,47.46c2.41,5.13,6.1,7.31,11.46,6.31.57-.11,1.18,0,1.74-.07a2.77,2.77,0,0,0,1.57-.56c1.5-1.75,2.89-3.59,4.54-5.68ZM203.68,398.73l.41-.87c-1.46-.67-2.87-1.76-4.4-1.95-3.69-.46-7.44-.52-11.16-.71s-5.61,1.23-7,5.11C189,399.82,196.46,401.29,203.68,398.73Zm120.7-63.51c1.15,1.92,1.65,3.87,2.87,4.57,2.9,1.68,6.3,2.49,9.2,4.18s5.49,1.1,8.52.57a4.75,4.75,0,0,0-1.78-2.24c-3.4-1.9-7.05-3.42-10.26-5.58C330.47,335.07,328,335.16,324.38,335.22ZM265.5,510.29h-9.28v4.55a19.73,19.73,0,0,1-.29-2.47,11.83,11.83,0,0,0-.86-2.22,16,16,0,0,0-.71,2.08,8.66,8.66,0,0,0,0,1.69,9.09,9.09,0,0,1-.4-2.95,1,1,0,0,0-.51-.71,1.18,1.18,0,0,0-.87.18c-.08,1.47-.49,3.09,0,4.36a4.17,4.17,0,0,0,2.92,2.07,40.61,40.61,0,0,0,6.71,0c1.73,0,5.3-3.56,5.27-5.26,0-.5-.52-1-.8-1.5-.27.49-.54,1-.82,1.48a3.42,3.42,0,0,1-.23.34ZM389.15,518c1.71-.24,4.45.12,5-.82,2.55-4.29,4.49-8.95,6.83-13.86-2.14-.14-3.44-.32-4.74-.28-.53,0-1.38.36-1.54.77C392.84,508.4,391.08,513,389.15,518Zm41.3-159.2c-.28-2.3-.62-4.5-.8-6.71s-.23-4.57-.34-6.89h-5.24a4.77,4.77,0,0,0-.17.93c.2,2.81.42,5.62.63,8.42.37,4.9.67,5.14,5.49,4.48C430.1,359,430.17,359,430.45,358.8ZM207.35,470.34c.69,1.92,1.26,3.63,1.93,5.29.16.39.66.91,1,.92,3.34.07,6.69,0,10.19,0-.17-2.51-.29-4.3-.42-6.25Zm-11.51,41.45-.4-1c-4.22-.19-8.42-.42-12.64-.55a1.71,1.71,0,0,0-1.34.76c-.75,1.66-1.35,3.4-2,5.16h13.74v-.66l-7.21-.35c2.78-.74,5.81.45,8.46-.81l-.08-.9-12.05-.69c3.75-.22,7.47,0,11.19.07C194.27,512.81,195.06,512.15,195.84,511.79ZM75.48,452.59a92.37,92.37,0,0,1,10.16.08c3.47.4,5.1-1.33,6.37-4.33H75.48ZM344,341.13l.93-.63-5.59-15.44-.79.2c-.66,3.24-1.39,6.47-1.92,9.73-.13.84.06,2.25.61,2.59C339.35,338.94,341.69,340,344,341.13ZM174.15,400.08c-2.51-4.69-2.65-4.78-7.36-4.32a46.74,46.74,0,0,1-4.7.47c-2.56,0-3.59,1.54-4.38,3.85Zm26.32,31.25.83.2c.68-5.13.9-10.37,2.17-15.34s3.65-10,5.43-14.67C202.49,403.7,198.6,424.55,200.47,431.33Zm-125,27.26a9.37,9.37,0,0,0,1.08.15c2,0,4,0,6-.05,3.43-.05,4.77-1.23,5.49-4.83H75.49Zm144.83,18.79H210.09c.74,2,1.29,3.76,2,5.4a2,2,0,0,0,1.51.92c2.22.1,4.45,0,6.69,0ZM373.46,359.86c-.23-4.79-.43-9.21-.64-13.61-3.19-.38-3.21-.38-3.21,2.63,0,1.66.14,3.32.07,5-.1,2-.36,4-.55,6ZM393.12,519.3l-.45-.51a2.51,2.51,0,0,1-.92.12c-2.8-.69-5.16-.72-5.19,3.15,0,.17-.34.33-.52.5-1.72,1.64-3.47,3.25-5.12,5-.37.39-.38,1.13-.5,1.54,3.26.59,5.23-1.16,7-3.22S391.23,521.48,393.12,519.3ZM75.43,465.13c6.49.62,7.48.06,9.31-5.34H75.43ZM213,484.41c.9,5.79,2.59,7,7.59,5.68v-5.68Zm-27-1.16c-.42.81-1.33,1.73-1.17,2.41.64,2.76,2.69,1.35,4.67,1.49-.73-2.13-1.47-3.86-1.91-5.66-.39-1.58-1.48-2.76-1.77-4.49-.49-2.89-1.33-3.11-3.52-2.08a36,36,0,0,1,1.69,6.29C184.14,483.14,184.92,483.66,186,483.25Zm-1.62-89.81c0-2.49-.8-3.65-3.12-3.48s-4.65.19-7,.21-3,1.2-2.64,3.27Zm165.37-31.15H337.48l-.5.74c.72.88,1.39,2.45,2.17,2.51,3.52.28,7.08.12,10.82.12C349.85,364.08,349.77,363.12,349.71,362.29Zm-177,32.87-.13.7c1.9,1.68,2.73,5.4,6.13,4.25,1.91-.64,3.27-2.95,4.87-4.51l-.55-.44Zm209,135.66a9.29,9.29,0,0,0-8.56,1.58c-2.2,1.63-5,2.53-7.48,3.71-.93.43-1.91.75-2.87,1.12C369.69,537.32,375.62,534.68,381.66,530.82ZM302.9,496.36V491h-6l-.14,1,3.75.65-3.8.21v3.54Zm-3.74-153.77c-7.62-.87-9.65,1-7.69,6.66ZM274.9,451.85c-5,8.92-14.1,11-22.88,13.5C259.57,465.74,274,459,274.9,451.85Zm30.25-116-.37-.88c-3.11,0-6.23-.08-9.34.08-.51,0-1,1.12-1.66,2,3.6,0,6.47.07,9.34-.06C303.81,337,304.48,336.29,305.15,335.9Zm-132,52.69h9.47c-.42-2.58-.81-2.89-3.47-3C175,385.41,173.75,386,173.15,388.59Zm23.53,120.89-.32-1c-4.2-.23-8.41-.51-12.62-.63-.49,0-1,.9-1.93,1.77,4.76.27,8.57.53,12.38.65A8.09,8.09,0,0,0,196.68,509.48Zm285.8-163.59-1.16,0c-.37,3.86-.55,7.71.51,11.5l.65,0ZM262.71,382.3l.16.44h8.86c2.18,0,2.25-.08,2.16-2.88Zm-90.84,74.84.28.24,1.33-.55,0-.84-5.22-.82c3.78,4.57,4.19,4.74,7.5,3.24ZM181,384.05c-.32-3-2.69-1.53-4.13-1.77s-2.47.49-2.25,2.3c2-.09,3.9-.17,5.78-.27A2.71,2.71,0,0,0,181,384.05ZM165.1,537.1c-8.89-1.56-8.89-1.56-10.9,0Zm203.22-87.94V448.1h-8v1.06Zm-9.21-1.6,0-.69H349v.69ZM177.65,462.75c-.42-3.08-1.28-3.41-4.66-1.79Zm1-91.26-1.38-.08-.58,3.88,2.29.12Zm112.69-17.67-.53.28c.09,1.29.17,2.58.28,4.12l3.35-.23ZM180.24,466c-1-3.52-1.88-3.88-5.51-2.35Zm3.52,5.39c-.75-.57-1.6-.89-1.79-1.43-.7-2-.62-2-2.85-1.27C180.32,470.06,180.22,473,183.76,471.4Zm77-118.26c3.65-1.22,3.65-1.22,4-2.42C261.06,350.44,260.61,350.7,260.75,353.14Zm-80.63,28.08c-.31-2.44-1.93-1.9-3.06-1.79-.64.07-1.2.85-1.8,1.31l.45.48Zm-16.21,69.9.23-1.08-6.17-1-.18,1.17Zm-1.51.08-.14,1.24,5.45.52.13-1Zm8.13,3.68.11-1.08-5-.52-.11,1.11Zm7.37,10.91-.46,1,4.25,1.7C181.12,465.29,179.37,465.82,177.9,465.79Z" transform="translate(-67.92 -320.44)"/><path class="cls-1" d="M276.19,498.09l-4.54-3.78c2.64-4.39,5.34-8.57,7.75-12.91,5.45-9.83,10.69-19.77,16.15-29.59,4.12-7.42,8.56-14.66,12.62-22.12a10,10,0,0,1,8.84-5.53c7.65-.36,15.32-.85,23-.6,17.65.58,35.29,1.47,52.92,2.47a62.2,62.2,0,0,1,13.25,2.28c2.45.68,4.7,2.46,6.75,4.11,10.79,8.75,21.5,17.62,32.23,26.45.36.3.64.69,1.37,1.48-2.92.26-5.35.6-7.79.68-10.41.34-20.82.57-31.22.92A5.44,5.44,0,0,1,402.9,460c-8.24-8.92-16.57-17.76-24.87-26.63a11.8,11.8,0,0,0-9-4.1c-15.58-.12-31.15-.34-46.71-.74-5.56-.14-8.8,2.47-11.41,7.08-8.22,14.56-16.64,29-25.08,43.45-3,5.1-6.28,10-9.42,15a2.34,2.34,0,0,0-.39,1.33c14.19-19.68,25-41.44,38.3-61.68C302.07,455.3,291.93,478.12,276.19,498.09ZM438,457l0-.66c-.95.07-1.91.19-2.86.19-8.07,0-16.14-.15-24.21-.15a4.91,4.91,0,0,1-3.91-1.66c-6.78-7.09-13.61-14.14-20.56-21.07a66.77,66.77,0,0,0-6.46-5.07l-.43.58A41.26,41.26,0,0,1,383,432c7.33,7.37,14.59,14.81,21.95,22.15,1.11,1.11,2.62,2.53,4,2.58,9.39.36,18.8.39,28.2.51A3.51,3.51,0,0,0,438,457Zm-80.85-29.82v.2H376v-.2Zm60.9,12.34-.37.38,8.21,6.84.41-.5Z" transform="translate(-67.92 -320.44)"/><path class="cls-1" d="M457,460.83c3.6-1.27,7.2-2.51,10.77-3.84,3.28-1.21,6.51-2.56,9.79-3.73a2.61,2.61,0,0,1,2.19.11c6.13,5.62,12.34,11.17,18.22,17.05,8.24,8.22,16.15,16.78,24.35,25.05,7.15,7.21,14.5,14.22,21.76,21.32.22.21.4.47.71.84-17.73-9-35.15-18.11-52.88-26.62S456.18,474.66,438,466.37c2.33-1,4.47-1.77,6.55-2.7q20.28-9.06,40.54-18.16c6.83-3.06,13.7-6,20.52-9.14,1.66-.75,2.52-.37,3.31,1.25,3.21,6.58,6.53,13.11,9.79,19.66a16.24,16.24,0,0,1,.58,1.74l-22.4-16.46.8,2.38c-3.61-1.45-6.62,0-9.33,1.65-9.3,5.68-19.6,9.06-29.57,13.19a13.88,13.88,0,0,0-1.79,1.1l-13.73,4.81.31.8Z" transform="translate(-67.92 -320.44)"/><path class="cls-1" d="M211.93,495.21c1.84-5.46,6-2.41,9-3.64.22,1.49.4,2.67.58,3.84l.52,0a26.21,26.21,0,0,0,.22-2.79c-.35-16.33-.74-32.64-1.08-49,0-2-.78-2.84-2.85-2.81-6.83.12-13.66.06-20.49.17-4,.07-4.48-.19-5.56-4.55h37v64.18a8.67,8.67,0,0,1-1.58.3c-6.08.15-12.16.23-18.23.41a2.41,2.41,0,0,1-2.72-1.91c-4.76-13.68-9.33-27.43-14.51-40.95-2.51-6.57-6.52-12.56-9.26-19.06-2.06-4.86-5.21-6.26-10.23-6.12-17.4.49-34.81.59-52.22,1a7.65,7.65,0,0,0-4.4,1.82c-4.25,3.6-8.3,7.45-12.43,11.19-7.58,6.87-12.23,15.76-16.56,24.75-3.06,6.36-5.47,13-8,19.62-.68,1.74-1.5,2.54-3.48,2.18s-2.43-1.24-1.8-3.1c7.07-20.95,16.78-40.25,34-54.93,1.83-1.56,3.55-3.28,5.49-4.71a7.35,7.35,0,0,1,3.75-1.65q28.47-.92,56.94-1.58a21.09,21.09,0,0,1,6,.4,12.73,12.73,0,0,1,5.58,2.78c5.26,5.38,8.41,12.16,11.24,19,5.39,13.07,10.56,26.24,15.71,39.42a4.61,4.61,0,0,1-.43,3.32c-.8,1.53-2.07,2.81-3,4.28a8,8,0,0,0-.53,2.38c.76-.32,1.16-.41,1.16-.51,0-3.13,2-3.43,4.49-3.2a12.45,12.45,0,0,0,5.17-.57Zm-33.78-64.06,0-.15H157v.15Zm-41.91.82,0,.16H148.1V432Z" transform="translate(-67.92 -320.44)"/><path class="cls-1" d="M320.29,527.52l-7.72-8.74,3.59-2.87-.25-.43-3.55,2c-6.38-8-8.77-25.49-5.23-35.3l4,.68.11-.41-4.06-1.3a50.64,50.64,0,0,1,9.75-17.57l3.33,2.67.46-.48c-1.16-.72-2.31-1.45-3.75-2.36a49.94,49.94,0,0,1,17.59-11.69l1.94,4.17.48-.16c-.42-1.36-.84-2.71-1.44-4.67,3.63-.61,7.16-1.38,10.74-1.72a73.51,73.51,0,0,1,8,.1c1.79,0,2.42.71,1.71,2.5a15.43,15.43,0,0,0-.52,2.82l.68.14c.31-1.56.62-3.11.92-4.66,4.65-.15,13.52,3.5,18.27,7.59-.93,1.45-1.89,2.95-2.84,4.45l.44.36,3.64-4.5,8.94,9-4.66,3.81.33.48,4.65-3.18a51,51,0,0,1,7.29,15.58c.35,1.23,0,1.83-1.38,2a9.46,9.46,0,0,0-4,1.44l5.57-1V502L387,500.76l-.14.6,5.75,1.42c-3.27,16.51-17,29.31-32.43,33.08-.45-1.44-.9-2.91-1.36-4.37l-.46.1c.29,1.56.57,3.12.9,4.93-6.4,1.41-12.65.94-19.25.41.3-1.76.54-3.27.79-4.77l-.39-.14c-.48,1.46-1,2.91-1.49,4.59A46.72,46.72,0,0,1,321.16,528l3.22-4.42-.43-.37Zm-7.07-34.33c-.7,19.3,14.14,37.31,35.59,37.35,20,0,36.06-16.26,36.26-37.35.19-19.37-16.11-35.78-35.52-36.27C331.54,456.46,312.37,471.38,313.22,493.19Z" transform="translate(-67.92 -320.44)"/><path class="cls-1" d="M113.05,426.63l1.81.32-3.8,2.59a49.69,49.69,0,0,1,0-5.23c.73-6.52,1.59-13,2.34-19.55.15-1.34.71-1.86,2.07-1.86q40.11,0,80.23,0a4.48,4.48,0,0,1,.93.24c-5.1,9.42-5.24,19.74-5.87,30l-.87.86a11.37,11.37,0,0,0-1.17-2.34c-2.61-3.2-5.63-5.53-10.11-5.52-13.07,0-26.15-.1-39.22-.14-8.75,0-17.49,0-26.24,0Zm2.22-2.13-.08.15h45.69v-.15Zm56.85-2v.13h16.62v-.13ZM170.5,415l.07.06h13V415Zm-28.08,7.55v0H130.53v0Zm-25.35-8.06.11.06h9.62v-.06Z" transform="translate(-67.92 -320.44)"/><path class="cls-1" d="M135.33,537.77v-5.72l-.55,0c-.1.76-.22,1.52-.29,2.28s-.1,1.64-.19,3.17l-18-5.9,1.9-4.5-.5-.26-2.06,3.73a38,38,0,0,1-11.83-11.71l3.55-3.08-.27-.4-4.22,2.7c-2-4.32-3.84-8.45-5.79-12.73l4.32-1.52-.14-.48-4,1a42.42,42.42,0,0,1-.67-17.42l4,.41.06-.36-4-1a43.63,43.63,0,0,1,12.27-23.74l2.37,3.28.83-.77-2.72-3.14a44.61,44.61,0,0,1,14.61-9.82l1.58,3.29.65-.25-1.22-3.5a44.51,44.51,0,0,1,19.86-3.12c-.16,1.8-.3,3.4-.44,5l.56.09.83-4.66c3.81-.42,11.8,2.15,16.53,5.39l-2.83,4.5.44.36,3.36-4.39a39.74,39.74,0,0,1,12.16,11.22l-4.61,3.52.36.53,4.66-3.27c3.38,5.14,5.22,10.66,6.67,16.6l-5.79,1.61.14.56,5.83-1.19V499.8l-5.35-.87-.11.44,5,1.14c-1.86,14.55-12.87,28.42-28,33.8-.71-1.49-1.44-3-2.17-4.52l-.58.24c.58,1.54,1.17,3.08,2,5.35ZM102.7,493.92c0,20,16.15,36.54,35.69,36.57a36.59,36.59,0,0,0,36.53-37.4C174.68,473.27,161,456.26,140.2,456,119.77,455.79,102.73,473.14,102.7,493.92Z" transform="translate(-67.92 -320.44)"/><path class="cls-1" d="M421.49,472.53l117.77,45.05,0,.16c-4.53-.82-9-1.86-13.61-2.42-18.26-2.24-36.52-4.49-54.82-6.45-14.32-1.52-28.69-2.6-43-3.94a2.42,2.42,0,0,1-1.8-1.15C423,493.83,422.23,483.57,421.49,472.53Z" transform="translate(-67.92 -320.44)"/><path class="cls-1" d="M245.47,422H316l.08.69c-.66.22-1.32.45-2,.64a11.8,11.8,0,0,0-7.85,7.14c-1.44,3.41-3.7,4.19-7.36,4.15-20.4-.17-40.81,0-61.22.07h-6.18c1.86-3.59,3.48-6.73,5.12-9.85,5.1-9.73,10.19-19.47,15.38-29.14a3.6,3.6,0,0,1,2.5-1.79q30.11.34,60.19,1a72.63,72.63,0,0,1,8.94.93,2.68,2.68,0,0,1,1.89,1.41c1.88,7.77,3.62,15.56,5.39,23.36a.62.62,0,0,1-.08.34H247.24c2-4.17,3.85-7.89,5.7-11.58,1.23-2.46,2.72-4.8,3.78-7.32,1.12-2.68,2.9-3.29,5.51-2.48l-10.08,19.13c3.65.19,6.43.44,9.22.45q30.5.17,61,.23c3.74,0,3.84-.13,3-3.85-1-4.38-2-8.75-3-13.14-.44-2-1.31-3-3.62-3.23-19-1.81-38.09-1.89-57.17-1.33a5.9,5.9,0,0,0-5.63,3.31c-3.16,6.05-6.45,12-9.64,18.06A16.46,16.46,0,0,0,245.47,422Z" transform="translate(-67.92 -320.44)"/><path class="cls-1" d="M276.68,501.09h-45.3c-.1-.89-.2-1.38-.2-1.86q-.15-29.12-.26-58.22a10.81,10.81,0,0,1,.18-3.23c.2-.64,1.09-1.54,1.67-1.54q34.35,0,68.71.18c.13,0,.27.14.66.35-1.94,3.27-3.8,6.57-5.85,9.75-.31.49-1.45.62-2.21.63-5.58.07-11.16,0-16.74.16a3.46,3.46,0,0,0-2.63,1.46,19.24,19.24,0,0,1-12.14,11.78,148.14,148.14,0,0,1-16.66,4.19c-2.11.43-4.42-.11-6.75-.22a9.3,9.3,0,0,0-.29,1.66c0,8.75,0,17.49-.11,26.23,0,2.28.9,3,3.1,3.07,8.57.23,17.14.88,25.71.79C271.76,496.22,274,498.45,276.68,501.09Zm-38.34-53c.29,5.32,2.27,7.54,7.33,7.81a65.85,65.85,0,0,0,10.22-.32,25.68,25.68,0,0,0,7.21-1.68,7.29,7.29,0,0,0,4.26-8c-.61-3.22-2.9-5.21-6.89-5.3-5.74-.13-11.48,0-17.22.23a3.82,3.82,0,0,0-2.75,1.3c-.85,1.31-1.63,2.15-3.29,2.18a2,2,0,0,0-1.44,1.3,2.73,2.73,0,0,0,.9,1.85C237,447.88,237.71,447.91,238.34,448.12Zm54.47-5V443H282.66v.1Z" transform="translate(-67.92 -320.44)"/><path class="cls-1" d="M289.29,458.61c-6.12,10.86-12.4,21.65-18.26,32.65-1.51,2.83-3.27,3.25-6,3.21-8.32-.14-16.64-.05-24.85-.05v-28.8c4.63.44,8.85,1.37,13,1.11a30.68,30.68,0,0,0,21-9.61,9.56,9.56,0,0,0,2.74-8.19h17.85l-5.52,9.68h0ZM253.7,475.53v.11h21.9v-.11Zm11.88,13.11.11-.09H252.61v.09Z" transform="translate(-67.92 -320.44)"/><path class="cls-1" d="M480.41,451.68c4.58-2.13,9.09-4.42,13.78-6.27,1.06-.42,2.93.35,4.08,1.11,4.77,3.19,9.38,6.61,14.09,9.88,3,2.09,6.12,4,9.1,6.13a6,6,0,0,1,1.9,2.47q9.3,22.08,18.49,44.2a56.86,56.86,0,0,1,2.44,6.52c-21.7-20.7-40.69-44.05-64.12-62.93Z" transform="translate(-67.92 -320.44)"/><path class="cls-1" d="M254.46,417.19c2.94-5.57,5.85-11.17,8.87-16.7a2.77,2.77,0,0,1,2-1.05,347.74,347.74,0,0,1,46.89.63c2.16.16,4.33.17,6.48.41.67.07,1.74.57,1.86,1.07,1.4,5.48,2.64,11,3.91,16.45H254.92Z" transform="translate(-67.92 -320.44)"/><path class="cls-1" d="M361.16,421.86c5.77-2.71,11.61-4.81,18.32-4.49,12.47.61,25,.17,37.44,1.05,15.27,1.08,30.49,2.95,45.7,4.72,8.6,1,17.15,2.44,25.7,3.74,1.58.24,3.11.76,4.67,1.15v.66l-9.23,3.45c-8.64,3.25-17.31,6.43-25.9,9.83a5,5,0,0,0-2.52,3c-1.17,3.9-2.09,7.89-2.92,11.88-.41,2-1.35,2.92-3.59,2.83a15.4,15.4,0,0,1,.15-2.17c1.21-5.52,2.35-11.06,3.77-16.52a4.57,4.57,0,0,1,2.63-2.48c3.88-1.49,7.87-2.7,11.82-4a4.13,4.13,0,0,0,1.92-1.27q-26.79-4.62-53.74-6.91C397.31,424.71,379.24,423.32,361.16,421.86ZM487,428.36l-.22-.7-16.67,5,.29.92Z" transform="translate(-67.92 -320.44)"/><path class="cls-1" d="M422.37,519.29c1.39-4.12,2.9-8.58,4.45-13.15,37.28,3.43,74.67,7.26,110.64,12.39ZM433.8,514l-.07.11h24V514Zm55.82,1.15V515H479.2v.19Z" transform="translate(-67.92 -320.44)"/><path class="cls-1" d="M207.94,434.74c3.77-4.66,7.28-8.65,10.4-12.93,7.48-10.29,14.78-20.71,22.15-31.08a4.55,4.55,0,0,0,.39-.64c1.67-3.18,4.08-4.77,7.87-4.21a49.24,49.24,0,0,0,6.9.06c-2.21,4.14-4.35,8.15-6.47,12.16C243.11,409.58,237,421,231,432.55a3.52,3.52,0,0,1-3.64,2.24C221.15,434.67,214.93,434.74,207.94,434.74Z" transform="translate(-67.92 -320.44)"/><path class="cls-1" d="M205,501.58c-6.26,1-6.07.94-8.05-4.57-4.43-12.29-8.85-24.59-13.7-36.71-2-4.91-5.05-9.35-7.57-14.05-.81-1.51-1.4-3.14-2.29-5.16-1.23-.1-2.94-.35-4.66-.35q-19.73,0-39.47,0c-1.08,0-2.16.07-3.24.17-4.06.38-4.76-.09-6.51-4.61,7.08-.23,14-.61,21-.67,10.65-.08,21.31.18,32,.06,3.92,0,6,1.43,8,4.9,8.09,13.95,12.85,29.22,18.39,44.18C200.91,490.31,202.89,495.86,205,501.58Z" transform="translate(-67.92 -320.44)"/><path class="cls-1" d="M479.75,344.08v14c-5,.18-10.13.43-15.26.52-9.9.16-19.8.18-29.7.38-1.94,0-3-.5-3.17-2.46-.4-3.7-.86-7.4-1.35-11.5Zm-13.82,4.86-1.15-.05c-.65.88-1.9,1.85-1.8,2.63.13,1,1.36,1.88,2.11,2.8.82-.75,2.22-1.44,2.31-2.28S466.47,350,465.93,348.94Zm-23.12,3.49,0-1.11c-.95-.6-2-1.72-2.85-1.64s-1.84,1.43-2,2.37a1.88,1.88,0,0,0,2.37,2.28C441.2,354.15,442,353.09,442.81,352.43Z" transform="translate(-67.92 -320.44)"/><path class="cls-1" d="M374.2,346.2c1.47-.09,2.45-.19,3.42-.2,14.23-.17,28.45-.31,42.67-.54,1.74,0,2.32.44,2.38,2.19.11,3.72.45,7.43.73,11.53-2.72,0-5.43,0-8.13,0l-37.68.57c-1.12,0-2.21.11-2.33-1.47C374.93,354.33,374.57,350.38,374.2,346.2ZM413,349.57h-1.12c-.62,1-1.61,2-1.76,3-.22,1.47.82,2.46,2.42,2.44s2.6-1,2.3-2.51C414.59,351.48,413.61,350.56,413,349.57Zm-24.38,3.29c-1.62-1.36-2.45-2.6-3.46-2.77-1.62-.26-2.56,1.06-2.63,2.64a2.14,2.14,0,0,0,2.44,2.46C386,355.05,386.89,354,388.59,352.86Z" transform="translate(-67.92 -320.44)"/><path class="cls-1" d="M532.78,514.19,423,471.93c2.57-1.55,5-3.2,7.65-4.56a5.83,5.83,0,0,1,5.46,0c19.81,9.26,39.74,18.28,59.5,27.65,12.4,5.88,24.57,12.23,36.84,18.38a3.22,3.22,0,0,1,.54.45Z" transform="translate(-67.92 -320.44)"/><path class="cls-1" d="M381.14,439.62c6.91,7.18,13.84,14.34,20.7,21.56a6.62,6.62,0,0,0,5.46,2.32c10.65-.41,21.31-.69,32-1a2.38,2.38,0,0,1,1.81.55,15.6,15.6,0,0,1-2.86.73c-11.05.69-22.11,1.39-33.17,1.89a5.72,5.72,0,0,1-3.54-1.78c-7.29-7.06-14.59-14.12-21.66-21.39a18.72,18.72,0,0,0-12.92-5.81,334.07,334.07,0,0,0-45.19-.22,5.26,5.26,0,0,0-4.79,3.07c-8.65,15.08-17.29,30.17-26.28,45-2.95,4.88-6.92,9.14-10.46,13.67a19.34,19.34,0,0,1-1.82,1.8l-.5-.45c2.06-3,4.29-6,6.15-9.13,7.58-12.9,15.06-25.87,22.55-38.83,3-5.12,5.78-10.31,8.77-15.4a3.14,3.14,0,0,1,2.07-1.38c6.38-.58,12.77-1.48,19.15-1.42,11.22.11,22.44.94,33.66,1.23,4.48.11,7.53,2.76,10.89,5Z" transform="translate(-67.92 -320.44)"/><path class="cls-1" d="M198.86,503.87c8.4-.24,16.29-.63,24.18-.65,17.32,0,34.64.12,52,.18,2.1,0,4.34.47,5.83-1.79.24-.37,1.19-.38,1.83-.4,1.7,0,3.42,0,5.13-.19l-5.81-.25-.06-.92c2.68-1.48,5.8-.08,8.61-1h-7.45c2.29-2.9,4.18-5.55,6.37-7.91.6-.64,2.1-.44,3.41-.67v15H282.16v.53H292.3l.07.59a29.85,29.85,0,0,1-3.24.4q-25,.45-49.95.86c-11.33.2-22.66.25-34,.69C201.89,508.49,200.38,507,198.86,503.87ZM237,506v.16h11.67V506Z" transform="translate(-67.92 -320.44)"/><path class="cls-1" d="M368.88,346.15c0,3.52,0,6.67,0,9.82a3.82,3.82,0,0,1-3.84,3.95c-8.73.19-17.46.32-26.18.59-1.55.05-2.09-.55-2.28-1.89-.1-.74-.36-1.46-.41-2.2-.29-3.85-1.66-6.54-6.18-6.23a1.86,1.86,0,0,1-1.39-1.07,32.22,32.22,0,0,1-1.31-8,40.22,40.22,0,0,1,5.09,2.65,15.65,15.65,0,0,0,10.32,2.69c7.81-.36,15.63-.33,23.45-.45C367,346,367.78,346.1,368.88,346.15Zm-27.6,3.28c-.91,1.52-1.87,2.41-1.77,3.18a2.71,2.71,0,0,0,2,1.84c.66,0,1.91-1.22,1.88-1.85C343.32,351.72,342.31,350.9,341.28,349.43Zm21.15,3.2c-1.46-1.11-2.26-2.17-3.1-2.21-.62,0-1.79,1.27-1.81,2s1.1,1.81,1.85,1.93S361,353.53,362.43,352.63Z" transform="translate(-67.92 -320.44)"/><path class="cls-1" d="M323.76,385.93c.46,3,.84,5.48,1.24,8.09a640,640,0,0,0-71.52-1.31c1.3-2.45,2.09-4.68,3.53-6.36.69-.8,2.6-.74,4-.74q15.5,0,31,.1c9.66.06,19.31.15,29,.22Z" transform="translate(-67.92 -320.44)"/><path class="cls-1" d="M405,503.92c.82-14.31.66-27.81-6.62-40.09a3.6,3.6,0,0,1,.54-.22c3,4.53,7.55,4.12,12,3.62,2.18-.24,3.23.44,3.4,2.66.82,10.78,1.71,21.55,2.47,32.34a2.23,2.23,0,0,1-1.45,1.61C412,504,408.61,503.92,405,503.92Z" transform="translate(-67.92 -320.44)"/><path class="cls-1" d="M371.92,415.76c-4.18,1.73-8.23,3.19-12.08,5.08-3.41,1.68-6.87.67-10.3.79-.51,0-1.3-1.12-1.55-1.86-1.93-5.62-3.76-11.28-5.75-17.36,3.41,0,6.59-.05,9.77,0,3.41.07,6.82.21,10.23.4.68,0,1.66.2,2,.67C366.86,407.56,369.39,411.71,371.92,415.76Z" transform="translate(-67.92 -320.44)"/><path class="cls-1" d="M493.72,430.3c1.52,2.47,2.86,4.67,4.31,7l-43.45,20c1.07-4.3,2-8.31,3.09-12.29a2.37,2.37,0,0,1,1.32-1.3C470.52,439.23,482.08,434.79,493.72,430.3Z" transform="translate(-67.92 -320.44)"/><path class="cls-1" d="M336.43,367.59H299.89c.15-1.13.21-2,.4-2.87q3.33-15.24,6.72-30.47a4.27,4.27,0,0,1,1.14-2.39c3.71-2.78,7.54-5.41,11.72-8.37,1.18,3.83,2.27,7.2,3.24,10.6,1.46,5.13,2.89,10.26,4.18,15.43.33,1.3.81,1.86,2.11,1.86.66,0,1.32.25,2,.26,1.78,0,2.52.76,2.76,2.66C334.7,358.66,335.61,363,336.43,367.59Zm-33-2.71-.08-.09c.28.15.57.42.86.43,7.31.09,14.62.2,21.93.16.52,0,1.26-1,1.47-1.72a5.12,5.12,0,0,0-.36-2.18q-3.64-16.41-7.32-32.81a27.35,27.35,0,0,0-1-2.78l-2,2.21q-2.48,1.47-5,2.93c-1,1.11-2.69,2.07-3,3.34-2.08,9.37-3.9,18.8-5.75,28.23A7.86,7.86,0,0,0,303.45,364.88Z" transform="translate(-67.92 -320.44)"/><path class="cls-1" d="M204.5,427.13c-.42-19.05,12.3-37.34,33.34-40.28C232.08,393.73,226.5,400.32,221,407S210,420.45,204.5,427.13Z" transform="translate(-67.92 -320.44)"/><path class="cls-1" d="M332.13,385.86c6.48.82,12.24,1.49,18,2.28a55.28,55.28,0,0,1,8.34,1.57,7.85,7.85,0,0,1,4.14,2.77c4.8,7.3,9.36,14.76,14,22.17a10.84,10.84,0,0,1,.54,1.33c-2,.47-3.32.56-4.53-1.58-3.45-6.07-7.23-12-10.87-17.93a6.21,6.21,0,0,0-5.12-3.38c-5.31-.44-10.59-1.18-15.88-1.77-.81-.09-1.64,0-3.17,0L347,421.49c-4.68.91-4.89.76-6.08-3.38-2.54-8.8-5.13-17.58-7.64-26.38C332.83,390.08,332.62,388.35,332.13,385.86Z" transform="translate(-67.92 -320.44)"/><path class="cls-1" d="M366.93,450c3.16-1.28,6.43-.22,9.52,1.58,12.95,7.56,21.9,18.18,24.63,33.26a48.72,48.72,0,0,1-.45,17.24h-5.47c2.8-13.83-.71-26.06-9.29-37.38.9,0,1.54,0,2.17,0s1.38-.23,2.08-.36c-.05-.13-.12-.39-.15-.38-3.68.53-6.09-1.3-8.8-3.65C376.72,456.43,371.61,453.32,366.93,450Z" transform="translate(-67.92 -320.44)"/><path class="cls-1" d="M86.36,409.17,101,411.08c-.58,6.82-1.15,13.45-1.73,20.34H86.36Z" transform="translate(-67.92 -320.44)"/><path class="cls-1" d="M450.32,439.45l-3.6,18.5L421,436.56l.12-.59Z" transform="translate(-67.92 -320.44)"/><path class="cls-1" d="M409.55,426.53l54.34,6.73.08.77c-4.85.9-9.1,3.81-14.46,3.21-9.68-1.08-19.4-1.76-29.1-2.67a6.23,6.23,0,0,1-3-.93c-2.72-2-5.31-4.26-7.95-6.41Z" transform="translate(-67.92 -320.44)"/><path class="cls-1" d="M289.56,342.65v15.52l-4.12.2c-.47-3.37-1.13-6.69-1.34-10-.13-2.07-.93-2.5-2.76-2.41-2.57.13-5.15,0-7.66,0a59.46,59.46,0,0,0-3.44,5.17,7.48,7.48,0,0,0-1.15,3.91c.42,5.05,1,5.5,6,5.4,6.08-.12,12.16-.14,18.23-.49,2.6-.15,4.24.72,5.58,3.28-.89.11-1.64.27-2.4.29-8.74.24-17.48.42-26.22.72-1.7,0-2.62-.35-2.93-2.13-.46-2.62-1.16-5.2-1.66-7.82a3,3,0,0,1,.28-1.89c1.39-2.55,2.78-5.12,4.4-7.54a3.76,3.76,0,0,1,2.58-1.41C278.53,343.07,284.09,342.89,289.56,342.65Z" transform="translate(-67.92 -320.44)"/><path class="cls-1" d="M198.25,448.44h21.33c0,4.19,0,8.55-.06,12.9,0,.33-.91.9-1.41.91q-6.35.12-12.71,0a2.23,2.23,0,0,1-1.69-1.05C201.89,457.15,200.2,453,198.25,448.44Zm18.47,8.2.08-.25H204.07v.25Z" transform="translate(-67.92 -320.44)"/><path class="cls-1" d="M99.23,440.53c-2,2.17-3.58,4.13-5.39,5.9a3.71,3.71,0,0,1-2.31.51c-5.57,0-11.13,0-17,0,0,1.28,0,2.17,0,3.06.06,1.46.28,2.75-2,2.73-2,0-2.8-.49-2.76-2.61.09-4.32-.07-8.65-.07-13,0-3.1.58-3.6,3.91-3.58.08.14.24.27.24.41.26,6.28.26,6.27,6.57,6.29l16.48.09C97.55,440.37,98.18,440.45,99.23,440.53Z" transform="translate(-67.92 -320.44)"/><path class="cls-1" d="M283,375.6c.46-3,.94-6.13,1.48-9.67h12.87c-.54,2.42.94,2.86,3.19,2.94,5.48.19,11,.6,16.43.93-1,3.83-1.75,4.41-5.42,4.56C302,374.74,292.48,375.18,283,375.6Z" transform="translate(-67.92 -320.44)"/><path class="cls-1" d="M325,386.1h4.85l9.5,35.69c-2.07,0-3.85.06-5.62-.06-.39,0-1-.65-1.07-1.09q-4-17-7.9-34C324.74,386.57,324.82,386.49,325,386.1Z" transform="translate(-67.92 -320.44)"/><path class="cls-1" d="M309.15,517.23c-5.24,0-9.95,0-14.66-.05A2.22,2.22,0,0,1,293,516.1c-.92-1.63-1.69-3.34-2.68-5.33h12.81v-.44H290.19l-.08-.66a26.27,26.27,0,0,1,2.9-.41c2.3-.05,3.52-1,3.36-3.45a22.69,22.69,0,0,1,.24-3l4.23-.2-4.33-.26,0-.84,2.67-.46-2.46-.29c-.41-4.49-.39-4.5,6.35-3.78C303.06,504,305.42,510.49,309.15,517.23Zm-15.58-4.77v.14h11.19v-.14Z" transform="translate(-67.92 -320.44)"/><path class="cls-1" d="M241.45,387.34c-3.21,4.82-6.22,9.78-9.65,14.43-7.9,10.69-15.91,21.31-24.16,31.73-1,1.26-3.7,1.16-5.62,1.69l-.36-.83,38.94-47.73Z" transform="translate(-67.92 -320.44)"/><path class="cls-1" d="M198.5,433.44h-5.95c.43-5.5.59-10.8,1.35-16a56.62,56.62,0,0,1,3-11c1.94-5.33,3.92-6.28,10-5.38C198.69,410.42,198.35,421.77,198.5,433.44Z" transform="translate(-67.92 -320.44)"/><path class="cls-1" d="M84.32,431.91H76.08c0-1.47,0-3,0-4.55.11-4.74.26-9.48.34-14.23,0-1.56.56-2.45,2.23-2.68,2.28-.33,4.52-.85,6.64-1.27C85,416.8,84.65,424.15,84.32,431.91Z" transform="translate(-67.92 -320.44)"/><path class="cls-1" d="M276.16,379.9c1.65-.78,3.27-2.15,4.95-2.25,13.38-.76,26.77-1.33,40.16-1.83,3.18-.12,3.36.29,3.53,3.72l-48.28,1.11Z" transform="translate(-67.92 -320.44)"/><path class="cls-1" d="M112.11,404a76.53,76.53,0,0,0-2.68,23.69,5.29,5.29,0,0,1-2,4.88c-1.26,1-2.41,2.2-3.75,3.43,0-6.67-.06-13,0-19.38a37.7,37.7,0,0,1,.79-5.64C105.18,407.23,106.91,405.6,112.11,404Z" transform="translate(-67.92 -320.44)"/><path class="cls-1" d="M381.13,439.66c-2.07-2.78-4.56-4.94-8.17-5.47-14-2.07-28-2.11-42.13-1.63-4.8.17-9.58.78-14.54,1.21.26-2.39,1.53-3.48,3.9-3.46,13.73.07,27.47.11,41.2.21,2.16,0,4.33.38,6.49.28a11.73,11.73,0,0,1,9.15,3.8c1.06,1.06,2.28,1.95,3.3,3a6.45,6.45,0,0,1,.81,2Z" transform="translate(-67.92 -320.44)"/><path class="cls-1" d="M340.3,397.76h6.88v-.28h-2.67c-4,0-4,0-4.9-4.62,4.84.42,9.59,1.17,14.35,1.16,5,0,6.5,3.42,8.28,7-6.63,0-13.08.08-19.52-.12C342,400.88,341.38,399.21,340.3,397.76Z" transform="translate(-67.92 -320.44)"/><path class="cls-1" d="M192.84,498.93l-2,.61c2.34-.24,2.71,1.06,2.35,3.23h-6.61v.39c1.33,0,2.66,0,4,0,1.49,0,3.22-.56,3.28,2.11,0,.69,1.69,1.34,3,2.28H183.52c.79-6.66,1.54-13,2.33-19.62,3.33-1.15,4.07-.55,5.41,5.36h-4.48c1.7,1.22,4.49-1.06,5.34,2.51h-5.43C188.78,497.16,192.33,494.34,192.84,498.93Z" transform="translate(-67.92 -320.44)"/><path class="cls-1" d="M75.55,438.6l-1.14-5H86.7c3.49,0,7-.06,10.47-.07s3.53,0,3.76,3.47c0,.48,0,1,0,1.64Z" transform="translate(-67.92 -320.44)"/><path class="cls-1" d="M161.6,533.05c3.19-.59,4.54-4.94,8.64-4l-1.74-.32c1.12-2.7,3.3-1.66,5.24-2.05l-2.63-.49c1-1.77,2.22-2.49,4.13-1.45.39.21,1-.14,1.59-.14A68.3,68.3,0,0,1,186,525c-2.58,3.14-6.09,1.34-9.15,2.23h6.83c-3.1,3.54-6.69,1.63-9.71,2.62h5.51c-6.27,5.16-13.11,7.6-21.05,5.51l-.07-.77c1.64-.12,3.27-.28,4.91-.34a34.86,34.86,0,0,0,5.48-.35h-6.87Z" transform="translate(-67.92 -320.44)"/><path class="cls-1" d="M99.05,455.55l3.3,1.92c-2.9,4.43-6.12,8.51-8.41,13.06-3.58,7.11-6.55,14.53-9.72,21.84-.94,2.17-.84,2.21-3.25,1.37A160.12,160.12,0,0,1,99.05,455.55Z" transform="translate(-67.92 -320.44)"/><path class="cls-1" d="M195.05,442.29h24.72c-.13,1.59-.25,3.21-.39,5-6.93.18-13.72.38-20.51.48a2.52,2.52,0,0,1-1.63-1.19C196.5,445.44,196,444.14,195.05,442.29Z" transform="translate(-67.92 -320.44)"/><path class="cls-1" d="M99.42,454.63l18.77-17.74,3.23,4.58-12.8,10.7c-.77.64-1.52,1.3-2.25,2C103.43,456.84,103.43,456.84,99.42,454.63Z" transform="translate(-67.92 -320.44)"/><path class="cls-1" d="M74.37,454c0,3.09,0,6,0,8.87.05,3.45.2,3.57,3.72,3.61h3.2c-.89,2-1.49,3.56-2.34,5a2.52,2.52,0,0,1-1.83.85c-7,.42-7,.41-7.29-6.64-.1-2.83,0-5.68-.23-8.48-.26-2.53.56-3.56,3.08-3.23A13.46,13.46,0,0,0,74.37,454Z" transform="translate(-67.92 -320.44)"/><path class="cls-1" d="M283.11,358.74c-3.37,0-6.6.08-9.83,0-1.79-.06-3.12-3.63-2-5.47.89-1.5,1.76-3.2,3.09-4.17,1.11-.79,2.88-.84,4.37-.88,4.34-.12,3.44,0,3.6,3.35C282.41,353.75,282.79,356,283.11,358.74Z" transform="translate(-67.92 -320.44)"/><path class="cls-1" d="M299.65,360.59l-7.89-9.75,11.73-10.27.43.27Z" transform="translate(-67.92 -320.44)"/><path class="cls-1" d="M219.71,463v6.72c-3.94,0-8,0-12,0-.42,0-1-.62-1.2-1.08-.74-1.74-1.34-3.54-2.11-5.6Z" transform="translate(-67.92 -320.44)"/><path class="cls-1" d="M219.81,510.5h19.31c-1.65,2.09-3,3.93-4.54,5.68a2.77,2.77,0,0,1-1.57.56c-.56.1-1.17,0-1.74.07C225.91,517.81,222.22,515.63,219.81,510.5Z" transform="translate(-67.92 -320.44)"/><path class="cls-1" d="M203.68,398.73c-7.22,2.56-14.7,1.09-22.12,1.58,1.36-3.88,3.29-5.29,7-5.11s7.47.25,11.16.71c1.53.19,2.94,1.28,4.4,1.95Z" transform="translate(-67.92 -320.44)"/><path class="cls-1" d="M324.38,335.22c3.65-.06,6.09-.15,8.55,1.5,3.21,2.16,6.86,3.68,10.26,5.58a4.75,4.75,0,0,1,1.78,2.24c-3,.53-5.71,1.06-8.52-.57s-6.3-2.5-9.2-4.18C326,339.09,325.53,337.14,324.38,335.22Z" transform="translate(-67.92 -320.44)"/><path class="cls-1" d="M265.5,510.29l.11,1.67a3.42,3.42,0,0,0,.23-.34c.28-.49.55-1,.82-1.48.28.5.79,1,.8,1.5,0,1.7-3.54,5.21-5.27,5.26a40.61,40.61,0,0,1-6.71,0,4.17,4.17,0,0,1-2.92-2.07c-.49-1.27-.08-2.89,0-4.36a1.18,1.18,0,0,1,.87-.18,1,1,0,0,1,.51.71,9.09,9.09,0,0,0,.4,2.95,8.66,8.66,0,0,1,0-1.69,16,16,0,0,1,.71-2.08,11.83,11.83,0,0,1,.86,2.22,19.73,19.73,0,0,0,.29,2.47v-4.55Z" transform="translate(-67.92 -320.44)"/><path class="cls-1" d="M389.15,518c1.93-5,3.69-9.6,5.56-14.19.16-.41,1-.75,1.54-.77,1.3,0,2.6.14,4.74.28-2.34,4.91-4.28,9.57-6.83,13.86C393.6,518.12,390.86,517.76,389.15,518Z" transform="translate(-67.92 -320.44)"/><path class="cls-1" d="M430.45,358.8c-.28.16-.35.22-.43.23-4.82.66-5.12.42-5.49-4.48-.21-2.8-.43-5.61-.63-8.42a4.77,4.77,0,0,1,.17-.93h5.24c.11,2.32.15,4.61.34,6.89S430.17,356.5,430.45,358.8Z" transform="translate(-67.92 -320.44)"/><path class="cls-1" d="M207.35,470.34h12.71c.13,2,.25,3.74.42,6.25-3.5,0-6.85,0-10.19,0-.35,0-.85-.53-1-.92C208.61,474,208,472.26,207.35,470.34Z" transform="translate(-67.92 -320.44)"/><path class="cls-1" d="M195.84,511.79c-.78.36-1.57,1-2.34,1-3.72-.06-7.44-.29-11.19-.07l12.05.69.08.9c-2.65,1.26-5.68.07-8.46.81l7.21.35v.66H179.44c.67-1.76,1.27-3.5,2-5.16a1.71,1.71,0,0,1,1.34-.76c4.22.13,8.42.36,12.64.55Z" transform="translate(-67.92 -320.44)"/><path class="cls-1" d="M75.48,452.59v-4.25H92c-1.27,3-2.9,4.73-6.37,4.33A92.37,92.37,0,0,0,75.48,452.59Z" transform="translate(-67.92 -320.44)"/><path class="cls-1" d="M344,341.13c-2.27-1.15-4.61-2.19-6.76-3.55-.55-.34-.74-1.75-.61-2.59.53-3.26,1.26-6.49,1.92-9.73l.79-.2,5.59,15.44Z" transform="translate(-67.92 -320.44)"/><path class="cls-1" d="M174.15,400.08H157.71c.79-2.31,1.82-3.85,4.38-3.85a46.74,46.74,0,0,0,4.7-.47C171.5,395.3,171.64,395.39,174.15,400.08Z" transform="translate(-67.92 -320.44)"/><path class="cls-1" d="M200.47,431.33c-1.87-6.78,2-27.63,8.43-29.81-1.78,4.69-4.12,9.55-5.43,14.67S202,426.4,201.3,431.53Z" transform="translate(-67.92 -320.44)"/><path class="cls-1" d="M175.37,521.1c2-4.3,5.68-4.74,9.85-4.28a65.4,65.4,0,0,0,7,0c-.46,2.11-.46,2.1-3.92,2a21.15,21.15,0,0,0-5.25.41h7.73l.26.84c-.82.4-1.64,1.15-2.47,1.16-4.41,0-8.82-.11-13.23-.2Z" transform="translate(-67.92 -320.44)"/><path class="cls-1" d="M75.49,458.59v-4.73H88.06c-.72,3.6-2.06,4.78-5.49,4.83-2,0-4,0-6,.05A9.37,9.37,0,0,1,75.49,458.59Z" transform="translate(-67.92 -320.44)"/><path class="cls-1" d="M220.32,477.38v6.36c-2.24,0-4.47.06-6.69,0a2,2,0,0,1-1.51-.92c-.74-1.64-1.29-3.37-2-5.4Z" transform="translate(-67.92 -320.44)"/><path class="cls-1" d="M373.46,359.86h-4.33c.19-2,.45-4,.55-6,.07-1.65-.07-3.31-.07-5,0-3,0-3,3.21-2.63C373,350.65,373.23,355.07,373.46,359.86Z" transform="translate(-67.92 -320.44)"/><path class="cls-1" d="M393.12,519.3c-1.89,2.18-3.77,4.36-5.67,6.53s-3.77,3.81-7,3.22c.12-.41.13-1.15.5-1.54,1.65-1.7,3.4-3.31,5.12-5,.18-.17.52-.33.52-.5,0-3.87,2.39-3.84,5.19-3.15a2.51,2.51,0,0,0,.92-.12Z" transform="translate(-67.92 -320.44)"/><path class="cls-1" d="M75.43,465.13v-5.34h9.31C82.91,465.19,81.92,465.75,75.43,465.13Z" transform="translate(-67.92 -320.44)"/><path class="cls-1" d="M213,484.41h7.59v5.68C215.59,491.39,213.9,490.2,213,484.41Z" transform="translate(-67.92 -320.44)"/><path class="cls-1" d="M186,483.25c-1,.41-1.82-.11-2-2a36,36,0,0,0-1.69-6.29c2.19-1,3-.81,3.52,2.08.29,1.73,1.38,2.91,1.77,4.49.44,1.8,1.18,3.53,1.91,5.66-2-.14-4,1.27-4.67-1.49C184.63,485,185.54,484.06,186,483.25Z" transform="translate(-67.92 -320.44)"/><path class="cls-1" d="M184.34,393.44H171.6c-.39-2.07.33-3.24,2.64-3.27s4.66-.05,7-.21S184.36,391,184.34,393.44Z" transform="translate(-67.92 -320.44)"/><path class="cls-1" d="M349.71,362.29c.06.83.14,1.79.26,3.37-3.74,0-7.3.16-10.82-.12-.78-.06-1.45-1.63-2.17-2.51l.5-.74Z" transform="translate(-67.92 -320.44)"/><path class="cls-1" d="M172.69,395.16H183l.55.44c-1.6,1.56-3,3.87-4.87,4.51-3.4,1.15-4.23-2.57-6.13-4.25Z" transform="translate(-67.92 -320.44)"/><path class="cls-1" d="M381.66,530.82c-6,3.86-12,6.5-18.91,6.41,1-.37,1.94-.69,2.87-1.12,2.53-1.18,5.28-2.08,7.48-3.71A9.29,9.29,0,0,1,381.66,530.82Z" transform="translate(-67.92 -320.44)"/><path class="cls-1" d="M175.35,521.11c2.36.23,4.72.53,7.09.65,2.11.11,4.23,0,6.34,0l.3.84c-1.05.59-2.08,1.64-3.16,1.7-4,.2-8.09.08-12.14.08l-.29-.82c.64-.83,1.27-1.65,1.89-2.48Z" transform="translate(-67.92 -320.44)"/><path class="cls-1" d="M302.9,496.36h-6.19v-3.54l3.8-.21-3.75-.65.14-1h6Z" transform="translate(-67.92 -320.44)"/><path class="cls-1" d="M299.16,342.59l-7.69,6.66C289.51,343.56,291.54,341.72,299.16,342.59Z" transform="translate(-67.92 -320.44)"/><path class="cls-1" d="M274.9,451.85C274,459,259.57,465.74,252,465.35,260.8,462.81,269.87,460.77,274.9,451.85Z" transform="translate(-67.92 -320.44)"/><path class="cls-1" d="M305.15,335.9c-.67.39-1.34,1.08-2,1.11-2.87.13-5.74.06-9.34.06.69-.85,1.15-1.94,1.66-2,3.11-.16,6.23-.08,9.34-.08Z" transform="translate(-67.92 -320.44)"/><path class="cls-1" d="M173.15,388.59c.6-2.55,1.88-3.18,6-3,2.66.12,3,.43,3.47,3Z" transform="translate(-67.92 -320.44)"/><path class="cls-1" d="M196.68,509.48a8.09,8.09,0,0,1-2.49.79c-3.81-.12-7.62-.38-12.38-.65.92-.87,1.44-1.78,1.93-1.77,4.21.12,8.42.4,12.62.63Z" transform="translate(-67.92 -320.44)"/><path class="cls-1" d="M482.48,345.89v11.5l-.65,0c-1.06-3.79-.88-7.64-.51-11.5Z" transform="translate(-67.92 -320.44)"/><path class="cls-1" d="M262.71,382.3l11.18-2.44c.09,2.8,0,2.88-2.16,2.88h-8.86Z" transform="translate(-67.92 -320.44)"/><path class="cls-1" d="M171.87,457.14l3.92,1.27c-3.31,1.5-3.72,1.33-7.5-3.24l5.22.82,0,.84-1.33.55Z" transform="translate(-67.92 -320.44)"/><path class="cls-1" d="M262.57,358.65l-.24-4.56.9-.13c.64,3,1.27,6,2,9.62-2.92-1.26-1.76-3.65-2.74-5Z" transform="translate(-67.92 -320.44)"/><path class="cls-1" d="M181,384.05a2.71,2.71,0,0,1-.6.26c-1.88.1-3.76.18-5.78.27-.22-1.81.68-2.57,2.25-2.3S180.67,381,181,384.05Z" transform="translate(-67.92 -320.44)"/><path class="cls-1" d="M165.1,537.1H154.2C156.21,535.54,156.21,535.54,165.1,537.1Z" transform="translate(-67.92 -320.44)"/><path class="cls-1" d="M368.32,449.16h-8V448.1h8Z" transform="translate(-67.92 -320.44)"/><path class="cls-1" d="M359.11,447.56H349v-.69h10.07Z" transform="translate(-67.92 -320.44)"/><path class="cls-1" d="M262.53,358.57c.06,1.06.18,2.13.14,3.18a5.58,5.58,0,0,1-.54,1.58c-.29-.41-.81-.8-.86-1.23a28,28,0,0,1,0-7c.42,1.16.83,2.33,1.26,3.5Z" transform="translate(-67.92 -320.44)"/><path class="cls-1" d="M177.65,462.75,173,461C176.37,459.34,177.23,459.67,177.65,462.75Z" transform="translate(-67.92 -320.44)"/><path class="cls-1" d="M178.64,371.49l.33,3.92-2.29-.12.58-3.88Z" transform="translate(-67.92 -320.44)"/><path class="cls-1" d="M291.33,353.82l3.1,4.17-3.35.23c-.11-1.54-.19-2.83-.28-4.12Z" transform="translate(-67.92 -320.44)"/><path class="cls-1" d="M180.24,466l-5.51-2.35C178.36,462.13,179.23,462.49,180.24,466Z" transform="translate(-67.92 -320.44)"/><path class="cls-1" d="M183.76,471.4c-3.54,1.61-3.44-1.34-4.64-2.7,2.23-.74,2.15-.71,2.85,1.27C182.16,470.51,183,470.83,183.76,471.4Z" transform="translate(-67.92 -320.44)"/><path class="cls-1" d="M260.75,353.14c-.14-2.44.31-2.7,4-2.42C264.4,351.92,264.4,351.92,260.75,353.14Z" transform="translate(-67.92 -320.44)"/><path class="cls-1" d="M180.12,381.22h-4.41l-.45-.48c.6-.46,1.16-1.24,1.8-1.31C178.19,379.32,179.81,378.78,180.12,381.22Z" transform="translate(-67.92 -320.44)"/><path class="cls-1" d="M163.91,451.12l-6.12-.89.18-1.17,6.17,1Z" transform="translate(-67.92 -320.44)"/><path class="cls-1" d="M162.4,451.2l5.44.76-.13,1-5.45-.52Z" transform="translate(-67.92 -320.44)"/><path class="cls-1" d="M170.53,454.88l-5-.49.11-1.11,5,.52Z" transform="translate(-67.92 -320.44)"/><path class="cls-1" d="M177.9,465.79c1.47,0,3.22-.5,3.79,2.67l-4.25-1.7Z" transform="translate(-67.92 -320.44)"/><path d="M438,457a3.51,3.51,0,0,1-.86.22c-9.4-.12-18.81-.15-28.2-.51-1.37,0-2.88-1.47-4-2.58-7.36-7.34-14.62-14.78-21.95-22.15a41.26,41.26,0,0,0-3.46-2.82l.43-.58a66.77,66.77,0,0,1,6.46,5.07c6.95,6.93,13.78,14,20.56,21.07a4.91,4.91,0,0,0,3.91,1.66c8.07,0,16.14.1,24.21.15,1,0,1.91-.12,2.86-.19Z" transform="translate(-67.92 -320.44)"/><path d="M357.19,427.18H376v.2H357.19Z" transform="translate(-67.92 -320.44)"/><path d="M418.09,439.52l8.25,6.72-.41.5-8.21-6.84Z" transform="translate(-67.92 -320.44)"/><path d="M457,460.83l-13.38,5.66-.31-.8L457,460.88Z" transform="translate(-67.92 -320.44)"/><path d="M178.15,431.15H157V431h21.14Z" transform="translate(-67.92 -320.44)"/><path d="M136.24,432H148.1v.16H136.27Z" transform="translate(-67.92 -320.44)"/><path d="M313.22,493.19c-.85-21.81,18.32-36.73,36.33-36.27,19.41.49,35.71,16.9,35.52,36.27-.2,21.09-16.24,37.38-36.26,37.35C327.36,530.5,312.52,512.49,313.22,493.19Zm24.23-.72A11.56,11.56,0,0,0,349,504.31a11.13,11.13,0,0,0,11.56-11.42c0-6.9-4.92-12-11.63-12A11.47,11.47,0,0,0,337.45,492.47Zm-1.38-3.3L316.55,485c-1.39,3.84-1.54,11.68-.29,14.29L336.07,495Zm33.41,33,9.15-10.7-18.07-11.3-3.63,3.28Zm-49-8.47,17.82-13.42-2-4.2c-6.35,1.32-12.59,2.63-18.84,3.88-1.34.27-1.65,1-1.23,2.13C317.6,505.76,319,509.46,320.5,513.67ZM343,504.25,329.58,523l12,5.23c1.82-7.87,3.52-15.17,5.22-22.53Zm25.62,18.39c-4.2-6.3-8-12.06-11.9-17.72-.3-.44-1.54-.47-2.27-.33-1.06.21-2,.64-1.69,2.19.73,3.59,1.32,7.2,1.91,10.81.55,3.32,1,6.65,1.64,10.5Zm14.67-25.37c-6.95-.7-13.14-1.33-19.34-1.94-1-.1-2.17-.62-2.51,1.1-.28,1.37-1,2.54.82,3.59,4.1,2.38,8.06,5,12.09,7.49,1.45.9,2.91,1.77,4.86,2.95C380.64,505.92,381.92,501.77,383.31,497.27Zm-35.37,8.62c-1.71,7.47-3.37,14.74-5.08,22.25h12.36l-3.68-22.25Zm-26.08-33.84c-1.89,4-3.66,7.72-5.58,11.77l20.82,4.5c-.4-1.82,2.76-2.88.36-4.7C332.51,479.87,327.48,476.21,321.86,472.05Zm60.55,12.38L377,473.5l-17.47,12.18c1.15,1.21,2.25,3.13,3,3C369,487.52,375.32,486,382.41,484.43Zm-53.58,37.65c4.52-6.38,8.82-12.43,13.15-18.55l-3-2.36-18.23,13.7Zm13.37-40.71-10.51-18-9,7.72,16.72,12.58Zm13.86,0c3.61-5.68,7.2-11.3,11.06-17.36l-10.58-4.4c-1.45,7.16-2.77,13.66-4.09,20.19Zm-12.36-22c1.53,6.94,3,13.49,4.43,20.07h3.27c1.39-6.63,2.76-13.11,4.22-20.07Zm38.74,26.19c-1.23.18-2,.25-2.68.41L365,489.38c-3.39.77-3.39.77-2.79,4.68l21.05,2.16C383,492.49,382.71,489.23,382.44,485.61Zm-6.08-13-8.31-7.93-11.16,17.43,2.56,2.33Zm-29.47,6.7c-1.39-6.47-2.78-13-4.29-20.05L333,462.91c.07.63,0,.82.12.94,2.79,4.72,5.58,9.44,8.41,14.14C343.28,481,343.31,480.94,346.89,479.31Z" transform="translate(-67.92 -320.44)"/><path d="M115.27,424.5h45.61v.15H115.19Z" transform="translate(-67.92 -320.44)"/><ellipse cx="112.51" cy="102.13" rx="11.75" ry="0.09"/><path d="M170.5,415h13.11v.06h-13Z" transform="translate(-67.92 -320.44)"/><ellipse cx="68.56" cy="102.13" rx="8.41" ry="0.03"/><path d="M117.07,414.53h9.73v.06h-9.62Z" transform="translate(-67.92 -320.44)"/><path d="M102.7,493.92c0-20.78,17.07-38.13,37.5-37.89,20.81.23,34.48,17.24,34.72,37.06a36.59,36.59,0,0,1-36.53,37.4C118.85,530.46,102.67,513.89,102.7,493.92Zm25.53-1.34a11.05,11.05,0,0,0,10.92,11.53,11.2,11.2,0,0,0,11.41-10.87c.23-7.19-4.46-12.3-11.41-12.46C133.12,480.64,128.37,485.78,128.23,492.58Zm44.6,6.24L152,495.41c-1.66,4.62-2,3.56,1.45,6s6.76,4.86,10.13,7.29l4.45,3.24C169.7,507.34,171.2,503.27,172.83,498.82Zm-13.87,23c-4.26-6.07-8-11.55-12-16.91a2.65,2.65,0,0,0-2.44-.39,2.37,2.37,0,0,0-1,2c.22,1.72.82,3.39,1.2,5.09,1.14,5,2.24,10,3.47,15.57Zm-6.91-32.21,20.43-4.16-4.77-11.7c-5.21,3.83-9.8,7.41-14.61,10.66C151,485.84,150.2,487.11,152.05,489.6Zm-1.65,10.89-3.28,2.81c4.15,5.86,8.24,11.66,12.59,17.82l7.64-8.54Zm-44.61,1.33c6.78-1.93,13.07-3.73,19.36-5.49,1.16-.33,2.19-.41,2-2.17s-.75-2.32-2.43-2.3-3.14-.23-4.72-.34l-14.19-1Zm4.38,11.07L128.92,500l-1.44-3.3-21.56,6.13C107.37,506.25,108.72,509.45,110.17,512.89Zm62.27-15.05V486.43c-6.18,1.28-11.87,2.46-17.57,3.66-3.21.67-3.2.68-2.67,4.36Zm-67.19-8.28c6.64.44,12.6.86,18.56,1.21,3.34.21,3.34.16,3.84-3.57l-19.33-8.28Zm62.05-16.67-7.61-8-12,17.61c.83,1,1.55,1.87,2.41,2.89Zm-50,48.23,14.78-18-2.56-2.27-18.85,12.92Zm22.3-15.45c-.62,7.6-1.23,15-1.88,23l9.56-1.36c-1.71-7.57-3.32-14.68-5-21.95ZM147,481.75l11.88-17.52L150.09,460c-1.89,6.27-3.5,12-5.38,17.68C143.91,480.05,144.57,481.22,147,481.75Zm-20,44.71,9.51,2.08c.66-7.56,1.3-14.59,1.84-21.64,0-.5-.65-1.06-1-1.6-.58.47-1.42.83-1.69,1.44C132.87,513.11,130.11,519.52,127.08,526.46Zm8.31-21.37-.52-1c-1,.28-2.35.24-2.91.9-4.58,5.36-9,10.85-13.77,16.65L126,526.2C129.26,518.87,132.33,512,135.39,505.09ZM114,470l-5.21,7.95,19.34,8.36,1.89-2.53ZM143,479.71c2-6.52,4-13,6.17-20L140,458.26c-.07.85-.16,1.33-.15,1.81.09,5.73.28,11.46.24,17.19C140.06,479.48,141,480,143,479.71Zm-28.24-10.27,15.91,13.5,2.36-1.64-11.75-17.37Zm24.13-11.13L130.13,460c2.25,6.38,4.33,12.39,6.52,18.37.18.48,1.08.7,1.65,1,.28-.53.81-1.05.81-1.57,0-2.82-.15-5.64-.18-8.47C138.89,465.87,138.92,462.32,138.92,458.31Zm-2.63,22.14c-2.55-7.3-4.77-13.68-7.1-20.33l-7,3.29c3.81,5.64,7.38,11,11.09,16.29C133.63,480.21,134.84,480.12,136.29,480.45Z" transform="translate(-67.92 -320.44)"/><path d="M238.34,448.12c-.63-.21-1.32-.24-1.67-.6a2.73,2.73,0,0,1-.9-1.85,2,2,0,0,1,1.44-1.3c1.66,0,2.44-.87,3.29-2.18a3.82,3.82,0,0,1,2.75-1.3c5.74-.19,11.48-.36,17.22-.23,4,.09,6.28,2.08,6.89,5.3a7.29,7.29,0,0,1-4.26,8,25.68,25.68,0,0,1-7.21,1.68,65.85,65.85,0,0,1-10.22.32C240.61,455.66,238.63,453.44,238.34,448.12Zm2.88-5.25.17.95c3.46,0,6.94-.16,10.39.05a41.43,41.43,0,0,1,8.82,1.35,4.37,4.37,0,0,1,2.5,3.2c.07,1.17-1.16,2.54-2.07,3.61a3.56,3.56,0,0,1-2.28.85c-4.31.23-8.64.49-12.95.45a3.72,3.72,0,0,1-3.84-3.84c-.09-1.81-.89-1.86-2.22-1.38.47,4.37,1.31,6,4.59,6.07a96.65,96.65,0,0,0,15.87-.7,6.47,6.47,0,0,0,5.67-7.1c-.43-3-2.66-4.49-7.05-4.47-5.32,0-10.65.2-16,.37A5.83,5.83,0,0,0,241.22,442.87Zm11.85,3.68c-5.4-1.38-10.83-2.34-16.34-.38A41.23,41.23,0,0,0,253.07,446.55Z" transform="translate(-67.92 -320.44)"/><ellipse cx="219.82" cy="122.64" rx="7.18" ry="0.07"/><ellipse cx="196.73" cy="155.15" rx="15.48" ry="0.07"/><path d="M265.58,488.64h-13v-.09h13.08Z" transform="translate(-67.92 -320.44)"/><path d="M289.29,458.61h0Z" transform="translate(-67.92 -320.44)"/><path d="M487,428.36l-16.6,5.25-.29-.92,16.67-5Z" transform="translate(-67.92 -320.44)"/><path d="M433.8,514h23.91v.11h-24Z" transform="translate(-67.92 -320.44)"/><path d="M489.62,515.17H479.2V515h10.41Z" transform="translate(-67.92 -320.44)"/><path d="M465.93,348.94c.54,1,1.58,2.13,1.47,3.1s-1.49,1.53-2.31,2.28c-.75-.92-2-1.79-2.11-2.8-.1-.78,1.15-1.75,1.8-2.63Zm1.27,2.65c-1-.62-1.6-1.31-2.19-1.29s-1.35,1.08-1.24,1.38a2.55,2.55,0,0,0,1.56,1.42C465.72,353.19,466.32,352.34,467.2,351.59Z" transform="translate(-67.92 -320.44)"/><path d="M442.81,352.43c-.84.66-1.61,1.72-2.55,1.9a1.88,1.88,0,0,1-2.37-2.28c.2-.94,1.26-2.29,2-2.37s1.9,1,2.85,1.64ZM440,349.67c-.69,1.13-1.46,1.84-1.35,2.37s1.05.95,1.63,1.42c.39-.52,1.12-1,1.1-1.55S440.65,350.72,440,349.67Z" transform="translate(-67.92 -320.44)"/><path d="M413,349.57c.64,1,1.62,1.91,1.84,3,.3,1.5-.68,2.49-2.3,2.51s-2.64-1-2.42-2.44c.15-1.08,1.14-2,1.76-3Zm1.58,3c-1-.73-1.59-1.44-2.21-1.48-.41,0-1.32,1-1.25,1.36a2.23,2.23,0,0,0,1.44,1.4C413,353.94,413.58,353.22,414.55,352.57Z" transform="translate(-67.92 -320.44)"/><path d="M388.59,352.86c-1.7,1.14-2.61,2.19-3.65,2.33a2.14,2.14,0,0,1-2.44-2.46c.07-1.58,1-2.9,2.63-2.64C386.14,350.26,387,351.5,388.59,352.86Zm-1.52-.18c-1-.77-1.64-1.69-2.1-1.59a2.43,2.43,0,0,0-1.39,1.69c-.07.38.87,1.36,1.34,1.35S386.11,353.38,387.07,352.68Z" transform="translate(-67.92 -320.44)"/><ellipse cx="174.92" cy="185.65" rx="8.25" ry="0.11"/><path d="M341.28,349.43c1,1.47,2,2.29,2.08,3.17,0,.63-1.22,1.86-1.88,1.85a2.71,2.71,0,0,1-2-1.84C339.41,351.84,340.37,351,341.28,349.43Z" transform="translate(-67.92 -320.44)"/><path d="M362.43,352.63c-1.48.9-2.36,1.85-3.06,1.74s-1.88-1.27-1.85-1.93,1.19-2,1.81-2C360.17,350.46,361,351.52,362.43,352.63Z" transform="translate(-67.92 -320.44)"/><path class="cls-1" d="M312,331q2.49-1.45,5-2.93l1.79-.86c2.76,12.51,5.47,24.82,8.28,37.55H303.37l.08.09c1-5.31,1.79-10.68,3.14-15.9C308.14,342.94,307.76,336.29,312,331Z" transform="translate(-67.92 -320.44)"/><path d="M303.37,364.79H327c-2.81-12.73-5.52-25-8.28-37.55l-1.79.86,2-2.21a27.35,27.35,0,0,1,1,2.78q3.69,16.4,7.32,32.81a5.12,5.12,0,0,1,.36,2.18c-.21.68-.95,1.71-1.47,1.72-7.31,0-14.62-.07-21.93-.16C303.94,365.21,303.65,364.94,303.37,364.79Z" transform="translate(-67.92 -320.44)"/><path d="M312,331c-4.19,5.26-3.81,11.91-5.36,18-1.35,5.22-2.11,10.59-3.14,15.9a7.86,7.86,0,0,1-.23-2.28c1.85-9.43,3.67-18.86,5.75-28.23C309.26,333.1,310.93,332.14,312,331Z" transform="translate(-67.92 -320.44)"/><path d="M216.72,456.64H204.07v-.25H216.8Z" transform="translate(-67.92 -320.44)"/><ellipse cx="231.25" cy="192.09" rx="7.91" ry="0.1"/><path class="cls-1" d="M337.45,492.47a11.47,11.47,0,0,1,11.48-11.6c6.71.05,11.62,5.12,11.63,12A11.13,11.13,0,0,1,349,504.31,11.56,11.56,0,0,1,337.45,492.47Zm4.27.24c0,4.35,2.9,7.28,7.36,7.37,4.11.08,7-3,7-7.35a7.2,7.2,0,1,0-14.4,0Z" transform="translate(-67.92 -320.44)"/><path class="cls-1" d="M336.07,489.17V495l-19.81,4.28c-1.25-2.61-1.1-10.45.29-14.29Z" transform="translate(-67.92 -320.44)"/><path class="cls-1" d="M369.48,522.14l-12.55-18.72,3.63-3.28,18.07,11.3Z" transform="translate(-67.92 -320.44)"/><path class="cls-1" d="M320.5,513.67c-1.54-4.21-2.9-7.91-4.23-11.61-.42-1.15-.11-1.86,1.23-2.13,6.25-1.25,12.49-2.56,18.84-3.88l2,4.2Z" transform="translate(-67.92 -320.44)"/><path class="cls-1" d="M343,504.25l3.77,1.44c-1.7,7.36-3.4,14.66-5.22,22.53l-12-5.23Z" transform="translate(-67.92 -320.44)"/><path class="cls-1" d="M368.64,522.64l-12.31,5.45c-.6-3.85-1.09-7.18-1.64-10.5-.59-3.61-1.18-7.22-1.91-10.81-.31-1.55.63-2,1.69-2.19.73-.14,2-.11,2.27.33C360.65,510.58,364.44,516.34,368.64,522.64Z" transform="translate(-67.92 -320.44)"/><path class="cls-1" d="M383.31,497.27c-1.39,4.5-2.67,8.65-4.08,13.19-2-1.18-3.41-2-4.86-2.95-4-2.5-8-5.11-12.09-7.49-1.79-1-1.1-2.22-.82-3.59.34-1.72,1.5-1.2,2.51-1.1C370.17,495.94,376.36,496.57,383.31,497.27Z" transform="translate(-67.92 -320.44)"/><path class="cls-1" d="M347.94,505.89h3.6l3.68,22.25H342.86C344.57,520.63,346.23,513.36,347.94,505.89Z" transform="translate(-67.92 -320.44)"/><path class="cls-1" d="M321.86,472.05c5.62,4.16,10.65,7.82,15.6,11.57,2.4,1.82-.76,2.88-.36,4.7l-20.82-4.5C318.2,479.77,320,476.05,321.86,472.05Z" transform="translate(-67.92 -320.44)"/><path class="cls-1" d="M382.41,484.43c-7.09,1.57-13.45,3.09-19.88,4.25-.73.13-1.83-1.79-3-3L377,473.5Z" transform="translate(-67.92 -320.44)"/><path class="cls-1" d="M328.83,522.08l-8-7.21L339,501.17l3,2.36C337.65,509.65,333.35,515.7,328.83,522.08Z" transform="translate(-67.92 -320.44)"/><path class="cls-1" d="M342.2,481.37l-2.75,2.34-16.72-12.58,9-7.72Z" transform="translate(-67.92 -320.44)"/><path class="cls-1" d="M356.06,481.38l-3.61-1.57c1.32-6.53,2.64-13,4.09-20.19l10.58,4.4C363.26,470.08,359.67,475.7,356.06,481.38Z" transform="translate(-67.92 -320.44)"/><path class="cls-1" d="M343.7,459.42h11.92c-1.46,7-2.83,13.44-4.22,20.07h-3.27C346.68,472.91,345.23,466.36,343.7,459.42Z" transform="translate(-67.92 -320.44)"/><path class="cls-1" d="M382.44,485.61c.27,3.62.51,6.88.79,10.61l-21.05-2.16c-.6-3.91-.6-3.91,2.79-4.68L379.76,486C380.48,485.86,381.21,485.79,382.44,485.61Z" transform="translate(-67.92 -320.44)"/><path class="cls-1" d="M376.36,472.61l-16.91,11.83-2.56-2.33,11.16-17.43Z" transform="translate(-67.92 -320.44)"/><path class="cls-1" d="M346.89,479.31c-3.58,1.63-3.61,1.64-5.39-1.32-2.83-4.7-5.62-9.42-8.41-14.14-.08-.12,0-.31-.12-.94l9.63-3.65C344.11,466.31,345.5,472.84,346.89,479.31Z" transform="translate(-67.92 -320.44)"/><path class="cls-1" d="M128.23,492.58c.14-6.8,4.89-11.94,10.92-11.8,6.95.16,11.64,5.27,11.41,12.46a11.2,11.2,0,0,1-11.41,10.87A11.05,11.05,0,0,1,128.23,492.58Zm3.55-.18c0,4.52,3,7.69,7.42,7.69,3.93,0,7.24-3.53,7.23-7.72A7.29,7.29,0,0,0,139.2,485,7.2,7.2,0,0,0,131.78,492.4Z" transform="translate(-67.92 -320.44)"/><path class="cls-1" d="M172.83,498.82c-1.63,4.45-3.13,8.52-4.81,13.1l-4.45-3.24c-3.37-2.43-6.73-4.88-10.13-7.29s-3.11-1.36-1.45-6Z" transform="translate(-67.92 -320.44)"/><path class="cls-1" d="M159,521.81l-10.74,5.37c-1.23-5.54-2.33-10.56-3.47-15.57-.38-1.7-1-3.37-1.2-5.09a2.37,2.37,0,0,1,1-2,2.65,2.65,0,0,1,2.44.39C150.92,510.26,154.7,515.74,159,521.81Z" transform="translate(-67.92 -320.44)"/><path class="cls-1" d="M152.05,489.6c-1.85-2.49-1.08-3.76,1-5.2,4.81-3.25,9.4-6.83,14.61-10.66l4.77,11.7Z" transform="translate(-67.92 -320.44)"/><path class="cls-1" d="M150.4,500.49l16.95,12.09-7.64,8.54c-4.35-6.16-8.44-12-12.59-17.82Z" transform="translate(-67.92 -320.44)"/><path class="cls-1" d="M105.79,501.82V490.53l14.19,1c1.58.11,3.15.37,4.72.34s2.23.66,2.43,2.3-.82,1.84-2,2.17C118.86,498.09,112.57,499.89,105.79,501.82Z" transform="translate(-67.92 -320.44)"/><path class="cls-1" d="M110.17,512.89c-1.45-3.44-2.8-6.64-4.25-10.06l21.56-6.13,1.44,3.3Z" transform="translate(-67.92 -320.44)"/><path class="cls-1" d="M172.44,497.84l-20.24-3.39c-.53-3.68-.54-3.69,2.67-4.36,5.7-1.2,11.39-2.38,17.57-3.66Z" transform="translate(-67.92 -320.44)"/><path class="cls-1" d="M105.25,489.56l3.07-10.64,19.33,8.28c-.5,3.73-.5,3.78-3.84,3.57C117.85,490.42,111.89,490,105.25,489.56Z" transform="translate(-67.92 -320.44)"/><path class="cls-1" d="M167.3,472.89l-17.17,12.47c-.86-1-1.58-1.89-2.41-2.89l12-17.61Z" transform="translate(-67.92 -320.44)"/><path class="cls-1" d="M117.28,521.12l-6.63-7.38,18.85-12.92,2.56,2.27Z" transform="translate(-67.92 -320.44)"/><path class="cls-1" d="M139.58,505.67l2.72-.32c1.64,7.27,3.25,14.38,5,21.95l-9.56,1.36C138.35,520.69,139,513.27,139.58,505.67Z" transform="translate(-67.92 -320.44)"/><path class="cls-1" d="M147,481.75c-2.47-.53-3.13-1.7-2.33-4.11,1.88-5.66,3.49-11.41,5.38-17.68l8.83,4.27Z" transform="translate(-67.92 -320.44)"/><path class="cls-1" d="M127.08,526.46c3-6.94,5.79-13.35,8.65-19.72.27-.61,1.11-1,1.69-1.44.36.54,1.05,1.1,1,1.6-.54,7.05-1.18,14.08-1.84,21.64Z" transform="translate(-67.92 -320.44)"/><path class="cls-1" d="M135.39,505.09c-3.06,6.89-6.13,13.78-9.39,21.11l-7.81-4.61c4.76-5.8,9.19-11.29,13.77-16.65.56-.66,1.92-.62,2.91-.9Z" transform="translate(-67.92 -320.44)"/><path class="cls-1" d="M114,470l16,13.78-1.89,2.53-19.34-8.36Z" transform="translate(-67.92 -320.44)"/><path class="cls-1" d="M143,479.71c-2,.3-3-.23-3-2.45,0-5.73-.15-11.46-.24-17.19,0-.48.08-1,.15-1.81l9.22,1.46C147.06,466.66,145.05,473.19,143,479.71Z" transform="translate(-67.92 -320.44)"/><path class="cls-1" d="M114.79,469.44l6.52-5.51,11.75,17.37-2.36,1.64Z" transform="translate(-67.92 -320.44)"/><path class="cls-1" d="M138.92,458.31c0,4,0,7.56,0,11.1,0,2.83.19,5.65.18,8.47,0,.52-.53,1-.81,1.57-.57-.34-1.47-.56-1.65-1-2.19-6-4.27-12-6.52-18.37Z" transform="translate(-67.92 -320.44)"/><path class="cls-1" d="M136.29,480.45c-1.45-.33-2.66-.24-3-.75-3.71-5.28-7.28-10.65-11.09-16.29l7-3.29C131.52,466.77,133.74,473.15,136.29,480.45Z" transform="translate(-67.92 -320.44)"/><path class="cls-1" d="M241.22,442.87a5.83,5.83,0,0,1,1.63-.59c5.32-.17,10.65-.36,16-.37,4.39,0,6.62,1.5,7.05,4.47a6.47,6.47,0,0,1-5.67,7.1,96.65,96.65,0,0,1-15.87.7c-3.28-.11-4.12-1.7-4.59-6.07,1.33-.48,2.13-.43,2.22,1.38a3.72,3.72,0,0,0,3.84,3.84c4.31,0,8.64-.22,12.95-.45A3.56,3.56,0,0,0,261,452c.91-1.07,2.14-2.44,2.07-3.61a4.37,4.37,0,0,0-2.5-3.2,41.43,41.43,0,0,0-8.82-1.35c-3.45-.21-6.93-.05-10.39-.05Z" transform="translate(-67.92 -320.44)"/><path class="cls-1" d="M253.07,446.55a41.23,41.23,0,0,1-16.34-.38C242.24,444.21,247.67,445.17,253.07,446.55Z" transform="translate(-67.92 -320.44)"/><path class="cls-1" d="M467.2,351.59c-.88.75-1.48,1.6-1.87,1.51a2.55,2.55,0,0,1-1.56-1.42c-.11-.3.78-1.36,1.24-1.38S466.21,351,467.2,351.59Z" transform="translate(-67.92 -320.44)"/><path class="cls-1" d="M440,349.67c.69,1.05,1.35,1.63,1.38,2.24s-.71,1-1.1,1.55c-.58-.47-1.52-.86-1.63-1.42S439.27,350.8,440,349.67Z" transform="translate(-67.92 -320.44)"/><path class="cls-1" d="M414.55,352.57c-1,.65-1.58,1.37-2,1.28a2.23,2.23,0,0,1-1.44-1.4c-.07-.39.84-1.39,1.25-1.36C413,351.13,413.53,351.84,414.55,352.57Z" transform="translate(-67.92 -320.44)"/><path class="cls-1" d="M387.07,352.68c-1,.7-1.55,1.43-2.15,1.45s-1.41-1-1.34-1.35a2.43,2.43,0,0,1,1.39-1.69C385.43,351,386.11,351.91,387.07,352.68Z" transform="translate(-67.92 -320.44)"/><path d="M341.72,492.71a7.2,7.2,0,1,1,14.4,0c0,4.39-2.93,7.43-7,7.35C344.62,500,341.69,497.06,341.72,492.71Zm7.39,6.12c3.55,0,5.76-2.35,5.78-6.08a6.09,6.09,0,0,0-6.19-6.15,5.81,5.81,0,0,0-5.86,6.12C342.86,496.62,345.16,498.86,349.11,498.83Z" transform="translate(-67.92 -320.44)"/><path d="M131.78,492.4A7.2,7.2,0,0,1,139.2,485a7.29,7.29,0,0,1,7.23,7.36c0,4.19-3.3,7.73-7.23,7.72C134.81,500.09,131.76,496.92,131.78,492.4Zm7.11-6.25c-3.48.06-5.92,2.67-5.9,6.32,0,3.87,2.42,6.34,6.13,6.29a6.07,6.07,0,0,0,6-6.52A6.17,6.17,0,0,0,138.89,486.15Z" transform="translate(-67.92 -320.44)"/><path class="cls-1" d="M349.11,498.83c-3.95,0-6.25-2.21-6.27-6.11a5.81,5.81,0,0,1,5.86-6.12,6.09,6.09,0,0,1,6.19,6.15C354.87,496.48,352.66,498.8,349.11,498.83Z" transform="translate(-67.92 -320.44)"/><path class="cls-1" d="M138.89,486.15a6.17,6.17,0,0,1,6.26,6.09,6.07,6.07,0,0,1-6,6.52c-3.71.05-6.11-2.42-6.13-6.29C133,488.82,135.41,486.21,138.89,486.15Z" transform="translate(-67.92 -320.44)"/></svg>