<svg xmlns="http://www.w3.org/2000/svg" width="390.001" height="416.57" version="1.0"><path style="font-style:normal;font-weight:400;font-size:medium;line-height:125%;font-family:Sans;letter-spacing:0;word-spacing:0;display:inline;fill:#fff;fill-opacity:1;stroke:#000;stroke-width:3;stroke-linecap:butt;stroke-linejoin:miter;stroke-miterlimit:4;stroke-dasharray:none;stroke-opacity:1" d="M60.47 47.801c12.226 34.995 16.262 68.937 15.3 102.236-.015.417 26.197 7.066 25.657 7.053-6.194-.154-25.947.494-26.136 3.633-2.43 40.362-11.757 79.838-22.227 119.167-.27 1.017 8.587 4.1 13.677 6.261.981.417 9.044-1.198 9.044-1.198-.694-.36-2.812 1.076-4.298 2.187-.873.651 1.877 5.962 1.877 5.962s-4.404-4.861-5.743-4.974c-5.015-.422-16.417-1.292-16.643-.453-7.992 29.65-16.417 59.245-22.81 89.101l323.02 4.984c20.37-38.125 30.977-79.147 35.15-122.079.072-.732-.297-5.907-.48-5.698-3.254 3.722-16.678-1.515-16.215-1.545 0 0 17.676-4.43 17.812-6.497 2.656-40.448.014-82.469-5.223-125.258-.064-.53-1.518-1.074-3.337-1.622-.545-.164-6.88 4.592-7.462 4.427-.472-.133 4.81-5.186 4.346-5.319-2.246-.644-4.234-1.285-4.312-1.907-.083-.655-7.923-6.825-7.923-6.825s10.643 4.084 11.193 4.196c1.73.353 5.834.617 5.834.617s.383-3.657.266-4.541c-2.918-22.148-6.465-44.482-10.268-66.892z"/><path style="font-style:normal;font-weight:400;font-size:medium;line-height:125%;font-family:Sans;letter-spacing:0;word-spacing:0;display:inline;fill:#fff;fill-opacity:1;stroke:#000;stroke-width:3;stroke-linecap:butt;stroke-linejoin:miter;stroke-miterlimit:4;stroke-dasharray:none;stroke-opacity:1" d="M321.091 331.045S236.67 352.78 206.914 352.78c-29.755 0-62.97 4.112-72.658 2.35-9.688-1.763-108.641-27.022-108.641-27.022-41.379 23.81-18.95 51.354-9.688 78.128l319.696 8.811c17.266-28 31.52-56.001-14.531-84.002z"/><path style="font-style:normal;font-weight:400;font-size:medium;line-height:125%;font-family:Sans;letter-spacing:0;word-spacing:0;display:inline;fill:none;fill-opacity:1;stroke:#000;stroke-width:3;stroke-linecap:butt;stroke-linejoin:miter;stroke-miterlimit:4;stroke-dasharray:none;stroke-opacity:1" d="M320.746 330.164c-19.351 34.585 3.284 57.639 12.801 84.296"/><path style="font-style:normal;font-weight:400;font-size:medium;line-height:125%;font-family:Sans;letter-spacing:0;word-spacing:0;display:inline;fill:#fff;fill-opacity:1;stroke:#000;stroke-width:3;stroke-linecap:butt;stroke-linejoin:miter;stroke-miterlimit:4;stroke-dasharray:none;stroke-opacity:1" d="M329.88 1.5c-3.258 0-101.646 12.833-106.207 12.833h-79.492c-13.683 0-89.917-11.764-89.917-11.764-20.256 39.648-30.183 51.357 1.954 82.345 0 0 160.94-7.486 166.152-7.486 5.213 0 124.451 4.813 124.451 4.813l26.063-30.479c-3.44-32.846-22.47-42.664-43.004-50.262z"/><path style="font-style:normal;font-weight:400;font-size:medium;line-height:125%;font-family:Sans;letter-spacing:0;word-spacing:0;display:inline;fill:none;fill-opacity:1;stroke:#000;stroke-width:3;stroke-linecap:butt;stroke-linejoin:miter;stroke-miterlimit:4;stroke-dasharray:none;stroke-opacity:1" d="M328.577 1.5c-17.261 23.313-14.61 42.087-.651 58.283l19.547 21.388"/><path style="font-style:normal;font-weight:400;font-size:medium;line-height:125%;font-family:Sans;letter-spacing:0;word-spacing:0;display:inline;fill:none;fill-opacity:1;stroke:#000;stroke-width:3;stroke-linecap:butt;stroke-linejoin:miter;stroke-miterlimit:4;stroke-dasharray:none;stroke-opacity:1" d="M332.487 64.06c34.123-9.201 30.328-34.277 0-42.241l-15.15 12.432M225.374 14.47l-34.388 8.178-37.283 6.843"/><path style="font-style:normal;font-weight:400;font-size:medium;line-height:125%;font-family:Sans;letter-spacing:0;word-spacing:0;display:inline;fill:none;fill-opacity:1;stroke:#000;stroke-width:3;stroke-linecap:butt;stroke-linejoin:miter;stroke-miterlimit:4;stroke-dasharray:none;stroke-opacity:1" d="M180.85 24.484c-.723-.334-16.83-2.671-16.83-2.671M206.551 78.228l44.523-10.682 14.117.333M139.224 355.962l-45.247 8.011M84.928 355.628l19.908 4.34 7.602.667M196.778 410.707l46.694-9.68M330.708 406.034c4.504-19.621 23.15-37.3-14.84-62.757"/><path style="font-style:normal;font-weight:400;font-size:medium;line-height:125%;font-family:Sans;letter-spacing:0;word-spacing:0;display:inline;fill:none;fill-opacity:1;stroke:#000;stroke-width:3;stroke-linecap:butt;stroke-linejoin:miter;stroke-miterlimit:4;stroke-dasharray:none;stroke-opacity:1" d="M313.696 350.287c13.696 12.533 26.526 25.115 9.049 39.39"/></svg>