<svg id="svg" xmlns="http://www.w3.org/2000/svg" xmlns:xlink="http://www.w3.org/1999/xlink" width="400" height="421.53846153846155" viewBox="0, 0, 400,421.53846153846155" version="1.1"><g id="svgg"><path id="path0" d="M33.116 13.770 C 28.444 22.805,32.884 44.497,42.324 58.762 C 44.557 62.137,45.972 65.310,45.468 65.814 C 44.092 67.190,36.085 57.225,31.219 48.081 C 21.432 29.688,11.264 44.644,18.850 66.274 C 21.798 74.680,24.404 79.524,34.307 95.000 C 36.647 98.656,33.942 96.900,28.016 90.915 C 20.580 83.404,11.009 80.216,7.967 84.236 C 1.767 92.432,15.603 117.427,34.452 132.078 C 38.797 135.456,36.043 135.954,27.848 133.274 C -2.425 123.372,2.685 154.006,33.758 168.704 C 44.658 173.860,45.067 174.778,37.065 176.130 C 33.758 176.689,29.778 178.112,28.219 179.293 C 26.660 180.474,24.280 181.463,22.931 181.490 C 19.216 181.564,15.526 186.477,15.113 191.900 C 14.398 201.286,24.768 207.268,38.485 205.381 L 46.093 204.335 36.124 214.705 C 20.931 230.507,22.987 239.506,41.484 238.168 C 51.956 237.410,52.212 237.738,47.068 245.318 C 38.645 257.730,47.562 266.321,62.308 260.000 C 71.793 255.934,72.342 256.061,70.647 261.923 C 68.241 270.246,74.390 279.621,79.986 276.162 C 80.840 275.635,81.538 276.572,81.538 278.245 C 81.538 279.918,81.959 282.382,82.472 283.720 C 83.204 285.628,82.339 286.154,78.474 286.154 C 72.601 286.154,65.292 289.399,59.896 294.403 C 50.761 302.873,38.462 303.869,38.462 296.138 C 38.462 290.938,33.479 288.463,30.233 292.050 C 20.554 302.745,40.468 317.085,61.371 314.474 L 69.838 313.416 63.524 320.802 C 55.420 330.283,56.222 333.750,65.290 328.436 C 72.611 324.145,76.297 323.815,87.634 326.432 C 96.597 328.501,97.384 331.294,90.136 335.310 C 77.003 342.587,83.973 353.846,101.611 353.846 C 109.052 353.846,109.231 353.955,109.231 358.462 C 109.231 362.329,108.622 363.077,105.475 363.077 C 101.031 363.077,99.260 365.196,101.940 367.305 C 106.056 370.545,117.742 370.767,123.439 367.713 C 129.533 364.447,132.218 365.856,134.565 373.549 C 135.945 378.073,140.965 377.490,140.326 372.880 C 139.808 369.139,147.694 360.000,151.441 360.000 C 153.339 360.000,153.614 360.660,152.564 362.692 C 147.710 372.094,150.113 383.234,155.276 375.263 C 163.473 362.605,174.457 355.686,170.710 365.539 C 166.444 376.760,172.011 394.055,177.594 386.923 C 179.986 383.867,180.023 383.871,183.078 387.478 C 188.792 394.225,185.416 408.210,179.298 403.133 C 173.647 398.443,172.094 405.614,177.704 410.492 C 184.885 416.736,190.382 414.209,198.594 400.890 C 201.483 396.204,204.600 392.356,205.522 392.339 C 207.529 392.301,210.769 385.643,210.769 381.557 C 210.769 376.754,213.121 376.767,217.745 381.593 C 223.311 387.403,226.476 387.528,226.107 381.923 C 225.674 375.357,225.922 375.048,229.573 377.605 C 231.454 378.922,235.034 380.000,237.529 380.000 C 240.024 380.000,243.336 381.150,244.889 382.556 C 246.443 383.961,249.959 385.193,252.703 385.293 C 255.447 385.393,258.418 385.928,259.304 386.482 C 260.191 387.036,261.922 386.853,263.150 386.076 C 264.379 385.299,267.942 384.652,271.068 384.639 C 276.964 384.615,286.526 378.329,284.205 376.003 C 283.556 375.352,282.206 375.640,281.205 376.641 C 275.087 382.760,255.645 376.362,248.121 365.755 C 243.700 359.521,244.570 358.926,252.633 362.666 C 268.191 369.882,283.748 373.268,287.486 370.253 C 290.529 367.799,300.131 364.665,304.692 364.639 C 306.850 364.626,309.382 363.849,310.319 362.912 C 311.256 361.975,314.337 360.739,317.165 360.165 C 321.565 359.273,322.377 358.408,322.790 354.176 C 323.327 348.665,320.975 347.611,318.493 352.250 C 315.622 357.613,310.180 354.004,309.042 345.982 C 307.858 337.637,307.156 338.150,317.051 340.122 C 330.884 342.879,341.127 334.754,337.086 324.231 C 334.616 317.800,330.744 318.651,331.836 325.385 C 333.041 332.805,327.942 332.743,319.632 325.235 C 312.548 318.835,305.149 315.385,298.511 315.385 C 292.460 315.385,292.486 317.805,298.550 319.018 C 303.319 319.971,324.593 333.648,324.608 335.769 C 324.625 338.328,317.478 336.662,309.763 332.308 C 303.734 328.905,299.587 327.692,293.981 327.692 C 284.814 327.692,279.216 322.457,280.778 315.346 C 281.386 312.576,280.858 310.582,279.139 309.155 C 277.744 307.997,275.999 305.463,275.262 303.525 C 274.388 301.226,272.660 300.000,270.294 300.000 C 264.931 300.000,264.353 298.536,267.804 293.689 C 269.573 291.205,270.709 287.514,270.451 285.089 C 270.136 282.124,270.708 280.829,272.340 280.804 C 274.726 280.769,284.518 276.938,293.401 272.566 C 296.117 271.229,298.776 270.571,299.310 271.104 C 300.635 272.429,288.120 285.811,284.473 286.968 C 282.027 287.745,280.042 293.846,282.235 293.846 C 283.828 293.846,290.769 290.204,290.770 289.368 C 290.771 288.870,292.502 288.362,294.616 288.240 C 300.333 287.910,299.194 290.912,291.437 296.618 C 287.640 299.412,284.938 302.355,285.434 303.157 C 286.745 305.279,288.675 304.952,291.498 302.129 C 294.870 298.756,305.523 296.546,312.623 297.746 C 318.788 298.787,322.098 301.477,317.398 301.627 C 305.650 302.001,290.912 306.479,290.809 309.706 C 290.787 310.391,291.471 310.517,292.328 309.988 C 294.689 308.528,309.724 313.350,314.483 317.094 C 317.169 319.207,319.214 319.863,320.160 318.917 C 322.956 316.121,319.700 312.411,311.779 309.365 L 303.846 306.314 311.538 306.200 C 325.248 305.997,336.036 299.208,335.111 291.366 C 334.464 285.875,331.154 284.776,331.154 290.051 C 331.154 296.309,328.770 297.733,321.794 295.643 C 318.496 294.655,313.281 293.846,310.206 293.846 C 303.670 293.846,303.075 291.654,308.462 287.417 C 310.577 285.753,312.308 283.404,312.308 282.196 C 312.308 280.674,314.124 280.000,318.223 280.000 C 324.350 280.000,329.231 276.483,329.231 272.068 C 329.231 270.412,330.459 269.944,333.598 270.405 C 342.347 271.689,345.231 264.742,340.000 254.983 C 336.088 247.685,336.122 247.464,340.869 249.269 C 360.605 256.772,369.890 235.597,352.343 223.102 C 345.600 218.301,346.567 217.036,356.525 217.630 C 367.595 218.290,373.058 215.634,376.226 208.052 C 380.176 198.597,377.011 195.369,355.000 186.404 C 349.392 184.121,349.652 182.028,355.708 180.698 C 372.495 177.011,390.769 161.454,390.769 150.851 C 390.769 148.926,382.825 145.483,375.000 144.018 C 367.728 142.656,367.758 142.454,376.343 134.897 C 387.631 124.960,397.056 102.287,392.000 97.231 C 388.103 93.333,382.427 95.388,373.077 104.083 C 362.578 113.845,345.895 126.154,343.163 126.154 C 340.843 126.154,350.287 114.514,362.433 102.405 C 382.539 82.359,396.277 48.958,387.158 42.290 C 383.115 39.333,380.647 40.815,374.668 49.794 C 369.574 57.445,355.385 72.539,355.385 70.308 C 355.385 69.702,358.846 63.118,363.077 55.677 C 367.308 48.236,370.769 41.394,370.769 40.473 C 370.769 39.551,372.139 35.780,373.812 32.091 C 382.943 11.970,375.289 4.363,361.187 19.543 C 335.560 47.128,301.835 79.332,287.692 89.722 C 256.879 112.361,241.741 143.703,250.592 166.538 C 252.593 171.701,256.293 172.413,254.587 167.308 C 250.861 156.152,252.736 139.810,259.486 124.615 C 261.936 119.100,285.595 93.896,288.428 93.784 C 289.292 93.749,292.397 91.672,295.327 89.168 C 298.256 86.664,301.247 84.615,301.972 84.615 C 302.698 84.615,306.310 82.538,310.000 80.000 C 320.502 72.774,321.907 75.585,313.077 86.154 C 305.938 94.699,305.959 98.240,313.119 93.284 C 324.298 85.546,326.576 91.372,316.538 102.029 C 310.659 108.272,309.124 109.062,301.310 109.866 L 292.621 110.759 296.928 106.149 C 299.296 103.613,301.857 101.538,302.617 101.538 C 306.741 101.538,307.390 97.863,303.613 95.903 C 298.636 93.321,295.603 93.141,298.034 95.572 C 299.973 97.511,299.109 101.008,295.714 104.964 C 292.842 108.310,290.789 107.178,291.916 102.869 C 292.534 100.508,292.170 99.787,290.618 100.299 C 289.432 100.690,288.242 102.500,287.974 104.321 C 287.521 107.398,284.471 110.466,277.474 114.881 C 274.856 116.534,274.907 116.616,278.077 115.856 C 282.183 114.871,282.676 117.691,279.253 122.578 C 277.231 125.465,277.231 125.943,279.253 126.719 C 280.510 127.201,281.538 129.395,281.538 131.595 L 281.538 135.594 286.218 132.262 C 289.313 130.058,292.129 129.239,294.534 129.842 C 297.493 130.585,298.035 130.238,297.445 127.982 C 296.914 125.953,298.294 124.450,302.591 122.378 C 305.820 120.821,309.689 118.941,311.189 118.200 C 315.223 116.208,316.297 120.667,313.015 125.781 C 307.150 134.920,296.325 141.851,298.016 135.385 C 299.556 129.494,295.785 132.354,293.246 139.002 C 291.680 143.102,289.215 146.368,286.883 147.431 C 284.790 148.384,283.077 149.872,283.077 150.736 C 283.077 151.601,282.385 152.308,281.538 152.308 C 280.692 152.308,280.000 150.923,280.000 149.231 C 280.000 144.539,277.984 145.632,275.028 151.928 C 272.702 156.880,272.653 157.763,274.643 158.877 C 277.937 160.721,277.446 164.066,273.462 166.922 L 270.000 169.402 274.231 168.381 C 277.831 167.511,278.462 167.842,278.462 170.602 C 278.462 172.460,277.475 173.846,276.154 173.846 C 274.885 173.846,273.846 174.563,273.846 175.439 C 273.846 176.525,274.811 176.515,276.884 175.406 C 279.534 173.988,279.825 172.611,279.161 164.638 C 278.420 155.743,278.523 155.432,282.969 153.133 C 289.167 149.928,290.553 150.142,291.640 154.472 C 292.744 158.872,290.043 164.615,286.869 164.615 C 285.629 164.615,284.615 165.308,284.615 166.154 C 284.615 167.000,285.654 167.692,286.923 167.692 C 290.381 167.692,289.703 171.603,285.769 174.347 L 282.308 176.762 285.678 176.842 C 287.532 176.887,289.484 176.219,290.016 175.360 C 291.282 173.310,293.846 174.947,293.846 177.806 C 293.846 181.045,284.484 186.315,280.774 185.163 C 277.887 184.267,277.850 184.390,280.184 187.103 C 281.554 188.696,282.362 190.865,281.979 191.923 C 281.596 192.981,282.097 193.846,283.093 193.846 C 284.089 193.846,285.266 192.462,285.708 190.769 C 286.705 186.955,288.030 186.893,291.300 190.506 C 295.951 195.645,291.043 200.206,281.611 199.509 C 278.387 199.271,277.798 199.944,277.566 204.128 C 277.319 208.560,277.569 208.854,280.185 207.220 C 281.776 206.226,283.077 204.542,283.077 203.476 C 283.077 201.011,289.560 200.945,292.000 203.385 C 297.194 208.579,291.379 215.036,284.644 211.553 C 281.150 209.746,280.285 209.913,276.565 213.113 C 273.860 215.440,273.057 216.970,274.276 217.476 C 275.372 217.930,274.712 218.693,272.692 219.307 C 268.296 220.643,268.234 222.716,272.572 223.355 C 277.553 224.087,277.761 227.450,272.939 229.283 C 267.047 231.523,262.459 230.286,268.077 227.973 C 273.834 225.601,273.403 224.981,266.127 225.172 C 261.903 225.283,260.177 225.935,260.675 227.233 C 261.740 230.009,258.976 231.153,255.586 229.339 C 253.207 228.065,252.496 228.345,251.852 230.806 C 250.819 234.757,248.248 234.681,246.083 230.637 C 243.872 226.506,244.552 225.956,253.051 224.998 C 265.519 223.593,273.352 205.551,266.495 194.031 C 264.672 190.968,261.419 184.791,259.266 180.304 C 257.113 175.817,254.732 172.529,253.974 172.998 C 252.124 174.142,255.134 183.975,259.509 191.074 C 268.366 205.448,264.361 220.359,251.173 222.109 C 247.082 222.652,242.172 224.190,240.263 225.527 C 236.509 228.157,232.308 226.378,232.308 222.159 C 232.308 218.590,223.342 215.093,215.605 215.645 C 206.714 216.278,203.632 207.938,211.442 204.379 C 214.076 203.179,215.385 201.360,215.385 198.897 C 215.385 196.824,217.320 193.398,219.807 191.067 C 225.479 185.752,227.692 181.379,227.692 175.486 C 227.692 172.168,228.430 170.769,230.179 170.769 C 232.027 170.769,232.470 169.743,231.903 166.774 C 231.483 164.577,232.130 158.984,233.341 154.346 C 235.873 144.651,235.521 132.077,232.692 131.146 C 231.635 130.798,230.769 131.631,230.769 132.997 C 230.769 134.363,229.807 135.850,228.632 136.301 C 227.393 136.777,226.822 138.378,227.275 140.108 C 227.704 141.750,227.269 144.040,226.309 145.198 C 225.348 146.355,224.994 148.429,225.523 149.805 C 226.164 151.476,225.662 152.308,224.011 152.308 C 222.651 152.308,221.538 153.000,221.538 153.846 C 221.538 154.692,222.095 155.385,222.776 155.385 C 224.281 155.385,224.146 167.136,222.623 168.659 C 222.027 169.256,221.538 171.433,221.538 173.498 C 221.538 176.289,220.914 177.013,219.105 176.318 C 217.767 175.805,216.382 175.385,216.028 175.385 C 215.674 175.385,215.385 174.116,215.385 172.565 C 215.385 170.591,214.347 169.821,211.923 170.000 C 207.389 170.334,207.478 174.195,212.065 176.154 C 216.836 178.191,215.953 188.308,210.282 196.573 C 208.119 199.727,205.883 204.212,205.315 206.538 C 204.747 208.865,203.391 210.769,202.303 210.769 C 201.145 210.769,199.937 213.485,199.394 217.308 C 197.940 227.539,198.277 231.092,200.987 234.086 C 202.967 236.274,203.112 237.335,201.668 239.074 C 200.660 240.289,199.699 243.053,199.533 245.215 C 199.367 247.378,198.538 249.237,197.692 249.346 C 196.846 249.455,196.379 247.397,196.654 244.772 C 197.403 237.637,194.169 238.927,190.298 247.308 L 186.923 254.615 186.449 248.911 C 186.189 245.774,186.764 241.734,187.728 239.933 C 190.160 235.389,188.861 234.791,184.319 238.365 C 182.205 240.027,179.244 244.612,177.739 248.553 C 175.777 253.691,174.628 255.127,173.679 253.628 C 171.255 249.802,172.238 242.580,175.683 238.914 C 178.705 235.696,178.813 235.077,176.714 232.978 C 174.616 230.880,173.822 231.756,169.109 241.375 C 162.166 255.545,157.913 255.206,163.867 240.957 C 165.228 237.699,165.548 235.385,164.636 235.385 C 161.812 235.385,163.011 231.191,166.538 228.730 L 170.000 226.315 166.538 226.235 C 164.635 226.190,163.077 225.377,163.077 224.427 C 163.077 223.205,162.427 223.239,160.854 224.545 C 157.561 227.278,151.654 225.925,151.090 222.308 C 150.826 220.615,149.840 217.679,148.899 215.782 C 146.657 211.267,149.313 205.213,154.593 202.807 C 156.721 201.838,158.462 200.463,158.462 199.753 C 158.462 197.836,154.734 198.189,152.615 200.308 C 151.179 201.744,150.769 201.632,150.769 199.805 C 150.769 198.513,154.920 194.449,159.994 190.774 C 169.907 183.592,170.777 181.700,162.906 184.444 C 156.289 186.751,155.678 185.628,161.293 181.476 C 163.830 179.601,165.562 177.171,165.142 176.076 C 163.131 170.837,172.755 164.615,182.871 164.615 C 187.193 164.615,187.090 162.142,182.719 160.999 C 180.119 160.319,179.716 159.668,181.063 158.322 C 183.242 156.143,201.377 154.892,203.705 156.759 C 205.845 158.477,212.833 155.940,211.573 153.903 C 211.061 153.073,211.652 150.817,212.887 148.890 C 216.799 142.782,214.188 128.936,207.863 122.248 C 203.760 117.910,203.054 116.345,204.548 114.906 C 206.027 113.482,206.968 113.844,208.796 116.538 C 210.088 118.442,211.888 120.000,212.796 120.000 C 213.704 120.000,216.389 121.860,218.762 124.134 C 221.135 126.408,223.055 127.619,223.028 126.826 C 222.952 124.580,219.075 120.000,217.250 120.000 C 216.347 120.000,214.000 117.985,212.035 115.523 C 210.069 113.061,203.901 108.910,198.327 106.299 C 191.601 103.149,187.584 100.217,186.384 97.583 L 184.575 93.613 192.066 94.177 C 196.186 94.487,201.363 95.924,203.570 97.370 C 205.778 98.817,208.128 100.010,208.792 100.021 C 210.560 100.053,229.110 116.066,231.759 119.847 C 233.003 121.624,235.020 123.077,236.241 123.077 C 237.462 123.077,238.462 123.801,238.462 124.685 C 238.462 125.701,236.404 125.907,232.879 125.246 C 228.494 124.423,227.449 124.656,228.007 126.330 C 229.060 129.487,245.383 129.322,245.390 126.154 C 245.393 124.885,243.547 122.808,241.288 121.538 C 239.029 120.269,233.009 115.368,227.911 110.647 C 200.714 85.462,163.077 83.241,163.077 106.822 C 163.077 111.208,163.542 111.452,167.682 109.236 C 171.695 107.088,174.793 108.680,178.606 114.849 C 182.705 121.482,181.363 123.125,175.428 118.737 C 171.069 115.514,167.692 114.430,167.692 116.253 C 167.692 117.896,177.391 125.391,185.140 129.736 C 198.037 136.969,200.798 139.539,196.977 140.752 C 192.365 142.216,193.170 144.615,198.273 144.615 C 203.291 144.615,205.438 142.618,206.966 136.530 C 208.426 130.712,210.803 131.218,210.616 137.308 C 210.229 149.924,209.409 150.528,189.231 153.083 C 179.505 154.314,166.212 160.190,166.180 163.273 C 166.166 164.650,165.175 166.589,163.979 167.582 C 162.782 168.575,160.362 172.454,158.601 176.201 C 156.435 180.808,154.150 183.328,151.545 183.982 C 147.002 185.122,146.785 185.920,150.316 188.502 C 152.743 190.277,152.645 190.807,149.003 195.595 C 146.812 198.474,144.514 204.181,143.820 208.462 C 141.972 219.872,141.946 219.963,139.852 222.486 C 137.615 225.181,129.231 229.790,129.231 228.324 C 129.231 227.782,131.797 224.987,134.934 222.114 L 140.637 216.890 137.079 214.398 C 131.585 210.549,129.273 203.502,130.840 195.378 C 131.573 191.574,132.204 188.004,132.241 187.446 C 132.278 186.887,135.190 182.784,138.713 178.327 C 150.732 163.121,153.508 148.974,147.581 133.133 C 144.129 123.906,140.859 120.349,90.385 70.917 C 76.212 57.036,64.615 45.197,64.615 44.606 C 64.615 44.016,62.712 41.425,60.385 38.847 C 54.219 32.019,46.154 20.715,46.154 18.903 C 46.154 11.205,36.424 7.374,33.116 13.770 M45.509 26.154 C 48.643 31.231,52.082 35.385,53.152 35.385 C 54.340 35.385,54.783 36.583,54.291 38.465 C 53.357 42.036,57.083 47.322,70.626 61.635 C 79.116 70.610,81.400 73.846,79.240 73.846 C 76.088 73.846,57.079 50.586,46.586 33.893 C 44.709 30.905,43.151 29.546,43.125 30.872 C 43.063 33.981,57.114 54.422,67.151 65.825 C 76.205 76.110,81.959 90.769,76.942 90.769 C 75.446 90.769,73.220 92.277,71.996 94.121 C 69.990 97.142,69.670 97.210,68.749 94.810 C 68.141 93.224,68.343 92.528,69.248 93.088 C 73.555 95.750,69.869 88.992,63.753 83.013 C 59.894 79.240,55.287 73.731,53.516 70.769 C 51.744 67.808,47.955 61.770,45.095 57.353 C 38.910 47.798,35.424 38.629,34.471 29.404 C 32.917 14.366,37.416 13.042,45.509 26.154 M371.637 18.933 C 373.019 22.535,366.466 40.275,362.051 44.884 C 358.783 48.295,358.229 49.675,359.752 50.616 C 361.254 51.544,360.402 53.294,356.357 57.583 C 353.386 60.733,351.295 64.196,351.710 65.278 C 354.160 71.661,335.258 87.692,325.283 87.692 C 321.670 87.692,317.445 88.175,315.895 88.765 C 314.345 89.356,321.179 81.221,331.081 70.688 C 350.725 49.795,360.945 37.355,359.583 35.994 C 359.103 35.514,357.938 36.565,356.994 38.330 C 356.049 40.095,353.916 41.538,352.254 41.538 C 350.591 41.538,349.231 42.224,349.231 43.061 C 349.231 47.356,317.310 75.258,315.018 72.967 C 314.168 72.117,367.783 17.261,369.664 17.055 C 370.325 16.982,371.213 17.827,371.637 18.933 M31.328 53.462 C 34.297 58.327,41.616 67.029,47.594 72.800 C 53.571 78.570,58.462 84.071,58.462 85.024 C 58.462 85.978,56.038 84.409,53.077 81.538 C 50.115 78.668,47.692 77.025,47.692 77.887 C 47.692 78.749,53.600 85.220,60.820 92.268 C 68.040 99.315,73.701 105.819,73.400 106.722 C 72.382 109.778,34.262 69.382,31.891 62.734 C 31.506 61.653,30.733 61.190,30.174 61.704 C 28.436 63.300,41.791 79.993,59.347 98.168 C 68.591 107.737,77.449 117.979,79.032 120.928 C 80.615 123.876,83.903 128.282,86.340 130.718 C 91.157 135.536,92.011 138.462,88.600 138.462 C 83.778 138.462,50.769 108.246,50.769 103.832 C 50.769 102.929,47.663 99.593,43.866 96.420 C 40.069 93.246,37.127 90.096,37.328 89.419 C 37.528 88.742,35.502 86.334,32.826 84.069 C 24.199 76.769,16.384 54.448,20.054 47.591 C 22.705 42.638,25.665 44.179,31.328 53.462 M385.536 48.300 C 390.132 60.279,364.643 102.547,347.308 111.693 C 344.981 112.921,343.077 114.946,343.077 116.193 C 343.077 117.441,342.480 118.462,341.750 118.462 C 341.020 118.462,337.732 120.624,334.442 123.267 C 330.224 126.657,329.478 127.760,331.913 127.013 C 334.624 126.180,335.170 126.461,334.457 128.320 C 333.102 131.850,317.960 138.463,311.249 138.454 L 305.385 138.446 309.484 134.992 C 311.738 133.093,314.693 129.298,316.050 126.560 C 317.408 123.822,322.119 119.157,326.521 116.193 C 336.240 109.647,358.632 87.831,364.852 78.846 C 371.229 69.634,368.173 70.701,360.443 80.385 C 349.326 94.312,322.630 116.989,320.206 114.565 C 319.821 114.180,320.733 112.509,322.233 110.851 C 324.872 107.935,324.824 107.803,320.749 106.780 C 317.263 105.906,316.964 105.484,319.017 104.335 C 320.556 103.474,322.674 103.576,324.595 104.604 C 327.477 106.147,333.846 104.491,333.846 102.199 C 333.846 101.776,332.402 102.203,330.637 103.147 C 325.332 105.987,325.551 103.623,331.025 98.973 C 342.682 89.069,366.949 64.740,374.119 55.769 C 381.990 45.920,384.094 44.544,385.536 48.300 M92.113 86.742 C 94.121 88.534,96.942 92.735,98.382 96.078 L 101.000 102.156 103.909 97.232 C 106.669 92.559,110.769 90.536,110.769 93.846 C 110.769 94.692,110.077 95.385,109.231 95.385 C 108.385 95.385,107.692 96.077,107.692 96.923 C 107.692 97.769,108.564 98.462,109.630 98.462 C 110.696 98.462,112.432 99.846,113.489 101.538 C 114.546 103.231,116.173 104.615,117.105 104.615 C 119.460 104.615,135.464 119.431,139.370 125.227 C 147.214 136.867,149.483 151.361,145.213 162.542 C 142.299 170.173,137.362 173.525,139.301 166.556 C 139.951 164.219,140.594 160.888,140.730 159.153 C 140.866 157.418,141.515 155.129,142.172 154.066 C 143.719 151.563,141.979 144.615,139.806 144.615 C 138.886 144.615,138.553 145.654,139.066 146.923 C 139.580 148.192,140.420 150.269,140.934 151.538 C 141.588 153.155,140.897 153.846,138.626 153.846 C 136.843 153.846,135.385 154.538,135.385 155.385 C 135.385 156.231,136.077 156.923,136.923 156.923 C 139.311 156.923,138.735 161.530,136.226 162.493 C 134.417 163.187,134.344 163.929,135.842 166.384 C 137.370 168.889,137.223 169.767,135.000 171.417 C 133.519 172.517,132.308 174.573,132.308 175.987 C 132.308 177.401,131.240 178.968,129.935 179.468 C 128.590 179.985,127.758 181.796,128.012 183.651 C 128.341 186.044,127.532 187.055,125.000 187.415 C 121.256 187.946,120.780 189.323,122.900 193.482 C 124.673 196.963,130.769 216.084,130.769 218.166 C 130.769 220.160,121.640 224.860,119.880 223.772 C 119.174 223.336,118.986 221.962,119.463 220.720 C 119.939 219.478,119.637 218.462,118.791 218.462 C 117.945 218.462,116.853 219.501,116.366 220.772 C 115.001 224.329,104.963 228.656,102.888 226.581 C 98.929 222.621,103.620 216.108,110.049 216.639 C 115.027 217.050,115.646 216.783,114.085 214.903 C 111.933 212.310,113.961 205.374,117.208 204.218 C 118.321 203.822,118.728 202.959,118.114 202.299 C 117.500 201.640,116.016 201.915,114.816 202.911 C 113.112 204.325,112.093 204.180,110.163 202.251 C 106.548 198.636,107.115 196.962,112.308 195.923 C 116.048 195.175,116.914 194.234,116.874 190.962 C 116.832 187.474,116.570 187.256,114.951 189.364 C 112.147 193.017,106.702 195.499,103.874 194.413 C 100.197 193.002,101.522 185.846,105.858 183.696 C 108.726 182.274,108.947 181.759,107.012 181.016 C 103.625 179.716,104.035 175.776,107.679 174.620 C 112.200 173.185,113.859 174.935,112.834 180.060 C 112.256 182.949,112.556 184.615,113.654 184.615 C 114.606 184.615,115.385 183.231,115.385 181.538 C 115.385 179.846,116.077 178.462,116.923 178.462 C 119.409 178.462,118.692 175.552,115.541 172.854 C 112.696 170.418,112.726 170.259,116.695 166.764 C 118.936 164.789,120.005 163.152,119.071 163.126 C 118.137 163.099,115.464 164.846,113.131 167.008 C 108.506 171.294,102.635 171.553,101.864 167.504 C 101.573 165.976,103.553 163.731,106.970 161.715 C 113.306 157.976,113.318 155.313,107.006 153.625 C 101.405 152.127,95.385 146.438,95.385 142.644 C 95.385 140.441,96.082 139.941,98.077 140.712 C 99.558 141.285,102.673 142.138,105.000 142.608 C 107.327 143.077,109.231 144.281,109.231 145.283 C 109.231 146.285,110.290 148.448,111.586 150.091 C 113.860 152.975,113.926 152.946,113.509 149.231 C 113.176 146.266,113.782 145.385,116.154 145.385 C 118.525 145.385,119.231 146.410,119.231 149.859 C 119.231 152.320,120.126 154.638,121.221 155.010 C 122.675 155.503,122.934 154.583,122.184 151.595 C 121.347 148.257,121.759 147.347,124.425 146.649 C 129.109 145.425,128.458 143.178,123.462 143.325 C 110.773 143.696,98.649 138.439,88.847 128.316 C 81.044 120.257,79.583 116.700,84.615 118.016 C 86.308 118.458,87.692 119.560,87.692 120.465 C 87.692 122.945,94.074 129.231,96.592 129.231 C 98.180 129.231,97.934 128.473,95.717 126.538 C 92.133 123.410,89.784 115.385,92.454 115.385 C 98.205 115.385,106.154 122.243,106.154 127.206 C 106.154 130.012,106.443 132.308,106.797 132.308 C 107.151 132.308,108.709 132.771,110.259 133.338 C 112.939 134.317,112.934 134.206,110.175 131.062 C 107.534 128.053,107.502 127.669,109.818 126.780 C 114.158 125.115,121.538 129.141,121.538 133.173 C 121.538 135.136,122.231 137.169,123.077 137.692 C 123.923 138.215,124.620 137.391,124.625 135.860 C 124.630 134.329,126.801 131.844,129.449 130.337 C 134.722 127.335,134.588 124.825,129.305 127.652 C 123.263 130.886,100.000 117.865,100.000 111.249 C 100.000 106.433,103.399 106.729,109.562 112.081 C 112.341 114.495,115.521 116.155,116.627 115.770 C 117.734 115.384,119.988 116.290,121.637 117.781 C 123.285 119.273,125.034 120.094,125.522 119.606 C 126.975 118.153,120.239 112.308,117.111 112.308 C 115.523 112.308,113.273 111.162,112.111 109.762 C 109.053 106.074,101.039 103.093,97.013 104.146 C 92.822 105.242,87.844 99.967,82.309 88.567 C 76.726 77.066,80.484 76.367,92.113 86.742 M99.990 86.077 C 105.103 90.315,105.700 93.644,101.027 91.850 C 98.480 90.873,91.494 81.519,93.357 81.580 C 94.049 81.603,97.034 83.626,99.990 86.077 M23.519 91.133 C 26.415 93.162,27.527 95.021,26.944 96.858 C 26.353 98.718,27.673 100.825,31.117 103.520 C 33.887 105.688,40.292 111.335,45.350 116.069 C 50.731 121.106,55.442 124.332,56.707 123.847 C 59.038 122.952,73.846 131.730,73.846 134.007 C 73.846 136.249,72.300 135.632,66.375 131.027 C 57.037 123.769,55.687 123.984,63.804 131.438 C 68.209 135.482,72.941 138.462,74.958 138.462 C 77.102 138.462,78.462 139.390,78.462 140.854 C 78.462 142.260,81.954 144.846,86.923 147.121 C 96.935 151.705,96.972 151.801,89.841 154.781 C 82.236 157.958,66.030 153.613,62.006 147.319 C 61.326 146.255,58.157 144.177,54.965 142.701 C 51.773 141.224,48.524 138.341,47.745 136.294 C 46.967 134.246,44.992 132.146,43.357 131.627 C 41.722 131.108,37.961 128.453,35.000 125.726 C 32.039 123.000,27.824 119.545,25.634 118.048 C 17.060 112.188,7.503 89.933,11.741 85.695 C 12.813 84.623,16.962 86.539,23.519 91.133 M64.139 90.073 C 65.449 91.383,66.203 92.772,65.815 93.160 C 65.427 93.548,63.852 92.476,62.316 90.779 C 59.054 87.174,60.630 86.564,64.139 90.073 M182.200 93.672 C 182.664 94.422,182.074 95.840,180.889 96.823 C 178.491 98.814,176.036 96.527,177.692 93.846 C 178.870 91.941,181.078 91.856,182.200 93.672 M90.595 104.916 L 95.556 110.602 90.631 113.149 C 86.194 115.443,85.799 115.452,86.646 113.245 C 87.288 111.571,86.200 110.077,83.215 108.533 C 78.630 106.162,76.234 99.766,78.922 97.078 C 80.836 95.164,83.855 97.191,90.595 104.916 M42.314 98.472 C 42.841 99.325,42.160 100.449,40.800 100.970 C 37.855 102.100,36.213 100.855,37.629 98.564 C 38.907 96.497,41.067 96.455,42.314 98.472 M182.650 101.024 C 187.509 101.909,190.455 106.005,188.505 109.161 C 187.358 111.016,191.533 114.987,199.823 119.925 C 206.089 123.657,208.973 129.189,203.462 126.906 C 201.981 126.293,199.177 125.584,197.232 125.330 C 191.840 124.628,186.888 120.790,182.018 113.539 C 179.428 109.682,175.714 106.347,173.032 105.468 C 166.929 103.467,166.959 103.506,169.289 100.699 C 170.555 99.174,172.527 98.601,174.508 99.184 C 176.259 99.699,179.923 100.526,182.650 101.024 M389.231 103.719 C 389.231 115.723,375.568 135.137,363.190 140.718 C 359.743 142.272,356.923 144.433,356.923 145.519 C 356.923 146.605,354.624 148.325,351.813 149.341 C 349.002 150.357,346.060 152.632,345.274 154.396 C 342.228 161.238,318.645 165.013,313.989 159.403 C 312.640 157.778,313.810 156.787,319.604 154.649 C 333.395 149.561,367.346 129.910,365.513 128.077 C 365.090 127.654,361.080 129.726,356.603 132.682 C 343.335 141.440,331.926 147.460,322.357 150.752 C 307.348 155.916,308.132 154.257,324.594 146.016 C 333.197 141.709,339.907 137.856,339.504 137.453 C 339.102 137.051,335.012 138.844,330.416 141.438 C 321.594 146.416,316.063 147.420,315.001 144.235 C 314.607 143.052,313.652 143.642,312.511 145.773 C 311.494 147.675,309.671 149.231,308.462 149.231 C 305.988 149.231,302.224 155.133,302.822 158.077 C 303.439 161.122,301.988 160.382,296.076 154.640 C 293.040 151.693,290.959 148.630,291.450 147.835 C 292.787 145.673,307.897 140.935,312.308 141.295 C 316.230 141.615,318.535 140.827,338.026 132.496 C 351.267 126.836,368.984 114.337,379.168 103.470 C 385.485 96.729,389.231 96.822,389.231 103.719 M195.544 111.225 C 193.570 113.200,191.567 111.673,193.029 109.308 C 193.595 108.392,194.764 108.078,195.625 108.610 C 196.676 109.260,196.649 110.120,195.544 111.225 M305.377 112.296 C 307.230 115.293,295.897 126.872,290.076 127.929 C 282.593 129.288,285.968 116.001,293.767 113.399 C 302.392 110.522,304.176 110.352,305.377 112.296 M283.237 125.071 C 281.262 127.046,279.260 125.520,280.721 123.154 C 281.288 122.238,282.456 121.924,283.317 122.456 C 284.368 123.106,284.342 123.966,283.237 125.071 M165.769 126.277 C 159.097 130.163,165.437 140.116,176.480 143.090 C 180.531 144.181,185.275 146.356,187.022 147.922 C 192.971 153.255,194.712 150.775,188.846 145.322 C 181.880 138.846,181.759 138.298,187.672 139.994 C 193.512 141.669,195.513 139.019,189.992 136.920 C 187.771 136.076,184.915 135.385,183.645 135.385 C 179.661 135.385,175.293 132.268,173.811 128.368 C 172.282 124.348,170.069 123.773,165.769 126.277 M173.185 134.587 C 177.321 139.050,175.151 141.657,170.672 137.605 C 167.837 135.039,166.586 130.769,168.670 130.769 C 169.207 130.769,171.239 132.487,173.185 134.587 M36.727 140.211 C 48.794 144.656,67.227 154.825,65.801 156.250 C 64.898 157.154,46.594 150.286,37.155 145.502 C 32.628 143.208,28.641 141.615,28.295 141.962 C 27.302 142.954,45.705 152.210,58.353 157.081 C 65.969 160.013,70.182 160.950,70.856 159.859 C 72.223 157.648,80.364 158.721,81.186 161.221 C 81.666 162.684,80.720 162.930,77.613 162.150 C 72.082 160.762,73.731 163.557,79.967 166.140 C 85.557 168.456,85.780 169.935,81.011 173.060 C 69.008 180.925,17.656 160.582,13.075 146.148 C 9.396 134.557,16.521 132.769,36.727 140.211 M87.014 142.259 C 88.656 143.501,89.308 144.518,88.462 144.518 C 87.615 144.518,85.579 143.501,83.937 142.259 C 82.294 141.016,81.643 140.000,82.489 140.000 C 83.335 140.000,85.371 141.016,87.014 142.259 M380.206 149.474 C 387.418 151.635,387.440 151.906,381.117 160.265 C 375.378 167.852,357.438 178.324,350.000 178.430 C 347.462 178.465,341.927 179.544,337.701 180.826 C 329.691 183.255,323.875 182.755,316.538 179.006 C 309.864 175.595,311.251 174.662,328.761 170.775 C 337.811 168.766,344.504 166.886,343.634 166.596 C 342.765 166.306,337.614 167.105,332.188 168.371 C 323.511 170.395,322.049 170.400,320.062 168.413 C 318.075 166.426,318.267 166.154,321.655 166.154 C 328.782 166.154,343.458 161.499,349.831 157.217 C 357.538 152.039,365.395 148.855,372.898 147.871 C 373.646 147.773,376.935 148.494,380.206 149.474 M105.457 157.041 C 106.020 157.952,105.063 160.018,103.330 161.633 C 101.597 163.247,99.514 165.758,98.700 167.211 C 97.401 169.533,96.897 169.586,94.556 167.643 C 93.090 166.426,90.773 165.421,89.407 165.408 C 85.104 165.368,86.262 158.015,90.769 156.761 C 96.810 155.081,104.335 155.224,105.457 157.041 M215.506 163.371 C 215.366 168.135,218.169 170.630,220.148 167.505 C 222.087 164.444,221.844 163.077,219.359 163.077 C 218.160 163.077,216.830 162.212,216.404 161.154 C 215.977 160.096,215.573 161.094,215.506 163.371 M313.947 164.113 C 315.878 169.191,313.956 171.387,305.617 173.629 C 298.870 175.442,293.846 173.407,293.846 168.861 C 293.846 167.372,293.673 165.640,293.462 165.011 C 293.122 164.002,305.191 160.542,310.423 160.148 C 311.501 160.066,313.087 161.851,313.947 164.113 M101.972 174.231 C 103.493 178.475,100.165 181.145,93.180 181.285 C 84.525 181.459,79.457 177.635,83.970 174.335 C 87.542 171.722,101.044 171.644,101.972 174.231 M168.846 173.460 C 165.779 174.157,165.158 176.935,168.077 176.900 C 170.845 176.866,174.415 174.357,172.857 173.540 C 172.132 173.160,170.327 173.124,168.846 173.460 M69.155 177.051 C 87.305 180.943,72.989 182.598,53.077 178.910 C 49.322 178.214,48.813 178.430,50.346 180.065 C 51.495 181.292,59.146 182.666,69.961 183.587 C 79.713 184.418,87.692 185.528,87.692 186.052 C 87.692 189.269,78.033 197.170,75.054 196.391 C 71.289 195.406,57.062 198.091,54.305 200.307 C 53.288 201.124,51.004 201.332,49.231 200.769 C 47.457 200.206,45.063 200.529,43.909 201.486 C 42.467 202.683,41.501 202.723,40.815 201.613 C 40.267 200.726,37.955 199.996,35.678 199.991 C 22.251 199.964,14.657 192.908,20.776 186.146 C 24.655 181.860,39.757 177.747,59.540 175.586 C 60.556 175.475,64.883 176.134,69.155 177.051 M205.769 177.806 C 205.135 178.449,204.615 182.590,204.615 187.009 C 204.615 192.742,203.748 196.084,201.590 198.676 L 198.564 202.308 198.513 196.538 C 198.485 193.365,197.846 190.769,197.094 190.769 C 196.342 190.769,195.269 193.365,194.710 196.538 C 192.193 210.808,187.692 217.764,187.692 207.385 C 187.692 204.376,187.147 203.030,186.289 203.923 C 184.508 205.777,183.461 216.026,185.000 216.538 C 188.305 217.640,190.350 216.273,193.829 210.636 C 195.935 207.223,199.357 203.607,201.433 202.600 C 203.712 201.494,205.730 198.736,206.529 195.635 C 208.058 189.691,207.478 176.075,205.769 177.806 M314.191 181.334 C 314.803 181.910,314.754 184.440,314.081 186.955 C 312.432 193.121,300.657 194.073,295.389 188.466 L 292.152 185.020 296.823 181.090 C 301.396 177.242,309.969 177.362,314.191 181.334 M98.462 190.732 C 98.462 192.304,99.276 193.861,100.272 194.193 C 103.988 195.432,99.613 198.461,94.140 198.438 C 83.481 198.394,81.835 192.596,91.347 188.602 C 96.897 186.271,98.462 186.740,98.462 190.732 M348.022 189.220 C 369.606 193.402,375.743 198.374,370.047 207.067 C 363.331 217.317,319.450 212.906,316.516 201.687 C 315.585 198.127,317.123 197.637,321.640 200.054 C 325.440 202.088,325.707 199.250,321.923 197.046 C 318.074 194.805,321.125 195.059,329.860 197.709 C 342.617 201.579,343.056 200.034,330.385 195.862 C 306.294 187.929,318.207 183.443,348.022 189.220 M308.846 200.979 C 315.351 208.135,312.145 211.613,303.273 207.025 C 296.698 203.624,294.591 200.502,296.952 197.658 C 299.450 194.647,304.328 196.010,308.846 200.979 M83.077 198.273 C 83.077 200.334,79.956 202.279,71.830 205.283 C 67.759 206.787,64.716 208.306,65.068 208.658 C 65.964 209.554,83.733 202.698,84.359 201.215 C 85.111 199.432,93.846 199.730,93.846 201.538 C 93.846 202.385,92.635 203.088,91.154 203.100 C 88.943 203.120,88.856 203.374,90.670 204.522 C 92.497 205.678,92.532 206.337,90.874 208.335 C 89.771 209.664,89.211 212.540,89.629 214.726 C 90.244 217.946,89.621 218.993,86.348 220.235 C 84.126 221.079,77.462 224.107,71.538 226.966 C 50.359 237.185,30.769 238.533,30.769 229.769 C 30.769 224.829,42.720 212.091,50.755 208.468 C 54.148 206.938,56.924 205.272,56.924 204.766 C 56.925 204.260,58.746 203.741,60.971 203.612 C 63.197 203.483,65.466 202.651,66.015 201.762 C 66.564 200.874,69.612 199.861,72.787 199.511 C 75.963 199.161,79.000 198.436,79.537 197.899 C 80.956 196.480,83.077 196.704,83.077 198.273 M106.538 203.680 C 110.894 206.987,109.661 210.134,102.980 212.758 C 92.198 216.993,88.608 212.618,97.041 205.521 C 102.444 200.975,102.867 200.893,106.538 203.680 M304.504 213.284 C 311.013 221.560,307.739 228.584,300.293 222.318 C 294.800 217.696,293.174 217.408,295.330 221.437 C 296.206 223.074,296.912 226.709,296.900 229.514 C 296.874 234.980,294.131 240.481,292.904 237.526 C 291.174 233.357,287.487 230.028,286.698 231.923 C 286.258 232.981,284.397 233.873,282.564 233.905 C 280.579 233.941,277.986 235.875,276.154 238.687 C 270.536 247.310,258.006 250.733,262.635 242.381 C 263.126 241.495,262.596 241.635,261.456 242.692 C 258.673 245.276,256.824 245.126,257.869 242.402 C 258.336 241.184,260.867 239.716,263.493 239.139 C 268.160 238.114,287.692 223.720,287.692 221.306 C 287.692 219.419,297.467 209.551,299.504 209.381 C 300.500 209.299,302.750 211.055,304.504 213.284 M330.000 215.263 C 360.238 226.583,368.197 244.615,342.955 244.615 C 333.398 244.615,309.192 232.124,309.254 227.225 C 309.333 221.113,312.028 220.799,321.370 225.814 C 331.460 231.231,332.308 231.498,332.308 229.253 C 332.308 228.419,328.206 225.666,323.192 223.135 C 314.457 218.726,310.890 214.308,313.133 210.678 C 313.697 209.767,315.299 209.518,316.694 210.126 C 318.089 210.734,324.077 213.045,330.000 215.263 M60.385 215.433 C 58.481 216.198,56.923 217.192,56.923 217.643 C 56.923 219.136,59.372 218.492,62.398 216.203 C 65.802 213.628,65.326 213.446,60.385 215.433 M191.747 217.590 C 190.363 219.702,189.231 222.798,189.231 224.470 C 189.231 227.947,185.873 230.696,184.963 227.965 C 184.017 225.128,181.980 225.839,181.068 229.325 C 178.536 239.008,189.203 232.665,193.244 222.085 C 196.214 214.306,195.434 211.963,191.747 217.590 M284.333 218.064 C 283.785 222.807,279.013 224.767,277.516 220.863 C 276.414 217.994,279.419 213.846,282.598 213.846 C 284.113 213.846,284.665 215.188,284.333 218.064 M226.154 221.606 C 226.154 222.435,224.781 222.246,223.077 221.181 C 221.385 220.125,220.000 218.710,220.000 218.037 C 220.000 217.365,221.385 217.556,223.077 218.462 C 224.769 219.367,226.154 220.782,226.154 221.606 M94.494 222.334 C 97.259 224.426,96.764 224.878,86.801 229.357 C 74.494 234.891,63.084 241.735,63.080 243.587 C 63.078 244.291,65.327 243.487,68.077 241.802 C 85.250 231.275,96.017 227.055,98.393 229.918 C 100.226 232.126,99.007 236.923,96.614 236.923 C 95.779 236.923,91.006 240.033,86.007 243.834 C 77.484 250.317,64.707 256.560,54.960 259.007 C 46.544 261.119,46.622 249.106,55.075 241.123 C 61.246 235.296,83.177 224.712,89.531 224.494 C 91.481 224.427,92.212 224.023,91.154 223.596 C 89.085 222.762,88.479 219.968,90.385 220.049 C 91.019 220.076,92.868 221.104,94.494 222.334 M126.777 226.366 C 123.268 230.304,114.341 234.334,112.140 232.973 C 109.413 231.288,115.117 226.529,118.978 227.268 C 121.012 227.656,123.346 226.914,124.513 225.508 C 125.623 224.171,127.245 223.077,128.119 223.077 C 128.993 223.077,128.389 224.557,126.777 226.366 M207.000 224.740 C 207.565 225.654,210.894 226.254,214.398 226.072 C 223.144 225.617,224.946 225.912,223.888 227.625 C 223.388 228.434,221.962 228.706,220.720 228.230 C 219.312 227.689,218.462 228.294,218.462 229.835 C 218.462 232.989,216.287 232.970,211.405 229.771 C 208.491 227.862,207.098 227.672,205.767 229.002 C 204.437 230.333,204.600 230.769,206.427 230.769 C 212.107 230.769,212.832 235.097,207.967 239.962 C 205.408 242.521,202.979 244.615,202.570 244.615 C 201.104 244.615,203.454 238.525,205.611 236.735 C 207.477 235.186,207.192 234.262,203.738 230.656 C 199.701 226.442,199.749 223.077,203.846 223.077 C 205.016 223.077,206.435 223.825,207.000 224.740 M146.988 226.259 C 147.547 227.163,148.950 227.539,150.106 227.095 C 151.263 226.651,152.618 226.950,153.118 227.759 C 153.619 228.569,155.421 229.231,157.124 229.231 C 159.582 229.231,160.130 230.103,159.784 233.462 C 158.939 241.643,154.482 244.327,153.396 237.308 C 152.765 233.228,152.700 233.200,151.576 236.538 C 149.951 241.365,147.786 240.854,146.692 235.385 C 145.628 230.061,141.963 229.363,134.771 233.114 C 127.913 236.690,128.356 234.756,135.617 229.416 C 142.510 224.347,145.323 223.565,146.988 226.259 M108.208 234.113 C 109.311 238.332,108.293 240.000,104.615 240.000 C 100.704 240.000,99.510 237.637,101.521 233.878 C 103.707 229.794,107.110 229.914,108.208 234.113 M307.327 233.462 C 309.078 234.942,311.980 237.382,313.777 238.883 C 315.574 240.384,319.788 242.710,323.143 244.052 C 330.811 247.120,336.923 254.233,336.923 260.089 C 336.923 265.783,331.561 267.532,325.166 263.925 C 312.892 257.002,311.525 255.812,311.033 251.618 L 310.528 247.311 315.117 250.579 C 317.641 252.376,320.464 253.846,321.391 253.846 C 324.882 253.846,322.856 251.414,316.538 248.021 C 305.982 242.350,299.674 236.485,300.847 233.430 C 302.131 230.082,303.339 230.088,307.327 233.462 M123.650 234.231 C 118.343 243.132,113.192 247.698,110.967 245.473 C 108.131 242.636,111.804 237.744,119.231 234.465 C 125.018 231.911,125.034 231.910,123.650 234.231 M263.909 233.949 C 265.320 236.230,263.993 237.178,260.998 236.029 C 259.613 235.497,258.862 234.442,259.330 233.685 C 260.482 231.822,262.673 231.948,263.909 233.949 M224.572 235.325 C 226.524 236.560,226.485 236.893,224.285 237.737 C 220.970 239.009,222.535 243.077,226.339 243.077 C 230.160 243.077,226.694 252.275,220.396 258.850 C 214.377 265.134,213.083 260.894,218.581 252.903 C 223.896 245.178,224.100 243.703,220.000 242.631 C 218.266 242.178,216.923 240.533,216.923 238.862 C 216.923 233.900,220.040 232.459,224.572 235.325 M245.859 235.500 C 245.556 236.410,244.650 237.154,243.846 237.154 C 243.042 237.154,242.137 236.410,241.833 235.500 C 241.530 234.590,242.436 233.846,243.846 233.846 C 245.256 233.846,246.162 234.590,245.859 235.500 M255.961 240.039 C 253.961 242.039,249.231 240.364,249.231 237.656 C 249.231 234.675,252.750 233.907,255.319 236.327 C 256.871 237.790,257.068 238.932,255.961 240.039 M143.077 237.794 C 143.077 238.907,142.399 240.237,141.570 240.750 C 139.632 241.947,133.509 238.713,134.544 237.038 C 135.834 234.951,143.077 235.592,143.077 237.794 M236.923 238.879 C 238.761 239.578,238.683 239.782,236.538 239.879 C 235.058 239.945,233.802 241.212,233.749 242.692 C 233.676 244.684,233.276 244.447,232.207 241.781 C 230.716 238.058,231.883 233.818,233.654 236.528 C 234.183 237.338,235.654 238.395,236.923 238.879 M287.692 239.793 C 287.692 243.095,282.102 250.769,279.696 250.769 C 277.728 250.769,279.248 241.990,281.736 238.993 C 284.228 235.991,287.692 236.456,287.692 239.793 M300.597 241.348 C 302.661 243.628,302.778 244.401,301.156 245.023 C 298.443 246.064,293.256 242.199,294.552 240.102 C 296.015 237.736,297.629 238.069,300.597 241.348 M127.692 242.526 C 127.692 245.845,122.516 250.235,119.324 249.625 L 115.637 248.920 119.515 244.569 C 122.684 241.011,127.692 239.760,127.692 242.526 M103.720 242.472 C 105.059 242.986,106.154 244.336,106.154 245.473 C 106.154 246.609,107.361 248.215,108.836 249.041 C 111.308 250.424,111.217 250.884,107.688 254.886 L 103.857 259.231 108.862 254.702 C 112.739 251.194,114.280 250.588,115.702 252.010 C 116.712 253.020,118.878 253.846,120.515 253.846 C 123.126 253.846,123.000 254.233,119.495 256.990 C 114.722 260.744,112.692 269.321,115.249 274.932 C 117.688 280.286,116.341 281.026,109.818 277.916 C 104.815 275.530,104.349 274.781,104.905 270.023 C 105.668 263.484,102.279 265.433,100.746 272.414 C 99.832 276.577,97.192 278.217,94.975 276.000 C 93.832 274.858,96.696 267.915,99.913 264.031 C 102.303 261.145,93.899 265.029,82.839 271.921 C 79.420 274.052,78.355 274.135,76.301 272.430 C 70.600 267.699,75.005 258.143,87.355 248.448 C 96.000 241.661,98.873 240.612,103.720 242.472 M133.846 243.755 C 133.846 244.975,133.154 246.400,132.308 246.923 C 131.462 247.446,130.769 246.448,130.769 244.706 C 130.769 242.964,131.462 241.538,132.308 241.538 C 133.154 241.538,133.846 242.536,133.846 243.755 M145.299 251.154 C 145.882 255.238,145.731 258.462,144.956 258.462 C 142.872 258.462,139.432 246.776,140.611 243.703 C 142.145 239.707,144.111 242.833,145.299 251.154 M161.515 242.692 C 161.446 246.065,158.508 248.303,158.485 245.000 C 158.472 243.096,159.154 241.538,160.000 241.538 C 160.846 241.538,161.528 242.058,161.515 242.692 M210.465 250.820 C 210.538 255.925,209.634 262.830,208.458 266.165 C 206.117 272.799,207.893 275.947,211.089 270.829 C 213.567 266.862,215.893 266.743,214.654 270.646 C 213.084 275.595,212.286 280.382,211.572 289.151 C 210.784 298.836,208.450 305.517,204.190 310.287 C 201.209 313.625,201.209 313.644,204.229 312.855 C 208.225 311.810,213.846 300.376,213.846 293.293 C 213.846 290.213,214.395 287.692,215.066 287.692 C 215.736 287.692,217.090 284.750,218.074 281.154 C 219.141 277.252,222.496 271.824,226.395 267.692 C 229.988 263.885,233.003 260.423,233.093 260.000 C 233.184 259.577,233.797 256.292,234.456 252.700 C 235.675 246.044,237.531 243.404,239.150 246.023 C 239.646 246.825,238.853 249.993,237.390 253.062 C 235.164 257.729,235.076 258.858,236.850 259.955 C 238.521 260.988,237.989 262.247,234.339 265.897 C 227.755 272.481,219.922 288.600,218.901 297.665 C 217.382 311.151,213.799 315.195,199.866 319.148 C 197.823 319.728,196.956 319.635,197.938 318.942 C 198.919 318.249,199.764 315.954,199.815 313.841 C 199.867 311.729,200.356 305.327,200.903 299.615 C 201.918 289.015,199.537 284.590,197.593 293.462 C 195.110 304.795,194.380 304.190,192.360 289.126 C 189.123 264.988,189.163 252.672,192.472 254.717 C 193.228 255.184,193.846 257.892,193.846 260.734 C 193.846 263.577,194.266 266.997,194.780 268.336 C 196.422 272.615,198.462 270.947,198.462 265.323 C 198.462 258.814,206.857 241.538,210.021 241.538 C 210.193 241.538,210.393 245.715,210.465 250.820 M250.896 243.912 C 253.699 245.361,255.075 247.008,254.432 248.142 C 251.919 252.572,248.539 255.385,245.727 255.385 C 243.249 255.385,243.038 254.978,244.563 253.140 C 245.702 251.768,246.027 249.077,245.398 246.217 C 244.219 240.848,244.634 240.674,250.896 243.912 M293.846 246.923 C 294.915 248.210,295.081 249.231,294.223 249.231 C 293.377 249.231,291.823 248.192,290.769 246.923 C 289.701 245.636,289.534 244.615,290.392 244.615 C 291.239 244.615,292.793 245.654,293.846 246.923 M274.698 247.826 C 275.267 248.746,274.961 250.269,274.020 251.211 C 273.078 252.153,272.285 253.996,272.257 255.308 C 272.178 258.952,266.439 265.054,263.979 264.110 C 262.578 263.572,260.934 265.091,259.388 268.348 C 258.063 271.139,252.986 276.724,248.105 280.759 C 243.224 284.794,239.432 288.782,239.678 289.621 C 239.924 290.460,239.002 290.716,237.629 290.189 C 236.256 289.662,234.497 289.231,233.720 289.231 C 232.943 289.231,232.308 288.538,232.308 287.692 C 232.308 286.846,233.420 286.154,234.780 286.154 C 237.996 286.154,256.923 266.473,256.923 263.130 C 256.923 257.832,272.561 244.368,274.698 247.826 M184.680 259.231 C 188.709 269.274,190.214 296.942,187.074 303.237 C 185.851 305.688,185.490 307.692,186.272 307.692 C 187.053 307.692,187.692 308.731,187.692 310.000 C 187.692 312.770,190.971 313.029,193.538 310.462 C 196.069 307.931,195.889 311.030,193.299 314.571 C 191.810 316.609,190.382 317.064,188.299 316.167 C 186.696 315.477,184.258 315.047,182.882 315.213 C 181.505 315.378,179.969 314.446,179.468 313.142 C 178.968 311.837,177.236 310.769,175.620 310.769 C 172.167 310.769,168.462 303.107,169.673 298.474 C 170.733 294.423,168.324 293.021,166.295 296.506 C 165.024 298.689,164.700 297.931,164.662 292.692 C 164.629 288.096,163.967 286.154,162.434 286.154 C 161.233 286.154,159.330 285.798,158.203 285.364 C 156.595 284.744,156.265 286.726,156.668 294.559 C 157.343 307.652,168.067 318.916,181.635 320.783 C 188.791 321.767,189.409 322.164,188.455 325.163 C 187.878 326.977,187.285 329.846,187.138 331.538 C 186.991 333.231,185.577 336.541,183.996 338.894 C 182.415 341.247,181.614 343.665,182.215 344.266 C 182.816 344.867,183.982 344.153,184.807 342.679 C 186.139 340.300,192.308 338.756,192.308 340.802 C 192.308 341.243,190.455 344.405,188.189 347.827 C 185.628 351.698,183.929 356.562,183.696 360.697 C 183.490 364.352,182.574 368.633,181.661 370.210 C 180.748 371.787,179.326 374.981,178.500 377.308 C 176.436 383.126,174.422 382.606,173.346 375.978 C 172.546 371.045,173.688 365.885,177.650 356.538 C 179.910 351.204,168.952 355.627,160.385 363.507 C 154.421 368.991,155.936 361.706,162.308 354.263 C 169.849 345.453,167.760 341.740,159.943 350.060 C 155.284 355.020,139.953 363.388,137.355 362.391 C 134.148 361.161,135.093 356.626,139.519 352.007 C 146.338 344.890,140.239 347.048,132.149 354.615 C 125.485 360.849,119.983 363.463,120.010 360.385 C 120.028 358.374,125.516 350.806,128.583 348.563 C 130.206 347.376,130.962 345.834,130.263 345.135 C 129.564 344.436,126.252 346.803,122.902 350.394 C 115.961 357.835,115.385 358.098,115.385 353.824 C 115.385 351.142,121.324 346.118,126.923 344.063 C 127.769 343.752,128.055 343.054,127.557 342.512 C 126.752 341.633,123.268 343.166,113.719 348.604 C 110.439 350.472,99.643 349.279,99.391 347.021 C 99.303 346.229,101.423 345.012,104.103 344.318 C 106.783 343.623,110.634 341.156,112.661 338.835 C 116.256 334.718,117.841 333.484,126.529 328.033 C 128.850 326.576,130.754 324.865,130.760 324.231 C 130.776 322.291,125.562 323.041,122.398 325.434 C 119.143 327.896,115.385 328.433,115.385 326.437 C 115.385 322.788,144.890 315.173,146.835 318.319 C 147.284 319.045,146.275 321.387,144.594 323.523 C 141.358 327.638,140.530 332.308,143.037 332.308 C 143.862 332.308,145.600 330.251,146.899 327.738 C 148.199 325.225,150.640 322.431,152.324 321.530 C 155.990 319.568,156.109 320.290,153.083 326.143 C 149.726 332.634,152.979 333.304,156.917 326.933 C 159.285 323.101,161.362 321.538,164.084 321.538 C 166.922 321.538,167.773 320.839,167.362 318.846 C 167.030 317.239,165.588 316.278,163.787 316.462 C 157.956 317.058,149.214 313.713,146.742 309.940 C 143.740 305.359,141.538 305.059,141.538 309.231 C 141.538 313.799,138.173 312.974,132.366 306.983 C 127.300 301.756,123.906 300.977,125.616 305.434 C 127.508 310.364,118.498 305.802,114.564 299.838 C 112.900 297.316,108.566 293.922,104.932 292.298 C 96.989 288.746,89.231 283.395,89.231 281.469 C 89.231 277.611,107.952 280.322,113.214 284.942 C 117.541 288.741,118.462 289.070,118.462 286.814 C 118.462 284.405,118.906 284.497,122.194 287.585 C 127.007 292.107,130.767 290.295,126.343 285.586 C 122.032 280.997,118.462 271.909,118.462 265.525 C 118.462 257.901,121.072 257.300,122.312 264.639 C 122.887 268.044,124.186 271.682,125.198 272.723 C 126.210 273.764,128.626 277.212,130.568 280.385 C 132.964 284.301,135.211 286.154,137.565 286.154 C 139.675 286.154,143.234 288.605,146.651 292.411 C 149.740 295.852,152.969 298.234,153.826 297.705 C 156.240 296.213,155.665 288.301,152.980 286.074 C 150.868 284.320,150.693 284.624,151.544 288.577 C 152.473 292.890,152.226 292.773,145.606 285.751 C 138.106 277.797,136.053 272.042,137.661 263.472 L 138.696 257.954 142.520 264.685 C 144.623 268.388,146.020 272.655,145.624 274.168 C 144.801 277.314,146.965 279.344,148.497 276.865 C 149.057 275.959,149.462 270.097,149.398 263.838 C 149.265 250.887,150.011 249.721,155.441 254.393 C 159.711 258.066,162.710 264.481,163.399 271.420 C 164.477 282.271,167.819 277.262,167.326 265.534 C 166.960 256.814,167.335 253.846,168.802 253.846 C 169.884 253.846,170.779 255.404,170.792 257.308 C 170.824 262.268,175.175 274.118,178.196 277.472 C 181.778 281.450,181.500 294.678,177.699 301.113 C 174.463 306.590,175.662 309.960,179.179 305.272 C 184.914 297.629,185.584 279.746,180.688 265.037 C 178.136 257.371,179.340 245.558,181.980 252.370 C 182.786 254.451,184.001 257.538,184.680 259.231 M306.154 252.384 C 306.154 260.081,297.771 269.339,288.752 271.603 C 284.180 272.750,283.250 270.741,286.937 267.681 C 288.214 266.621,290.800 263.011,292.684 259.659 C 295.676 254.337,301.442 249.482,305.000 249.292 C 305.635 249.258,306.154 250.650,306.154 252.384 M290.769 255.121 C 290.769 257.033,281.821 270.164,278.898 272.541 C 276.680 274.344,276.479 274.264,277.356 271.923 C 279.173 267.075,276.072 269.096,271.295 275.873 C 266.587 282.553,252.959 292.004,251.033 289.925 C 250.465 289.311,251.038 288.444,252.308 287.997 C 255.510 286.869,262.776 278.888,267.290 271.538 C 275.044 258.914,290.769 247.919,290.769 255.121 M255.385 256.729 C 255.385 262.475,239.887 283.077,235.564 283.077 C 234.015 283.077,234.737 281.547,237.786 278.363 C 240.356 275.681,241.199 274.073,239.742 274.632 C 238.334 275.172,235.299 278.332,232.997 281.653 C 229.062 287.333,226.154 289.342,226.154 286.383 C 226.154 283.612,234.233 269.866,237.421 267.215 C 249.643 257.048,255.385 253.697,255.385 256.729 M227.179 260.703 C 227.179 263.389,223.553 265.091,222.266 263.010 C 221.766 262.201,221.785 260.846,222.308 260.000 C 223.750 257.666,227.179 258.161,227.179 260.703 M129.900 263.238 C 128.558 265.410,126.154 264.844,126.154 262.356 C 126.154 260.984,127.056 260.443,128.453 260.979 C 129.717 261.464,130.369 262.481,129.900 263.238 M317.692 265.067 C 329.075 271.500,325.134 279.139,312.166 275.778 C 306.369 274.276,305.252 271.803,307.592 265.648 C 309.479 260.685,309.897 260.661,317.692 265.067 M133.738 271.923 C 133.642 275.672,133.479 275.803,132.308 273.077 C 130.502 268.875,130.502 267.692,132.308 267.692 C 133.154 267.692,133.797 269.596,133.738 271.923 M263.077 272.765 C 263.077 275.097,253.059 285.012,248.178 287.510 C 242.020 290.663,240.733 289.283,246.172 285.361 C 249.124 283.233,253.615 279.145,256.154 276.278 C 261.160 270.624,263.077 269.652,263.077 272.765 M90.769 273.682 C 90.769 275.569,86.435 277.084,85.476 275.532 C 85.049 274.841,85.142 273.833,85.683 273.292 C 87.149 271.825,90.769 272.103,90.769 273.682 M305.475 279.130 C 308.321 281.234,308.193 281.451,302.742 283.746 C 293.240 287.746,291.390 286.659,297.191 280.484 C 301.120 276.302,301.553 276.231,305.475 279.130 M263.743 292.422 C 260.968 295.488,256.174 296.368,254.755 294.072 C 254.309 293.350,256.518 291.080,259.664 289.027 C 266.037 284.868,268.627 287.025,263.743 292.422 M97.308 294.140 C 107.691 297.847,108.950 300.128,99.615 298.322 C 91.059 296.667,90.769 296.669,90.769 298.392 C 90.769 299.200,93.365 300.290,96.538 300.816 C 105.136 302.240,110.066 304.438,113.962 308.585 C 117.784 312.653,117.043 313.313,111.822 310.492 C 104.172 306.359,92.793 304.802,88.186 307.258 C 81.298 310.931,50.458 311.927,45.438 308.638 C 40.381 305.325,40.494 303.545,45.769 303.413 C 52.955 303.234,59.998 301.275,60.048 299.441 C 60.295 290.537,79.543 287.799,97.308 294.140 M244.615 293.599 C 244.615 294.310,242.885 295.679,240.769 296.643 C 238.654 297.607,236.923 299.187,236.923 300.155 C 236.923 301.430,237.478 301.455,238.934 300.246 C 241.460 298.150,254.339 296.865,256.909 298.453 C 258.170 299.232,256.869 300.287,253.119 301.524 C 249.602 302.685,247.958 303.958,248.839 304.839 C 249.719 305.719,251.880 305.655,254.465 304.673 C 259.825 302.635,272.308 302.595,272.308 304.615 C 272.308 305.462,270.272 306.154,267.783 306.154 C 265.295 306.154,262.831 306.846,262.308 307.692 C 261.767 308.568,263.085 309.231,265.367 309.231 C 268.897 309.231,276.969 315.580,276.900 318.302 C 276.804 322.073,273.945 323.353,269.029 321.826 C 260.037 319.031,250.769 318.036,250.769 319.865 C 250.769 320.785,251.021 321.538,251.328 321.538 C 254.916 321.538,268.647 325.031,270.232 326.346 C 275.550 330.760,270.084 332.408,263.795 328.286 C 260.916 326.400,258.249 326.068,252.695 326.904 C 226.643 330.825,211.019 322.779,221.917 311.054 C 224.028 308.782,227.027 304.922,228.581 302.476 C 232.732 295.942,244.615 289.364,244.615 293.599 M105.035 312.308 C 107.187 314.000,109.662 315.385,110.536 315.385 C 114.495 315.385,113.376 318.501,108.289 321.645 C 102.750 325.068,102.636 325.074,91.642 322.482 C 84.566 320.814,78.248 320.244,74.132 320.902 C 69.631 321.622,67.692 321.386,67.692 320.118 C 67.692 317.542,76.197 314.398,86.538 313.152 C 91.404 312.566,95.385 311.444,95.385 310.659 C 95.385 308.163,100.982 309.119,105.035 312.308 M127.692 316.923 C 127.692 317.769,127.057 318.462,126.280 318.462 C 125.503 318.462,123.599 318.937,122.049 319.519 C 119.568 320.450,119.484 320.265,121.342 317.980 C 123.651 315.142,127.692 314.469,127.692 316.923 M203.077 324.780 C 203.077 326.538,198.905 326.578,197.825 324.830 C 197.375 324.102,197.402 323.111,197.885 322.628 C 199.085 321.428,203.077 323.082,203.077 324.780 M213.601 329.615 C 214.683 332.365,216.928 338.905,218.589 344.148 C 222.134 355.332,226.947 360.054,233.410 358.689 C 237.144 357.900,237.265 357.718,234.349 357.262 C 230.446 356.653,223.077 349.758,223.077 346.716 C 223.077 342.762,238.163 355.141,239.223 359.964 C 239.760 362.408,242.982 367.570,246.384 371.435 C 253.103 379.068,252.987 380.250,246.008 375.281 C 243.280 373.338,240.376 372.469,238.550 373.049 C 236.844 373.590,232.906 372.644,229.380 370.845 C 221.283 366.715,220.010 366.860,219.949 371.923 L 219.898 376.154 217.257 372.861 C 215.804 371.050,213.410 367.370,211.937 364.684 C 208.258 357.974,206.122 360.049,207.215 369.274 C 208.199 377.582,206.838 378.852,202.311 373.850 C 198.789 369.958,198.238 358.905,201.020 347.951 C 202.166 343.440,202.730 339.145,202.274 338.407 C 201.818 337.669,201.891 335.283,202.438 333.106 C 203.802 327.669,207.680 330.888,207.726 337.496 C 207.771 343.952,213.109 355.385,216.079 355.385 C 219.227 355.385,219.092 354.437,215.156 348.910 C 213.339 346.357,211.668 341.751,211.445 338.673 C 211.221 335.595,210.556 331.173,209.968 328.846 C 208.478 322.958,211.208 323.536,213.601 329.615 M106.175 330.730 C 105.203 332.546,103.300 333.817,101.947 333.554 C 97.727 332.736,98.108 329.607,102.615 328.057 C 107.944 326.224,108.402 326.568,106.175 330.730 M196.831 336.265 C 194.037 339.631,193.455 337.927,195.708 332.982 C 197.224 329.654,197.805 329.266,198.200 331.318 C 198.484 332.790,197.867 335.016,196.831 336.265 M260.769 330.769 C 261.295 331.620,260.131 332.339,258.168 332.377 C 256.214 332.415,252.538 333.380,250.000 334.521 C 245.572 336.511,245.728 336.567,253.846 335.895 C 260.795 335.319,263.270 335.819,267.692 338.686 C 280.799 347.186,282.584 347.098,280.776 338.039 L 279.785 333.077 284.112 338.412 C 286.493 341.347,289.830 344.910,291.528 346.332 C 293.226 347.753,296.630 350.604,299.093 352.667 C 304.219 356.963,303.376 360.520,297.578 359.065 C 295.504 358.544,292.864 358.900,291.712 359.856 C 290.123 361.175,287.867 360.844,282.373 358.490 C 270.553 353.423,265.000 356.858,275.769 362.575 C 279.772 364.701,280.208 365.349,277.953 365.828 C 273.924 366.685,260.461 362.023,251.964 356.829 C 247.968 354.386,242.966 351.952,240.849 351.421 C 236.737 350.389,222.423 338.603,223.714 337.312 C 224.137 336.888,226.891 337.962,229.832 339.697 C 235.124 342.819,239.870 343.759,248.077 343.309 C 254.932 342.933,252.911 340.782,245.555 340.626 C 238.519 340.476,229.228 336.145,227.993 332.439 C 227.422 330.729,228.807 330.453,234.792 331.085 C 238.926 331.521,244.038 331.352,246.154 330.708 C 251.840 328.978,259.682 329.010,260.769 330.769 M156.322 334.575 C 154.250 337.737,153.014 338.218,149.016 337.419 C 145.296 336.675,144.364 336.946,144.913 338.613 C 146.836 344.462,161.538 339.329,161.538 332.809 C 161.538 329.581,159.040 330.427,156.322 334.575 M297.602 334.664 C 300.484 336.844,300.454 336.923,296.742 336.923 C 294.627 336.923,291.552 335.907,289.909 334.664 C 287.027 332.484,287.057 332.406,290.769 332.406 C 292.885 332.406,295.959 333.422,297.602 334.664 M110.769 336.114 C 110.769 341.923,95.172 345.061,94.105 339.467 C 93.697 337.327,94.263 336.832,96.397 337.461 C 97.956 337.921,101.308 337.351,103.846 336.196 C 109.927 333.429,110.769 333.419,110.769 336.114 M197.312 357.137 C 196.368 370.919,198.981 378.972,204.900 380.520 C 207.437 381.184,207.648 381.823,206.215 384.501 C 204.068 388.513,201.538 388.632,201.538 384.722 C 201.538 382.859,200.303 381.569,198.223 381.261 C 191.003 380.190,189.245 363.709,194.929 350.385 C 198.241 342.621,198.297 342.778,197.312 357.137 M179.148 347.826 C 178.579 348.746,178.885 350.269,179.826 351.211 C 181.084 352.468,181.538 352.024,181.538 349.538 C 181.538 345.824,180.739 345.251,179.148 347.826 M189.883 356.538 C 188.696 363.215,186.154 366.902,186.154 361.946 C 186.154 358.181,188.725 350.769,190.032 350.769 C 190.514 350.769,190.447 353.365,189.883 356.538 M190.678 376.586 C 191.540 379.785,193.257 383.766,194.493 385.432 C 197.937 390.072,194.207 403.077,189.432 403.077 C 187.600 403.077,187.487 402.667,188.923 401.231 C 191.768 398.385,191.118 390.030,187.465 382.512 C 184.298 375.993,184.351 370.769,187.585 370.769 C 188.425 370.769,189.817 373.387,190.678 376.586 " stroke="none" fill="#000000" fill-rule="evenodd"></path></g></svg>