<svg id="Слой_1" data-name="Слой 1" xmlns="http://www.w3.org/2000/svg" viewBox="0 0 341.81 423.81"><defs><style>.cls-1{fill:#010101;}.cls-2{fill:#fff;}.cls-3{fill:#f9b916;}</style></defs><path class="cls-1" d="M346,207.58c.29.41.24.84-.25.84-.25,0-.5-.54-.75-.84Z" transform="translate(-130.09 -207.58)"/><path class="cls-1" d="M305,207.58c-.24.3-.49.84-.74.84-.49,0-.54-.43-.25-.84Z" transform="translate(-130.09 -207.58)"/><path class="cls-1" d="M130.09,365.51c.3.25.84.5.84.75,0,.49-.44.54-.84.25Z" transform="translate(-130.09 -207.58)"/><path class="cls-1" d="M471.9,426.49c-.29-.25-.84-.5-.84-.75,0-.49.44-.54.84-.25Z" transform="translate(-130.09 -207.58)"/><path class="cls-1" d="M130.09,340.52c.4-.28.83-.23.84.26,0,.24-.54.5-.84.74Z" transform="translate(-130.09 -207.58)"/><path class="cls-1" d="M327,631.39c-.29-.4-.23-.83.26-.83.24,0,.49.54.74.83Z" transform="translate(-130.09 -207.58)"/><path class="cls-1" d="M206.37,306.73c6.37-3.3,9.87-7.54,13.17-12.14,2.5-3.5,2.76-6.09-.9-8.79-1.21-.9-3.32-1.85-2.59-3.79.63-1.68,2.72-.61,4-1.06,5.83-2,12.87-2.48,14.28-10.56.2-1.18,1.54-1,2.43-1.36a39.83,39.83,0,0,1,16.1-2.77c2.61,0,5.74,1.37,7.71-1.83.4-.64,1.18-.47,1.78-.05,3.64,2.55,8.26,2.51,12,4.24,5.08,2.33,8,.72,11-2.95a39.3,39.3,0,0,1,4.25-4.21c.94-.85,1.85-2.36,3.34-1.51s.92,2.2,0,3.35c-.19.23-.86,1.1,0,.95,6.81-1.11.6,4.71,3.55,5.92l2.54-4c1.48-2.3,1.64-4.25-1.14-5.8-2.27-1.26-3.47-3-.58-4.86,12.24-8,19.64-19.76,25.51-32.69.71-1.55,1.34-3,3.67-3.8,1.3,7.42-2,14-3.25,21.25,2.68-.4,3.23-2.26,4-3.68,3.29-5.76,6.5-11.56,9.68-17.38.45-.83.35-2.21,1.67-2.1,1.57.14,1.47,1.61,1.58,2.72.48,5.13-1.72,9.77-3,14.54-5.82,22.24-16.93,41.29-35.83,54.8-5.68,4.06-9,6.8-7.07,14.77,1.71,7.25,1.57,14.52,9.34,18.49,1.83.93,1.87,3.53-.17,3.72-3.6.34-6.43,2.41-9.76,3.3-4.84,1.29-7.84.3-10.3-4-1-1.72-2.29-3.71-5-4.25a5.7,5.7,0,0,0,1,5c3,4.71,2.41,8.82-2.08,12.23-4.32,3.3-4.84,7.42-.78,11,1.86,1.66,1.68,2.92,1,4.71-2.53,6.62,1.62,11.43,5.42,15.43,1.89,2,6.92,3.34,9.87.65,4.93-4.51,10.88-6.4,17-7.87a45.3,45.3,0,0,0,10.19-3.77,29.13,29.13,0,0,1,13.7-3.66c3.71,0,5.28-2,5.3-5.58,0-1.34.45-2.86,2.13-2.89,2.06,0,1.67,1.73,1.61,2.94-.13,2.74.8,4.36,3.75,3.51,12.54-3.61,24.13,1.22,35.6,4.66,17.42,5.22,34.79,8.72,53,6,2.29-.34,4.18-1.84,7.1-1.88-3.84,6.34-9.72,8.59-15.83,10.32-5.6,1.58-11.28,2.88-16.92,4.3-3.32.84-5.54,2.3-3.69,6.22,1.06,2.24-.22,3.22-2.17,3.3-6.42.27-12,3.73-18.12,4.83-3.07.54-3.06,1.8-1.81,4a46.39,46.39,0,0,0,15.89,16.13c5,3.18,6.09,5.26,3,10-4.29,6.64-3.71,14-4.54,21.18-.15,1.29-.27,3.06,1.62,3.05,4.32,0,9,1.91,12.76-2,1-1,2.39-2.34,3.85-.89s-.47,2.65-.94,3.92c-.28.74-1.13,1.27-1.44,2-1,2.36-5.17,3.67-3.95,6.12,1.42,2.83,5.07,4,8.31,5,2.07.62,5.6-.33,5.66,2.75.07,3.41-3.58,2.74-5.83,3.2-3.33.67-3.5,2.11-1.35,4.31,2.32,2.38,4.71,4.71,7.1,7,2.58,2.5,1.79,4.33-1.42,4.57-6.05.47-7,3.88-6.77,9.13.76,20.33-1.46,40.53-3.63,60.68-1,8.88-3.58,17.56-3.37,26.63a7.52,7.52,0,0,1-2.28,5.31c-1.59-.7-1.69-2.16-1.7-3.41-.31-27.9-6.63-54.57-16.13-80.63-3.87-10.62-7.38-21.38-12.21-31.6-2.59-5.49-4.18-11.52-8.07-16.36-.73-.92-1.36-3-2.86-1.77s-2,4,0,4.61c4.16,1.23,2.65,7.45,7.59,7.77.86,0,.49,2.19-.17,3.12a21.69,21.69,0,0,1-3.55,4.14c-2.34,2-3.14,4-1.37,6.88a17.45,17.45,0,0,1,1.59,4.19c.8,2.65.52,4.44-3,4.69-4.59.33-6.39,2.94-7.16,7.74A458.94,458.94,0,0,0,354,569.35a50.1,50.1,0,0,1-1.26,9.37c-.18,1,.17,2.73-1.5,2.62a3.12,3.12,0,0,1-2.83-2.47c-.82-3.55-1.82-7.08-2.37-10.68-3.9-25.77-4.53-51.72-3.92-77.72.11-5,.16-10,1.19-14.93a20.94,20.94,0,0,0-3.08-16.18c-2.4-3.78-4.58-7.71-6.93-11.53-.51-.82-1.19-1.74-2.33-1.62s-1.4,1.33-1.52,2.27a119.61,119.61,0,0,0-1.48,12.87c-.08,3.13,3,4.65,5,6.58,3,3,4.11,5.64.76,9.29-3.74,4.08-4.84,9.15-4.89,14.75-.2,20.26,2.95,40.16,5.89,60.08,1.24,8.36,2.63,16.7,4,25.14-2.49.33-2.88-1.2-3.59-2.46-6.55-11.65-10.73-24.25-15-36.81-2.16-6.35-4.55-12.62-6.81-18.93-.27-.76-.19-1.76-1.38-1.59s-1.05,1.22-.9,1.94c.91,4.33,1.48,8.79,3,12.92,3.05,8.46,4.08,17.52,7.91,25.72a2,2,0,0,1-.78,2.52c-2.66-1.3-3.39-4.15-4.58-6.54-5.59-11.19-8.8-23.31-13.45-34.87-2.74-6.83-5.93-13.31-10.75-19-2.9-3.41-2.2-7.82-1.95-11.95.19-3.16.51-6.3.63-9.45.1-2.64-.92-2.7-3-1.36-8.69,5.66-9.46,12.51-2.07,19.67,1.21,1.17,2,1.94,0,3.41-9.45,6.92-13.07,16.5-13.15,28.06A176.64,176.64,0,0,0,281.35,584a25.65,25.65,0,0,1,.93,3.87,13.72,13.72,0,0,1-.27,2.86c-6-5.42-11.18-10.65-13.21-18a46.34,46.34,0,0,0-10.69-19.38c-6.22-6.82-8.15-15.87-11-24.32-5.51-16.2-11.33-32.33-14.9-49.1-1.86-8.73-3.18-17.58-5-27.82-1.7,4.36-3,7.56-4.19,10.78-.46,1.19-.32,2.92-2.13,2.92-2.17,0-1.87-2-2.23-3.31-1.49-5.38-1.18-10.92-1.15-16.4,0-3.7-.84-7-3.26-9.64s-1.75-4.46.24-6.38c2.88-2.79,3.88-6.54,5.46-10,.43-.94,1.58-2.33,0-3-1-.42-2.85-1.09-3.7.18-2.86,4.26-8.46,6-9.56,12.19-.72,4.07-.94,6,3.6,6.11-1.68,4.72-1.45,9.55-2.43,14.2-1.21,5.81-3.25,11.31-4.94,16.93-.34,1.12-.42,3-2.34,2.61-1.57-.35-1.58-2-1.75-3.28-.88-6.77-1.84-13.52-2.58-20.3C195.82,442,195,438.61,192,436c-2.34-2-2.41-4.27-.86-7.1,4.47-8.15,7.86-16.86,13.9-24.16,2.76-3.34.47-8,1.84-12,1.47-4.35,1.23-9.29,5.74-12.19a1.53,1.53,0,0,0,.57-2.17,2.33,2.33,0,0,0-2.59-1c-2.39.33-10.64,7.72-11.31,10.17-.24.85-.36,1.87.43,2.27,3.39,1.71,1.76,4.19.93,6.34-2.68,7-5.52,13.88-8.32,20.8-.55,1.37-1,3.31-2.81,3-2.13-.39-1.13-2.39-1.14-3.75,0-3.84-.18-7.68,0-11.49a21.15,21.15,0,0,0-4.83-15.33c-2.72-3.28-1.85-5.66,1.66-6.95,8.75-3.21,14.5-10.41,21.54-15.86,2.81-2.19,3.8-6.21,7.45-8.11,1.76-.91.39-3.81.45-5.81-2.28,1.13-4.35-3.61-6.91,0-3.29,4.58-7.83,8.18-10.6,13.21-.56,1-1.1,2.42-2.52,1.79-1.58-.7-1.06-2.3-.69-3.53a38.73,38.73,0,0,1,4.44-9.46c2.82-4.51,5.56-9.07,7-14.26.82-2.93,2.44-3.13,4.84-1.51s6.73.27,7.78-2.48c.53-1.39-.48-1.82-1.47-1.91a42.7,42.7,0,0,0-6-.21c-5.6.3-10.8-1.48-16.09-2.85-.88-.22-1.63-.64-1.55-1.61s1-1.1,1.86-1.22c4.75-.71,9.51-1.35,14.23-2.21s11.46-8.11,12.47-12.73c.46-2.11-.92-2.44-2.24-3.21C215.76,308.32,211.71,308.12,206.37,306.73Zm-6.75,74.1c-3.44-.11-9.44,3.92-9.1,6.82.73,6.23,1.77,12.43,2.13,18.8a51.4,51.4,0,0,0,3.48-7.79c.67-1.68,2.14-3.81,1.07-5.11-4.44-5.37-1.42-9.06,2.23-12.81,3.33-3.12,6.51-6.43,10.89-8.16,1.59-.63,2.67-1.93,1.59-3.44-1.29-1.79-2.53-.31-3.57.72-2.55,2.54-5.22,5-7.56,7.7C200.16,378.29,197.59,378.94,199.62,380.83Zm26.53,30.55a21.57,21.57,0,0,1-1.23,4.75c-2.69,7.67-6.47,15-4,23.83,1.26,4.51.22,9.66.22,14.52,3.39-5.42,6.5-11.05,4.62-17.05-2.29-7.3-1.54-13.61,2.83-19.73,3.22-4.5,3.16-4.55-2.59-6.16-.54-1.91.52-3.22,1.77-4.34,6-5.37,8.94-12.7,12.61-19.57.62-1.16.91-2.55-.44-2.81-2.69-.52-5.47-.31-8.16-1.41-.6-.25-2.27,2.08-3.43,3.24-.82.82-1.59,1.7-2.42,2.51-5,4.94-9.31,9.72-5.62,17.85C221.75,410.23,222.3,412.37,226.15,411.38ZM406.51,554.31c1.46-.46,1.35-1.23,1.41-1.82,2.31-26.4,4.14-52.82.89-79.26-.7-5.7-1.74-11.64-8-14.56-1.11-.51-1.84-1.88-2.71-2.88-8.53-9.71-14.8-20.84-19.8-32.65-3-7.08-9.57-10.5-14.49-15.6a2,2,0,0,0-2.31-.57c-.8,1.39-.34,2.86-.1,4.3,2.64,15.78,6.84,30.78,14.77,45.1,14,25.29,22.77,52.68,28.25,81.12C405.46,543,404.67,548.79,406.51,554.31Zm-135.87,6.75c-1-5-.2-10.08-.78-15.1-1.65-14.34-.53-28.53,2.28-42.63.29-1.46,0-2.63,2.58-2.24,1.49.23,4.39-1.84,3-4.53-4.35-8.24-1.32-15.39,3.77-21.56,2.93-3.54,3-5.55,1.1-9.66-2.58-5.68-3.25-12.16-6.74-17.66-3.25-5.12-6-10.57-9.3-16.5-1.22,3.67-1.67,6.74-3.16,9.19-5.2,8.53-5.56,17.91-5.45,27.4a452.12,452.12,0,0,0,7.86,76.29C266.81,549.77,267,555.84,270.64,561.06Zm60.72-3.22c1-5.21-1.48-9.89-2.09-14.82-1.57-12.77-2.83-25.61-3.52-38.47-.49-9.07-1.13-18.38,2.49-27.07,1.19-2.86,1.13-5-.76-7.25-5-5.84-5.88-12.59-5.59-20.05.26-6.56,1.73-13.22-.27-19.78-2.6-8.53-6.18-16.79-7.19-25.78-.1-.9-.35-2.05-2.2-1.95-.75,2.32-1.65,4.79-2.33,7.3-1,3.74-3.61,7.13-2.15,11.43a127,127,0,0,1,6.19,31.73c.53,7.22-1.24,14.64-6.64,20.46-2.54,2.74-4.23,5.77-.69,9.06a5.15,5.15,0,0,1,1.54,2.46c3.94,12.68,7.87,25.36,12,38C323.85,534.65,326.29,546.61,331.36,557.84ZM362,443.26c0-2.15-1.13-3.42-2.08-4.73-12-16.6-16.28-36.1-20.83-55.5-.66-2.8,1-7-1.83-8.14s-4.84,2.73-7,4.67c-1.15,1-2.29,2.1-3.92,1.5s-1-2.18-1.06-3.44a5.41,5.41,0,0,0-5-5.22c-3.16,0-6.11,2.11-8.75,4.07-.63.48.36,1,.68,1.52,6.77,11.16,12.18,22.7,11.26,36.31-.18,2.56-.21,5.58,1.52,7.89A53.14,53.14,0,0,0,340,436.42C346.92,440.63,353.71,443.4,362,443.26Zm-99.67,107c.43-7.66-3.5-14.47-4.95-21.87-4-20.45-7.69-40.87-4.1-61.78.43-2.48-.49-3.89-2.31-5.49-6.7-5.89-13.81-11.45-17.68-19.89-.58-1.26-1.15-2.71-3-2.53C230.15,464.13,252.6,541.93,262.36,550.3ZM419.7,370c-4.87-2-9.81-1.3-14.61-2.18-11-2-21.28-6.69-32.27-8.46-6-1-11.1-5.51-18.08-3-7.82,2.79-8.19,2.24-3.81,9.3,7.76,12.5,17.28,21.91,33.84,18.17,1.44-.32,3-.16,4.47-.35,3.14-.42,7.91,1,5.75-5.38-.43-1.25.77-2.39,2.3-2.76,2.1-.5,4.14-1.24,6.24-1.73C408.91,372.39,414.31,371.23,419.7,370ZM350.2,560.15a10.66,10.66,0,0,0,.33-1.9,343.08,343.08,0,0,1,5.53-67.49c1.52-8.32,1.64-17,5-24.85,1.19-2.79.26-3.78-1.64-5.19A94.7,94.7,0,0,1,345.2,448.3c-3.19-3.52-7.16-6.34-10.79-9.48.46,5,3.34,8.61,5.62,12.53,4.16,7.15,8.87,14,7.3,23.13-2.66,15.51-1.59,31.21-1.53,46.84C345.84,534.41,346.92,547.46,350.2,560.15Zm10.28-126.89,1.35-.53c-.51-2.61-1.09-5.2-1.53-7.82-1.49-9-4.09-17.84-3.41-27.1.11-1.44-.31-3.52,1.64-3.61,2.39-.12,2,2.12,2.1,3.73.15,1.89-.55,4.07,2.08,5a23.62,23.62,0,0,1,6.71,4.25c1.72,1.4,2.79,1.25,3.5-1.15,1.55-5.27,3.75-10.54-3-14a3.14,3.14,0,0,1-1-1.13c-6.84-10.1-18.68-15.17-25.52-25.5A121.61,121.61,0,0,0,360.48,433.26Zm-116-103.93c.62,1.78.82,2.79.3,3.93-4.54,9.9-11.14,18-20.71,23.4-8.59,4.89-9.25,6.39-6.42,14.79a7.82,7.82,0,0,0,.67,1.85c.47.68,1.26,1.37,2.09.95,2.76-1.38,6.5-2.25,7.92-4.52,2.82-4.54,6.93-7.53,10.55-11.11,2.47-2.44,6.22-4.09,4.12-8.71-.24-.53.41-1.58.83-2.27,2.49-4.12,4.91-8.29,7.61-12.27,1.13-1.67,2.36-4.85,4.5-3.83,2.49,1.2-.67,3.2-.9,5-.35,2.65.9,4.44,2.51,6.2.59.64,1.12,1.14,2.1.77,3.63-1.37,5-7.63,2.37-10.61s-6.63-3.61-10-5.25c-1.62-.79-3.45-1.14-3.88-3.4-.26-1.37.58-3.49-1.12-4s-2.63,1.67-3.74,2.81c-1.75,1.78-3.6,3.55-4.36,6-2.35,7.55-7.1,13.42-12.74,18.74-1.22,1.15-3.15,2.23-1.65,4.47C234,347.42,239.07,338.48,244.46,329.33Zm10.4,70.55c-4.14,8-4.14,8-12.59,12.53-2.49,1.32-5,2.57-7.49,3.89-5.94,3.14-5.09,11.9-1.67,15.51a36.52,36.52,0,0,1,7.16,10c2,4.38,4.68,8.39,8.84,11.15,1,.68,1.73,2.55,3.21,1.6s1.18-3,.57-4.1c-1.87-3.46-1.45-7.11-1.35-10.72a142.65,142.65,0,0,1,3.05-27.14A31.94,31.94,0,0,0,254.86,399.88ZM309.24,378c-4.71,3.26-9.65,4.84-13.28,8.59a21.47,21.47,0,0,1-11.75,6.7c-3.38.57-3.6,2.36-3.23,4.84,1,6.71,2.06,13.42,3.25,20.1.42,2.35,1.88,3.07,3.87,1.34,3-2.57,6.83-4.68,8.64-7.91,5.39-9.59,9.91-19.64,12.47-30.43A17.59,17.59,0,0,0,309.24,378Zm-25.85,70.4a31,31,0,0,0-.53-3.68c-2.86-8.94-6.76-17.51-9.09-26.66-3.45-13.49-6-27.21-10.4-40.45-.58-1.75-.66-4.15-3.69-3.67s-2.59,2.52-2.54,4.52c.28,10.81.91,21.56,5.28,31.68,2.49,5.78,5,11.56,7.54,17.31C273.19,434.64,276.26,442,283.39,448.38Zm112.75-29.9c-.05-.24,0-1.31-.45-1.78-5.15-5.05-9.07-11-13-17-.8-1.22-2-1.46-2.69,0-1.9,4.16-5.28,8.37-3.26,13.06,4.18,9.67,8.31,19.4,13.82,28.43.56.92.75,2.41,2.35,2s1.23-1.83,1.27-2.88A150.83,150.83,0,0,1,396.14,418.48ZM285.87,270.83a46.24,46.24,0,0,0-12,13.49c-3.77,6-3.71,5.84,2.79,9,2.42,1.18,4.17.76,6.46-.14,10-3.88,19.92-7.63,26.46-17,3-4.3,7-7.87,10.11-12.12,4.6-6.33,8.34-13.16,9.05-21.32-4.4,4.8-9.09,9.18-13.74,13.57-1.24,1.17-1.09,2.57-1,4.14a10.73,10.73,0,0,1-2.53,7.77c-4.44,5.19-8.49,10.84-14.34,14.62-4.5,2.91-7.88,7.93-14.23,7.47-1.22-.09-3.14-.33-2.63-1.12,2.11-3.3.12-8.15,3.54-10.52C286.91,276.54,286.34,274.24,285.87,270.83Zm-8,27.48c-3.54-2.05-6-3.27-8.26-4.83-3.23-2.25-6-1.4-8.54,1-4.68,4.41-3.91,9.86,2.82,12.32,7.52,2.76,11.35,10.54,19.11,12.61a4.43,4.43,0,0,1,2.25,2.56c2.05,5.36,6,4.93,10.35,3.68,2.58-.73,3-1.38,1-3.56-4.1-4.48-9.85-7.44-12.42-13.34-.67-1.53-1.82,0-2.33-.27-2.35-1.29-7.57,1.26-6.57-4.72.17-1-.76-1.33-1.62-1.5-1.46-.28-3.63-.48-3.36-2.23.37-2.39,2.73-.81,4.19-1.14C275.13,298.7,275.78,298.64,277.89,298.31Zm-25.73,84.16c-6-.72-8.32,2.32-10.06,7-2.24,6-4.38,12.26-8.92,17.16-1.79,1.94-.6,2.65,1.26,3.39,3.24,1.29,14.22-4,15.21-7.82,1.73-6.73,3.81-13.44,3.67-20.5,0-2,1.23-4.81-.87-5.85-1-.51-3.31,1.52-5,2.45-.22.12-.28.52-.36.68C247.85,381.17,250.53,379.84,252.16,382.47Zm53.58,132.71c-.14-6.1-1.84-12.07-.16-17.95.85-3,.45-4.77-1.68-7.05-5.57-6-6.42-11.89-3.07-16.34.85-1.12,2.86-2.51,1.7-3.7-1.36-1.39-2.56-3.41-5.13-3.48s-3.7,1.13-2.2,3.13.25,3,0,4.7c-1.11,7.35-2.28,15,.15,22.14C297.61,503.26,302.52,508.75,305.74,515.18Zm-23.61-85.3c-3.8-15.24-6.39-29.25-6.26-43.63,0-4.49.06-9,.19-13.48.08-2.53-.64-3.84-3.47-3.12a16.92,16.92,0,0,1-4,.42c-2.83.05-3.73,1-2.91,4,3.93,14.54,7.47,29.18,11.56,43.68C278.32,421.45,278.41,425.66,282.13,429.88Zm-8.69-73.82c.07-1.34-.53-1.94-1.77-1.91-6.9.19-11.13-4.8-15.79-8.57s-4.24-4-7.18,1.07c-.42.72-.81,1.45-1.26,2.14-1.36,2-2.07,3.78,1.14,4.92.91.33,1.4,1.76,2.14,2.64,6,7.09,6,7.06,14.79,4.42a23.2,23.2,0,0,1,4.42-.63C272.5,359.89,273,358,273.44,356.06Zm-19-85.86c-1,0-2-.05-3,0-10.19.66-10.67,1.18-8,10.91,1.33,4.81,3.15,9.39,8.39,11.63,2.56,1.09,3.24.59,3.31-2,.16-5.2,1.89-10.07,3.39-15C260.31,270,260.28,270,254.4,270.2Zm52.11,167.27c-.87-4.62-1-9.45-3.66-13.72-1.74-2.8-3.2-3-5.61-.69-3.35,3.25-4.46,7.65-6.7,11.43-2.48,4.16.11,6.41,1.82,9.17,2,3.28,4.34,1.27,6.61.17a8.32,8.32,0,0,1,3.16-1C305.67,442.7,307.38,441.25,306.51,437.47Zm-100-29.09c-5.59,7.9-9.93,15.44-8.85,24,.8,6.3,2.71,12.56,3.22,19,.12,1.57,0,3.36,1.68,4.4,2.1-3.65,4.32-13.85,2.95-16.12-4.3-7.15-3.36-13.49,2.26-19.38a2.51,2.51,0,0,0,.61-2.67C207.74,415.05,207.33,412.44,206.53,408.38ZM248.47,297c-4.78-5.25-7.93-10.7-9.1-17.22-.23-1.3-.35-4.79-3-2.09a29,29,0,0,1-9.82,6.57c-1.84.75-2.42,1.75-.84,3.25,3.73,3.54,7.45,7.08,11.29,10.49.87.78,2.61,1.79,3.12-.23.73-2.91,2.16-1.91,3.53-.92S246.36,297.74,248.47,297ZM242,303.8c-5.13-.8-9.13-3.43-12.54-7.26-1.51-1.69-3.27-4.25-5.59-.28-1.87,3.2-7.52,6-6.36,8.51,1.24,2.67,6.74,3.35,10.38,4.89a11.12,11.12,0,0,0,1.38.57C236,312.12,239.09,310.58,242,303.8Zm18.32-21c-.26,3.91.37,5.09,3.54,5,4.64-.18,6.17-3.4,8.23-6.51,5.72-8.61,5.77-8.58-4.69-10.1-1.21-.18-2.69-1.25-3.37.69C262.56,275.89,261.24,280,260.28,282.81Zm48.05,171.45c-.23-9.72-1.48-10.36-9.46-6.84-3.67,1.62-4.23,3.48-2.22,6.63.53.84.86,1.81,1.43,2.62,2.28,3.26,4.41,9.95,7,8.93C308.82,464.1,308.24,457.91,308.33,454.26Zm13.15-91.17c.58,1.63.8,3.44,1.76,4.67,1.8,2.3,3.16,6.15,6.83,5.22,7.08-1.8,8.61-4.6,8.4-12.15-.09-2.93-.76-3.9-3.79-2.62C330.45,360,326.06,361.42,321.48,363.09Zm-85,14.82c-.23,2.22-.1,3.85,2.3,3.85,1.25,0,2.56.32,2.74-1.82.54-6.17,3.55-11.31,7.61-15.77,2.33-2.58.15-3.73-1-5.37-1.45-2-2.69-1.23-4,.14-2.44,2.49-4.93,4.92-7.4,7.38-.66.66-2,1.34-1.1,2.34C238.33,371.74,238.06,374.93,236.48,377.91ZM211.5,404c4.36-9.67,11.12-16.92,18-24.05,1-1,2.66-2.24,1.37-3.77s-2.93-.56-4.4.45c-7.07,4.89-11.75,11.68-15.33,19.28A8.62,8.62,0,0,0,211.5,404Zm45.88,8.35c-1.2,10-3.32,18.77.11,27.74C265.6,432.38,265.78,423.77,257.38,412.34Zm28.29-21.85c2.95-1.87,6.62-2.83,8.35-6,2.24-4.14,5.28-7.65,8-11.44.65-.93,3-1.61,1.76-3s-2.91-.74-4.41.34A59.68,59.68,0,0,0,283.63,387C282.29,389.07,283.92,389.85,285.67,390.49Zm-38.83-88.3c3.73,5.14,4.29,10.48,4.36,16,0,3.2.45,6,4.63,7.06s8.29,3,10.51,6.66c2.12,3.49,4.55,2.81,7.92,2.47-2.11-1.77-4.3-2.37-5.83-4.14-2.22-2.57-4.49-5.66-7.43-6.95-6-2.63-7.54-7-6.74-12.7C255,305.38,252.65,303,246.84,302.19Zm72,108.94c2-6.21.16-11.72-2.24-17.08-.86-1.9-1.85-4.59-3.84-4.78s-2.31,2.78-3.42,4.33a34.71,34.71,0,0,0-2.06,2.8A29.63,29.63,0,0,0,303.05,408c-.14,1.15-.1,2.48,1.42,2.73,1.25.2,1.58-.87,1.93-1.83,1.07-2.94,2.11-5.89,3.31-8.78.66-1.58.82-4.34,2.82-4.09,1.66.21,2.86,2.39,3.35,4.47C316.73,404.06,317.81,407.59,318.79,411.13Zm-3.16-168.61q-4.15,4.51-8.29,9c-2.45,2.69-5.13,5.16-3.06,9.49.74,1.55,0,3.51-.83,5.25-.62,1.31-2.72,3-.81,4.21,1.62,1,2.62-1.52,3.77-2.49,1.34-1.13,2.16-2.88,3.13-4.42.44-.68.83-1.75-.1-2.17-6.53-2.91-.74-5.18.79-6.36C314.42,251.85,315.36,247.42,315.63,242.52Zm-88,86.84c4.13.81,5.82-2.18,8.17-4.13,3.26-2.69,4.34-7.53,8.82-8.9,1.3-.4,2.72-.33,2.6-2.21-.14-2.31,0-4.8-1.61-6.6-1.13-1.29-2,0-2.52,1.11-1.11,2.13-2.39,4.2-3.3,6.42C237.34,321,230.46,323.12,227.63,329.36ZM290.71,313c.42-5.77.46-10.73-1.18-15.64-.76-2.28-2.13-2.3-3.78-1.38s-5.46,1.86-4,3.87C284.65,303.94,285.87,309.29,290.71,313Zm-70.14,10.83c6.15-1.14,11.16-3.52,14.92-8.8C225,312.5,223.61,313.31,220.57,323.82Zm50,22.15c-.05-.53-.21-2.33-.39-4.13-.15-1.35.2-3.85-1.89-3a8.1,8.1,0,0,0-4.72,7c0,2.91,3.28,3.86,5.88,4.18C271.59,350.28,271,348.51,270.6,346Zm17.63,86.74c2.31-1.88,2.11-4.7,3.58-6.64s2.86-4,4.25-6c.56-.81,1.14-1.77.46-2.7a1.88,1.88,0,0,0-1.7-.55c-3.71,2.11-4.86,6.34-7.48,9.4C285.68,428.16,287.32,430.45,288.23,432.71Zm29.29-68c-5.08,2.28-9.84,4.85-12,10.37C310.38,372.65,314.74,369.59,317.52,364.75Zm-36.3,20.64c2.72-4.1,5.4-6.88,7-10.68C280.48,374.16,280.48,374.16,281.22,385.39Zm-48-51.59c-7.07.54-8.41,1.92-8.73,8.49C228.39,340.67,231,338,233.21,333.8Zm35.17-20.75c-2.29-1.39-4.48-2.79-6.75-4.06-.95-.52-1.81-2-3-1.18s-.62,2.43-.58,3.71c.06,2.23,1.38,2.74,3.38,2.43C263.66,313.59,265.93,313.36,268.38,313.05Zm-7.06,53.72c4.59,1.11,8.7.28,13.68-2.86C269,362.85,265,364,261.32,366.77ZM253,368.52c-.06-1.35-.48-2.58-2-1.73-2.8,1.52-3.7,4.53-4.88,7.23a.89.89,0,0,0,1,1.26c2.85-.69,4.27-2.92,5.43-5.37A12.64,12.64,0,0,0,253,368.52ZM363.52,473.85c-2.24,1.25-1.5,3.53-2,5.32-.28.93-.5,2.19.37,2.75,1.07.68,2.18-.33,3.16-.77,1.35-.61,1.16-1.93.6-3C364.85,476.78,363.7,475.57,363.52,473.85ZM285.82,462c1.5,2.87,2.51,4.81,4.62,5.34,1,.24,1.19-1.33,1.13-2.29C291.36,461.7,288.76,462.74,285.82,462Zm-70.58-56.67c-1.57,2.81-3.17,5.62-2.94,9.76C216.77,412.27,216.29,408.87,215.24,405.31Zm112.92,29.17c-.5-2.23,0-5.26-2.86-6.76-.44-.23-1.86,1.43-1.16,2.2,2,2.21-1.24,6.48,2.85,7.47C328.65,437.8,328,435.86,328.16,434.48Zm22.28,13.22c5.69,2.53,7.28,2.46,11.37-.2C358.12,446.69,354.78,446.92,350.44,447.7Zm48,1.85c1.58,2,2.53,4.66,4.37,4.68s1.05-3.48,4-4.68ZM295.14,278.91c5.36-2.16,5.68-2.55,5.94-6.7ZM413.87,476.25c.43,1-.4,3.11,2.08,2.8,1.16-.14,3.33-.06,3-1.72a5.55,5.55,0,0,0-3.87-4C413.58,473,414.09,475,413.87,476.25ZM268,319.25c.18-1.71-.86-2-2.15-1.87s-2.9.15-2.74,2.05c.13,1.5,1.63,2.28,2.76,2.47C267.66,322.2,267.4,320.2,268,319.25Zm96.12,149.53c2-2,4.25-2.77,3.25-5.39A7.48,7.48,0,0,0,364.16,468.78Zm-54.74,35c-1.23,2-.95,3.76,1.09,5Q310,506.31,309.42,503.81ZM273.84,323.2c-.94,2.82-1.41,4.6.56,6,.47.34,1.52.76,1.7.05C276.59,327.26,275.4,325.69,273.84,323.2Zm-60.4,23.42.41-1.19-6.15-2.16C208.39,347.82,211.62,345.57,213.44,346.62Zm96,31.93.39-.31c-.1-.13-.19-.34-.31-.36s-.26.18-.39.28Z" transform="translate(-130.09 -207.58)"/><path class="cls-2" d="M406.51,554.31c-1.84-5.52-1.05-11.27-2.12-16.82-5.48-28.44-14.25-55.83-28.25-81.12-7.93-14.32-12.13-29.32-14.77-45.1-.24-1.44-.7-2.91.1-4.3a2,2,0,0,1,2.31.57c4.92,5.1,11.49,8.52,14.49,15.6,5,11.81,11.27,22.94,19.8,32.65.87,1,1.6,2.37,2.71,2.88,6.29,2.92,7.33,8.86,8,14.56,3.25,26.44,1.42,52.86-.89,79.26C407.86,553.08,408,553.85,406.51,554.31Z" transform="translate(-130.09 -207.58)"/><path class="cls-2" d="M270.64,561.06c-3.61-5.22-3.83-11.29-4.88-17a452.12,452.12,0,0,1-7.86-76.29c-.11-9.49.25-18.87,5.45-27.4,1.49-2.45,1.94-5.52,3.16-9.19,3.31,5.93,6.05,11.38,9.3,16.5,3.49,5.5,4.16,12,6.74,17.66,1.86,4.11,1.83,6.12-1.1,9.66-5.09,6.17-8.12,13.32-3.77,21.56,1.43,2.69-1.47,4.76-3,4.53-2.54-.39-2.29.78-2.58,2.24-2.81,14.1-3.93,28.29-2.28,42.63C270.44,551,269.63,556.07,270.64,561.06Z" transform="translate(-130.09 -207.58)"/><path class="cls-2" d="M331.36,557.84c-5.07-11.23-7.51-23.19-11.25-34.74-4.09-12.63-8-25.31-12-38a5.15,5.15,0,0,0-1.54-2.46c-3.54-3.29-1.85-6.32.69-9.06,5.4-5.82,7.17-13.24,6.64-20.46a127,127,0,0,0-6.19-31.73c-1.46-4.3,1.13-7.69,2.15-11.43.68-2.51,1.58-5,2.33-7.3,1.85-.1,2.1,1.05,2.2,1.95,1,9,4.59,17.25,7.19,25.78,2,6.56.53,13.22.27,19.78-.29,7.46.63,14.21,5.59,20.05,1.89,2.21,1.95,4.39.76,7.25-3.62,8.69-3,18-2.49,27.07.69,12.86,1.95,25.7,3.52,38.47C329.88,548,332.36,552.63,331.36,557.84Z" transform="translate(-130.09 -207.58)"/><path class="cls-2" d="M362,443.26c-8.32.14-15.11-2.63-22-6.84A53.14,53.14,0,0,1,325,422.19c-1.73-2.31-1.7-5.33-1.52-7.89.92-13.61-4.49-25.15-11.26-36.31-.32-.51-1.31-1-.68-1.52,2.64-2,5.59-4.1,8.75-4.07a5.41,5.41,0,0,1,5,5.22c.08,1.26-.66,2.82,1.06,3.44s2.77-.47,3.92-1.5c2.18-1.94,4.24-5.75,7-4.67s1.17,5.34,1.83,8.14c4.55,19.4,8.8,38.9,20.83,55.5C360.9,439.84,362.07,441.11,362,443.26Z" transform="translate(-130.09 -207.58)"/><path class="cls-2" d="M262.36,550.3c-9.76-8.37-32.21-86.17-32.07-111.56,1.88-.18,2.45,1.27,3,2.53,3.87,8.44,11,14,17.68,19.89,1.82,1.6,2.74,3,2.31,5.49-3.59,20.91.09,41.33,4.1,61.78C258.86,535.83,262.79,542.64,262.36,550.3Z" transform="translate(-130.09 -207.58)"/><path class="cls-2" d="M419.7,370c-5.39,1.19-10.79,2.35-16.17,3.59-2.1.49-4.14,1.23-6.24,1.73-1.53.37-2.73,1.51-2.3,2.76,2.16,6.34-2.61,5-5.75,5.38-1.48.19-3,0-4.47.35-16.56,3.74-26.08-5.67-33.84-18.17-4.38-7.06-4-6.51,3.81-9.3,7-2.49,12.09,2.06,18.08,3,11,1.77,21.28,6.46,32.27,8.46C409.89,368.74,414.83,368.05,419.7,370Z" transform="translate(-130.09 -207.58)"/><path class="cls-2" d="M350.2,560.15c-3.28-12.69-4.36-25.74-4.4-38.83-.06-15.63-1.13-31.33,1.53-46.84,1.57-9.13-3.14-16-7.3-23.13-2.28-3.92-5.16-7.53-5.62-12.53,3.63,3.14,7.6,6,10.79,9.48a94.7,94.7,0,0,0,14.22,12.42c1.9,1.41,2.83,2.4,1.64,5.19-3.36,7.87-3.48,16.53-5,24.85a343.08,343.08,0,0,0-5.53,67.49A10.66,10.66,0,0,1,350.2,560.15Z" transform="translate(-130.09 -207.58)"/><path class="cls-2" d="M360.48,433.26a121.61,121.61,0,0,1-17-67.84c6.84,10.33,18.68,15.4,25.52,25.5a3.14,3.14,0,0,0,1,1.13c6.74,3.46,4.54,8.73,3,14-.71,2.4-1.78,2.55-3.5,1.15a23.62,23.62,0,0,0-6.71-4.25c-2.63-.95-1.93-3.13-2.08-5-.12-1.61.29-3.85-2.1-3.73-1.95.09-1.53,2.17-1.64,3.61-.68,9.26,1.92,18.11,3.41,27.1.44,2.62,1,5.21,1.53,7.82Z" transform="translate(-130.09 -207.58)"/><path class="cls-2" d="M244.46,329.33c-5.39,9.15-10.43,18.09-20,23-1.5-2.24.43-3.32,1.65-4.47,5.64-5.32,10.39-11.19,12.74-18.74.76-2.45,2.61-4.22,4.36-6,1.11-1.14,1.9-3.3,3.74-2.81s.86,2.58,1.12,4c.43,2.26,2.26,2.61,3.88,3.4,3.4,1.64,7.34,2.17,10,5.25s1.26,9.24-2.37,10.61c-1,.37-1.51-.13-2.1-.77-1.61-1.76-2.86-3.55-2.51-6.2.23-1.77,3.39-3.77.9-5-2.14-1-3.37,2.16-4.5,3.83-2.7,4-5.12,8.15-7.61,12.27-.42.69-1.07,1.74-.83,2.27,2.1,4.62-1.65,6.27-4.12,8.71-3.62,3.58-7.73,6.57-10.55,11.11-1.42,2.27-5.16,3.14-7.92,4.52-.83.42-1.62-.27-2.09-.95a7.82,7.82,0,0,1-.67-1.85c-2.83-8.4-2.17-9.9,6.42-14.79,9.57-5.43,16.17-13.5,20.71-23.4C245.28,332.12,245.08,331.11,244.46,329.33Z" transform="translate(-130.09 -207.58)"/><path class="cls-2" d="M254.86,399.88a31.94,31.94,0,0,1-.27,12.7,142.65,142.65,0,0,0-3.05,27.14c-.1,3.61-.52,7.26,1.35,10.72.61,1.15.85,3.18-.57,4.1s-2.18-.92-3.21-1.6c-4.16-2.76-6.83-6.77-8.84-11.15a36.52,36.52,0,0,0-7.16-10c-3.42-3.61-4.27-12.37,1.67-15.51,2.48-1.32,5-2.57,7.49-3.89C250.72,407.92,250.72,407.92,254.86,399.88Z" transform="translate(-130.09 -207.58)"/><path class="cls-2" d="M309.24,378a17.59,17.59,0,0,1,0,3.23c-2.56,10.79-7.08,20.84-12.47,30.43-1.81,3.23-5.67,5.34-8.64,7.91-2,1.73-3.45,1-3.87-1.34-1.19-6.68-2.23-13.39-3.25-20.1-.37-2.48-.15-4.27,3.23-4.84a21.47,21.47,0,0,0,11.75-6.7C299.59,382.82,304.53,381.24,309.24,378Z" transform="translate(-130.09 -207.58)"/><path class="cls-2" d="M283.39,448.38c-7.13-6.41-10.2-13.74-13.43-20.95-2.57-5.75-5-11.53-7.54-17.31-4.37-10.12-5-20.87-5.28-31.68-.05-2-.35-4.06,2.54-4.52s3.11,1.92,3.69,3.67c4.39,13.24,6.95,27,10.4,40.45,2.33,9.15,6.23,17.72,9.09,26.66A31,31,0,0,1,283.39,448.38Z" transform="translate(-130.09 -207.58)"/><path class="cls-2" d="M396.14,418.48a150.83,150.83,0,0,0-2,21.93c0,1,.28,2.51-1.27,2.88s-1.79-1.1-2.35-2c-5.51-9-9.64-18.76-13.82-28.43-2-4.69,1.36-8.9,3.26-13.06.69-1.5,1.89-1.26,2.69,0,4,5.95,7.89,11.91,13,17C396.18,417.17,396.09,418.24,396.14,418.48Z" transform="translate(-130.09 -207.58)"/><path class="cls-2" d="M285.87,270.83c.47,3.41,1,5.71-2,7.85-3.42,2.37-1.43,7.22-3.54,10.52-.51.79,1.41,1,2.63,1.12,6.35.46,9.73-4.56,14.23-7.47,5.85-3.78,9.9-9.43,14.34-14.62a10.73,10.73,0,0,0,2.53-7.77c-.12-1.57-.27-3,1-4.14,4.65-4.39,9.34-8.77,13.74-13.57-.71,8.16-4.45,15-9.05,21.32-3.08,4.25-7.11,7.82-10.11,12.12-6.54,9.37-16.46,13.12-26.46,17-2.29.9-4,1.32-6.46.14-6.5-3.17-6.56-3-2.79-9A46.24,46.24,0,0,1,285.87,270.83Z" transform="translate(-130.09 -207.58)"/><path class="cls-2" d="M277.89,298.31c-2.11.33-2.76.39-3.39.54-1.46.33-3.82-1.25-4.19,1.14-.27,1.75,1.9,1.95,3.36,2.23.86.17,1.79.49,1.62,1.5-1,6,4.22,3.43,6.57,4.72.51.27,1.66-1.26,2.33.27,2.57,5.9,8.32,8.86,12.42,13.34,2,2.18,1.59,2.83-1,3.56-4.39,1.25-8.3,1.68-10.35-3.68a4.43,4.43,0,0,0-2.25-2.56c-7.76-2.07-11.59-9.85-19.11-12.61-6.73-2.46-7.5-7.91-2.82-12.32,2.52-2.36,5.31-3.21,8.54-1C271.87,295,274.35,296.26,277.89,298.31Z" transform="translate(-130.09 -207.58)"/><path class="cls-2" d="M226.15,411.38c-3.85,1-4.4-1.15-5.85-4.37-3.69-8.13.58-12.91,5.62-17.85.83-.81,1.6-1.69,2.42-2.51,1.16-1.16,2.83-3.49,3.43-3.24,2.69,1.1,5.47.89,8.16,1.41,1.35.26,1.06,1.65.44,2.81-3.67,6.87-6.61,14.2-12.61,19.57-1.25,1.12-2.31,2.43-1.77,4.34Z" transform="translate(-130.09 -207.58)"/><path class="cls-2" d="M252.16,382.47c-1.63-2.63-4.31-1.3-5.07-3.48.08-.16.14-.56.36-.68,1.69-.93,4-3,5-2.45,2.1,1,.83,3.82.87,5.85.14,7.06-1.94,13.77-3.67,20.5-1,3.86-12,9.11-15.21,7.82-1.86-.74-3.05-1.45-1.26-3.39,4.54-4.9,6.68-11.12,8.92-17.16C243.84,384.79,246.17,381.75,252.16,382.47Z" transform="translate(-130.09 -207.58)"/><path class="cls-2" d="M305.74,515.18c-3.22-6.43-8.13-11.92-10.4-18.55-2.43-7.11-1.26-14.79-.15-22.14.26-1.69,1.46-2.77,0-4.7s-.49-3.21,2.2-3.13,3.77,2.09,5.13,3.48c1.16,1.19-.85,2.58-1.7,3.7-3.35,4.45-2.5,10.36,3.07,16.34,2.13,2.28,2.53,4.08,1.68,7.05C303.9,503.11,305.6,509.08,305.74,515.18Z" transform="translate(-130.09 -207.58)"/><path class="cls-2" d="M282.13,429.88c-3.72-4.22-3.81-8.43-4.85-12.11-4.09-14.5-7.63-29.14-11.56-43.68-.82-3,.08-4,2.91-4a16.92,16.92,0,0,0,4-.42c2.83-.72,3.55.59,3.47,3.12-.13,4.49-.15,9-.19,13.48C275.74,400.63,278.33,414.64,282.13,429.88Z" transform="translate(-130.09 -207.58)"/><path class="cls-2" d="M273.44,356.06c-.43,1.91-.94,3.83-3.51,4.08a23.2,23.2,0,0,0-4.42.63c-8.82,2.64-8.82,2.67-14.79-4.42-.74-.88-1.23-2.31-2.14-2.64-3.21-1.14-2.5-2.87-1.14-4.92.45-.69.84-1.42,1.26-2.14,2.94-5.1,2.65-4.75,7.18-1.07s8.89,8.76,15.79,8.57C272.91,354.12,273.51,354.72,273.44,356.06Z" transform="translate(-130.09 -207.58)"/><path class="cls-2" d="M254.4,270.2c5.88-.22,5.91-.22,4.14,5.57-1.5,4.91-3.23,9.78-3.39,15-.07,2.59-.75,3.09-3.31,2-5.24-2.24-7.06-6.82-8.39-11.63-2.7-9.73-2.22-10.25,8-10.91C252.41,270.15,253.41,270.2,254.4,270.2Z" transform="translate(-130.09 -207.58)"/><path class="cls-2" d="M306.51,437.47c.87,3.78-.84,5.23-4.38,5.37a8.32,8.32,0,0,0-3.16,1c-2.27,1.1-4.58,3.11-6.61-.17-1.71-2.76-4.3-5-1.82-9.17,2.24-3.78,3.35-8.18,6.7-11.43,2.41-2.34,3.87-2.11,5.61.69C305.5,428,305.64,432.85,306.51,437.47Z" transform="translate(-130.09 -207.58)"/><path class="cls-2" d="M206.53,408.38c.8,4.06,1.21,6.67,1.87,9.22a2.51,2.51,0,0,1-.61,2.67c-5.62,5.89-6.56,12.23-2.26,19.38,1.37,2.27-.85,12.47-2.95,16.12-1.69-1-1.56-2.83-1.68-4.4-.51-6.46-2.42-12.72-3.22-19C196.6,423.82,200.94,416.28,206.53,408.38Z" transform="translate(-130.09 -207.58)"/><path class="cls-2" d="M248.47,297c-2.11.73-3.44.86-4.85-.15s-2.8-2-3.53.92c-.51,2-2.25,1-3.12.23-3.84-3.41-7.56-6.95-11.29-10.49-1.58-1.5-1-2.5.84-3.25a29,29,0,0,0,9.82-6.57c2.68-2.7,2.8.79,3,2.09C240.54,286.31,243.69,291.76,248.47,297Z" transform="translate(-130.09 -207.58)"/><path class="cls-2" d="M242,303.8c-2.87,6.78-6,8.32-12.73,6.43a11.12,11.12,0,0,1-1.38-.57c-3.64-1.54-9.14-2.22-10.38-4.89-1.16-2.48,4.49-5.31,6.36-8.51,2.32-4,4.08-1.41,5.59.28C232.83,300.37,236.83,303,242,303.8Z" transform="translate(-130.09 -207.58)"/><path class="cls-2" d="M260.28,282.81c1-2.84,2.28-6.92,3.71-11,.68-1.94,2.16-.87,3.37-.69,10.46,1.52,10.41,1.49,4.69,10.1-2.06,3.11-3.59,6.33-8.23,6.51C260.65,287.9,260,286.72,260.28,282.81Z" transform="translate(-130.09 -207.58)"/><path class="cls-2" d="M308.33,454.26c-.09,3.65.49,9.84-3.28,11.34-2.56,1-4.69-5.67-7-8.93-.57-.81-.9-1.78-1.43-2.62-2-3.15-1.45-5,2.22-6.63C306.85,443.9,308.1,444.54,308.33,454.26Z" transform="translate(-130.09 -207.58)"/><path class="cls-2" d="M226,411.54c5.75,1.61,5.81,1.66,2.59,6.16-4.37,6.12-5.12,12.43-2.83,19.73,1.88,6-1.23,11.63-4.62,17.05,0-4.86,1-10-.22-14.52-2.46-8.84,1.32-16.16,4-23.83a21.57,21.57,0,0,0,1.23-4.75Z" transform="translate(-130.09 -207.58)"/><path class="cls-2" d="M321.48,363.09c4.58-1.67,9-3.08,13.2-4.88,3-1.28,3.7-.31,3.79,2.62.21,7.55-1.32,10.35-8.4,12.15-3.67.93-5-2.92-6.83-5.22C322.28,366.53,322.06,364.72,321.48,363.09Z" transform="translate(-130.09 -207.58)"/><path class="cls-2" d="M236.48,377.91c1.58-3,1.85-6.17-.91-9.25-.9-1,.44-1.68,1.1-2.34,2.47-2.46,5-4.89,7.4-7.38,1.33-1.37,2.57-2.15,4-.14,1.19,1.64,3.37,2.79,1,5.37-4.06,4.46-7.07,9.6-7.61,15.77-.18,2.14-1.49,1.82-2.74,1.82C236.38,381.76,236.25,380.13,236.48,377.91Z" transform="translate(-130.09 -207.58)"/><path class="cls-2" d="M211.5,404a8.62,8.62,0,0,1-.33-8.09c3.58-7.6,8.26-14.39,15.33-19.28,1.47-1,3.05-2,4.4-.45s-.39,2.77-1.37,3.77C222.62,387.07,215.86,394.32,211.5,404Z" transform="translate(-130.09 -207.58)"/><path class="cls-2" d="M257.38,412.34c8.4,11.43,8.22,20,.11,27.74C254.06,431.11,256.18,422.36,257.38,412.34Z" transform="translate(-130.09 -207.58)"/><path class="cls-2" d="M285.67,390.49c-1.75-.64-3.38-1.42-2-3.53a59.68,59.68,0,0,1,15.69-16.61c1.5-1.08,3.31-1.62,4.41-.34s-1.11,2.08-1.76,3c-2.67,3.79-5.71,7.3-8,11.44C292.29,387.66,288.62,388.62,285.67,390.49Z" transform="translate(-130.09 -207.58)"/><path class="cls-2" d="M246.84,302.19c5.81.81,8.16,3.19,7.42,8.4-.8,5.68.77,10.07,6.74,12.7,2.94,1.29,5.21,4.38,7.43,6.95,1.53,1.77,3.72,2.37,5.83,4.14-3.37.34-5.8,1-7.92-2.47-2.22-3.66-6.43-5.65-10.51-6.66s-4.59-3.86-4.63-7.06C251.13,312.67,250.57,307.33,246.84,302.19Z" transform="translate(-130.09 -207.58)"/><path class="cls-2" d="M318.79,411.13c-1-3.54-2.06-7.07-2.91-10.65-.49-2.08-1.69-4.26-3.35-4.47-2-.25-2.16,2.51-2.82,4.09-1.2,2.89-2.24,5.84-3.31,8.78-.35,1-.68,2-1.93,1.83-1.52-.25-1.56-1.58-1.42-2.73a29.63,29.63,0,0,1,4.18-11.58,34.71,34.71,0,0,1,2.06-2.8c1.11-1.55,1.41-4.53,3.42-4.33s3,2.88,3.84,4.78C319,399.41,320.82,404.92,318.79,411.13Z" transform="translate(-130.09 -207.58)"/><path class="cls-2" d="M315.63,242.52c-.27,4.9-1.21,9.33-5.4,12.56-1.53,1.18-7.32,3.45-.79,6.36.93.42.54,1.49.1,2.17-1,1.54-1.79,3.29-3.13,4.42-1.15,1-2.15,3.5-3.77,2.49-1.91-1.19.19-2.9.81-4.21.82-1.74,1.57-3.7.83-5.25-2.07-4.33.61-6.8,3.06-9.49Q311.48,247,315.63,242.52Z" transform="translate(-130.09 -207.58)"/><path class="cls-2" d="M227.63,329.36c2.83-6.24,9.71-8.34,12.16-14.31.91-2.22,2.19-4.29,3.3-6.42.56-1.07,1.39-2.4,2.52-1.11,1.57,1.8,1.47,4.29,1.61,6.6.12,1.88-1.3,1.81-2.6,2.21-4.48,1.37-5.56,6.21-8.82,8.9C233.45,327.18,231.76,330.17,227.63,329.36Z" transform="translate(-130.09 -207.58)"/><path class="cls-2" d="M199.46,380.76c-3.68,3.73-6.7,7.42-2.26,12.79,1.07,1.3-.4,3.43-1.07,5.11a51.4,51.4,0,0,1-3.48,7.79c-.36-6.37-1.4-12.57-2.13-18.8-.34-2.9,5.66-6.93,9.1-6.82Z" transform="translate(-130.09 -207.58)"/><path class="cls-2" d="M290.71,313c-4.84-3.7-6.06-9.05-9-13.15-1.43-2,2.3-2.9,4-3.87s3-.9,3.78,1.38C291.17,302.26,291.13,307.22,290.71,313Z" transform="translate(-130.09 -207.58)"/><path class="cls-2" d="M220.57,323.82c3-10.51,4.39-11.32,14.92-8.8C231.73,320.3,226.72,322.68,220.57,323.82Z" transform="translate(-130.09 -207.58)"/><path class="cls-2" d="M270.6,346c.44,2.54,1,4.31-1.12,4-2.6-.32-5.9-1.27-5.88-4.18a8.1,8.1,0,0,1,4.72-7c2.09-.88,1.74,1.62,1.89,3C270.39,343.64,270.55,345.44,270.6,346Z" transform="translate(-130.09 -207.58)"/><path class="cls-2" d="M288.23,432.71c-.91-2.26-2.55-4.55-.89-6.48,2.62-3.06,3.77-7.29,7.48-9.4a1.88,1.88,0,0,1,1.7.55c.68.93.1,1.89-.46,2.7-1.39,2-2.77,4-4.25,6S290.54,430.83,288.23,432.71Z" transform="translate(-130.09 -207.58)"/><path class="cls-2" d="M317.52,364.75c-2.78,4.84-7.14,7.9-12,10.37C307.68,369.6,312.44,367,317.52,364.75Z" transform="translate(-130.09 -207.58)"/><path class="cls-2" d="M281.22,385.39c-.74-11.23-.74-11.23,7-10.68C286.62,378.51,283.94,381.29,281.22,385.39Z" transform="translate(-130.09 -207.58)"/><path class="cls-2" d="M233.21,333.8c-2.21,4.16-4.82,6.87-8.73,8.49C224.8,335.72,226.14,334.34,233.21,333.8Z" transform="translate(-130.09 -207.58)"/><path class="cls-2" d="M268.38,313.05c-2.45.31-4.72.54-7,.9-2,.31-3.32-.2-3.38-2.43,0-1.28-.66-2.86.58-3.71s2.06.66,3,1.18C263.9,310.26,266.09,311.66,268.38,313.05Z" transform="translate(-130.09 -207.58)"/><path class="cls-2" d="M199.62,380.83c-2-1.89.54-2.54,1.16-3.27,2.34-2.72,5-5.16,7.56-7.7,1-1,2.28-2.51,3.57-.72,1.08,1.51,0,2.81-1.59,3.44-4.38,1.73-7.56,5-10.88,8.17Z" transform="translate(-130.09 -207.58)"/><path class="cls-2" d="M261.32,366.77C265,364,269,362.85,275,363.91,270,367.05,265.91,367.88,261.32,366.77Z" transform="translate(-130.09 -207.58)"/><path class="cls-2" d="M253,368.52a12.64,12.64,0,0,1-.48,1.39c-1.16,2.45-2.58,4.68-5.43,5.37a.89.89,0,0,1-1-1.26c1.18-2.7,2.08-5.71,4.88-7.23C252.52,365.94,252.94,367.17,253,368.52Z" transform="translate(-130.09 -207.58)"/><path class="cls-2" d="M363.52,473.85c.18,1.72,1.33,2.93,2.09,4.33.56,1,.75,2.36-.6,3-1,.44-2.09,1.45-3.16.77-.87-.56-.65-1.82-.37-2.75C362,477.38,361.28,475.1,363.52,473.85Z" transform="translate(-130.09 -207.58)"/><path class="cls-2" d="M215.24,405.31c1,3.56,1.53,7-2.94,9.76C212.07,410.93,213.67,408.12,215.24,405.31Z" transform="translate(-130.09 -207.58)"/><path class="cls-2" d="M328.16,434.48c-.12,1.38.49,3.32-1.17,2.91-4.09-1-.86-5.26-2.85-7.47-.7-.77.72-2.43,1.16-2.2C328.16,429.22,327.66,432.25,328.16,434.48Z" transform="translate(-130.09 -207.58)"/><path class="cls-2" d="M350.44,447.7c4.34-.78,7.68-1,11.37-.2C357.72,450.16,356.13,450.23,350.44,447.7Z" transform="translate(-130.09 -207.58)"/><path class="cls-2" d="M398.45,449.55h8.33c-2.91,1.2-2,4.71-4,4.68S400,451.59,398.45,449.55Z" transform="translate(-130.09 -207.58)"/><path class="cls-2" d="M295.14,278.91l5.94-6.7C300.82,276.36,300.5,276.75,295.14,278.91Z" transform="translate(-130.09 -207.58)"/><path class="cls-2" d="M413.87,476.25c.22-1.3-.29-3.26,1.17-3a5.55,5.55,0,0,1,3.87,4c.37,1.66-1.8,1.58-3,1.72C413.47,479.36,414.3,477.23,413.87,476.25Z" transform="translate(-130.09 -207.58)"/><path class="cls-2" d="M268,319.25c-.64.95-.38,2.95-2.13,2.65-1.13-.19-2.63-1-2.76-2.47-.16-1.9,1.46-1.91,2.74-2.05S268.22,317.54,268,319.25Z" transform="translate(-130.09 -207.58)"/><path class="cls-2" d="M364.16,468.78a7.48,7.48,0,0,1,3.25-5.39C368.41,466,366.18,466.81,364.16,468.78Z" transform="translate(-130.09 -207.58)"/><path class="cls-3" d="M309.42,503.81q.56,2.51,1.09,5C308.47,507.57,308.19,505.82,309.42,503.81Z" transform="translate(-130.09 -207.58)"/><path class="cls-2" d="M213.44,346.62c-1.82-1.05-5.05,1.2-5.74-3.35l6.15,2.16Z" transform="translate(-130.09 -207.58)"/><path class="cls-2" d="M309.46,378.55l-.31-.39c.13-.1.27-.29.39-.28s.21.23.31.36Z" transform="translate(-130.09 -207.58)"/></svg>